<svg width="912" height="912" viewBox="0 0 912 912" fill="none" xmlns="http://www.w3.org/2000/svg">
<g id="Frame 40027">
<path id="&#230;&#160;&#188;&#229;&#173;&#144;&#229;&#186;&#149;&#232;&#137;&#178;" d="M912 0H0V912H912V0Z" fill="#F7F8FA"/>
<path id="&#230;&#160;&#188;&#229;&#173;&#144;" d="M911.988 912H0V0H912V1.16923H911.988V30.4H912V31.5692H911.988V60.8H912V61.9692H911.988V91.2H912V92.3692H911.988V121.6H912V122.769H911.988V152H912V153.169H911.988V182.4H912V183.569H911.988V212.8H912V213.969H911.988V243.2H912V244.369H911.988V273.6H912V274.769H911.988V304H912V305.169H911.988V334.4H912V335.569H911.988V364.8H912V365.969H911.988V395.2H912V396.369H911.988V425.6H912V426.769H911.988V456H912V457.169H911.988V485.231H912V486.4H911.988V515.631H912V516.8H911.988V546.031H912V547.2H911.988V576.431H912V577.6H911.988V606.831H912V608H911.988V637.231H912V638.4H911.988V667.631H912V668.8H911.988V698.031H912V699.2H911.988V728.431H912V729.6H911.988V758.831H912V760H911.988V789.231H912V790.4H911.988V819.631H912V820.8H911.988V850.031H912V851.2H911.988V880.431H912V881.6H911.988V910.831H912V912H911.988ZM910.819 910.831V881.6H881.6V910.831H910.819ZM880.431 910.831V881.6H851.188V910.831H880.431ZM850.019 910.831V881.6H820.8V910.831H850.019ZM819.631 910.831V881.6H790.388V910.831H819.631ZM789.219 910.831V881.6H760V910.831H789.219ZM758.831 910.831V881.6H729.6V910.831H758.831ZM728.431 910.831V881.6H699.2V910.831H728.431ZM698.031 910.831V881.6H668.8V910.831H698.031ZM667.631 910.831V881.6H638.4V910.831H667.631ZM637.231 910.831V881.6H608V910.831H637.231ZM606.831 910.831V881.6H577.6V910.831H606.831ZM576.431 910.831V881.6H547.2V910.831H576.431ZM546.031 910.831V881.6H516.8V910.831H546.031ZM515.631 910.831V881.6H486.4V910.831H515.631ZM485.231 910.831V881.6H457.169V910.831H485.231ZM456 910.831V881.6H426.769V910.831H456ZM425.6 910.831V881.6H396.358V910.831H425.6ZM395.188 910.831V881.6H365.969V910.831H395.188ZM364.8 910.831V881.6H335.569V910.831H364.8ZM334.4 910.831V881.6H305.169V910.831H334.4ZM304 910.831V881.6H274.769V910.831H304ZM273.6 910.831V881.6H244.369V910.831H273.6ZM243.2 910.831V881.6H213.969V910.831H243.2ZM212.8 910.831V881.6H183.569V910.831H212.8ZM182.4 910.831V881.6H153.158V910.831H182.4ZM151.988 910.831V881.6H122.769V910.831H151.988ZM121.6 910.831V881.6H92.3692V910.831H121.6ZM91.2 910.831V881.6H61.9692V910.831H91.2ZM60.8 910.831V881.6H31.5692V910.831H60.8ZM30.4 910.831V881.6H1.16923V910.831H30.4ZM910.819 880.431V851.2H881.6V880.431H910.819ZM880.431 880.431V851.2H851.188V880.431H880.431ZM850.019 880.431V851.2H820.8V880.431H850.019ZM819.631 880.431V851.2H790.388V880.431H819.631ZM789.219 880.431V851.2H760V880.431H789.219ZM758.831 880.431V851.2H729.6V880.431H758.831ZM728.431 880.431V851.2H699.2V880.431H728.431ZM698.031 880.431V851.2H668.8V880.431H698.031ZM667.631 880.431V851.2H638.4V880.431H667.631ZM637.231 880.431V851.2H608V880.431H637.231ZM606.831 880.431V851.2H577.6V880.431H606.831ZM576.431 880.431V851.2H547.2V880.431H576.431ZM546.031 880.431V851.2H516.8V880.431H546.031ZM515.631 880.431V851.2H486.4V880.431H515.631ZM485.231 880.431V851.2H457.169V880.431H485.231ZM456 880.431V851.2H426.769V880.431H456ZM425.6 880.431V851.2H396.358V880.431H425.6ZM395.188 880.431V851.2H365.969V880.431H395.188ZM364.8 880.431V851.2H335.569V880.431H364.8ZM334.4 880.431V851.2H305.169V880.431H334.4ZM304 880.431V851.2H274.769V880.431H304ZM273.6 880.431V851.2H244.369V880.431H273.6ZM243.2 880.431V851.2H213.969V880.431H243.2ZM212.8 880.431V851.2H183.569V880.431H212.8ZM182.4 880.431V851.2H153.158V880.431H182.4ZM151.988 880.431V851.2H122.769V880.431H151.988ZM121.6 880.431V851.2H92.3692V880.431H121.6ZM91.2 880.431V851.2H61.9692V880.431H91.2ZM60.8 880.431V851.2H31.5692V880.431H60.8ZM30.4 880.431V851.2H1.16923V880.431H30.4ZM910.819 850.031V820.8H881.6V850.031H910.819ZM880.431 850.031V820.8H851.188V850.031H880.431ZM850.019 850.031V820.8H820.8V850.031H850.019ZM819.631 850.031V820.8H790.388V850.031H819.631ZM789.219 850.031V820.8H760V850.031H789.219ZM758.831 850.031V820.8H729.6V850.031H758.831ZM728.431 850.031V820.8H699.2V850.031H728.431ZM698.031 850.031V820.8H668.8V850.031H698.031ZM667.631 850.031V820.8H638.4V850.031H667.631ZM637.231 850.031V820.8H608V850.031H637.231ZM606.831 850.031V820.8H577.6V850.031H606.831ZM576.431 850.031V820.8H547.2V850.031H576.431ZM546.031 850.031V820.8H516.8V850.031H546.031ZM515.631 850.031V820.8H486.4V850.031H515.631ZM485.231 850.031V820.8H457.169V850.031H485.231ZM456 850.031V820.8H426.769V850.031H456ZM425.6 850.031V820.8H396.358V850.031H425.6ZM395.188 850.031V820.8H365.969V850.031H395.188ZM364.8 850.031V820.8H335.569V850.031H364.8ZM334.4 850.031V820.8H305.169V850.031H334.4ZM304 850.031V820.8H274.769V850.031H304ZM273.6 850.031V820.8H244.369V850.031H273.6ZM243.2 850.031V820.8H213.969V850.031H243.2ZM212.8 850.031V820.8H183.569V850.031H212.8ZM182.4 850.031V820.8H153.158V850.031H182.4ZM151.988 850.031V820.8H122.769V850.031H151.988ZM121.6 850.031V820.8H92.3692V850.031H121.6ZM91.2 850.031V820.8H61.9692V850.031H91.2ZM60.8 850.031V820.8H31.5692V850.031H60.8ZM30.4 850.031V820.8H1.16923V850.031H30.4ZM910.819 819.631V790.4H881.6V819.631H910.819ZM880.431 819.631V790.4H851.188V819.631H880.431ZM850.019 819.631V790.4H820.8V819.631H850.019ZM819.631 819.631V790.4H790.388V819.631H819.631ZM789.219 819.631V790.4H760V819.631H789.219ZM758.831 819.631V790.4H729.6V819.631H758.831ZM728.431 819.631V790.4H699.2V819.631H728.431ZM698.031 819.631V790.4H668.8V819.631H698.031ZM667.631 819.631V790.4H638.4V819.631H667.631ZM637.231 819.631V790.4H608V819.631H637.231ZM606.831 819.631V790.4H577.6V819.631H606.831ZM576.431 819.631V790.4H547.2V819.631H576.431ZM546.031 819.631V790.4H516.8V819.631H546.031ZM515.631 819.631V790.4H486.4V819.631H515.631ZM485.231 819.631V790.4H457.169V819.631H485.231ZM456 819.631V790.4H426.769V819.631H456ZM425.6 819.631V790.4H396.358V819.631H425.6ZM395.188 819.631V790.4H365.969V819.631H395.188ZM364.8 819.631V790.4H335.569V819.631H364.8ZM334.4 819.631V790.4H305.169V819.631H334.4ZM304 819.631V790.4H274.769V819.631H304ZM273.6 819.631V790.4H244.369V819.631H273.6ZM243.2 819.631V790.4H213.969V819.631H243.2ZM212.8 819.631V790.4H183.569V819.631H212.8ZM182.4 819.631V790.4H153.158V819.631H182.4ZM151.988 819.631V790.4H122.769V819.631H151.988ZM121.6 819.631V790.4H92.3692V819.631H121.6ZM91.2 819.631V790.4H61.9692V819.631H91.2ZM60.8 819.631V790.4H31.5692V819.631H60.8ZM30.4 819.631V790.4H1.16923V819.631H30.4ZM910.819 789.231V760H881.6V789.231H910.819ZM880.431 789.231V760H851.188V789.231H880.431ZM850.019 789.231V760H820.8V789.231H850.019ZM819.631 789.231V760H790.388V789.231H819.631ZM789.219 789.231V760H760V789.231H789.219ZM758.831 789.231V760H729.6V789.231H758.831ZM728.431 789.231V760H699.2V789.231H728.431ZM698.031 789.231V760H668.8V789.231H698.031ZM667.631 789.231V760H638.4V789.231H667.631ZM637.231 789.231V760H608V789.231H637.231ZM606.831 789.231V760H577.6V789.231H606.831ZM576.431 789.231V760H547.2V789.231H576.431ZM546.031 789.231V760H516.8V789.231H546.031ZM515.631 789.231V760H486.4V789.231H515.631ZM485.231 789.231V760H457.169V789.231H485.231ZM456 789.231V760H426.769V789.231H456ZM425.6 789.231V760H396.358V789.231H425.6ZM395.188 789.231V760H365.969V789.231H395.188ZM364.8 789.231V760H335.569V789.231H364.8ZM334.4 789.231V760H305.169V789.231H334.4ZM304 789.231V760H274.769V789.231H304ZM273.6 789.231V760H244.369V789.231H273.6ZM243.2 789.231V760H213.969V789.231H243.2ZM212.8 789.231V760H183.569V789.231H212.8ZM182.4 789.231V760H153.158V789.231H182.4ZM151.988 789.231V760H122.769V789.231H151.988ZM121.6 789.231V760H92.3692V789.231H121.6ZM91.2 789.231V760H61.9692V789.231H91.2ZM60.8 789.231V760H31.5692V789.231H60.8ZM30.4 789.231V760H1.16923V789.231H30.4ZM910.819 758.831V729.6H881.6V758.831H910.819ZM880.431 758.831V729.6H851.188V758.831H880.431ZM850.019 758.831V729.6H820.8V758.831H850.019ZM819.631 758.831V729.6H790.388V758.831H819.631ZM789.219 758.831V729.6H760V758.831H789.219ZM758.831 758.831V729.6H729.6V758.831H758.831ZM728.431 758.831V729.6H699.2V758.831H728.431ZM698.031 758.831V729.6H668.8V758.831H698.031ZM667.631 758.831V729.6H638.4V758.831H667.631ZM637.231 758.831V729.6H608V758.831H637.231ZM606.831 758.831V729.6H577.6V758.831H606.831ZM576.431 758.831V729.6H547.2V758.831H576.431ZM546.031 758.831V729.6H516.8V758.831H546.031ZM515.631 758.831V729.6H486.4V758.831H515.631ZM485.231 758.831V729.6H457.169V758.831H485.231ZM456 758.831V729.6H426.769V758.831H456ZM425.6 758.831V729.6H396.358V758.831H425.6ZM395.188 758.831V729.6H365.969V758.831H395.188ZM364.8 758.831V729.6H335.569V758.831H364.8ZM334.4 758.831V729.6H305.169V758.831H334.4ZM304 758.831V729.6H274.769V758.831H304ZM273.6 758.831V729.6H244.369V758.831H273.6ZM243.2 758.831V729.6H213.969V758.831H243.2ZM212.8 758.831V729.6H183.569V758.831H212.8ZM182.4 758.831V729.6H153.158V758.831H182.4ZM151.988 758.831V729.6H122.769V758.831H151.988ZM121.6 758.831V729.6H92.3692V758.831H121.6ZM91.2 758.831V729.6H61.9692V758.831H91.2ZM60.8 758.831V729.6H31.5692V758.831H60.8ZM30.4 758.831V729.6H1.16923V758.831H30.4ZM910.819 728.431V699.2H881.6V728.431H910.819ZM880.431 728.431V699.2H851.188V728.431H880.431ZM850.019 728.431V699.2H820.8V728.431H850.019ZM819.631 728.431V699.2H790.388V728.431H819.631ZM789.219 728.431V699.2H760V728.431H789.219ZM758.831 728.431V699.2H729.6V728.431H758.831ZM728.431 728.431V699.2H699.2V728.431H728.431ZM698.031 728.431V699.2H668.8V728.431H698.031ZM667.631 728.431V699.2H638.4V728.431H667.631ZM637.231 728.431V699.2H608V728.431H637.231ZM606.831 728.431V699.2H577.6V728.431H606.831ZM576.431 728.431V699.2H547.2V728.431H576.431ZM546.031 728.431V699.2H516.8V728.431H546.031ZM515.631 728.431V699.2H486.4V728.431H515.631ZM485.231 728.431V699.2H457.169V728.431H485.231ZM456 728.431V699.2H426.769V728.431H456ZM425.6 728.431V699.2H396.358V728.431H425.6ZM395.188 728.431V699.2H365.969V728.431H395.188ZM364.8 728.431V699.2H335.569V728.431H364.8ZM334.4 728.431V699.2H305.169V728.431H334.4ZM304 728.431V699.2H274.769V728.431H304ZM273.6 728.431V699.2H244.369V728.431H273.6ZM243.2 728.431V699.2H213.969V728.431H243.2ZM212.8 728.431V699.2H183.569V728.431H212.8ZM182.4 728.431V699.2H153.158V728.431H182.4ZM151.988 728.431V699.2H122.769V728.431H151.988ZM121.6 728.431V699.2H92.3692V728.431H121.6ZM91.2 728.431V699.2H61.9692V728.431H91.2ZM60.8 728.431V699.2H31.5692V728.431H60.8ZM30.4 728.431V699.2H1.16923V728.431H30.4ZM910.819 698.031V668.8H881.6V698.031H910.819ZM880.431 698.031V668.8H851.188V698.031H880.431ZM850.019 698.031V668.8H820.8V698.031H850.019ZM819.631 698.031V668.8H790.388V698.031H819.631ZM789.219 698.031V668.8H760V698.031H789.219ZM758.831 698.031V668.8H729.6V698.031H758.831ZM728.431 698.031V668.8H699.2V698.031H728.431ZM698.031 698.031V668.8H668.8V698.031H698.031ZM667.631 698.031V668.8H638.4V698.031H667.631ZM637.231 698.031V668.8H608V698.031H637.231ZM606.831 698.031V668.8H577.6V698.031H606.831ZM576.431 698.031V668.8H547.2V698.031H576.431ZM546.031 698.031V668.8H516.8V698.031H546.031ZM515.631 698.031V668.8H486.4V698.031H515.631ZM485.231 698.031V668.8H457.169V698.031H485.231ZM456 698.031V668.8H426.769V698.031H456ZM425.6 698.031V668.8H396.358V698.031H425.6ZM395.188 698.031V668.8H365.969V698.031H395.188ZM364.8 698.031V668.8H335.569V698.031H364.8ZM334.4 698.031V668.8H305.169V698.031H334.4ZM304 698.031V668.8H274.769V698.031H304ZM273.6 698.031V668.8H244.369V698.031H273.6ZM243.2 698.031V668.8H213.969V698.031H243.2ZM212.8 698.031V668.8H183.569V698.031H212.8ZM182.4 698.031V668.8H153.158V698.031H182.4ZM151.988 698.031V668.8H122.769V698.031H151.988ZM121.6 698.031V668.8H92.3692V698.031H121.6ZM91.2 698.031V668.8H61.9692V698.031H91.2ZM60.8 698.031V668.8H31.5692V698.031H60.8ZM30.4 698.031V668.8H1.16923V698.031H30.4ZM910.819 667.631V638.4H881.6V667.631H910.819ZM880.431 667.631V638.4H851.188V667.631H880.431ZM850.019 667.631V638.4H820.8V667.631H850.019ZM819.631 667.631V638.4H790.388V667.631H819.631ZM789.219 667.631V638.4H760V667.631H789.219ZM758.831 667.631V638.4H729.6V667.631H758.831ZM728.431 667.631V638.4H699.2V667.631H728.431ZM698.031 667.631V638.4H668.8V667.631H698.031ZM667.631 667.631V638.4H638.4V667.631H667.631ZM637.231 667.631V638.4H608V667.631H637.231ZM606.831 667.631V638.4H577.6V667.631H606.831ZM576.431 667.631V638.4H547.2V667.631H576.431ZM546.031 667.631V638.4H516.8V667.631H546.031ZM515.631 667.631V638.4H486.4V667.631H515.631ZM485.231 667.631V638.4H457.169V667.631H485.231ZM456 667.631V638.4H426.769V667.631H456ZM425.6 667.631V638.4H396.358V667.631H425.6ZM395.188 667.631V638.4H365.969V667.631H395.188ZM364.8 667.631V638.4H335.569V667.631H364.8ZM334.4 667.631V638.4H305.169V667.631H334.4ZM304 667.631V638.4H274.769V667.631H304ZM273.6 667.631V638.4H244.369V667.631H273.6ZM243.2 667.631V638.4H213.969V667.631H243.2ZM212.8 667.631V638.4H183.569V667.631H212.8ZM182.4 667.631V638.4H153.158V667.631H182.4ZM151.988 667.631V638.4H122.769V667.631H151.988ZM121.6 667.631V638.4H92.3692V667.631H121.6ZM91.2 667.631V638.4H61.9692V667.631H91.2ZM60.8 667.631V638.4H31.5692V667.631H60.8ZM30.4 667.631V638.4H1.16923V667.631H30.4ZM910.819 637.231V608H881.6V637.231H910.819ZM880.431 637.231V608H851.188V637.231H880.431ZM850.019 637.231V608H820.8V637.231H850.019ZM819.631 637.231V608H790.388V637.231H819.631ZM789.219 637.231V608H760V637.231H789.219ZM758.831 637.231V608H729.6V637.231H758.831ZM728.431 637.231V608H699.2V637.231H728.431ZM698.031 637.231V608H668.8V637.231H698.031ZM667.631 637.231V608H638.4V637.231H667.631ZM637.231 637.231V608H608V637.231H637.231ZM606.831 637.231V608H577.6V637.231H606.831ZM576.431 637.231V608H547.2V637.231H576.431ZM546.031 637.231V608H516.8V637.231H546.031ZM515.631 637.231V608H486.4V637.231H515.631ZM485.231 637.231V608H457.169V637.231H485.231ZM456 637.231V608H426.769V637.231H456ZM425.6 637.231V608H396.358V637.231H425.6ZM395.188 637.231V608H365.969V637.231H395.188ZM364.8 637.231V608H335.569V637.231H364.8ZM334.4 637.231V608H305.169V637.231H334.4ZM304 637.231V608H274.769V637.231H304ZM273.6 637.231V608H244.369V637.231H273.6ZM243.2 637.231V608H213.969V637.231H243.2ZM212.8 637.231V608H183.569V637.231H212.8ZM182.4 637.231V608H153.158V637.231H182.4ZM151.988 637.231V608H122.769V637.231H151.988ZM121.6 637.231V608H92.3692V637.231H121.6ZM91.2 637.231V608H61.9692V637.231H91.2ZM60.8 637.231V608H31.5692V637.231H60.8ZM30.4 637.231V608H1.16923V637.231H30.4ZM910.819 606.831V577.6H881.6V606.831H910.819ZM880.431 606.831V577.6H851.188V606.831H880.431ZM850.019 606.831V577.6H820.8V606.831H850.019ZM819.631 606.831V577.6H790.388V606.831H819.631ZM789.219 606.831V577.6H760V606.831H789.219ZM758.831 606.831V577.6H729.6V606.831H758.831ZM728.431 606.831V577.6H699.2V606.831H728.431ZM698.031 606.831V577.6H668.8V606.831H698.031ZM667.631 606.831V577.6H638.4V606.831H667.631ZM637.231 606.831V577.6H608V606.831H637.231ZM606.831 606.831V577.6H577.6V606.831H606.831ZM576.431 606.831V577.6H547.2V606.831H576.431ZM546.031 606.831V577.6H516.8V606.831H546.031ZM515.631 606.831V577.6H486.4V606.831H515.631ZM485.231 606.831V577.6H457.169V606.831H485.231ZM456 606.831V577.6H426.769V606.831H456ZM425.6 606.831V577.6H396.358V606.831H425.6ZM395.188 606.831V577.6H365.969V606.831H395.188ZM364.8 606.831V577.6H335.569V606.831H364.8ZM334.4 606.831V577.6H305.169V606.831H334.4ZM304 606.831V577.6H274.769V606.831H304ZM273.6 606.831V577.6H244.369V606.831H273.6ZM243.2 606.831V577.6H213.969V606.831H243.2ZM212.8 606.831V577.6H183.569V606.831H212.8ZM182.4 606.831V577.6H153.158V606.831H182.4ZM151.988 606.831V577.6H122.769V606.831H151.988ZM121.6 606.831V577.6H92.3692V606.831H121.6ZM91.2 606.831V577.6H61.9692V606.831H91.2ZM60.8 606.831V577.6H31.5692V606.831H60.8ZM30.4 606.831V577.6H1.16923V606.831H30.4ZM910.819 576.431V547.2H881.6V576.431H910.819ZM880.431 576.431V547.2H851.188V576.431H880.431ZM850.019 576.431V547.2H820.8V576.431H850.019ZM819.631 576.431V547.2H790.388V576.431H819.631ZM789.219 576.431V547.2H760V576.431H789.219ZM758.831 576.431V547.2H729.6V576.431H758.831ZM728.431 576.431V547.2H699.2V576.431H728.431ZM698.031 576.431V547.2H668.8V576.431H698.031ZM667.631 576.431V547.2H638.4V576.431H667.631ZM637.231 576.431V547.2H608V576.431H637.231ZM606.831 576.431V547.2H577.6V576.431H606.831ZM576.431 576.431V547.2H547.2V576.431H576.431ZM546.031 576.431V547.2H516.8V576.431H546.031ZM515.631 576.431V547.2H486.4V576.431H515.631ZM485.231 576.431V547.2H457.169V576.431H485.231ZM456 576.431V547.2H426.769V576.431H456ZM425.6 576.431V547.2H396.358V576.431H425.6ZM395.188 576.431V547.2H365.969V576.431H395.188ZM364.8 576.431V547.2H335.569V576.431H364.8ZM334.4 576.431V547.2H305.169V576.431H334.4ZM304 576.431V547.2H274.769V576.431H304ZM273.6 576.431V547.2H244.369V576.431H273.6ZM243.2 576.431V547.2H213.969V576.431H243.2ZM212.8 576.431V547.2H183.569V576.431H212.8ZM182.4 576.431V547.2H153.158V576.431H182.4ZM151.988 576.431V547.2H122.769V576.431H151.988ZM121.6 576.431V547.2H92.3692V576.431H121.6ZM91.2 576.431V547.2H61.9692V576.431H91.2ZM60.8 576.431V547.2H31.5692V576.431H60.8ZM30.4 576.431V547.2H1.16923V576.431H30.4ZM910.819 546.031V516.8H881.6V546.031H910.819ZM880.431 546.031V516.8H851.188V546.031H880.431ZM850.019 546.031V516.8H820.8V546.031H850.019ZM819.631 546.031V516.8H790.388V546.031H819.631ZM789.219 546.031V516.8H760V546.031H789.219ZM758.831 546.031V516.8H729.6V546.031H758.831ZM728.431 546.031V516.8H699.2V546.031H728.431ZM698.031 546.031V516.8H668.8V546.031H698.031ZM667.631 546.031V516.8H638.4V546.031H667.631ZM637.231 546.031V516.8H608V546.031H637.231ZM606.831 546.031V516.8H577.6V546.031H606.831ZM576.431 546.031V516.8H547.2V546.031H576.431ZM546.031 546.031V516.8H516.8V546.031H546.031ZM515.631 546.031V516.8H486.4V546.031H515.631ZM485.231 546.031V516.8H457.169V546.031H485.231ZM456 546.031V516.8H426.769V546.031H456ZM425.6 546.031V516.8H396.358V546.031H425.6ZM395.188 546.031V516.8H365.969V546.031H395.188ZM364.8 546.031V516.8H335.569V546.031H364.8ZM334.4 546.031V516.8H305.169V546.031H334.4ZM304 546.031V516.8H274.769V546.031H304ZM273.6 546.031V516.8H244.369V546.031H273.6ZM243.2 546.031V516.8H213.969V546.031H243.2ZM212.8 546.031V516.8H183.569V546.031H212.8ZM182.4 546.031V516.8H153.158V546.031H182.4ZM151.988 546.031V516.8H122.769V546.031H151.988ZM121.6 546.031V516.8H92.3692V546.031H121.6ZM91.2 546.031V516.8H61.9692V546.031H91.2ZM60.8 546.031V516.8H31.5692V546.031H60.8ZM30.4 546.031V516.8H1.16923V546.031H30.4ZM910.819 515.631V486.4H881.6V515.631H910.819ZM880.431 515.631V486.4H851.188V515.631H880.431ZM850.019 515.631V486.4H820.8V515.631H850.019ZM819.631 515.631V486.4H790.388V515.631H819.631ZM789.219 515.631V486.4H760V515.631H789.219ZM758.831 515.631V486.4H729.6V515.631H758.831ZM728.431 515.631V486.4H699.2V515.631H728.431ZM698.031 515.631V486.4H668.8V515.631H698.031ZM667.631 515.631V486.4H638.4V515.631H667.631ZM637.231 515.631V486.4H608V515.631H637.231ZM606.831 515.631V486.4H577.6V515.631H606.831ZM576.431 515.631V486.4H547.2V515.631H576.431ZM546.031 515.631V486.4H516.8V515.631H546.031ZM515.631 515.631V486.4H486.4V515.631H515.631ZM485.231 515.631V486.4H457.169V515.631H485.231ZM456 515.631V486.4H426.769V515.631H456ZM425.6 515.631V486.4H396.358V515.631H425.6ZM395.188 515.631V486.4H365.969V515.631H395.188ZM364.8 515.631V486.4H335.569V515.631H364.8ZM334.4 515.631V486.4H305.169V515.631H334.4ZM304 515.631V486.4H274.769V515.631H304ZM273.6 515.631V486.4H244.369V515.631H273.6ZM243.2 515.631V486.4H213.969V515.631H243.2ZM212.8 515.631V486.4H183.569V515.631H212.8ZM182.4 515.631V486.4H153.158V515.631H182.4ZM151.988 515.631V486.4H122.769V515.631H151.988ZM121.6 515.631V486.4H92.3692V515.631H121.6ZM91.2 515.631V486.4H61.9692V515.631H91.2ZM60.8 515.631V486.4H31.5692V515.631H60.8ZM30.4 515.631V486.4H1.16923V515.631H30.4ZM910.819 485.231V457.169H881.6V485.231H910.819ZM880.431 485.231V457.169H851.188V485.231H880.431ZM850.019 485.231V457.169H820.8V485.231H850.019ZM819.631 485.231V457.169H790.388V485.231H819.631ZM789.219 485.231V457.169H760V485.231H789.219ZM758.831 485.231V457.169H729.6V485.231H758.831ZM728.431 485.231V457.169H699.2V485.231H728.431ZM698.031 485.231V457.169H668.8V485.231H698.031ZM667.631 485.231V457.169H638.4V485.231H667.631ZM637.231 485.231V457.169H608V485.231H637.231ZM606.831 485.231V457.169H577.6V485.231H606.831ZM576.431 485.231V457.169H547.2V485.231H576.431ZM546.031 485.231V457.169H516.8V485.231H546.031ZM515.631 485.231V457.169H486.4V485.231H515.631ZM485.231 485.231V457.169H457.169V485.231H485.231ZM456 485.231V457.169H426.769V485.231H456ZM425.6 485.231V457.169H396.358V485.231H425.6ZM395.188 485.231V457.169H365.969V485.231H395.188ZM364.8 485.231V457.169H335.569V485.231H364.8ZM334.4 485.231V457.169H305.169V485.231H334.4ZM304 485.231V457.169H274.769V485.231H304ZM273.6 485.231V457.169H244.369V485.231H273.6ZM243.2 485.231V457.169H213.969V485.231H243.2ZM212.8 485.231V457.169H183.569V485.231H212.8ZM182.4 485.231V457.169H153.158V485.231H182.4ZM151.988 485.231V457.169H122.769V485.231H151.988ZM121.6 485.231V457.169H92.3692V485.231H121.6ZM91.2 485.231V457.169H61.9692V485.231H91.2ZM60.8 485.231V457.169H31.5692V485.231H60.8ZM30.4 485.231V457.169H1.16923V485.231H30.4ZM910.819 456V426.769H881.6V456H910.819ZM880.431 456V426.769H851.188V456H880.431ZM850.019 456V426.769H820.8V456H850.019ZM819.631 456V426.769H790.388V456H819.631ZM789.219 456V426.769H760V456H789.219ZM758.831 456V426.769H729.6V456H758.831ZM728.431 456V426.769H699.2V456H728.431ZM698.031 456V426.769H668.8V456H698.031ZM667.631 456V426.769H638.4V456H667.631ZM637.231 456V426.769H608V456H637.231ZM606.831 456V426.769H577.6V456H606.831ZM576.431 456V426.769H547.2V456H576.431ZM546.031 456V426.769H516.8V456H546.031ZM515.631 456V426.769H486.4V456H515.631ZM485.231 456V426.769H457.169V456H485.231ZM456 456V426.769H426.769V456H456ZM425.6 456V426.769H396.358V456H425.6ZM395.188 456V426.769H365.969V456H395.188ZM364.8 456V426.769H335.569V456H364.8ZM334.4 456V426.769H305.169V456H334.4ZM304 456V426.769H274.769V456H304ZM273.6 456V426.769H244.369V456H273.6ZM243.2 456V426.769H213.969V456H243.2ZM212.8 456V426.769H183.569V456H212.8ZM182.4 456V426.769H153.158V456H182.4ZM151.988 456V426.769H122.769V456H151.988ZM121.6 456V426.769H92.3692V456H121.6ZM91.2 456V426.769H61.9692V456H91.2ZM60.8 456V426.769H31.5692V456H60.8ZM30.4 456V426.769H1.16923V456H30.4ZM910.819 425.6V396.369H881.6V425.6H910.819ZM880.431 425.6V396.369H851.188V425.6H880.431ZM850.019 425.6V396.369H820.8V425.6H850.019ZM819.631 425.6V396.369H790.388V425.6H819.631ZM789.219 425.6V396.369H760V425.6H789.219ZM758.831 425.6V396.369H729.6V425.6H758.831ZM728.431 425.6V396.369H699.2V425.6H728.431ZM698.031 425.6V396.369H668.8V425.6H698.031ZM667.631 425.6V396.369H638.4V425.6H667.631ZM637.231 425.6V396.369H608V425.6H637.231ZM606.831 425.6V396.369H577.6V425.6H606.831ZM576.431 425.6V396.369H547.2V425.6H576.431ZM546.031 425.6V396.369H516.8V425.6H546.031ZM515.631 425.6V396.369H486.4V425.6H515.631ZM485.231 425.6V396.369H457.169V425.6H485.231ZM456 425.6V396.369H426.769V425.6H456ZM425.6 425.6V396.369H396.358V425.6H425.6ZM395.188 425.6V396.369H365.969V425.6H395.188ZM364.8 425.6V396.369H335.569V425.6H364.8ZM334.4 425.6V396.369H305.169V425.6H334.4ZM304 425.6V396.369H274.769V425.6H304ZM273.6 425.6V396.369H244.369V425.6H273.6ZM243.2 425.6V396.369H213.969V425.6H243.2ZM212.8 425.6V396.369H183.569V425.6H212.8ZM182.4 425.6V396.369H153.158V425.6H182.4ZM151.988 425.6V396.369H122.769V425.6H151.988ZM121.6 425.6V396.369H92.3692V425.6H121.6ZM91.2 425.6V396.369H61.9692V425.6H91.2ZM60.8 425.6V396.369H31.5692V425.6H60.8ZM30.4 425.6V396.369H1.16923V425.6H30.4ZM910.819 395.2V365.969H881.6V395.2H910.819ZM880.431 395.2V365.969H851.188V395.2H880.431ZM850.019 395.2V365.969H820.8V395.2H850.019ZM819.631 395.2V365.969H790.388V395.2H819.631ZM789.219 395.2V365.969H760V395.2H789.219ZM758.831 395.2V365.969H729.6V395.2H758.831ZM728.431 395.2V365.969H699.2V395.2H728.431ZM698.031 395.2V365.969H668.8V395.2H698.031ZM667.631 395.2V365.969H638.4V395.2H667.631ZM637.231 395.2V365.969H608V395.2H637.231ZM606.831 395.2V365.969H577.6V395.2H606.831ZM576.431 395.2V365.969H547.2V395.2H576.431ZM546.031 395.2V365.969H516.8V395.2H546.031ZM515.631 395.2V365.969H486.4V395.2H515.631ZM485.231 395.2V365.969H457.169V395.2H485.231ZM456 395.2V365.969H426.769V395.2H456ZM425.6 395.2V365.969H396.358V395.2H425.6ZM395.188 395.2V365.969H365.969V395.2H395.188ZM364.8 395.2V365.969H335.569V395.2H364.8ZM334.4 395.2V365.969H305.169V395.2H334.4ZM304 395.2V365.969H274.769V395.2H304ZM273.6 395.2V365.969H244.369V395.2H273.6ZM243.2 395.2V365.969H213.969V395.2H243.2ZM212.8 395.2V365.969H183.569V395.2H212.8ZM182.4 395.2V365.969H153.158V395.2H182.4ZM151.988 395.2V365.969H122.769V395.2H151.988ZM121.6 395.2V365.969H92.3692V395.2H121.6ZM91.2 395.2V365.969H61.9692V395.2H91.2ZM60.8 395.2V365.969H31.5692V395.2H60.8ZM30.4 395.2V365.969H1.16923V395.2H30.4ZM910.819 364.8V335.569H881.6V364.8H910.819ZM880.431 364.8V335.569H851.188V364.8H880.431ZM850.019 364.8V335.569H820.8V364.8H850.019ZM819.631 364.8V335.569H790.388V364.8H819.631ZM789.219 364.8V335.569H760V364.8H789.219ZM758.831 364.8V335.569H729.6V364.8H758.831ZM728.431 364.8V335.569H699.2V364.8H728.431ZM698.031 364.8V335.569H668.8V364.8H698.031ZM667.631 364.8V335.569H638.4V364.8H667.631ZM637.231 364.8V335.569H608V364.8H637.231ZM606.831 364.8V335.569H577.6V364.8H606.831ZM576.431 364.8V335.569H547.2V364.8H576.431ZM546.031 364.8V335.569H516.8V364.8H546.031ZM515.631 364.8V335.569H486.4V364.8H515.631ZM485.231 364.8V335.569H457.169V364.8H485.231ZM456 364.8V335.569H426.769V364.8H456ZM425.6 364.8V335.569H396.358V364.8H425.6ZM395.188 364.8V335.569H365.969V364.8H395.188ZM364.8 364.8V335.569H335.569V364.8H364.8ZM334.4 364.8V335.569H305.169V364.8H334.4ZM304 364.8V335.569H274.769V364.8H304ZM273.6 364.8V335.569H244.369V364.8H273.6ZM243.2 364.8V335.569H213.969V364.8H243.2ZM212.8 364.8V335.569H183.569V364.8H212.8ZM182.4 364.8V335.569H153.158V364.8H182.4ZM151.988 364.8V335.569H122.769V364.8H151.988ZM121.6 364.8V335.569H92.3692V364.8H121.6ZM91.2 364.8V335.569H61.9692V364.8H91.2ZM60.8 364.8V335.569H31.5692V364.8H60.8ZM30.4 364.8V335.569H1.16923V364.8H30.4ZM910.819 334.4V305.169H881.6V334.4H910.819ZM880.431 334.4V305.169H851.188V334.4H880.431ZM850.019 334.4V305.169H820.8V334.4H850.019ZM819.631 334.4V305.169H790.388V334.4H819.631ZM789.219 334.4V305.169H760V334.4H789.219ZM758.831 334.4V305.169H729.6V334.4H758.831ZM728.431 334.4V305.169H699.2V334.4H728.431ZM698.031 334.4V305.169H668.8V334.4H698.031ZM667.631 334.4V305.169H638.4V334.4H667.631ZM637.231 334.4V305.169H608V334.4H637.231ZM606.831 334.4V305.169H577.6V334.4H606.831ZM576.431 334.4V305.169H547.2V334.4H576.431ZM546.031 334.4V305.169H516.8V334.4H546.031ZM515.631 334.4V305.169H486.4V334.4H515.631ZM485.231 334.4V305.169H457.169V334.4H485.231ZM456 334.4V305.169H426.769V334.4H456ZM425.6 334.4V305.169H396.358V334.4H425.6ZM395.188 334.4V305.169H365.969V334.4H395.188ZM364.8 334.4V305.169H335.569V334.4H364.8ZM334.4 334.4V305.169H305.169V334.4H334.4ZM304 334.4V305.169H274.769V334.4H304ZM273.6 334.4V305.169H244.369V334.4H273.6ZM243.2 334.4V305.169H213.969V334.4H243.2ZM212.8 334.4V305.169H183.569V334.4H212.8ZM182.4 334.4V305.169H153.158V334.4H182.4ZM151.988 334.4V305.169H122.769V334.4H151.988ZM121.6 334.4V305.169H92.3692V334.4H121.6ZM91.2 334.4V305.169H61.9692V334.4H91.2ZM60.8 334.4V305.169H31.5692V334.4H60.8ZM30.4 334.4V305.169H1.16923V334.4H30.4ZM910.819 304V274.769H881.6V304H910.819ZM880.431 304V274.769H851.188V304H880.431ZM850.019 304V274.769H820.8V304H850.019ZM819.631 304V274.769H790.388V304H819.631ZM789.219 304V274.769H760V304H789.219ZM758.831 304V274.769H729.6V304H758.831ZM728.431 304V274.769H699.2V304H728.431ZM698.031 304V274.769H668.8V304H698.031ZM667.631 304V274.769H638.4V304H667.631ZM637.231 304V274.769H608V304H637.231ZM606.831 304V274.769H577.6V304H606.831ZM576.431 304V274.769H547.2V304H576.431ZM546.031 304V274.769H516.8V304H546.031ZM515.631 304V274.769H486.4V304H515.631ZM485.231 304V274.769H457.169V304H485.231ZM456 304V274.769H426.769V304H456ZM425.6 304V274.769H396.358V304H425.6ZM395.188 304V274.769H365.969V304H395.188ZM364.8 304V274.769H335.569V304H364.8ZM334.4 304V274.769H305.169V304H334.4ZM304 304V274.769H274.769V304H304ZM273.6 304V274.769H244.369V304H273.6ZM243.2 304V274.769H213.969V304H243.2ZM212.8 304V274.769H183.569V304H212.8ZM182.4 304V274.769H153.158V304H182.4ZM151.988 304V274.769H122.769V304H151.988ZM121.6 304V274.769H92.3692V304H121.6ZM91.2 304V274.769H61.9692V304H91.2ZM60.8 304V274.769H31.5692V304H60.8ZM30.4 304V274.769H1.16923V304H30.4ZM910.819 273.6V244.369H881.6V273.6H910.819ZM880.431 273.6V244.369H851.188V273.6H880.431ZM850.019 273.6V244.369H820.8V273.6H850.019ZM819.631 273.6V244.369H790.388V273.6H819.631ZM789.219 273.6V244.369H760V273.6H789.219ZM758.831 273.6V244.369H729.6V273.6H758.831ZM728.431 273.6V244.369H699.2V273.6H728.431ZM698.031 273.6V244.369H668.8V273.6H698.031ZM667.631 273.6V244.369H638.4V273.6H667.631ZM637.231 273.6V244.369H608V273.6H637.231ZM606.831 273.6V244.369H577.6V273.6H606.831ZM576.431 273.6V244.369H547.2V273.6H576.431ZM546.031 273.6V244.369H516.8V273.6H546.031ZM515.631 273.6V244.369H486.4V273.6H515.631ZM485.231 273.6V244.369H457.169V273.6H485.231ZM456 273.6V244.369H426.769V273.6H456ZM425.6 273.6V244.369H396.358V273.6H425.6ZM395.188 273.6V244.369H365.969V273.6H395.188ZM364.8 273.6V244.369H335.569V273.6H364.8ZM334.4 273.6V244.369H305.169V273.6H334.4ZM304 273.6V244.369H274.769V273.6H304ZM273.6 273.6V244.369H244.369V273.6H273.6ZM243.2 273.6V244.369H213.969V273.6H243.2ZM212.8 273.6V244.369H183.569V273.6H212.8ZM182.4 273.6V244.369H153.158V273.6H182.4ZM151.988 273.6V244.369H122.769V273.6H151.988ZM121.6 273.6V244.369H92.3692V273.6H121.6ZM91.2 273.6V244.369H61.9692V273.6H91.2ZM60.8 273.6V244.369H31.5692V273.6H60.8ZM30.4 273.6V244.369H1.16923V273.6H30.4ZM910.819 243.2V213.969H881.6V243.2H910.819ZM880.431 243.2V213.969H851.188V243.2H880.431ZM850.019 243.2V213.969H820.8V243.2H850.019ZM819.631 243.2V213.969H790.388V243.2H819.631ZM789.219 243.2V213.969H760V243.2H789.219ZM758.831 243.2V213.969H729.6V243.2H758.831ZM728.431 243.2V213.969H699.2V243.2H728.431ZM698.031 243.2V213.969H668.8V243.2H698.031ZM667.631 243.2V213.969H638.4V243.2H667.631ZM637.231 243.2V213.969H608V243.2H637.231ZM606.831 243.2V213.969H577.6V243.2H606.831ZM576.431 243.2V213.969H547.2V243.2H576.431ZM546.031 243.2V213.969H516.8V243.2H546.031ZM515.631 243.2V213.969H486.4V243.2H515.631ZM485.231 243.2V213.969H457.169V243.2H485.231ZM456 243.2V213.969H426.769V243.2H456ZM425.6 243.2V213.969H396.358V243.2H425.6ZM395.188 243.2V213.969H365.969V243.2H395.188ZM364.8 243.2V213.969H335.569V243.2H364.8ZM334.4 243.2V213.969H305.169V243.2H334.4ZM304 243.2V213.969H274.769V243.2H304ZM273.6 243.2V213.969H244.369V243.2H273.6ZM243.2 243.2V213.969H213.969V243.2H243.2ZM212.8 243.2V213.969H183.569V243.2H212.8ZM182.4 243.2V213.969H153.158V243.2H182.4ZM151.988 243.2V213.969H122.769V243.2H151.988ZM121.6 243.2V213.969H92.3692V243.2H121.6ZM91.2 243.2V213.969H61.9692V243.2H91.2ZM60.8 243.2V213.969H31.5692V243.2H60.8ZM30.4 243.2V213.969H1.16923V243.2H30.4ZM910.819 212.8V183.569H881.6V212.8H910.819ZM880.431 212.8V183.569H851.188V212.8H880.431ZM850.019 212.8V183.569H820.8V212.8H850.019ZM819.631 212.8V183.569H790.388V212.8H819.631ZM789.219 212.8V183.569H760V212.8H789.219ZM758.831 212.8V183.569H729.6V212.8H758.831ZM728.431 212.8V183.569H699.2V212.8H728.431ZM698.031 212.8V183.569H668.8V212.8H698.031ZM667.631 212.8V183.569H638.4V212.8H667.631ZM637.231 212.8V183.569H608V212.8H637.231ZM606.831 212.8V183.569H577.6V212.8H606.831ZM576.431 212.8V183.569H547.2V212.8H576.431ZM546.031 212.8V183.569H516.8V212.8H546.031ZM515.631 212.8V183.569H486.4V212.8H515.631ZM485.231 212.8V183.569H457.169V212.8H485.231ZM456 212.8V183.569H426.769V212.8H456ZM425.6 212.8V183.569H396.358V212.8H425.6ZM395.188 212.8V183.569H365.969V212.8H395.188ZM364.8 212.8V183.569H335.569V212.8H364.8ZM334.4 212.8V183.569H305.169V212.8H334.4ZM304 212.8V183.569H274.769V212.8H304ZM273.6 212.8V183.569H244.369V212.8H273.6ZM243.2 212.8V183.569H213.969V212.8H243.2ZM212.8 212.8V183.569H183.569V212.8H212.8ZM182.4 212.8V183.569H153.158V212.8H182.4ZM151.988 212.8V183.569H122.769V212.8H151.988ZM121.6 212.8V183.569H92.3692V212.8H121.6ZM91.2 212.8V183.569H61.9692V212.8H91.2ZM60.8 212.8V183.569H31.5692V212.8H60.8ZM30.4 212.8V183.569H1.16923V212.8H30.4ZM910.819 182.4V153.169H881.6V182.4H910.819ZM880.431 182.4V153.169H851.188V182.4H880.431ZM850.019 182.4V153.169H820.8V182.4H850.019ZM819.631 182.4V153.169H790.388V182.4H819.631ZM789.219 182.4V153.169H760V182.4H789.219ZM758.831 182.4V153.169H729.6V182.4H758.831ZM728.431 182.4V153.169H699.2V182.4H728.431ZM698.031 182.4V153.169H668.8V182.4H698.031ZM667.631 182.4V153.169H638.4V182.4H667.631ZM637.231 182.4V153.169H608V182.4H637.231ZM606.831 182.4V153.169H577.6V182.4H606.831ZM576.431 182.4V153.169H547.2V182.4H576.431ZM546.031 182.4V153.169H516.8V182.4H546.031ZM515.631 182.4V153.169H486.4V182.4H515.631ZM485.231 182.4V153.169H457.169V182.4H485.231ZM456 182.4V153.169H426.769V182.4H456ZM425.6 182.4V153.169H396.358V182.4H425.6ZM395.188 182.4V153.169H365.969V182.4H395.188ZM364.8 182.4V153.169H335.569V182.4H364.8ZM334.4 182.4V153.169H305.169V182.4H334.4ZM304 182.4V153.169H274.769V182.4H304ZM273.6 182.4V153.169H244.369V182.4H273.6ZM243.2 182.4V153.169H213.969V182.4H243.2ZM212.8 182.4V153.169H183.569V182.4H212.8ZM182.4 182.4V153.169H153.158V182.4H182.4ZM151.988 182.4V153.169H122.769V182.4H151.988ZM121.6 182.4V153.169H92.3692V182.4H121.6ZM91.2 182.4V153.169H61.9692V182.4H91.2ZM60.8 182.4V153.169H31.5692V182.4H60.8ZM30.4 182.4V153.169H1.16923V182.4H30.4ZM910.819 152V122.769H881.6V152H910.819ZM880.431 152V122.769H851.188V152H880.431ZM850.019 152V122.769H820.8V152H850.019ZM819.631 152V122.769H790.388V152H819.631ZM789.219 152V122.769H760V152H789.219ZM758.831 152V122.769H729.6V152H758.831ZM728.431 152V122.769H699.2V152H728.431ZM698.031 152V122.769H668.8V152H698.031ZM667.631 152V122.769H638.4V152H667.631ZM637.231 152V122.769H608V152H637.231ZM606.831 152V122.769H577.6V152H606.831ZM576.431 152V122.769H547.2V152H576.431ZM546.031 152V122.769H516.8V152H546.031ZM515.631 152V122.769H486.4V152H515.631ZM485.231 152V122.769H457.169V152H485.231ZM456 152V122.769H426.769V152H456ZM425.6 152V122.769H396.358V152H425.6ZM395.188 152V122.769H365.969V152H395.188ZM364.8 152V122.769H335.569V152H364.8ZM334.4 152V122.769H305.169V152H334.4ZM304 152V122.769H274.769V152H304ZM273.6 152V122.769H244.369V152H273.6ZM243.2 152V122.769H213.969V152H243.2ZM212.8 152V122.769H183.569V152H212.8ZM182.4 152V122.769H153.158V152H182.4ZM151.988 152V122.769H122.769V152H151.988ZM121.6 152V122.769H92.3692V152H121.6ZM91.2 152V122.769H61.9692V152H91.2ZM60.8 152V122.769H31.5692V152H60.8ZM30.4 152V122.769H1.16923V152H30.4ZM910.819 121.6V92.3692H881.6V121.6H910.819ZM880.431 121.6V92.3692H851.188V121.6H880.431ZM850.019 121.6V92.3692H820.8V121.6H850.019ZM819.631 121.6V92.3692H790.388V121.6H819.631ZM789.219 121.6V92.3692H760V121.6H789.219ZM758.831 121.6V92.3692H729.6V121.6H758.831ZM728.431 121.6V92.3692H699.2V121.6H728.431ZM698.031 121.6V92.3692H668.8V121.6H698.031ZM667.631 121.6V92.3692H638.4V121.6H667.631ZM637.231 121.6V92.3692H608V121.6H637.231ZM606.831 121.6V92.3692H577.6V121.6H606.831ZM576.431 121.6V92.3692H547.2V121.6H576.431ZM546.031 121.6V92.3692H516.8V121.6H546.031ZM515.631 121.6V92.3692H486.4V121.6H515.631ZM485.231 121.6V92.3692H457.169V121.6H485.231ZM456 121.6V92.3692H426.769V121.6H456ZM425.6 121.6V92.3692H396.358V121.6H425.6ZM395.188 121.6V92.3692H365.969V121.6H395.188ZM364.8 121.6V92.3692H335.569V121.6H364.8ZM334.4 121.6V92.3692H305.169V121.6H334.4ZM304 121.6V92.3692H274.769V121.6H304ZM273.6 121.6V92.3692H244.369V121.6H273.6ZM243.2 121.6V92.3692H213.969V121.6H243.2ZM212.8 121.6V92.3692H183.569V121.6H212.8ZM182.4 121.6V92.3692H153.158V121.6H182.4ZM151.988 121.6V92.3692H122.769V121.6H151.988ZM121.6 121.6V92.3692H92.3692V121.6H121.6ZM91.2 121.6V92.3692H61.9692V121.6H91.2ZM60.8 121.6V92.3692H31.5692V121.6H60.8ZM30.4 121.6V92.3692H1.16923V121.6H30.4ZM910.819 91.2V61.9692H881.6V91.2H910.819ZM880.431 91.2V61.9692H851.188V91.2H880.431ZM850.019 91.2V61.9692H820.8V91.2H850.019ZM819.631 91.2V61.9692H790.388V91.2H819.631ZM789.219 91.2V61.9692H760V91.2H789.219ZM758.831 91.2V61.9692H729.6V91.2H758.831ZM728.431 91.2V61.9692H699.2V91.2H728.431ZM698.031 91.2V61.9692H668.8V91.2H698.031ZM667.631 91.2V61.9692H638.4V91.2H667.631ZM637.231 91.2V61.9692H608V91.2H637.231ZM606.831 91.2V61.9692H577.6V91.2H606.831ZM576.431 91.2V61.9692H547.2V91.2H576.431ZM546.031 91.2V61.9692H516.8V91.2H546.031ZM515.631 91.2V61.9692H486.4V91.2H515.631ZM485.231 91.2V61.9692H457.169V91.2H485.231ZM456 91.2V61.9692H426.769V91.2H456ZM425.6 91.2V61.9692H396.358V91.2H425.6ZM395.188 91.2V61.9692H365.969V91.2H395.188ZM364.8 91.2V61.9692H335.569V91.2H364.8ZM334.4 91.2V61.9692H305.169V91.2H334.4ZM304 91.2V61.9692H274.769V91.2H304ZM273.6 91.2V61.9692H244.369V91.2H273.6ZM243.2 91.2V61.9692H213.969V91.2H243.2ZM212.8 91.2V61.9692H183.569V91.2H212.8ZM182.4 91.2V61.9692H153.158V91.2H182.4ZM151.988 91.2V61.9692H122.769V91.2H151.988ZM121.6 91.2V61.9692H92.3692V91.2H121.6ZM91.2 91.2V61.9692H61.9692V91.2H91.2ZM60.8 91.2V61.9692H31.5692V91.2H60.8ZM30.4 91.2V61.9692H1.16923V91.2H30.4ZM910.819 60.8V31.5692H881.6V60.8H910.819ZM880.431 60.8V31.5692H851.188V60.8H880.431ZM850.019 60.8V31.5692H820.8V60.8H850.019ZM819.631 60.8V31.5692H790.388V60.8H819.631ZM789.219 60.8V31.5692H760V60.8H789.219ZM758.831 60.8V31.5692H729.6V60.8H758.831ZM728.431 60.8V31.5692H699.2V60.8H728.431ZM698.031 60.8V31.5692H668.8V60.8H698.031ZM667.631 60.8V31.5692H638.4V60.8H667.631ZM637.231 60.8V31.5692H608V60.8H637.231ZM606.831 60.8V31.5692H577.6V60.8H606.831ZM576.431 60.8V31.5692H547.2V60.8H576.431ZM546.031 60.8V31.5692H516.8V60.8H546.031ZM515.631 60.8V31.5692H486.4V60.8H515.631ZM485.231 60.8V31.5692H457.169V60.8H485.231ZM456 60.8V31.5692H426.769V60.8H456ZM425.6 60.8V31.5692H396.358V60.8H425.6ZM395.188 60.8V31.5692H365.969V60.8H395.188ZM364.8 60.8V31.5692H335.569V60.8H364.8ZM334.4 60.8V31.5692H305.169V60.8H334.4ZM304 60.8V31.5692H274.769V60.8H304ZM273.6 60.8V31.5692H244.369V60.8H273.6ZM243.2 60.8V31.5692H213.969V60.8H243.2ZM212.8 60.8V31.5692H183.569V60.8H212.8ZM182.4 60.8V31.5692H153.158V60.8H182.4ZM151.988 60.8V31.5692H122.769V60.8H151.988ZM121.6 60.8V31.5692H92.3692V60.8H121.6ZM91.2 60.8V31.5692H61.9692V60.8H91.2ZM60.8 60.8V31.5692H31.5692V60.8H60.8ZM30.4 60.8V31.5692H1.16923V60.8H30.4ZM910.819 30.4V1.16923H881.6V30.4H910.819ZM880.431 30.4V1.16923H851.188V30.4H880.431ZM850.019 30.4V1.16923H820.8V30.4H850.019ZM819.631 30.4V1.16923H790.388V30.4H819.631ZM789.219 30.4V1.16923H760V30.4H789.219ZM758.831 30.4V1.16923H729.6V30.4H758.831ZM728.431 30.4V1.16923H699.2V30.4H728.431ZM698.031 30.4V1.16923H668.8V30.4H698.031ZM667.631 30.4V1.16923H638.4V30.4H667.631ZM637.231 30.4V1.16923H608V30.4H637.231ZM606.831 30.4V1.16923H577.6V30.4H606.831ZM576.431 30.4V1.16923H547.2V30.4H576.431ZM546.031 30.4V1.16923H516.8V30.4H546.031ZM515.631 30.4V1.16923H486.4V30.4H515.631ZM485.231 30.4V1.16923H457.169V30.4H485.231ZM456 30.4V1.16923H426.769V30.4H456ZM425.6 30.4V1.16923H396.358V30.4H425.6ZM395.188 30.4V1.16923H365.969V30.4H395.188ZM364.8 30.4V1.16923H335.569V30.4H364.8ZM334.4 30.4V1.16923H305.169V30.4H334.4ZM304 30.4V1.16923H274.769V30.4H304ZM273.6 30.4V1.16923H244.369V30.4H273.6ZM243.2 30.4V1.16923H213.969V30.4H243.2ZM212.8 30.4V1.16923H183.569V30.4H212.8ZM182.4 30.4V1.16923H153.158V30.4H182.4ZM151.988 30.4V1.16923H122.769V30.4H151.988ZM121.6 30.4V1.16923H92.3692V30.4H121.6ZM91.2 30.4V1.16923H61.9692V30.4H91.2ZM60.8 30.4V1.16923H31.5692V30.4H60.8ZM30.4 30.4V1.16923H1.16923V30.4H30.4Z" fill="#D0D4DE"/>
<path id="&#230;&#160;&#188;&#229;&#173;&#144; &#230;&#139;&#183;&#232;&#180;&#157;" d="M758.831 912V760.29H608V912H606.831V760.29H457.169V912H456V760.29H305.169V912H304V760.29H153.158V912H151.988V760.29H0V759.121H151.988V607.801H0V606.632H151.988V457.169H0V456H151.988V304.876H0V303.707H151.988V153.095H0V151.926H151.988V0H153.158V151.926H304V0H305.169V151.926H456V0H457.169V151.926H606.831V0H608V151.926H758.831V0H760V151.926H912V153.095H760V303.707H912V304.876H760V456H912V457.169H760V606.632H912V607.801H760V759.121H912V760.29H760V912H758.831ZM758.831 759.121V607.801H608V759.121H758.831ZM606.831 759.121V607.801H457.169V759.121H606.831ZM456 759.121V607.801H305.169V759.121H456ZM304 759.121V607.801H153.158V759.121H304ZM758.831 606.632V457.169H608V606.632H758.831ZM606.831 606.632V457.169H457.169V606.632H606.831ZM456 606.632V457.169H305.169V606.632H456ZM304 606.632V457.169H153.158V606.632H304ZM758.831 456V304.876H608V456H758.831ZM606.831 456V304.876H457.169V456H606.831ZM456 456V304.876H305.169V456H456ZM304 456V304.876H153.158V456H304ZM758.831 303.707V153.095H608V303.707H758.831ZM606.831 303.707V153.095H457.169V303.707H606.831ZM456 303.707V153.095H305.169V303.707H456ZM304 303.707V153.095H153.158V303.707H304Z" fill="#A6ACB4"/>
</g>
</svg>
