<svg 
 xmlns="http://www.w3.org/2000/svg"
 xmlns:xlink="http://www.w3.org/1999/xlink"
 width="439.5px" height="80.5px">
<path fill-rule="evenodd"  fill="rgb(255, 141, 35)"
 d="M216.998,40.000 C208.162,40.000 200.999,32.821 200.999,23.966 C200.999,14.159 210.753,5.556 215.255,1.583 C216.004,0.923 216.608,0.390 216.997,0.001 L216.998,-0.000 L217.000,0.001 C217.396,0.383 217.994,0.894 218.732,1.523 C223.256,5.385 232.998,13.700 232.998,23.966 C232.998,32.821 225.835,40.000 216.998,40.000 ZM223.852,10.391 C221.367,7.557 218.955,5.504 217.094,3.920 L217.026,3.862 C216.481,4.343 215.897,4.860 215.325,5.381 C213.740,6.823 211.916,8.576 210.191,10.566 C206.661,14.638 203.908,19.288 203.908,23.966 C203.908,31.298 209.824,37.143 216.998,37.143 C224.174,37.143 230.090,31.298 230.090,23.966 C230.090,19.018 227.336,14.363 223.852,10.391 ZM227.635,23.506 C227.635,29.381 222.873,34.143 216.998,34.143 C211.125,34.143 206.362,29.381 206.362,23.506 C206.362,22.876 206.418,22.247 206.528,21.626 C207.326,23.568 209.236,24.935 211.465,24.935 C213.762,24.935 215.720,23.483 216.471,21.446 L216.467,21.446 C217.346,19.320 219.470,17.804 221.952,17.821 C228.552,17.865 227.635,25.501 227.635,23.506 Z"/>
<path fill-rule="evenodd"  stroke="rgb(255, 141, 35)" stroke-width="1px" stroke-dasharray="4, 2" stroke-linecap="butt" stroke-linejoin="miter" fill="none"
 d="M180.999,58.000 L180.999,50.000 L252.999,50.000 L252.999,58.000 "/>
<path fill-rule="evenodd"  fill="rgb(255, 141, 35)"
 d="M181.499,60.000 C182.880,60.000 183.998,61.119 183.998,62.500 C183.998,63.880 182.880,65.000 181.499,65.000 C180.118,65.000 178.998,63.880 178.998,62.500 C178.998,61.119 180.118,60.000 181.499,60.000 Z"/>
<path fill-rule="evenodd"  fill="rgb(255, 141, 35)"
 d="M252.500,60.000 C253.880,60.000 254.999,61.119 254.999,62.500 C254.999,63.880 253.880,65.000 252.500,65.000 C251.119,65.000 249.998,63.880 249.998,62.500 C249.998,61.119 251.119,60.000 252.500,60.000 Z"/>
<path fill-rule="evenodd"  fill="rgb(51, 51, 51)"
 d="M184.101,79.077 C182.363,79.077 181.248,77.510 181.248,74.378 C181.248,71.257 182.363,69.740 184.101,69.740 C185.829,69.740 186.957,71.269 186.957,74.378 C186.957,77.510 185.829,79.077 184.101,79.077 ZM184.101,70.853 C183.202,70.853 182.566,71.796 182.566,74.378 C182.566,76.984 183.202,77.963 184.101,77.963 C185.001,77.963 185.637,76.984 185.637,74.378 C185.637,71.796 185.001,70.853 184.101,70.853 ZM179.193,78.918 L177.898,78.918 L177.898,76.495 L174.083,76.495 L174.083,75.552 L177.597,69.911 L179.193,69.911 L179.193,75.406 L180.321,75.406 L180.321,76.495 L179.193,76.495 L179.193,78.918 ZM177.921,71.306 C177.706,71.759 177.466,72.224 177.214,72.689 L175.475,75.406 L177.898,75.406 L177.898,73.044 C177.898,72.554 177.946,71.796 177.970,71.306 L177.921,71.306 Z"/>
<path fill-rule="evenodd"  fill="rgb(51, 51, 51)"
 d="M254.598,79.077 C253.578,79.077 252.859,78.661 252.343,78.122 L253.087,77.253 C253.435,77.657 253.974,77.927 254.538,77.927 C255.606,77.927 256.529,77.045 256.613,74.476 C256.098,75.124 255.341,75.528 254.670,75.528 C253.194,75.528 252.199,74.586 252.199,72.701 C252.199,70.914 253.398,69.740 254.826,69.740 C256.517,69.740 257.884,71.135 257.884,74.109 C257.884,77.657 256.301,79.077 254.598,79.077 ZM254.838,70.829 C254.082,70.829 253.483,71.526 253.483,72.701 C253.483,73.852 253.986,74.512 254.910,74.512 C255.449,74.512 256.061,74.194 256.589,73.411 C256.457,71.637 255.798,70.829 254.838,70.829 ZM251.032,75.956 C251.032,77.951 249.605,79.077 248.058,79.077 C246.667,79.077 245.791,78.502 245.167,77.878 L245.827,76.960 C246.331,77.474 246.966,77.927 247.890,77.927 C248.885,77.927 249.641,77.205 249.641,76.005 C249.641,74.806 248.970,74.121 247.962,74.121 C247.398,74.121 247.062,74.292 246.547,74.635 L245.876,74.182 L246.139,69.911 L250.612,69.911 L250.612,71.098 L247.338,71.098 L247.134,73.411 C247.506,73.215 247.866,73.093 248.346,73.093 C249.821,73.093 251.032,73.986 251.032,75.956 Z"/>
<path fill-rule="evenodd"  fill="rgb(22, 204, 94)"
 d="M39.998,40.000 C31.162,40.000 23.998,32.821 23.998,23.966 C23.998,14.159 33.752,5.556 38.255,1.583 C39.003,0.923 39.607,0.390 39.998,0.001 L39.998,-0.000 L40.000,0.001 C40.396,0.383 40.994,0.894 41.732,1.523 C46.256,5.385 55.998,13.700 55.998,23.966 C55.998,32.821 48.835,40.000 39.998,40.000 ZM46.852,10.391 C44.366,7.557 41.955,5.504 40.093,3.920 L40.025,3.862 C39.481,4.343 38.896,4.860 38.325,5.381 C36.739,6.823 34.916,8.576 33.191,10.566 C29.662,14.638 26.908,19.288 26.908,23.966 C26.908,31.298 32.824,37.143 39.998,37.143 C47.173,37.143 53.090,31.298 53.090,23.966 C53.090,19.018 50.336,14.363 46.852,10.391 ZM47.006,27.483 C47.006,31.078 44.092,33.992 40.498,33.992 C36.905,33.992 33.991,31.078 33.991,27.483 C33.991,27.098 34.025,26.713 34.093,26.333 C34.581,27.521 35.749,28.358 37.114,28.358 C38.519,28.358 39.716,27.469 40.177,26.223 L40.173,26.223 C40.712,24.922 42.011,23.995 43.528,24.005 C47.566,24.032 47.006,28.704 47.006,27.483 Z"/>
<path fill-rule="evenodd"  stroke="rgb(22, 204, 94)" stroke-width="1px" stroke-dasharray="4, 2" stroke-linecap="butt" stroke-linejoin="miter" fill="none"
 d="M3.999,58.000 L3.999,50.000 L75.998,50.000 L75.998,58.000 "/>
<path fill-rule="evenodd"  fill="rgb(22, 204, 94)"
 d="M4.499,60.000 C5.879,60.000 6.999,61.119 6.999,62.500 C6.999,63.880 5.879,65.000 4.499,65.000 C3.118,65.000 1.999,63.880 1.999,62.500 C1.999,61.119 3.118,60.000 4.499,60.000 Z"/>
<path fill-rule="evenodd"  fill="rgb(22, 204, 94)"
 d="M75.499,60.000 C76.879,60.000 77.998,61.119 77.998,62.500 C77.998,63.880 76.879,65.000 75.499,65.000 C74.118,65.000 72.999,63.880 72.999,62.500 C72.999,61.119 74.118,60.000 75.499,60.000 Z"/>
<path fill-rule="evenodd"  fill="rgb(51, 51, 51)"
 d="M3.682,79.077 C5.409,79.077 6.536,77.510 6.536,74.378 C6.536,71.269 5.409,69.740 3.682,69.740 C1.943,69.740 0.828,71.257 0.828,74.378 C0.828,77.510 1.943,79.077 3.682,79.077 ZM3.682,77.963 C2.782,77.963 2.146,76.984 2.146,74.378 C2.146,71.796 2.782,70.853 3.682,70.853 C4.581,70.853 5.217,71.796 5.217,74.378 C5.217,76.984 4.581,77.963 3.682,77.963 Z"/>
<path fill-rule="evenodd"  fill="rgb(51, 51, 51)"
 d="M77.597,79.077 C76.579,79.077 75.858,78.661 75.343,78.122 L76.087,77.253 C76.435,77.657 76.974,77.927 77.538,77.927 C78.605,77.927 79.529,77.045 79.613,74.476 C79.097,75.124 78.342,75.528 77.670,75.528 C76.194,75.528 75.199,74.586 75.199,72.701 C75.199,70.914 76.399,69.740 77.826,69.740 C79.518,69.740 80.884,71.135 80.884,74.109 C80.884,77.657 79.301,79.077 77.597,79.077 ZM77.838,70.829 C77.083,70.829 76.482,71.526 76.482,72.701 C76.482,73.852 76.986,74.512 77.909,74.512 C78.450,74.512 79.061,74.194 79.589,73.411 C79.457,71.637 78.797,70.829 77.838,70.829 ZM74.008,76.495 C74.008,78.122 72.677,79.077 71.058,79.077 C69.666,79.077 68.768,78.514 68.179,77.841 L68.851,76.935 C69.367,77.474 70.026,77.927 70.938,77.927 C71.934,77.927 72.617,77.364 72.617,76.434 C72.617,75.430 71.993,74.782 70.003,74.782 L70.003,73.741 C71.742,73.741 72.318,73.068 72.318,72.163 C72.318,71.367 71.802,70.865 70.962,70.853 C70.278,70.865 69.703,71.208 69.199,71.710 L68.479,70.829 C69.175,70.193 69.990,69.740 71.010,69.740 C72.593,69.740 73.709,70.572 73.709,72.065 C73.709,73.105 73.121,73.827 72.186,74.182 L72.186,74.243 C73.205,74.500 74.008,75.283 74.008,76.495 Z"/>
<path fill-rule="evenodd"  fill="rgb(254, 90, 81)"
 d="M393.998,40.000 C385.161,40.000 377.998,32.821 377.998,23.966 C377.998,14.159 387.751,5.556 392.255,1.583 C393.003,0.923 393.607,0.390 393.997,0.001 L393.998,-0.000 L394.000,0.001 C394.396,0.383 394.994,0.894 395.731,1.523 C400.255,5.385 409.998,13.700 409.998,23.966 C409.998,32.821 402.835,40.000 393.998,40.000 ZM400.852,10.391 C398.366,7.557 395.955,5.504 394.093,3.920 L394.025,3.862 C393.481,4.343 392.896,4.860 392.325,5.381 C390.739,6.823 388.916,8.576 387.191,10.566 C383.661,14.638 380.907,19.288 380.907,23.966 C380.907,31.298 386.823,37.143 393.998,37.143 C401.173,37.143 407.090,31.298 407.090,23.966 C407.090,19.018 404.335,14.363 400.852,10.391 ZM404.987,23.434 C404.992,23.277 405.010,23.126 405.010,22.967 C405.010,23.612 405.020,23.698 404.987,23.434 ZM393.498,34.984 C387.693,34.984 382.987,29.156 382.987,21.967 C382.987,21.196 384.158,20.449 384.150,19.667 C385.053,21.432 386.994,22.000 387.999,22.000 C389.134,22.000 390.423,21.877 391.978,19.446 L391.973,19.446 C392.842,16.844 393.935,15.000 397.998,15.000 C403.914,15.000 404.846,22.334 404.987,23.434 C404.743,30.361 399.175,34.984 393.498,34.984 Z"/>
<path fill-rule="evenodd"  stroke="rgb(254, 90, 81)" stroke-width="1px" stroke-dasharray="4, 2" stroke-linecap="butt" stroke-linejoin="miter" fill="none"
 d="M357.998,58.000 L357.998,50.000 L429.999,50.000 L429.999,58.000 "/>
<path fill-rule="evenodd"  fill="rgb(254, 90, 81)"
 d="M358.499,60.000 C359.880,60.000 360.999,61.119 360.999,62.500 C360.999,63.880 359.880,65.000 358.499,65.000 C357.118,65.000 355.999,63.880 355.999,62.500 C355.999,61.119 357.118,60.000 358.499,60.000 Z"/>
<path fill-rule="evenodd"  fill="rgb(254, 90, 81)"
 d="M429.498,60.000 C430.880,60.000 431.999,61.119 431.999,62.500 C431.999,63.880 430.880,65.000 429.498,65.000 C428.118,65.000 426.999,63.880 426.999,62.500 C426.999,61.119 428.118,60.000 429.498,60.000 Z"/>
<path fill-rule="evenodd"  fill="rgb(51, 51, 51)"
 d="M361.102,79.077 C359.362,79.077 358.247,77.510 358.247,74.378 C358.247,71.257 359.362,69.740 361.102,69.740 C362.829,69.740 363.956,71.269 363.956,74.378 C363.956,77.510 362.829,79.077 361.102,79.077 ZM361.102,70.853 C360.203,70.853 359.567,71.796 359.567,74.378 C359.567,76.984 360.203,77.963 361.102,77.963 C362.002,77.963 362.637,76.984 362.637,74.378 C362.637,71.796 362.002,70.853 361.102,70.853 ZM354.682,73.289 C356.169,73.289 357.165,74.219 357.165,76.128 C357.165,77.914 355.965,79.077 354.526,79.077 C352.846,79.077 351.479,77.645 351.479,74.586 C351.479,71.122 353.074,69.740 354.813,69.740 C355.797,69.740 356.516,70.168 357.020,70.706 L356.265,71.563 C355.941,71.171 355.401,70.890 354.885,70.890 C353.758,70.890 352.822,71.759 352.763,74.329 C353.278,73.680 354.046,73.289 354.682,73.289 ZM354.514,78.000 C355.281,78.000 355.880,77.290 355.880,76.128 C355.880,74.965 355.377,74.317 354.430,74.317 C353.914,74.317 353.315,74.598 352.787,75.369 C352.931,77.156 353.566,78.000 354.514,78.000 Z"/>
<path fill-rule="evenodd"  fill="rgb(51, 51, 51)"
 d="M435.522,79.077 C433.783,79.077 432.668,77.510 432.668,74.378 C432.668,71.257 433.783,69.740 435.522,69.740 C437.248,69.740 438.377,71.269 438.377,74.378 C438.377,77.510 437.248,79.077 435.522,79.077 ZM435.522,70.853 C434.622,70.853 433.986,71.796 433.986,74.378 C433.986,76.984 434.622,77.963 435.522,77.963 C436.421,77.963 437.057,76.984 437.057,74.378 C437.057,71.796 436.421,70.853 435.522,70.853 ZM428.681,79.077 C426.942,79.077 425.827,77.510 425.827,74.378 C425.827,71.257 426.942,69.740 428.681,69.740 C430.408,69.740 431.536,71.269 431.536,74.378 C431.536,77.510 430.408,79.077 428.681,79.077 ZM428.681,70.853 C427.782,70.853 427.147,71.796 427.147,74.378 C427.147,76.984 427.782,77.963 428.681,77.963 C429.581,77.963 430.217,76.984 430.217,74.378 C430.217,71.796 429.581,70.853 428.681,70.853 ZM419.456,77.755 L421.386,77.755 L421.386,71.490 L419.803,71.490 L419.803,70.596 C420.631,70.437 421.218,70.229 421.722,69.911 L422.765,69.911 L422.765,77.755 L424.492,77.755 L424.492,78.918 L419.456,78.918 L419.456,77.755 Z"/>
<path fill-rule="evenodd"  fill="rgb(153, 153, 153)"
 d="M105.995,21.399 L147.810,21.399 L144.476,24.998 L146.833,24.998 L151.001,20.500 L146.833,16.001 L144.476,16.001 L147.810,19.600 L105.995,19.600 L105.995,21.399 Z"/>
<path fill-rule="evenodd"  fill="rgb(153, 153, 153)"
 d="M282.996,21.399 L324.811,21.399 L321.476,24.998 L323.833,24.998 L328.002,20.500 L323.833,16.001 L321.476,16.001 L324.811,19.600 L282.996,19.600 L282.996,21.399 Z"/>
</svg>
