<svg width="28" height="28" viewBox="0 0 28 28" fill="none" xmlns="http://www.w3.org/2000/svg">
<g id="&#230;&#143;&#144;&#231;&#164;&#186;">
<path id="Vector" d="M13.0273 18.8607H14.9718V13.0273H13.0273V18.8607ZM13.9996 11.0829C14.275 11.0829 14.5059 10.9897 14.6923 10.8034C14.8786 10.617 14.9718 10.3861 14.9718 10.1107C14.9718 9.83521 14.8786 9.60431 14.6923 9.41797C14.5059 9.23163 14.275 9.13845 13.9996 9.13845C13.7241 9.13845 13.4932 9.23163 13.3069 9.41797C13.1205 9.60431 13.0273 9.83521 13.0273 10.1107C13.0273 10.3861 13.1205 10.617 13.3069 10.8034C13.4932 10.9897 13.7241 11.0829 13.9996 11.0829ZM13.9996 23.7218C12.6547 23.7218 11.3908 23.4666 10.2079 22.9562C9.02503 22.4457 7.99609 21.753 7.12109 20.878C6.24609 20.003 5.55339 18.9741 5.04297 17.7912C4.53255 16.6084 4.27734 15.3445 4.27734 13.9996C4.27734 12.6547 4.53255 11.3908 5.04297 10.2079C5.55339 9.02503 6.24609 7.99609 7.12109 7.12109C7.99609 6.24609 9.02503 5.55339 10.2079 5.04297C11.3908 4.53255 12.6547 4.27734 13.9996 4.27734C15.3445 4.27734 16.6084 4.53255 17.7912 5.04297C18.9741 5.55339 20.003 6.24609 20.878 7.12109C21.753 7.99609 22.4457 9.02503 22.9562 10.2079C23.4666 11.3908 23.7218 12.6547 23.7218 13.9996C23.7218 15.3445 23.4666 16.6084 22.9562 17.7912C22.4457 18.9741 21.753 20.003 20.878 20.878C20.003 21.753 18.9741 22.4457 17.7912 22.9562C16.6084 23.4666 15.3445 23.7218 13.9996 23.7218ZM13.9996 21.7773C16.1709 21.7773 18.01 21.0239 19.5169 19.5169C21.0239 18.01 21.7773 16.1709 21.7773 13.9996C21.7773 11.8283 21.0239 9.98915 19.5169 8.4822C18.01 6.97526 16.1709 6.22179 13.9996 6.22179C11.8283 6.22179 9.98915 6.97526 8.4822 8.4822C6.97526 9.98915 6.22179 11.8283 6.22179 13.9996C6.22179 16.1709 6.97526 18.01 8.4822 19.5169C9.98915 21.0239 11.8283 21.7773 13.9996 21.7773Z" fill="#4287FF"/>
</g>
</svg>
