<svg 
 xmlns="http://www.w3.org/2000/svg"
 xmlns:xlink="http://www.w3.org/1999/xlink"
 width="30px" height="30px">
<path fill-rule="evenodd"  opacity="0.102" fill="none"
 d="M14.998,-0.000 C23.283,-0.000 29.999,6.715 29.999,14.999 C29.999,23.284 23.283,30.000 14.998,30.000 C6.714,30.000 -0.001,23.284 -0.001,14.999 C-0.001,6.715 6.714,-0.000 14.998,-0.000 Z"/>
<path fill-rule="evenodd"  fill="rgb(201, 201, 210)"
 d="M16.449,13.998 L19.672,10.769 C20.074,10.363 20.074,9.707 19.672,9.302 C19.267,8.897 18.612,8.897 18.207,9.302 L14.985,12.530 L11.763,9.302 C11.358,8.897 10.703,8.897 10.300,9.302 C9.895,9.707 9.895,10.363 10.300,10.769 L13.520,13.998 L10.300,17.227 C9.895,17.632 9.895,18.289 10.300,18.694 C10.493,18.889 10.757,18.999 11.031,18.998 C11.306,18.999 11.569,18.889 11.763,18.694 L14.985,15.465 L18.207,18.694 C18.400,18.889 18.664,18.999 18.939,18.998 C19.212,18.999 19.476,18.889 19.671,18.694 C20.074,18.289 20.074,17.632 19.671,17.227 L16.449,13.998 Z"/>
</svg>
