<svg width="24" height="24" viewBox="0 0 24 24" fill="none" xmlns="http://www.w3.org/2000/svg">
<g id="AI">
<path id="Union" d="M10.0967 22H8.89941V20.7959H10.0967V22ZM12.6074 21.9961H11.4121V20.7979H12.6074V21.9961ZM15.1143 21.9883H13.9121V20.792H15.1143V21.9883ZM10.1064 6.33203H11.3711V4.50879H12.624V6.33105H13.875V4.50879H15.1396V6.35742C15.5014 6.29855 15.8718 6.32545 16.2217 6.43457C16.5714 6.5437 16.8913 6.73235 17.1553 6.98633C17.4599 7.32592 17.6315 7.76461 17.6377 8.2207H17V15.7715H17.6309C17.6533 16.0667 17.5922 16.3625 17.4551 16.625C17.318 16.8874 17.1105 17.1064 16.8555 17.2568C16.3031 17.4876 15.7306 17.6674 15.1455 17.7939V19.4863H13.8867V17.6719H12.6396V19.4971H11.3994V17.6729H10.1348V19.498H8.88379V17.6484C8.50453 17.7205 8.11219 17.6927 7.74707 17.5674C7.38203 17.442 7.05569 17.2233 6.80078 16.9336C6.58583 16.5647 6.40529 16.1768 6.25977 15.7754H7V8.22949H6.39648C6.38238 7.05029 7.11275 6.48749 8.86816 6.33887V4.50293H10.1064V6.33203ZM6.95996 15.1133H4.51562V13.8926H6.95996V15.1133ZM19.4844 15.1133H17.04V13.8926H19.4844V15.1133ZM3.20801 15.1104H2.00977V13.9023H3.20801V15.1104ZM21.9912 15.1104H20.792V13.9023H21.9912V15.1104ZM11.2812 9.01953C10.7667 8.99309 10.2509 8.99309 9.73633 9.01953C9.41831 9.02685 9.11443 9.17003 8.88672 9.41992C8.65908 9.66974 8.52427 10.0078 8.50977 10.3652C8.4871 11.8677 8.50976 13.3716 8.50977 14.875C8.50977 14.9156 8.54403 14.9555 8.5625 14.9961H9.8584V13.5615H11.1924V14.9971L12.4902 15C12.4902 13.3869 12.5192 11.8087 12.4756 10.2334C12.4462 9.90025 12.3078 9.59154 12.0869 9.36719C11.866 9.14291 11.5788 9.01848 11.2812 9.01953ZM14 15H15.5V9H14V15ZM6.95312 12.5977H4.51562V11.3867H6.95312V12.5977ZM19.4844 12.5977H17.0469V11.3867H19.4844V12.5977ZM3.19922 12.5928H2.00098V11.4004H3.19922V12.5928ZM21.999 12.5928H20.8008V11.4004H21.999V12.5928ZM11.1553 11.9941H9.87109V10.5391H11.1553V11.9941ZM3.19043 10.0996H2V8.89453H3.19043V10.0996ZM22 10.0996H20.8096V8.89453H22V10.0996ZM6.9668 10.0957H4.51367V8.8916H6.9668V10.0957ZM19.4863 10.0957H17.0332V8.8916H19.4863V10.0957ZM12.6074 3.19824H11.4111V2H12.6074V3.19824ZM10.0918 3.19727H8.89062V2.00293H10.0918V3.19727ZM15.1191 3.18945H13.8994V2.00391H15.1191V3.18945Z" fill="#4E5969"/>
</g>
</svg>
