<svg width="320" height="320" viewBox="0 0 320 320" fill="none" xmlns="http://www.w3.org/2000/svg">
<g id="&#231;&#169;&#186;&#230;&#150;&#135;&#228;&#187;&#182;-&#230;&#156;&#172;&#229;&#156;&#176;&#230;&#150;&#135;&#228;&#187;&#182;">
<path id="Vector" d="M268.612 237.222L248.89 217.5V115.556H147.223L125.001 93.3333L102.779 71.1111H134.445L156.668 93.3333H248.89C255.001 93.3333 260.232 95.5093 264.584 99.8611C268.936 104.213 271.112 109.444 271.112 115.556V226.667C271.112 228.704 270.927 230.602 270.556 232.361C270.186 234.12 269.538 235.741 268.612 237.222ZM254.168 285.556L217.501 248.889H71.112C65.0009 248.889 59.7694 246.713 55.4175 242.361C51.0657 238.009 48.8898 232.778 48.8898 226.667V93.3333C48.8898 87.2222 51.0657 81.9907 55.4175 77.6389C59.7694 73.287 65.0009 71.1111 71.112 71.1111L93.3342 93.3333H71.112V226.667H195.279L34.4453 65.5556L50.0009 50L270.001 270L254.168 285.556Z" fill="#E1E4E9"/>
</g>
</svg>
