<svg width="24" height="24" viewBox="0 0 24 24" fill="none" xmlns="http://www.w3.org/2000/svg">
<g id="&#231;&#148;&#168;&#230;&#136;&#183;&#229;&#143;&#141;&#233;&#166;&#136;">
<path id="Vector" d="M11.4334 19.7913V18.4163H18.132C18.2083 18.4163 18.2745 18.3928 18.3304 18.3458C18.3862 18.2989 18.4141 18.2372 18.4141 18.1608V11.7494C18.4141 9.99706 17.7871 8.52184 16.5331 7.32376C15.2792 6.12568 13.7673 5.52663 11.9974 5.52663C10.2275 5.52663 8.71558 6.12568 7.46173 7.32376C6.20773 8.52184 5.58073 9.99706 5.58073 11.7494V17.147H4.89323C4.45369 17.147 4.07648 16.994 3.7616 16.688C3.44658 16.3818 3.28906 16.0089 3.28906 15.5694V13.789C3.28906 13.4917 3.3737 13.2193 3.54298 12.9718C3.71226 12.7245 3.93317 12.5256 4.20573 12.3753L4.24813 11.2047C4.31749 10.2069 4.57217 9.2826 5.01217 8.43178C5.45232 7.58096 6.02058 6.84029 6.71694 6.20978C7.41315 5.57926 8.21492 5.08801 9.12227 4.73601C10.0295 4.38401 10.9878 4.20801 11.9974 4.20801C13.007 4.20801 13.963 4.38401 14.8654 4.73601C15.768 5.08801 16.5684 5.5769 17.2664 6.20267C17.9644 6.82845 18.5312 7.56675 18.9666 8.41757C19.402 9.26854 19.662 10.1928 19.7467 11.1905L19.7891 12.3382C20.0558 12.4639 20.2753 12.6437 20.4475 12.8776C20.6196 13.1115 20.7057 13.3724 20.7057 13.6602V15.7069C20.7057 15.9947 20.6196 16.2556 20.4475 16.4895C20.2753 16.7234 20.0558 16.9032 19.7891 17.029V18.1608C19.7891 18.612 19.6272 18.9965 19.3035 19.3144C18.9796 19.6324 18.5891 19.7913 18.132 19.7913H11.4334ZM9.42362 13.6215C9.19919 13.6215 9.00792 13.5454 8.84979 13.3932C8.69182 13.2411 8.61283 13.0527 8.61283 12.8281C8.61283 12.6037 8.69182 12.4139 8.84979 12.2589C9.00792 12.1036 9.19919 12.026 9.42362 12.026C9.64821 12.026 9.83949 12.1036 9.99746 12.2589C10.1556 12.4139 10.2346 12.6037 10.2346 12.8281C10.2346 13.0527 10.1556 13.2411 9.99746 13.3932C9.83949 13.5454 9.64821 13.6215 9.42362 13.6215ZM14.5712 13.6215C14.3466 13.6215 14.1553 13.5454 13.9973 13.3932C13.8392 13.2411 13.7601 13.0527 13.7601 12.8281C13.7601 12.6037 13.8392 12.4139 13.9973 12.2589C14.1553 12.1036 14.3466 12.026 14.5712 12.026C14.7956 12.026 14.9869 12.1036 15.145 12.2589C15.303 12.4139 15.382 12.6037 15.382 12.8281C15.382 13.0527 15.303 13.2411 15.145 13.3932C14.9869 13.5454 14.7956 13.6215 14.5712 13.6215ZM6.83771 12.183C6.74253 10.687 7.20789 9.40688 8.23379 8.34263C9.25969 7.27854 10.5295 6.74649 12.0432 6.74649C13.3148 6.74649 14.4368 7.13989 15.4092 7.9267C16.3818 8.7135 16.9721 9.73207 17.18 10.9824C15.8779 10.9671 14.6748 10.6252 13.5706 9.95665C12.4665 9.28794 11.6189 8.37128 11.0278 7.20665C10.7951 8.34653 10.3074 9.35425 9.56479 10.2298C8.82199 11.1054 7.91296 11.7565 6.83771 12.183Z" fill="#4E5969"/>
</g>
</svg>
