<svg width="24" height="24" viewBox="0 0 24 24" fill="none" xmlns="http://www.w3.org/2000/svg">
<g id="&#230;&#140;&#135;&#229;&#141;&#151;&#232;&#174;&#186;&#229;&#157;&#155;">
<path id="Vector" d="M15.3916 10.7354L18.6986 8.83573L15.3916 6.93579L12.0848 8.83573L15.3916 10.7354ZM15.3916 13.327L17.737 11.9739V10.2834L15.3916 11.6534L13.0464 10.2834V11.9739L15.3916 13.327ZM3.64844 18.5609V16.4013C4.24461 16.4013 4.75363 16.6121 5.1755 17.0339C5.59722 17.4557 5.80808 17.9647 5.80808 18.5609H3.64844ZM7.73149 18.5609C7.73149 17.4372 7.33331 16.4785 6.53695 15.6849C5.7406 14.8913 4.77776 14.489 3.64844 14.4779V13.1618C5.15122 13.1618 6.42677 13.6856 7.47508 14.7332C8.52339 15.7809 9.04754 17.0568 9.04754 18.5609H7.73149ZM11.1398 18.5609C11.1398 17.5215 10.9427 16.5479 10.5485 15.6402C10.1543 14.7325 9.61937 13.941 8.9438 13.2656C8.26837 12.59 7.47683 12.0551 6.5692 11.6609C5.66141 11.2666 4.68783 11.0695 3.64844 11.0695V9.75345C4.86666 9.75345 6.00907 9.98347 7.07566 10.4435C8.14239 10.9035 9.07577 11.5336 9.87578 12.3336C10.6758 13.1336 11.3058 14.067 11.7659 15.1337C12.2259 16.2003 12.4559 17.3427 12.4559 18.5609H11.1398ZM14.3793 18.5609C14.3793 17.0751 14.0973 15.6821 13.5333 14.382C12.9692 13.0819 12.2021 11.9469 11.2322 10.9772C10.2624 10.0072 9.12746 9.24019 7.82734 8.67605C6.52723 8.11204 5.13426 7.83004 3.64844 7.83004V6.98645C3.64844 6.55026 3.80373 6.17686 4.11432 5.86627C4.42491 5.55568 4.7983 5.40039 5.2345 5.40039H18.7324C19.1686 5.40039 19.542 5.55568 19.8526 5.86627C20.1631 6.17686 20.3184 6.55026 20.3184 6.98645V16.9749C20.3184 17.4111 20.1631 17.7844 19.8526 18.095C19.542 18.4056 19.1686 18.5609 18.7324 18.5609H14.3793Z" fill="#4E5969"/>
</g>
</svg>
