<svg width="24" height="24" viewBox="0 0 24 24" fill="none" xmlns="http://www.w3.org/2000/svg">
<g id="&#228;&#187;&#187;&#229;&#138;&#161;/&#233;&#161;&#185;&#231;&#155;&#174;-&#229;&#161;&#171;&#229;&#133;&#133;">
<path id="Vector" d="M6.16667 19.4997C5.70833 19.4997 5.31597 19.3365 4.98958 19.0101C4.66319 18.6837 4.5 18.2913 4.5 17.833V6.16634C4.5 5.70801 4.66319 5.31565 4.98958 4.98926C5.31597 4.66287 5.70833 4.49967 6.16667 4.49967H9.66667C9.84722 3.99967 10.1493 3.5969 10.5729 3.29134C10.9965 2.98579 11.4722 2.83301 12 2.83301C12.5278 2.83301 13.0035 2.98579 13.4271 3.29134C13.8507 3.5969 14.1528 3.99967 14.3333 4.49967H17.8333C18.2917 4.49967 18.684 4.66287 19.0104 4.98926C19.3368 5.31565 19.5 5.70801 19.5 6.16634V17.833C19.5 18.2913 19.3368 18.6837 19.0104 19.0101C18.684 19.3365 18.2917 19.4997 17.8333 19.4997H6.16667ZM7.83333 16.1663H13.6667V14.4997H7.83333V16.1663ZM7.83333 12.833H16.1667V11.1663H7.83333V12.833ZM7.83333 9.49967H16.1667V7.83301H7.83333V9.49967ZM12 5.54134C12.1806 5.54134 12.3299 5.48231 12.4479 5.36426C12.566 5.2462 12.625 5.0969 12.625 4.91634C12.625 4.73579 12.566 4.58648 12.4479 4.46842C12.3299 4.35037 12.1806 4.29134 12 4.29134C11.8194 4.29134 11.6701 4.35037 11.5521 4.46842C11.434 4.58648 11.375 4.73579 11.375 4.91634C11.375 5.0969 11.434 5.2462 11.5521 5.36426C11.6701 5.48231 11.8194 5.54134 12 5.54134Z" fill="#4E5969"/>
</g>
</svg>
