<svg width="24" height="24" viewBox="0 0 24 24" fill="none" xmlns="http://www.w3.org/2000/svg">
<g id="&#228;&#184;&#170;&#228;&#186;&#186;&#228;&#184;&#173;&#229;&#191;&#131;">
<path id="Vector" fill-rule="evenodd" clip-rule="evenodd" d="M11.9834 3.65039C9.56065 3.65039 7.5966 5.61445 7.5966 8.03723C7.5966 10.46 9.56065 12.4241 11.9834 12.4241C14.4062 12.4241 16.3703 10.46 16.3703 8.03723C16.3703 5.61445 14.4062 3.65039 11.9834 3.65039ZM8.47396 13.3014C7.21124 13.3014 6.01312 13.6862 5.11533 14.4462C4.20362 15.218 3.64844 16.3404 3.64844 17.6883V19.0043C3.64844 19.7312 4.23766 20.3204 4.96449 20.3204H19.0024C19.7292 20.3204 20.3184 19.7312 20.3184 19.0043V17.6883C20.3184 16.3404 19.7633 15.218 18.8515 14.4462C17.9538 13.6862 16.7556 13.3014 15.4929 13.3014H8.47396Z" fill="#4E5969"/>
</g>
</svg>
