<svg width="24" height="24" viewBox="0 0 24 24" fill="none" xmlns="http://www.w3.org/2000/svg">
<g id="&#229;&#149;&#134;&#229;&#159;&#142;/&#232;&#180;&#173;&#231;&#137;&#169;">
<path id="Vector" d="M6.16667 20.333C5.70833 20.333 5.31597 20.1698 4.98958 19.8434C4.66319 19.517 4.5 19.1247 4.5 18.6663V8.66634C4.5 8.20801 4.66319 7.81565 4.98958 7.48926C5.31597 7.16287 5.70833 6.99967 6.16667 6.99967H7.83333C7.83333 5.8469 8.23958 4.86426 9.05208 4.05176C9.86458 3.23926 10.8472 2.83301 12 2.83301C13.1528 2.83301 14.1354 3.23926 14.9479 4.05176C15.7604 4.86426 16.1667 5.8469 16.1667 6.99967H17.8333C18.2917 6.99967 18.684 7.16287 19.0104 7.48926C19.3368 7.81565 19.5 8.20801 19.5 8.66634V18.6663C19.5 19.1247 19.3368 19.517 19.0104 19.8434C18.684 20.1698 18.2917 20.333 17.8333 20.333H6.16667ZM12 13.6663C13.1528 13.6663 14.1354 13.2601 14.9479 12.4476C15.7604 11.6351 16.1667 10.6525 16.1667 9.49967H14.5C14.5 10.1941 14.2569 10.7844 13.7708 11.2705C13.2847 11.7566 12.6944 11.9997 12 11.9997C11.3056 11.9997 10.7153 11.7566 10.2292 11.2705C9.74306 10.7844 9.5 10.1941 9.5 9.49967H7.83333C7.83333 10.6525 8.23958 11.6351 9.05208 12.4476C9.86458 13.2601 10.8472 13.6663 12 13.6663ZM9.5 6.99967H14.5C14.5 6.30523 14.2569 5.71495 13.7708 5.22884C13.2847 4.74273 12.6944 4.49967 12 4.49967C11.3056 4.49967 10.7153 4.74273 10.2292 5.22884C9.74306 5.71495 9.5 6.30523 9.5 6.99967Z" fill="#4E5969"/>
</g>
</svg>
