<svg width="14" height="14" viewBox="0 0 14 14" fill="none" xmlns="http://www.w3.org/2000/svg">
<g clip-path="url(#clip0_3318_2080776)">
<path fill-rule="evenodd" clip-rule="evenodd" d="M6.99601 13.999C3.13101 13.999 -0.00299072 10.864 -0.00299072 6.99802C-0.00299072 3.13302 3.13101 -0.000976562 6.99601 -0.000976562C10.862 -0.000976562 13.996 3.13302 13.996 6.99802C13.996 10.864 10.862 13.999 6.99601 13.999ZM11.24 2.75602C10.688 2.20502 10.045 1.77202 9.33201 1.47102C8.59301 1.15602 7.80701 0.999023 6.99601 0.999023C6.18501 0.999023 5.39901 1.15602 4.66001 1.47102C3.94601 1.77202 3.30401 2.20502 2.75401 2.75602C2.20101 3.30802 1.76801 3.95002 1.46701 4.66402C1.15201 5.40302 0.995009 6.18902 0.995009 7.00002C0.995009 7.81102 1.15401 8.59702 1.46701 9.33602C1.76801 10.05 2.20101 10.692 2.75401 11.244C3.30401 11.796 3.94601 12.228 4.66001 12.53C5.39901 12.844 6.18501 13.002 6.99601 13.002C7.80701 13.002 8.59301 12.842 9.33201 12.53C10.045 12.228 10.688 11.796 11.24 11.244C11.791 10.692 12.224 10.05 12.527 9.33602C12.84 8.59702 12.997 7.81102 12.997 7.00002C12.997 6.18902 12.839 5.40302 12.527 4.66402C12.224 3.95002 11.791 3.30802 11.24 2.75602ZM9.99601 7.99902H7.99601V9.99802C7.99601 10.548 7.54701 10.998 6.99601 10.998C6.44701 10.998 5.99601 10.548 5.99601 9.99802V7.99902H3.99601C3.44701 7.99902 2.99701 7.54902 2.99701 6.99802C2.99701 6.44902 3.44701 5.99902 3.99601 5.99902H5.99601V3.99802C5.99601 3.44902 6.44701 2.99902 6.99601 2.99902C7.54701 2.99902 7.99601 3.44902 7.99601 3.99802V5.99902H9.99601C10.547 5.99902 10.996 6.44902 10.996 6.99802C10.996 7.54902 10.547 7.99902 9.99601 7.99902Z" fill="#333333" fill-opacity="0.4"/>
</g>
<defs>
<clipPath id="clip0_3318_2080776">
<rect width="14" height="14" fill="white"/>
</clipPath>
</defs>
</svg>
