<svg width="14" height="14" viewBox="0 0 14 14" fill="none" xmlns="http://www.w3.org/2000/svg">
<g clip-path="url(#clip0_3318_2067936)">
<path fill-rule="evenodd" clip-rule="evenodd" d="M6.99119 13.999C3.12619 13.999 -0.0078125 10.864 -0.0078125 6.99802C-0.0078125 3.13302 3.12619 -0.000976562 6.99119 -0.000976562C10.8572 -0.000976562 13.9922 3.13302 13.9922 6.99802C13.9922 10.864 10.8572 13.999 6.99119 13.999ZM11.2352 2.75602C10.6832 2.20502 10.0412 1.77202 9.32819 1.47102C8.58819 1.15602 7.80319 0.999023 6.99119 0.999023C6.18119 0.999023 5.39419 1.15602 4.65619 1.47102C3.94119 1.77202 3.29919 2.20502 2.74919 2.75602C2.19619 3.30802 1.76319 3.95002 1.46319 4.66402C1.14819 5.40302 0.991188 6.18902 0.991188 7.00002C0.991188 7.81102 1.14919 8.59702 1.46319 9.33602C1.76319 10.05 2.19619 10.692 2.74919 11.244C3.29919 11.796 3.94119 12.228 4.65619 12.53C5.39419 12.844 6.18119 13.002 6.99119 13.002C7.80319 13.002 8.58819 12.842 9.32819 12.53C10.0412 12.228 10.6832 11.796 11.2352 11.244C11.7872 10.692 12.2202 10.05 12.5222 9.33602C12.8362 8.59702 12.9922 7.81102 12.9922 7.00002C12.9922 6.18902 12.8352 5.40302 12.5222 4.66402C12.2202 3.95002 11.7872 3.30802 11.2352 2.75602ZM9.99119 7.99902H7.99219V9.99802C7.99219 10.548 7.54219 10.998 6.99119 10.998C6.44219 10.998 5.99219 10.548 5.99219 9.99802V7.99902H3.99219C3.44319 7.99902 2.99219 7.54902 2.99219 6.99802C2.99219 6.44902 3.44319 5.99902 3.99219 5.99902H5.99219V3.99802C5.99219 3.44902 6.44219 2.99902 6.99119 2.99902C7.54219 2.99902 7.99219 3.44902 7.99219 3.99802V5.99902H9.99119C10.5422 5.99902 10.9922 6.44902 10.9922 6.99802C10.9922 7.54902 10.5422 7.99902 9.99119 7.99902Z" fill="white" fill-opacity="0.4"/>
</g>
<defs>
<clipPath id="clip0_3318_2067936">
<rect width="14" height="14" fill="white"/>
</clipPath>
</defs>
</svg>
