<svg width="40" height="40" viewBox="0 0 40 40" fill="none" xmlns="http://www.w3.org/2000/svg">
<path d="M16.1281 12.7607V10.3281H17.7735V12.7596H19.4545V10.3365H21.1197V12.7586H22.7818V10.3365H24.4628V12.7941C24.9436 12.7158 25.4361 12.7506 25.9012 12.8958C26.3662 13.041 26.7911 13.2925 27.142 13.6304C27.547 14.082 27.7747 14.6651 27.7828 15.2716H26.15C26.0193 14.612 25.5468 14.4667 24.9217 14.4698C21.8159 14.4855 18.7112 14.4761 15.6065 14.4782C14.8664 14.4782 14.7127 14.5827 14.4294 15.2831H12.8426C12.8237 13.7151 13.7949 12.9666 16.1281 12.769" fill="#333333"/>
<path d="M26.15 25.3086H27.7734C27.8032 25.7012 27.7224 26.0942 27.5403 26.4432C27.3581 26.7923 27.0818 27.0833 26.7427 27.2833C26.0085 27.5901 25.2478 27.8291 24.4701 27.9973V30.2479H22.7975V27.8352H21.1396V30.2626H19.4921V27.8363H17.8111V30.2636H16.148V27.8039C15.6439 27.8997 15.1236 27.8624 14.6384 27.6958C14.1531 27.5292 13.7197 27.2389 13.3809 26.8536C13.0951 26.363 12.8541 25.8476 12.6606 25.3138H14.4378C14.5747 26.0362 15.1078 26.1313 15.756 26.1271C18.8091 26.1097 21.8623 26.1097 24.9154 26.1271C25.5426 26.1271 26.0172 25.9923 26.1479 25.3086" fill="#333333"/>
<path d="M21.102 23.598H19.4817V22.0091H17.8196V23.597H16.2055C16.1825 23.552 16.1407 23.5081 16.1407 23.4631C16.1407 21.7989 16.1125 20.1347 16.1407 18.4716C16.1587 18.0758 16.3265 17.7017 16.6101 17.425C16.8937 17.1484 17.2719 16.99 17.668 16.9819C18.3088 16.9526 18.9506 16.9526 19.5915 16.9819C19.9622 16.9806 20.3201 17.1175 20.5953 17.3659C20.8706 17.6143 21.0434 17.9563 21.08 18.3252C21.1344 20.0689 21.0978 21.8157 21.0978 23.6011M19.4357 18.6639H17.8352V20.2738H19.4357V18.6639Z" fill="#17CC5F"/>
<path d="M22.8372 16.9824H24.424V23.5901H22.8372V16.9824Z" fill="#17CC5F"/>
<path d="M10.3411 16.1611H13.6015V17.7616H10.3411V16.1611Z" fill="#333333"/>
<path d="M30.0727 16.29H26.8123V17.8905H30.0727V16.29Z" fill="#333333"/>
<path d="M10.343 19.3906H13.5826V21.0005H10.343V19.3906Z" fill="#333333"/>
<path d="M10.343 22.8105H13.592V24.434H10.343V22.8105Z" fill="#333333"/>
<path d="M30.052 19.3905H26.8124V21.0003H30.052V19.3905Z" fill="#333333"/>
<path d="M30.0613 22.8105H26.8123V24.434H30.0613V22.8105Z" fill="#333333"/>
<path d="M16.1572 7.00391H17.7535V8.59181H16.1572V7.00391Z" fill="#333333"/>
<path d="M19.5078 7H21.0978V8.59313H19.5078V7Z" fill="#333333"/>
<path d="M7 16.166H8.58267V17.7686H7V16.166Z" fill="#333333"/>
<path d="M7.00098 19.3906H8.59411V20.9754H7.00098V19.3906Z" fill="#333333"/>
<path d="M7.01245 22.8105H8.60558V24.4162H7.01245V22.8105Z" fill="#333333"/>
<path d="M22.8142 7.00586H24.4356V8.58226H22.8142V7.00586Z" fill="#333333"/>
<path d="M33.393 16.2958H31.8104V17.8983H33.393V16.2958Z" fill="#333333"/>
<path d="M33.4033 19.3906H31.8102V20.9754H33.4033V19.3906Z" fill="#333333"/>
<path d="M33.4033 22.8105H31.8102V23.6134V24.4162H33.4033V22.8105Z" fill="#333333"/>
<path d="M16.1689 31.9902H17.761V33.5917H16.1689V31.9902Z" fill="#333333"/>
<path d="M19.5088 31.9922H21.0967V33.5853H19.5088V31.9922Z" fill="#333333"/>
<path d="M22.8308 31.9854H24.4292V33.5764H22.8308V31.9854Z" fill="#333333"/>
</svg>
