<svg 
 xmlns="http://www.w3.org/2000/svg"
 xmlns:xlink="http://www.w3.org/1999/xlink"
 width="301.5px" height="148.5px">
<path fill-rule="evenodd"  fill="none"
 d="M-0.002,-0.001 L299.998,-0.001 L299.998,146.999 L-0.002,146.999 L-0.002,-0.001 Z"/>
<path fill-rule="evenodd"  fill="rgb(23, 204, 95)"
 d="M231.805,95.505 L229.621,97.562 L228.290,96.142 L225.399,98.655 L228.546,102.020 L230.800,100.001 L232.992,102.055 L230.591,104.207 L231.805,105.505 L229.621,107.562 L228.356,106.209 L225.908,108.403 L227.568,110.150 L228.800,109.001 L230.992,111.055 L229.633,112.324 L229.805,112.504 L227.621,114.562 L227.440,114.371 L224.487,117.128 L225.805,118.504 L223.622,120.562 L222.294,119.176 L218.199,122.999 L216.006,120.945 L220.220,117.011 L218.410,115.122 L215.198,117.999 L213.006,115.945 L216.338,112.959 L212.978,109.452 L211.198,110.999 L209.006,108.945 L210.908,107.291 L206.754,102.955 L203.199,105.999 L201.006,103.945 L204.684,100.795 L201.905,97.894 L198.389,100.936 L200.805,103.504 L198.622,105.562 L196.119,102.900 L192.019,106.447 L193.805,108.504 L191.622,110.561 L189.752,108.409 L186.554,111.175 L187.805,112.504 L185.621,114.562 L184.283,113.139 L180.625,116.305 L180.805,116.504 L178.621,118.561 L178.356,118.268 L175.199,120.999 L173.704,119.599 L171.621,121.562 L167.870,117.556 L165.213,119.876 L165.805,120.504 L163.621,122.562 L162.951,121.851 L158.466,125.766 L157.622,126.562 L152.603,121.182 L148.757,124.302 L150.805,126.504 L148.621,128.561 L146.422,126.196 L144.199,127.999 L142.006,125.945 L144.390,124.011 L142.033,121.475 L139.199,123.999 L137.006,121.945 L139.994,119.283 L137.470,116.568 L134.062,119.519 L136.805,122.505 L134.622,124.562 L131.794,121.483 L131.198,121.999 L129.006,119.945 L129.771,119.282 L127.136,116.413 L123.878,119.380 L125.805,121.504 L123.621,123.562 L117.006,116.271 L116.199,116.999 L114.006,114.945 L114.994,114.054 L112.740,111.569 L111.199,112.999 L109.006,110.945 L110.726,109.349 L107.516,105.812 L106.199,106.999 L104.006,104.945 L105.504,103.594 L102.787,100.600 L100.199,102.999 L98.006,100.945 L100.773,98.380 L97.758,95.058 L93.606,98.914 L95.805,101.504 L93.621,103.562 L91.408,100.955 L87.962,104.155 L90.805,107.504 L88.622,109.561 L85.765,106.196 L82.389,109.332 L85.805,113.505 L83.621,115.562 L80.192,111.372 L78.272,113.156 L81.805,117.504 L79.622,119.561 L76.075,115.196 L75.210,115.999 L73.006,113.948 L74.177,112.861 L72.027,110.214 L71.199,110.999 L69.006,108.945 L70.130,107.879 L68.193,105.495 L70.377,103.438 L72.307,105.814 L74.184,104.034 L71.071,100.232 L69.199,101.999 L67.006,99.945 L69.167,97.906 L67.193,95.495 L69.377,93.438 L71.349,95.847 L74.476,92.897 L71.218,89.059 L70.199,89.999 L68.006,87.945 L69.277,86.773 L68.193,85.495 L70.377,83.438 L71.482,84.740 L74.940,81.553 L73.194,79.495 L75.377,77.438 L77.145,79.520 L80.693,76.250 L78.193,73.495 L80.377,71.438 L82.898,74.217 L85.860,71.487 L82.193,67.495 L84.377,65.438 L88.066,69.453 L91.080,66.675 L87.194,62.495 L89.377,60.438 L93.286,64.642 L96.821,61.384 L93.193,57.495 L95.377,55.438 L99.027,59.350 L101.902,56.699 L99.194,53.495 L101.377,51.438 L104.107,54.667 L106.719,52.259 L103.194,48.495 L105.377,46.438 L108.925,50.226 L112.274,47.139 L109.194,43.495 L111.377,41.438 L114.479,45.107 L117.593,42.236 L112.193,36.495 L114.377,34.438 L119.799,40.202 L123.121,37.141 L119.194,32.495 L121.377,30.438 L125.325,35.108 L129.090,31.638 L125.194,27.495 L127.377,25.438 L131.296,29.605 L134.289,26.846 L132.194,24.495 L134.377,22.438 L136.494,24.813 L139.614,21.937 L139.193,21.495 L141.378,19.438 L141.820,19.904 L142.800,19.001 L144.993,21.055 L143.884,22.077 L146.558,24.890 L149.610,22.010 L148.193,20.495 L150.377,18.438 L151.792,19.951 L152.800,19.001 L154.993,21.055 L153.841,22.142 L156.990,25.510 L159.653,22.985 L159.193,22.495 L161.377,20.438 L161.830,20.920 L162.800,20.001 L164.993,22.055 L163.882,23.108 L167.461,26.922 L170.800,24.001 L172.993,26.055 L169.508,29.104 L172.309,32.089 L177.800,27.001 L179.993,29.055 L179.382,29.621 L182.576,33.097 L183.800,32.001 L185.992,34.055 L184.601,35.301 L187.340,38.282 L189.800,36.001 L191.993,38.055 L189.368,40.490 L192.130,43.496 L193.800,42.001 L195.993,44.055 L194.156,45.701 L196.966,48.760 L197.800,48.001 L199.993,50.055 L198.993,50.966 L201.789,54.010 L201.800,54.001 L203.993,56.055 L203.814,56.214 L206.961,59.639 L208.800,58.001 L210.993,60.055 L208.986,61.843 L212.247,65.392 L213.800,64.001 L215.993,66.055 L214.272,67.597 L217.068,70.640 L217.800,70.001 L219.993,72.055 L219.091,72.842 L222.281,76.315 L223.800,75.001 L225.992,77.055 L224.304,78.516 L227.121,81.582 L227.800,81.001 L229.992,83.055 L229.142,83.783 L229.805,84.504 L227.621,86.562 L226.862,85.735 L224.521,87.741 L228.509,91.992 L230.800,90.001 L232.992,92.055 L230.556,94.173 L231.805,95.505 ZM226.311,104.022 L223.134,100.625 L220.605,102.822 L223.845,106.232 L226.311,104.022 ZM87.353,91.546 L91.233,87.867 L87.979,84.280 L84.206,87.840 L87.353,91.546 ZM82.024,89.899 L78.602,93.127 L81.761,96.849 L85.175,93.611 L82.024,89.899 ZM93.410,85.802 L96.404,82.963 L93.140,79.411 L90.161,82.221 L93.410,85.802 ZM98.581,80.899 L101.623,78.014 L98.351,74.495 L95.322,77.352 L98.581,80.899 ZM210.185,86.779 L207.012,83.387 L204.348,85.712 L207.538,89.069 L210.185,86.779 ZM209.599,91.238 L212.401,94.187 L215.017,91.946 L212.228,88.964 L209.599,91.238 ZM204.969,81.202 L202.288,78.335 L199.615,80.730 L202.287,83.543 L204.969,81.202 ZM188.770,79.848 L191.579,82.780 L194.774,79.991 L191.948,77.017 L188.770,79.848 ZM189.886,74.847 L181.947,66.491 L173.353,74.318 L181.160,82.618 L189.886,74.847 ZM186.528,81.845 L183.211,84.799 L185.941,87.701 L189.316,84.755 L186.528,81.845 ZM180.970,86.795 L177.576,89.818 L180.137,92.768 L183.680,89.676 L180.970,86.795 ZM175.337,91.812 L171.531,95.202 L174.154,97.991 L177.879,94.739 L175.337,91.812 ZM178.919,84.614 L171.135,76.339 L161.792,84.848 L169.480,93.021 L178.919,84.614 ZM169.082,74.156 L161.623,66.226 L152.359,74.819 L159.740,82.666 L169.082,74.156 ZM159.574,86.869 L150.759,94.897 L158.315,102.965 L167.239,95.018 L159.574,86.869 ZM157.521,84.687 L150.159,76.860 L141.441,84.947 L148.712,92.710 L157.521,84.687 ZM148.106,74.676 L140.029,66.089 L131.330,74.150 L139.392,82.759 L148.106,74.676 ZM129.129,76.189 L121.409,83.344 L129.458,91.973 L137.193,84.799 L129.129,76.189 ZM124.218,90.754 L120.598,94.017 L123.681,97.332 L127.259,94.013 L124.218,90.754 ZM122.175,88.563 L119.208,85.383 L115.643,88.687 L118.559,91.824 L122.175,88.563 ZM117.164,83.191 L114.087,79.893 L110.534,83.192 L113.602,86.492 L117.164,83.191 ZM112.039,77.697 L109.353,74.818 L105.842,78.147 L108.489,80.994 L112.039,77.697 ZM119.364,81.152 L127.081,74.002 L119.147,65.530 L111.530,72.754 L119.364,81.152 ZM129.281,71.963 L137.975,63.906 L129.906,55.327 L121.324,63.466 L129.281,71.963 ZM140.176,61.866 L149.444,53.278 L141.252,44.568 L132.083,53.263 L140.176,61.866 ZM142.229,64.050 L150.305,72.636 L159.569,64.042 L151.498,55.461 L142.229,64.050 ZM161.769,62.002 L170.227,54.156 L162.117,45.621 L153.698,53.422 L161.769,62.002 ZM163.822,64.186 L171.301,72.136 L179.883,64.319 L172.292,56.330 L163.822,64.186 ZM177.064,56.996 L179.929,54.429 L177.333,51.653 L174.491,54.289 L177.064,56.996 ZM179.127,59.167 L182.102,62.299 L184.903,59.747 L181.975,56.616 L179.127,59.167 ZM184.165,64.470 L186.854,67.300 L189.645,64.817 L186.949,61.935 L184.165,64.470 ZM188.916,69.471 L192.127,72.850 L194.872,70.406 L191.689,67.003 L188.916,69.471 ZM194.190,75.021 L197.036,78.016 L199.763,75.636 L196.917,72.592 L194.190,75.021 ZM196.835,82.160 L193.649,84.941 L196.854,88.286 L200.025,85.518 L196.835,82.160 ZM191.387,86.916 L187.991,89.881 L191.163,93.253 L194.591,90.261 L191.387,86.916 ZM185.729,91.855 L182.098,95.025 L185.132,98.519 L188.902,95.228 L185.729,91.855 ZM179.840,96.996 L176.204,100.170 L179.376,103.543 L182.874,100.490 L179.840,96.996 ZM173.942,102.145 L170.523,105.130 L173.626,108.563 L177.115,105.518 L173.942,102.145 ZM171.892,99.966 L169.290,97.198 L166.001,100.128 L168.518,102.912 L171.892,99.966 ZM163.761,102.123 L160.362,105.150 L162.877,107.836 L166.257,104.885 L163.761,102.123 ZM158.121,107.146 L155.455,109.521 L157.934,112.151 L160.616,109.810 L158.121,107.146 ZM156.075,104.961 L148.541,96.917 L140.717,104.043 L148.154,112.015 L156.075,104.961 ZM146.494,94.731 L139.241,86.987 L131.503,94.165 L138.674,101.852 L146.494,94.731 ZM133.853,101.082 L130.216,104.361 L132.832,107.174 L136.456,103.873 L133.853,101.082 ZM131.811,98.892 L129.304,96.205 L125.722,99.527 L128.177,102.168 L131.811,98.892 ZM123.523,101.567 L120.309,104.549 L122.677,107.127 L125.949,104.177 L123.523,101.567 ZM121.482,99.372 L118.370,96.026 L115.148,98.931 L118.281,102.341 L121.482,99.372 ZM116.331,93.833 L113.443,90.726 L110.292,93.646 L113.122,96.726 L116.331,93.833 ZM111.402,88.531 L108.336,85.234 L105.221,88.126 L108.264,91.439 L111.402,88.531 ZM106.291,83.035 L103.666,80.211 L100.611,83.108 L103.190,85.915 L106.291,83.035 ZM103.800,75.950 L107.306,72.624 L104.042,69.125 L100.533,72.436 L103.800,75.950 ZM109.483,70.560 L111.779,68.383 L108.696,64.735 L106.224,67.066 L109.483,70.560 ZM113.957,66.318 L117.097,63.341 L113.849,59.873 L110.878,62.676 L113.957,66.318 ZM119.273,61.276 L122.022,58.670 L118.961,55.049 L116.031,57.814 L119.273,61.276 ZM124.199,56.605 L127.851,53.142 L124.622,49.709 L121.144,52.991 L124.199,56.605 ZM130.028,51.078 L132.734,48.512 L129.697,44.920 L126.804,47.650 L130.028,51.078 ZM134.911,46.447 L139.197,42.383 L135.995,38.979 L131.880,42.861 L134.911,46.447 ZM141.373,40.319 L144.041,37.789 L140.942,34.311 L138.177,36.920 L141.373,40.319 ZM143.429,42.504 L151.644,51.239 L160.052,43.448 L151.701,34.659 L143.429,42.504 ZM162.253,41.408 L165.199,38.678 L162.214,35.486 L159.162,38.156 L162.253,41.408 ZM164.317,43.581 L167.333,46.755 L170.282,44.113 L167.246,40.867 L164.317,43.581 ZM169.396,48.926 L172.427,52.116 L175.286,49.464 L172.327,46.300 L169.396,48.926 ZM177.485,47.424 L180.210,44.896 L177.325,41.821 L174.561,44.297 L177.485,47.424 ZM179.533,49.613 L182.164,52.426 L184.941,49.938 L182.261,47.082 L179.533,49.613 ZM184.209,54.613 L187.121,57.727 L189.886,55.209 L186.990,52.122 L184.209,54.613 ZM189.167,59.915 L191.886,62.822 L194.689,60.328 L191.935,57.394 L189.167,59.915 ZM193.931,65.008 L197.113,68.410 L199.923,65.907 L196.737,62.511 L193.931,65.008 ZM199.157,70.596 L202.024,73.662 L204.869,71.179 L201.971,68.090 L199.157,70.596 ZM204.522,76.333 L207.230,79.228 L210.083,76.737 L207.338,73.810 L204.522,76.333 ZM209.273,81.413 L212.455,84.815 L215.330,82.328 L212.130,78.919 L209.273,81.413 ZM214.498,86.999 L217.298,89.993 L220.194,87.514 L217.376,84.510 L214.498,86.999 ZM217.060,94.130 L214.461,96.355 L218.545,100.653 L221.091,98.440 L217.060,94.130 ZM222.413,114.964 L225.375,112.198 L223.673,110.406 L220.645,113.119 L222.413,114.964 ZM218.573,110.956 L221.610,108.235 L218.339,104.792 L215.245,107.482 L218.573,110.956 ZM213.175,105.321 L216.278,102.623 L212.179,98.309 L209.036,101.001 L213.175,105.321 ZM206.966,98.841 L210.119,96.141 L207.327,93.203 L204.176,95.929 L206.966,98.841 ZM202.106,93.768 L205.267,91.034 L202.086,87.687 L198.924,90.447 L202.106,93.768 ZM196.340,98.757 L199.835,95.734 L196.662,92.422 L193.213,95.433 L196.340,98.757 ZM190.059,104.191 L194.069,100.722 L190.952,97.407 L187.093,100.776 L190.059,104.191 ZM184.505,108.996 L187.792,106.152 L184.835,102.747 L181.426,105.722 L184.505,108.996 ZM178.620,114.088 L182.234,110.961 L179.164,107.697 L175.631,110.781 L178.620,114.088 ZM173.158,118.813 L176.351,116.050 L173.371,112.754 L170.132,115.582 L173.158,118.813 ZM168.087,113.399 L171.366,110.536 L168.263,107.103 L164.922,110.019 L168.087,113.399 ZM163.161,117.698 L165.825,115.373 L162.660,111.993 L159.985,114.328 L163.161,117.698 ZM157.812,122.368 L160.899,119.673 L157.724,116.303 L154.654,118.983 L157.812,122.368 ZM152.614,116.795 L155.672,114.125 L153.214,111.516 L150.196,114.204 L152.614,116.795 ZM146.725,122.117 L149.190,120.117 L149.006,119.945 L150.353,118.769 L147.956,116.200 L144.273,119.479 L146.725,122.117 ZM142.235,117.287 L145.914,114.011 L143.461,111.381 L139.740,114.603 L142.235,117.287 ZM137.703,112.414 L141.421,109.195 L138.499,106.063 L134.871,109.367 L137.703,112.414 ZM132.040,117.318 L135.434,114.378 L132.653,111.388 L129.353,114.393 L132.040,117.318 ZM127.327,112.188 L130.614,109.194 L127.988,106.370 L124.703,109.332 L127.327,112.188 ZM121.865,117.162 L125.109,114.207 L122.475,111.340 L119.234,114.263 L121.865,117.162 ZM117.222,112.045 L120.449,109.135 L118.110,106.589 L114.939,109.529 L117.222,112.045 ZM112.925,107.309 L116.082,104.381 L112.920,100.940 L109.744,103.803 L112.925,107.309 ZM107.732,101.586 L110.894,98.735 L108.092,95.685 L104.987,98.561 L107.732,101.586 ZM102.973,96.342 L106.064,93.477 L103.023,90.168 L99.956,93.016 L102.973,96.342 ZM97.938,90.793 L100.992,87.957 L98.434,85.172 L95.426,88.024 L97.938,90.793 ZM91.661,96.623 L95.740,92.834 L93.249,90.088 L89.297,93.837 L91.661,96.623 ZM86.018,101.864 L89.464,98.664 L87.119,95.902 L83.705,99.139 L86.018,101.864 ZM80.483,107.004 L83.820,103.905 L81.528,101.204 L78.267,104.296 L80.483,107.004 ZM76.374,110.820 L78.286,109.045 L76.089,106.361 L74.204,108.149 L76.374,110.820 ZM73.254,98.173 L76.362,101.969 L79.583,98.914 L76.419,95.186 L73.254,98.173 ZM76.881,83.839 L73.423,87.027 L76.658,90.838 L80.081,87.609 L76.881,83.839 ZM82.707,78.469 L79.086,81.807 L82.263,85.550 L85.964,82.059 L82.707,78.469 ZM87.888,73.694 L84.912,76.436 L88.146,80.000 L91.111,77.202 L87.888,73.694 ZM93.121,68.870 L90.094,71.660 L93.293,75.143 L96.309,72.298 L93.121,68.870 ZM98.865,63.575 L95.326,66.837 L98.490,70.240 L101.996,66.932 L98.865,63.575 ZM103.839,58.990 L101.071,61.542 L104.179,64.873 L106.756,62.441 L103.839,58.990 ZM108.768,54.447 L106.044,56.958 L108.939,60.382 L111.799,57.684 L108.768,54.447 ZM114.210,49.430 L110.973,52.414 L113.981,55.625 L117.022,52.756 L114.210,49.430 ZM119.646,44.419 L116.415,47.397 L119.204,50.697 L122.567,47.524 L119.646,44.419 ZM125.057,39.431 L121.852,42.385 L124.749,45.465 L127.758,42.626 L125.057,39.431 ZM131.143,33.821 L127.262,37.399 L129.941,40.568 L133.940,36.794 L131.143,33.821 ZM133.349,31.788 L136.122,34.736 L138.946,32.071 L136.283,29.084 L133.349,31.788 ZM141.678,24.110 L138.488,27.051 L141.128,30.013 L144.375,26.949 L141.678,24.110 ZM146.441,29.123 L143.124,32.252 L146.218,35.724 L149.635,32.484 L146.441,29.123 ZM151.659,24.201 L148.623,27.064 L151.812,30.420 L154.813,27.574 L151.659,24.201 ZM156.863,29.765 L153.878,32.595 L157.101,35.987 L160.170,33.301 L156.863,29.765 ZM161.705,25.173 L159.039,27.701 L162.429,31.325 L165.201,28.899 L161.705,25.173 ZM167.249,31.081 L164.473,33.510 L167.399,36.639 L170.108,34.129 L167.249,31.081 ZM172.159,36.315 L169.446,38.828 L172.517,42.111 L175.277,39.638 L172.159,36.315 ZM177.182,31.660 L174.360,34.275 L177.512,37.635 L180.342,35.099 L177.182,31.660 ZM182.367,37.303 L179.560,39.818 L182.410,42.856 L185.141,40.322 L182.367,37.303 ZM187.169,42.530 L184.461,45.042 L187.176,47.936 L189.896,45.498 L187.169,42.530 ZM191.922,47.703 L189.225,50.120 L192.104,53.188 L194.748,50.780 L191.922,47.703 ZM196.775,52.986 L194.154,55.373 L196.931,58.333 L199.548,56.004 L196.775,52.986 ZM201.573,58.208 L198.979,60.516 L202.164,63.911 L204.720,61.634 L201.573,58.208 ZM206.745,63.838 L204.212,66.094 L207.130,69.204 L209.652,67.003 L206.745,63.838 ZM212.038,69.599 L209.573,71.808 L212.345,74.763 L214.807,72.613 L212.038,69.599 ZM216.830,74.816 L214.392,76.944 L217.600,80.364 L220.011,78.278 L216.830,74.816 ZM224.841,83.535 L222.034,80.480 L219.647,82.545 L222.475,85.560 L224.841,83.535 ZM222.240,89.694 L219.340,92.177 L223.356,96.471 L226.243,93.961 L222.240,89.694 Z"/>
<path fill-rule="evenodd"  stroke="rgb(127, 127, 127)" stroke-width="3px" stroke-linecap="butt" stroke-linejoin="miter" fill="none"
 d="M79.000,126.000 C77.438,126.082 68.293,124.718 63.999,110.000 C63.275,107.517 57.909,89.057 67.000,77.000 C76.090,64.943 88.999,49.000 88.999,49.000 C88.999,49.000 93.713,50.218 94.999,49.000 C96.286,47.782 107.582,29.770 117.999,24.000 C128.416,18.229 137.382,12.762 153.999,14.000 C170.617,15.238 184.434,23.474 192.999,31.000 C201.564,38.525 205.709,51.848 209.000,53.000 C212.289,54.152 214.347,53.549 215.999,55.000 C217.651,56.450 219.111,61.917 225.999,68.000 C232.888,74.083 236.659,85.942 237.999,97.000 C239.340,108.058 232.338,123.845 228.000,127.000 C223.661,130.155 217.960,132.504 215.999,130.000 C214.038,127.496 209.785,122.760 209.000,120.000 C208.213,117.240 205.382,111.749 203.000,111.000 C200.616,110.250 192.602,118.302 187.999,121.000 C183.396,123.697 169.182,128.094 165.999,128.000 C162.817,127.906 158.313,132.576 154.999,133.000 C151.686,133.423 149.544,132.003 148.000,132.000 C146.454,131.996 142.679,134.576 140.999,134.000 C139.319,133.423 136.858,128.950 133.000,128.000 C129.141,127.050 120.643,127.417 113.999,123.000 C107.356,118.583 97.868,108.261 96.999,108.000 C96.130,107.739 92.810,114.277 89.999,118.000 C87.188,121.722 80.561,125.917 79.000,126.000 Z"/>
<path fill-rule="evenodd"  stroke="rgb(127, 127, 127)" stroke-width="3px" stroke-linecap="butt" stroke-linejoin="miter" fill="none"
 d="M77.617,121.665 C76.200,121.740 70.907,118.504 67.012,105.166 C66.355,102.916 63.487,89.187 71.733,78.261 C79.978,67.335 91.687,53.887 91.687,53.887 C91.687,53.887 95.961,54.991 97.129,53.887 C98.296,52.783 111.542,32.461 120.990,27.232 C130.437,22.003 138.569,17.048 153.642,18.170 C168.714,19.291 182.245,27.756 190.014,34.575 C197.783,41.395 202.542,55.468 205.527,56.512 C208.510,57.556 212.378,58.010 213.875,59.324 C215.373,60.639 215.697,65.592 221.945,71.105 C228.193,76.618 232.613,85.177 233.829,95.198 C235.045,105.219 230.694,118.712 226.760,121.571 C222.825,124.431 219.654,127.559 217.875,125.290 C216.096,123.021 211.239,116.729 210.527,114.228 C209.814,111.727 205.246,106.751 203.084,106.072 C200.924,105.393 188.654,115.690 184.480,118.134 C180.305,120.579 167.413,124.563 164.525,124.478 C161.638,124.392 157.553,128.625 154.548,129.009 C151.544,129.392 149.601,128.106 148.200,128.103 C146.798,128.099 143.374,130.437 141.850,129.915 C140.327,129.392 138.094,125.339 134.594,124.478 C131.095,123.616 123.387,123.949 117.362,119.947 C111.336,115.944 99.408,103.353 96.943,103.353 C94.526,103.353 90.143,111.042 87.594,114.416 C85.044,117.789 79.033,121.590 77.617,121.665 Z"/>
</svg>
