<svg width="24" height="24" viewBox="0 0 24 24" fill="none" xmlns="http://www.w3.org/2000/svg">
<g id="Frame 41036">
<path id="Union" d="M19.2383 3C19.9958 3 20.6885 3.42796 21.0273 4.10547L21.293 4.63672C21.4128 4.87664 21.4833 5.13857 21.5 5.40625L21.8447 11.4766C22.2925 12.0069 22.6619 12.6037 22.9492 13.2695C23.3167 14.1212 23.5 15.0317 23.5 16C23.5 16.9683 23.3167 17.8788 22.9492 18.7305C22.5817 19.582 22.0821 20.3222 21.4521 20.9521C20.8222 21.5821 20.082 22.0817 19.2305 22.4492C18.3788 22.8167 17.4683 23 16.5 23C15.5317 23 14.6212 22.8167 13.7695 22.4492C12.918 22.0817 12.1778 21.5821 11.5479 20.9521C11.4028 20.8071 11.265 20.6559 11.1338 20.499H7.36523C7.19227 20.7977 6.86997 20.999 6.5 20.999H4.5C4.13003 20.999 3.80773 20.7977 3.63477 20.499H2.65234L2.5293 20.4951C1.91748 20.4576 1.35373 20.1407 1.00391 19.6318L0.851562 19.4111C0.622447 19.0779 0.500096 18.6827 0.5 18.2783V12.999C0.500027 12.5812 0.75616 12.2227 1.12012 12.0732L1.44922 5.40625C1.46177 5.20538 1.50494 5.00774 1.57617 4.82031L1.65625 4.63672L1.92188 4.10547C2.23948 3.47035 2.8679 3.05442 3.56934 3.00488L3.71094 3H19.2383ZM16.5 10.4004C14.9367 10.4004 13.6123 10.9423 12.5273 12.0273C11.4423 13.1123 10.9004 14.4367 10.9004 16C10.9004 17.5633 11.4423 18.8877 12.5273 19.9727C13.6123 21.0577 14.9367 21.5996 16.5 21.5996C18.0633 21.5996 19.3877 21.0577 20.4727 19.9727C21.5577 18.8877 22.0996 17.5633 22.0996 16C22.0996 14.4367 21.5577 13.1123 20.4727 12.0273C19.3877 10.9423 18.0633 10.4004 16.5 10.4004ZM14.3477 14.8447C14.2543 15.0314 14.1814 15.2245 14.1289 15.4229C14.0765 15.6211 14.0498 15.8193 14.0498 16.0176C14.0498 16.3209 14.1109 16.6244 14.2334 16.9277C14.3559 17.231 14.5343 17.4991 14.7676 17.7324C15.0126 17.9774 15.2895 18.1587 15.5986 18.2754C15.9078 18.3921 16.2261 18.4443 16.5527 18.4326L15.7998 17.6797L16.5352 16.9453L18.5303 18.9229L16.5352 20.9004L15.7998 20.165L16.4648 19.5C16.0216 19.4883 15.5899 19.3977 15.1699 19.2285C14.75 19.0593 14.3705 18.8061 14.0322 18.4678C13.6939 18.1295 13.4377 17.7441 13.2627 17.3125C13.0877 16.8808 13 16.4433 13 16C13 15.6618 13.0464 15.3294 13.1396 15.0029C13.233 14.6764 13.3789 14.3668 13.5771 14.0752L14.3477 14.8447ZM2 13.499V18.2783C2.0001 18.3793 2.03068 18.4783 2.08789 18.5615L2.24023 18.7822C2.33352 18.9179 2.48771 18.999 2.65234 18.999H10.1738C10.176 19.0036 10.1785 19.0081 10.1807 19.0127C10.1361 18.9199 10.0921 18.8261 10.0508 18.7305C9.68328 17.8788 9.5 16.9683 9.5 16C9.5 15.1177 9.65391 14.2844 9.95898 13.499H2ZM17.2002 11.835L16.5352 12.5176C16.9784 12.5176 17.4131 12.5994 17.8389 12.7627C18.2646 12.926 18.6471 13.1764 18.9854 13.5146C19.3237 13.853 19.5769 14.2412 19.7461 14.6787C19.9153 15.1162 20 15.5567 20 16C20 16.3382 19.9536 16.6706 19.8604 16.9971C19.767 17.3236 19.6211 17.6332 19.4229 17.9248L18.6523 17.1553C18.7457 16.9686 18.8186 16.7755 18.8711 16.5771C18.9235 16.3789 18.9502 16.1807 18.9502 15.9824C18.9502 15.6791 18.8891 15.3756 18.7666 15.0723C18.6441 14.769 18.4657 14.5009 18.2324 14.2676C17.9991 14.0342 17.7192 13.8559 17.3926 13.7334C17.0659 13.6109 16.7447 13.5498 16.4297 13.5498L17.2002 14.3203L16.4648 15.0547L14.4697 13.0771L16.4648 11.0996L17.2002 11.835ZM2.99805 5.30664C2.96811 5.36652 2.95052 5.43221 2.94629 5.49902L2.62793 11.999H3V5.30273L2.99805 5.30664ZM3.7002 11.999H3.90039V5.49902H3.7002V11.999ZM4.7002 11.999H4.90039V5.49902H4.7002V11.999ZM5.7002 11.999H5.90039V5.49902H5.7002V11.999ZM6.5 11.999H7.5V5.29883H6.5V11.999ZM8.2002 11.999H8.40039V5.49902H8.2002V11.999ZM9.2002 11.999H9.40039V5.49902H9.2002V11.999ZM10.2002 11.999H10.4004V5.49902H10.2002V11.999ZM11 11.668C11.1704 11.4509 11.3521 11.2436 11.5479 11.0479C11.6926 10.9031 11.8435 10.7657 12 10.6348V5.29883H11V11.668ZM12.7002 10.1211C12.7662 10.0786 12.8327 10.0365 12.9004 9.99609V5.49902H12.7002V10.1211ZM20 9.93848C19.9919 9.93381 19.9837 9.92944 19.9756 9.9248C20.073 9.9804 20.1687 10.038 20.2627 10.0977L20.0029 5.49902C20.0026 5.49311 20.0006 5.48734 20 5.48145V9.93848ZM19.2002 9.53809C19.2102 9.54234 19.2205 9.54648 19.2305 9.55078C19.2879 9.57557 19.344 9.60292 19.4004 9.62891V5.49902H19.2002V9.53809ZM13.7002 9.58203C13.7233 9.57178 13.7462 9.56084 13.7695 9.55078C13.8127 9.53216 13.8569 9.51572 13.9004 9.49805V5.49902H13.7002V9.58203ZM18.2002 9.2041C18.2674 9.22082 18.3338 9.24001 18.4004 9.25879V5.49902H18.2002V9.2041ZM14.7002 9.23047C14.7665 9.21287 14.8334 9.19721 14.9004 9.18164V5.49902H14.7002V9.23047ZM15.5 9.06836C15.8261 9.0229 16.1594 9 16.5 9V5.29883H15.5V9.06836ZM17.2002 9.03223C17.2673 9.03865 17.3339 9.04835 17.4004 9.05664V5.49902H17.2002V9.03223ZM3.71094 4.5C3.52159 4.5 3.34839 4.60704 3.26367 4.77637L3.25195 4.79883H19.6973L19.6855 4.77637C19.6008 4.60704 19.4276 4.5 19.2383 4.5H3.71094Z" fill="#4E5969"/>
</g>
</svg>
