<svg 
 xmlns="http://www.w3.org/2000/svg"
 xmlns:xlink="http://www.w3.org/1999/xlink"
 width="303px" height="150px">
<path fill-rule="evenodd"  fill="none"
 d="M-0.001,-0.000 L299.998,-0.000 L299.998,147.000 L-0.001,147.000 L-0.001,-0.000 Z"/>
<path fill-rule="evenodd"  fill="rgb(28, 227, 107)"
 d="M179.009,110.420 C181.148,109.271 182.161,107.277 181.968,105.395 C182.176,103.401 181.148,101.518 179.009,100.369 L132.921,75.698 C130.880,74.550 128.436,74.024 125.992,74.024 C123.548,74.024 121.090,74.550 119.048,75.698 L72.960,100.272 C70.822,101.421 69.905,103.415 70.002,105.297 C69.905,107.291 70.822,109.271 72.960,110.420 L119.048,135.006 C121.090,136.156 123.534,136.682 125.992,136.682 C128.436,136.682 130.880,136.156 132.921,135.006 L179.009,110.420 Z"/>
<path fill-rule="evenodd"  stroke="rgb(23, 204, 95)" stroke-width="1px" stroke-linecap="butt" stroke-linejoin="miter" fill="none"
 d="M167.684,108.050 C169.365,107.133 170.162,105.542 170.010,104.039 C170.173,102.449 169.365,100.946 167.684,100.029 L131.457,80.343 C129.853,79.425 127.931,79.006 126.010,79.006 C124.090,79.006 122.157,79.425 120.553,80.343 L84.326,99.952 C82.644,100.869 81.924,102.460 82.001,103.962 C81.924,105.553 82.644,107.133 84.326,108.050 L120.553,127.670 C122.157,128.587 124.079,129.007 126.010,129.007 C127.931,129.007 129.853,128.587 131.457,127.670 L167.684,108.050 Z"/>
<path fill-rule="evenodd"  stroke="rgb(23, 204, 95)" stroke-width="1px" stroke-linecap="butt" stroke-linejoin="miter" fill="none"
 d="M128.456,84.249 L126.850,83.540 L123.106,85.195 L130.596,85.195 L131.933,86.141 L120.431,86.141 L118.024,87.324 L135.143,87.324 L137.283,88.743 L115.617,88.743 L113.744,89.926 L140.225,89.926 L142.900,91.345 L110.535,91.345 L108.127,92.763 L146.109,92.763 L148.249,94.183 L105.184,94.183 L103.313,95.366 L151.726,95.602 L153.866,96.784 L99.568,97.021 L97.428,98.203 L157.344,98.440 L159.216,99.623 L94.485,99.859 L92.346,101.278 L162.099,101.278 L164.239,102.698 L88.601,102.698 L87.633,103.880 L165.518,104.353 L164.773,105.773 L89.136,105.773 L91.008,106.955 L160.821,107.428 L158.681,108.847 L95.288,108.847 L97.161,110.030 L156.006,110.030 L154.401,111.449 L100.637,111.449 L102.243,112.631 L150.121,112.868 L148.249,114.287 L105.987,114.287 L107.859,115.470 L144.771,115.470 L142.900,116.889 L111.337,117.125 L113.210,118.308 L138.620,118.544 L136.748,119.964 L117.757,119.964 L119.628,121.382 L133.271,121.146 L131.666,122.565 L123.641,122.801 L126.850,124.457 L128.723,123.748 "/>
<path fill-rule="evenodd"  stroke="rgb(127, 127, 127)" stroke-width="1px" stroke-dasharray="4, 2" stroke-linecap="butt" stroke-linejoin="miter" fill="none"
 d="M70.997,40.999 L70.997,104.999 "/>
<path fill-rule="evenodd"  stroke="rgb(127, 127, 127)" stroke-width="1px" stroke-dasharray="4, 2" stroke-linecap="butt" stroke-linejoin="miter" fill="none"
 d="M181.997,40.999 L181.997,104.999 "/>
<path fill-rule="evenodd"  stroke="rgb(127, 127, 127)" stroke-width="1px" stroke-dasharray="4, 2" stroke-linecap="butt" stroke-linejoin="miter" fill="none"
 d="M126.997,68.998 L126.997,136.998 "/>
<path fill-rule="evenodd"  stroke="rgb(127, 127, 127)" stroke-width="1px" stroke-dasharray="4, 2" stroke-linecap="butt" stroke-linejoin="miter" fill="none"
 d="M126.997,6.999 L126.997,69.999 "/>
<path fill-rule="evenodd"  stroke="rgb(127, 127, 127)" stroke-width="1px" stroke-dasharray="4, 2" stroke-linecap="butt" stroke-linejoin="miter" fill="none"
 d="M179.009,41.154 C181.148,40.005 182.161,38.011 181.968,36.129 C182.176,34.135 181.148,32.252 179.009,31.102 L132.921,6.433 C130.880,5.283 128.436,4.758 125.992,4.758 C123.548,4.758 121.090,5.283 119.048,6.433 L72.960,31.006 C70.822,32.155 69.905,34.149 70.002,36.031 C69.905,38.025 70.822,40.005 72.960,41.154 L119.048,65.740 C121.090,66.890 123.534,67.416 125.992,67.416 C128.436,67.416 130.880,66.890 132.921,65.740 L179.009,41.154 Z"/>
<path fill-rule="evenodd"  stroke="rgb(23, 204, 95)" stroke-width="6px" stroke-linecap="round" stroke-linejoin="miter" fill="none"
 d="M222.000,60.000 C222.000,60.000 222.000,60.648 222.000,76.997 C222.000,91.002 227.985,97.000 242.008,97.000 C243.695,97.000 244.999,97.000 244.999,97.000 "/>
<path fill-rule="evenodd"  fill="rgb(23, 204, 95)"
 d="M243.999,97.000 C243.999,97.000 244.837,96.621 256.999,98.000 C261.971,98.564 265.849,99.941 271.527,100.377 C280.997,101.104 283.999,103.000 283.999,103.000 C283.999,103.000 276.656,103.000 274.999,103.000 L243.999,103.000 C242.342,103.000 241.000,101.657 241.000,100.000 C241.000,98.343 242.342,97.000 243.999,97.000 Z"/>
<path fill-rule="evenodd"  fill="rgb(183, 183, 183)"
 d="M204.009,32.342 C204.009,32.342 203.985,51.500 204.009,51.828 C204.033,52.156 204.437,53.066 205.783,54.399 C207.128,55.732 217.686,67.585 217.849,67.771 C218.013,67.956 218.179,68.283 218.737,68.285 C219.294,68.286 219.767,67.823 220.157,67.428 C220.546,67.033 232.317,53.886 232.755,53.371 C233.192,52.854 233.639,52.040 233.642,50.628 C233.646,49.215 233.642,32.342 233.642,32.342 L204.009,32.342 Z"/>
<path fill-rule="evenodd"  fill="rgb(207, 207, 207)"
 d="M205.605,54.056 C205.605,54.056 206.444,55.071 208.090,55.770 C210.709,56.885 215.130,57.842 219.624,57.485 C226.942,56.903 231.513,55.428 231.513,55.428 L219.447,68.456 L217.673,68.285 L205.428,54.399 L205.605,54.056 Z"/>
<path fill-rule="evenodd"  fill="rgb(127, 127, 127)"
 d="M227.964,31.999 L227.964,56.113 L219.270,68.456 L219.624,68.456 C219.624,68.456 233.418,52.957 233.820,52.171 C234.222,51.385 233.820,31.999 233.820,31.999 L227.964,31.999 Z"/>
<path fill-rule="evenodd"  fill="rgb(249, 249, 249)"
 d="M207.912,32.342 L207.912,55.599 L218.559,68.285 L214.832,57.313 L215.010,32.170 L207.912,32.342 Z"/>
</svg>
