<svg 
 xmlns="http://www.w3.org/2000/svg"
 xmlns:xlink="http://www.w3.org/1999/xlink"
 width="300.5px" height="147.5px">
<path fill-rule="evenodd"  fill="none"
 d="M-0.002,-0.001 L299.998,-0.001 L299.998,146.999 L-0.002,146.999 L-0.002,-0.001 Z"/>
<path fill-rule="evenodd"  fill="rgb(23, 204, 95)"
 d="M34.999,113.000 L106.360,113.000 C109.122,113.000 111.360,115.238 111.360,117.999 L111.360,118.000 C111.360,120.761 109.122,123.000 106.360,123.000 L34.999,123.000 C32.238,123.000 29.999,120.761 29.999,118.000 L29.999,117.999 C29.999,115.238 32.238,113.000 34.999,113.000 Z"/>
<path fill-rule="evenodd"  fill="rgb(16, 142, 66)"
 d="M34.783,118.999 L106.569,118.999 C110.487,118.999 110.563,115.243 110.563,115.243 C110.563,115.243 111.354,116.980 111.354,117.999 C111.354,120.760 109.211,122.999 106.569,122.999 L34.783,122.999 C32.141,122.999 29.997,120.760 29.997,117.999 C29.997,116.917 30.886,115.097 30.886,115.097 C30.886,115.097 31.038,118.999 34.783,118.999 Z"/>
<path fill-rule="evenodd"  fill="rgb(23, 204, 95)"
 d="M34.999,103.000 L116.361,103.000 C119.122,103.000 121.361,105.238 121.361,107.999 L121.361,108.000 C121.361,110.761 119.122,113.000 116.361,113.000 L34.999,113.000 C32.238,113.000 29.999,110.761 29.999,108.000 L29.999,107.999 C29.999,105.238 32.238,103.000 34.999,103.000 Z"/>
<path fill-rule="evenodd"  fill="rgb(16, 142, 66)"
 d="M34.783,108.999 L116.569,108.999 C120.487,108.999 120.563,105.243 120.563,105.243 C120.563,105.243 121.355,106.980 121.355,107.999 C121.355,110.760 119.212,112.999 116.569,112.999 L34.783,112.999 C32.141,112.999 29.997,110.760 29.997,107.999 C29.997,106.917 30.886,105.097 30.886,105.097 C30.886,105.097 31.038,108.999 34.783,108.999 Z"/>
<path fill-rule="evenodd"  fill="rgb(23, 204, 95)"
 d="M34.999,93.000 L126.360,93.000 C129.122,93.000 131.360,95.238 131.360,97.999 L131.360,98.000 C131.360,100.761 129.122,103.000 126.360,103.000 L34.999,103.000 C32.238,103.000 29.999,100.761 29.999,98.000 L29.999,97.999 C29.999,95.238 32.238,93.000 34.999,93.000 Z"/>
<path fill-rule="evenodd"  fill="rgb(16, 142, 66)"
 d="M34.783,98.999 L126.569,98.999 C130.487,98.999 130.563,95.244 130.563,95.244 C130.563,95.244 131.355,96.980 131.355,97.999 C131.355,100.760 129.211,102.999 126.569,102.999 L34.783,102.999 C32.141,102.999 29.997,100.760 29.997,97.999 C29.997,96.917 30.886,95.097 30.886,95.097 C30.886,95.097 31.038,98.999 34.783,98.999 Z"/>
<path fill-rule="evenodd"  fill="rgb(23, 204, 95)"
 d="M34.999,83.000 L136.360,83.000 C139.122,83.000 141.361,85.238 141.361,87.999 L141.361,87.999 C141.361,90.761 139.122,93.000 136.360,93.000 L34.999,93.000 C32.238,93.000 29.999,90.761 29.999,87.999 L29.999,87.999 C29.999,85.238 32.238,83.000 34.999,83.000 Z"/>
<path fill-rule="evenodd"  fill="rgb(16, 142, 66)"
 d="M34.783,88.999 L136.569,88.999 C140.487,88.999 140.563,85.244 140.563,85.244 C140.563,85.244 141.355,86.980 141.355,87.999 C141.355,90.760 139.212,92.999 136.569,92.999 L34.783,92.999 C32.141,92.999 29.997,90.760 29.997,87.999 C29.997,86.917 30.886,85.097 30.886,85.097 C30.886,85.097 31.038,88.999 34.783,88.999 Z"/>
<path fill-rule="evenodd"  fill="rgb(23, 204, 95)"
 d="M34.999,73.000 L146.361,73.000 C149.122,73.000 151.360,75.238 151.360,78.000 L151.360,78.000 C151.360,80.761 149.122,83.000 146.361,83.000 L34.999,83.000 C32.238,83.000 29.999,80.761 29.999,78.000 L29.999,78.000 C29.999,75.238 32.238,73.000 34.999,73.000 Z"/>
<path fill-rule="evenodd"  fill="rgb(16, 142, 66)"
 d="M34.783,78.999 L146.569,78.999 C150.487,78.999 150.563,75.244 150.563,75.244 C150.563,75.244 151.355,76.980 151.355,77.999 C151.355,80.760 149.211,82.999 146.569,82.999 L34.783,82.999 C32.141,82.999 29.997,80.760 29.997,77.999 C29.997,76.917 30.886,75.097 30.886,75.097 C30.886,75.097 31.038,78.999 34.783,78.999 Z"/>
<path fill-rule="evenodd"  fill="rgb(23, 204, 95)"
 d="M34.999,62.999 L156.360,62.999 C159.122,62.999 161.360,65.238 161.360,68.000 L161.360,68.000 C161.360,70.761 159.122,72.999 156.360,72.999 L34.999,72.999 C32.238,72.999 29.999,70.761 29.999,68.000 L29.999,68.000 C29.999,65.238 32.238,62.999 34.999,62.999 Z"/>
<path fill-rule="evenodd"  fill="rgb(16, 142, 66)"
 d="M34.783,68.999 L156.569,68.999 C160.487,68.999 160.563,65.243 160.563,65.243 C160.563,65.243 161.355,66.980 161.355,67.999 C161.355,70.760 159.211,72.999 156.569,72.999 L34.783,72.999 C32.141,72.999 29.997,70.760 29.997,67.999 C29.997,66.917 30.886,65.097 30.886,65.097 C30.886,65.097 31.038,68.999 34.783,68.999 Z"/>
<path fill-rule="evenodd"  fill="rgb(255, 222, 0)"
 d="M44.998,52.999 L176.361,52.999 C179.122,52.999 181.360,55.238 181.360,58.000 L181.360,58.000 C181.360,60.761 179.122,62.999 176.361,62.999 L44.998,62.999 C42.237,62.999 39.998,60.761 39.998,58.000 L39.998,58.000 C39.998,55.238 42.237,52.999 44.998,52.999 Z"/>
<path fill-rule="evenodd"  fill="rgb(128, 118, 54)"
 d="M44.783,58.999 L176.569,58.999 C180.487,58.999 180.563,55.243 180.563,55.243 C180.563,55.243 181.355,56.980 181.355,57.999 C181.355,60.760 179.211,62.999 176.569,62.999 L44.783,62.999 C42.140,62.999 39.998,60.760 39.998,57.999 C39.998,56.917 40.885,55.097 40.885,55.097 C40.885,55.097 41.038,58.999 44.783,58.999 Z"/>
<path fill-rule="evenodd"  fill="rgb(23, 204, 95)"
 d="M34.999,52.999 L156.360,52.999 C159.122,52.999 161.360,55.238 161.360,58.000 L161.360,58.000 C161.360,60.761 159.122,62.999 156.360,62.999 L34.999,62.999 C32.238,62.999 29.999,60.761 29.999,58.000 L29.999,58.000 C29.999,55.238 32.238,52.999 34.999,52.999 Z"/>
<path fill-rule="evenodd"  fill="rgb(16, 142, 66)"
 d="M34.783,58.999 L156.569,58.999 C160.487,58.999 160.563,55.243 160.563,55.243 C160.563,55.243 161.355,56.980 161.355,57.999 C161.355,60.760 159.211,62.999 156.569,62.999 L34.783,62.999 C32.141,62.999 29.997,60.760 29.997,57.999 C29.997,56.917 30.886,55.097 30.886,55.097 C30.886,55.097 31.038,58.999 34.783,58.999 Z"/>
<path fill-rule="evenodd"  stroke="rgb(255, 255, 255)" stroke-width="1px" stroke-dasharray="4, 2" stroke-linecap="butt" stroke-linejoin="miter" fill="none"
 d="M160.999,84.000 L160.999,44.000 "/>
<path fill-rule="evenodd"  fill="rgb(255, 255, 255)"
 d="M180.201,36.996 C179.759,36.996 179.401,36.612 179.401,36.139 L179.401,25.854 C179.401,25.380 179.759,24.996 180.201,24.996 C180.643,24.996 181.000,25.380 181.000,25.854 L181.000,36.139 C181.000,36.612 180.643,36.996 180.201,36.996 ZM175.966,34.458 C175.650,34.773 175.160,34.764 174.855,34.438 C174.550,34.111 174.542,33.584 174.835,33.247 L176.135,31.854 L165.866,31.854 L167.167,33.247 C167.470,33.584 167.466,34.119 167.157,34.449 C166.848,34.780 166.349,34.784 166.035,34.458 L163.371,31.604 C163.296,31.525 163.236,31.429 163.195,31.322 C163.165,31.243 163.157,31.159 163.149,31.076 C163.147,31.048 163.134,31.024 163.134,30.996 C163.134,30.966 163.147,30.940 163.150,30.911 C163.158,30.829 163.166,30.747 163.196,30.670 C163.237,30.563 163.297,30.467 163.372,30.387 L166.035,27.533 C166.351,27.219 166.842,27.228 167.146,27.554 C167.451,27.881 167.460,28.406 167.166,28.744 L165.865,30.139 L176.135,30.139 L174.834,28.744 C174.532,28.408 174.536,27.873 174.844,27.543 C175.153,27.213 175.653,27.207 175.966,27.533 L178.633,30.391 C178.944,30.725 178.944,31.267 178.633,31.602 L175.966,34.458 ZM161.801,36.996 C161.359,36.996 161.000,36.612 161.000,36.139 L161.000,25.854 C161.000,25.380 161.359,24.996 161.801,24.996 C162.242,24.996 162.601,25.380 162.601,25.854 L162.601,36.139 C162.601,36.612 162.242,36.996 161.801,36.996 Z"/>
<path fill-rule="evenodd"  fill="rgb(23, 204, 95)"
 d="M203.280,80.031 C203.280,80.031 213.800,79.653 223.045,81.026 C226.826,81.587 240.677,83.683 244.999,84.000 C251.920,84.508 251.967,80.510 253.455,81.026 C255.300,81.664 254.976,83.016 254.976,83.016 C254.976,83.016 253.268,85.326 247.373,86.000 L203.280,86.000 C202.021,86.000 200.999,84.664 200.999,83.015 C200.999,81.367 202.021,80.031 203.280,80.031 Z"/>
<path fill-rule="evenodd"  fill="rgb(183, 183, 183)"
 d="M240.009,45.342 C240.009,45.342 239.984,64.500 240.009,64.828 C240.033,65.155 240.437,66.066 241.783,67.399 C243.129,68.732 253.686,80.585 253.849,80.771 C254.013,80.955 254.179,81.283 254.737,81.285 C255.295,81.286 255.767,80.823 256.156,80.428 C256.547,80.032 268.318,66.886 268.755,66.371 C269.193,65.854 269.640,65.040 269.642,63.628 C269.646,62.215 269.642,45.342 269.642,45.342 L240.009,45.342 Z"/>
<path fill-rule="evenodd"  fill="rgb(207, 207, 207)"
 d="M241.606,67.056 C241.606,67.056 242.444,68.071 244.090,68.770 C246.709,69.885 251.131,70.842 255.624,70.485 C262.942,69.903 267.513,68.428 267.513,68.428 L255.447,81.456 L253.672,81.285 L241.427,67.399 L241.606,67.056 Z"/>
<path fill-rule="evenodd"  fill="rgb(127, 127, 127)"
 d="M263.964,44.999 L263.964,69.113 L255.270,81.456 L255.624,81.456 C255.624,81.456 269.418,65.957 269.820,65.171 C270.222,64.385 269.820,44.999 269.820,44.999 L263.964,44.999 Z"/>
<path fill-rule="evenodd"  fill="rgb(249, 249, 249)"
 d="M243.912,45.342 L243.912,68.599 L254.559,81.285 L250.833,70.313 L251.010,45.170 L243.912,45.342 Z"/>
</svg>
