<svg 
 xmlns="http://www.w3.org/2000/svg"
 xmlns:xlink="http://www.w3.org/1999/xlink"
 width="300.5px" height="147.5px">
<path fill-rule="evenodd"  fill="none"
 d="M-0.002,-0.001 L299.998,-0.001 L299.998,146.999 L-0.002,146.999 L-0.002,-0.001 Z"/>
<path fill-rule="evenodd"  fill="rgb(23, 204, 95)"
 d="M49.999,112.999 L121.361,112.999 C124.122,112.999 126.360,115.238 126.360,117.999 L126.360,118.000 C126.360,120.761 124.122,122.999 121.361,122.999 L49.999,122.999 C47.238,122.999 44.999,120.761 44.999,118.000 L44.999,117.999 C44.999,115.238 47.238,112.999 49.999,112.999 Z"/>
<path fill-rule="evenodd"  fill="rgb(16, 142, 66)"
 d="M49.783,118.999 L121.569,118.999 C125.487,118.999 125.563,115.243 125.563,115.243 C125.563,115.243 126.355,116.980 126.355,117.999 C126.355,120.760 124.212,122.999 121.569,122.999 L49.783,122.999 C47.141,122.999 44.998,120.760 44.998,117.999 C44.998,116.917 45.886,115.097 45.886,115.097 C45.886,115.097 46.038,118.999 49.783,118.999 Z"/>
<path fill-rule="evenodd"  fill="rgb(23, 204, 95)"
 d="M49.999,102.999 L131.360,102.999 C134.121,102.999 136.360,105.238 136.360,108.000 L136.360,108.000 C136.360,110.761 134.121,112.999 131.360,112.999 L49.999,112.999 C47.237,112.999 44.999,110.761 44.999,108.000 L44.999,108.000 C44.999,105.238 47.237,102.999 49.999,102.999 Z"/>
<path fill-rule="evenodd"  fill="rgb(16, 142, 66)"
 d="M49.783,108.999 L131.569,108.999 C135.486,108.999 135.563,105.243 135.563,105.243 C135.563,105.243 136.354,106.980 136.354,107.999 C136.354,110.760 134.211,112.999 131.569,112.999 L49.783,112.999 C47.141,112.999 44.998,110.760 44.998,107.999 C44.998,106.917 45.886,105.097 45.886,105.097 C45.886,105.097 46.038,108.999 49.783,108.999 Z"/>
<path fill-rule="evenodd"  fill="rgb(23, 204, 95)"
 d="M49.999,92.999 L141.361,92.999 C144.122,92.999 146.361,95.238 146.361,97.999 L146.361,98.000 C146.361,100.761 144.122,102.999 141.361,102.999 L49.999,102.999 C47.237,102.999 44.999,100.761 44.999,98.000 L44.999,97.999 C44.999,95.238 47.237,92.999 49.999,92.999 Z"/>
<path fill-rule="evenodd"  fill="rgb(16, 142, 66)"
 d="M49.783,98.999 L141.569,98.999 C145.487,98.999 145.563,95.243 145.563,95.243 C145.563,95.243 146.355,96.980 146.355,97.999 C146.355,100.760 144.211,102.999 141.569,102.999 L49.783,102.999 C47.141,102.999 44.998,100.760 44.998,97.999 C44.998,96.917 45.886,95.097 45.886,95.097 C45.886,95.097 46.038,98.999 49.783,98.999 Z"/>
<path fill-rule="evenodd"  fill="rgb(23, 204, 95)"
 d="M49.999,83.000 L151.360,83.000 C154.122,83.000 156.360,85.238 156.360,87.999 L156.360,88.000 C156.360,90.761 154.122,92.999 151.360,92.999 L49.999,92.999 C47.237,92.999 44.999,90.761 44.999,88.000 L44.999,87.999 C44.999,85.238 47.237,83.000 49.999,83.000 Z"/>
<path fill-rule="evenodd"  fill="rgb(16, 142, 66)"
 d="M49.783,88.999 L151.569,88.999 C155.487,88.999 155.563,85.243 155.563,85.243 C155.563,85.243 156.355,86.980 156.355,87.999 C156.355,90.760 154.212,92.999 151.569,92.999 L49.783,92.999 C47.141,92.999 44.998,90.760 44.998,87.999 C44.998,86.917 45.886,85.097 45.886,85.097 C45.886,85.097 46.038,88.999 49.783,88.999 Z"/>
<path fill-rule="evenodd"  fill="rgb(23, 204, 95)"
 d="M49.999,73.000 L161.361,73.000 C164.122,73.000 166.360,75.238 166.360,77.999 L166.360,78.000 C166.360,80.761 164.122,83.000 161.361,83.000 L49.999,83.000 C47.237,83.000 44.999,80.761 44.999,78.000 L44.999,77.999 C44.999,75.238 47.237,73.000 49.999,73.000 Z"/>
<path fill-rule="evenodd"  fill="rgb(16, 142, 66)"
 d="M49.783,78.999 L161.569,78.999 C165.487,78.999 165.563,75.243 165.563,75.243 C165.563,75.243 166.355,76.980 166.355,77.999 C166.355,80.760 164.212,82.999 161.569,82.999 L49.783,82.999 C47.141,82.999 44.998,80.760 44.998,77.999 C44.998,76.917 45.886,75.097 45.886,75.097 C45.886,75.097 46.038,78.999 49.783,78.999 Z"/>
<path fill-rule="evenodd"  fill="rgb(23, 204, 95)"
 d="M49.999,63.000 L171.360,63.000 C174.122,63.000 176.361,65.238 176.361,67.999 L176.361,68.000 C176.361,70.761 174.122,73.000 171.360,73.000 L49.999,73.000 C47.237,73.000 44.999,70.761 44.999,68.000 L44.999,67.999 C44.999,65.238 47.237,63.000 49.999,63.000 Z"/>
<path fill-rule="evenodd"  fill="rgb(16, 142, 66)"
 d="M49.783,68.999 L171.569,68.999 C175.487,68.999 175.563,65.243 175.563,65.243 C175.563,65.243 176.355,66.980 176.355,67.999 C176.355,70.760 174.211,72.999 171.569,72.999 L49.783,72.999 C47.141,72.999 44.998,70.760 44.998,67.999 C44.998,66.917 45.886,65.097 45.886,65.097 C45.886,65.097 46.038,68.999 49.783,68.999 Z"/>
<path fill-rule="evenodd"  fill="rgb(255, 222, 0)"
 d="M59.999,53.000 L191.361,53.000 C194.122,53.000 196.360,55.238 196.360,57.999 L196.360,58.000 C196.360,60.761 194.122,63.000 191.361,63.000 L59.999,63.000 C57.238,63.000 54.999,60.761 54.999,58.000 L54.999,57.999 C54.999,55.238 57.238,53.000 59.999,53.000 Z"/>
<path fill-rule="evenodd"  fill="rgb(128, 118, 54)"
 d="M59.783,58.999 L191.569,58.999 C195.487,58.999 195.563,55.244 195.563,55.244 C195.563,55.244 196.355,56.980 196.355,57.999 C196.355,60.760 194.211,62.999 191.569,62.999 L59.783,62.999 C57.141,62.999 54.997,60.760 54.997,57.999 C54.997,56.917 55.886,55.097 55.886,55.097 C55.886,55.097 56.038,58.999 59.783,58.999 Z"/>
<path fill-rule="evenodd"  fill="rgb(23, 204, 95)"
 d="M49.999,53.000 L171.360,53.000 C174.122,53.000 176.361,55.238 176.361,57.999 L176.361,58.000 C176.361,60.761 174.122,63.000 171.360,63.000 L49.999,63.000 C47.237,63.000 44.999,60.761 44.999,58.000 L44.999,57.999 C44.999,55.238 47.237,53.000 49.999,53.000 Z"/>
<path fill-rule="evenodd"  fill="rgb(16, 142, 66)"
 d="M49.783,58.999 L171.569,58.999 C175.487,58.999 175.563,55.244 175.563,55.244 C175.563,55.244 176.355,56.980 176.355,57.999 C176.355,60.760 174.211,62.999 171.569,62.999 L49.783,62.999 C47.141,62.999 44.998,60.760 44.998,57.999 C44.998,56.917 45.886,55.097 45.886,55.097 C45.886,55.097 46.038,58.999 49.783,58.999 Z"/>
<path fill-rule="evenodd"  stroke="rgb(255, 255, 255)" stroke-width="1px" stroke-dasharray="4, 2" stroke-linecap="butt" stroke-linejoin="miter" fill="none"
 d="M175.999,84.000 L175.999,44.000 "/>
<path fill-rule="evenodd"  fill="rgb(255, 255, 255)"
 d="M195.200,36.996 C194.759,36.996 194.400,36.612 194.400,36.139 L194.400,25.853 C194.400,25.380 194.759,24.996 195.200,24.996 C195.642,24.996 196.001,25.380 196.001,25.853 L196.001,36.139 C196.001,36.612 195.642,36.996 195.200,36.996 ZM190.966,34.458 C190.651,34.773 190.160,34.764 189.855,34.437 C189.550,34.111 189.541,33.584 189.836,33.247 L191.135,31.853 L180.866,31.853 L182.167,33.247 C182.470,33.584 182.465,34.119 182.157,34.449 C181.848,34.780 181.349,34.783 181.035,34.458 L178.370,31.604 C178.295,31.524 178.236,31.428 178.195,31.322 C178.165,31.242 178.156,31.157 178.149,31.073 C178.146,31.046 178.134,31.023 178.134,30.996 C178.134,30.967 178.147,30.942 178.150,30.914 C178.157,30.831 178.166,30.748 178.195,30.670 C178.237,30.563 178.296,30.467 178.372,30.387 L181.035,27.533 C181.351,27.219 181.842,27.228 182.146,27.554 C182.451,27.880 182.460,28.406 182.166,28.744 L180.865,30.138 L191.135,30.138 L189.834,28.744 C189.531,28.408 189.536,27.873 189.844,27.543 C190.153,27.213 190.652,27.207 190.966,27.533 L193.632,30.391 C193.945,30.725 193.945,31.267 193.632,31.602 L190.966,34.458 ZM176.800,36.996 C176.358,36.996 176.001,36.612 176.001,36.139 L176.001,25.853 C176.001,25.380 176.358,24.996 176.800,24.996 C177.242,24.996 177.600,25.380 177.600,25.853 L177.600,36.139 C177.600,36.612 177.242,36.996 176.800,36.996 Z"/>
<path fill-rule="evenodd"  fill="rgb(255, 255, 255)"
 d="M242.757,74.720 C241.998,74.720 241.361,74.449 240.847,73.883 C240.333,73.342 240.064,72.628 240.088,71.890 C240.088,71.127 240.333,70.487 240.847,69.970 C241.361,69.454 241.998,69.207 242.757,69.207 C243.516,69.207 244.177,69.454 244.740,69.970 C245.303,70.487 245.572,71.127 245.572,71.890 C245.572,72.653 245.303,73.317 244.740,73.883 C244.226,74.425 243.516,74.745 242.757,74.720 L242.757,74.720 ZM242.757,63.695 C241.998,63.695 241.361,63.449 240.847,62.932 C240.333,62.415 240.088,61.775 240.088,61.012 C240.088,60.249 240.333,59.609 240.847,59.093 C241.361,58.576 241.998,58.330 242.757,58.330 C243.516,58.330 244.177,58.576 244.740,59.093 C245.303,59.609 245.572,60.249 245.572,61.012 C245.572,61.775 245.303,62.415 244.740,62.932 C244.202,63.449 243.492,63.719 242.757,63.695 L242.757,63.695 ZM242.757,52.817 C241.998,52.817 241.361,52.571 240.847,52.054 C240.333,51.537 240.088,50.897 240.088,50.134 C240.088,49.372 240.333,48.707 240.847,48.141 C241.337,47.599 242.022,47.280 242.757,47.304 C243.516,47.304 244.177,47.575 244.740,48.141 C245.303,48.707 245.572,49.372 245.572,50.134 C245.572,50.897 245.303,51.537 244.740,52.054 C244.202,52.546 243.492,52.817 242.757,52.817 L242.757,52.817 ZM253.726,62.415 C252.795,62.415 252.331,61.947 252.331,61.012 C252.331,60.077 252.795,59.609 253.726,59.609 C254.583,59.609 254.999,60.077 254.999,61.012 C254.999,61.947 254.583,62.415 253.726,62.415 L253.726,62.415 ZM253.726,51.390 C252.795,51.390 252.331,50.971 252.331,50.110 C252.331,49.175 252.795,48.707 253.726,48.707 C254.583,48.707 254.999,49.175 254.999,50.110 C254.999,50.971 254.583,51.390 253.726,51.390 L253.726,51.390 ZM253.726,73.317 C252.795,73.317 252.331,72.850 252.331,71.914 C252.331,71.053 252.795,70.635 253.726,70.635 C254.583,70.635 254.999,71.053 254.999,71.914 C254.999,72.850 254.583,73.317 253.726,73.317 L253.726,73.317 ZM231.935,74.720 C231.176,74.720 230.540,74.449 230.025,73.883 C229.511,73.342 229.242,72.628 229.266,71.890 C229.266,71.127 229.511,70.487 230.025,69.970 C230.540,69.454 231.176,69.207 231.935,69.207 C232.694,69.207 233.330,69.454 233.845,69.970 C234.359,70.487 234.604,71.127 234.604,71.890 C234.604,72.653 234.359,73.317 233.845,73.883 C233.355,74.449 232.645,74.745 231.935,74.720 L231.935,74.720 ZM221.088,65.122 C220.011,65.147 218.983,64.728 218.223,63.965 C217.416,63.202 217.000,62.218 217.000,61.012 C217.000,59.806 217.416,58.822 218.223,58.059 C218.983,57.296 220.011,56.902 221.088,56.902 C222.166,56.902 223.194,57.321 223.953,58.059 C224.761,58.822 225.153,59.806 225.153,61.012 C225.153,62.218 224.761,63.202 223.953,63.965 C223.194,64.704 222.166,65.122 221.088,65.122 L221.088,65.122 ZM221.088,54.220 C219.986,54.220 219.031,53.801 218.223,52.989 C217.416,52.177 217.000,51.217 217.000,50.110 C217.000,49.002 217.416,48.042 218.223,47.230 C219.031,46.418 219.986,46.000 221.088,46.000 C222.190,46.000 223.145,46.418 223.953,47.230 C224.761,48.042 225.153,49.002 225.153,50.110 C225.153,51.217 224.761,52.177 223.953,52.989 C223.145,53.801 222.190,54.220 221.088,54.220 L221.088,54.220 ZM231.935,52.817 C231.176,52.817 230.540,52.571 230.025,52.054 C229.511,51.537 229.266,50.897 229.266,50.134 C229.266,49.372 229.511,48.707 230.025,48.141 C230.515,47.599 231.200,47.280 231.935,47.304 C232.694,47.304 233.330,47.575 233.845,48.141 C234.359,48.707 234.604,49.372 234.604,50.134 C234.604,50.897 234.359,51.537 233.845,52.054 C233.330,52.546 232.694,52.817 231.935,52.817 L231.935,52.817 ZM231.935,63.695 C231.176,63.695 230.540,63.449 230.025,62.932 C229.511,62.415 229.266,61.775 229.266,61.012 C229.266,60.249 229.511,59.609 230.025,59.093 C230.540,58.576 231.176,58.330 231.935,58.330 C232.694,58.330 233.330,58.576 233.845,59.093 C234.359,59.609 234.604,60.249 234.604,61.012 C234.604,61.775 234.359,62.415 233.845,62.932 C233.330,63.449 232.694,63.695 231.935,63.695 L231.935,63.695 ZM221.088,76.000 C219.986,76.000 219.031,75.606 218.223,74.794 C217.416,73.982 217.000,73.022 217.000,71.914 C217.000,70.807 217.416,69.847 218.223,69.035 C219.031,68.223 219.986,67.829 221.088,67.829 C222.190,67.829 223.145,68.223 223.953,69.035 C224.761,69.847 225.153,70.807 225.153,71.914 C225.153,73.022 224.761,73.982 223.953,74.794 C223.145,75.606 222.190,76.000 221.088,76.000 L221.088,76.000 Z"/>
</svg>
