<svg width="24" height="24" viewBox="0 0 24 24" fill="none" xmlns="http://www.w3.org/2000/svg">
<g id="&#229;&#164;&#141;&#233;&#128;&#137;&#230;&#161;&#134;-&#233;&#128;&#137;&#228;&#184;&#173;">
<path id="Vector" d="M10.8333 15.5L16.7083 9.625L15.5417 8.45833L10.8333 13.1667L8.45833 10.7917L7.29167 11.9583L10.8333 15.5ZM6.16667 19.5C5.70833 19.5 5.31597 19.3368 4.98958 19.0104C4.66319 18.684 4.5 18.2917 4.5 17.8333V6.16667C4.5 5.70833 4.66319 5.31597 4.98958 4.98958C5.31597 4.66319 5.70833 4.5 6.16667 4.5H17.8333C18.2917 4.5 18.684 4.66319 19.0104 4.98958C19.3368 5.31597 19.5 5.70833 19.5 6.16667V17.8333C19.5 18.2917 19.3368 18.684 19.0104 19.0104C18.684 19.3368 18.2917 19.5 17.8333 19.5H6.16667Z" fill="#1FCA63"/>
</g>
</svg>
