<svg 
 xmlns="http://www.w3.org/2000/svg"
 xmlns:xlink="http://www.w3.org/1999/xlink"
 width="13px" height="13px">
<path fill-rule="evenodd"  fill="none"
 d="M-0.000,-0.000 L13.000,-0.000 L13.000,13.000 L-0.000,13.000 L-0.000,-0.000 Z"/>
<path fill-rule="evenodd"  fill="rgb(23, 204, 95)"
 d="M5.057,11.000 C4.851,11.000 4.653,10.923 4.504,10.783 L0.246,6.816 C-0.072,6.520 -0.083,6.027 0.221,5.716 C0.526,5.406 1.033,5.396 1.352,5.693 L4.988,9.081 L11.582,1.284 C11.863,0.952 12.367,0.904 12.708,1.177 C13.049,1.450 13.098,1.940 12.818,2.272 L5.676,10.717 C5.534,10.885 5.327,10.987 5.106,11.000 L5.057,11.000 Z"/>
</svg>
