<svg 
 xmlns="http://www.w3.org/2000/svg"
 xmlns:xlink="http://www.w3.org/1999/xlink"
 width="19px" height="16px">
<path fill-rule="evenodd"  fill="none"
 d="M-0.000,-0.000 L19.000,-0.000 L19.000,16.000 L-0.000,16.000 L-0.000,-0.000 Z"/>
<path fill-rule="evenodd"  fill="rgb(51, 51, 51)"
 d="M13.400,4.800 L11.012,4.800 C10.571,4.800 10.212,5.158 10.212,5.600 C10.212,6.042 10.571,6.400 11.012,6.400 L12.599,6.400 L12.599,14.400 L4.599,14.400 L4.599,6.400 L6.462,6.400 C6.903,6.400 7.262,6.042 7.262,5.600 C7.262,5.158 6.903,4.800 6.462,4.800 L3.799,4.800 C3.357,4.800 2.999,5.158 2.999,5.600 L2.999,15.200 C2.999,15.412 3.083,15.615 3.233,15.765 C3.383,15.915 3.587,16.000 3.799,16.000 L13.400,16.000 C13.841,16.000 14.199,15.642 14.200,15.200 L14.200,5.600 C14.199,5.158 13.841,4.800 13.400,4.800 L13.400,4.800 ZM18.199,-0.000 L8.599,-0.000 C8.157,-0.000 7.799,0.358 7.799,0.800 L7.799,10.400 C7.799,10.612 7.883,10.815 8.033,10.965 C8.183,11.115 8.387,11.200 8.599,11.200 L11.161,11.200 C11.604,11.200 11.962,10.842 11.962,10.401 C11.963,9.959 11.605,9.600 11.163,9.600 L9.399,9.600 L9.399,1.600 L17.399,1.600 L17.399,9.600 L15.736,9.600 C15.295,9.599 14.937,9.957 14.936,10.399 C14.936,10.841 15.293,11.199 15.736,11.200 L18.200,11.200 C18.641,11.199 19.000,10.841 19.000,10.400 L19.000,0.800 C19.000,0.588 18.914,0.384 18.765,0.234 C18.615,0.084 18.412,-0.000 18.199,-0.000 L18.199,-0.000 Z"/>
</svg>
