<svg 
 xmlns="http://www.w3.org/2000/svg"
 xmlns:xlink="http://www.w3.org/1999/xlink"
 width="14px" height="14px">
<path fill-rule="evenodd"  fill="rgb(255, 255, 255)"
 d="M13.447,1.634 L10.458,1.634 L10.458,0.467 C10.458,0.343 10.406,0.224 10.312,0.136 C10.219,0.049 10.092,-0.001 9.960,-0.000 L3.985,-0.000 C3.853,-0.001 3.726,0.049 3.633,0.136 C3.539,0.224 3.487,0.343 3.487,0.467 L3.487,1.634 L0.498,1.634 C0.223,1.634 -0.000,1.843 -0.000,2.101 C-0.000,2.358 0.223,2.567 0.498,2.567 L1.024,2.567 L2.235,12.756 C2.321,13.464 2.959,14.000 3.719,14.000 L10.225,14.000 C10.986,14.000 11.624,13.465 11.710,12.756 L12.921,2.567 L13.446,2.567 C13.630,2.575 13.803,2.488 13.898,2.341 C13.992,2.193 13.992,2.008 13.898,1.861 C13.803,1.713 13.630,1.626 13.446,1.634 L13.447,1.634 ZM4.484,0.933 L9.462,0.933 L8.980,2.000 L4.989,2.000 L4.482,0.933 L4.484,0.933 ZM10.720,12.653 C10.691,12.889 10.479,13.067 10.226,13.068 L3.718,13.068 C3.465,13.067 3.252,12.888 3.224,12.652 L1.996,3.000 L11.973,3.000 L10.720,12.654 L10.720,12.653 ZM8.467,11.506 C8.599,11.506 8.725,11.457 8.819,11.369 C8.912,11.282 8.964,11.163 8.964,11.039 L8.964,4.188 C8.964,3.930 8.741,3.721 8.466,3.721 C8.191,3.721 7.968,3.930 7.968,4.188 L7.968,11.039 C7.968,11.297 8.191,11.506 8.467,11.506 L8.467,11.506 ZM5.728,11.506 C5.860,11.506 5.987,11.457 6.080,11.370 C6.174,11.282 6.226,11.163 6.226,11.039 L6.226,4.188 C6.226,3.930 6.003,3.721 5.728,3.721 C5.453,3.721 5.230,3.930 5.230,4.188 L5.230,11.039 C5.230,11.297 5.453,11.506 5.728,11.506 L5.728,11.506 Z"/>
</svg>
