<svg 
 xmlns="http://www.w3.org/2000/svg"
 xmlns:xlink="http://www.w3.org/1999/xlink"
 width="302px" height="149px">
<path fill-rule="evenodd"  fill="none"
 d="M-0.002,-0.001 L299.998,-0.001 L299.998,146.999 L-0.002,146.999 L-0.002,-0.001 Z"/>
<path fill-rule="evenodd"  fill="rgb(127, 127, 127)"
 d="M220.000,119.000 L80.000,119.000 C74.477,119.000 69.999,114.522 69.999,109.000 L69.999,39.000 C69.999,33.477 74.477,29.000 80.000,29.000 L220.000,29.000 C225.522,29.000 230.000,33.477 230.000,39.000 L230.000,109.000 C230.000,114.522 225.522,119.000 220.000,119.000 ZM221.000,38.000 C221.000,38.000 202.230,35.000 178.088,35.000 C154.903,35.000 148.376,38.000 134.114,38.000 C97.607,38.000 79.000,38.000 79.000,38.000 L79.000,110.000 L221.000,110.000 L221.000,38.000 Z"/>
<path fill-rule="evenodd"  stroke="rgb(23, 204, 95)" stroke-width="4px" stroke-linecap="butt" stroke-linejoin="miter" fill="none"
 d="M80.000,29.000 L220.000,29.000 C225.522,29.000 230.000,33.477 230.000,39.000 L230.000,109.000 C230.000,114.522 225.522,119.000 220.000,119.000 L80.000,119.000 C74.477,119.000 69.999,114.522 69.999,109.000 L69.999,39.000 C69.999,33.477 74.477,29.000 80.000,29.000 Z"/>
<path fill-rule="evenodd"  stroke="rgb(23, 204, 95)" stroke-width="4px" stroke-linecap="round" stroke-linejoin="miter" fill="none"
 d="M224.999,39.000 L224.999,109.000 C224.999,111.761 222.761,114.000 220.000,114.000 L80.000,114.000 C77.238,114.000 74.999,111.761 74.999,109.000 L74.999,39.000 C74.999,36.238 77.238,34.000 80.000,34.000 L137.350,34.000 "/>
<path fill-rule="evenodd"  stroke="rgb(127, 127, 127)" stroke-width="2px" stroke-linecap="butt" stroke-linejoin="miter" fill="none"
 d="M81.000,107.000 L81.000,101.000 L86.000,107.000 L88.000,107.000 L81.000,99.000 L81.000,91.000 L94.999,107.000 L96.999,107.000 L81.000,89.000 L81.000,81.000 L104.000,107.000 L105.999,107.000 L81.000,79.000 L81.000,71.000 L114.000,107.000 L116.000,107.000 L81.000,69.000 L81.000,61.000 L123.999,107.000 L126.000,107.000 L81.000,59.000 L81.000,51.000 L134.000,107.000 L136.000,107.000 L81.000,49.000 L81.000,41.000 L143.999,107.000 L145.999,107.000 L81.000,39.000 L89.000,39.000 L153.999,107.000 L156.000,107.000 L91.000,39.000 L98.999,39.000 L164.000,107.000 L165.999,107.000 L101.000,39.000 L109.000,39.000 L174.000,107.000 L175.999,107.000 L111.000,39.000 L118.999,39.000 L184.000,107.000 L186.000,107.000 L120.999,39.000 L128.999,39.000 L193.999,107.000 L196.000,107.000 L130.999,39.000 L139.000,39.000 L204.000,107.000 L206.000,107.000 L140.999,39.000 L149.000,39.000 L213.999,107.000 L215.999,107.000 L151.000,39.000 L159.000,39.000 L217.999,101.000 L217.999,99.000 L161.000,39.000 L168.999,39.000 L217.999,91.000 L217.999,89.000 L170.999,39.000 L178.999,39.000 L217.999,81.000 L217.999,79.000 L181.000,39.000 L188.999,39.000 L217.999,71.000 L217.999,69.000 L190.999,39.000 L199.000,39.000 L217.999,61.000 L217.999,59.000 L200.999,39.000 L209.000,39.000 L217.999,51.000 L217.999,49.000 L211.000,39.000 L216.999,39.000 L220.000,43.000 "/>
<path fill-rule="evenodd"  fill="rgb(255, 255, 255)"
 d="M253.141,73.298 C252.967,73.732 252.501,73.946 252.102,73.775 L185.232,38.044 L185.808,39.597 C185.950,40.021 185.748,40.500 185.353,40.681 C184.957,40.863 184.510,40.681 184.340,40.271 L182.982,36.618 C182.944,36.516 182.926,36.405 182.928,36.292 C182.929,36.203 182.952,36.116 182.979,36.032 C182.986,36.011 182.984,35.989 182.992,35.969 C182.999,35.950 183.014,35.939 183.022,35.921 C183.061,35.839 183.106,35.759 183.168,35.692 C183.245,35.611 183.333,35.546 183.430,35.502 L186.891,33.912 C187.294,33.735 187.744,33.932 187.901,34.355 C188.059,34.778 187.866,35.271 187.468,35.462 L185.592,36.324 L252.734,72.200 C253.134,72.371 253.316,72.862 253.141,73.298 Z"/>
</svg>
