<svg 
 xmlns="http://www.w3.org/2000/svg"
 xmlns:xlink="http://www.w3.org/1999/xlink"
 width="300.5px" height="147.5px">
<path fill-rule="evenodd"  fill="none"
 d="M-0.003,-0.001 L299.998,-0.001 L299.998,146.999 L-0.003,146.999 L-0.003,-0.001 Z"/>
<path fill-rule="evenodd"  fill="rgb(23, 204, 95)"
 d="M110.998,102.999 L129.360,102.999 C132.121,102.999 134.360,105.238 134.360,107.999 L134.360,107.999 C134.360,110.761 132.121,112.999 129.360,112.999 L110.998,112.999 C108.236,112.999 105.997,110.761 105.997,107.999 L105.997,107.999 C105.997,105.238 108.236,102.999 110.998,102.999 Z"/>
<path fill-rule="evenodd"  fill="rgb(16, 142, 66)"
 d="M110.782,108.998 L129.568,108.998 C133.486,108.998 133.562,105.243 133.562,105.243 C133.562,105.243 134.354,106.980 134.354,107.998 C134.354,110.760 132.211,112.999 129.568,112.999 L110.782,112.999 C108.140,112.999 105.997,110.760 105.997,107.998 C105.997,106.917 106.885,105.097 106.885,105.097 C106.885,105.097 107.037,108.998 110.782,108.998 Z"/>
<path fill-rule="evenodd"  fill="rgb(23, 204, 95)"
 d="M110.998,92.999 L129.360,92.999 C132.121,92.999 134.360,95.238 134.360,97.999 L134.360,97.999 C134.360,100.761 132.121,102.999 129.360,102.999 L110.998,102.999 C108.236,102.999 105.997,100.761 105.997,97.999 L105.997,97.999 C105.997,95.238 108.236,92.999 110.998,92.999 Z"/>
<path fill-rule="evenodd"  fill="rgb(16, 142, 66)"
 d="M110.782,98.998 L129.568,98.998 C133.486,98.998 133.562,95.243 133.562,95.243 C133.562,95.243 134.354,96.980 134.354,97.998 C134.354,100.760 132.211,102.999 129.568,102.999 L110.782,102.999 C108.140,102.999 105.997,100.760 105.997,97.998 C105.997,96.917 106.885,95.097 106.885,95.097 C106.885,95.097 107.037,98.998 110.782,98.998 Z"/>
<path fill-rule="evenodd"  fill="rgb(23, 204, 95)"
 d="M110.998,82.999 L129.360,82.999 C132.121,82.999 134.360,85.238 134.360,87.999 L134.360,87.999 C134.360,90.761 132.121,92.999 129.360,92.999 L110.998,92.999 C108.236,92.999 105.997,90.761 105.997,87.999 L105.997,87.999 C105.997,85.238 108.236,82.999 110.998,82.999 Z"/>
<path fill-rule="evenodd"  fill="rgb(16, 142, 66)"
 d="M110.782,88.998 L129.568,88.998 C133.486,88.998 133.562,85.243 133.562,85.243 C133.562,85.243 134.354,86.980 134.354,87.998 C134.354,90.760 132.211,92.999 129.568,92.999 L110.782,92.999 C108.140,92.999 105.997,90.760 105.997,87.998 C105.997,86.917 106.885,85.097 106.885,85.097 C106.885,85.097 107.037,88.998 110.782,88.998 Z"/>
<path fill-rule="evenodd"  fill="rgb(23, 204, 95)"
 d="M110.998,72.999 L129.360,72.999 C132.121,72.999 134.360,75.238 134.360,77.999 L134.360,77.999 C134.360,80.761 132.121,82.999 129.360,82.999 L110.998,82.999 C108.236,82.999 105.997,80.761 105.997,77.999 L105.997,77.999 C105.997,75.238 108.236,72.999 110.998,72.999 Z"/>
<path fill-rule="evenodd"  fill="rgb(16, 142, 66)"
 d="M110.782,78.998 L129.568,78.998 C133.486,78.998 133.562,75.243 133.562,75.243 C133.562,75.243 134.354,76.980 134.354,77.998 C134.354,80.760 132.211,82.999 129.568,82.999 L110.782,82.999 C108.140,82.999 105.997,80.760 105.997,77.998 C105.997,76.917 106.885,75.097 106.885,75.097 C106.885,75.097 107.037,78.998 110.782,78.998 Z"/>
<path fill-rule="evenodd"  fill="rgb(255, 222, 0)"
 d="M113.998,62.999 L136.360,62.999 C139.121,62.999 141.360,65.238 141.360,68.000 L141.360,68.000 C141.360,70.761 139.121,72.999 136.360,72.999 L113.998,72.999 C111.236,72.999 108.998,70.761 108.998,68.000 L108.998,68.000 C108.998,65.238 111.236,62.999 113.998,62.999 Z"/>
<path fill-rule="evenodd"  fill="rgb(128, 118, 54)"
 d="M113.782,68.998 L136.569,68.998 C140.486,68.998 140.562,65.243 140.562,65.243 C140.562,65.243 141.354,66.980 141.354,67.999 C141.354,70.760 139.211,72.999 136.569,72.999 L113.782,72.999 C111.140,72.999 108.997,70.760 108.997,67.999 C108.997,66.917 109.885,65.097 109.885,65.097 C109.885,65.097 110.037,68.998 113.782,68.998 Z"/>
<path fill-rule="evenodd"  fill="rgb(23, 204, 95)"
 d="M110.998,62.999 L129.360,62.999 C132.121,62.999 134.360,65.238 134.360,67.999 L134.360,68.000 C134.360,70.761 132.121,72.999 129.360,72.999 L110.998,72.999 C108.236,72.999 105.997,70.761 105.997,68.000 L105.997,67.999 C105.997,65.238 108.236,62.999 110.998,62.999 Z"/>
<path fill-rule="evenodd"  fill="rgb(16, 142, 66)"
 d="M110.782,68.998 L129.568,68.998 C133.486,68.998 133.562,65.243 133.562,65.243 C133.562,65.243 134.354,66.980 134.354,67.999 C134.354,70.760 132.211,72.999 129.568,72.999 L110.782,72.999 C108.140,72.999 105.997,70.760 105.997,67.999 C105.997,66.917 106.885,65.097 106.885,65.097 C106.885,65.097 107.037,68.998 110.782,68.998 Z"/>
<path fill-rule="evenodd"  stroke="rgb(153, 153, 153)" stroke-width="1px" stroke-dasharray="4, 2" stroke-linecap="butt" stroke-linejoin="miter" fill="none"
 d="M133.999,86.000 L133.999,46.000 "/>
<path fill-rule="evenodd"  stroke="rgb(153, 153, 153)" stroke-width="1px" stroke-dasharray="4, 2" stroke-linecap="butt" stroke-linejoin="miter" fill="none"
 d="M163.999,86.000 L163.999,46.000 "/>
<path fill-rule="evenodd"  fill="rgb(102, 102, 102)"
 d="M164.200,40.996 C163.758,40.996 163.400,40.611 163.400,40.139 L163.400,29.853 C163.400,29.379 163.758,28.996 164.200,28.996 C164.642,28.996 165.000,29.379 165.000,29.853 L165.000,40.139 C165.000,40.611 164.642,40.996 164.200,40.996 ZM159.966,38.458 C159.651,38.773 159.159,38.764 158.855,38.437 C158.550,38.111 158.541,37.584 158.835,37.247 L160.135,35.853 L138.866,35.853 L140.166,37.247 C140.469,37.584 140.464,38.119 140.156,38.449 C139.848,38.779 139.349,38.783 139.034,38.458 L136.369,35.603 C136.294,35.524 136.235,35.428 136.194,35.321 C136.171,35.259 136.168,35.193 136.158,35.128 C136.151,35.083 136.133,35.043 136.133,34.995 C136.133,34.947 136.152,34.906 136.159,34.860 C136.168,34.796 136.171,34.731 136.195,34.670 C136.236,34.563 136.295,34.467 136.371,34.387 L139.034,31.532 C139.350,31.219 139.841,31.228 140.145,31.554 C140.450,31.880 140.459,32.406 140.165,32.744 L138.865,34.138 L160.135,34.138 L158.833,32.744 C158.531,32.408 158.535,31.873 158.844,31.543 C159.153,31.212 159.652,31.207 159.966,31.532 L162.632,34.390 C162.944,34.724 162.944,35.266 162.632,35.602 L159.966,38.458 ZM134.799,40.996 C134.358,40.996 134.000,40.611 134.000,40.139 L134.000,29.853 C134.000,29.379 134.358,28.996 134.799,28.996 C135.242,28.996 135.600,29.379 135.600,29.853 L135.600,40.139 C135.600,40.611 135.242,40.996 134.799,40.996 Z"/>
</svg>
