<svg 
 xmlns="http://www.w3.org/2000/svg"
 xmlns:xlink="http://www.w3.org/1999/xlink"
 width="302px" height="149px">
<path fill-rule="evenodd"  fill="none"
 d="M-0.002,-0.001 L299.998,-0.001 L299.998,146.999 L-0.002,146.999 L-0.002,-0.001 Z"/>
<path fill-rule="evenodd"  fill="rgb(127, 127, 127)"
 d="M219.999,119.000 L79.999,119.000 C74.476,119.000 69.999,114.522 69.999,109.000 L69.999,39.000 C69.999,33.477 74.476,29.000 79.999,29.000 L219.999,29.000 C225.522,29.000 230.000,33.477 230.000,39.000 L230.000,109.000 C230.000,114.522 225.522,119.000 219.999,119.000 ZM220.999,38.000 C220.999,38.000 202.230,35.000 178.087,35.000 C154.903,35.000 148.375,38.000 134.114,38.000 C97.607,38.000 79.000,38.000 79.000,38.000 L79.000,110.000 L220.999,110.000 L220.999,38.000 Z"/>
<path fill-rule="evenodd"  stroke="rgb(23, 204, 95)" stroke-width="4px" stroke-linecap="butt" stroke-linejoin="miter" fill="none"
 d="M79.999,29.000 L219.999,29.000 C225.522,29.000 230.000,33.477 230.000,39.000 L230.000,109.000 C230.000,114.522 225.522,119.000 219.999,119.000 L79.999,119.000 C74.476,119.000 69.999,114.522 69.999,109.000 L69.999,39.000 C69.999,33.477 74.476,29.000 79.999,29.000 Z"/>
<path fill-rule="evenodd"  stroke="rgb(23, 204, 95)" stroke-width="4px" stroke-linecap="round" stroke-linejoin="miter" fill="none"
 d="M224.999,39.000 L224.999,109.000 C224.999,111.761 222.761,114.000 219.999,114.000 L79.999,114.000 C77.238,114.000 74.999,111.761 74.999,109.000 L74.999,39.000 C74.999,36.238 77.238,34.000 79.999,34.000 L137.350,34.000 "/>
<path fill-rule="evenodd"  stroke="rgb(127, 127, 127)" stroke-width="2px" stroke-linecap="butt" stroke-linejoin="miter" fill="none"
 d="M80.999,107.000 L80.999,101.000 L86.000,107.000 L88.000,107.000 L80.999,99.000 L80.999,91.000 L94.999,107.000 L96.999,107.000 L80.999,89.000 L80.999,81.000 L103.999,107.000 L105.999,107.000 L80.999,79.000 L80.999,71.000 L113.999,107.000 L115.999,107.000 L80.999,69.000 L80.999,61.000 L123.999,107.000 L126.000,107.000 L80.999,59.000 L80.999,51.000 L134.000,107.000 L136.000,107.000 L80.999,49.000 L80.999,41.000 L143.999,107.000 L145.999,107.000 L80.999,39.000 L88.999,39.000 L153.999,107.000 L155.999,107.000 L90.999,39.000 L98.999,39.000 L163.999,107.000 L165.999,107.000 L100.999,39.000 L108.999,39.000 L173.999,107.000 L175.999,107.000 L110.999,39.000 L118.999,39.000 L183.999,107.000 L185.999,107.000 L120.999,39.000 L128.999,39.000 L193.999,107.000 L195.999,107.000 L130.999,39.000 L138.999,39.000 L204.000,107.000 L205.999,107.000 L140.999,39.000 L148.999,39.000 L213.999,107.000 L215.999,107.000 L150.999,39.000 L159.000,39.000 L217.999,101.000 L217.999,99.000 L160.999,39.000 L168.999,39.000 L217.999,91.000 L217.999,89.000 L170.999,39.000 L178.999,39.000 L217.999,81.000 L217.999,79.000 L181.000,39.000 L188.999,39.000 L217.999,71.000 L217.999,69.000 L190.999,39.000 L198.999,39.000 L217.999,61.000 L217.999,59.000 L200.999,39.000 L209.000,39.000 L217.999,51.000 L217.999,49.000 L211.000,39.000 L216.999,39.000 L219.999,43.000 "/>
<path fill-rule="evenodd"  fill="rgb(51, 51, 51)"
 d="M253.140,73.298 C252.967,73.732 252.501,73.946 252.102,73.775 L185.231,38.043 L185.808,39.597 C185.949,40.021 185.748,40.500 185.352,40.681 C184.957,40.863 184.510,40.681 184.340,40.271 L182.981,36.617 C182.943,36.515 182.925,36.405 182.927,36.292 C182.929,36.200 182.952,36.111 182.981,36.024 C182.987,36.006 182.985,35.987 182.992,35.969 C182.999,35.952 183.012,35.942 183.019,35.926 C183.059,35.842 183.105,35.760 183.168,35.692 C183.244,35.611 183.333,35.546 183.430,35.502 L186.891,33.912 C187.294,33.735 187.744,33.932 187.901,34.355 C188.059,34.778 187.865,35.271 187.468,35.462 L185.592,36.324 L252.734,72.200 C253.133,72.371 253.315,72.862 253.140,73.298 Z"/>
</svg>
