<svg 
 xmlns="http://www.w3.org/2000/svg"
 xmlns:xlink="http://www.w3.org/1999/xlink"
 width="24px" height="16px">
<path fill-rule="evenodd"  fill="rgb(255, 255, 255)"
 d="M16.020,16.000 C14.556,16.000 13.176,15.592 12.000,14.901 C10.812,15.603 9.432,16.000 7.968,16.000 C3.564,16.000 -0.000,12.419 -0.000,8.000 C-0.000,3.581 3.564,-0.000 7.968,-0.000 C9.444,-0.000 10.812,0.408 12.000,1.099 C13.176,0.397 14.556,-0.000 16.020,-0.000 C20.424,-0.000 24.000,3.581 24.000,8.000 C24.000,12.419 20.424,16.000 16.020,16.000 ZM7.968,15.003 C9.084,15.003 10.140,14.742 11.076,14.266 C10.704,13.972 10.368,13.654 10.056,13.303 L7.212,14.957 C7.464,14.991 7.716,15.003 7.968,15.003 ZM5.712,14.629 L9.408,12.476 C9.036,11.921 8.724,11.309 8.496,10.651 L3.624,13.484 C4.248,13.972 4.944,14.368 5.712,14.629 ZM2.844,12.748 L8.220,9.620 C8.112,9.099 8.052,8.555 8.052,8.000 C8.052,7.773 8.064,7.547 8.076,7.331 L1.692,11.059 C1.992,11.683 2.388,12.249 2.844,12.748 ZM7.968,0.997 C4.596,0.997 1.776,3.411 1.140,6.606 L10.164,1.348 C9.468,1.122 8.736,0.997 7.968,0.997 ZM0.996,7.887 L0.996,8.000 C0.996,8.725 1.104,9.428 1.308,10.085 L8.304,6.017 C8.640,4.680 9.312,3.490 10.224,2.515 L0.996,7.887 ZM16.000,1.000 C12.134,1.000 9.000,4.134 9.000,8.000 C9.000,11.866 12.134,15.000 16.000,15.000 C19.866,15.000 23.000,11.866 23.000,8.000 C23.000,4.134 19.866,1.000 16.000,1.000 Z"/>
</svg>
