<svg 
 xmlns="http://www.w3.org/2000/svg"
 xmlns:xlink="http://www.w3.org/1999/xlink"
 width="300.5px" height="147.5px">
<path fill-rule="evenodd"  fill="none"
 d="M-0.002,-0.001 L299.998,-0.001 L299.998,146.999 L-0.002,146.999 L-0.002,-0.001 Z"/>
<path fill-rule="evenodd"  stroke="rgb(23, 204, 95)" stroke-width="1px" stroke-linecap="butt" stroke-linejoin="miter" fill="rgb(127, 127, 127)"
 d="M203.010,107.749 C205.148,106.600 206.162,104.606 205.968,102.724 C206.176,100.730 205.148,98.847 203.010,97.698 L156.921,73.028 C154.880,71.878 152.436,71.353 149.993,71.353 C147.548,71.353 145.089,71.878 143.048,73.028 L96.961,97.601 C94.822,98.750 93.905,100.744 94.002,102.626 C93.905,104.620 94.822,106.600 96.961,107.749 L143.048,132.336 C145.089,133.485 147.534,134.011 149.993,134.011 C152.436,134.011 154.880,133.485 156.921,132.336 L203.010,107.749 Z"/>
<path fill-rule="evenodd"  fill="rgb(98, 98, 98)"
 d="M203.010,104.420 C205.148,103.271 206.162,101.277 205.968,99.395 C206.176,97.401 205.148,95.518 203.010,94.369 L156.921,69.699 C154.880,68.549 152.436,68.024 149.993,68.024 C147.548,68.024 145.089,68.549 143.048,69.699 L96.961,94.272 C94.822,95.421 93.905,97.415 94.002,99.297 C93.905,101.291 94.822,103.271 96.961,104.420 L143.048,129.007 C145.089,130.156 147.534,130.682 149.993,130.682 C152.436,130.682 154.880,130.156 156.921,129.007 L203.010,104.420 Z"/>
<path fill-rule="evenodd"  fill="rgb(127, 127, 127)"
 d="M203.010,103.154 C205.148,102.005 206.162,100.011 205.968,98.129 C206.176,96.135 205.148,94.252 203.010,93.103 L156.921,68.433 C154.880,67.284 152.436,66.758 149.993,66.758 C147.548,66.758 145.089,67.284 143.048,68.433 L96.961,93.006 C94.822,94.156 93.905,96.149 94.002,98.031 C93.905,100.025 94.822,102.005 96.961,103.154 L143.048,127.741 C145.089,128.890 147.534,129.416 149.993,129.416 C152.436,129.416 154.880,128.890 156.921,127.741 L203.010,103.154 Z"/>
<path fill-rule="evenodd"  fill="rgb(98, 98, 98)"
 d="M203.010,99.420 C205.148,98.271 206.162,96.277 205.968,94.395 C206.176,92.401 205.148,90.518 203.010,89.369 L156.921,64.699 C154.880,63.550 152.436,63.024 149.993,63.024 C147.548,63.024 145.089,63.550 143.048,64.699 L96.961,89.272 C94.822,90.421 93.905,92.415 94.002,94.297 C93.905,96.291 94.822,98.271 96.961,99.420 L143.048,124.007 C145.089,125.156 147.534,125.682 149.993,125.682 C152.436,125.682 154.880,125.156 156.921,124.007 L203.010,99.420 Z"/>
<path fill-rule="evenodd"  fill="rgb(127, 127, 127)"
 d="M203.010,98.154 C205.148,97.005 206.162,95.011 205.968,93.129 C206.176,91.136 205.148,89.252 203.010,88.103 L156.921,63.433 C154.880,62.284 152.436,61.758 149.993,61.758 C147.548,61.758 145.089,62.284 143.048,63.433 L96.961,88.006 C94.822,89.155 93.905,91.149 94.002,93.032 C93.905,95.025 94.822,97.005 96.961,98.154 L143.048,122.741 C145.089,123.890 147.534,124.416 149.993,124.416 C152.436,124.416 154.880,123.890 156.921,122.741 L203.010,98.154 Z"/>
<path fill-rule="evenodd"  fill="rgb(98, 98, 98)"
 d="M203.010,94.420 C205.148,93.271 206.162,91.277 205.968,89.395 C206.176,87.401 205.148,85.518 203.010,84.369 L156.921,59.699 C154.880,58.550 152.436,58.024 149.993,58.024 C147.548,58.024 145.089,58.550 143.048,59.699 L96.961,84.272 C94.822,85.421 93.905,87.415 94.002,89.297 C93.905,91.291 94.822,93.271 96.961,94.420 L143.048,119.006 C145.089,120.156 147.534,120.682 149.993,120.682 C152.436,120.682 154.880,120.156 156.921,119.006 L203.010,94.420 Z"/>
<path fill-rule="evenodd"  fill="rgb(127, 127, 127)"
 d="M203.010,93.154 C205.148,92.005 206.162,90.011 205.968,88.129 C206.176,86.135 205.148,84.252 203.010,83.103 L156.921,58.433 C154.880,57.284 152.436,56.758 149.993,56.758 C147.548,56.758 145.089,57.284 143.048,58.433 L96.961,83.006 C94.822,84.155 93.905,86.149 94.002,88.032 C93.905,90.025 94.822,92.005 96.961,93.154 L143.048,117.741 C145.089,118.890 147.534,119.416 149.993,119.416 C152.436,119.416 154.880,118.890 156.921,117.741 L203.010,93.154 Z"/>
<path fill-rule="evenodd"  fill="rgb(98, 98, 98)"
 d="M203.010,89.420 C205.148,88.271 206.162,86.277 205.968,84.395 C206.176,82.401 205.148,80.518 203.010,79.369 L156.921,54.699 C154.880,53.550 152.436,53.023 149.993,53.023 C147.548,53.023 145.089,53.550 143.048,54.699 L96.961,79.272 C94.822,80.421 93.905,82.415 94.002,84.298 C93.905,86.291 94.822,88.271 96.961,89.420 L143.048,114.007 C145.089,115.156 147.534,115.682 149.993,115.682 C152.436,115.682 154.880,115.156 156.921,114.007 L203.010,89.420 Z"/>
<path fill-rule="evenodd"  fill="rgb(127, 127, 127)"
 d="M203.010,88.154 C205.148,87.005 206.162,85.012 205.968,83.129 C206.176,81.136 205.148,79.252 203.010,78.103 L156.921,53.433 C154.880,52.284 152.436,51.758 149.993,51.758 C147.548,51.758 145.089,52.284 143.048,53.433 L96.961,78.006 C94.822,79.155 93.905,81.149 94.002,83.032 C93.905,85.025 94.822,87.005 96.961,88.154 L143.048,112.741 C145.089,113.890 147.534,114.416 149.993,114.416 C152.436,114.416 154.880,113.890 156.921,112.741 L203.010,88.154 Z"/>
<path fill-rule="evenodd"  fill="rgb(98, 98, 98)"
 d="M203.010,84.420 C205.148,83.271 206.162,81.277 205.968,79.394 C206.176,77.401 205.148,75.518 203.010,74.369 L156.921,49.699 C154.880,48.549 152.436,48.024 149.993,48.024 C147.548,48.024 145.089,48.549 143.048,49.699 L96.961,74.272 C94.822,75.421 93.905,77.415 94.002,79.297 C93.905,81.291 94.822,83.271 96.961,84.420 L143.048,109.007 C145.089,110.156 147.534,110.682 149.993,110.682 C152.436,110.682 154.880,110.156 156.921,109.007 L203.010,84.420 Z"/>
<path fill-rule="evenodd"  fill="rgb(127, 127, 127)"
 d="M203.010,83.154 C205.148,82.005 206.162,80.011 205.968,78.129 C206.176,76.135 205.148,74.252 203.010,73.103 L156.921,48.433 C154.880,47.284 152.436,46.758 149.993,46.758 C147.548,46.758 145.089,47.284 143.048,48.433 L96.961,73.006 C94.822,74.155 93.905,76.149 94.002,78.031 C93.905,80.025 94.822,82.005 96.961,83.154 L143.048,107.741 C145.089,108.890 147.534,109.416 149.993,109.416 C152.436,109.416 154.880,108.890 156.921,107.741 L203.010,83.154 Z"/>
<path fill-rule="evenodd"  fill="rgb(98, 98, 98)"
 d="M203.010,79.420 C205.148,78.271 206.162,76.277 205.968,74.394 C206.176,72.401 205.148,70.518 203.010,69.368 L156.921,44.699 C154.880,43.549 152.436,43.024 149.993,43.024 C147.548,43.024 145.089,43.549 143.048,44.699 L96.961,69.272 C94.822,70.421 93.905,72.415 94.002,74.297 C93.905,76.291 94.822,78.271 96.961,79.420 L143.048,104.007 C145.089,105.156 147.534,105.682 149.993,105.682 C152.436,105.682 154.880,105.156 156.921,104.007 L203.010,79.420 Z"/>
<path fill-rule="evenodd"  fill="rgb(127, 127, 127)"
 d="M203.010,78.154 C205.148,77.005 206.162,75.011 205.968,73.129 C206.176,71.136 205.148,69.252 203.010,68.103 L156.921,43.433 C154.880,42.284 152.436,41.758 149.993,41.758 C147.548,41.758 145.089,42.284 143.048,43.433 L96.961,68.006 C94.822,69.156 93.905,71.149 94.002,73.032 C93.905,75.025 94.822,77.005 96.961,78.154 L143.048,102.741 C145.089,103.890 147.534,104.416 149.993,104.416 C152.436,104.416 154.880,103.890 156.921,102.741 L203.010,78.154 Z"/>
<path fill-rule="evenodd"  fill="rgb(98, 98, 98)"
 d="M203.010,74.420 C205.148,73.271 206.162,71.277 205.968,69.395 C206.176,67.401 205.148,65.518 203.010,64.369 L156.921,39.699 C154.880,38.550 152.436,38.024 149.993,38.024 C147.548,38.024 145.089,38.550 143.048,39.699 L96.961,64.272 C94.822,65.421 93.905,67.415 94.002,69.297 C93.905,71.291 94.822,73.271 96.961,74.420 L143.048,99.007 C145.089,100.156 147.534,100.682 149.993,100.682 C152.436,100.682 154.880,100.156 156.921,99.007 L203.010,74.420 Z"/>
<path fill-rule="evenodd"  fill="rgb(127, 127, 127)"
 d="M203.010,73.154 C205.148,72.005 206.162,70.011 205.968,68.129 C206.176,66.135 205.148,64.252 203.010,63.103 L156.921,38.433 C154.880,37.284 152.436,36.758 149.993,36.758 C147.548,36.758 145.089,37.284 143.048,38.433 L96.961,63.006 C94.822,64.155 93.905,66.149 94.002,68.031 C93.905,70.025 94.822,72.005 96.961,73.154 L143.048,97.741 C145.089,98.890 147.534,99.416 149.993,99.416 C152.436,99.416 154.880,98.890 156.921,97.741 L203.010,73.154 Z"/>
<path fill-rule="evenodd"  fill="rgb(98, 98, 98)"
 d="M203.010,69.420 C205.148,68.271 206.162,66.277 205.968,64.395 C206.176,62.401 205.148,60.518 203.010,59.369 L156.921,34.699 C154.880,33.550 152.436,33.024 149.993,33.024 C147.548,33.024 145.089,33.550 143.048,34.699 L96.961,59.272 C94.822,60.421 93.905,62.415 94.002,64.297 C93.905,66.291 94.822,68.271 96.961,69.420 L143.048,94.006 C145.089,95.156 147.534,95.682 149.993,95.682 C152.436,95.682 154.880,95.156 156.921,94.006 L203.010,69.420 Z"/>
<path fill-rule="evenodd"  fill="rgb(127, 127, 127)"
 d="M203.010,68.154 C205.148,67.005 206.162,65.012 205.968,63.129 C206.176,61.135 205.148,59.252 203.010,58.103 L156.921,33.433 C154.880,32.284 152.436,31.758 149.993,31.758 C147.548,31.758 145.089,32.284 143.048,33.433 L96.961,58.006 C94.822,59.155 93.905,61.149 94.002,63.031 C93.905,65.025 94.822,67.005 96.961,68.154 L143.048,92.741 C145.089,93.890 147.534,94.416 149.993,94.416 C152.436,94.416 154.880,93.890 156.921,92.741 L203.010,68.154 Z"/>
<path fill-rule="evenodd"  fill="rgb(98, 98, 98)"
 d="M203.010,64.420 C205.148,63.271 206.162,61.277 205.968,59.395 C206.176,57.401 205.148,55.518 203.010,54.369 L156.921,29.699 C154.880,28.550 152.436,28.024 149.993,28.024 C147.548,28.024 145.089,28.550 143.048,29.699 L96.961,54.272 C94.822,55.421 93.905,57.415 94.002,59.297 C93.905,61.291 94.822,63.271 96.961,64.420 L143.048,89.007 C145.089,90.156 147.534,90.682 149.993,90.682 C152.436,90.682 154.880,90.156 156.921,89.007 L203.010,64.420 Z"/>
<path fill-rule="evenodd"  fill="rgb(127, 127, 127)"
 d="M203.010,63.154 C205.148,62.005 206.162,60.012 205.968,58.129 C206.176,56.135 205.148,54.252 203.010,53.103 L156.921,28.433 C154.880,27.284 152.436,26.758 149.993,26.758 C147.548,26.758 145.089,27.284 143.048,28.433 L96.961,53.006 C94.822,54.155 93.905,56.149 94.002,58.032 C93.905,60.025 94.822,62.005 96.961,63.154 L143.048,87.741 C145.089,88.890 147.534,89.416 149.993,89.416 C152.436,89.416 154.880,88.890 156.921,87.741 L203.010,63.154 Z"/>
<path fill-rule="evenodd"  fill="rgb(98, 98, 98)"
 d="M203.010,59.420 C205.148,58.271 206.162,56.277 205.968,54.395 C206.176,52.401 205.148,50.518 203.010,49.369 L156.921,24.699 C154.880,23.550 152.436,23.023 149.993,23.023 C147.548,23.023 145.089,23.550 143.048,24.699 L96.961,49.272 C94.822,50.421 93.905,52.415 94.002,54.298 C93.905,56.291 94.822,58.271 96.961,59.420 L143.048,84.007 C145.089,85.156 147.534,85.682 149.993,85.682 C152.436,85.682 154.880,85.156 156.921,84.007 L203.010,59.420 Z"/>
<path fill-rule="evenodd"  fill="rgb(127, 127, 127)"
 d="M203.010,58.154 C205.148,57.005 206.162,55.011 205.968,53.129 C206.176,51.135 205.148,49.252 203.010,48.103 L156.921,23.433 C154.880,22.284 152.436,21.758 149.993,21.758 C147.548,21.758 145.089,22.284 143.048,23.433 L96.961,48.006 C94.822,49.155 93.905,51.149 94.002,53.032 C93.905,55.025 94.822,57.005 96.961,58.154 L143.048,82.741 C145.089,83.890 147.534,84.416 149.993,84.416 C152.436,84.416 154.880,83.890 156.921,82.741 L203.010,58.154 Z"/>
<path fill-rule="evenodd"  fill="rgb(98, 98, 98)"
 d="M203.010,54.420 C205.148,53.271 206.162,51.277 205.968,49.395 C206.176,47.401 205.148,45.518 203.010,44.369 L156.921,19.699 C154.880,18.550 152.436,18.024 149.993,18.024 C147.548,18.024 145.089,18.550 143.048,19.699 L96.961,44.272 C94.822,45.421 93.905,47.415 94.002,49.298 C93.905,51.291 94.822,53.271 96.961,54.420 L143.048,79.007 C145.089,80.156 147.534,80.682 149.993,80.682 C152.436,80.682 154.880,80.156 156.921,79.007 L203.010,54.420 Z"/>
<path fill-rule="evenodd"  fill="rgb(127, 127, 127)"
 d="M203.010,53.154 C205.148,52.005 206.162,50.011 205.968,48.129 C206.176,46.136 205.148,44.252 203.010,43.103 L156.921,18.433 C154.880,17.284 152.436,16.758 149.993,16.758 C147.548,16.758 145.089,17.284 143.048,18.433 L96.961,43.006 C94.822,44.155 93.905,46.149 94.002,48.031 C93.905,50.025 94.822,52.005 96.961,53.154 L143.048,77.741 C145.089,78.890 147.534,79.416 149.993,79.416 C152.436,79.416 154.880,78.890 156.921,77.741 L203.010,53.154 Z"/>
<path fill-rule="evenodd"  fill="rgb(98, 98, 98)"
 d="M203.010,49.420 C205.148,48.271 206.162,46.277 205.968,44.394 C206.176,42.401 205.148,40.518 203.010,39.369 L156.921,14.699 C154.880,13.549 152.436,13.024 149.993,13.024 C147.548,13.024 145.089,13.549 143.048,14.699 L96.961,39.272 C94.822,40.421 93.905,42.415 94.002,44.297 C93.905,46.291 94.822,48.271 96.961,49.420 L143.048,74.007 C145.089,75.156 147.534,75.682 149.993,75.682 C152.436,75.682 154.880,75.156 156.921,74.007 L203.010,49.420 Z"/>
<path fill-rule="evenodd"  fill="rgb(127, 127, 127)"
 d="M203.010,48.154 C205.148,47.005 206.162,45.011 205.968,43.129 C206.176,41.135 205.148,39.252 203.010,38.103 L156.921,13.433 C154.880,12.284 152.436,11.758 149.993,11.758 C147.548,11.758 145.089,12.284 143.048,13.433 L96.961,38.006 C94.822,39.156 93.905,41.149 94.002,43.032 C93.905,45.025 94.822,47.005 96.961,48.154 L143.048,72.741 C145.089,73.890 147.534,74.416 149.993,74.416 C152.436,74.416 154.880,73.890 156.921,72.741 L203.010,48.154 Z"/>
<path fill-rule="evenodd"  fill="rgb(98, 98, 98)"
 d="M203.010,44.420 C205.148,43.271 206.162,41.277 205.968,39.395 C206.176,37.401 205.148,35.518 203.010,34.369 L156.921,9.699 C154.880,8.549 152.436,8.024 149.993,8.024 C147.548,8.024 145.089,8.549 143.048,9.699 L96.961,34.272 C94.822,35.421 93.905,37.415 94.002,39.297 C93.905,41.291 94.822,43.271 96.961,44.420 L143.048,69.007 C145.089,70.156 147.534,70.682 149.993,70.682 C152.436,70.682 154.880,70.156 156.921,69.007 L203.010,44.420 Z"/>
<path fill-rule="evenodd"  fill="rgb(127, 127, 127)"
 d="M203.010,43.154 C205.148,42.005 206.162,40.011 205.968,38.129 C206.176,36.135 205.148,34.252 203.010,33.103 L156.921,8.433 C154.880,7.284 152.436,6.758 149.993,6.758 C147.548,6.758 145.089,7.284 143.048,8.433 L96.961,33.006 C94.822,34.155 93.905,36.149 94.002,38.032 C93.905,40.025 94.822,42.005 96.961,43.154 L143.048,67.741 C145.089,68.890 147.534,69.416 149.993,69.416 C152.436,69.416 154.880,68.890 156.921,67.741 L203.010,43.154 Z"/>
<path fill-rule="evenodd"  fill="rgb(108, 108, 108)"
 d="M203.010,39.420 C205.148,38.271 206.162,36.277 205.968,34.395 C206.176,32.401 205.148,30.518 203.010,29.369 L156.921,4.699 C154.880,3.550 152.436,3.024 149.993,3.024 C147.548,3.024 145.089,3.550 143.048,4.699 L96.961,29.272 C94.822,30.421 93.905,32.415 94.002,34.297 C93.905,36.291 94.822,38.271 96.961,39.420 L143.048,64.006 C145.089,65.156 147.534,65.682 149.993,65.682 C152.436,65.682 154.880,65.156 156.921,64.006 L203.010,39.420 Z"/>
<path fill-rule="evenodd"  fill="rgb(127, 127, 127)"
 d="M203.010,38.154 C205.148,37.005 206.162,35.011 205.968,33.129 C206.176,31.135 205.148,29.252 203.010,28.103 L156.921,3.433 C154.880,2.284 152.436,1.758 149.993,1.758 C147.548,1.758 145.089,2.284 143.048,3.433 L96.961,28.006 C94.822,29.155 93.905,31.149 94.002,33.031 C93.905,35.025 94.822,37.005 96.961,38.154 L143.048,62.741 C145.089,63.890 147.534,64.416 149.993,64.416 C152.436,64.416 154.880,63.890 156.921,62.741 L203.010,38.154 Z"/>
<path fill-rule="evenodd"  stroke="rgb(109, 109, 109)" stroke-width="1px" stroke-linecap="butt" stroke-linejoin="miter" fill="none"
 d="M191.685,37.050 C193.365,36.133 194.162,34.542 194.010,33.040 C194.173,31.449 193.365,29.946 191.685,29.029 L155.457,9.343 C153.853,8.425 151.932,8.006 150.011,8.006 C148.089,8.006 146.157,8.425 144.553,9.343 L108.325,28.952 C106.645,29.869 105.926,31.460 106.001,32.962 C105.926,34.553 106.645,36.133 108.325,37.050 L144.553,56.670 C146.157,57.587 148.079,58.007 150.011,58.007 C151.932,58.007 153.853,57.587 155.457,56.670 L191.685,37.050 Z"/>
<path fill-rule="evenodd"  stroke="rgb(109, 109, 109)" stroke-width="1px" stroke-linecap="butt" stroke-linejoin="miter" fill="none"
 d="M152.456,13.249 L150.851,12.540 L147.106,14.195 L154.595,14.195 L155.933,15.141 L144.431,15.141 L142.024,16.324 L159.143,16.324 L161.283,17.743 L139.617,17.743 L137.744,18.926 L164.225,18.926 L166.900,20.345 L134.535,20.345 L132.127,21.764 L170.110,21.764 L172.249,23.183 L129.186,23.183 L127.313,24.366 L175.727,24.602 L177.866,25.785 L123.568,26.021 L121.428,27.204 L181.344,27.440 L183.216,28.623 L118.486,28.859 L116.346,30.278 L186.100,30.278 L188.239,31.698 L112.601,31.698 L111.633,32.880 L189.518,33.353 L188.774,34.772 L113.136,34.772 L115.008,35.955 L184.821,36.428 L182.681,37.847 L119.288,37.847 L121.161,39.030 L180.006,39.030 L178.401,40.449 L124.639,40.449 L126.243,41.632 L174.122,41.868 L172.249,43.287 L129.988,43.287 L131.860,44.470 L168.773,44.470 L166.900,45.889 L135.337,46.126 L137.210,47.308 L162.620,47.545 L160.748,48.963 L141.757,48.963 L143.629,50.383 L157.270,50.146 L155.665,51.565 L147.641,51.802 L150.851,53.457 L152.724,52.748 "/>
<path fill-rule="evenodd"  opacity="0.302" fill="rgb(0, 0, 0)"
 d="M149.993,134.416 C152.436,134.416 154.880,133.890 156.921,132.741 L203.010,108.154 C205.148,107.005 206.162,105.012 205.968,103.129 C206.176,101.136 206.250,31.145 205.968,33.129 C206.162,36.088 205.136,37.850 202.997,38.999 L161.997,60.998 C159.957,62.148 152.021,65.287 150.998,64.998 C150.988,64.996 151.968,66.686 151.937,67.927 C151.923,68.532 150.906,69.268 150.887,70.118 C150.873,70.781 151.858,71.513 151.841,72.306 C151.826,73.039 150.809,73.825 150.793,74.657 C150.777,75.420 151.761,76.223 151.744,77.060 C151.728,77.874 150.711,78.721 150.694,79.596 C150.676,80.536 151.657,81.509 151.637,82.509 C151.622,83.301 150.606,84.111 150.591,84.935 C150.574,85.813 151.556,86.707 151.539,87.615 C151.528,88.188 150.517,88.767 150.507,89.350 C150.489,90.270 151.471,91.200 151.453,92.139 C151.437,92.989 150.421,93.846 150.405,94.707 C150.388,95.588 151.372,96.474 151.355,97.362 C151.338,98.255 150.322,99.150 150.305,100.045 C150.290,100.895 151.273,101.744 151.258,102.590 C151.244,103.336 150.230,104.080 150.216,104.821 C150.203,105.600 151.188,106.375 151.173,107.144 C151.157,108.032 150.141,108.912 150.125,109.782 C150.109,110.662 151.092,111.532 151.077,112.389 C151.062,113.184 150.047,113.968 150.034,114.739 C150.018,115.589 151.003,116.422 150.988,117.235 C150.973,118.049 149.958,118.843 149.944,119.615 C149.926,120.632 150.909,121.610 150.891,122.541 C150.878,123.280 149.866,123.989 149.853,124.667 C149.838,125.491 150.824,126.267 150.811,126.989 C150.797,127.743 149.785,128.438 149.773,129.067 C149.756,130.014 150.742,130.812 150.730,131.439 C150.712,132.467 149.702,133.033 149.702,133.033 C149.702,133.033 149.884,134.416 149.993,134.416 Z"/>
<path fill-rule="evenodd"  fill="rgb(102, 102, 102)"
 d="M183.801,139.853 L156.109,139.853 L157.711,141.438 C158.057,141.803 158.046,142.374 157.688,142.729 C157.329,143.083 156.751,143.093 156.380,142.751 L153.243,139.653 C152.876,139.289 152.876,138.701 153.243,138.339 L156.380,135.239 C156.750,134.886 157.337,134.892 157.700,135.250 C158.063,135.608 158.069,136.189 157.712,136.553 L156.108,138.138 L183.801,138.138 C184.242,138.138 184.600,138.523 184.600,138.996 C184.600,139.470 184.242,139.853 183.801,139.853 ZM143.965,142.458 C143.651,142.773 143.160,142.764 142.854,142.437 C142.550,142.111 142.541,141.584 142.835,141.247 L144.135,139.853 L115.934,139.853 C115.492,139.853 115.134,139.470 115.134,138.996 C115.134,138.523 115.492,138.138 115.934,138.138 L144.135,138.138 L142.834,136.744 C142.531,136.408 142.535,135.873 142.844,135.543 C143.153,135.213 143.652,135.207 143.965,135.533 L146.633,138.391 C146.944,138.725 146.944,139.267 146.633,139.602 L143.965,142.458 Z"/>
</svg>
