<svg 
 xmlns="http://www.w3.org/2000/svg"
 xmlns:xlink="http://www.w3.org/1999/xlink"
 width="300.5px" height="147.5px">
<path fill-rule="evenodd"  fill="none"
 d="M-0.002,-0.001 L299.999,-0.001 L299.999,146.999 L-0.002,146.999 L-0.002,-0.001 Z"/>
<path fill-rule="evenodd"  fill="rgb(23, 204, 95)"
 d="M203.010,107.749 C205.148,106.600 206.162,104.606 205.968,102.724 C206.176,100.731 205.148,98.847 203.010,97.698 L156.921,73.028 C154.880,71.879 152.436,71.353 149.992,71.353 C147.548,71.353 145.090,71.879 143.049,73.028 L96.960,97.601 C94.822,98.750 93.905,100.744 94.003,102.627 C93.905,104.620 94.822,106.600 96.960,107.749 L143.049,132.336 C145.090,133.485 147.534,134.011 149.992,134.011 C152.436,134.011 154.880,133.485 156.921,132.336 L203.010,107.749 Z"/>
<path fill-rule="evenodd"  fill="rgb(18, 177, 81)"
 d="M203.010,104.420 C205.148,103.271 206.162,101.277 205.968,99.394 C206.176,97.402 205.148,95.518 203.010,94.369 L156.921,69.699 C154.880,68.550 152.436,68.024 149.992,68.024 C147.548,68.024 145.090,68.550 143.049,69.699 L96.960,94.272 C94.822,95.422 93.905,97.415 94.003,99.298 C93.905,101.291 94.822,103.271 96.960,104.420 L143.049,129.007 C145.090,130.156 147.534,130.682 149.992,130.682 C152.436,130.682 154.880,130.156 156.921,129.007 L203.010,104.420 Z"/>
<path fill-rule="evenodd"  fill="rgb(23, 204, 95)"
 d="M203.010,103.154 C205.148,102.005 206.162,100.012 205.968,98.129 C206.176,96.136 205.148,94.253 203.010,93.103 L156.921,68.433 C154.880,67.284 152.436,66.758 149.992,66.758 C147.548,66.758 145.090,67.284 143.049,68.433 L96.960,93.007 C94.822,94.156 93.905,96.149 94.003,98.032 C93.905,100.025 94.822,102.005 96.960,103.154 L143.049,127.741 C145.090,128.890 147.534,129.416 149.992,129.416 C152.436,129.416 154.880,128.890 156.921,127.741 L203.010,103.154 Z"/>
<path fill-rule="evenodd"  fill="rgb(18, 177, 81)"
 d="M203.010,99.420 C205.148,98.271 206.162,96.277 205.968,94.395 C206.176,92.401 205.148,90.518 203.010,89.369 L156.921,64.699 C154.880,63.550 152.436,63.024 149.992,63.024 C147.548,63.024 145.090,63.550 143.049,64.699 L96.960,89.272 C94.822,90.422 93.905,92.415 94.003,94.297 C93.905,96.291 94.822,98.271 96.960,99.420 L143.049,124.007 C145.090,125.156 147.534,125.682 149.992,125.682 C152.436,125.682 154.880,125.156 156.921,124.007 L203.010,99.420 Z"/>
<path fill-rule="evenodd"  fill="rgb(23, 204, 95)"
 d="M203.010,98.154 C205.148,97.005 206.162,95.011 205.968,93.129 C206.176,91.136 205.148,89.252 203.010,88.103 L156.921,63.433 C154.880,62.284 152.436,61.758 149.992,61.758 C147.548,61.758 145.090,62.284 143.049,63.433 L96.960,88.006 C94.822,89.156 93.905,91.149 94.003,93.031 C93.905,95.025 94.822,97.005 96.960,98.154 L143.049,122.741 C145.090,123.890 147.534,124.416 149.992,124.416 C152.436,124.416 154.880,123.890 156.921,122.741 L203.010,98.154 Z"/>
<path fill-rule="evenodd"  fill="rgb(18, 177, 81)"
 d="M203.010,94.420 C205.148,93.271 206.162,91.277 205.968,89.395 C206.176,87.401 205.148,85.518 203.010,84.369 L156.921,59.699 C154.880,58.550 152.436,58.024 149.992,58.024 C147.548,58.024 145.090,58.550 143.049,59.699 L96.960,84.272 C94.822,85.422 93.905,87.415 94.003,89.297 C93.905,91.291 94.822,93.271 96.960,94.420 L143.049,119.007 C145.090,120.156 147.534,120.682 149.992,120.682 C152.436,120.682 154.880,120.156 156.921,119.007 L203.010,94.420 Z"/>
<path fill-rule="evenodd"  fill="rgb(23, 204, 95)"
 d="M203.010,93.154 C205.148,92.005 206.162,90.011 205.968,88.129 C206.176,86.136 205.148,84.252 203.010,83.103 L156.921,58.433 C154.880,57.284 152.436,56.758 149.992,56.758 C147.548,56.758 145.090,57.284 143.049,58.433 L96.960,83.006 C94.822,84.155 93.905,86.149 94.003,88.031 C93.905,90.025 94.822,92.005 96.960,93.154 L143.049,117.741 C145.090,118.890 147.534,119.416 149.992,119.416 C152.436,119.416 154.880,118.890 156.921,117.741 L203.010,93.154 Z"/>
<path fill-rule="evenodd"  fill="rgb(98, 98, 98)"
 d="M203.010,89.420 C205.148,88.271 206.162,86.278 205.968,84.395 C206.176,82.401 205.148,80.518 203.010,79.369 L156.921,54.699 C154.880,53.550 152.436,53.024 149.992,53.024 C147.548,53.024 145.090,53.550 143.049,54.699 L96.960,79.272 C94.822,80.421 93.905,82.415 94.003,84.298 C93.905,86.291 94.822,88.271 96.960,89.420 L143.049,114.007 C145.090,115.156 147.534,115.682 149.992,115.682 C152.436,115.682 154.880,115.156 156.921,114.007 L203.010,89.420 Z"/>
<path fill-rule="evenodd"  fill="rgb(127, 127, 127)"
 d="M203.010,88.154 C205.148,87.005 206.162,85.012 205.968,83.129 C206.176,81.135 205.148,79.252 203.010,78.103 L156.921,53.433 C154.880,52.284 152.436,51.758 149.992,51.758 C147.548,51.758 145.090,52.284 143.049,53.433 L96.960,78.006 C94.822,79.155 93.905,81.149 94.003,83.032 C93.905,85.025 94.822,87.005 96.960,88.154 L143.049,112.741 C145.090,113.890 147.534,114.416 149.992,114.416 C152.436,114.416 154.880,113.890 156.921,112.741 L203.010,88.154 Z"/>
<path fill-rule="evenodd"  fill="rgb(98, 98, 98)"
 d="M203.010,84.420 C205.148,83.271 206.162,81.278 205.968,79.395 C206.176,77.401 205.148,75.518 203.010,74.369 L156.921,49.699 C154.880,48.550 152.436,48.023 149.992,48.023 C147.548,48.023 145.090,48.550 143.049,49.699 L96.960,74.272 C94.822,75.421 93.905,77.415 94.003,79.298 C93.905,81.291 94.822,83.271 96.960,84.420 L143.049,109.007 C145.090,110.156 147.534,110.682 149.992,110.682 C152.436,110.682 154.880,110.156 156.921,109.007 L203.010,84.420 Z"/>
<path fill-rule="evenodd"  fill="rgb(127, 127, 127)"
 d="M203.010,83.154 C205.148,82.005 206.162,80.012 205.968,78.129 C206.176,76.135 205.148,74.252 203.010,73.103 L156.921,48.433 C154.880,47.284 152.436,46.758 149.992,46.758 C147.548,46.758 145.090,47.284 143.049,48.433 L96.960,73.007 C94.822,74.155 93.905,76.149 94.003,78.032 C93.905,80.025 94.822,82.005 96.960,83.154 L143.049,107.741 C145.090,108.890 147.534,109.416 149.992,109.416 C152.436,109.416 154.880,108.890 156.921,107.741 L203.010,83.154 Z"/>
<path fill-rule="evenodd"  fill="rgb(98, 98, 98)"
 d="M203.010,79.420 C205.148,78.271 206.162,76.278 205.968,74.395 C206.176,72.402 205.148,70.518 203.010,69.369 L156.921,44.699 C154.880,43.550 152.436,43.024 149.992,43.024 C147.548,43.024 145.090,43.550 143.049,44.699 L96.960,69.273 C94.822,70.421 93.905,72.415 94.003,74.297 C93.905,76.291 94.822,78.271 96.960,79.420 L143.049,104.007 C145.090,105.156 147.534,105.682 149.992,105.682 C152.436,105.682 154.880,105.156 156.921,104.007 L203.010,79.420 Z"/>
<path fill-rule="evenodd"  fill="rgb(127, 127, 127)"
 d="M203.010,78.154 C205.148,77.005 206.162,75.012 205.968,73.129 C206.176,71.136 205.148,69.252 203.010,68.103 L156.921,43.433 C154.880,42.284 152.436,41.758 149.992,41.758 C147.548,41.758 145.090,42.284 143.049,43.433 L96.960,68.007 C94.822,69.155 93.905,71.149 94.003,73.032 C93.905,75.025 94.822,77.005 96.960,78.154 L143.049,102.741 C145.090,103.890 147.534,104.416 149.992,104.416 C152.436,104.416 154.880,103.890 156.921,102.741 L203.010,78.154 Z"/>
<path fill-rule="evenodd"  fill="rgb(98, 98, 98)"
 d="M203.010,74.420 C205.148,73.271 206.162,71.277 205.968,69.395 C206.176,67.402 205.148,65.518 203.010,64.369 L156.921,39.699 C154.880,38.549 152.436,38.024 149.992,38.024 C147.548,38.024 145.090,38.549 143.049,39.699 L96.960,64.272 C94.822,65.422 93.905,67.415 94.003,69.298 C93.905,71.291 94.822,73.271 96.960,74.420 L143.049,99.007 C145.090,100.156 147.534,100.682 149.992,100.682 C152.436,100.682 154.880,100.156 156.921,99.007 L203.010,74.420 Z"/>
<path fill-rule="evenodd"  fill="rgb(127, 127, 127)"
 d="M203.010,73.154 C205.148,72.005 206.162,70.011 205.968,68.129 C206.176,66.136 205.148,64.252 203.010,63.103 L156.921,38.433 C154.880,37.284 152.436,36.758 149.992,36.758 C147.548,36.758 145.090,37.284 143.049,38.433 L96.960,63.006 C94.822,64.156 93.905,66.149 94.003,68.032 C93.905,70.025 94.822,72.005 96.960,73.154 L143.049,97.741 C145.090,98.890 147.534,99.416 149.992,99.416 C152.436,99.416 154.880,98.890 156.921,97.741 L203.010,73.154 Z"/>
<path fill-rule="evenodd"  fill="rgb(98, 98, 98)"
 d="M203.010,69.420 C205.148,68.271 206.162,66.277 205.968,64.395 C206.176,62.402 205.148,60.518 203.010,59.369 L156.921,34.699 C154.880,33.549 152.436,33.024 149.992,33.024 C147.548,33.024 145.090,33.549 143.049,34.699 L96.960,59.272 C94.822,60.421 93.905,62.415 94.003,64.298 C93.905,66.291 94.822,68.271 96.960,69.420 L143.049,94.007 C145.090,95.156 147.534,95.682 149.992,95.682 C152.436,95.682 154.880,95.156 156.921,94.007 L203.010,69.420 Z"/>
<path fill-rule="evenodd"  fill="rgb(127, 127, 127)"
 d="M203.010,68.154 C205.148,67.005 206.162,65.011 205.968,63.129 C206.176,61.136 205.148,59.252 203.010,58.103 L156.921,33.433 C154.880,32.284 152.436,31.758 149.992,31.758 C147.548,31.758 145.090,32.284 143.049,33.433 L96.960,58.006 C94.822,59.156 93.905,61.149 94.003,63.031 C93.905,65.025 94.822,67.005 96.960,68.154 L143.049,92.741 C145.090,93.890 147.534,94.416 149.992,94.416 C152.436,94.416 154.880,93.890 156.921,92.741 L203.010,68.154 Z"/>
<path fill-rule="evenodd"  fill="rgb(98, 98, 98)"
 d="M203.010,64.420 C205.148,63.271 206.162,61.277 205.968,59.395 C206.176,57.401 205.148,55.518 203.010,54.369 L156.921,29.699 C154.880,28.550 152.436,28.024 149.992,28.024 C147.548,28.024 145.090,28.550 143.049,29.699 L96.960,54.272 C94.822,55.421 93.905,57.415 94.003,59.297 C93.905,61.291 94.822,63.271 96.960,64.420 L143.049,89.006 C145.090,90.156 147.534,90.682 149.992,90.682 C152.436,90.682 154.880,90.156 156.921,89.006 L203.010,64.420 Z"/>
<path fill-rule="evenodd"  fill="rgb(127, 127, 127)"
 d="M203.010,63.154 C205.148,62.005 206.162,60.011 205.968,58.129 C206.176,56.135 205.148,54.252 203.010,53.103 L156.921,28.433 C154.880,27.284 152.436,26.758 149.992,26.758 C147.548,26.758 145.090,27.284 143.049,28.433 L96.960,53.006 C94.822,54.156 93.905,56.149 94.003,58.032 C93.905,60.025 94.822,62.005 96.960,63.154 L143.049,87.741 C145.090,88.890 147.534,89.416 149.992,89.416 C152.436,89.416 154.880,88.890 156.921,87.741 L203.010,63.154 Z"/>
<path fill-rule="evenodd"  fill="rgb(98, 98, 98)"
 d="M203.010,59.420 C205.148,58.271 206.162,56.278 205.968,54.395 C206.176,52.401 205.148,50.518 203.010,49.369 L156.921,24.699 C154.880,23.550 152.436,23.024 149.992,23.024 C147.548,23.024 145.090,23.550 143.049,24.699 L96.960,49.272 C94.822,50.421 93.905,52.415 94.003,54.298 C93.905,56.291 94.822,58.271 96.960,59.420 L143.049,84.007 C145.090,85.156 147.534,85.682 149.992,85.682 C152.436,85.682 154.880,85.156 156.921,84.007 L203.010,59.420 Z"/>
<path fill-rule="evenodd"  fill="rgb(127, 127, 127)"
 d="M203.010,58.154 C205.148,57.005 206.162,55.012 205.968,53.129 C206.176,51.135 205.148,49.252 203.010,48.103 L156.921,23.433 C154.880,22.284 152.436,21.758 149.992,21.758 C147.548,21.758 145.090,22.284 143.049,23.433 L96.960,48.006 C94.822,49.155 93.905,51.149 94.003,53.032 C93.905,55.025 94.822,57.005 96.960,58.154 L143.049,82.741 C145.090,83.890 147.534,84.416 149.992,84.416 C152.436,84.416 154.880,83.890 156.921,82.741 L203.010,58.154 Z"/>
<path fill-rule="evenodd"  fill="rgb(98, 98, 98)"
 d="M203.010,54.420 C205.148,53.271 206.162,51.278 205.968,49.395 C206.176,47.401 205.148,45.518 203.010,44.369 L156.921,19.699 C154.880,18.550 152.436,18.024 149.992,18.024 C147.548,18.024 145.090,18.550 143.049,19.699 L96.960,44.273 C94.822,45.421 93.905,47.415 94.003,49.298 C93.905,51.291 94.822,53.271 96.960,54.420 L143.049,79.007 C145.090,80.156 147.534,80.682 149.992,80.682 C152.436,80.682 154.880,80.156 156.921,79.007 L203.010,54.420 Z"/>
<path fill-rule="evenodd"  fill="rgb(127, 127, 127)"
 d="M203.010,53.154 C205.148,52.005 206.162,50.012 205.968,48.129 C206.176,46.135 205.148,44.252 203.010,43.103 L156.921,18.433 C154.880,17.284 152.436,16.758 149.992,16.758 C147.548,16.758 145.090,17.284 143.049,18.433 L96.960,43.007 C94.822,44.155 93.905,46.149 94.003,48.032 C93.905,50.025 94.822,52.005 96.960,53.154 L143.049,77.741 C145.090,78.890 147.534,79.416 149.992,79.416 C152.436,79.416 154.880,78.890 156.921,77.741 L203.010,53.154 Z"/>
<path fill-rule="evenodd"  fill="rgb(98, 98, 98)"
 d="M203.010,49.420 C205.148,48.271 206.162,46.277 205.968,44.395 C206.176,42.402 205.148,40.518 203.010,39.369 L156.921,14.699 C154.880,13.550 152.436,13.024 149.992,13.024 C147.548,13.024 145.090,13.550 143.049,14.699 L96.960,39.272 C94.822,40.421 93.905,42.415 94.003,44.298 C93.905,46.291 94.822,48.271 96.960,49.420 L143.049,74.007 C145.090,75.156 147.534,75.682 149.992,75.682 C152.436,75.682 154.880,75.156 156.921,74.007 L203.010,49.420 Z"/>
<path fill-rule="evenodd"  fill="rgb(127, 127, 127)"
 d="M203.010,48.154 C205.148,47.005 206.162,45.012 205.968,43.129 C206.176,41.136 205.148,39.252 203.010,38.103 L156.921,13.433 C154.880,12.284 152.436,11.758 149.992,11.758 C147.548,11.758 145.090,12.284 143.049,13.433 L96.960,38.007 C94.822,39.156 93.905,41.149 94.003,43.032 C93.905,45.025 94.822,47.005 96.960,48.154 L143.049,72.741 C145.090,73.890 147.534,74.416 149.992,74.416 C152.436,74.416 154.880,73.890 156.921,72.741 L203.010,48.154 Z"/>
<path fill-rule="evenodd"  fill="rgb(98, 98, 98)"
 d="M203.010,44.420 C205.148,43.271 206.162,41.278 205.968,39.395 C206.176,37.402 205.148,35.518 203.010,34.369 L156.921,9.699 C154.880,8.549 152.436,8.024 149.992,8.024 C147.548,8.024 145.090,8.549 143.049,9.699 L96.960,34.272 C94.822,35.421 93.905,37.415 94.003,39.297 C93.905,41.291 94.822,43.271 96.960,44.420 L143.049,69.007 C145.090,70.156 147.534,70.682 149.992,70.682 C152.436,70.682 154.880,70.156 156.921,69.007 L203.010,44.420 Z"/>
<path fill-rule="evenodd"  fill="rgb(127, 127, 127)"
 d="M203.010,43.154 C205.148,42.005 206.162,40.012 205.968,38.129 C206.176,36.136 205.148,34.252 203.010,33.103 L156.921,8.433 C154.880,7.284 152.436,6.758 149.992,6.758 C147.548,6.758 145.090,7.284 143.049,8.433 L96.960,33.006 C94.822,34.156 93.905,36.149 94.003,38.032 C93.905,40.025 94.822,42.005 96.960,43.154 L143.049,67.741 C145.090,68.890 147.534,69.416 149.992,69.416 C152.436,69.416 154.880,68.890 156.921,67.741 L203.010,43.154 Z"/>
<path fill-rule="evenodd"  fill="rgb(108, 108, 108)"
 d="M203.010,39.420 C205.148,38.271 206.162,36.277 205.968,34.395 C206.176,32.401 205.148,30.518 203.010,29.369 L156.921,4.699 C154.880,3.550 152.436,3.024 149.992,3.024 C147.548,3.024 145.090,3.550 143.049,4.699 L96.960,29.272 C94.822,30.422 93.905,32.415 94.003,34.297 C93.905,36.291 94.822,38.271 96.960,39.420 L143.049,64.007 C145.090,65.156 147.534,65.682 149.992,65.682 C152.436,65.682 154.880,65.156 156.921,64.007 L203.010,39.420 Z"/>
<path fill-rule="evenodd"  fill="rgb(127, 127, 127)"
 d="M203.010,38.154 C205.148,37.005 206.162,35.011 205.968,33.129 C206.176,31.136 205.148,29.252 203.010,28.103 L156.921,3.433 C154.880,2.284 152.436,1.758 149.992,1.758 C147.548,1.758 145.090,2.284 143.049,3.433 L96.960,28.006 C94.822,29.156 93.905,31.149 94.003,33.032 C93.905,35.025 94.822,37.005 96.960,38.154 L143.049,62.741 C145.090,63.890 147.534,64.416 149.992,64.416 C152.436,64.416 154.880,63.890 156.921,62.741 L203.010,38.154 Z"/>
<path fill-rule="evenodd"  stroke="rgb(109, 109, 109)" stroke-width="1px" stroke-linecap="butt" stroke-linejoin="miter" fill="none"
 d="M191.684,37.050 C193.365,36.133 194.162,34.543 194.009,33.040 C194.173,31.450 193.365,29.946 191.684,29.029 L155.457,9.343 C153.853,8.425 151.931,8.006 150.010,8.006 C148.090,8.006 146.157,8.425 144.553,9.343 L108.326,28.952 C106.645,29.869 105.925,31.460 106.001,32.963 C105.925,34.553 106.645,36.133 108.326,37.050 L144.553,56.671 C146.157,57.588 148.079,58.007 150.010,58.007 C151.931,58.007 153.853,57.588 155.457,56.671 L191.684,37.050 Z"/>
<path fill-rule="evenodd"  stroke="rgb(109, 109, 109)" stroke-width="1px" stroke-linecap="butt" stroke-linejoin="miter" fill="none"
 d="M152.456,13.250 L150.851,12.540 L147.106,14.195 L154.596,14.195 L155.933,15.141 L144.432,15.141 L142.024,16.324 L159.143,16.324 L161.283,17.743 L139.617,17.743 L137.744,18.926 L164.225,18.926 L166.900,20.345 L134.534,20.345 L132.127,21.764 L170.109,21.764 L172.249,23.183 L129.185,23.183 L127.313,24.366 L175.726,24.602 L177.866,25.785 L123.568,26.021 L121.428,27.204 L181.344,27.440 L183.216,28.623 L118.486,28.860 L116.346,30.279 L186.099,30.279 L188.239,31.698 L112.601,31.698 L111.633,32.880 L189.518,33.353 L188.774,34.773 L113.136,34.773 L115.009,35.955 L184.821,36.428 L182.681,37.848 L119.288,37.848 L121.161,39.029 L180.006,39.029 L178.401,40.449 L124.638,40.449 L126.243,41.632 L174.121,41.868 L172.249,43.287 L129.987,43.287 L131.860,44.470 L168.772,44.470 L166.900,45.889 L135.337,46.126 L137.209,47.308 L162.620,47.544 L160.748,48.964 L141.757,48.964 L143.629,50.383 L157.270,50.147 L155.665,51.565 L147.641,51.802 L150.851,53.457 L152.723,52.748 "/>
<path fill-rule="evenodd"  opacity="0.302" fill="rgb(0, 0, 0)"
 d="M149.992,134.416 C152.436,134.416 154.880,133.890 156.921,132.741 L203.010,108.154 C205.148,107.005 206.162,105.012 205.968,103.129 C206.176,101.136 206.251,31.145 205.968,33.129 C206.162,36.088 205.136,37.850 202.998,38.998 L161.997,60.999 C159.956,62.148 152.021,65.288 150.997,64.998 C150.988,64.996 151.968,66.686 151.937,67.928 C151.923,68.532 150.906,69.268 150.887,70.118 C150.873,70.781 151.857,71.513 151.841,72.306 C151.826,73.039 150.809,73.825 150.793,74.657 C150.777,75.421 151.761,76.223 151.744,77.060 C151.728,77.874 150.711,78.721 150.694,79.596 C150.676,80.536 151.657,81.509 151.637,82.509 C151.622,83.301 150.606,84.111 150.590,84.935 C150.573,85.813 151.556,86.707 151.539,87.615 C151.528,88.188 150.517,88.767 150.506,89.350 C150.489,90.270 151.471,91.201 151.453,92.139 C151.437,92.989 150.421,93.846 150.405,94.706 C150.388,95.588 151.371,96.474 151.355,97.362 C151.338,98.255 150.321,99.151 150.305,100.046 C150.289,100.895 151.274,101.744 151.258,102.590 C151.244,103.336 150.230,104.080 150.216,104.821 C150.202,105.600 151.187,106.375 151.173,107.144 C151.157,108.032 150.141,108.912 150.125,109.782 C150.108,110.662 151.093,111.532 151.077,112.388 C151.062,113.184 150.048,113.969 150.034,114.739 C150.018,115.589 151.003,116.422 150.988,117.236 C150.973,118.049 149.959,118.844 149.945,119.615 C149.926,120.632 150.908,121.610 150.892,122.542 C150.878,123.280 149.865,123.989 149.853,124.667 C149.838,125.491 150.824,126.267 150.810,126.990 C150.797,127.743 149.785,128.438 149.773,129.067 C149.756,130.014 150.742,130.812 150.730,131.439 C150.712,132.467 149.702,133.033 149.702,133.033 C149.702,133.033 149.885,134.416 149.992,134.416 Z"/>
<path fill-rule="evenodd"  fill="rgb(255, 255, 255)"
 d="M227.146,85.601 L212.860,85.601 C212.387,85.601 212.003,85.243 212.003,84.802 C212.003,84.360 212.387,84.001 212.860,84.001 L227.146,84.001 C227.619,84.001 228.004,84.360 228.004,84.802 C228.004,85.243 227.619,85.601 227.146,85.601 ZM222.255,100.835 C222.591,100.532 223.125,100.537 223.456,100.846 C223.786,101.154 223.791,101.653 223.466,101.967 L220.608,104.633 C220.274,104.945 219.732,104.945 219.397,104.633 L216.540,101.967 C216.226,101.652 216.234,101.160 216.562,100.856 C216.888,100.551 217.414,100.542 217.751,100.836 L219.145,102.136 L219.145,88.867 L217.751,90.168 C217.415,90.471 216.880,90.467 216.550,90.158 C216.219,89.849 216.215,89.350 216.540,89.036 L219.394,86.372 C219.474,86.297 219.570,86.237 219.677,86.196 C219.759,86.165 219.846,86.155 219.933,86.148 C219.957,86.146 219.978,86.135 220.003,86.135 C220.025,86.135 220.043,86.145 220.065,86.147 C220.155,86.153 220.245,86.164 220.329,86.196 C220.435,86.237 220.531,86.297 220.611,86.372 L223.466,89.036 C223.780,89.351 223.771,89.843 223.444,90.147 C223.118,90.452 222.593,90.461 222.255,90.167 L220.860,88.866 L220.860,102.136 L222.255,100.835 ZM212.860,105.402 L227.146,105.402 C227.619,105.402 228.004,105.760 228.004,106.202 C228.004,106.643 227.619,107.001 227.146,107.001 L212.860,107.001 C212.387,107.001 212.003,106.643 212.003,106.202 C212.003,105.760 212.387,105.402 212.860,105.402 Z"/>
<path fill-rule="evenodd"  fill="rgb(255, 255, 255)"
 d="M184.800,139.853 L157.108,139.853 L158.711,141.438 C159.057,141.803 159.046,142.374 158.688,142.728 C158.330,143.083 157.752,143.093 157.381,142.751 L154.244,139.653 C153.877,139.289 153.877,138.701 154.244,138.339 L157.381,135.239 C157.750,134.886 158.338,134.892 158.700,135.250 C159.063,135.608 159.068,136.189 158.713,136.552 L157.108,138.138 L184.800,138.138 C185.243,138.138 185.600,138.523 185.600,138.996 C185.600,139.470 185.243,139.853 184.800,139.853 ZM144.966,142.458 C144.651,142.773 144.160,142.764 143.855,142.437 C143.550,142.111 143.542,141.584 143.835,141.247 L145.136,139.853 L116.934,139.853 C116.492,139.853 116.134,139.470 116.134,138.996 C116.134,138.523 116.492,138.138 116.934,138.138 L145.136,138.138 L143.834,136.744 C143.532,136.408 143.536,135.873 143.844,135.543 C144.153,135.213 144.653,135.207 144.966,135.533 L147.633,138.391 C147.945,138.725 147.945,139.267 147.633,139.602 L144.966,142.458 Z"/>
</svg>
