<svg 
 xmlns="http://www.w3.org/2000/svg"
 xmlns:xlink="http://www.w3.org/1999/xlink"
 width="300px" height="147px">
<path fill-rule="evenodd"  fill="none"
 d="M-0.003,-0.001 L299.997,-0.001 L299.997,146.999 L-0.003,146.999 L-0.003,-0.001 Z"/>
<path fill-rule="evenodd"  fill="rgb(23, 204, 95)"
 d="M111.828,109.000 L192.999,109.000 C195.761,109.000 198.000,111.238 198.000,114.000 L198.000,114.000 C198.000,116.761 195.761,119.000 192.999,119.000 L111.828,119.000 C109.067,119.000 106.828,116.761 106.828,114.000 L106.828,114.000 C106.828,111.238 109.067,109.000 111.828,109.000 Z"/>
<path fill-rule="evenodd"  fill="rgb(16, 142, 66)"
 d="M193.228,114.998 L111.623,114.998 C107.715,114.998 107.639,111.243 107.639,111.243 C107.639,111.243 106.849,112.980 106.849,113.998 C106.849,116.760 108.986,118.999 111.623,118.999 L193.228,118.999 C195.864,118.999 198.002,116.760 198.002,113.998 C198.002,112.917 197.115,111.097 197.115,111.097 C197.115,111.097 196.963,114.998 193.228,114.998 Z"/>
<path fill-rule="evenodd"  fill="rgb(23, 204, 95)"
 d="M101.853,99.000 L153.000,99.000 C155.761,99.000 157.999,101.238 157.999,104.000 L157.999,104.000 C157.999,106.761 155.761,109.000 153.000,109.000 L101.853,109.000 C99.093,109.000 96.854,106.761 96.854,104.000 L96.854,104.000 C96.854,101.238 99.093,99.000 101.853,99.000 Z"/>
<path fill-rule="evenodd"  fill="rgb(16, 142, 66)"
 d="M153.228,104.998 L101.648,104.998 C97.740,104.998 97.664,101.243 97.664,101.243 C97.664,101.243 96.873,102.980 96.873,103.998 C96.873,106.760 99.012,108.999 101.648,108.999 L153.228,108.999 C155.864,108.999 158.001,106.760 158.001,103.998 C158.001,102.917 157.116,101.097 157.116,101.097 C157.116,101.097 156.964,104.998 153.228,104.998 Z"/>
<path fill-rule="evenodd"  fill="rgb(255, 222, 0)"
 d="M162.854,99.000 L192.999,99.000 C195.761,99.000 198.000,101.238 198.000,104.000 L198.000,104.000 C198.000,106.761 195.761,109.000 192.999,109.000 L162.854,109.000 C160.092,109.000 157.854,106.761 157.854,104.000 L157.854,104.000 C157.854,101.238 160.092,99.000 162.854,99.000 Z"/>
<path fill-rule="evenodd"  fill="rgb(171, 152, 26)"
 d="M193.228,104.998 L162.647,104.998 C158.740,104.998 158.664,101.243 158.664,101.243 C158.664,101.243 157.874,102.980 157.874,103.998 C157.874,106.760 160.012,108.999 162.647,108.999 L193.228,108.999 C195.864,108.999 198.002,106.760 198.002,103.998 C198.002,102.917 197.115,101.097 197.115,101.097 C197.115,101.097 196.963,104.998 193.228,104.998 Z"/>
<path fill-rule="evenodd"  fill="rgb(255, 222, 0)"
 d="M122.854,79.000 L153.000,79.000 C155.761,79.000 157.999,81.238 157.999,84.000 L157.999,84.000 C157.999,86.761 155.761,89.000 153.000,89.000 L122.854,89.000 C120.092,89.000 117.854,86.761 117.854,84.000 L117.854,84.000 C117.854,81.238 120.092,79.000 122.854,79.000 Z"/>
<path fill-rule="evenodd"  fill="rgb(171, 152, 26)"
 d="M153.228,84.998 L122.647,84.998 C118.740,84.998 118.663,81.243 118.663,81.243 C118.663,81.243 117.874,82.980 117.874,83.998 C117.874,86.760 120.012,88.998 122.647,88.998 L153.228,88.998 C155.864,88.998 158.001,86.760 158.001,83.998 C158.001,82.916 157.116,81.097 157.116,81.097 C157.116,81.097 156.964,84.998 153.228,84.998 Z"/>
<path fill-rule="evenodd"  fill="rgb(255, 222, 0)"
 d="M112.854,69.000 L153.000,69.000 C155.761,69.000 157.999,71.238 157.999,74.000 L157.999,74.000 C157.999,76.761 155.761,79.000 153.000,79.000 L112.854,79.000 C110.092,79.000 107.853,76.761 107.853,74.000 L107.853,74.000 C107.853,71.238 110.092,69.000 112.854,69.000 Z"/>
<path fill-rule="evenodd"  fill="rgb(171, 152, 26)"
 d="M153.228,74.998 L112.647,74.998 C108.739,74.998 108.664,71.243 108.664,71.243 C108.664,71.243 107.874,72.980 107.874,73.998 C107.874,76.760 110.012,78.998 112.647,78.998 L153.228,78.998 C155.864,78.998 158.001,76.760 158.001,73.998 C158.001,72.916 157.116,71.097 157.116,71.097 C157.116,71.097 156.964,74.998 153.228,74.998 Z"/>
<path fill-rule="evenodd"  fill="rgb(255, 222, 0)"
 d="M102.853,59.000 L132.999,59.000 C135.761,59.000 137.999,61.238 137.999,64.000 L137.999,64.000 C137.999,66.761 135.761,69.000 132.999,69.000 L102.853,69.000 C100.092,69.000 97.854,66.761 97.854,64.000 L97.854,64.000 C97.854,61.238 100.092,59.000 102.853,59.000 Z"/>
<path fill-rule="evenodd"  fill="rgb(171, 152, 26)"
 d="M133.229,64.998 L102.648,64.998 C98.740,64.998 98.664,61.243 98.664,61.243 C98.664,61.243 97.874,62.980 97.874,63.998 C97.874,66.760 100.012,68.998 102.648,68.998 L133.229,68.998 C135.864,68.998 138.001,66.760 138.001,63.998 C138.001,62.916 137.116,61.097 137.116,61.097 C137.116,61.097 136.964,64.998 133.229,64.998 Z"/>
<path fill-rule="evenodd"  fill="rgb(255, 222, 0)"
 d="M92.854,49.000 L132.999,49.000 C135.761,49.000 137.999,51.238 137.999,54.000 L137.999,54.000 C137.999,56.761 135.761,59.000 132.999,59.000 L92.854,59.000 C90.092,59.000 87.854,56.761 87.854,54.000 L87.854,54.000 C87.854,51.238 90.092,49.000 92.854,49.000 Z"/>
<path fill-rule="evenodd"  fill="rgb(171, 152, 26)"
 d="M133.229,54.998 L92.648,54.998 C88.740,54.998 88.664,51.243 88.664,51.243 C88.664,51.243 87.874,52.980 87.874,53.998 C87.874,56.760 90.012,58.998 92.648,58.998 L133.229,58.998 C135.864,58.998 138.001,56.760 138.001,53.998 C138.001,52.916 137.116,51.097 137.116,51.097 C137.116,51.097 136.964,54.998 133.229,54.998 Z"/>
<path fill-rule="evenodd"  fill="rgb(255, 222, 0)"
 d="M142.854,89.000 L192.999,89.000 C195.761,89.000 198.000,91.238 198.000,94.000 L198.000,94.000 C198.000,96.761 195.761,99.000 192.999,99.000 L142.854,99.000 C140.092,99.000 137.854,96.761 137.854,94.000 L137.854,94.000 C137.854,91.238 140.092,89.000 142.854,89.000 Z"/>
<path fill-rule="evenodd"  fill="rgb(171, 152, 26)"
 d="M193.228,94.998 L142.648,94.998 C138.740,94.998 138.664,91.243 138.664,91.243 C138.664,91.243 137.874,92.980 137.874,93.998 C137.874,96.760 140.012,98.999 142.648,98.999 L193.228,98.999 C195.864,98.999 198.002,96.760 198.002,93.998 C198.002,92.917 197.115,91.097 197.115,91.097 C197.115,91.097 196.963,94.998 193.228,94.998 Z"/>
<path fill-rule="evenodd"  fill="rgb(23, 204, 95)"
 d="M91.879,89.000 L133.100,89.000 C135.862,89.000 138.100,91.238 138.100,94.000 L138.100,94.000 C138.100,96.761 135.862,99.000 133.100,99.000 L91.879,99.000 C89.117,99.000 86.878,96.761 86.878,94.000 L86.878,94.000 C86.878,91.238 89.117,89.000 91.879,89.000 Z"/>
<path fill-rule="evenodd"  fill="rgb(16, 142, 66)"
 d="M133.328,94.998 L91.672,94.998 C87.765,94.998 87.688,91.243 87.688,91.243 C87.688,91.243 86.899,92.980 86.899,93.998 C86.899,96.760 89.036,98.999 91.672,98.999 L133.328,98.999 C135.964,98.999 138.102,96.760 138.102,93.998 C138.102,92.917 137.216,91.097 137.216,91.097 C137.216,91.097 137.064,94.998 133.328,94.998 Z"/>
<path fill-rule="evenodd"  fill="rgb(23, 204, 95)"
 d="M81.904,79.000 L113.150,79.000 C115.911,79.000 118.150,81.238 118.150,84.000 L118.150,84.000 C118.150,86.761 115.911,89.000 113.150,89.000 L81.904,89.000 C79.143,89.000 76.904,86.761 76.904,84.000 L76.904,84.000 C76.904,81.238 79.143,79.000 81.904,79.000 Z"/>
<path fill-rule="evenodd"  fill="rgb(16, 142, 66)"
 d="M113.379,84.998 L81.698,84.998 C77.790,84.998 77.714,81.243 77.714,81.243 C77.714,81.243 76.924,82.980 76.924,83.999 C76.924,86.760 79.062,88.999 81.698,88.999 L113.379,88.999 C116.015,88.999 118.152,86.760 118.152,83.999 C118.152,82.917 117.267,81.097 117.267,81.097 C117.267,81.097 117.114,84.998 113.379,84.998 Z"/>
<path fill-rule="evenodd"  fill="rgb(23, 204, 95)"
 d="M71.929,69.000 L103.175,69.000 C105.937,69.000 108.175,71.238 108.175,74.000 L108.175,74.000 C108.175,76.761 105.937,79.000 103.175,79.000 L71.929,79.000 C69.167,79.000 66.929,76.761 66.929,74.000 L66.929,74.000 C66.929,71.238 69.167,69.000 71.929,69.000 Z"/>
<path fill-rule="evenodd"  fill="rgb(16, 142, 66)"
 d="M103.404,74.999 L71.723,74.999 C67.815,74.999 67.739,71.243 67.739,71.243 C67.739,71.243 66.949,72.980 66.949,73.999 C66.949,76.760 69.087,78.999 71.723,78.999 L103.404,78.999 C106.039,78.999 108.177,76.760 108.177,73.999 C108.177,72.917 107.292,71.097 107.292,71.097 C107.292,71.097 107.139,74.999 103.404,74.999 Z"/>
<path fill-rule="evenodd"  fill="rgb(23, 204, 95)"
 d="M51.979,59.000 L93.200,59.000 C95.962,59.000 98.200,61.238 98.200,64.000 L98.200,64.000 C98.200,66.761 95.962,69.000 93.200,69.000 L51.979,69.000 C49.218,69.000 46.979,66.761 46.979,64.000 L46.979,64.000 C46.979,61.238 49.218,59.000 51.979,59.000 Z"/>
<path fill-rule="evenodd"  fill="rgb(16, 142, 66)"
 d="M93.429,64.999 L51.773,64.999 C47.865,64.999 47.789,61.243 47.789,61.243 C47.789,61.243 46.999,62.980 46.999,63.999 C46.999,66.760 49.138,68.999 51.773,68.999 L93.429,68.999 C96.065,68.999 98.202,66.760 98.202,63.999 C98.202,62.917 97.317,61.097 97.317,61.097 C97.317,61.097 97.165,64.999 93.429,64.999 Z"/>
<path fill-rule="evenodd"  fill="rgb(23, 204, 95)"
 d="M43.999,49.000 L83.225,49.000 C85.986,49.000 88.225,51.238 88.225,54.000 L88.225,54.000 C88.225,56.761 85.986,59.000 83.225,59.000 L43.999,59.000 C41.238,59.000 38.999,56.761 38.999,54.000 L38.999,54.000 C38.999,51.238 41.238,49.000 43.999,49.000 Z"/>
<path fill-rule="evenodd"  fill="rgb(16, 142, 66)"
 d="M83.454,54.999 L43.793,54.999 C39.885,54.999 39.809,51.243 39.809,51.243 C39.809,51.243 39.019,52.980 39.019,53.999 C39.019,56.760 41.157,58.999 43.793,58.999 L83.454,58.999 C86.091,58.999 88.228,56.760 88.228,53.999 C88.228,52.917 87.342,51.097 87.342,51.097 C87.342,51.097 87.189,54.999 83.454,54.999 Z"/>
<path fill-rule="evenodd"  fill="rgb(23, 204, 95)"
 d="M219.999,26.000 L225.999,26.000 C227.104,26.000 227.999,26.895 227.999,28.000 L227.999,34.000 C227.999,35.104 227.104,36.000 225.999,36.000 L219.999,36.000 C218.895,36.000 217.999,35.104 217.999,34.000 L217.999,28.000 C217.999,26.895 218.895,26.000 219.999,26.000 Z"/>
<path fill-rule="evenodd"  fill="rgb(51, 51, 51)"
 d="M259.818,36.731 C258.390,36.731 257.886,35.774 257.886,34.289 L257.886,25.134 L259.931,25.134 L259.931,34.389 C259.931,34.860 260.155,35.017 260.351,35.017 C260.435,35.017 260.491,35.017 260.631,34.988 L260.883,36.545 C260.645,36.645 260.295,36.731 259.818,36.731 ZM253.476,34.289 L253.476,25.134 L255.521,25.134 L255.521,34.389 C255.521,34.860 255.745,35.017 255.941,35.017 C256.025,35.017 256.081,35.017 256.221,34.988 L256.473,36.545 C256.235,36.645 255.885,36.731 255.409,36.731 C253.980,36.731 253.476,35.774 253.476,34.289 ZM249.544,35.674 L249.502,35.674 C248.816,36.274 248.031,36.731 247.135,36.731 C245.734,36.731 244.809,35.717 244.809,34.360 C244.809,32.646 246.169,31.747 249.320,31.404 C249.292,30.618 248.956,30.018 247.990,30.018 C247.261,30.018 246.561,30.347 245.832,30.775 L245.090,29.390 C246.014,28.804 247.135,28.333 248.368,28.333 C250.357,28.333 251.379,29.547 251.379,31.861 L251.379,36.531 L249.698,36.531 L249.544,35.674 ZM249.320,32.689 C247.415,32.946 246.771,33.474 246.771,34.189 C246.771,34.817 247.205,35.088 247.807,35.088 C248.396,35.088 248.830,34.803 249.320,34.303 L249.320,32.689 ZM239.354,36.531 L238.527,33.046 C238.359,32.289 238.233,31.561 238.079,30.718 L238.009,30.718 C237.855,31.561 237.742,32.303 237.575,33.046 L236.776,36.531 L234.423,36.531 L232.392,28.533 L234.451,28.533 L235.305,32.489 C235.459,33.260 235.557,34.032 235.697,34.817 L235.753,34.817 C235.907,34.032 236.048,33.246 236.244,32.489 L237.182,28.533 L239.017,28.533 L239.998,32.489 C240.180,33.260 240.320,34.032 240.488,34.817 L240.558,34.817 C240.698,34.032 240.796,33.260 240.950,32.489 L241.805,28.533 L243.710,28.533 L241.777,36.531 L239.354,36.531 Z"/>
<path fill-rule="evenodd"  fill="rgb(255, 222, 0)"
 d="M219.999,48.000 L225.999,48.000 C227.104,48.000 227.999,48.895 227.999,50.000 L227.999,56.000 C227.999,57.104 227.104,58.000 225.999,58.000 L219.999,58.000 C218.895,58.000 217.999,57.104 217.999,56.000 L217.999,50.000 C217.999,48.895 218.895,48.000 219.999,48.000 Z"/>
<path fill-rule="evenodd"  fill="rgb(51, 51, 51)"
 d="M270.545,53.290 C270.545,55.089 269.200,56.003 267.519,56.003 C267.210,56.003 266.846,55.932 266.510,55.817 C266.286,56.003 266.174,56.189 266.174,56.503 C266.174,56.931 266.483,57.160 267.406,57.160 L268.737,57.160 C270.629,57.160 271.651,57.760 271.651,59.159 C271.651,60.773 270.012,62.002 267.392,62.002 C265.544,62.002 264.115,61.359 264.115,59.945 C264.115,59.274 264.521,58.702 265.235,58.288 L265.235,58.217 C264.829,57.945 264.521,57.531 264.521,56.874 C264.521,56.274 264.927,55.717 265.389,55.375 L265.389,55.317 C264.857,54.918 264.353,54.161 264.353,53.232 C264.353,51.347 265.852,50.333 267.519,50.333 C267.953,50.333 268.373,50.419 268.695,50.533 L271.525,50.533 L271.525,52.075 L270.180,52.075 C270.390,52.347 270.545,52.790 270.545,53.290 ZM267.700,60.673 C268.877,60.673 269.690,60.145 269.690,59.516 C269.690,58.945 269.228,58.802 268.387,58.802 L267.435,58.802 C266.958,58.802 266.622,58.759 266.342,58.688 C265.992,58.974 265.824,59.288 265.824,59.616 C265.824,60.288 266.552,60.673 267.700,60.673 ZM267.519,51.761 C266.818,51.761 266.286,52.290 266.286,53.232 C266.286,54.175 266.832,54.703 267.519,54.703 C268.205,54.703 268.737,54.175 268.737,53.232 C268.737,52.290 268.219,51.761 267.519,51.761 ZM260.449,53.804 C260.449,52.575 260.114,52.132 259.343,52.132 C258.699,52.132 258.293,52.447 257.704,53.032 L257.704,58.531 L255.660,58.531 L255.660,50.533 L257.341,50.533 L257.480,51.590 L257.537,51.590 C258.223,50.904 259.021,50.333 260.086,50.333 C261.780,50.333 262.509,51.533 262.509,53.546 L262.509,58.531 L260.449,58.531 L260.449,53.804 ZM252.440,49.247 C251.726,49.247 251.207,48.762 251.207,48.105 C251.207,47.419 251.726,46.962 252.440,46.962 C253.141,46.962 253.658,47.419 253.658,48.105 C253.658,48.762 253.141,49.247 252.440,49.247 ZM246.994,56.289 L246.994,47.134 L249.039,47.134 L249.039,56.389 C249.039,56.860 249.263,57.017 249.459,57.017 C249.543,57.017 249.599,57.017 249.739,56.989 L249.991,58.545 C249.753,58.645 249.403,58.731 248.927,58.731 C247.498,58.731 246.994,57.774 246.994,56.289 ZM242.584,56.289 L242.584,47.134 L244.629,47.134 L244.629,56.389 C244.629,56.860 244.853,57.017 245.049,57.017 C245.133,57.017 245.189,57.017 245.330,56.989 L245.581,58.545 C245.343,58.645 244.993,58.731 244.517,58.731 C243.088,58.731 242.584,57.774 242.584,56.289 ZM239.365,49.247 C238.650,49.247 238.132,48.762 238.132,48.105 C238.132,47.419 238.650,46.962 239.365,46.962 C240.065,46.962 240.583,47.419 240.583,48.105 C240.583,48.762 240.065,49.247 239.365,49.247 ZM236.482,48.590 C235.865,48.590 235.529,48.962 235.529,49.847 L235.529,50.533 L237.000,50.533 L237.000,52.190 L235.529,52.190 L235.529,58.531 L233.470,58.531 L233.470,52.190 L232.420,52.190 L232.420,50.633 L233.470,50.547 L233.470,49.890 C233.470,48.219 234.226,46.934 236.201,46.934 C236.804,46.934 237.336,47.077 237.686,47.219 L237.308,48.762 C237.042,48.662 236.734,48.590 236.482,48.590 ZM240.373,58.531 L238.328,58.531 L238.328,50.533 L240.373,50.533 L240.373,58.531 ZM253.448,58.531 L251.404,58.531 L251.404,50.533 L253.448,50.533 L253.448,58.531 Z"/>
</svg>
