<svg 
 xmlns="http://www.w3.org/2000/svg"
 xmlns:xlink="http://www.w3.org/1999/xlink"
 width="14px" height="14px">
<path fill-rule="evenodd"  fill="none"
 d="M-0.000,-0.000 L14.000,-0.000 L14.000,14.000 L-0.000,14.000 L-0.000,-0.000 Z"/>
<path fill-rule="evenodd"  fill="rgb(51, 51, 51)"
 d="M7.850,5.872 C7.808,5.922 7.753,5.958 7.691,5.977 C7.626,5.997 7.559,6.005 7.488,6.001 C7.418,5.998 7.347,5.982 7.278,5.956 C7.209,5.929 7.149,5.890 7.100,5.840 L5.145,3.873 C5.042,3.772 4.991,3.653 4.991,3.513 C4.991,3.373 5.042,3.253 5.145,3.152 C5.194,3.102 5.250,3.065 5.312,3.040 C5.374,3.015 5.437,3.002 5.503,3.002 C5.569,3.002 5.634,3.015 5.698,3.040 C5.763,3.065 5.818,3.102 5.868,3.152 L7.494,4.776 L9.120,3.152 C9.218,3.052 9.338,3.002 9.477,3.002 C9.618,3.002 9.737,3.052 9.836,3.152 C9.939,3.253 9.992,3.373 9.992,3.513 C9.992,3.653 9.939,3.772 9.836,3.873 L7.850,5.872 ZM5.312,7.040 C5.374,7.015 5.437,7.002 5.503,7.002 C5.569,7.002 5.634,7.015 5.698,7.040 C5.763,7.064 5.818,7.102 5.868,7.152 L7.494,8.776 L9.120,7.152 C9.218,7.052 9.338,7.002 9.477,7.002 C9.618,7.002 9.737,7.052 9.836,7.152 C9.939,7.253 9.992,7.373 9.992,7.513 C9.992,7.652 9.939,7.773 9.836,7.873 L7.850,9.873 C7.808,9.923 7.753,9.957 7.691,9.977 C7.626,9.997 7.559,10.005 7.488,10.001 C7.418,9.998 7.347,9.983 7.278,9.956 C7.209,9.928 7.149,9.890 7.100,9.840 L5.145,7.873 C5.042,7.773 4.991,7.652 4.991,7.513 C4.991,7.373 5.042,7.253 5.145,7.152 C5.194,7.102 5.250,7.064 5.312,7.040 Z"/>
</svg>
