<svg 
 xmlns="http://www.w3.org/2000/svg"
 xmlns:xlink="http://www.w3.org/1999/xlink"
 width="301.5px" height="148.5px">
<path fill-rule="evenodd"  fill="none"
 d="M-0.003,-0.001 L299.998,-0.001 L299.998,146.999 L-0.003,146.999 L-0.003,-0.001 Z"/>
<path fill-rule="evenodd"  fill="rgb(23, 204, 95)"
 d="M233.805,97.505 L231.621,99.562 L222.299,89.643 L214.461,96.355 L223.845,106.232 L230.800,100.001 L232.993,102.055 L225.908,108.403 L229.805,112.504 L227.621,114.562 L223.673,110.406 L215.199,117.999 L213.006,115.945 L221.610,108.235 L212.179,98.309 L203.198,105.999 L201.006,103.945 L210.119,96.141 L202.086,87.687 L193.213,95.433 L200.805,103.504 L198.621,105.562 L190.951,97.407 L181.426,105.722 L187.805,112.504 L185.622,114.562 L179.164,107.697 L170.132,115.582 L173.805,119.504 L171.622,121.561 L167.870,117.556 L158.474,125.758 L157.622,126.562 L147.956,116.200 L139.199,123.999 L137.006,121.945 L145.914,114.011 L138.500,106.063 L129.353,114.393 L136.805,122.504 L134.621,124.562 L127.136,116.413 L123.199,119.999 L121.006,117.945 L125.109,114.207 L118.109,106.589 L111.198,112.999 L109.006,110.945 L116.082,104.381 L108.092,95.685 L100.199,102.999 L98.006,100.945 L106.064,93.478 L98.434,85.172 L89.297,93.837 L95.805,101.504 L93.622,103.562 L87.120,95.901 L78.267,104.296 L85.805,113.504 L83.621,115.562 L76.089,106.361 L71.199,110.999 L69.006,108.945 L74.184,104.034 L67.193,95.495 L69.377,93.438 L76.361,101.969 L85.176,93.611 L76.881,83.839 L70.199,89.999 L68.006,87.945 L74.940,81.553 L73.194,79.495 L75.377,77.438 L77.145,79.520 L85.860,71.487 L82.193,67.495 L84.377,65.438 L88.066,69.454 L96.821,61.383 L93.194,57.495 L95.377,55.438 L99.027,59.350 L106.719,52.259 L103.194,48.495 L105.377,46.438 L108.925,50.226 L117.593,42.236 L112.193,36.495 L114.377,34.438 L119.799,40.203 L129.090,31.638 L125.193,27.495 L127.377,25.438 L131.296,29.605 L139.614,21.937 L139.194,21.495 L141.377,19.438 L141.820,19.904 L142.800,19.001 L144.993,21.055 L143.884,22.077 L151.812,30.420 L159.653,22.985 L159.193,22.495 L161.377,20.438 L161.830,20.920 L162.800,20.001 L164.992,22.055 L163.884,23.106 L172.318,32.080 L177.800,27.001 L179.993,29.055 L174.371,34.265 L182.429,42.838 L189.800,36.001 L191.993,38.055 L184.482,45.022 L192.132,53.163 L197.800,48.001 L199.993,50.055 L194.184,55.346 L202.202,63.877 L208.800,58.001 L210.992,60.055 L204.252,66.059 L212.393,74.721 L217.800,70.001 L219.992,72.055 L214.441,76.901 L222.533,85.511 L227.800,81.001 L229.992,83.055 L224.580,87.689 L233.805,97.505 ZM191.164,93.254 L200.025,85.518 L191.948,77.017 L183.211,84.799 L191.164,93.254 ZM161.792,84.848 L169.480,93.022 L178.919,84.615 L171.135,76.339 L161.792,84.848 ZM169.082,74.157 L161.623,66.226 L152.359,74.819 L159.740,82.666 L169.082,74.157 ZM159.574,86.869 L150.760,94.897 L158.316,102.965 L167.239,95.018 L159.574,86.869 ZM157.521,84.686 L150.159,76.859 L141.441,84.946 L148.712,92.710 L157.521,84.686 ZM148.106,74.676 L140.029,66.089 L131.330,74.150 L139.392,82.759 L148.106,74.676 ZM129.130,76.189 L121.409,83.344 L129.459,91.973 L137.193,84.799 L129.130,76.189 ZM127.081,74.002 L119.147,65.530 L111.530,72.753 L119.364,81.152 L127.081,74.002 ZM129.281,71.963 L137.975,63.906 L129.906,55.327 L121.324,63.466 L129.281,71.963 ZM140.176,61.867 L149.444,53.278 L141.252,44.568 L132.083,53.263 L140.176,61.867 ZM142.229,64.050 L150.305,72.636 L159.569,64.043 L151.498,55.461 L142.229,64.050 ZM161.769,62.002 L170.227,54.156 L162.117,45.621 L153.698,53.422 L161.769,62.002 ZM163.822,64.186 L171.301,72.136 L179.883,64.319 L172.292,56.329 L163.822,64.186 ZM173.353,74.318 L181.160,82.618 L189.886,74.847 L181.947,66.491 L173.353,74.318 ZM179.376,103.543 L188.902,95.228 L180.970,86.795 L171.531,95.202 L179.376,103.543 ZM168.087,113.399 L177.115,105.518 L169.290,97.198 L160.362,105.150 L168.087,113.399 ZM157.812,122.368 L165.826,115.373 L158.121,107.146 L150.196,114.204 L157.812,122.368 ZM148.155,112.015 L156.075,104.961 L148.542,96.917 L140.718,104.043 L148.155,112.015 ZM138.674,101.852 L146.494,94.730 L139.241,86.987 L131.503,94.165 L138.674,101.852 ZM127.327,112.187 L136.456,103.872 L129.304,96.205 L120.309,104.548 L127.327,112.187 ZM118.281,102.341 L127.259,94.013 L119.209,85.383 L110.292,93.646 L118.281,102.341 ZM108.264,91.439 L117.164,83.191 L109.353,74.818 L100.611,83.108 L108.264,91.439 ZM87.888,73.693 L79.086,81.807 L87.353,91.546 L96.404,82.963 L87.888,73.693 ZM98.865,63.575 L90.094,71.660 L98.581,80.899 L107.307,72.624 L98.865,63.575 ZM108.767,54.447 L101.071,61.542 L109.484,70.560 L117.097,63.341 L108.767,54.447 ZM119.646,44.419 L110.973,52.414 L119.273,61.277 L127.851,53.142 L119.646,44.419 ZM131.143,33.821 L121.852,42.386 L130.028,51.078 L139.197,42.383 L131.143,33.821 ZM141.678,24.110 L133.349,31.788 L141.374,40.319 L149.635,32.485 L141.678,24.110 ZM151.701,34.659 L143.429,42.504 L151.645,51.239 L160.052,43.447 L151.701,34.659 ZM161.707,25.170 L153.878,32.595 L162.252,41.408 L170.118,34.119 L161.707,25.170 ZM172.171,36.304 L164.317,43.582 L172.426,52.116 L180.229,44.878 L172.171,36.304 ZM182.282,47.063 L174.491,54.289 L182.102,62.299 L189.914,55.183 L182.282,47.063 ZM191.966,57.366 L184.165,64.471 L192.127,72.850 L199.961,65.873 L191.966,57.366 ZM202.011,68.055 L194.189,75.021 L202.287,83.543 L210.131,76.695 L202.011,68.055 ZM212.180,78.875 L204.348,85.712 L212.401,94.187 L220.252,87.464 L212.180,78.875 Z"/>
<path fill-rule="evenodd"  stroke="rgb(127, 127, 127)" stroke-width="3px" stroke-linecap="butt" stroke-linejoin="miter" fill="none"
 d="M78.999,126.000 C77.437,126.082 68.293,124.718 63.999,110.000 C63.275,107.517 57.908,89.057 67.000,77.000 C76.090,64.943 88.999,49.000 88.999,49.000 C88.999,49.000 93.712,50.218 94.999,49.000 C96.286,47.781 107.582,29.770 117.999,24.000 C128.416,18.229 137.382,12.762 153.999,14.000 C170.617,15.238 184.434,23.475 193.000,31.000 C201.565,38.525 205.710,51.848 208.999,53.000 C212.289,54.152 214.348,53.549 216.000,55.000 C217.651,56.450 219.110,61.917 225.999,68.000 C232.888,74.083 236.659,85.942 237.999,97.000 C239.339,108.058 232.337,123.845 227.999,127.000 C223.661,130.155 217.960,132.504 216.000,130.000 C214.038,127.496 209.785,122.760 208.999,120.000 C208.214,117.240 205.382,111.749 202.999,111.000 C200.617,110.250 192.602,118.302 187.999,121.000 C183.397,123.697 169.182,128.094 165.999,128.000 C162.817,127.906 158.312,132.576 154.999,133.000 C151.686,133.423 149.544,132.003 147.999,132.000 C146.454,131.996 142.679,134.576 140.999,134.000 C139.319,133.423 136.858,128.950 132.999,128.000 C129.141,127.050 120.643,127.417 114.000,123.000 C107.356,118.583 97.868,108.261 96.999,108.000 C96.130,107.738 92.811,114.277 90.000,118.000 C87.188,121.722 80.561,125.917 78.999,126.000 Z"/>
<path fill-rule="evenodd"  stroke="rgb(23, 204, 95)" stroke-width="3px" stroke-linecap="butt" stroke-linejoin="miter" fill="none"
 d="M77.617,121.665 C76.200,121.740 70.907,118.504 67.012,105.166 C66.354,102.916 63.487,89.187 71.733,78.261 C79.978,67.335 91.687,53.887 91.687,53.887 C91.687,53.887 95.961,54.991 97.129,53.887 C98.296,52.783 111.542,32.461 120.989,27.232 C130.437,22.003 138.570,17.048 153.641,18.170 C168.713,19.291 182.245,27.756 190.014,34.575 C197.783,41.395 202.542,55.468 205.526,56.512 C208.510,57.556 212.377,58.010 213.875,59.324 C215.373,60.639 215.697,65.593 221.945,71.105 C228.194,76.618 232.614,85.177 233.829,95.198 C235.045,105.218 230.694,118.712 226.759,121.571 C222.824,124.430 219.654,127.559 217.875,125.290 C216.097,123.021 211.239,116.729 210.527,114.228 C209.814,111.727 205.246,106.751 203.084,106.072 C200.923,105.393 188.654,115.690 184.479,118.134 C180.305,120.579 167.412,124.563 164.525,124.478 C161.639,124.392 157.553,128.625 154.548,129.009 C151.544,129.392 149.601,128.106 148.199,128.103 C146.798,128.099 143.374,130.437 141.851,129.915 C140.327,129.392 138.094,125.339 134.595,124.478 C131.094,123.616 123.387,123.949 117.361,119.947 C111.335,115.944 99.408,103.353 96.942,103.353 C94.526,103.353 90.143,111.042 87.594,114.415 C85.044,117.789 79.033,121.590 77.617,121.665 Z"/>
<path fill-rule="evenodd"  fill="rgb(51, 51, 51)"
 d="M70.966,80.771 C70.943,80.846 70.901,80.913 70.860,80.979 C70.843,81.007 70.836,81.039 70.816,81.065 C70.797,81.090 70.771,81.102 70.750,81.124 C70.695,81.183 70.639,81.242 70.570,81.284 C70.473,81.343 70.369,81.382 70.262,81.399 L66.455,82.006 C66.015,82.069 65.629,81.759 65.589,81.309 C65.550,80.859 65.872,80.435 66.312,80.357 L68.312,80.037 L36.293,51.522 C35.949,51.251 35.904,50.729 36.192,50.355 C36.479,49.983 36.991,49.901 37.335,50.173 L69.199,78.548 L69.049,76.813 C69.025,76.366 69.352,75.957 69.787,75.888 C70.221,75.818 70.609,76.113 70.664,76.555 L71.000,80.439 C71.010,80.548 70.999,80.661 70.966,80.771 Z"/>
</svg>
