<svg 
 xmlns="http://www.w3.org/2000/svg"
 xmlns:xlink="http://www.w3.org/1999/xlink"
 width="301.5px" height="148.5px">
<path fill-rule="evenodd"  fill="none"
 d="M-0.003,-0.001 L299.998,-0.001 L299.998,146.999 L-0.003,146.999 L-0.003,-0.001 Z"/>
<path fill-rule="evenodd"  fill="rgb(255, 222, 0)"
 d="M228.999,115.000 L221.999,124.000 L218.000,124.000 L209.000,110.000 L202.999,104.000 L206.999,101.000 L221.999,116.000 L229.999,110.000 L228.999,115.000 ZM200.000,54.000 L195.000,49.000 L186.000,39.000 L180.999,30.000 L189.000,36.000 L197.999,47.000 L202.999,55.000 L206.999,59.000 L212.000,60.000 L216.000,66.000 L216.000,71.000 L206.999,63.000 L200.000,54.000 ZM201.000,105.000 L185.000,117.000 C185.000,117.000 174.152,121.081 174.999,120.000 C175.846,118.919 196.000,100.000 196.000,100.000 L201.000,105.000 ZM161.000,23.000 L155.999,27.000 L151.999,22.000 L146.000,26.000 L142.999,22.000 L141.000,23.000 L131.000,31.000 L126.000,26.000 C126.000,26.000 133.051,22.628 134.999,22.000 C136.947,21.371 147.503,19.738 151.999,19.000 C156.496,18.262 172.000,24.000 172.000,24.000 L166.999,29.000 L161.000,23.000 ZM104.000,106.000 C104.000,106.000 99.024,102.310 98.145,102.002 C98.852,101.683 102.000,99.000 102.000,99.000 L120.999,119.000 L118.000,119.000 L104.000,106.000 ZM98.000,102.000 C98.002,101.963 98.062,101.973 98.145,102.002 C98.053,102.043 97.997,102.050 98.000,102.000 ZM70.000,84.000 L83.999,66.000 L87.999,71.000 L70.000,87.000 L70.000,84.000 ZM72.999,109.000 L77.000,113.000 L79.000,116.000 L79.000,119.000 C79.000,119.000 78.155,121.201 77.000,120.000 C75.844,118.799 76.655,120.371 73.999,116.000 C71.344,111.629 69.190,109.575 70.000,109.000 C70.809,108.425 72.999,109.000 72.999,109.000 Z"/>
<path fill-rule="evenodd"  fill="rgb(23, 204, 95)"
 d="M231.805,95.504 L229.622,97.562 L228.290,96.143 L225.400,98.655 L228.546,102.020 L230.800,100.001 L232.993,102.055 L230.592,104.207 L231.805,105.504 L229.622,107.562 L228.357,106.209 L225.908,108.403 L227.569,110.150 L228.800,109.001 L230.993,111.055 L229.634,112.324 L229.805,112.504 L227.622,114.562 L227.441,114.371 L224.487,117.128 L225.806,118.505 L223.621,120.562 L222.294,119.176 L218.199,122.999 L216.006,120.945 L220.220,117.011 L218.410,115.122 L215.199,117.999 L213.006,115.945 L216.338,112.959 L212.978,109.452 L211.199,110.999 L209.006,108.945 L210.908,107.292 L206.753,102.955 L203.199,105.999 L201.007,103.945 L204.684,100.795 L201.905,97.894 L198.390,100.936 L200.806,103.504 L198.622,105.562 L196.118,102.901 L192.019,106.447 L193.805,108.505 L191.622,110.562 L189.752,108.409 L186.554,111.175 L187.805,112.504 L185.622,114.562 L184.284,113.139 L180.625,116.305 L180.805,116.505 L178.621,118.562 L178.356,118.268 L175.198,120.999 L173.705,119.599 L171.622,121.562 L167.870,117.556 L165.213,119.876 L165.805,120.504 L163.622,122.561 L162.952,121.850 L158.475,125.758 L157.622,126.562 L152.604,121.182 L148.758,124.302 L150.806,126.505 L148.622,128.562 L146.422,126.196 L144.199,127.999 L142.006,125.945 L144.390,124.011 L142.033,121.475 L139.199,123.999 L137.006,121.945 L139.995,119.283 L137.312,116.398 L133.991,119.441 L136.805,122.504 L134.622,124.562 L131.779,121.468 L131.199,121.999 L129.006,119.945 L129.752,119.261 L127.136,116.414 L123.878,119.381 L125.805,121.504 L123.622,123.562 L116.998,116.262 L116.199,116.999 L114.006,114.945 L114.985,114.043 L112.740,111.569 L111.199,112.999 L109.006,110.945 L110.726,109.350 L107.508,105.803 L106.199,106.999 L104.006,104.945 L105.495,103.584 L102.788,100.600 L100.199,102.999 L98.006,100.945 L100.773,98.380 L97.750,95.048 L93.600,98.906 L95.806,101.504 L93.622,103.562 L91.403,100.948 L87.958,104.150 L90.805,107.505 L88.622,109.562 L85.761,106.192 L82.387,109.329 L85.805,113.504 L83.621,115.562 L80.190,111.370 L78.271,113.154 L81.806,117.505 L79.622,119.562 L76.075,115.196 L75.211,115.999 L73.006,113.948 L74.177,112.860 L72.027,110.214 L71.199,110.999 L69.006,108.945 L70.130,107.879 L68.194,105.495 L70.377,103.438 L72.307,105.814 L74.184,104.034 L71.072,100.232 L69.199,101.999 L67.006,99.945 L69.167,97.906 L67.194,95.495 L69.377,93.438 L71.349,95.847 L74.476,92.897 L71.219,89.059 L70.199,89.999 L68.006,87.945 L69.278,86.773 L68.194,85.495 L70.377,83.438 L71.482,84.740 L74.940,81.553 L73.194,79.495 L75.377,77.438 L77.145,79.521 L80.693,76.250 L78.194,73.495 L80.377,71.438 L82.899,74.217 L85.861,71.487 L82.194,67.495 L84.377,65.438 L88.066,69.454 L91.080,66.675 L87.194,62.495 L89.377,60.438 L93.286,64.642 L96.821,61.383 L93.194,57.495 L95.378,55.438 L99.027,59.350 L102.032,56.580 L99.193,53.495 L101.377,51.438 L104.238,54.547 L106.719,52.260 L103.194,48.495 L105.377,46.438 L108.925,50.226 L112.424,47.001 L109.194,43.495 L111.377,41.438 L114.630,44.968 L117.593,42.236 L112.194,36.495 L114.377,34.438 L119.799,40.203 L123.350,36.929 L119.194,32.495 L121.378,30.438 L125.556,34.896 L129.090,31.638 L125.194,27.495 L127.377,25.438 L131.296,29.605 L134.346,26.794 L132.194,24.495 L134.377,22.438 L136.551,24.761 L139.614,21.937 L139.194,21.495 L141.377,19.438 L141.820,19.904 L142.800,19.001 L144.993,21.055 L143.884,22.077 L146.558,24.890 L149.610,22.010 L148.194,20.495 L150.377,18.438 L151.792,19.951 L152.800,19.001 L154.993,21.055 L153.841,22.142 L156.991,25.510 L159.653,22.985 L159.194,22.495 L161.377,20.438 L161.830,20.921 L162.800,20.001 L164.993,22.055 L163.882,23.108 L167.461,26.922 L170.800,24.001 L172.993,26.055 L169.508,29.104 L172.309,32.090 L177.800,27.001 L179.993,29.055 L179.382,29.621 L182.576,33.097 L183.800,32.001 L185.993,34.055 L184.601,35.302 L187.340,38.283 L189.800,36.001 L191.993,38.055 L189.368,40.490 L192.131,43.497 L193.801,42.001 L195.993,44.055 L194.156,45.701 L196.966,48.760 L197.800,48.001 L199.993,50.055 L198.993,50.966 L201.789,54.010 L201.800,54.001 L203.993,56.055 L203.814,56.214 L206.961,59.639 L208.800,58.001 L210.993,60.055 L208.985,61.843 L212.247,65.393 L213.800,64.001 L215.993,66.055 L214.272,67.597 L217.068,70.640 L217.801,70.001 L219.993,72.055 L219.091,72.842 L222.281,76.314 L223.800,75.001 L225.993,77.055 L224.304,78.516 L227.121,81.582 L227.800,81.001 L229.993,83.055 L229.143,83.783 L229.805,84.504 L227.622,86.561 L226.863,85.735 L224.521,87.740 L228.510,91.992 L230.800,90.001 L232.993,92.055 L230.556,94.173 L231.805,95.504 ZM226.312,104.022 L223.134,100.625 L220.606,102.822 L223.846,106.232 L226.312,104.022 ZM87.353,91.546 L91.234,87.867 L87.979,84.280 L84.207,87.840 L87.353,91.546 ZM82.025,89.899 L78.602,93.128 L81.761,96.849 L85.176,93.611 L82.025,89.899 ZM93.411,85.802 L96.404,82.963 L93.141,79.411 L90.162,82.221 L93.411,85.802 ZM98.581,80.899 L101.623,78.014 L98.351,74.495 L95.323,77.352 L98.581,80.899 ZM210.185,86.779 L207.012,83.387 L204.348,85.712 L207.538,89.069 L210.185,86.779 ZM209.599,91.238 L212.401,94.187 L215.018,91.947 L212.228,88.964 L209.599,91.238 ZM204.969,81.202 L202.288,78.335 L199.615,80.730 L202.287,83.543 L204.969,81.202 ZM177.933,79.187 L181.160,82.618 L184.133,79.971 L180.875,76.492 L177.933,79.187 ZM178.827,74.305 L176.315,71.621 L173.354,74.318 L175.880,77.004 L178.827,74.305 ZM175.720,81.214 L172.089,84.540 L175.235,87.896 L178.919,84.615 L175.720,81.214 ZM173.668,79.031 L171.135,76.339 L167.503,79.647 L170.041,82.354 L173.668,79.031 ZM139.778,72.260 L143.034,69.284 L140.029,66.089 L136.827,69.057 L139.778,72.260 ZM134.627,71.095 L131.330,74.150 L134.272,77.291 L137.564,74.283 L134.627,71.095 ZM141.808,74.462 L144.817,77.727 L148.106,74.676 L145.087,71.466 L141.808,74.462 ZM146.848,79.931 L149.214,82.500 L152.563,79.414 L150.159,76.859 L146.848,79.931 ZM150.305,72.636 L153.790,69.404 L150.816,66.232 L147.302,69.443 L150.305,72.636 ZM152.359,74.819 L154.769,77.381 L158.256,74.168 L155.839,71.591 L152.359,74.819 ZM156.822,79.564 L159.740,82.666 L163.236,79.482 L160.305,76.355 L156.822,79.564 ZM160.462,72.135 L164.061,68.818 L161.623,66.226 L158.039,69.550 L160.462,72.135 ZM162.511,74.322 L165.454,77.461 L169.083,74.157 L166.115,71.001 L162.511,74.322 ZM165.285,81.667 L161.792,84.848 L164.350,87.567 L167.828,84.381 L165.285,81.667 ZM159.574,86.869 L156.130,90.005 L158.674,92.766 L162.137,89.594 L159.574,86.869 ZM157.521,84.686 L154.616,81.597 L151.245,84.704 L154.100,87.802 L157.521,84.686 ZM149.039,86.736 L145.860,89.666 L148.712,92.710 L151.883,89.822 L149.039,86.736 ZM147.009,84.532 L144.649,81.971 L141.441,84.947 L143.812,87.478 L147.009,84.532 ZM142.618,79.767 L139.594,76.486 L136.319,79.478 L139.392,82.759 L142.618,79.767 ZM134.104,81.501 L131.353,84.016 L134.431,87.361 L137.193,84.799 L134.104,81.501 ZM132.057,79.315 L129.130,76.189 L126.443,78.679 L129.324,81.811 L132.057,79.315 ZM124.242,80.719 L121.409,83.344 L124.279,86.421 L127.110,83.835 L124.242,80.719 ZM122.213,78.513 L119.136,75.169 L116.269,77.834 L119.365,81.152 L122.213,78.513 ZM124.413,76.474 L127.081,74.002 L123.968,70.678 L121.334,73.127 L124.413,76.474 ZM129.281,71.963 L132.596,68.891 L129.502,65.534 L126.165,68.636 L129.281,71.963 ZM134.796,66.852 L137.975,63.906 L134.840,60.572 L131.699,63.492 L134.796,66.852 ZM140.176,61.867 L143.681,58.619 L140.543,55.271 L137.038,58.530 L140.176,61.867 ZM142.230,64.050 L145.249,67.260 L148.768,64.046 L145.730,60.806 L142.230,64.050 ZM150.983,62.022 L154.579,58.736 L151.498,55.461 L147.931,58.766 L150.983,62.022 ZM153.031,64.208 L155.989,67.364 L159.569,64.043 L156.631,60.919 L153.031,64.208 ZM161.769,62.002 L164.734,59.252 L161.839,56.160 L158.846,58.895 L161.769,62.002 ZM163.823,64.186 L166.268,66.785 L169.231,64.054 L166.783,61.440 L163.823,64.186 ZM168.321,68.968 L171.301,72.136 L174.267,69.434 L171.279,66.242 L168.321,68.968 ZM176.486,67.414 L179.884,64.319 L176.841,61.117 L173.485,64.209 L176.486,67.414 ZM178.533,69.601 L181.039,72.278 L184.464,69.140 L181.947,66.491 L178.533,69.601 ZM183.087,74.465 L186.374,77.975 L189.886,74.847 L186.528,71.313 L183.087,74.465 ZM188.770,79.848 L191.579,82.780 L194.774,79.991 L191.948,77.017 L188.770,79.848 ZM186.528,81.845 L183.211,84.799 L185.942,87.701 L189.317,84.755 L186.528,81.845 ZM180.970,86.795 L177.576,89.818 L180.138,92.768 L183.680,89.676 L180.970,86.795 ZM175.337,91.812 L171.531,95.202 L174.154,97.991 L177.880,94.739 L175.337,91.812 ZM172.994,89.892 L169.877,86.567 L166.402,89.750 L169.480,93.022 L172.994,89.892 ZM164.190,91.776 L160.705,94.969 L163.675,98.192 L167.239,95.018 L164.190,91.776 ZM158.493,96.995 L155.388,99.839 L158.316,102.965 L161.434,100.188 L158.493,96.995 ZM156.463,94.792 L153.913,92.025 L150.760,94.897 L153.340,97.653 L156.463,94.792 ZM148.542,96.917 L145.648,99.552 L148.218,102.345 L151.128,99.679 L148.542,96.917 ZM146.494,94.730 L143.654,91.699 L140.823,94.308 L143.620,97.348 L146.494,94.730 ZM141.606,89.511 L139.242,86.987 L136.460,89.567 L138.794,92.103 L141.606,89.511 ZM134.261,91.607 L131.503,94.165 L133.839,96.669 L136.588,94.136 L134.261,91.607 ZM132.231,89.401 L129.138,86.039 L126.323,88.611 L129.459,91.973 L132.231,89.401 ZM124.108,90.635 L120.511,93.922 L123.681,97.332 L127.259,94.013 L124.108,90.635 ZM122.065,88.445 L119.209,85.383 L115.643,88.687 L118.471,91.728 L122.065,88.445 ZM117.164,83.191 L114.072,79.877 L110.521,83.178 L113.602,86.492 L117.164,83.191 ZM112.024,77.681 L109.353,74.818 L105.843,78.147 L108.476,80.979 L112.024,77.681 ZM114.221,75.638 L117.103,72.960 L114.405,70.027 L111.530,72.753 L114.221,75.638 ZM119.300,70.917 L121.916,68.486 L119.147,65.530 L116.582,67.963 L119.300,70.917 ZM124.113,66.444 L127.467,63.326 L124.671,60.292 L121.324,63.466 L124.113,66.444 ZM129.664,61.284 L132.783,58.385 L129.907,55.327 L126.848,58.227 L129.664,61.284 ZM134.980,56.342 L138.489,53.081 L135.565,49.961 L132.083,53.263 L134.980,56.342 ZM140.687,51.038 L144.235,47.740 L141.252,44.568 L137.742,47.897 L140.687,51.038 ZM142.740,53.229 L145.881,56.580 L149.444,53.278 L146.293,49.927 L142.740,53.229 ZM151.645,51.239 L154.636,48.466 L151.485,45.100 L148.490,47.884 L151.645,51.239 ZM153.698,53.422 L156.794,56.713 L159.792,53.973 L156.685,50.654 L153.698,53.422 ZM162.007,51.949 L165.285,48.954 L162.117,45.621 L158.885,48.615 L162.007,51.949 ZM164.054,54.136 L166.934,57.212 L170.227,54.156 L167.348,51.126 L164.054,54.136 ZM168.982,59.400 L171.437,62.022 L174.776,58.944 L172.292,56.329 L168.982,59.400 ZM177.064,56.997 L179.930,54.429 L177.334,51.653 L174.491,54.289 L177.064,56.997 ZM179.127,59.168 L182.102,62.299 L184.904,59.747 L181.975,56.616 L179.127,59.168 ZM184.166,64.471 L186.677,67.114 L186.800,67.001 L186.991,67.179 L189.645,64.817 L186.950,61.935 L184.166,64.471 ZM188.916,69.471 L192.128,72.850 L194.872,70.406 L191.690,67.003 L188.916,69.471 ZM194.190,75.021 L197.036,78.016 L199.763,75.636 L196.917,72.592 L194.190,75.021 ZM196.835,82.160 L193.649,84.941 L196.854,88.286 L200.025,85.518 L196.835,82.160 ZM191.387,86.916 L187.991,89.880 L191.164,93.254 L194.592,90.261 L191.387,86.916 ZM185.729,91.855 L182.098,95.025 L185.132,98.519 L188.902,95.228 L185.729,91.855 ZM179.840,96.996 L176.204,100.170 L179.377,103.543 L182.874,100.490 L179.840,96.996 ZM173.942,102.145 L170.523,105.130 L173.626,108.563 L177.115,105.518 L173.942,102.145 ZM171.893,99.966 L169.290,97.198 L166.001,100.128 L168.518,102.912 L171.893,99.966 ZM163.911,102.289 L163.622,102.562 L163.463,102.388 L160.362,105.150 L162.877,107.836 L166.258,104.885 L163.911,102.289 ZM158.121,107.146 L155.455,109.521 L157.934,112.151 L160.616,109.810 L158.121,107.146 ZM156.075,104.961 L153.176,101.866 L150.247,104.550 L153.080,107.629 L156.075,104.961 ZM148.034,106.576 L145.364,109.023 L148.155,112.015 L150.839,109.624 L148.034,106.576 ZM146.006,104.372 L143.430,101.573 L140.718,104.043 L143.320,106.832 L146.006,104.372 ZM141.402,99.368 L138.617,96.341 L135.883,98.860 L138.674,101.852 L141.402,99.368 ZM133.677,100.893 L130.077,104.210 L132.832,107.174 L136.456,103.872 L133.677,100.893 ZM131.633,98.702 L129.304,96.205 L125.722,99.527 L128.036,102.016 L131.633,98.702 ZM123.523,101.567 L120.309,104.549 L122.592,107.033 L125.830,104.049 L123.523,101.567 ZM121.482,99.373 L118.296,95.946 L115.093,98.872 L118.281,102.342 L121.482,99.373 ZM116.256,93.752 L113.443,90.726 L110.292,93.646 L113.067,96.666 L116.256,93.752 ZM111.402,88.531 L108.323,85.220 L105.210,88.114 L108.264,91.439 L111.402,88.531 ZM106.278,83.021 L103.666,80.211 L100.611,83.108 L103.178,85.903 L106.278,83.021 ZM103.800,75.950 L107.307,72.624 L104.043,69.125 L100.533,72.436 L103.800,75.950 ZM109.484,70.560 L112.374,67.820 L109.145,64.311 L106.225,67.066 L109.484,70.560 ZM114.551,65.755 L117.097,63.341 L113.849,59.873 L111.328,62.252 L114.551,65.755 ZM119.274,61.277 L122.638,58.086 L119.432,54.606 L116.031,57.814 L119.274,61.277 ZM124.815,56.021 L127.851,53.142 L124.622,49.709 L121.614,52.547 L124.815,56.021 ZM130.028,51.078 L133.514,47.773 L130.304,44.348 L126.804,47.650 L130.028,51.078 ZM135.691,45.708 L139.197,42.383 L135.995,38.979 L132.486,42.289 L135.691,45.708 ZM141.374,40.319 L144.359,37.489 L141.177,34.090 L138.177,36.920 L141.374,40.319 ZM143.429,42.504 L146.433,45.697 L149.433,42.908 L146.409,39.678 L143.429,42.504 ZM151.630,40.866 L154.800,37.920 L151.702,34.659 L148.585,37.614 L151.630,40.866 ZM153.682,43.058 L156.837,46.427 L160.052,43.448 L156.868,40.097 L153.682,43.058 ZM162.253,41.409 L165.199,38.678 L162.214,35.486 L159.162,38.156 L162.253,41.409 ZM164.317,43.582 L167.333,46.756 L170.282,44.113 L167.246,40.867 L164.317,43.582 ZM169.563,49.102 L172.427,52.116 L175.286,49.464 L172.467,46.449 L169.563,49.102 ZM177.486,47.424 L180.210,44.896 L177.326,41.821 L174.562,44.298 L177.486,47.424 ZM179.533,49.613 L182.165,52.427 L184.941,49.939 L182.261,47.082 L179.533,49.613 ZM184.210,54.613 L187.122,57.727 L189.886,55.209 L186.990,52.122 L184.210,54.613 ZM189.168,59.915 L191.887,62.822 L194.689,60.328 L191.936,57.394 L189.168,59.915 ZM193.931,65.008 L197.113,68.410 L199.923,65.907 L196.737,62.511 L193.931,65.008 ZM199.158,70.596 L202.025,73.662 L204.869,71.179 L201.971,68.090 L199.158,70.596 ZM204.523,76.333 L207.230,79.228 L210.084,76.737 L207.338,73.810 L204.523,76.333 ZM209.274,81.413 L212.456,84.815 L215.330,82.328 L212.131,78.918 L209.274,81.413 ZM214.499,86.999 L217.299,89.993 L220.195,87.514 L217.376,84.510 L214.499,86.999 ZM217.060,94.130 L214.461,96.355 L218.545,100.653 L221.091,98.440 L217.060,94.130 ZM222.413,114.964 L225.376,112.198 L223.673,110.406 L220.646,113.119 L222.413,114.964 ZM218.574,110.956 L221.610,108.235 L218.339,104.792 L215.245,107.482 L218.574,110.956 ZM213.175,105.321 L216.278,102.623 L212.179,98.309 L209.036,101.001 L213.175,105.321 ZM206.967,98.841 L210.119,96.141 L207.328,93.203 L204.177,95.929 L206.967,98.841 ZM202.107,93.768 L205.267,91.034 L202.086,87.687 L198.924,90.447 L202.107,93.768 ZM196.340,98.757 L199.835,95.734 L196.662,92.422 L193.213,95.433 L196.340,98.757 ZM190.059,104.191 L194.069,100.722 L190.951,97.407 L187.093,100.776 L190.059,104.191 ZM184.505,108.996 L187.792,106.152 L184.835,102.747 L181.426,105.722 L184.505,108.996 ZM178.620,114.088 L182.235,110.961 L179.164,107.697 L175.631,110.781 L178.620,114.088 ZM173.158,118.813 L176.351,116.050 L173.371,112.754 L170.132,115.582 L173.158,118.813 ZM168.087,113.399 L171.367,110.536 L168.263,107.103 L164.922,110.019 L168.087,113.399 ZM163.161,117.699 L165.826,115.373 L162.661,111.993 L159.985,114.329 L163.161,117.699 ZM157.813,122.368 L160.900,119.673 L157.724,116.303 L154.654,118.982 L157.813,122.368 ZM152.614,116.795 L155.672,114.126 L153.214,111.517 L150.197,114.204 L152.614,116.795 ZM146.726,122.117 L149.191,120.117 L149.006,119.945 L150.353,118.769 L147.956,116.200 L144.274,119.479 L146.726,122.117 ZM142.236,117.287 L145.914,114.011 L143.151,111.049 L139.525,114.372 L142.236,117.287 ZM137.485,112.178 L141.108,108.859 L138.500,106.063 L134.872,109.368 L137.485,112.178 ZM131.964,117.235 L135.272,114.204 L132.654,111.388 L129.354,114.394 L131.964,117.235 ZM127.327,112.187 L130.614,109.194 L127.871,106.244 L124.619,109.240 L127.327,112.187 ZM121.865,117.162 L125.109,114.207 L122.413,111.273 L119.204,114.230 L121.865,117.162 ZM117.191,112.010 L120.386,109.066 L118.110,106.589 L114.939,109.529 L117.191,112.010 ZM112.925,107.310 L116.082,104.382 L112.879,100.895 L109.722,103.780 L112.925,107.310 ZM107.709,101.561 L110.852,98.689 L108.092,95.685 L104.988,98.561 L107.709,101.561 ZM102.974,96.342 L106.064,93.478 L103.013,90.156 L99.947,93.006 L102.974,96.342 ZM97.929,90.782 L100.981,87.945 L98.434,85.172 L95.427,88.024 L97.929,90.782 ZM91.655,96.614 L95.732,92.824 L93.250,90.089 L89.297,93.837 L91.655,96.614 ZM86.013,101.858 L89.458,98.656 L87.120,95.901 L83.705,99.140 L86.013,101.858 ZM80.481,107.000 L83.816,103.900 L81.528,101.204 L78.267,104.297 L80.481,107.000 ZM76.373,110.818 L78.284,109.042 L76.089,106.361 L74.205,108.149 L76.373,110.818 ZM73.254,98.173 L76.362,101.969 L79.584,98.914 L76.420,95.187 L73.254,98.173 ZM76.881,83.839 L73.423,87.027 L76.658,90.838 L80.081,87.609 L76.881,83.839 ZM82.707,78.469 L79.086,81.807 L82.263,85.550 L85.964,82.059 L82.707,78.469 ZM87.888,73.693 L84.912,76.436 L88.146,80.000 L91.111,77.202 L87.888,73.693 ZM93.121,68.870 L90.094,71.660 L93.293,75.143 L96.309,72.299 L93.121,68.870 ZM98.865,63.575 L95.327,66.837 L98.491,70.240 L101.997,66.932 L98.865,63.575 ZM104.061,58.786 L101.071,61.542 L104.179,64.873 L107.114,62.104 L104.061,58.786 ZM108.768,54.447 L106.267,56.752 L109.297,60.045 L111.799,57.684 L108.768,54.447 ZM114.455,49.205 L110.973,52.414 L113.981,55.625 L117.399,52.400 L114.455,49.205 ZM119.647,44.419 L116.660,47.171 L119.582,50.341 L122.567,47.524 L119.647,44.419 ZM125.400,39.116 L121.852,42.385 L124.750,45.466 L128.253,42.160 L125.400,39.116 ZM131.144,33.821 L127.605,37.082 L130.435,40.101 L133.940,36.794 L131.144,33.821 ZM133.350,31.788 L136.122,34.736 L139.127,31.901 L136.394,28.981 L133.350,31.788 ZM141.679,24.110 L138.600,26.948 L141.309,29.842 L144.376,26.949 L141.679,24.110 ZM146.442,29.123 L143.359,32.032 L146.535,35.424 L149.636,32.485 L146.442,29.123 ZM151.659,24.200 L148.623,27.065 L151.812,30.421 L154.814,27.574 L151.659,24.200 ZM156.863,29.765 L153.878,32.595 L157.101,35.987 L160.170,33.301 L156.863,29.765 ZM161.705,25.172 L159.040,27.700 L162.429,31.325 L165.202,28.899 L161.705,25.172 ZM167.249,31.081 L164.473,33.510 L167.399,36.639 L170.108,34.129 L167.249,31.081 ZM172.159,36.315 L169.447,38.828 L172.517,42.111 L175.277,39.638 L172.159,36.315 ZM177.182,31.660 L174.360,34.275 L177.512,37.635 L180.342,35.099 L177.182,31.660 ZM182.367,37.304 L179.560,39.819 L182.410,42.856 L185.141,40.323 L182.367,37.304 ZM187.169,42.530 L184.461,45.042 L187.176,47.936 L189.896,45.499 L187.169,42.530 ZM191.922,47.703 L189.225,50.120 L192.104,53.189 L194.749,50.780 L191.922,47.703 ZM196.775,52.986 L194.154,55.373 L196.931,58.333 L199.548,56.005 L196.775,52.986 ZM201.573,58.208 L198.979,60.516 L202.164,63.911 L204.721,61.634 L201.573,58.208 ZM206.745,63.838 L204.212,66.094 L207.130,69.204 L209.653,67.003 L206.745,63.838 ZM212.038,69.599 L209.573,71.808 L212.345,74.763 L214.807,72.614 L212.038,69.599 ZM216.831,74.816 L214.392,76.944 L217.600,80.364 L220.012,78.278 L216.831,74.816 ZM224.841,83.535 L222.034,80.480 L219.647,82.545 L222.476,85.560 L224.841,83.535 ZM222.240,89.694 L219.341,92.177 L223.357,96.471 L226.244,93.961 L222.240,89.694 Z"/>
<path fill-rule="evenodd"  stroke="rgb(127, 127, 127)" stroke-width="3px" stroke-linecap="butt" stroke-linejoin="miter" fill="none"
 d="M79.000,126.000 C77.437,126.082 68.294,124.718 63.999,110.000 C63.275,107.517 57.909,89.057 67.000,77.000 C76.090,64.943 88.999,49.000 88.999,49.000 C88.999,49.000 93.712,50.218 95.000,49.000 C96.287,47.781 107.582,29.770 118.000,24.000 C128.417,18.230 137.382,12.762 154.000,14.000 C170.617,15.238 184.434,23.475 193.000,31.000 C201.565,38.525 205.710,51.848 209.000,53.000 C212.289,54.152 214.348,53.549 216.000,55.000 C217.652,56.450 219.110,61.917 225.999,68.000 C232.889,74.083 236.659,85.942 237.999,97.000 C239.340,108.058 232.337,123.845 227.999,127.000 C223.662,130.155 217.960,132.504 216.000,130.000 C214.038,127.496 209.785,122.760 209.000,120.000 C208.214,117.240 205.382,111.749 202.999,111.000 C200.617,110.250 192.602,118.302 188.000,121.000 C183.397,123.697 169.182,128.094 166.000,128.000 C162.817,127.906 158.312,132.576 154.999,133.000 C151.687,133.423 149.545,132.003 148.000,132.000 C146.454,131.996 142.679,134.576 141.000,134.000 C139.320,133.423 136.858,128.950 132.999,128.000 C129.141,127.050 120.643,127.417 114.000,123.000 C107.356,118.583 97.868,108.261 96.999,108.000 C96.131,107.738 92.811,114.277 90.000,118.000 C87.188,121.722 80.561,125.917 79.000,126.000 Z"/>
<path fill-rule="evenodd"  stroke="rgb(127, 127, 127)" stroke-width="3px" stroke-linecap="butt" stroke-linejoin="miter" fill="none"
 d="M77.617,121.665 C76.200,121.740 70.907,118.504 67.012,105.166 C66.355,102.915 63.487,89.187 71.733,78.261 C79.979,67.335 91.687,53.887 91.687,53.887 C91.687,53.887 95.962,54.991 97.129,53.887 C98.296,52.783 111.542,32.461 120.990,27.232 C130.438,22.003 138.570,17.048 153.641,18.170 C168.713,19.292 182.246,27.756 190.015,34.575 C197.784,41.395 202.543,55.468 205.526,56.512 C208.511,57.556 212.377,58.010 213.875,59.324 C215.374,60.639 215.697,65.593 221.946,71.105 C228.194,76.618 232.614,85.177 233.830,95.198 C235.045,105.218 230.694,118.713 226.759,121.571 C222.825,124.430 219.654,127.559 217.875,125.290 C216.097,123.021 211.239,116.729 210.527,114.228 C209.814,111.727 205.246,106.751 203.085,106.072 C200.923,105.393 188.655,115.690 184.480,118.134 C180.305,120.579 167.412,124.563 164.526,124.478 C161.639,124.392 157.554,128.625 154.548,129.009 C151.544,129.393 149.601,128.106 148.200,128.102 C146.798,128.099 143.374,130.437 141.851,129.915 C140.327,129.393 138.095,125.339 134.595,124.478 C131.095,123.617 123.387,123.949 117.361,119.947 C111.336,115.944 99.409,103.354 96.943,103.354 C94.526,103.354 90.144,111.042 87.594,114.416 C85.044,117.789 79.033,121.591 77.617,121.665 Z"/>
<path fill-rule="evenodd"  fill="rgb(255, 255, 255)"
 d="M271.709,55.521 L216.590,108.028 L218.629,108.358 C219.063,108.436 219.381,108.860 219.342,109.309 C219.304,109.759 218.923,110.069 218.486,110.006 L214.727,109.399 C214.622,109.382 214.519,109.343 214.424,109.285 C214.341,109.234 214.271,109.166 214.209,109.091 C214.200,109.081 214.189,109.076 214.180,109.065 C214.170,109.052 214.167,109.035 214.158,109.021 C214.105,108.943 214.059,108.861 214.032,108.771 C214.000,108.663 213.988,108.551 213.998,108.443 L214.330,104.560 C214.384,104.119 214.767,103.824 215.196,103.894 C215.626,103.963 215.948,104.371 215.925,104.817 L215.784,106.468 L270.681,54.172 C271.019,53.900 271.525,53.983 271.808,54.355 C272.093,54.728 272.049,55.249 271.709,55.521 Z"/>
</svg>
