<svg width="32" height="32" viewBox="0 0 32 32" fill="none" xmlns="http://www.w3.org/2000/svg">
<g id="&#230;&#146;&#173;&#230;&#148;&#190;">
<path id="Vector" d="M12.6684 20.4442H14.8906V11.5553H12.6684V20.4442ZM17.1128 20.4442H19.3351V11.5553H17.1128V20.4442ZM16.0017 27.1109C14.4647 27.1109 13.0203 26.8192 11.6684 26.2359C10.3166 25.6526 9.14062 24.8609 8.14062 23.8609C7.14062 22.8609 6.34896 21.685 5.76562 20.3331C5.18229 18.9813 4.89062 17.5368 4.89062 15.9998C4.89062 14.4627 5.18229 13.0183 5.76562 11.6664C6.34896 10.3146 7.14062 9.13867 8.14062 8.13867C9.14062 7.13867 10.3166 6.34701 11.6684 5.76367C13.0203 5.18034 14.4647 4.88867 16.0017 4.88867C17.5388 4.88867 18.9832 5.18034 20.3351 5.76367C21.6869 6.34701 22.8628 7.13867 23.8628 8.13867C24.8628 9.13867 25.6545 10.3146 26.2378 11.6664C26.8212 13.0183 27.1128 14.4627 27.1128 15.9998C27.1128 17.5368 26.8212 18.9813 26.2378 20.3331C25.6545 21.685 24.8628 22.8609 23.8628 23.8609C22.8628 24.8609 21.6869 25.6526 20.3351 26.2359C18.9832 26.8192 17.5388 27.1109 16.0017 27.1109ZM16.0017 24.8887C18.4832 24.8887 20.5851 24.0276 22.3073 22.3053C24.0295 20.5831 24.8906 18.4813 24.8906 15.9998C24.8906 13.5183 24.0295 11.4164 22.3073 9.69423C20.5851 7.97201 18.4832 7.11089 16.0017 7.11089C13.5203 7.11089 11.4184 7.97201 9.69618 9.69423C7.97396 11.4164 7.11285 13.5183 7.11285 15.9998C7.11285 18.4813 7.97396 20.5831 9.69618 22.3053C11.4184 24.0276 13.5203 24.8887 16.0017 24.8887Z" fill="#15C059"/>
</g>
</svg>
