<svg 
 xmlns="http://www.w3.org/2000/svg"
 xmlns:xlink="http://www.w3.org/1999/xlink"
 width="300.5px" height="147.5px">
<path fill-rule="evenodd"  fill="none"
 d="M-0.002,-0.001 L299.999,-0.001 L299.999,146.999 L-0.002,146.999 L-0.002,-0.001 Z"/>
<path fill-rule="evenodd"  stroke="rgb(127, 127, 127)" stroke-width="1px" stroke-dasharray="4, 2" stroke-linecap="butt" stroke-linejoin="miter" fill="none"
 d="M203.010,112.419 C205.148,111.270 206.162,109.276 205.968,107.394 C206.176,105.401 205.148,103.517 203.010,102.368 L156.921,77.698 C154.880,76.549 152.436,76.023 149.991,76.023 C147.547,76.023 145.090,76.549 143.048,77.698 L96.960,102.271 C94.821,103.421 93.905,105.414 94.002,107.297 C93.905,109.290 94.821,111.270 96.960,112.419 L143.048,137.006 C145.090,138.155 147.534,138.681 149.991,138.681 C152.436,138.681 154.880,138.155 156.921,137.006 L203.010,112.419 Z"/>
<path fill-rule="evenodd"  stroke="rgb(127, 127, 127)" stroke-width="1px" stroke-dasharray="4, 2" stroke-linecap="butt" stroke-linejoin="miter" fill="none"
 d="M94.997,42.998 L94.997,106.998 "/>
<path fill-rule="evenodd"  stroke="rgb(127, 127, 127)" stroke-width="1px" stroke-dasharray="4, 2" stroke-linecap="butt" stroke-linejoin="miter" fill="none"
 d="M205.997,42.998 L205.997,106.998 "/>
<path fill-rule="evenodd"  stroke="rgb(127, 127, 127)" stroke-width="1px" stroke-dasharray="4, 2" stroke-linecap="butt" stroke-linejoin="miter" fill="none"
 d="M150.997,8.998 L150.997,71.998 "/>
<path fill-rule="evenodd"  stroke="rgb(28, 227, 107)" stroke-width="1px" stroke-linecap="butt" stroke-linejoin="miter" fill="none"
 d="M150.054,128.006 L115.990,108.586 L150.054,89.235 L184.110,108.646 L150.054,128.006 Z"/>
<path fill-rule="evenodd"  stroke="rgb(28, 227, 107)" stroke-width="1px" stroke-linecap="butt" stroke-linejoin="miter" fill="none"
 d="M147.330,123.399 L114.266,104.979 L152.871,84.628 L187.834,105.039 L147.330,123.399 Z"/>
<path fill-rule="evenodd"  stroke="rgb(28, 227, 107)" stroke-width="1px" stroke-linecap="butt" stroke-linejoin="miter" fill="none"
 d="M144.605,118.793 L110.542,100.373 L153.687,80.021 L190.559,101.433 L144.605,118.793 Z"/>
<path fill-rule="evenodd"  stroke="rgb(28, 227, 107)" stroke-width="1px" stroke-linecap="butt" stroke-linejoin="miter" fill="none"
 d="M141.881,114.284 L107.817,96.865 L155.503,75.513 L193.283,96.925 L141.881,114.284 Z"/>
<path fill-rule="evenodd"  stroke="rgb(28, 227, 107)" stroke-width="1px" stroke-linecap="butt" stroke-linejoin="miter" fill="none"
 d="M139.065,109.776 L105.001,92.357 L157.411,71.005 L196.007,92.417 L139.065,109.776 Z"/>
<path fill-rule="evenodd"  stroke="rgb(28, 227, 107)" stroke-width="1px" stroke-linecap="butt" stroke-linejoin="miter" fill="none"
 d="M136.065,105.776 L103.001,88.356 L158.411,65.005 L199.008,88.416 L136.065,105.776 Z"/>
<path fill-rule="evenodd"  stroke="rgb(127, 127, 127)" stroke-width="1px" stroke-dasharray="4, 2" stroke-linecap="butt" stroke-linejoin="miter" fill="none"
 d="M150.997,70.998 L150.997,138.998 "/>
<path fill-rule="evenodd"  stroke="rgb(127, 127, 127)" stroke-width="1px" stroke-dasharray="4, 2" stroke-linecap="butt" stroke-linejoin="miter" fill="none"
 d="M203.010,44.419 C205.148,43.270 206.162,41.276 205.968,39.394 C206.176,37.400 205.148,35.517 203.010,34.368 L156.921,9.698 C154.880,8.549 152.436,8.023 149.991,8.023 C147.547,8.023 145.090,8.549 143.048,9.698 L96.960,34.271 C94.821,35.421 93.905,37.414 94.002,39.296 C93.905,41.290 94.821,43.270 96.960,44.419 L143.048,69.006 C145.090,70.155 147.534,70.681 149.991,70.681 C152.436,70.681 154.880,70.155 156.921,69.006 L203.010,44.419 Z"/>
<path fill-rule="evenodd"  fill="rgb(255, 255, 255)"
 d="M242.570,90.229 C244.262,92.057 245.071,94.182 244.994,96.602 C244.917,99.023 243.988,101.086 242.207,102.789 C239.942,104.930 237.226,106.000 234.060,106.000 C230.850,105.958 228.134,104.888 225.913,102.789 L225.715,102.602 C223.891,100.898 222.648,98.893 221.988,96.587 C221.328,94.280 221.318,91.974 221.955,89.667 C222.593,87.361 223.813,85.345 225.616,83.621 L225.715,83.527 L225.913,83.340 L221.725,83.340 C221.527,83.340 221.356,83.273 221.213,83.138 C221.070,83.003 220.998,82.842 220.998,82.654 C220.998,82.488 221.070,82.337 221.213,82.202 C221.356,82.067 221.527,82.000 221.725,82.000 L227.793,82.000 C227.991,82.000 228.156,82.067 228.288,82.202 C228.420,82.337 228.486,82.488 228.486,82.654 L228.486,88.234 C228.486,88.400 228.420,88.550 228.288,88.685 C228.156,88.821 227.991,88.888 227.793,88.888 C227.596,88.888 227.430,88.821 227.298,88.685 C227.166,88.550 227.101,88.400 227.101,88.234 L227.101,84.088 L226.738,84.462 L226.606,84.556 C224.099,86.945 222.868,89.802 222.912,93.127 C222.956,96.473 224.220,99.319 226.705,101.668 L226.903,101.854 C228.882,103.725 231.268,104.660 234.060,104.660 C236.874,104.660 239.249,103.725 241.184,101.854 C242.723,100.400 243.526,98.634 243.592,96.556 C243.658,94.478 242.976,92.670 241.547,91.132 C240.293,89.990 238.777,89.413 236.996,89.403 C235.215,89.392 233.664,89.948 232.345,91.070 C231.399,91.984 230.927,93.075 230.927,94.343 C230.970,95.590 231.454,96.639 232.378,97.491 C233.125,98.239 234.016,98.613 235.049,98.613 C236.083,98.613 236.973,98.280 237.721,97.615 C238.271,97.075 238.545,96.431 238.545,95.683 C238.545,94.935 238.271,94.291 237.721,93.751 C237.259,93.335 236.731,93.127 236.138,93.127 C235.544,93.169 235.049,93.376 234.653,93.751 C234.346,94.062 234.192,94.416 234.192,94.810 C234.192,95.226 234.346,95.558 234.653,95.808 C234.786,95.932 234.852,96.088 234.852,96.275 C234.852,96.462 234.786,96.618 234.653,96.743 C234.346,97.055 234.016,97.065 233.664,96.774 C233.114,96.254 232.818,95.610 232.774,94.841 C232.774,94.052 233.048,93.397 233.598,92.878 C234.302,92.171 235.137,91.818 236.105,91.818 C237.072,91.777 237.908,92.088 238.612,92.753 C238.678,92.753 238.711,92.784 238.711,92.846 C239.524,93.615 239.930,94.566 239.930,95.699 C239.930,96.831 239.524,97.792 238.711,98.582 C237.633,99.538 236.402,99.995 235.016,99.953 C233.587,99.912 232.378,99.413 231.389,98.457 C230.157,97.335 229.541,95.964 229.541,94.343 C229.498,92.743 230.080,91.361 231.290,90.197 L231.389,90.104 C232.971,88.732 234.840,88.057 236.996,88.078 C239.150,88.099 241.008,88.815 242.570,90.229 L242.570,90.229 Z"/>
</svg>
