<svg 
 xmlns="http://www.w3.org/2000/svg"
 xmlns:xlink="http://www.w3.org/1999/xlink"
 width="301.5px" height="148.5px">
<path fill-rule="evenodd"  fill="none"
 d="M-0.003,-0.001 L299.999,-0.001 L299.999,146.999 L-0.003,146.999 L-0.003,-0.001 Z"/>
<path fill-rule="evenodd"  stroke="rgb(127, 127, 127)" stroke-width="1px" stroke-dasharray="4, 2" stroke-linecap="butt" stroke-linejoin="miter" fill="none"
 d="M149.998,24.000 C177.612,24.000 199.998,46.386 199.998,74.000 C199.998,101.614 177.612,124.000 149.998,124.000 C122.385,124.000 99.999,101.614 99.999,74.000 C99.999,46.386 122.385,24.000 149.998,24.000 Z"/>
<path fill-rule="evenodd"  stroke="rgb(127, 127, 127)" stroke-width="3px" stroke-linecap="butt" stroke-linejoin="miter" fill="none"
 d="M185.362,109.346 L150.007,123.991 L114.651,109.346 L100.007,73.990 L114.651,38.635 L150.007,23.990 L185.362,38.635 L200.007,73.990 L185.362,109.346 Z"/>
<path fill-rule="evenodd"  fill="rgb(23, 204, 95)"
 d="M105.998,58.000 L148.998,75.000 L150.999,73.000 L107.998,56.000 L105.998,58.000 Z"/>
<path fill-rule="evenodd"  fill="rgb(23, 204, 95)"
 d="M149.998,71.000 C151.655,71.000 152.998,72.343 152.998,74.000 C152.998,75.657 151.655,77.000 149.998,77.000 C148.342,77.000 146.999,75.657 146.999,74.000 C146.999,72.343 148.342,71.000 149.998,71.000 Z"/>
<path fill-rule="evenodd"  fill="rgb(23, 204, 95)"
 d="M107.998,54.000 C109.655,54.000 110.999,55.343 110.999,57.000 C110.999,58.657 109.655,60.000 107.998,60.000 C106.342,60.000 104.998,58.657 104.998,57.000 C104.998,55.343 106.342,54.000 107.998,54.000 Z"/>
</svg>
