<svg 
 xmlns="http://www.w3.org/2000/svg"
 xmlns:xlink="http://www.w3.org/1999/xlink"
 width="301.5px" height="148.5px">
<path fill-rule="evenodd"  fill="none"
 d="M-0.002,-0.001 L299.999,-0.001 L299.999,146.999 L-0.002,146.999 L-0.002,-0.001 Z"/>
<path fill-rule="evenodd"  fill="rgb(255, 255, 255)"
 d="M140.001,72.001 L153.001,72.001 L153.001,68.001 L160.002,74.001 L153.001,80.001 L153.001,76.001 L140.001,76.001 L140.001,72.001 Z"/>
<path fill-rule="evenodd"  stroke="rgb(127, 127, 127)" stroke-width="3px" stroke-linecap="butt" stroke-linejoin="miter" fill="none"
 d="M84.999,29.000 C109.851,29.000 129.999,49.147 129.999,74.000 C129.999,98.853 109.851,119.000 84.999,119.000 C60.146,119.000 39.999,98.853 39.999,74.000 C39.999,49.147 60.146,29.000 84.999,29.000 Z"/>
<path fill-rule="evenodd"  stroke="rgb(23, 204, 95)" stroke-width="3px" stroke-linecap="butt" stroke-linejoin="miter" fill="none"
 d="M247.223,106.223 L222.130,119.009 L194.313,114.603 L174.399,94.688 L169.993,66.872 L182.779,41.778 L207.872,28.993 L235.689,33.398 L255.603,53.313 L260.009,81.129 L247.223,106.223 Z"/>
</svg>
