<svg width="96" height="71" viewBox="0 0 96 71" fill="none" xmlns="http://www.w3.org/2000/svg">
<g id="Frame 41193">
<g id="&#230;&#137;&#147;&#229;&#141;&#176;&#231;&#155;&#152;">
<g id="-s-&#229;&#133;&#168;&#233;&#131;&#168;&#229;&#136;&#135;&#231;&#137;&#135;">
<path id="&#229;&#133;&#168;&#233;&#131;&#168;&#229;&#136;&#135;&#231;&#137;&#135;" d="M61.0235 17.4046L49.2456 11.0882C48.8887 10.815 48.4516 10.667 48.0021 10.667C47.5527 10.667 47.1157 10.815 46.7588 11.0882L34.9809 17.4046C34.9779 17.4757 34.9493 17.5432 34.9002 17.5947C34.8511 17.6463 34.785 17.6782 34.7142 17.6846C34.5808 18.2459 34.7142 18.8073 35.1062 18.9473L39.2931 21.1927L35.7596 23.1582C35.5706 23.2813 35.4131 23.4471 35.2997 23.6421C35.1862 23.837 35.12 24.0558 35.1062 24.2809C35.1029 24.5098 35.162 24.7352 35.2771 24.933C35.3922 25.1308 35.559 25.2935 35.7596 25.4037L38.7704 27.0877L35.7596 28.7719C35.5707 28.8951 35.4133 29.0609 35.2998 29.2558C35.1864 29.4507 35.1201 29.6694 35.1062 29.8945C35.1029 30.1233 35.162 30.3487 35.2771 30.5465C35.3922 30.7443 35.559 30.9071 35.7596 31.0173L46.7535 36.9123C47.0913 37.174 47.5036 37.3216 47.9309 37.3337C48.3991 37.324 48.8542 37.1774 49.2402 36.9123L60.2328 31.0173C60.4219 30.8941 60.5795 30.7285 60.6932 30.5335C60.8069 30.3386 60.8734 30.1197 60.8875 29.8945C60.8905 29.6656 60.8312 29.4402 60.7158 29.2424C60.6005 29.0447 60.4336 28.882 60.2328 28.7719L57.2233 27.0877L60.2328 25.4037C60.4219 25.2805 60.5795 25.1149 60.6932 24.92C60.8069 24.725 60.8734 24.5061 60.8875 24.2809C60.8906 24.052 60.8314 23.8265 60.7161 23.6287C60.6007 23.4309 60.4337 23.2682 60.2328 23.1582L56.83 21.1927L61.0168 18.9473C61.1501 18.8073 61.2835 18.8074 61.2835 18.6661C61.4168 18.1047 61.2835 17.5433 61.0168 17.4033L61.0235 17.4046ZM58.5367 29.8973L48.4602 35.3708C48.3408 35.4399 48.2054 35.4763 48.0675 35.4763C47.9296 35.4763 47.7942 35.4399 47.6748 35.3708L37.597 29.8973L40.8679 28.0731L46.8882 31.3013C47.2261 31.5628 47.6384 31.7104 48.0655 31.7227C48.5338 31.713 48.9889 31.5665 49.3749 31.3013L55.3953 28.0731L58.5367 29.8973ZM58.5367 24.2822L55.2645 26.1077L53.3018 27.0905L48.3282 29.7573C48.2088 29.8262 48.0734 29.8624 47.9355 29.8624C47.7976 29.8624 47.6622 29.8262 47.5428 29.7573L42.5693 27.0905L40.6065 26.1077L37.337 24.2822L41.2639 22.1768L46.8908 25.265C47.2479 25.5379 47.6848 25.6856 48.1342 25.6856C48.5835 25.6856 49.0205 25.5379 49.3776 25.265L55.0045 22.1768L58.5367 24.2822Z" fill="#4E5969"/>
</g>
</g>
</g>
</svg>
