<svg width="96" height="71" viewBox="0 0 96 71" fill="none" xmlns="http://www.w3.org/2000/svg">
<g id="Frame 41192">
<g id="&#229;&#138;&#160;&#232;&#189;&#189;">
<path id="Vector" d="M47.9974 9.33398C48.351 9.33398 48.6902 9.47446 48.9402 9.72451C49.1903 9.97456 49.3307 10.3137 49.3307 10.6673V14.6673C49.3307 15.0209 49.1903 15.3601 48.9402 15.6101C48.6902 15.8602 48.351 16.0007 47.9974 16.0007C47.6438 16.0007 47.3046 15.8602 47.0546 15.6101C46.8045 15.3601 46.6641 15.0209 46.6641 14.6673V10.6673C46.6641 10.3137 46.8045 9.97456 47.0546 9.72451C47.3046 9.47446 47.6438 9.33398 47.9974 9.33398Z" fill="#4E5969"/>
<path id="Vector_2" d="M55.3325 11.2978C55.6388 11.4746 55.8622 11.7658 55.9537 12.1074C56.0453 12.4489 55.9974 12.8129 55.8205 13.1191L53.8205 16.5838C53.7336 16.7366 53.6173 16.8708 53.4784 16.9785C53.3394 17.0863 53.1805 17.1654 53.0108 17.2115C52.8411 17.2576 52.664 17.2696 52.4896 17.247C52.3152 17.2243 52.1471 17.1674 51.9948 17.0795C51.8425 16.9915 51.7091 16.8744 51.6023 16.7347C51.4955 16.595 51.4174 16.4356 51.3724 16.2656C51.3275 16.0956 51.3166 15.9184 51.3404 15.7441C51.3642 15.5699 51.4223 15.4021 51.5112 15.2504L53.5112 11.7858C53.688 11.4795 53.9793 11.2561 54.3208 11.1646C54.6624 11.0731 55.0263 11.121 55.3325 11.2978Z" fill="#4E5969" fill-opacity="0.9"/>
<path id="Vector_3" d="M60.7028 16.6666C60.8796 16.9729 60.9275 17.3368 60.836 17.6784C60.7445 18.0199 60.5211 18.3111 60.2148 18.488L56.7502 20.488C56.4441 20.662 56.0816 20.7079 55.7418 20.6156C55.402 20.5234 55.1125 20.3005 54.9365 19.9956C54.7604 19.6906 54.7121 19.3285 54.8021 18.9881C54.8921 18.6477 55.1131 18.3567 55.4168 18.1786L58.8815 16.1786C59.1877 16.0018 59.5517 15.9539 59.8932 16.0454C60.2348 16.1369 60.526 16.3604 60.7028 16.6666Z" fill="#4E5969" fill-opacity="0.8"/>
<path id="Vector_4" d="M62.6667 24.0003C62.6667 24.1754 62.6322 24.3488 62.5652 24.5106C62.4982 24.6723 62.4 24.8193 62.2761 24.9431C62.1523 25.0669 62.0053 25.1652 61.8436 25.2322C61.6818 25.2992 61.5084 25.3337 61.3333 25.3337H57.3333C56.9797 25.3337 56.6406 25.1932 56.3905 24.9431C56.1405 24.6931 56 24.3539 56 24.0003C56 23.6467 56.1405 23.3076 56.3905 23.0575C56.6406 22.8075 56.9797 22.667 57.3333 22.667H61.3333C61.5084 22.667 61.6818 22.7015 61.8436 22.7685C62.0053 22.8355 62.1523 22.9337 62.2761 23.0575C62.4 23.1813 62.4982 23.3283 62.5652 23.4901C62.6322 23.6518 62.6667 23.8252 62.6667 24.0003Z" fill="#4E5969" fill-opacity="0.7"/>
<path id="Vector_5" d="M60.7025 31.3325C60.5257 31.6388 60.2345 31.8622 59.8929 31.9537C59.5513 32.0453 59.1874 31.9974 58.8812 31.8205L55.4165 29.8205C55.2637 29.7336 55.1295 29.6173 55.0218 29.4784C54.914 29.3394 54.8348 29.1805 54.7888 29.0108C54.7427 28.8411 54.7306 28.664 54.7533 28.4896C54.776 28.3152 54.8329 28.1471 54.9208 27.9948C55.0088 27.8425 55.1259 27.7091 55.2656 27.6023C55.4053 27.4955 55.5647 27.4174 55.7347 27.3724C55.9047 27.3275 56.0819 27.3166 56.2561 27.3404C56.4304 27.3642 56.5982 27.4223 56.7498 27.5112L60.2145 29.5112C60.5207 29.688 60.7442 29.9793 60.8357 30.3208C60.9272 30.6624 60.8793 31.0263 60.7025 31.3325Z" fill="#4E5969" fill-opacity="0.6"/>
<path id="Vector_6" d="M55.3315 36.7009C55.0253 36.8777 54.6613 36.9256 54.3198 36.8341C53.9782 36.7426 53.687 36.5191 53.5102 36.2129L51.5102 32.7482C51.3362 32.4421 51.2903 32.0796 51.3825 31.7399C51.4748 31.4001 51.6977 31.1106 52.0026 30.9345C52.3075 30.7585 52.6697 30.7102 53.0101 30.8002C53.3505 30.8901 53.6415 31.1111 53.8195 31.4149L55.8195 34.8795C55.9963 35.1858 56.0442 35.5497 55.9527 35.8913C55.8612 36.2328 55.6377 36.5241 55.3315 36.7009Z" fill="#4E5969" fill-opacity="0.5"/>
<path id="Vector_7" d="M47.9974 38.6667C47.8223 38.6667 47.6489 38.6322 47.4872 38.5652C47.3254 38.4982 47.1784 38.4 47.0546 38.2761C46.9308 38.1523 46.8326 38.0053 46.7656 37.8436C46.6986 37.6818 46.6641 37.5084 46.6641 37.3333V33.3333C46.6641 32.9797 46.8045 32.6406 47.0546 32.3905C47.3046 32.1405 47.6438 32 47.9974 32C48.351 32 48.6902 32.1405 48.9402 32.3905C49.1903 32.6406 49.3307 32.9797 49.3307 33.3333V37.3333C49.3307 37.5084 49.2962 37.6818 49.2292 37.8436C49.1622 38.0053 49.064 38.1523 48.9402 38.2761C48.8164 38.4 48.6694 38.4982 48.5076 38.5652C48.3459 38.6322 48.1725 38.6667 47.9974 38.6667Z" fill="#4E5969" fill-opacity="0.4"/>
<path id="Vector_8" d="M40.6666 36.7015C40.3604 36.5247 40.1369 36.2335 40.0454 35.8919C39.9539 35.5504 40.0018 35.1864 40.1786 34.8802L42.1786 31.4155C42.2655 31.2627 42.3818 31.1285 42.5208 31.0208C42.6598 30.913 42.8187 30.8339 42.9884 30.7878C43.1581 30.7417 43.3352 30.7297 43.5096 30.7523C43.684 30.775 43.8521 30.8319 44.0044 30.9199C44.1567 31.0078 44.2901 31.1249 44.3969 31.2646C44.5037 31.4043 44.5818 31.5637 44.6268 31.7337C44.6717 31.9037 44.6826 32.0809 44.6588 32.2552C44.6349 32.4294 44.5769 32.5972 44.488 32.7489L42.488 36.2135C42.3111 36.5198 42.0199 36.7432 41.6784 36.8347C41.3368 36.9263 40.9729 36.8783 40.6666 36.7015Z" fill="#4E5969" fill-opacity="0.3"/>
<path id="Vector_9" d="M35.2958 31.3335C35.119 31.0272 35.0711 30.6633 35.1626 30.3217C35.2541 29.9802 35.4776 29.689 35.7838 29.5121L39.2485 27.5121C39.5546 27.3381 39.917 27.2922 40.2568 27.3845C40.5966 27.4767 40.8861 27.6996 41.0622 28.0045C41.2382 28.3095 41.2865 28.6716 41.1965 29.012C41.1065 29.3524 40.8856 29.6434 40.5818 29.8215L37.1172 31.8215C36.8109 31.9983 36.447 32.0462 36.1054 31.9547C35.7639 31.8632 35.4726 31.6397 35.2958 31.3335Z" fill="#4E5969" fill-opacity="0.2"/>
<path id="Vector_10" d="M33.3359 24.0003C33.3359 23.6467 33.4764 23.3076 33.7265 23.0575C33.9765 22.8075 34.3156 22.667 34.6693 22.667H38.6693C39.0229 22.667 39.362 22.8075 39.6121 23.0575C39.8621 23.3076 40.0026 23.6467 40.0026 24.0003C40.0026 24.3539 39.8621 24.6931 39.6121 24.9431C39.362 25.1932 39.0229 25.3337 38.6693 25.3337H34.6693C34.3156 25.3337 33.9765 25.1932 33.7265 24.9431C33.4764 24.6931 33.3359 24.3539 33.3359 24.0003Z" fill="#4E5969" fill-opacity="0.1"/>
<path id="Vector_11" d="M35.2958 16.6666C35.4726 16.3604 35.7639 16.1369 36.1054 16.0454C36.447 15.9539 36.8109 16.0018 37.1172 16.1786L40.5818 18.1786C40.7347 18.2655 40.8688 18.3818 40.9766 18.5208C41.0843 18.6598 41.1635 18.8187 41.2096 18.9884C41.2556 19.1581 41.2677 19.3352 41.245 19.5096C41.2224 19.684 41.1654 19.8521 41.0775 20.0044C40.9896 20.1567 40.8724 20.2901 40.7327 20.3969C40.593 20.5037 40.4336 20.5818 40.2636 20.6268C40.0936 20.6717 39.9164 20.6826 39.7422 20.6588C39.568 20.6349 39.4002 20.5769 39.2485 20.488L35.7838 18.488C35.4776 18.3111 35.2541 18.0199 35.1626 17.6784C35.0711 17.3368 35.119 16.9729 35.2958 16.6666Z" fill="#E1E4E9"/>
<path id="Vector_12" d="M40.6666 11.2978C40.9729 11.121 41.3368 11.0731 41.6784 11.1646C42.0199 11.2561 42.3111 11.4795 42.488 11.7858L44.488 15.2504C44.662 15.5565 44.7079 15.919 44.6156 16.2588C44.5234 16.5986 44.3005 16.8881 43.9956 17.0641C43.6906 17.2402 43.3285 17.2885 42.9881 17.1985C42.6477 17.1085 42.3567 16.8875 42.1786 16.5838L40.1786 13.1191C40.0018 12.8129 39.9539 12.4489 40.0454 12.1074C40.1369 11.7658 40.3604 11.4746 40.6666 11.2978Z" fill="#F3F4F6"/>
</g>
</g>
</svg>
