<svg 
 xmlns="http://www.w3.org/2000/svg"
 xmlns:xlink="http://www.w3.org/1999/xlink"
 width="300px" height="147px">
<path fill-rule="evenodd"  fill="none"
 d="M-0.002,-0.001 L299.998,-0.001 L299.998,146.998 L-0.002,146.998 L-0.002,-0.001 Z"/>
<path fill-rule="evenodd"  fill="rgb(77, 93, 84)"
 d="M77.999,6.000 L77.999,131.000 L80.999,132.000 L90.606,122.886 L101.999,134.000 L102.308,111.785 L119.999,95.000 L138.999,114.000 L138.999,133.000 L148.999,123.000 L159.000,132.000 L160.999,111.000 L178.999,95.000 L197.000,111.000 L197.999,132.000 L207.999,123.000 L221.999,133.000 L221.999,6.000 L77.999,6.000 Z"/>
<path fill-rule="evenodd"  fill="rgb(255, 255, 255)"
 d="M205.000,15.000 L209.000,11.000 L213.999,15.000 L209.999,19.000 L205.000,15.000 ZM175.999,43.000 L179.999,39.000 L183.999,43.000 L179.999,47.000 L175.999,43.000 ZM144.999,71.000 L149.999,67.000 L154.999,71.000 L149.999,75.000 L144.999,71.000 ZM145.999,15.000 L149.999,11.000 L153.999,15.000 L149.999,19.000 L145.999,15.000 ZM115.999,43.000 L120.999,39.000 L124.999,43.000 L119.999,47.000 L115.999,43.000 ZM86.000,71.000 L90.999,66.000 L94.999,70.000 L89.999,75.000 L86.000,71.000 ZM86.999,15.000 L90.999,11.000 L93.999,14.000 L89.999,18.000 L86.999,15.000 ZM213.999,72.000 L209.999,76.000 L205.000,71.000 L209.000,67.000 L213.999,72.000 Z"/>
<path fill-rule="evenodd"  fill="rgb(23, 204, 95)"
 d="M79.075,9.161 L160.338,87.425 L158.924,88.839 L77.660,10.575 L79.075,9.161 Z"/>
<path fill-rule="evenodd"  fill="rgb(23, 204, 95)"
 d="M136.075,6.161 L220.338,87.425 L218.924,88.839 L134.660,7.575 L136.075,6.161 Z"/>
<path fill-rule="evenodd"  fill="rgb(23, 204, 95)"
 d="M220.577,9.016 L138.136,87.575 L139.553,88.995 L221.994,10.436 L220.577,9.016 Z"/>
<path fill-rule="evenodd"  fill="rgb(23, 204, 95)"
 d="M79.422,88.995 L164.869,7.424 L163.452,6.005 L78.004,87.575 "/>
<path fill-rule="evenodd"  fill="rgb(23, 204, 95)"
 d="M79.422,31.995 L105.870,7.424 L104.452,6.005 L78.004,30.575 "/>
<path fill-rule="evenodd"  fill="rgb(23, 204, 95)"
 d="M220.570,31.995 L194.005,7.424 L195.428,6.005 L221.994,30.575 "/>
<path fill-rule="evenodd"  fill="rgb(23, 204, 95)"
 d="M100.570,88.995 L78.004,67.424 L79.428,66.005 L101.994,87.575 "/>
<path fill-rule="evenodd"  fill="rgb(23, 204, 95)"
 d="M199.428,88.995 L221.994,67.424 L220.571,66.005 L198.004,87.575 "/>
<path fill-rule="evenodd"  fill="rgb(115, 101, 10)"
 d="M99.999,88.000 L122.999,88.000 L122.999,133.000 L99.999,133.000 L99.999,88.000 Z"/>
<path fill-rule="evenodd"  fill="rgb(115, 101, 10)"
 d="M175.999,88.000 L198.999,88.000 L198.999,133.000 L175.999,133.000 L175.999,88.000 Z"/>
<path fill-rule="evenodd"  fill="rgb(115, 101, 10)"
 d="M138.000,88.000 L160.999,88.000 L160.999,133.000 L138.000,133.000 L138.000,88.000 Z"/>
<path fill-rule="evenodd"  fill="rgb(255, 222, 0)"
 d="M99.999,87.000 L122.999,87.000 L122.999,89.000 L99.999,89.000 L99.999,87.000 Z"/>
<path fill-rule="evenodd"  fill="rgb(255, 222, 0)"
 d="M175.999,87.000 L198.999,87.000 L198.999,89.000 L175.999,89.000 L175.999,87.000 Z"/>
<path fill-rule="evenodd"  fill="rgb(255, 222, 0)"
 d="M138.000,87.000 L160.999,87.000 L160.999,89.000 L138.000,89.000 L138.000,87.000 Z"/>
<path fill-rule="evenodd"  fill="rgb(255, 222, 0)"
 d="M79.000,66.000 C79.551,66.000 79.999,66.447 79.999,67.000 L79.999,88.000 C79.999,88.552 79.551,89.000 79.000,89.000 C78.447,89.000 77.999,88.552 77.999,88.000 L77.999,67.000 C77.999,66.447 78.447,66.000 79.000,66.000 Z"/>
<path fill-rule="evenodd"  fill="rgb(115, 101, 10)"
 d="M77.999,89.000 L79.999,89.000 L79.999,133.000 L77.999,133.000 L77.999,89.000 Z"/>
<path fill-rule="evenodd"  fill="rgb(115, 101, 10)"
 d="M220.999,89.000 C221.551,89.000 221.999,89.448 221.999,90.000 L221.999,132.000 C221.999,132.552 221.551,133.000 220.999,133.000 C220.447,133.000 219.999,132.552 219.999,132.000 L219.999,90.000 C219.999,89.448 220.447,89.000 220.999,89.000 Z"/>
<path fill-rule="evenodd"  fill="rgb(255, 222, 0)"
 d="M220.999,66.000 C221.551,66.000 221.999,66.447 221.999,67.000 L221.999,88.000 C221.999,88.552 221.551,89.000 220.999,89.000 C220.447,89.000 219.999,88.552 219.999,88.000 L219.999,67.000 C219.999,66.447 220.447,66.000 220.999,66.000 Z"/>
<path fill-rule="evenodd"  fill="rgb(255, 222, 0)"
 d="M220.999,9.000 C221.551,9.000 221.999,9.448 221.999,10.000 L221.999,31.000 C221.999,31.552 221.551,32.000 220.999,32.000 C220.447,32.000 219.999,31.552 219.999,31.000 L219.999,10.000 C219.999,9.448 220.447,9.000 220.999,9.000 Z"/>
<path fill-rule="evenodd"  fill="rgb(255, 222, 0)"
 d="M79.000,9.000 C79.551,9.000 79.999,9.448 79.999,10.000 L79.999,31.000 C79.999,31.552 79.551,32.000 79.000,32.000 C78.447,32.000 77.999,31.552 77.999,31.000 L77.999,10.000 C77.999,9.448 78.447,9.000 79.000,9.000 Z"/>
</svg>
