<svg 
 xmlns="http://www.w3.org/2000/svg"
 xmlns:xlink="http://www.w3.org/1999/xlink"
 width="300.75px" height="147.75px">
<path fill-rule="evenodd"  fill="none"
 d="M-0.003,-0.001 L299.998,-0.001 L299.998,146.999 L-0.003,146.999 L-0.003,-0.001 Z"/>
<path fill-rule="evenodd"  fill="rgb(127, 127, 127)"
 d="M177.009,113.749 C179.147,112.600 180.162,110.606 179.967,108.724 C180.176,106.730 179.147,104.847 177.009,103.698 L130.921,79.028 C128.880,77.879 126.435,77.353 123.992,77.353 C121.548,77.353 119.089,77.879 117.049,79.028 L70.960,103.601 C68.821,104.750 67.905,106.744 68.002,108.626 C67.905,110.620 68.821,112.600 70.960,113.749 L117.049,138.336 C119.089,139.485 121.534,140.011 123.992,140.011 C126.435,140.011 128.880,139.485 130.921,138.336 L177.009,113.749 Z"/>
<path fill-rule="evenodd"  fill="rgb(98, 98, 98)"
 d="M177.009,110.420 C179.147,109.271 180.162,107.277 179.967,105.395 C180.176,103.401 179.147,101.518 177.009,100.369 L130.921,75.698 C128.880,74.550 126.435,74.024 123.992,74.024 C121.548,74.024 119.089,74.550 117.049,75.698 L70.960,100.272 C68.821,101.421 67.905,103.415 68.002,105.297 C67.905,107.291 68.821,109.271 70.960,110.420 L117.049,135.006 C119.089,136.156 121.534,136.682 123.992,136.682 C126.435,136.682 128.880,136.156 130.921,135.006 L177.009,110.420 Z"/>
<path fill-rule="evenodd"  fill="rgb(127, 127, 127)"
 d="M177.009,109.154 C179.147,108.005 180.162,106.011 179.967,104.129 C180.176,102.135 179.147,100.252 177.009,99.103 L130.921,74.433 C128.880,73.284 126.435,72.758 123.992,72.758 C121.548,72.758 119.089,73.284 117.049,74.433 L70.960,99.006 C68.821,100.155 67.905,102.149 68.002,104.032 C67.905,106.025 68.821,108.005 70.960,109.154 L117.049,133.741 C119.089,134.890 121.534,135.416 123.992,135.416 C126.435,135.416 128.880,134.890 130.921,133.741 L177.009,109.154 Z"/>
<path fill-rule="evenodd"  fill="rgb(98, 98, 98)"
 d="M177.009,105.420 C179.147,104.271 180.162,102.277 179.967,100.395 C180.176,98.401 179.147,96.518 177.009,95.369 L130.921,70.699 C128.880,69.550 126.435,69.023 123.992,69.023 C121.548,69.023 119.089,69.550 117.049,70.699 L70.960,95.272 C68.821,96.421 67.905,98.415 68.002,100.298 C67.905,102.291 68.821,104.271 70.960,105.420 L117.049,130.007 C119.089,131.156 121.534,131.682 123.992,131.682 C126.435,131.682 128.880,131.156 130.921,130.007 L177.009,105.420 Z"/>
<path fill-rule="evenodd"  fill="rgb(127, 127, 127)"
 d="M177.009,104.154 C179.147,103.005 180.162,101.012 179.967,99.129 C180.176,97.135 179.147,95.252 177.009,94.103 L130.921,69.433 C128.880,68.284 126.435,67.758 123.992,67.758 C121.548,67.758 119.089,68.284 117.049,69.433 L70.960,94.006 C68.821,95.155 67.905,97.149 68.002,99.032 C67.905,101.025 68.821,103.005 70.960,104.154 L117.049,128.741 C119.089,129.890 121.534,130.416 123.992,130.416 C126.435,130.416 128.880,129.890 130.921,128.741 L177.009,104.154 Z"/>
<path fill-rule="evenodd"  fill="rgb(98, 98, 98)"
 d="M177.009,100.420 C179.147,99.271 180.162,97.277 179.967,95.395 C180.176,93.401 179.147,91.518 177.009,90.369 L130.921,65.699 C128.880,64.550 126.435,64.023 123.992,64.023 C121.548,64.023 119.089,64.550 117.049,65.699 L70.960,90.272 C68.821,91.421 67.905,93.415 68.002,95.297 C67.905,97.291 68.821,99.271 70.960,100.420 L117.049,125.007 C119.089,126.156 121.534,126.682 123.992,126.682 C126.435,126.682 128.880,126.156 130.921,125.007 L177.009,100.420 Z"/>
<path fill-rule="evenodd"  fill="rgb(127, 127, 127)"
 d="M177.009,99.154 C179.147,98.005 180.162,96.012 179.967,94.128 C180.176,92.135 179.147,90.252 177.009,89.103 L130.921,64.433 C128.880,63.284 126.435,62.758 123.992,62.758 C121.548,62.758 119.089,63.284 117.049,64.433 L70.960,89.007 C68.821,90.155 67.905,92.149 68.002,94.032 C67.905,96.025 68.821,98.005 70.960,99.154 L117.049,123.741 C119.089,124.890 121.534,125.416 123.992,125.416 C126.435,125.416 128.880,124.890 130.921,123.741 L177.009,99.154 Z"/>
<path fill-rule="evenodd"  fill="rgb(98, 98, 98)"
 d="M177.009,95.420 C179.147,94.271 180.162,92.277 179.967,90.394 C180.176,88.401 179.147,86.518 177.009,85.368 L130.921,60.699 C128.880,59.549 126.435,59.023 123.992,59.023 C121.548,59.023 119.089,59.549 117.049,60.699 L70.960,85.272 C68.821,86.421 67.905,88.415 68.002,90.297 C67.905,92.291 68.821,94.271 70.960,95.420 L117.049,120.007 C119.089,121.156 121.534,121.681 123.992,121.681 C126.435,121.681 128.880,121.156 130.921,120.007 L177.009,95.420 Z"/>
<path fill-rule="evenodd"  fill="rgb(127, 127, 127)"
 d="M177.009,94.154 C179.147,93.005 180.162,91.011 179.967,89.128 C180.176,87.136 179.147,85.252 177.009,84.103 L130.921,59.433 C128.880,58.284 126.435,57.758 123.992,57.758 C121.548,57.758 119.089,58.284 117.049,59.433 L70.960,84.006 C68.821,85.156 67.905,87.149 68.002,89.032 C67.905,91.025 68.821,93.005 70.960,94.154 L117.049,118.741 C119.089,119.890 121.534,120.416 123.992,120.416 C126.435,120.416 128.880,119.890 130.921,118.741 L177.009,94.154 Z"/>
<path fill-rule="evenodd"  fill="rgb(98, 98, 98)"
 d="M177.009,90.420 C179.147,89.271 180.162,87.277 179.967,85.395 C180.176,83.401 179.147,81.518 177.009,80.368 L130.921,55.699 C128.880,54.549 126.435,54.024 123.992,54.024 C121.548,54.024 119.089,54.549 117.049,55.699 L70.960,80.272 C68.821,81.421 67.905,83.415 68.002,85.297 C67.905,87.291 68.821,89.271 70.960,90.420 L117.049,115.007 C119.089,116.156 121.534,116.681 123.992,116.681 C126.435,116.681 128.880,116.156 130.921,115.007 L177.009,90.420 Z"/>
<path fill-rule="evenodd"  fill="rgb(127, 127, 127)"
 d="M177.009,89.154 C179.147,88.005 180.162,86.011 179.967,84.129 C180.176,82.136 179.147,80.252 177.009,79.103 L130.921,54.433 C128.880,53.284 126.435,52.758 123.992,52.758 C121.548,52.758 119.089,53.284 117.049,54.433 L70.960,79.006 C68.821,80.155 67.905,82.149 68.002,84.031 C67.905,86.025 68.821,88.005 70.960,89.154 L117.049,113.741 C119.089,114.890 121.534,115.416 123.992,115.416 C126.435,115.416 128.880,114.890 130.921,113.741 L177.009,89.154 Z"/>
<path fill-rule="evenodd"  fill="rgb(98, 98, 98)"
 d="M177.009,85.420 C179.147,84.271 180.162,82.277 179.967,80.395 C180.176,78.401 179.147,76.518 177.009,75.368 L130.921,50.699 C128.880,49.549 126.435,49.024 123.992,49.024 C121.548,49.024 119.089,49.549 117.049,50.699 L70.960,75.272 C68.821,76.421 67.905,78.415 68.002,80.297 C67.905,82.291 68.821,84.271 70.960,85.420 L117.049,110.006 C119.089,111.156 121.534,111.682 123.992,111.682 C126.435,111.682 128.880,111.156 130.921,110.006 L177.009,85.420 Z"/>
<path fill-rule="evenodd"  fill="rgb(127, 127, 127)"
 d="M177.009,84.154 C179.147,83.005 180.162,81.011 179.967,79.129 C180.176,77.135 179.147,75.252 177.009,74.103 L130.921,49.433 C128.880,48.284 126.435,47.758 123.992,47.758 C121.548,47.758 119.089,48.284 117.049,49.433 L70.960,74.006 C68.821,75.156 67.905,77.149 68.002,79.031 C67.905,81.025 68.821,83.005 70.960,84.154 L117.049,108.741 C119.089,109.890 121.534,110.416 123.992,110.416 C126.435,110.416 128.880,109.890 130.921,108.741 L177.009,84.154 Z"/>
<path fill-rule="evenodd"  fill="rgb(98, 98, 98)"
 d="M177.009,80.420 C179.147,79.271 180.162,77.277 179.967,75.395 C180.176,73.401 179.147,71.518 177.009,70.369 L130.921,45.699 C128.880,44.550 126.435,44.024 123.992,44.024 C121.548,44.024 119.089,44.550 117.049,45.699 L70.960,70.272 C68.821,71.421 67.905,73.415 68.002,75.297 C67.905,77.291 68.821,79.271 70.960,80.420 L117.049,105.006 C119.089,106.156 121.534,106.682 123.992,106.682 C126.435,106.682 128.880,106.156 130.921,105.006 L177.009,80.420 Z"/>
<path fill-rule="evenodd"  fill="rgb(127, 127, 127)"
 d="M177.009,79.154 C179.147,78.005 180.162,76.012 179.967,74.129 C180.176,72.135 179.147,70.252 177.009,69.103 L130.921,44.433 C128.880,43.284 126.435,42.758 123.992,42.758 C121.548,42.758 119.089,43.284 117.049,44.433 L70.960,69.006 C68.821,70.155 67.905,72.149 68.002,74.032 C67.905,76.025 68.821,78.005 70.960,79.154 L117.049,103.741 C119.089,104.890 121.534,105.416 123.992,105.416 C126.435,105.416 128.880,104.890 130.921,103.741 L177.009,79.154 Z"/>
<path fill-rule="evenodd"  fill="rgb(98, 98, 98)"
 d="M177.009,75.420 C179.147,74.271 180.162,72.278 179.967,70.395 C180.176,68.401 179.147,66.518 177.009,65.369 L130.921,40.699 C128.880,39.550 126.435,39.024 123.992,39.024 C121.548,39.024 119.089,39.550 117.049,40.699 L70.960,65.272 C68.821,66.421 67.905,68.415 68.002,70.297 C67.905,72.290 68.821,74.271 70.960,75.420 L117.049,100.006 C119.089,101.156 121.534,101.682 123.992,101.682 C126.435,101.682 128.880,101.156 130.921,100.006 L177.009,75.420 Z"/>
<path fill-rule="evenodd"  fill="rgb(127, 127, 127)"
 d="M177.009,74.154 C179.147,73.005 180.162,71.012 179.967,69.129 C180.176,67.135 179.147,65.252 177.009,64.103 L130.921,39.433 C128.880,38.284 126.435,37.757 123.992,37.757 C121.548,37.757 119.089,38.284 117.049,39.433 L70.960,64.006 C68.821,65.155 67.905,67.149 68.002,69.032 C67.905,71.025 68.821,73.005 70.960,74.154 L117.049,98.741 C119.089,99.890 121.534,100.416 123.992,100.416 C126.435,100.416 128.880,99.890 130.921,98.741 L177.009,74.154 Z"/>
<path fill-rule="evenodd"  fill="rgb(98, 98, 98)"
 d="M177.009,70.420 C179.147,69.271 180.162,67.277 179.967,65.395 C180.176,63.401 179.147,61.518 177.009,60.369 L130.921,35.699 C128.880,34.550 126.435,34.023 123.992,34.023 C121.548,34.023 119.089,34.550 117.049,35.699 L70.960,60.272 C68.821,61.421 67.905,63.415 68.002,65.298 C67.905,67.290 68.821,69.271 70.960,70.420 L117.049,95.007 C119.089,96.156 121.534,96.682 123.992,96.682 C126.435,96.682 128.880,96.156 130.921,95.007 L177.009,70.420 Z"/>
<path fill-rule="evenodd"  fill="rgb(127, 127, 127)"
 d="M177.009,69.154 C179.147,68.005 180.162,66.012 179.967,64.129 C180.176,62.136 179.147,60.252 177.009,59.103 L130.921,34.433 C128.880,33.284 126.435,32.757 123.992,32.757 C121.548,32.757 119.089,33.284 117.049,34.433 L70.960,59.006 C68.821,60.155 67.905,62.149 68.002,64.032 C67.905,66.025 68.821,68.005 70.960,69.154 L117.049,93.741 C119.089,94.890 121.534,95.416 123.992,95.416 C126.435,95.416 128.880,94.890 130.921,93.741 L177.009,69.154 Z"/>
<path fill-rule="evenodd"  fill="rgb(98, 98, 98)"
 d="M177.009,65.419 C179.147,64.271 180.162,62.277 179.967,60.394 C180.176,58.401 179.147,56.518 177.009,55.369 L130.921,30.699 C128.880,29.549 126.435,29.024 123.992,29.024 C121.548,29.024 119.089,29.549 117.049,30.699 L70.960,55.272 C68.821,56.421 67.905,58.414 68.002,60.297 C67.905,62.291 68.821,64.271 70.960,65.419 L117.049,90.007 C119.089,91.156 121.534,91.682 123.992,91.682 C126.435,91.682 128.880,91.156 130.921,90.007 L177.009,65.419 Z"/>
<path fill-rule="evenodd"  fill="rgb(127, 127, 127)"
 d="M177.009,64.154 C179.147,63.005 180.162,61.012 179.967,59.128 C180.176,57.135 179.147,55.252 177.009,54.103 L130.921,29.433 C128.880,28.283 126.435,27.758 123.992,27.758 C121.548,27.758 119.089,28.283 117.049,29.433 L70.960,54.006 C68.821,55.155 67.905,57.149 68.002,59.032 C67.905,61.025 68.821,63.005 70.960,64.154 L117.049,88.741 C119.089,89.890 121.534,90.416 123.992,90.416 C126.435,90.416 128.880,89.890 130.921,88.741 L177.009,64.154 Z"/>
<path fill-rule="evenodd"  fill="rgb(98, 98, 98)"
 d="M177.009,60.420 C179.147,59.271 180.162,57.277 179.967,55.394 C180.176,53.401 179.147,51.518 177.009,50.368 L130.921,25.699 C128.880,24.549 126.435,24.024 123.992,24.024 C121.548,24.024 119.089,24.549 117.049,25.699 L70.960,50.272 C68.821,51.421 67.905,53.414 68.002,55.297 C67.905,57.291 68.821,59.271 70.960,60.420 L117.049,85.007 C119.089,86.156 121.534,86.682 123.992,86.682 C126.435,86.682 128.880,86.156 130.921,85.007 L177.009,60.420 Z"/>
<path fill-rule="evenodd"  fill="rgb(127, 127, 127)"
 d="M177.009,59.154 C179.147,58.005 180.162,56.011 179.967,54.129 C180.176,52.136 179.147,50.252 177.009,49.102 L130.921,24.433 C128.880,23.283 126.435,22.758 123.992,22.758 C121.548,22.758 119.089,23.283 117.049,24.433 L70.960,49.006 C68.821,50.156 67.905,52.149 68.002,54.032 C67.905,56.025 68.821,58.005 70.960,59.154 L117.049,83.741 C119.089,84.890 121.534,85.416 123.992,85.416 C126.435,85.416 128.880,84.890 130.921,83.741 L177.009,59.154 Z"/>
<path fill-rule="evenodd"  fill="rgb(98, 98, 98)"
 d="M177.009,55.420 C179.147,54.271 180.162,52.277 179.967,50.395 C180.176,48.401 179.147,46.518 177.009,45.369 L130.921,20.699 C128.880,19.550 126.435,19.024 123.992,19.024 C121.548,19.024 119.089,19.550 117.049,20.699 L70.960,45.272 C68.821,46.421 67.905,48.415 68.002,50.297 C67.905,52.291 68.821,54.271 70.960,55.420 L117.049,80.007 C119.089,81.156 121.534,81.682 123.992,81.682 C126.435,81.682 128.880,81.156 130.921,80.007 L177.009,55.420 Z"/>
<path fill-rule="evenodd"  fill="rgb(127, 127, 127)"
 d="M177.009,54.154 C179.147,53.005 180.162,51.011 179.967,49.129 C180.176,47.135 179.147,45.252 177.009,44.103 L130.921,19.433 C128.880,18.284 126.435,17.758 123.992,17.758 C121.548,17.758 119.089,18.284 117.049,19.433 L70.960,44.006 C68.821,45.155 67.905,47.149 68.002,49.031 C67.905,51.025 68.821,53.005 70.960,54.154 L117.049,78.740 C119.089,79.890 121.534,80.416 123.992,80.416 C126.435,80.416 128.880,79.890 130.921,78.740 L177.009,54.154 Z"/>
<path fill-rule="evenodd"  fill="rgb(98, 98, 98)"
 d="M177.009,50.420 C179.147,49.271 180.162,47.277 179.967,45.395 C180.176,43.401 179.147,41.518 177.009,40.369 L130.921,15.699 C128.880,14.550 126.435,14.024 123.992,14.024 C121.548,14.024 119.089,14.550 117.049,15.699 L70.960,40.272 C68.821,41.421 67.905,43.415 68.002,45.297 C67.905,47.291 68.821,49.271 70.960,50.420 L117.049,75.007 C119.089,76.156 121.534,76.682 123.992,76.682 C126.435,76.682 128.880,76.156 130.921,75.007 L177.009,50.420 Z"/>
<path fill-rule="evenodd"  fill="rgb(127, 127, 127)"
 d="M177.009,49.154 C179.147,48.005 180.162,46.012 179.967,44.129 C180.176,42.135 179.147,40.252 177.009,39.103 L130.921,14.433 C128.880,13.284 126.435,12.758 123.992,12.758 C121.548,12.758 119.089,13.284 117.049,14.433 L70.960,39.006 C68.821,40.155 67.905,42.149 68.002,44.031 C67.905,46.025 68.821,48.005 70.960,49.154 L117.049,73.741 C119.089,74.890 121.534,75.416 123.992,75.416 C126.435,75.416 128.880,74.890 130.921,73.741 L177.009,49.154 Z"/>
<path fill-rule="evenodd"  fill="rgb(108, 108, 108)"
 d="M177.009,45.420 C179.147,44.270 180.162,42.277 179.967,40.395 C180.176,38.401 179.147,36.518 177.009,35.369 L130.921,10.699 C128.880,9.550 126.435,9.024 123.992,9.024 C121.548,9.024 119.089,9.550 117.049,10.699 L70.960,35.272 C68.821,36.421 67.905,38.415 68.002,40.298 C67.905,42.290 68.821,44.270 70.960,45.420 L117.049,70.007 C119.089,71.156 121.534,71.682 123.992,71.682 C126.435,71.682 128.880,71.156 130.921,70.007 L177.009,45.420 Z"/>
<path fill-rule="evenodd"  fill="rgb(127, 127, 127)"
 d="M177.009,44.154 C179.147,43.005 180.162,41.012 179.967,39.129 C180.176,37.135 179.147,35.252 177.009,34.103 L130.921,9.433 C128.880,8.284 126.435,7.758 123.992,7.758 C121.548,7.758 119.089,8.284 117.049,9.433 L70.960,34.007 C68.821,35.155 67.905,37.149 68.002,39.032 C67.905,41.025 68.821,43.005 70.960,44.154 L117.049,68.741 C119.089,69.890 121.534,70.416 123.992,70.416 C126.435,70.416 128.880,69.890 130.921,68.741 L177.009,44.154 Z"/>
<path fill-rule="evenodd"  stroke="rgb(109, 109, 109)" stroke-width="1px" stroke-linecap="butt" stroke-linejoin="miter" fill="none"
 d="M165.684,43.050 C167.365,42.133 168.162,40.542 168.009,39.040 C168.172,37.449 167.365,35.946 165.684,35.030 L129.457,15.343 C127.852,14.426 125.931,14.006 124.010,14.006 C122.089,14.006 120.157,14.426 118.553,15.343 L82.326,34.952 C80.645,35.869 79.924,37.460 80.001,38.963 C79.924,40.553 80.645,42.133 82.326,43.050 L118.553,62.670 C120.157,63.588 122.078,64.007 124.010,64.007 C125.931,64.007 127.852,63.588 129.457,62.670 L165.684,43.050 Z"/>
<path fill-rule="evenodd"  stroke="rgb(28, 227, 107)" stroke-width="1px" stroke-linecap="butt" stroke-linejoin="miter" fill="none"
 d="M161.531,40.195 L157.887,39.654 L156.905,37.650 L159.375,36.292 L164.000,38.836 L161.531,40.195 ZM152.875,36.897 L151.893,34.894 L154.363,33.535 L158.989,36.080 L156.518,37.438 L152.875,36.897 ZM147.864,34.141 L146.881,32.137 L149.351,30.779 L153.977,33.324 L151.506,34.682 L147.864,34.141 ZM142.852,31.385 L141.870,29.381 L144.340,28.022 L148.966,30.567 L146.496,31.925 L142.852,31.385 ZM137.841,28.629 L136.858,26.625 L139.328,25.266 L143.955,27.810 L141.484,29.169 L137.841,28.629 ZM132.829,25.872 L131.845,23.869 L134.317,22.510 L138.943,25.054 L136.473,26.413 L132.829,25.872 ZM127.818,23.115 L126.835,21.112 L129.304,19.754 L133.931,22.298 L131.461,23.656 L127.818,23.115 ZM122.806,20.359 L121.822,18.355 L124.294,16.997 L128.920,19.542 L126.450,20.900 L122.806,20.359 ZM119.763,21.821 L116.121,21.280 L121.250,18.459 L122.234,20.462 L119.763,21.821 ZM120.558,24.140 L118.088,25.498 L114.446,24.957 L113.462,22.954 L115.933,21.595 L119.577,22.136 L120.558,24.140 ZM111.402,26.420 L107.759,25.879 L112.890,23.057 L113.872,25.060 L111.402,26.420 ZM112.198,28.738 L109.728,30.097 L106.085,29.556 L105.102,27.552 L107.572,26.194 L111.215,26.734 L112.198,28.738 ZM103.042,31.018 L99.399,30.477 L104.530,27.655 L105.512,29.659 L103.042,31.018 ZM103.838,33.336 L101.368,34.695 L97.725,34.154 L96.741,32.151 L99.211,30.792 L102.854,31.332 L103.838,33.336 ZM94.682,35.616 L91.039,35.075 L96.169,32.254 L97.152,34.257 L94.682,35.616 ZM95.477,37.935 L93.007,39.293 L89.364,38.752 L88.381,36.749 L90.851,35.390 L94.494,35.931 L95.477,37.935 ZM86.321,40.214 L84.008,38.942 L87.808,36.852 L88.791,38.855 L86.321,40.214 ZM92.820,39.609 L93.802,41.612 L91.332,42.971 L86.706,40.426 L89.177,39.067 L92.820,39.609 ZM97.832,42.365 L98.814,44.369 L96.344,45.727 L91.717,43.183 L94.188,41.824 L97.832,42.365 ZM102.843,45.121 L103.826,47.125 L101.356,48.483 L96.730,45.939 L99.200,44.580 L102.843,45.121 ZM107.854,47.877 L108.838,49.881 L106.367,51.240 L101.740,48.696 L104.211,47.337 L107.854,47.877 ZM112.866,50.634 L113.850,52.637 L111.379,53.996 L106.753,51.452 L109.222,50.093 L112.866,50.634 ZM117.877,53.390 L118.861,55.394 L116.391,56.753 L111.764,54.208 L114.235,52.850 L117.877,53.390 ZM122.889,56.147 L123.872,58.150 L121.401,59.509 L116.776,56.965 L119.246,55.606 L122.889,56.147 ZM127.901,58.903 L124.100,60.993 L121.788,59.721 L124.258,58.362 L127.901,58.903 ZM123.462,56.044 L125.932,54.685 L129.576,55.225 L130.559,57.230 L128.088,58.588 L124.445,58.047 L123.462,56.044 ZM132.619,53.764 L136.262,54.305 L131.131,57.127 L130.148,55.122 L132.619,53.764 ZM131.823,51.445 L134.293,50.087 L137.936,50.627 L138.919,52.631 L136.449,53.990 L132.805,53.449 L131.823,51.445 ZM140.979,49.166 L144.623,49.707 L139.492,52.528 L138.509,50.524 L140.979,49.166 ZM140.183,46.847 L142.653,45.488 L146.297,46.029 L147.279,48.033 L144.809,49.391 L141.166,48.850 L140.183,46.847 ZM149.340,44.567 L152.982,45.108 L147.853,47.930 L146.869,45.926 L149.340,44.567 ZM148.544,42.249 L151.014,40.890 L154.657,41.431 L155.640,43.434 L153.170,44.793 L149.526,44.252 L148.544,42.249 ZM156.332,37.753 L157.315,39.757 L154.844,41.116 L151.201,40.575 L150.218,38.571 L152.689,37.212 L156.332,37.753 ZM151.320,34.997 L152.303,37.000 L149.833,38.359 L146.190,37.819 L145.206,35.815 L147.677,34.457 L151.320,34.997 ZM146.308,32.240 L147.291,34.244 L144.821,35.603 L141.177,35.062 L140.195,33.059 L142.666,31.700 L146.308,32.240 ZM141.297,29.484 L142.279,31.488 L139.810,32.847 L136.167,32.305 L135.184,30.302 L137.654,28.944 L141.297,29.484 ZM136.285,26.728 L137.268,28.732 L134.798,30.090 L131.155,29.549 L130.172,27.546 L132.643,26.187 L136.285,26.728 ZM131.274,23.972 L132.257,25.975 L129.786,27.334 L126.144,26.793 L125.160,24.789 L127.630,23.431 L131.274,23.972 ZM122.619,20.674 L126.262,21.215 L127.245,23.219 L124.775,24.577 L121.132,24.037 L120.148,22.033 L122.619,20.674 ZM124.588,24.892 L125.570,26.896 L123.100,28.255 L119.457,27.714 L118.475,25.710 L120.945,24.352 L124.588,24.892 ZM114.259,25.272 L117.902,25.813 L118.884,27.817 L116.414,29.175 L112.771,28.635 L111.788,26.631 L114.259,25.272 ZM116.227,29.490 L117.210,31.495 L114.739,32.853 L111.096,32.312 L110.113,30.309 L112.583,28.950 L116.227,29.490 ZM105.898,29.871 L109.541,30.412 L110.524,32.415 L108.054,33.774 L104.410,33.233 L103.427,31.229 L105.898,29.871 ZM107.866,34.089 L108.850,36.093 L106.380,37.451 L102.737,36.911 L101.753,34.907 L104.223,33.549 L107.866,34.089 ZM97.537,34.469 L101.181,35.010 L102.163,37.014 L99.693,38.372 L96.050,37.832 L95.067,35.828 L97.537,34.469 ZM94.375,41.509 L93.393,39.505 L95.862,38.147 L99.505,38.687 L100.489,40.691 L98.019,42.050 L94.375,41.509 ZM99.387,44.265 L98.404,42.262 L100.874,40.903 L104.517,41.444 L105.500,43.447 L103.030,44.806 L99.387,44.265 ZM104.398,47.022 L103.416,45.018 L105.886,43.660 L109.529,44.200 L110.512,46.204 L108.041,47.562 L104.398,47.022 ZM109.410,49.778 L108.427,47.774 L110.898,46.416 L114.540,46.957 L115.523,48.960 L113.054,50.319 L109.410,49.778 ZM114.422,52.534 L113.438,50.531 L115.909,49.172 L119.553,49.713 L120.535,51.717 L118.065,53.075 L114.422,52.534 ZM119.434,55.291 L118.450,53.287 L120.921,51.929 L124.563,52.469 L125.547,54.473 L123.077,55.832 L119.434,55.291 ZM129.762,54.910 L126.120,54.370 L125.137,52.366 L127.607,51.008 L131.250,51.548 L132.233,53.552 L129.762,54.910 ZM127.794,50.693 L126.811,48.689 L129.281,47.330 L132.924,47.871 L133.908,49.875 L131.437,51.233 L127.794,50.693 ZM138.123,50.312 L134.480,49.772 L133.497,47.768 L135.968,46.409 L139.610,46.950 L140.593,48.953 L138.123,50.312 ZM136.155,46.094 L135.172,44.090 L137.642,42.732 L141.285,43.273 L142.268,45.277 L139.798,46.635 L136.155,46.094 ZM146.484,45.714 L142.841,45.174 L141.857,43.170 L144.327,41.811 L147.972,42.352 L148.954,44.355 L146.484,45.714 ZM149.645,38.674 L150.629,40.678 L148.159,42.037 L144.515,41.496 L143.533,39.492 L146.002,38.134 L149.645,38.674 ZM144.633,35.918 L145.617,37.922 L143.147,39.280 L139.504,38.740 L138.520,36.736 L140.990,35.377 L144.633,35.918 ZM139.622,33.162 L140.606,35.165 L138.135,36.524 L134.492,35.983 L133.509,33.979 L135.979,32.621 L139.622,33.162 ZM134.611,30.405 L135.594,32.409 L133.124,33.768 L129.480,33.227 L128.497,31.223 L130.968,29.864 L134.611,30.405 ZM129.600,27.649 L130.582,29.652 L128.112,31.011 L124.469,30.470 L123.486,28.467 L125.956,27.108 L129.600,27.649 ZM119.270,28.029 L122.913,28.570 L123.896,30.573 L121.426,31.932 L117.783,31.392 L116.800,29.387 L119.270,28.029 ZM121.239,32.247 L122.221,34.251 L119.752,35.610 L116.108,35.069 L115.125,33.065 L117.596,31.707 L121.239,32.247 ZM110.909,32.627 L114.552,33.168 L115.536,35.172 L113.065,36.530 L109.422,35.990 L108.439,33.986 L110.909,32.627 ZM112.879,36.845 L113.861,38.849 L111.391,40.208 L107.748,39.667 L106.765,37.663 L109.235,36.305 L112.879,36.845 ZM101.062,40.588 L100.078,38.584 L102.548,37.226 L106.191,37.766 L107.175,39.770 L104.705,41.128 L101.062,40.588 ZM106.072,43.344 L105.090,41.341 L107.560,39.982 L111.203,40.523 L112.187,42.527 L109.716,43.885 L106.072,43.344 ZM111.084,46.101 L110.102,44.097 L112.571,42.739 L116.215,43.279 L117.198,45.283 L114.728,46.642 L111.084,46.101 ZM116.095,48.857 L115.113,46.854 L117.584,45.495 L121.227,46.035 L122.210,48.039 L119.739,49.398 L116.095,48.857 ZM124.751,52.154 L121.107,51.614 L120.125,49.610 L122.595,48.251 L126.238,48.792 L127.221,50.795 L124.751,52.154 ZM122.782,47.936 L121.800,45.932 L124.270,44.574 L127.912,45.115 L128.895,47.118 L126.426,48.477 L122.782,47.936 ZM133.112,47.556 L129.468,47.015 L128.486,45.012 L130.956,43.653 L134.599,44.193 L135.582,46.197 L133.112,47.556 ZM131.144,43.338 L130.160,41.334 L132.630,39.975 L136.274,40.516 L137.257,42.520 L134.786,43.878 L131.144,43.338 ZM142.960,39.595 L143.943,41.599 L141.473,42.958 L137.829,42.417 L136.845,40.413 L139.317,39.055 L142.960,39.595 ZM137.948,36.839 L138.931,38.843 L136.461,40.201 L132.818,39.660 L131.835,37.657 L134.305,36.298 L137.948,36.839 ZM132.936,34.082 L133.919,36.086 L131.449,37.445 L127.806,36.904 L126.823,34.900 L129.293,33.542 L132.936,34.082 ZM124.281,30.785 L127.924,31.326 L128.908,33.330 L126.437,34.688 L122.795,34.148 L121.811,32.144 L124.281,30.785 ZM126.251,35.003 L127.233,37.007 L124.763,38.366 L121.120,37.825 L120.137,35.822 L122.607,34.462 L126.251,35.003 ZM115.920,35.384 L119.564,35.925 L120.547,37.928 L118.077,39.287 L114.434,38.746 L113.451,36.742 L115.920,35.384 ZM112.759,42.424 L111.777,40.420 L114.247,39.061 L117.890,39.602 L118.872,41.605 L116.402,42.964 L112.759,42.424 ZM117.771,45.180 L116.788,43.176 L119.259,41.817 L122.901,42.358 L123.884,44.362 L121.414,45.720 L117.771,45.180 ZM128.099,44.800 L124.457,44.259 L123.474,42.255 L125.944,40.897 L129.587,41.437 L130.570,43.441 L128.099,44.800 ZM119.446,41.502 L118.462,39.499 L120.932,38.140 L124.576,38.681 L125.558,40.685 L123.088,42.043 L119.446,41.502 ZM131.262,37.760 L132.245,39.763 L129.775,41.122 L126.131,40.582 L125.148,38.578 L127.619,37.219 L131.262,37.760 ZM157.700,39.969 L161.343,40.510 L156.213,43.332 L155.230,41.328 L157.700,39.969 Z"/>
<path fill-rule="evenodd"  opacity="0.302" fill="rgb(0, 0, 0)"
 d="M123.992,140.416 C126.435,140.416 128.880,139.890 130.921,138.741 L177.009,114.154 C179.147,113.005 180.162,111.011 179.967,109.129 C180.176,107.135 180.250,37.144 179.967,39.129 C180.162,42.088 179.135,43.849 176.997,44.999 L135.997,66.999 C133.956,68.148 126.020,71.287 124.997,70.998 C124.988,70.996 125.967,72.686 125.937,73.928 C125.922,74.532 124.906,75.268 124.887,76.118 C124.873,76.780 125.857,77.512 125.840,78.306 C125.826,79.039 124.808,79.825 124.792,80.658 C124.777,81.421 125.761,82.223 125.743,83.060 C125.727,83.874 124.710,84.721 124.693,85.596 C124.676,86.536 125.656,87.509 125.637,88.509 C125.621,89.301 124.606,90.111 124.589,90.935 C124.572,91.813 125.556,92.707 125.538,93.614 C125.528,94.188 124.517,94.767 124.506,95.350 C124.488,96.270 125.471,97.200 125.453,98.139 C125.436,98.989 124.420,99.846 124.404,100.707 C124.388,101.588 125.371,102.474 125.355,103.362 C125.338,104.255 124.321,105.150 124.305,106.045 C124.289,106.895 125.273,107.743 125.257,108.590 C125.243,109.336 124.230,110.080 124.216,110.821 C124.201,111.600 125.188,112.375 125.173,113.145 C125.157,114.032 124.140,114.912 124.124,115.782 C124.108,116.662 125.092,117.532 125.075,118.389 C125.062,119.184 124.047,119.969 124.033,120.739 C124.017,121.589 125.003,122.422 124.988,123.236 C124.973,124.049 123.958,124.843 123.944,125.615 C123.925,126.632 124.908,127.610 124.891,128.541 C124.877,129.280 123.864,129.989 123.852,130.666 C123.838,131.490 124.823,132.267 124.810,132.989 C124.796,133.743 123.784,134.438 123.773,135.068 C123.755,136.014 124.741,136.812 124.729,137.439 C124.712,138.467 123.701,139.033 123.701,139.033 C123.701,139.033 123.884,140.416 123.992,140.416 Z"/>
<path fill-rule="evenodd"  stroke="rgb(23, 204, 95)" stroke-width="1px" stroke-dasharray="0.5, 2" stroke-linecap="round" stroke-linejoin="miter" fill="none"
 d="M193.999,50.000 L249.999,50.000 "/>
<path fill-rule="evenodd"  stroke="rgb(23, 204, 95)" stroke-width="1px" stroke-dasharray="0.5, 2" stroke-linecap="round" stroke-linejoin="miter" fill="none"
 d="M221.999,23.500 L221.999,79.531 "/>
<path fill-rule="evenodd"  stroke="rgb(51, 51, 51)" stroke-width="1.5px" stroke-linecap="butt" stroke-linejoin="miter" fill="none"
 d="M232.260,55.323 L227.522,52.562 L227.522,47.435 L232.260,44.674 L236.996,47.435 L236.996,52.562 L232.260,55.323 ZM222.391,43.886 L222.391,38.758 L227.128,35.998 L231.865,38.758 L231.865,43.886 L227.128,46.647 L222.391,43.886 ZM226.733,52.562 L221.997,55.323 L217.260,52.562 L217.260,47.435 L221.997,44.674 L226.733,47.435 L226.733,52.562 ZM212.128,43.886 L212.128,38.758 L216.865,35.998 L221.602,38.758 L221.602,43.886 L216.865,46.647 L212.128,43.886 ZM216.470,52.562 L211.733,55.323 L206.996,52.562 L206.996,47.435 L211.733,44.674 L216.470,47.435 L216.470,52.562 ZM221.602,56.111 L221.602,61.238 L216.865,63.999 L212.128,61.238 L212.128,56.111 L216.865,53.350 L221.602,56.111 ZM231.865,56.111 L231.865,61.238 L227.128,63.999 L222.391,61.238 L222.391,56.111 L227.128,53.350 L231.865,56.111 Z"/>
<path fill-rule="evenodd"  fill="rgb(23, 204, 95)"
 d="M226.484,23.200 C226.484,22.720 226.810,22.400 227.299,22.400 L230.882,22.400 C228.765,19.360 225.345,17.600 221.599,17.600 C218.016,17.600 214.596,19.360 212.479,22.080 C212.153,22.400 211.665,22.560 211.339,22.240 C211.013,21.920 210.850,21.440 211.176,21.120 C213.618,17.920 217.527,16.000 221.599,16.000 C225.345,16.000 228.928,17.600 231.370,20.320 L231.370,18.400 C231.370,17.920 231.697,17.600 232.184,17.600 C232.674,17.600 232.999,17.920 232.999,18.400 L232.999,23.200 C232.999,23.680 232.674,24.000 232.184,24.000 L227.299,24.000 C226.810,24.000 226.484,23.680 226.484,23.200 L226.484,23.200 Z"/>
<path fill-rule="evenodd"  fill="rgb(23, 204, 95)"
 d="M272.756,16.434 C273.141,16.919 273.054,17.614 272.565,17.995 L272.551,18.007 L265.219,23.534 C266.964,25.595 267.976,28.218 267.976,31.014 C267.976,31.224 267.970,31.433 267.958,31.641 L271.846,31.641 C272.475,31.641 272.986,32.134 272.997,32.744 L272.997,32.763 C272.997,33.376 272.491,33.874 271.865,33.884 L267.614,33.884 C267.491,34.360 267.338,34.828 267.154,35.284 C266.923,35.862 266.255,36.147 265.663,35.922 C265.071,35.697 264.778,35.047 265.009,34.470 C265.086,34.277 265.157,34.081 265.221,33.884 L251.178,33.884 C250.813,33.884 250.468,33.719 250.245,33.438 C249.850,32.941 249.939,32.229 250.441,31.837 L250.456,31.826 L261.698,23.352 C261.356,23.107 260.998,22.883 260.627,22.683 C260.070,22.383 259.869,21.701 260.176,21.159 C260.484,20.617 261.185,20.421 261.741,20.721 C262.390,21.070 263.004,21.476 263.576,21.935 L271.141,16.233 C271.643,15.855 272.367,15.944 272.756,16.434 L272.756,16.434 ZM263.396,24.907 L254.462,31.641 L265.652,31.641 C265.666,31.434 265.673,31.224 265.673,31.014 C265.673,28.727 264.838,26.583 263.396,24.907 L263.396,24.907 Z"/>
<path fill-rule="evenodd"  stroke="rgb(23, 204, 95)" stroke-width="1px" stroke-linecap="butt" stroke-linejoin="miter" fill="none"
 d="M277.999,20.000 C279.656,20.000 281.000,21.343 281.000,23.000 C281.000,24.657 279.656,26.000 277.999,26.000 C276.342,26.000 274.999,24.657 274.999,23.000 C274.999,21.343 276.342,20.000 277.999,20.000 Z"/>
</svg>
