<svg 
 xmlns="http://www.w3.org/2000/svg"
 xmlns:xlink="http://www.w3.org/1999/xlink"
 width="300.5px" height="147.5px">
<path fill-rule="evenodd"  fill="none"
 d="M-0.002,-0.000 L299.999,-0.000 L299.999,147.000 L-0.002,147.000 L-0.002,-0.000 Z"/>
<path fill-rule="evenodd"  stroke="rgb(127, 127, 127)" stroke-width="1px" stroke-dasharray="4, 2" stroke-linecap="butt" stroke-linejoin="miter" fill="none"
 d="M189.010,111.155 C191.148,110.005 192.162,108.012 191.968,106.129 C192.176,104.136 191.148,102.252 189.010,101.103 L142.921,76.433 C140.880,75.284 138.436,74.758 135.992,74.758 C133.548,74.758 131.090,75.284 129.049,76.433 L82.960,101.007 C80.821,102.156 79.905,104.149 80.002,106.032 C79.905,108.025 80.821,110.005 82.960,111.155 L129.049,135.741 C131.090,136.891 133.534,137.416 135.992,137.416 C138.436,137.416 140.880,136.891 142.921,135.741 L189.010,111.155 Z"/>
<path fill-rule="evenodd"  stroke="rgb(127, 127, 127)" stroke-width="1px" stroke-dasharray="4, 2" stroke-linecap="butt" stroke-linejoin="miter" fill="none"
 d="M177.684,111.051 C179.365,110.134 180.162,108.543 180.010,107.041 C180.173,105.450 179.365,103.947 177.684,103.030 L141.457,83.343 C139.853,82.426 137.931,82.006 136.011,82.006 C134.090,82.006 132.157,82.426 130.553,83.343 L94.326,102.953 C92.645,103.870 91.925,105.460 92.001,106.963 C91.925,108.553 92.645,110.134 94.326,111.051 L130.553,130.671 C132.157,131.588 134.079,132.008 136.011,132.008 C137.931,132.008 139.853,131.588 141.457,130.671 L177.684,111.051 Z"/>
<path fill-rule="evenodd"  fill="rgb(23, 204, 95)"
 d="M95.998,36.999 L136.998,57.999 L176.997,36.999 L175.997,107.999 L136.998,127.999 L95.998,106.999 L95.998,36.999 Z"/>
<path fill-rule="evenodd"  stroke="rgb(28, 227, 107)" stroke-width="1px" stroke-linecap="butt" stroke-linejoin="miter" fill="none"
 d="M138.456,87.250 L136.851,86.540 L133.107,88.195 L140.596,88.195 L141.933,89.142 L130.431,89.142 L128.024,90.324 L145.143,90.324 L147.283,91.743 L125.617,91.743 L123.744,92.926 L150.225,92.926 L152.900,94.345 L120.535,94.345 L118.127,95.764 L156.109,95.764 L158.250,97.183 L115.185,97.183 L113.313,98.366 L161.727,98.602 L163.866,99.785 L109.568,100.022 L107.428,101.205 L167.343,101.441 L169.216,102.623 L104.485,102.860 L102.346,104.279 L172.099,104.279 L174.239,105.698 L98.601,105.698 L97.633,106.881 L175.518,107.354 L174.774,108.773 L99.136,108.773 L101.009,109.956 L170.821,110.429 L168.681,111.848 L105.288,111.848 L107.161,113.030 L166.006,113.030 L164.401,114.449 L110.638,114.449 L112.243,115.632 L160.122,115.869 L158.250,117.287 L115.988,117.287 L117.860,118.470 L154.772,118.470 L152.900,119.889 L121.337,120.125 L123.209,121.308 L148.621,121.545 L146.747,122.964 L127.756,122.964 L129.629,124.383 L143.270,124.147 L141.665,125.566 L133.641,125.802 L136.851,127.458 L138.723,126.748 "/>
<path fill-rule="evenodd"  fill="rgb(16, 142, 66)"
 d="M96.998,36.999 L136.998,57.999 L176.997,36.999 L136.998,14.999 L96.998,36.999 Z"/>
<path fill-rule="evenodd"  stroke="rgb(28, 227, 107)" stroke-width="1px" stroke-linecap="butt" stroke-linejoin="miter" fill="none"
 d="M138.456,17.250 L136.851,16.540 L133.107,18.195 L140.596,18.195 L141.933,19.142 L130.431,19.142 L128.024,20.324 L145.143,20.324 L147.283,21.743 L125.617,21.743 L123.744,22.926 L150.225,22.926 L152.900,24.345 L120.535,24.345 L118.127,25.764 L156.109,25.764 L158.250,27.183 L115.185,27.183 L113.313,28.366 L161.727,28.602 L163.866,29.785 L109.568,30.022 L107.428,31.204 L167.343,31.441 L169.216,32.623 L104.485,32.859 L102.346,34.279 L172.099,34.279 L174.239,35.698 L98.601,35.698 L97.633,36.881 L175.518,37.354 L174.774,38.773 L99.136,38.773 L101.009,39.955 L170.821,40.429 L168.681,41.848 L105.288,41.848 L107.161,43.030 L166.006,43.030 L164.401,44.449 L110.638,44.449 L112.243,45.631 L160.122,45.869 L158.250,47.287 L115.988,47.287 L117.860,48.470 L154.772,48.470 L152.900,49.889 L121.337,50.126 L123.209,51.308 L148.621,51.545 L146.747,52.964 L127.756,52.964 L129.629,54.383 L143.270,54.146 L141.665,55.566 L133.641,55.802 L136.851,57.458 L138.723,56.748 "/>
<path fill-rule="evenodd"  stroke="rgb(127, 127, 127)" stroke-width="1px" stroke-dasharray="4, 2" stroke-linecap="butt" stroke-linejoin="miter" fill="none"
 d="M177.684,41.051 C179.365,40.133 180.162,38.543 180.010,37.040 C180.173,35.450 179.365,33.947 177.684,33.030 L141.457,13.343 C139.853,12.426 137.931,12.006 136.011,12.006 C134.090,12.006 132.157,12.426 130.553,13.343 L94.326,32.953 C92.645,33.870 91.925,35.460 92.001,36.963 C91.925,38.553 92.645,40.133 94.326,41.051 L130.553,60.671 C132.157,61.588 134.079,62.008 136.011,62.008 C137.931,62.008 139.853,61.588 141.457,60.671 L177.684,41.051 Z"/>
<path fill-rule="evenodd"  stroke="rgb(127, 127, 127)" stroke-width="1px" stroke-dasharray="4, 2" stroke-linecap="butt" stroke-linejoin="miter" fill="none"
 d="M189.010,42.155 C191.148,41.005 192.162,39.012 191.968,37.129 C192.176,35.136 191.148,33.252 189.010,32.103 L142.921,7.433 C140.880,6.284 138.436,5.758 135.992,5.758 C133.548,5.758 131.090,6.284 129.049,7.433 L82.960,32.007 C80.821,33.156 79.905,35.149 80.002,37.032 C79.905,39.025 80.821,41.005 82.960,42.155 L129.049,66.741 C131.090,67.890 133.534,68.416 135.992,68.416 C138.436,68.416 140.880,67.890 142.921,66.741 L189.010,42.155 Z"/>
<path fill-rule="evenodd"  stroke="rgb(127, 127, 127)" stroke-width="1px" stroke-dasharray="4, 2" stroke-linecap="butt" stroke-linejoin="miter" fill="none"
 d="M80.997,41.999 L80.997,105.999 "/>
<path fill-rule="evenodd"  stroke="rgb(127, 127, 127)" stroke-width="1px" stroke-dasharray="4, 2" stroke-linecap="butt" stroke-linejoin="miter" fill="none"
 d="M191.998,41.999 L191.998,105.999 "/>
<path fill-rule="evenodd"  stroke="rgb(127, 127, 127)" stroke-width="1px" stroke-dasharray="4, 2" stroke-linecap="butt" stroke-linejoin="miter" fill="none"
 d="M136.998,69.999 L136.998,134.999 "/>
<path fill-rule="evenodd"  stroke="rgb(127, 127, 127)" stroke-width="1px" stroke-dasharray="4, 2" stroke-linecap="butt" stroke-linejoin="miter" fill="none"
 d="M136.998,6.999 L136.998,13.999 "/>
<path fill-rule="evenodd"  fill="rgb(23, 204, 95)"
 d="M226.999,43.000 C228.103,43.000 228.999,43.895 228.999,45.000 L228.999,75.000 C228.999,76.104 228.103,77.000 226.999,77.000 C225.894,77.000 224.999,76.104 224.999,75.000 L224.999,45.000 C224.999,43.895 225.894,43.000 226.999,43.000 Z"/>
<path fill-rule="evenodd"  fill="rgb(183, 183, 183)"
 d="M212.008,16.342 C212.008,16.342 211.985,35.500 212.008,35.828 C212.034,36.156 212.437,37.067 213.783,38.399 C215.129,39.732 225.686,51.585 225.850,51.771 C226.013,51.956 226.179,52.284 226.737,52.285 C227.295,52.286 227.767,51.823 228.157,51.428 C228.546,51.033 240.318,37.887 240.755,37.371 C241.193,36.855 241.640,36.041 241.642,34.628 C241.647,33.215 241.642,16.342 241.642,16.342 L212.008,16.342 Z"/>
<path fill-rule="evenodd"  fill="rgb(207, 207, 207)"
 d="M213.605,38.056 C213.605,38.056 214.444,39.071 216.090,39.770 C218.709,40.885 223.131,41.843 227.624,41.485 C234.942,40.903 239.513,39.428 239.513,39.428 L227.447,52.456 L225.672,52.285 L213.428,38.399 L213.605,38.056 Z"/>
<path fill-rule="evenodd"  fill="rgb(127, 127, 127)"
 d="M235.965,15.999 L235.965,40.113 L227.270,52.456 L227.624,52.456 C227.624,52.456 241.418,36.957 241.820,36.171 C242.222,35.385 241.820,15.999 241.820,15.999 L235.965,15.999 Z"/>
<path fill-rule="evenodd"  fill="rgb(249, 249, 249)"
 d="M215.912,16.342 L215.912,39.599 L226.560,52.285 L222.833,41.313 L223.010,16.170 L215.912,16.342 Z"/>
<path fill-rule="evenodd"  fill="rgb(255, 255, 255)"
 d="M236.201,98.996 C235.759,98.996 235.400,98.612 235.400,98.140 L235.400,87.853 C235.400,87.380 235.759,86.996 236.201,86.996 C236.642,86.996 237.001,87.380 237.001,87.853 L237.001,98.140 C237.001,98.612 236.642,98.996 236.201,98.996 ZM231.966,96.458 C231.651,96.773 231.160,96.764 230.855,96.438 C230.551,96.111 230.542,95.584 230.836,95.247 L232.135,93.854 L221.867,93.854 L223.167,95.247 C223.470,95.584 223.466,96.119 223.157,96.450 C222.848,96.780 222.349,96.784 222.035,96.458 L219.370,93.603 C219.295,93.524 219.236,93.428 219.196,93.322 C219.171,93.257 219.167,93.188 219.157,93.120 C219.151,93.078 219.134,93.040 219.134,92.996 C219.134,92.949 219.152,92.909 219.159,92.864 C219.168,92.799 219.172,92.733 219.196,92.670 C219.236,92.564 219.296,92.468 219.371,92.389 L222.035,89.533 C222.351,89.219 222.842,89.228 223.146,89.555 C223.451,89.881 223.460,90.406 223.166,90.744 L221.865,92.139 L232.136,92.139 L230.835,90.744 C230.531,90.408 230.536,89.873 230.844,89.543 C231.153,89.213 231.652,89.208 231.966,89.533 L234.633,92.391 C234.945,92.725 234.945,93.267 234.633,93.602 L231.966,96.458 ZM217.800,98.996 C217.359,98.996 217.001,98.612 217.001,98.140 L217.001,87.853 C217.001,87.380 217.359,86.996 217.800,86.996 C218.242,86.996 218.601,87.380 218.601,87.853 L218.601,98.140 C218.601,98.612 218.242,98.996 217.800,98.996 Z"/>
</svg>
