<svg 
 xmlns="http://www.w3.org/2000/svg"
 xmlns:xlink="http://www.w3.org/1999/xlink"
 width="24px" height="16px">
<path fill-rule="evenodd"  fill="rgb(51, 51, 51)"
 d="M16.000,16.000 C14.541,16.000 13.177,15.603 12.000,14.921 C10.822,15.603 9.459,16.000 8.000,16.000 C3.581,16.000 -0.000,12.418 -0.000,8.000 C-0.000,3.582 3.581,-0.000 8.000,-0.000 C9.459,-0.000 10.822,0.397 12.000,1.079 C13.177,0.397 14.541,-0.000 16.000,-0.000 C20.418,-0.000 24.000,3.582 24.000,8.000 C24.000,12.418 20.418,16.000 16.000,16.000 ZM9.564,5.240 L13.091,3.205 C12.764,2.858 12.404,2.544 12.013,2.270 C10.962,3.000 10.094,4.003 9.564,5.240 ZM13.732,3.990 L9.132,6.646 C8.982,7.406 8.960,8.186 9.065,8.953 L14.621,5.744 C14.407,5.114 14.107,4.525 13.732,3.990 ZM15.000,8.000 C15.000,7.572 14.955,7.155 14.882,6.748 L9.285,9.980 C9.481,10.646 9.774,11.271 10.146,11.839 L14.907,9.090 C14.962,8.734 15.000,8.372 15.000,8.000 ZM10.758,12.640 C11.134,13.065 11.564,13.415 12.015,13.728 C13.162,12.923 14.051,11.783 14.550,10.450 L10.758,12.640 ZM1.000,8.000 C1.000,11.866 4.134,15.000 8.000,15.000 C9.100,15.000 10.137,14.739 11.063,14.287 C9.200,12.822 8.000,10.553 8.000,8.000 C8.000,5.447 9.200,3.178 11.063,1.713 C10.137,1.261 9.100,1.000 8.000,1.000 C4.134,1.000 1.000,4.134 1.000,8.000 ZM16.853,1.051 C15.476,0.881 14.133,1.145 12.948,1.721 C14.804,3.186 16.000,5.452 16.000,8.000 C16.000,10.547 14.805,12.811 12.950,14.276 C14.818,15.182 17.034,15.253 18.995,14.324 C21.809,12.990 23.404,9.958 22.908,6.883 C22.412,3.808 19.944,1.431 16.853,1.051 Z"/>
</svg>
