<svg 
 xmlns="http://www.w3.org/2000/svg"
 xmlns:xlink="http://www.w3.org/1999/xlink"
 width="300.5px" height="147.5px">
<path fill-rule="evenodd"  fill="none"
 d="M-0.002,-0.001 L299.998,-0.001 L299.998,146.999 L-0.002,146.999 L-0.002,-0.001 Z"/>
<path fill-rule="evenodd"  stroke="rgb(111, 111, 111)" stroke-width="1px" stroke-dasharray="4, 2" stroke-linecap="butt" stroke-linejoin="miter" fill="none"
 d="M53.999,24.000 L245.999,24.000 L245.999,96.000 L53.999,96.000 L53.999,24.000 Z"/>
<path fill-rule="evenodd"  stroke="rgb(111, 111, 111)" stroke-width="1px" stroke-dasharray="4, 2" stroke-linecap="butt" stroke-linejoin="miter" fill="none"
 d="M33.999,52.000 L265.999,52.000 L263.000,124.000 L36.999,124.000 L33.999,52.000 Z"/>
<path fill-rule="evenodd"  stroke="rgb(111, 111, 111)" stroke-width="1px" stroke-dasharray="4, 2" stroke-linecap="butt" stroke-linejoin="miter" fill="none"
 d="M54.999,25.000 L34.999,52.000 "/>
<path fill-rule="evenodd"  stroke="rgb(111, 111, 111)" stroke-width="1px" stroke-dasharray="4, 2" stroke-linecap="butt" stroke-linejoin="miter" fill="none"
 d="M245.999,24.000 L266.999,52.000 "/>
<path fill-rule="evenodd"  stroke="rgb(111, 111, 111)" stroke-width="1px" stroke-dasharray="4, 2" stroke-linecap="butt" stroke-linejoin="miter" fill="none"
 d="M54.999,97.000 L39.000,123.000 "/>
<path fill-rule="evenodd"  stroke="rgb(111, 111, 111)" stroke-width="1px" stroke-dasharray="4, 2" stroke-linecap="butt" stroke-linejoin="miter" fill="none"
 d="M246.999,96.000 L262.000,123.000 "/>
<path fill-rule="evenodd"  fill="rgb(23, 204, 95)"
 d="M50.998,103.000 L142.361,103.000 C145.122,103.000 147.361,105.238 147.361,107.999 L147.361,108.000 C147.361,110.761 145.122,112.999 142.361,112.999 L50.998,112.999 C48.237,112.999 45.998,110.761 45.998,108.000 L45.998,107.999 C45.998,105.238 48.237,103.000 50.998,103.000 Z"/>
<path fill-rule="evenodd"  fill="rgb(16, 142, 66)"
 d="M50.783,108.999 L142.570,108.999 C146.487,108.999 146.563,105.243 146.563,105.243 C146.563,105.243 147.355,106.980 147.355,107.999 C147.355,110.760 145.212,112.999 142.570,112.999 L50.783,112.999 C48.141,112.999 45.998,110.760 45.998,107.999 C45.998,106.917 46.885,105.097 46.885,105.097 C46.885,105.097 47.038,108.999 50.783,108.999 Z"/>
<path fill-rule="evenodd"  fill="rgb(23, 204, 95)"
 d="M50.998,93.000 L152.361,93.000 C155.122,93.000 157.360,95.238 157.360,97.999 L157.360,98.000 C157.360,100.761 155.122,103.000 152.361,103.000 L50.998,103.000 C48.237,103.000 45.998,100.761 45.998,98.000 L45.998,97.999 C45.998,95.238 48.237,93.000 50.998,93.000 Z"/>
<path fill-rule="evenodd"  fill="rgb(16, 142, 66)"
 d="M50.783,98.999 L152.569,98.999 C156.487,98.999 156.563,95.243 156.563,95.243 C156.563,95.243 157.354,96.980 157.354,97.999 C157.354,100.760 155.211,102.999 152.569,102.999 L50.783,102.999 C48.141,102.999 45.998,100.760 45.998,97.999 C45.998,96.917 46.885,95.097 46.885,95.097 C46.885,95.097 47.038,98.999 50.783,98.999 Z"/>
<path fill-rule="evenodd"  fill="rgb(23, 204, 95)"
 d="M49.999,83.000 L161.361,83.000 C164.122,83.000 166.360,85.238 166.360,87.999 L166.360,88.000 C166.360,90.761 164.122,93.000 161.361,93.000 L49.999,93.000 C47.237,93.000 44.999,90.761 44.999,88.000 L44.999,87.999 C44.999,85.238 47.237,83.000 49.999,83.000 Z"/>
<path fill-rule="evenodd"  fill="rgb(16, 142, 66)"
 d="M49.783,88.999 L161.569,88.999 C165.487,88.999 165.563,85.243 165.563,85.243 C165.563,85.243 166.355,86.980 166.355,87.999 C166.355,90.760 164.212,92.999 161.569,92.999 L49.783,92.999 C47.141,92.999 44.998,90.760 44.998,87.999 C44.998,86.917 45.886,85.097 45.886,85.097 C45.886,85.097 46.038,88.999 49.783,88.999 Z"/>
<path fill-rule="evenodd"  fill="rgb(23, 204, 95)"
 d="M49.999,73.000 L171.360,73.000 C174.122,73.000 176.361,75.238 176.361,77.999 L176.361,78.000 C176.361,80.761 174.122,83.000 171.360,83.000 L49.999,83.000 C47.237,83.000 44.999,80.761 44.999,78.000 L44.999,77.999 C44.999,75.238 47.237,73.000 49.999,73.000 Z"/>
<path fill-rule="evenodd"  fill="rgb(16, 142, 66)"
 d="M49.783,78.999 L171.569,78.999 C175.487,78.999 175.563,75.244 175.563,75.244 C175.563,75.244 176.355,76.980 176.355,77.999 C176.355,80.760 174.211,82.999 171.569,82.999 L49.783,82.999 C47.141,82.999 44.998,80.760 44.998,77.999 C44.998,76.917 45.886,75.097 45.886,75.097 C45.886,75.097 46.038,78.999 49.783,78.999 Z"/>
<path fill-rule="evenodd"  fill="rgb(255, 222, 0)"
 d="M58.999,63.000 L190.361,63.000 C193.122,63.000 195.360,65.238 195.360,67.999 L195.360,67.999 C195.360,70.761 193.122,73.000 190.361,73.000 L58.999,73.000 C56.237,73.000 53.998,70.761 53.998,67.999 L53.998,67.999 C53.998,65.238 56.237,63.000 58.999,63.000 Z"/>
<path fill-rule="evenodd"  fill="rgb(128, 118, 54)"
 d="M58.783,68.999 L190.569,68.999 C194.487,68.999 194.563,65.244 194.563,65.244 C194.563,65.244 195.355,66.980 195.355,67.999 C195.355,70.760 193.211,72.999 190.569,72.999 L58.783,72.999 C56.141,72.999 53.997,70.760 53.997,67.999 C53.997,66.917 54.886,65.097 54.886,65.097 C54.886,65.097 55.038,68.999 58.783,68.999 Z"/>
<path fill-rule="evenodd"  fill="rgb(23, 204, 95)"
 d="M48.999,63.000 L170.360,63.000 C173.122,63.000 175.360,65.238 175.360,67.999 L175.360,67.999 C175.360,70.761 173.122,73.000 170.360,73.000 L48.999,73.000 C46.238,73.000 43.999,70.761 43.999,67.999 L43.999,67.999 C43.999,65.238 46.238,63.000 48.999,63.000 Z"/>
<path fill-rule="evenodd"  fill="rgb(16, 142, 66)"
 d="M48.783,68.999 L170.569,68.999 C174.487,68.999 174.563,65.244 174.563,65.244 C174.563,65.244 175.355,66.980 175.355,67.999 C175.355,70.760 173.211,72.999 170.569,72.999 L48.783,72.999 C46.141,72.999 43.998,70.760 43.998,67.999 C43.998,66.917 44.886,65.097 44.886,65.097 C44.886,65.097 45.038,68.999 48.783,68.999 Z"/>
<path fill-rule="evenodd"  stroke="rgb(255, 255, 255)" stroke-width="1px" stroke-dasharray="4, 2" stroke-linecap="butt" stroke-linejoin="miter" fill="none"
 d="M174.999,86.000 L174.999,46.000 "/>
<path fill-rule="evenodd"  fill="rgb(255, 255, 255)"
 d="M194.200,40.996 C193.758,40.996 193.400,40.612 193.400,40.139 L193.400,29.853 C193.400,29.380 193.758,28.996 194.200,28.996 C194.643,28.996 195.001,29.380 195.001,29.853 L195.001,40.139 C195.001,40.612 194.643,40.996 194.200,40.996 ZM189.966,38.458 C189.651,38.773 189.160,38.764 188.855,38.437 C188.550,38.111 188.541,37.584 188.835,37.247 L190.135,35.853 L179.866,35.853 L181.167,37.247 C181.470,37.584 181.465,38.119 181.157,38.449 C180.848,38.780 180.349,38.783 180.035,38.458 L177.371,35.604 C177.296,35.524 177.236,35.428 177.195,35.322 C177.165,35.242 177.156,35.158 177.149,35.073 C177.146,35.046 177.134,35.023 177.134,34.996 C177.134,34.966 177.147,34.942 177.150,34.913 C177.157,34.831 177.166,34.748 177.196,34.670 C177.237,34.563 177.296,34.467 177.372,34.387 L180.035,31.533 C180.351,31.219 180.842,31.228 181.146,31.554 C181.451,31.880 181.459,32.406 181.166,32.744 L179.865,34.138 L190.135,34.138 L188.834,32.744 C188.531,32.408 188.536,31.873 188.844,31.543 C189.153,31.213 189.652,31.207 189.966,31.533 L192.632,34.391 C192.944,34.725 192.944,35.267 192.632,35.602 L189.966,38.458 ZM175.800,40.996 C175.358,40.996 175.000,40.612 175.000,40.139 L175.000,29.853 C175.000,29.380 175.358,28.996 175.800,28.996 C176.242,28.996 176.601,29.380 176.601,29.853 L176.601,40.139 C176.601,40.612 176.242,40.996 175.800,40.996 Z"/>
</svg>
