<svg 
 xmlns="http://www.w3.org/2000/svg"
 xmlns:xlink="http://www.w3.org/1999/xlink"
 width="300.5px" height="147.5px">
<path fill-rule="evenodd"  fill="none"
 d="M-0.002,-0.001 L299.999,-0.001 L299.999,146.999 L-0.002,146.999 L-0.002,-0.001 Z"/>
<path fill-rule="evenodd"  fill="rgb(127, 127, 127)"
 d="M203.011,113.154 C205.149,112.005 206.162,110.011 205.968,108.129 C206.176,106.136 205.149,104.253 203.011,103.104 L156.921,78.434 C154.881,77.284 152.436,76.758 149.993,76.758 C147.548,76.758 145.090,77.284 143.049,78.434 L96.961,103.006 C94.822,104.156 93.906,106.149 94.003,108.032 C93.906,110.025 94.822,112.005 96.961,113.154 L143.049,137.741 C145.090,138.890 147.534,139.416 149.993,139.416 C152.436,139.416 154.881,138.890 156.921,137.741 L203.011,113.154 Z"/>
<path fill-rule="evenodd"  fill="rgb(98, 98, 98)"
 d="M203.011,109.420 C205.149,108.271 206.162,106.278 205.968,104.395 C206.176,102.402 205.149,100.519 203.011,99.369 L156.921,74.699 C154.881,73.550 152.436,73.024 149.993,73.024 C147.548,73.024 145.090,73.550 143.049,74.699 L96.961,99.272 C94.822,100.422 93.906,102.415 94.003,104.298 C93.906,106.291 94.822,108.271 96.961,109.420 L143.049,134.007 C145.090,135.156 147.534,135.682 149.993,135.682 C152.436,135.682 154.881,135.156 156.921,134.007 L203.011,109.420 Z"/>
<path fill-rule="evenodd"  fill="rgb(127, 127, 127)"
 d="M203.011,108.154 C205.149,107.006 206.162,105.012 205.968,103.129 C206.176,101.136 205.149,99.253 203.011,98.103 L156.921,73.433 C154.881,72.284 152.436,71.758 149.993,71.758 C147.548,71.758 145.090,72.284 143.049,73.433 L96.961,98.006 C94.822,99.156 93.906,101.149 94.003,103.032 C93.906,105.025 94.822,107.006 96.961,108.154 L143.049,132.742 C145.090,133.891 147.534,134.416 149.993,134.416 C152.436,134.416 154.881,133.891 156.921,132.742 L203.011,108.154 Z"/>
<path fill-rule="evenodd"  fill="rgb(98, 98, 98)"
 d="M203.011,104.420 C205.149,103.271 206.162,101.278 205.968,99.395 C206.176,97.402 205.149,95.518 203.011,94.369 L156.921,69.699 C154.881,68.550 152.436,68.024 149.993,68.024 C147.548,68.024 145.090,68.550 143.049,69.699 L96.961,94.273 C94.822,95.422 93.906,97.415 94.003,99.298 C93.906,101.291 94.822,103.271 96.961,104.420 L143.049,129.007 C145.090,130.157 147.534,130.682 149.993,130.682 C152.436,130.682 154.881,130.157 156.921,129.007 L203.011,104.420 Z"/>
<path fill-rule="evenodd"  fill="rgb(127, 127, 127)"
 d="M203.011,103.154 C205.149,102.006 206.162,100.012 205.968,98.129 C206.176,96.135 205.149,94.253 203.011,93.103 L156.921,68.433 C154.881,67.284 152.436,66.759 149.993,66.759 C147.548,66.759 145.090,67.284 143.049,68.433 L96.961,93.007 C94.822,94.156 93.906,96.149 94.003,98.032 C93.906,100.026 94.822,102.006 96.961,103.154 L143.049,127.741 C145.090,128.891 147.534,129.416 149.993,129.416 C152.436,129.416 154.881,128.891 156.921,127.741 L203.011,103.154 Z"/>
<path fill-rule="evenodd"  fill="rgb(98, 98, 98)"
 d="M203.011,99.420 C205.149,98.271 206.162,96.278 205.968,94.395 C206.176,92.402 205.149,90.518 203.011,89.369 L156.921,64.699 C154.881,63.550 152.436,63.024 149.993,63.024 C147.548,63.024 145.090,63.550 143.049,64.699 L96.961,89.273 C94.822,90.422 93.906,92.415 94.003,94.298 C93.906,96.291 94.822,98.271 96.961,99.420 L143.049,124.007 C145.090,125.157 147.534,125.682 149.993,125.682 C152.436,125.682 154.881,125.157 156.921,124.007 L203.011,99.420 Z"/>
<path fill-rule="evenodd"  fill="rgb(127, 127, 127)"
 d="M203.011,98.154 C205.149,97.005 206.162,95.012 205.968,93.129 C206.176,91.136 205.149,89.253 203.011,88.103 L156.921,63.433 C154.881,62.284 152.436,61.758 149.993,61.758 C147.548,61.758 145.090,62.284 143.049,63.433 L96.961,88.007 C94.822,89.156 93.906,91.149 94.003,93.032 C93.906,95.026 94.822,97.005 96.961,98.154 L143.049,122.741 C145.090,123.890 147.534,124.417 149.993,124.417 C152.436,124.417 154.881,123.890 156.921,122.741 L203.011,98.154 Z"/>
<path fill-rule="evenodd"  fill="rgb(98, 98, 98)"
 d="M203.011,94.420 C205.149,93.271 206.162,91.278 205.968,89.395 C206.176,87.402 205.149,85.518 203.011,84.369 L156.921,59.699 C154.881,58.550 152.436,58.024 149.993,58.024 C147.548,58.024 145.090,58.550 143.049,59.699 L96.961,84.273 C94.822,85.421 93.906,87.415 94.003,89.298 C93.906,91.291 94.822,93.271 96.961,94.420 L143.049,119.007 C145.090,120.156 147.534,120.682 149.993,120.682 C152.436,120.682 154.881,120.156 156.921,119.007 L203.011,94.420 Z"/>
<path fill-rule="evenodd"  fill="rgb(127, 127, 127)"
 d="M203.011,93.155 C205.149,92.005 206.162,90.012 205.968,88.129 C206.176,86.136 205.149,84.253 203.011,83.104 L156.921,58.433 C154.881,57.284 152.436,56.758 149.993,56.758 C147.548,56.758 145.090,57.284 143.049,58.433 L96.961,83.007 C94.822,84.156 93.906,86.149 94.003,88.032 C93.906,90.025 94.822,92.005 96.961,93.155 L143.049,117.741 C145.090,118.891 147.534,119.417 149.993,119.417 C152.436,119.417 154.881,118.891 156.921,117.741 L203.011,93.155 Z"/>
<path fill-rule="evenodd"  fill="rgb(98, 98, 98)"
 d="M203.011,89.421 C205.149,88.271 206.162,86.278 205.968,84.395 C206.176,82.402 205.149,80.518 203.011,79.369 L156.921,54.699 C154.881,53.550 152.436,53.024 149.993,53.024 C147.548,53.024 145.090,53.550 143.049,54.699 L96.961,79.273 C94.822,80.422 93.906,82.415 94.003,84.298 C93.906,86.291 94.822,88.271 96.961,89.421 L143.049,114.007 C145.090,115.156 147.534,115.682 149.993,115.682 C152.436,115.682 154.881,115.156 156.921,114.007 L203.011,89.421 Z"/>
<path fill-rule="evenodd"  fill="rgb(127, 127, 127)"
 d="M203.011,88.155 C205.149,87.005 206.162,85.012 205.968,83.129 C206.176,81.136 205.149,79.252 203.011,78.103 L156.921,53.433 C154.881,52.284 152.436,51.758 149.993,51.758 C147.548,51.758 145.090,52.284 143.049,53.433 L96.961,78.007 C94.822,79.156 93.906,81.150 94.003,83.032 C93.906,85.025 94.822,87.005 96.961,88.155 L143.049,112.741 C145.090,113.891 147.534,114.416 149.993,114.416 C152.436,114.416 154.881,113.891 156.921,112.741 L203.011,88.155 Z"/>
<path fill-rule="evenodd"  fill="rgb(98, 98, 98)"
 d="M203.011,84.420 C205.149,83.271 206.162,81.278 205.968,79.395 C206.176,77.402 205.149,75.519 203.011,74.369 L156.921,49.699 C154.881,48.550 152.436,48.024 149.993,48.024 C147.548,48.024 145.090,48.550 143.049,49.699 L96.961,74.273 C94.822,75.422 93.906,77.415 94.003,79.298 C93.906,81.291 94.822,83.271 96.961,84.420 L143.049,109.007 C145.090,110.156 147.534,110.682 149.993,110.682 C152.436,110.682 154.881,110.156 156.921,109.007 L203.011,84.420 Z"/>
<path fill-rule="evenodd"  fill="rgb(127, 127, 127)"
 d="M203.011,83.154 C205.149,82.005 206.162,80.012 205.968,78.129 C206.176,76.136 205.149,74.253 203.011,73.103 L156.921,48.434 C154.881,47.284 152.436,46.758 149.993,46.758 C147.548,46.758 145.090,47.284 143.049,48.434 L96.961,73.007 C94.822,74.156 93.906,76.149 94.003,78.032 C93.906,80.026 94.822,82.005 96.961,83.154 L143.049,107.742 C145.090,108.890 147.534,109.417 149.993,109.417 C152.436,109.417 154.881,108.890 156.921,107.742 L203.011,83.154 Z"/>
<path fill-rule="evenodd"  fill="rgb(98, 98, 98)"
 d="M203.011,79.420 C205.149,78.271 206.162,76.277 205.968,74.395 C206.176,72.402 205.149,70.519 203.011,69.369 L156.921,44.699 C154.881,43.550 152.436,43.024 149.993,43.024 C147.548,43.024 145.090,43.550 143.049,44.699 L96.961,69.272 C94.822,70.422 93.906,72.415 94.003,74.297 C93.906,76.291 94.822,78.271 96.961,79.420 L143.049,104.007 C145.090,105.157 147.534,105.682 149.993,105.682 C152.436,105.682 154.881,105.157 156.921,104.007 L203.011,79.420 Z"/>
<path fill-rule="evenodd"  fill="rgb(127, 127, 127)"
 d="M203.011,78.154 C205.149,77.006 206.162,75.011 205.968,73.129 C206.176,71.136 205.149,69.253 203.011,68.103 L156.921,43.434 C154.881,42.284 152.436,41.758 149.993,41.758 C147.548,41.758 145.090,42.284 143.049,43.434 L96.961,68.006 C94.822,69.156 93.906,71.149 94.003,73.032 C93.906,75.026 94.822,77.006 96.961,78.154 L143.049,102.741 C145.090,103.891 147.534,104.416 149.993,104.416 C152.436,104.416 154.881,103.891 156.921,102.741 L203.011,78.154 Z"/>
<path fill-rule="evenodd"  fill="rgb(98, 98, 98)"
 d="M203.011,74.420 C205.149,73.271 206.162,71.278 205.968,69.395 C206.176,67.402 205.149,65.519 203.011,64.369 L156.921,39.699 C154.881,38.550 152.436,38.024 149.993,38.024 C147.548,38.024 145.090,38.550 143.049,39.699 L96.961,64.272 C94.822,65.422 93.906,67.415 94.003,69.298 C93.906,71.291 94.822,73.271 96.961,74.420 L143.049,99.007 C145.090,100.156 147.534,100.682 149.993,100.682 C152.436,100.682 154.881,100.156 156.921,99.007 L203.011,74.420 Z"/>
<path fill-rule="evenodd"  fill="rgb(127, 127, 127)"
 d="M203.011,73.154 C205.149,72.006 206.162,70.012 205.968,68.129 C206.176,66.136 205.149,64.253 203.011,63.103 L156.921,38.433 C154.881,37.284 152.436,36.758 149.993,36.758 C147.548,36.758 145.090,37.284 143.049,38.433 L96.961,63.007 C94.822,64.156 93.906,66.149 94.003,68.032 C93.906,70.025 94.822,72.006 96.961,73.154 L143.049,97.741 C145.090,98.891 147.534,99.416 149.993,99.416 C152.436,99.416 154.881,98.891 156.921,97.741 L203.011,73.154 Z"/>
<path fill-rule="evenodd"  fill="rgb(98, 98, 98)"
 d="M203.011,69.420 C205.149,68.272 206.162,66.278 205.968,64.395 C206.176,62.401 205.149,60.518 203.011,59.369 L156.921,34.699 C154.881,33.550 152.436,33.024 149.993,33.024 C147.548,33.024 145.090,33.550 143.049,34.699 L96.961,59.273 C94.822,60.421 93.906,62.415 94.003,64.298 C93.906,66.291 94.822,68.272 96.961,69.420 L143.049,94.007 C145.090,95.157 147.534,95.682 149.993,95.682 C152.436,95.682 154.881,95.157 156.921,94.007 L203.011,69.420 Z"/>
<path fill-rule="evenodd"  fill="rgb(127, 127, 127)"
 d="M203.011,68.155 C205.149,67.005 206.162,65.012 205.968,63.129 C206.176,61.136 205.149,59.252 203.011,58.103 L156.921,33.433 C154.881,32.284 152.436,31.758 149.993,31.758 C147.548,31.758 145.090,32.284 143.049,33.433 L96.961,58.007 C94.822,59.156 93.906,61.150 94.003,63.032 C93.906,65.026 94.822,67.005 96.961,68.155 L143.049,92.741 C145.090,93.891 147.534,94.416 149.993,94.416 C152.436,94.416 154.881,93.891 156.921,92.741 L203.011,68.155 Z"/>
<path fill-rule="evenodd"  fill="rgb(23, 204, 95)"
 d="M203.011,64.421 C205.149,63.271 206.162,61.278 205.968,59.395 C206.176,57.402 205.149,55.518 203.011,54.369 L156.921,29.699 C154.881,28.550 152.436,28.024 149.993,28.024 C147.548,28.024 145.090,28.550 143.049,29.699 L96.961,54.273 C94.822,55.421 93.906,57.415 94.003,59.298 C93.906,61.291 94.822,63.271 96.961,64.421 L143.049,89.007 C145.090,90.156 147.534,90.682 149.993,90.682 C152.436,90.682 154.881,90.156 156.921,89.007 L203.011,64.421 Z"/>
<path fill-rule="evenodd"  fill="rgb(28, 227, 107)"
 d="M203.011,63.155 C205.149,62.005 206.162,60.012 205.968,58.129 C206.176,56.136 205.149,54.252 203.011,53.103 L156.921,28.433 C154.881,27.284 152.436,26.758 149.993,26.758 C147.548,26.758 145.090,27.284 143.049,28.433 L96.961,53.007 C94.822,54.156 93.906,56.149 94.003,58.032 C93.906,60.026 94.822,62.005 96.961,63.155 L143.049,87.741 C145.090,88.890 147.534,89.417 149.993,89.417 C152.436,89.417 154.881,88.890 156.921,87.741 L203.011,63.155 Z"/>
<path fill-rule="evenodd"  stroke="rgb(23, 204, 95)" stroke-width="1px" stroke-linecap="butt" stroke-linejoin="miter" fill="none"
 d="M191.685,62.051 C193.365,61.134 194.162,59.543 194.010,58.040 C194.173,56.450 193.365,54.947 191.685,54.030 L155.458,34.343 C153.853,33.426 151.932,33.006 150.010,33.006 C148.090,33.006 146.157,33.426 144.553,34.343 L108.326,53.952 C106.646,54.869 105.925,56.461 106.001,57.963 C105.925,59.553 106.646,61.134 108.326,62.051 L144.553,81.671 C146.157,82.588 148.079,83.008 150.010,83.008 C151.932,83.008 153.853,82.588 155.458,81.671 L191.685,62.051 Z"/>
<path fill-rule="evenodd"  stroke="rgb(23, 204, 95)" stroke-width="1px" stroke-linecap="butt" stroke-linejoin="miter" fill="none"
 d="M152.456,38.250 L150.852,37.540 L147.106,39.196 L154.596,39.196 L155.933,40.141 L144.432,40.141 L142.024,41.324 L159.143,41.324 L161.283,42.744 L139.617,42.744 L137.744,43.926 L164.225,43.926 L166.900,45.345 L134.535,45.345 L132.128,46.764 L170.110,46.764 L172.250,48.183 L129.185,48.183 L127.313,49.366 L175.726,49.603 L177.866,50.785 L123.568,51.022 L121.428,52.204 L181.344,52.440 L183.216,53.623 L118.486,53.860 L116.346,55.279 L186.099,55.279 L188.239,56.698 L112.602,56.698 L111.633,57.881 L189.518,58.354 L188.774,59.773 L113.136,59.773 L115.009,60.956 L184.821,61.429 L182.681,62.847 L119.288,62.847 L121.161,64.030 L180.006,64.030 L178.401,65.449 L124.638,65.449 L126.243,66.632 L174.121,66.868 L172.250,68.287 L129.987,68.287 L131.860,69.470 L168.772,69.470 L166.900,70.889 L135.337,71.126 L137.210,72.308 L162.620,72.545 L160.748,73.964 L141.757,73.964 L143.629,75.383 L157.271,75.146 L155.666,76.566 L147.641,76.802 L150.852,78.458 L152.724,77.748 "/>
<path fill-rule="evenodd"  opacity="0.302" fill="rgb(0, 0, 0)"
 d="M150.730,136.439 C150.712,137.467 149.702,138.033 149.702,138.033 C149.702,138.033 149.885,139.416 149.993,139.416 C152.436,139.416 154.881,138.891 156.921,137.741 L203.011,113.154 C205.149,112.005 206.162,110.012 205.968,108.129 C206.176,106.135 206.251,56.145 205.968,58.129 C206.162,61.089 205.136,62.850 202.998,63.999 L161.997,85.999 C159.957,87.148 152.021,90.288 150.998,89.999 C150.988,89.996 151.968,91.686 151.937,92.928 C151.923,93.533 150.906,94.268 150.888,95.119 C150.873,95.781 151.858,96.513 151.841,97.307 C151.826,98.040 150.809,98.825 150.793,99.658 C150.777,100.421 151.761,101.223 151.745,102.060 C151.728,102.875 150.711,103.721 150.694,104.597 C150.677,105.536 151.657,106.509 151.637,107.509 C151.622,108.302 150.606,109.111 150.591,109.936 C150.574,110.813 151.556,111.708 151.539,112.615 C151.528,113.188 150.517,113.767 150.507,114.351 C150.489,115.270 151.471,116.201 151.453,117.140 C151.437,117.989 150.422,118.846 150.405,119.707 C150.388,120.589 151.371,121.475 151.355,122.362 C151.339,123.255 150.322,124.151 150.305,125.046 C150.290,125.895 151.274,126.744 151.258,127.590 C151.244,128.336 150.230,129.081 150.217,129.821 C150.203,130.600 151.187,131.376 151.173,132.145 C151.157,133.032 150.141,133.912 150.125,134.782 C150.108,135.663 151.093,136.532 151.077,137.389 "/>
<path fill-rule="evenodd"  stroke="rgb(127, 127, 127)" stroke-width="1px" stroke-dasharray="4, 2" stroke-linecap="butt" stroke-linejoin="miter" fill="none"
 d="M94.997,42.998 L94.997,59.998 "/>
<path fill-rule="evenodd"  stroke="rgb(127, 127, 127)" stroke-width="1px" stroke-dasharray="4, 2" stroke-linecap="butt" stroke-linejoin="miter" fill="none"
 d="M205.997,42.998 L205.997,59.998 "/>
<path fill-rule="evenodd"  stroke="rgb(127, 127, 127)" stroke-width="1px" stroke-dasharray="4, 2" stroke-linecap="butt" stroke-linejoin="miter" fill="none"
 d="M150.997,8.998 L150.997,25.998 "/>
<path fill-rule="evenodd"  stroke="rgb(127, 127, 127)" stroke-width="1px" stroke-dasharray="4, 2" stroke-linecap="butt" stroke-linejoin="miter" fill="none"
 d="M150.997,70.998 L150.997,90.998 "/>
<path fill-rule="evenodd"  stroke="rgb(127, 127, 127)" stroke-width="1px" stroke-dasharray="4, 2" stroke-linecap="butt" stroke-linejoin="miter" fill="none"
 d="M203.010,44.419 C205.148,43.270 206.162,41.276 205.968,39.394 C206.176,37.401 205.148,35.517 203.010,34.368 L156.921,9.698 C154.880,8.549 152.436,8.023 149.991,8.023 C147.547,8.023 145.090,8.549 143.048,9.698 L96.960,34.271 C94.821,35.421 93.905,37.414 94.002,39.297 C93.905,41.290 94.821,43.270 96.960,44.419 L143.048,69.006 C145.090,70.155 147.534,70.681 149.991,70.681 C152.436,70.681 154.880,70.155 156.921,69.006 L203.010,44.419 Z"/>
<path fill-rule="evenodd"  fill="rgb(23, 204, 95)"
 d="M238.998,33.999 C240.103,33.999 240.998,34.895 240.998,35.999 C240.998,35.999 240.998,41.897 240.998,48.353 C240.998,51.069 239.998,68.999 239.998,68.999 C239.998,70.104 238.998,85.999 238.998,85.999 C238.998,85.999 237.998,70.104 237.998,68.999 C237.998,68.999 236.997,51.064 236.997,48.341 C236.997,41.884 236.997,35.999 236.997,35.999 C236.997,34.895 237.894,33.999 238.998,33.999 Z"/>
<path fill-rule="evenodd"  fill="rgb(183, 183, 183)"
 d="M224.009,8.342 C224.009,8.342 223.985,23.500 224.009,23.828 C224.034,24.156 224.438,25.067 225.783,26.399 C227.129,27.732 237.687,39.586 237.850,39.771 C238.014,39.956 238.180,40.284 238.737,40.285 C239.295,40.286 239.767,39.823 240.157,39.428 C240.547,39.033 252.318,25.887 252.756,25.371 C253.194,24.855 253.640,24.040 253.643,22.628 C253.647,21.215 253.643,8.342 253.643,8.342 L224.009,8.342 Z"/>
<path fill-rule="evenodd"  fill="rgb(207, 207, 207)"
 d="M225.606,26.056 C225.606,26.056 226.445,27.071 228.090,27.771 C230.710,28.885 235.131,29.843 239.625,29.485 C246.943,28.903 251.514,27.428 251.514,27.428 L239.447,40.456 L237.673,40.285 L225.428,26.399 L225.606,26.056 Z"/>
<path fill-rule="evenodd"  fill="rgb(127, 127, 127)"
 d="M247.965,8.000 L247.965,28.114 L239.270,40.456 L239.625,40.456 C239.625,40.456 253.418,24.957 253.820,24.171 C254.223,23.385 253.820,8.000 253.820,8.000 L247.965,8.000 Z"/>
<path fill-rule="evenodd"  fill="rgb(249, 249, 249)"
 d="M227.913,8.342 L227.913,27.600 L238.559,40.285 L234.833,29.314 L235.010,8.171 L227.913,8.342 Z"/>
</svg>
