<svg 
 xmlns="http://www.w3.org/2000/svg"
 xmlns:xlink="http://www.w3.org/1999/xlink"
 width="300.5px" height="147.5px">
<path fill-rule="evenodd"  fill="none"
 d="M-0.002,-0.001 L299.998,-0.001 L299.998,146.999 L-0.002,146.999 L-0.002,-0.001 Z"/>
<path fill-rule="evenodd"  fill="rgb(111, 111, 111)"
 d="M203.010,113.420 C205.148,112.271 206.162,110.277 205.968,108.395 C206.176,106.401 205.148,104.518 203.010,103.369 L156.921,78.699 C154.880,77.550 152.436,77.024 149.992,77.024 C147.548,77.024 145.090,77.550 143.048,78.699 L96.960,103.272 C94.822,104.422 93.905,106.415 94.003,108.297 C93.905,110.291 94.822,112.271 96.960,113.420 L143.048,138.007 C145.090,139.156 147.534,139.682 149.992,139.682 C152.436,139.682 154.880,139.156 156.921,138.007 L203.010,113.420 Z"/>
<path fill-rule="evenodd"  fill="rgb(127, 127, 127)"
 d="M203.010,113.154 C205.148,112.005 206.162,110.011 205.968,108.129 C206.176,106.136 205.148,104.252 203.010,103.103 L156.921,78.433 C154.880,77.284 152.436,76.758 149.992,76.758 C147.548,76.758 145.090,77.284 143.048,78.433 L96.960,103.006 C94.822,104.156 93.905,106.149 94.003,108.032 C93.905,110.025 94.822,112.005 96.960,113.154 L143.048,137.741 C145.090,138.890 147.534,139.416 149.992,139.416 C152.436,139.416 154.880,138.890 156.921,137.741 L203.010,113.154 Z"/>
<path fill-rule="evenodd"  stroke="rgb(111, 111, 111)" stroke-width="1px" stroke-linecap="butt" stroke-linejoin="miter" fill="none"
 d="M197.334,112.536 C199.244,111.510 203.149,109.728 202.976,108.045 C203.161,106.263 199.244,104.579 197.334,103.553 L156.181,81.504 C154.360,80.476 152.176,80.007 149.995,80.007 C147.812,80.007 145.618,80.476 143.796,81.504 L102.642,103.467 C100.733,104.494 96.915,106.275 97.001,107.958 C96.915,109.740 100.733,111.510 102.642,112.536 L143.796,134.511 C145.618,135.538 147.799,136.008 149.995,136.008 C152.176,136.008 154.360,135.538 156.181,134.511 L197.334,112.536 Z"/>
<path fill-rule="evenodd"  stroke="rgb(109, 109, 109)" stroke-width="1px" stroke-linecap="butt" stroke-linejoin="miter" fill="none"
 d="M191.684,111.050 C193.365,110.134 196.162,108.543 196.010,107.040 C196.173,105.450 193.365,103.946 191.684,103.029 L155.457,83.343 C153.853,82.425 151.932,82.006 150.011,82.006 C148.090,82.006 146.158,82.425 144.553,83.343 L108.327,102.953 C106.645,103.870 103.925,105.460 104.001,106.963 C103.925,108.553 106.645,110.134 108.327,111.050 L144.553,130.671 C146.158,131.588 148.078,132.007 150.011,132.007 C151.932,132.007 153.853,131.588 155.457,130.671 L191.684,111.050 Z"/>
<path fill-rule="evenodd"  stroke="rgb(23, 204, 95)" stroke-width="1px" stroke-linecap="butt" stroke-linejoin="miter" fill="none"
 d="M152.455,87.250 L150.850,86.540 L147.107,88.195 L154.596,88.195 L155.933,89.142 L144.432,89.142 L142.024,90.324 L159.143,90.324 L161.283,91.743 L139.617,91.743 L137.744,92.926 L164.225,92.926 L166.900,94.345 L134.535,94.345 L132.127,95.764 L170.109,95.764 L172.249,97.183 L129.185,97.183 L127.313,98.366 L175.726,98.602 L177.866,99.785 L123.568,100.021 L121.428,101.204 L181.344,101.441 L183.216,102.623 L118.486,102.860 L116.346,104.279 L186.099,104.279 L188.239,105.698 L112.601,105.698 L111.633,106.881 L189.518,107.354 L188.773,108.773 L113.136,108.773 L115.009,109.956 L184.821,110.429 L182.681,111.848 L119.289,111.848 L121.160,113.030 L180.006,113.030 L178.401,114.449 L124.638,114.449 L126.243,115.632 L174.121,115.868 L172.249,117.287 L129.988,117.287 L131.859,118.470 L168.772,118.470 L166.900,119.889 L135.337,120.125 L137.209,121.308 L162.621,121.544 L160.748,122.964 L141.757,122.964 L143.629,124.383 L157.270,124.147 L155.666,125.566 L147.641,125.802 L150.850,127.457 L152.723,126.748 "/>
<path fill-rule="evenodd"  stroke="rgb(127, 127, 127)" stroke-width="1px" stroke-dasharray="4, 2" stroke-linecap="butt" stroke-linejoin="miter" fill="none"
 d="M203.010,44.154 C205.148,43.005 206.162,41.012 205.968,39.129 C206.176,37.136 205.148,35.252 203.010,34.103 L156.921,9.433 C154.880,8.284 152.436,7.758 149.992,7.758 C147.548,7.758 145.090,8.284 143.048,9.433 L96.960,34.007 C94.822,35.156 93.905,37.149 94.003,39.032 C93.905,41.025 94.822,43.005 96.960,44.154 L143.048,68.741 C145.090,69.890 147.534,70.416 149.992,70.416 C152.436,70.416 154.880,69.890 156.921,68.741 L203.010,44.154 Z"/>
<path fill-rule="evenodd"  stroke="rgb(127, 127, 127)" stroke-width="1px" stroke-dasharray="4, 2" stroke-linecap="butt" stroke-linejoin="miter" fill="none"
 d="M94.997,43.999 L94.997,107.999 "/>
<path fill-rule="evenodd"  stroke="rgb(127, 127, 127)" stroke-width="1px" stroke-dasharray="4, 2" stroke-linecap="butt" stroke-linejoin="miter" fill="none"
 d="M205.997,43.999 L205.997,107.999 "/>
<path fill-rule="evenodd"  stroke="rgb(127, 127, 127)" stroke-width="1px" stroke-dasharray="4, 2" stroke-linecap="butt" stroke-linejoin="miter" fill="none"
 d="M150.997,71.999 L150.997,139.999 "/>
<path fill-rule="evenodd"  stroke="rgb(127, 127, 127)" stroke-width="1px" stroke-dasharray="4, 2" stroke-linecap="butt" stroke-linejoin="miter" fill="none"
 d="M150.997,9.999 L150.997,72.999 "/>
</svg>
