<svg 
 xmlns="http://www.w3.org/2000/svg"
 xmlns:xlink="http://www.w3.org/1999/xlink"
 width="25px" height="20px">
<path fill-rule="evenodd"  fill="none"
 d="M-0.000,0.000 L25.000,0.000 L25.000,20.000 L-0.000,20.000 L-0.000,0.000 Z"/>
<path fill-rule="evenodd"  fill="rgb(255, 255, 255)"
 d="M13.992,16.246 L13.997,16.246 C14.607,16.246 15.193,16.371 15.729,16.595 L23.662,19.924 C23.756,19.966 23.867,19.992 23.985,19.999 C24.140,20.006 24.204,19.791 24.070,19.709 L15.180,14.180 C14.813,13.956 14.402,13.844 13.992,13.844 L13.990,13.844 L13.990,13.844 C13.579,13.844 13.169,13.956 12.801,14.180 L3.914,19.709 C3.780,19.791 3.841,20.006 3.996,19.999 C4.116,19.992 4.225,19.966 4.320,19.924 L12.251,16.595 C12.787,16.371 13.375,16.246 13.985,16.246 L13.990,16.246 L13.992,16.246 L13.992,16.246 ZM13.990,2.238 L13.992,2.238 C14.128,2.232 14.277,2.337 14.328,2.471 L17.597,10.321 C17.887,11.016 18.381,12.237 18.683,12.926 L18.761,13.107 L18.834,13.299 L18.872,13.404 L18.901,13.501 L18.927,13.596 L18.948,13.688 L18.964,13.780 L18.976,13.876 L18.976,13.962 L18.973,14.029 L18.963,14.086 L18.949,14.135 L18.932,14.177 L18.909,14.215 L18.878,14.250 L18.834,14.289 L18.783,14.322 L18.719,14.354 L18.632,14.375 L18.540,14.385 L18.446,14.383 L18.352,14.369 L18.258,14.344 L18.168,14.307 L18.080,14.259 L17.993,14.201 L17.814,14.069 L17.593,13.904 L17.278,13.665 C17.247,13.647 17.239,13.593 17.261,13.566 C17.277,13.536 17.326,13.523 17.353,13.544 L17.934,13.915 C18.058,14.005 18.269,13.983 18.373,13.868 C18.491,13.768 18.530,13.548 18.455,13.410 L14.617,5.336 C14.500,5.097 14.264,4.932 13.992,4.932 L13.992,4.932 L13.990,4.932 C13.717,4.932 13.482,5.097 13.365,5.336 L9.526,13.410 C9.452,13.548 9.490,13.768 9.607,13.868 C9.712,13.983 9.923,14.005 10.048,13.915 L10.629,13.544 C10.656,13.523 10.707,13.536 10.722,13.566 C10.744,13.594 10.734,13.647 10.704,13.665 L10.389,13.904 L10.168,14.069 L9.989,14.201 L9.902,14.259 L9.814,14.307 L9.721,14.344 L9.630,14.369 L9.538,14.383 L9.442,14.385 L9.351,14.375 L9.263,14.354 L9.199,14.323 L9.147,14.289 L9.103,14.250 L9.072,14.215 L9.049,14.177 L9.032,14.135 L9.018,14.086 L9.008,14.029 L9.002,13.963 L9.006,13.876 L9.017,13.780 L9.033,13.688 L9.053,13.596 L9.081,13.501 L9.111,13.404 L9.147,13.299 L9.223,13.107 L9.299,12.926 C9.602,12.237 10.094,11.016 10.386,10.321 L13.652,2.471 C13.702,2.337 13.853,2.232 13.990,2.238 L13.990,2.238 ZM13.992,1.420 L13.992,1.420 L13.990,1.420 C13.741,1.412 13.493,1.579 13.397,1.821 L13.304,2.046 L12.934,2.936 C11.870,5.491 8.965,12.763 8.965,12.763 C8.694,13.379 8.308,14.379 9.140,14.720 C9.523,14.845 9.904,14.740 10.202,14.519 C10.812,14.070 12.667,12.643 12.934,12.477 C13.053,12.408 13.181,12.351 13.311,12.305 C13.531,12.229 13.761,12.191 13.990,12.191 L13.990,12.191 C14.221,12.191 14.451,12.229 14.670,12.305 C14.801,12.351 14.928,12.408 15.047,12.477 C15.317,12.643 17.170,14.070 17.783,14.519 C18.078,14.740 18.458,14.845 18.843,14.720 C19.672,14.379 19.286,13.379 19.017,12.763 C19.017,12.763 16.111,5.491 15.047,2.936 L14.679,2.046 L14.584,1.821 C14.486,1.579 14.241,1.412 13.992,1.420 M13.990,12.933 C13.622,12.931 13.241,13.049 12.931,13.260 L3.517,19.604 C3.457,19.646 3.371,19.660 3.298,19.640 C3.224,19.622 3.157,19.567 3.121,19.498 C2.952,19.213 2.947,18.788 3.112,18.499 L12.423,0.967 C12.703,0.394 13.378,-0.023 13.990,-0.002 L13.990,-0.002 L13.992,-0.002 C14.601,-0.023 15.278,0.394 15.560,0.967 L24.871,18.499 C25.034,18.788 25.031,19.213 24.861,19.498 C24.825,19.567 24.756,19.622 24.683,19.640 C24.610,19.660 24.525,19.646 24.463,19.604 L15.050,13.260 C14.742,13.049 14.358,12.931 13.992,12.933 L13.992,12.933 L13.990,12.933 Z"/>
</svg>
