<svg 
 xmlns="http://www.w3.org/2000/svg"
 xmlns:xlink="http://www.w3.org/1999/xlink"
 width="300.5px" height="147.5px">
<path fill-rule="evenodd"  fill="none"
 d="M-0.003,-0.001 L299.998,-0.001 L299.998,146.999 L-0.003,146.999 L-0.003,-0.001 Z"/>
<path fill-rule="evenodd"  fill="rgb(23, 204, 95)"
 d="M52.998,105.999 L124.360,105.999 C127.121,105.999 129.360,108.238 129.360,110.999 L129.360,110.999 C129.360,113.761 127.121,115.999 124.360,115.999 L52.998,115.999 C50.237,115.999 47.998,113.761 47.998,110.999 L47.998,110.999 C47.998,108.238 50.237,105.999 52.998,105.999 Z"/>
<path fill-rule="evenodd"  fill="rgb(16, 142, 66)"
 d="M52.783,111.998 L124.569,111.998 C128.487,111.998 128.562,108.243 128.562,108.243 C128.562,108.243 129.355,109.980 129.355,110.998 C129.355,113.760 127.211,115.999 124.569,115.999 L52.783,115.999 C50.140,115.999 47.998,113.760 47.998,110.998 C47.998,109.917 48.885,108.097 48.885,108.097 C48.885,108.097 49.038,111.998 52.783,111.998 Z"/>
<path fill-rule="evenodd"  fill="rgb(23, 204, 95)"
 d="M52.998,95.999 L134.360,95.999 C137.122,95.999 139.360,98.238 139.360,100.999 L139.360,100.999 C139.360,103.761 137.122,105.999 134.360,105.999 L52.998,105.999 C50.237,105.999 47.998,103.761 47.998,100.999 L47.998,100.999 C47.998,98.238 50.237,95.999 52.998,95.999 Z"/>
<path fill-rule="evenodd"  fill="rgb(16, 142, 66)"
 d="M52.783,101.998 L134.569,101.998 C138.487,101.998 138.562,98.243 138.562,98.243 C138.562,98.243 139.354,99.980 139.354,100.999 C139.354,103.760 137.211,105.999 134.569,105.999 L52.783,105.999 C50.140,105.999 47.998,103.760 47.998,100.999 C47.998,99.917 48.885,98.097 48.885,98.097 C48.885,98.097 49.038,101.998 52.783,101.998 Z"/>
<path fill-rule="evenodd"  fill="rgb(23, 204, 95)"
 d="M92.999,85.999 L144.360,85.999 C147.121,85.999 149.360,88.238 149.360,90.999 L149.360,90.999 C149.360,93.761 147.121,95.999 144.360,95.999 L92.999,95.999 C90.237,95.999 87.999,93.761 87.999,90.999 L87.999,90.999 C87.999,88.238 90.237,85.999 92.999,85.999 Z"/>
<path fill-rule="evenodd"  fill="rgb(16, 142, 66)"
 d="M92.782,91.999 L144.569,91.999 C148.486,91.999 148.563,88.243 148.563,88.243 C148.563,88.243 149.354,89.980 149.354,90.999 C149.354,93.760 147.211,95.999 144.569,95.999 L92.782,95.999 C90.140,95.999 87.997,93.760 87.997,90.999 C87.997,89.917 88.885,88.097 88.885,88.097 C88.885,88.097 89.038,91.999 92.782,91.999 Z"/>
<path fill-rule="evenodd"  fill="rgb(23, 204, 95)"
 d="M112.999,75.999 L154.360,75.999 C157.122,75.999 159.360,78.238 159.360,80.999 L159.360,80.999 C159.360,83.761 157.122,85.999 154.360,85.999 L112.999,85.999 C110.237,85.999 107.998,83.761 107.998,80.999 L107.998,80.999 C107.998,78.238 110.237,75.999 112.999,75.999 Z"/>
<path fill-rule="evenodd"  fill="rgb(16, 142, 66)"
 d="M112.783,81.999 L154.569,81.999 C158.487,81.999 158.563,78.243 158.563,78.243 C158.563,78.243 159.355,79.980 159.355,80.999 C159.355,83.760 157.211,85.999 154.569,85.999 L112.783,85.999 C110.141,85.999 107.997,83.760 107.997,80.999 C107.997,79.917 108.885,78.097 108.885,78.097 C108.885,78.097 109.038,81.999 112.783,81.999 Z"/>
<path fill-rule="evenodd"  fill="rgb(23, 204, 95)"
 d="M122.998,65.999 L164.360,65.999 C167.121,65.999 169.360,68.238 169.360,70.999 L169.360,70.999 C169.360,73.761 167.121,75.999 164.360,75.999 L122.998,75.999 C120.237,75.999 117.999,73.761 117.999,70.999 L117.999,70.999 C117.999,68.238 120.237,65.999 122.998,65.999 Z"/>
<path fill-rule="evenodd"  fill="rgb(16, 142, 66)"
 d="M122.783,71.999 L164.569,71.999 C168.486,71.999 168.562,68.243 168.562,68.243 C168.562,68.243 169.354,69.980 169.354,70.999 C169.354,73.760 167.211,75.999 164.569,75.999 L122.783,75.999 C120.140,75.999 117.997,73.760 117.997,70.999 C117.997,69.917 118.885,68.097 118.885,68.097 C118.885,68.097 119.038,71.999 122.783,71.999 Z"/>
<path fill-rule="evenodd"  fill="rgb(23, 204, 95)"
 d="M132.998,55.999 L194.360,55.999 C197.122,55.999 199.360,58.238 199.360,60.999 L199.360,60.999 C199.360,63.761 197.122,65.999 194.360,65.999 L132.998,65.999 C130.237,65.999 127.998,63.761 127.998,60.999 L127.998,60.999 C127.998,58.238 130.237,55.999 132.998,55.999 Z"/>
<path fill-rule="evenodd"  fill="rgb(16, 142, 66)"
 d="M132.783,61.999 L194.569,61.999 C198.486,61.999 198.563,58.243 198.563,58.243 C198.563,58.243 199.354,59.980 199.354,60.999 C199.354,63.760 197.211,65.999 194.569,65.999 L132.783,65.999 C130.140,65.999 127.998,63.760 127.998,60.999 C127.998,59.917 128.885,58.097 128.885,58.097 C128.885,58.097 129.038,61.999 132.783,61.999 Z"/>
<path fill-rule="evenodd"  fill="rgb(23, 204, 95)"
 d="M142.998,46.000 L202.360,46.000 C205.122,46.000 207.360,48.238 207.360,50.999 L207.360,50.999 C207.360,53.761 205.122,55.999 202.360,55.999 L142.998,55.999 C140.237,55.999 137.999,53.761 137.999,50.999 L137.999,50.999 C137.999,48.238 140.237,46.000 142.998,46.000 Z"/>
<path fill-rule="evenodd"  fill="rgb(16, 142, 66)"
 d="M142.783,51.999 L202.569,51.999 C206.486,51.999 206.563,48.243 206.563,48.243 C206.563,48.243 207.354,49.980 207.354,50.999 C207.354,53.760 205.211,55.999 202.569,55.999 L142.783,55.999 C140.140,55.999 137.997,53.760 137.997,50.999 C137.997,49.917 138.885,48.097 138.885,48.097 C138.885,48.097 139.038,51.999 142.783,51.999 Z"/>
<path fill-rule="evenodd"  fill="rgb(102, 102, 102)"
 d="M252.160,103.768 L245.652,97.247 C245.652,97.247 244.860,96.585 245.396,95.745 C245.928,94.480 246.225,93.091 246.225,91.632 C246.225,85.760 241.473,81.000 235.611,81.000 C234.601,81.000 233.627,81.148 232.702,81.415 C231.910,81.689 232.473,82.265 232.473,82.265 L237.362,87.163 C238.933,88.736 238.933,91.287 237.362,92.860 L236.888,93.335 C235.319,94.908 232.773,94.908 231.202,93.335 L226.236,88.359 C226.236,88.359 225.727,87.932 225.455,88.574 C225.161,89.543 224.999,90.567 224.999,91.632 C224.999,97.504 229.751,102.264 235.611,102.264 C237.200,102.264 238.707,101.913 240.060,101.286 C240.670,100.969 241.125,101.491 241.125,101.491 L247.776,108.160 C248.442,108.828 249.355,109.097 250.220,108.969 C250.220,108.969 252.461,108.767 252.960,106.266 C253.106,105.385 252.840,104.448 252.160,103.768 L252.160,103.768 Z"/>
<path fill-rule="evenodd"  stroke="rgb(51, 51, 51)" stroke-width="1px" stroke-dasharray="4, 2" stroke-linecap="butt" stroke-linejoin="miter" fill="none"
 d="M168.998,87.000 L168.998,31.999 "/>
<path fill-rule="evenodd"  stroke="rgb(51, 51, 51)" stroke-width="1px" stroke-dasharray="4, 2" stroke-linecap="butt" stroke-linejoin="miter" fill="none"
 d="M155.999,65.999 L215.000,65.999 "/>
<path fill-rule="evenodd"  fill="rgb(153, 153, 153)"
 d="M199.785,80.371 C200.086,80.758 200.018,81.312 199.636,81.616 L199.625,81.626 L193.903,86.033 C195.265,87.677 196.054,89.769 196.054,91.999 C196.054,92.166 196.050,92.333 196.041,92.499 L199.075,92.499 C199.566,92.499 199.965,92.892 199.973,93.379 L199.973,93.393 C199.973,93.882 199.579,94.280 199.089,94.288 L195.771,94.288 C195.676,94.667 195.556,95.040 195.413,95.404 C195.233,95.865 194.712,96.092 194.249,95.913 C193.787,95.734 193.559,95.215 193.739,94.755 C193.799,94.601 193.854,94.445 193.904,94.288 L182.943,94.288 C182.659,94.288 182.390,94.156 182.216,93.932 C181.907,93.536 181.977,92.967 182.368,92.655 L182.380,92.646 L191.154,85.888 C190.888,85.693 190.608,85.514 190.319,85.354 C189.884,85.115 189.726,84.571 189.967,84.139 C190.208,83.707 190.754,83.551 191.189,83.790 C191.695,84.068 192.174,84.393 192.620,84.758 L198.525,80.211 C198.917,79.909 199.482,79.980 199.785,80.371 L199.785,80.371 ZM192.481,87.128 L185.507,92.499 L194.241,92.499 C194.251,92.333 194.257,92.166 194.257,91.999 C194.257,90.175 193.605,88.465 192.481,87.128 L192.481,87.128 Z"/>
</svg>
