<svg 
 xmlns="http://www.w3.org/2000/svg"
 xmlns:xlink="http://www.w3.org/1999/xlink"
 width="300px" height="147px">
<path fill-rule="evenodd"  fill="none"
 d="M-0.003,-0.001 L299.998,-0.001 L299.998,146.999 L-0.003,146.999 L-0.003,-0.001 Z"/>
<path fill-rule="evenodd"  fill="rgb(23, 204, 95)"
 d="M63.998,98.999 L135.360,98.999 C138.121,98.999 140.360,101.238 140.360,103.999 L140.360,103.999 C140.360,106.761 138.121,108.999 135.360,108.999 L63.998,108.999 C61.237,108.999 58.998,106.761 58.998,103.999 L58.998,103.999 C58.998,101.238 61.237,98.999 63.998,98.999 Z"/>
<path fill-rule="evenodd"  fill="rgb(16, 142, 66)"
 d="M63.783,104.998 L135.569,104.998 C139.487,104.998 139.563,101.243 139.563,101.243 C139.563,101.243 140.354,102.980 140.354,103.998 C140.354,106.760 138.211,108.999 135.569,108.999 L63.783,108.999 C61.140,108.999 58.997,106.760 58.997,103.998 C58.997,102.917 59.885,101.097 59.885,101.097 C59.885,101.097 60.038,104.998 63.783,104.998 Z"/>
<path fill-rule="evenodd"  fill="rgb(23, 204, 95)"
 d="M63.998,88.999 L145.360,88.999 C148.121,88.999 150.360,91.238 150.360,93.999 L150.360,93.999 C150.360,96.761 148.121,98.999 145.360,98.999 L63.998,98.999 C61.236,98.999 58.998,96.761 58.998,93.999 L58.998,93.999 C58.998,91.238 61.236,88.999 63.998,88.999 Z"/>
<path fill-rule="evenodd"  fill="rgb(16, 142, 66)"
 d="M63.783,94.998 L145.568,94.998 C149.486,94.998 149.562,91.243 149.562,91.243 C149.562,91.243 150.354,92.980 150.354,93.998 C150.354,96.760 148.211,98.999 145.568,98.999 L63.783,98.999 C61.140,98.999 58.997,96.760 58.997,93.998 C58.997,92.917 59.885,91.097 59.885,91.097 C59.885,91.097 60.038,94.998 63.783,94.998 Z"/>
<path fill-rule="evenodd"  fill="rgb(23, 204, 95)"
 d="M103.998,78.999 L155.360,78.999 C158.122,78.999 160.360,81.238 160.360,83.999 L160.360,83.999 C160.360,86.761 158.122,88.999 155.360,88.999 L103.998,88.999 C101.237,88.999 98.999,86.761 98.999,83.999 L98.999,83.999 C98.999,81.238 101.237,78.999 103.998,78.999 Z"/>
<path fill-rule="evenodd"  fill="rgb(16, 142, 66)"
 d="M103.782,84.998 L155.569,84.998 C159.486,84.998 159.563,81.243 159.563,81.243 C159.563,81.243 160.354,82.980 160.354,83.999 C160.354,86.760 158.211,88.999 155.569,88.999 L103.782,88.999 C101.140,88.999 98.997,86.760 98.997,83.999 C98.997,82.917 99.885,81.097 99.885,81.097 C99.885,81.097 100.038,84.998 103.782,84.998 Z"/>
<path fill-rule="evenodd"  fill="rgb(23, 204, 95)"
 d="M123.998,68.999 L165.360,68.999 C168.122,68.999 170.360,71.238 170.360,73.999 L170.360,73.999 C170.360,76.761 168.122,78.999 165.360,78.999 L123.998,78.999 C121.237,78.999 118.998,76.761 118.998,73.999 L118.998,73.999 C118.998,71.238 121.237,68.999 123.998,68.999 Z"/>
<path fill-rule="evenodd"  fill="rgb(16, 142, 66)"
 d="M123.782,74.999 L165.568,74.999 C169.487,74.999 169.562,71.243 169.562,71.243 C169.562,71.243 170.354,72.980 170.354,73.999 C170.354,76.760 168.211,78.999 165.568,78.999 L123.782,78.999 C121.140,78.999 118.997,76.760 118.997,73.999 C118.997,72.917 119.885,71.097 119.885,71.097 C119.885,71.097 120.038,74.999 123.782,74.999 Z"/>
<path fill-rule="evenodd"  fill="rgb(23, 204, 95)"
 d="M133.998,58.999 L175.360,58.999 C178.122,58.999 180.360,61.238 180.360,63.999 L180.360,63.999 C180.360,66.761 178.122,68.999 175.360,68.999 L133.998,68.999 C131.237,68.999 128.998,66.761 128.998,63.999 L128.998,63.999 C128.998,61.238 131.237,58.999 133.998,58.999 Z"/>
<path fill-rule="evenodd"  fill="rgb(16, 142, 66)"
 d="M133.783,64.999 L175.568,64.999 C179.487,64.999 179.563,61.243 179.563,61.243 C179.563,61.243 180.354,62.980 180.354,63.999 C180.354,66.760 178.211,68.999 175.568,68.999 L133.783,68.999 C131.140,68.999 128.997,66.760 128.997,63.999 C128.997,62.917 129.885,61.097 129.885,61.097 C129.885,61.097 130.038,64.999 133.783,64.999 Z"/>
<path fill-rule="evenodd"  fill="rgb(23, 204, 95)"
 d="M143.999,48.999 L195.360,48.999 C198.121,48.999 200.360,51.238 200.360,53.999 L200.360,53.999 C200.360,56.761 198.121,58.999 195.360,58.999 L143.999,58.999 C141.237,58.999 138.999,56.761 138.999,53.999 L138.999,53.999 C138.999,51.238 141.237,48.999 143.999,48.999 Z"/>
<path fill-rule="evenodd"  fill="rgb(16, 142, 66)"
 d="M143.782,54.999 L195.569,54.999 C199.486,54.999 199.562,51.243 199.562,51.243 C199.562,51.243 200.355,52.980 200.355,53.999 C200.355,56.760 198.211,58.999 195.569,58.999 L143.782,58.999 C141.140,58.999 138.997,56.760 138.997,53.999 C138.997,52.917 139.885,51.097 139.885,51.097 C139.885,51.097 140.038,54.999 143.782,54.999 Z"/>
<path fill-rule="evenodd"  fill="rgb(23, 204, 95)"
 d="M153.999,39.000 L203.360,39.000 C206.121,39.000 208.360,41.238 208.360,43.999 L208.360,43.999 C208.360,46.761 206.121,48.999 203.360,48.999 L153.999,48.999 C151.237,48.999 148.998,46.761 148.998,43.999 L148.998,43.999 C148.998,41.238 151.237,39.000 153.999,39.000 Z"/>
<path fill-rule="evenodd"  fill="rgb(16, 142, 66)"
 d="M153.782,44.999 L203.569,44.999 C207.487,44.999 207.563,41.243 207.563,41.243 C207.563,41.243 208.354,42.980 208.354,43.999 C208.354,46.760 206.211,48.999 203.569,48.999 L153.782,48.999 C151.140,48.999 148.997,46.760 148.997,43.999 C148.997,42.917 149.885,41.097 149.885,41.097 C149.885,41.097 150.038,44.999 153.782,44.999 Z"/>
<path fill-rule="evenodd"  fill="rgb(102, 102, 102)"
 d="M241.160,88.768 L234.652,82.247 C234.652,82.247 233.859,81.585 234.396,80.745 C234.928,79.480 235.224,78.091 235.224,76.632 C235.224,70.760 230.473,66.000 224.612,66.000 C223.601,66.000 222.627,66.148 221.702,66.415 C220.911,66.689 221.472,67.265 221.472,67.265 L226.363,72.163 C227.932,73.736 227.932,76.287 226.363,77.860 L225.889,78.335 C224.318,79.908 221.773,79.908 220.203,78.335 L215.236,73.359 C215.236,73.359 214.727,72.932 214.455,73.574 C214.162,74.543 213.999,75.567 213.999,76.632 C213.999,82.504 218.751,87.264 224.612,87.264 C226.201,87.264 227.707,86.913 229.060,86.286 C229.670,85.969 230.126,86.491 230.126,86.491 L236.776,93.160 C237.442,93.827 238.354,94.097 239.220,93.969 C239.220,93.969 241.461,93.767 241.960,91.266 C242.106,90.385 241.840,89.448 241.160,88.768 L241.160,88.768 Z"/>
<path fill-rule="evenodd"  fill="rgb(153, 153, 153)"
 d="M203.809,78.645 C203.525,79.017 203.019,79.099 202.680,78.828 L187.768,66.345 L187.925,68.183 C187.948,68.629 187.626,69.037 187.196,69.106 C186.767,69.176 186.384,68.881 186.330,68.440 L185.998,64.558 C185.988,64.449 186.000,64.337 186.032,64.228 C186.054,64.153 186.096,64.087 186.137,64.020 C186.154,63.992 186.160,63.961 186.180,63.934 C186.198,63.911 186.223,63.899 186.242,63.878 C186.298,63.818 186.354,63.758 186.424,63.715 C186.519,63.656 186.622,63.618 186.728,63.601 L190.487,62.994 C190.923,62.931 191.303,63.241 191.342,63.690 C191.381,64.140 191.064,64.563 190.629,64.642 L188.738,64.947 L203.709,77.479 C204.048,77.750 204.093,78.272 203.809,78.645 Z"/>
</svg>
