<svg 
 xmlns="http://www.w3.org/2000/svg"
 xmlns:xlink="http://www.w3.org/1999/xlink"
 width="300.5px" height="147.5px">
<path fill-rule="evenodd"  fill="none"
 d="M-0.003,-0.001 L299.998,-0.001 L299.998,146.999 L-0.003,146.999 L-0.003,-0.001 Z"/>
<path fill-rule="evenodd"  fill="rgb(108, 108, 108)"
 d="M203.010,113.420 C205.148,112.271 206.162,110.277 205.968,108.395 C206.176,106.401 205.148,104.518 203.010,103.369 L156.921,78.699 C154.881,77.550 152.436,77.024 149.992,77.024 C147.547,77.024 145.089,77.550 143.048,78.699 L96.960,103.272 C94.821,104.422 93.906,106.415 94.002,108.297 C93.906,110.291 94.821,112.271 96.960,113.420 L143.048,138.007 C145.089,139.156 147.534,139.682 149.992,139.682 C152.436,139.682 154.881,139.156 156.921,138.007 L203.010,113.420 Z"/>
<path fill-rule="evenodd"  fill="rgb(127, 127, 127)"
 d="M203.010,112.154 C205.148,111.005 206.162,109.012 205.968,107.129 C206.176,105.136 205.148,103.252 203.010,102.103 L156.921,77.433 C154.881,76.284 152.436,75.758 149.992,75.758 C147.547,75.758 145.089,76.284 143.048,77.433 L96.960,102.006 C94.821,103.156 93.906,105.149 94.002,107.032 C93.906,109.025 94.821,111.005 96.960,112.154 L143.048,136.741 C145.089,137.890 147.534,138.416 149.992,138.416 C152.436,138.416 154.881,137.890 156.921,136.741 L203.010,112.154 Z"/>
<path fill-rule="evenodd"  stroke="rgb(109, 109, 109)" stroke-width="1px" stroke-linecap="butt" stroke-linejoin="miter" fill="none"
 d="M191.684,111.050 C193.365,110.134 194.162,108.543 194.009,107.040 C194.173,105.450 193.365,103.946 191.684,103.029 L155.457,83.343 C153.853,82.425 151.931,82.006 150.011,82.006 C148.089,82.006 146.158,82.425 144.553,83.343 L108.326,102.953 C106.645,103.870 105.925,105.460 106.001,106.963 C105.925,108.553 106.645,110.134 108.326,111.050 L144.553,130.671 C146.158,131.588 148.078,132.007 150.011,132.007 C151.931,132.007 153.853,131.588 155.457,130.671 L191.684,111.050 Z"/>
<path fill-rule="evenodd"  stroke="rgb(109, 109, 109)" stroke-width="1px" stroke-linecap="butt" stroke-linejoin="miter" fill="none"
 d="M152.455,87.250 L150.851,86.540 L147.106,88.195 L154.596,88.195 L155.933,89.142 L144.431,89.142 L142.025,90.324 L159.143,90.324 L161.283,91.743 L139.617,91.743 L137.744,92.926 L164.224,92.926 L166.899,94.345 L134.535,94.345 L132.127,95.764 L170.109,95.764 L172.249,97.183 L129.185,97.183 L127.312,98.366 L175.725,98.602 L177.866,99.785 L123.568,100.021 L121.428,101.204 L181.343,101.441 L183.216,102.623 L118.486,102.860 L116.346,104.279 L186.099,104.279 L188.239,105.698 L112.600,105.698 L111.633,106.881 L189.518,107.354 L188.773,108.773 L113.136,108.773 L115.009,109.956 L184.821,110.429 L182.681,111.848 L119.288,111.848 L121.161,113.030 L180.007,113.030 L178.402,114.449 L124.637,114.449 L126.242,115.632 L174.121,115.868 L172.249,117.288 L129.988,117.288 L131.860,118.470 L168.772,118.470 L166.899,119.889 L135.337,120.125 L137.209,121.308 L162.620,121.544 L160.748,122.964 L141.756,122.964 L143.629,124.383 L157.270,124.147 L155.665,125.566 L147.641,125.802 L150.851,127.458 L152.723,126.748 "/>
<path fill-rule="evenodd"  stroke="rgb(127, 127, 127)" stroke-width="1px" stroke-dasharray="4, 2" stroke-linecap="butt" stroke-linejoin="miter" fill="none"
 d="M203.010,44.155 C205.148,43.005 206.162,41.012 205.968,39.129 C206.176,37.136 205.148,35.252 203.010,34.103 L156.921,9.433 C154.881,8.284 152.436,7.758 149.992,7.758 C147.547,7.758 145.089,8.284 143.048,9.433 L96.960,34.007 C94.821,35.156 93.906,37.149 94.002,39.032 C93.906,41.025 94.821,43.005 96.960,44.155 L143.048,68.741 C145.089,69.890 147.534,70.416 149.992,70.416 C152.436,70.416 154.881,69.890 156.921,68.741 L203.010,44.155 Z"/>
<path fill-rule="evenodd"  stroke="rgb(127, 127, 127)" stroke-width="1px" stroke-dasharray="4, 2" stroke-linecap="butt" stroke-linejoin="miter" fill="none"
 d="M94.998,43.999 L94.998,107.999 "/>
<path fill-rule="evenodd"  stroke="rgb(127, 127, 127)" stroke-width="1px" stroke-dasharray="4, 2" stroke-linecap="butt" stroke-linejoin="miter" fill="none"
 d="M205.997,43.999 L205.997,107.999 "/>
<path fill-rule="evenodd"  stroke="rgb(127, 127, 127)" stroke-width="1px" stroke-dasharray="4, 2" stroke-linecap="butt" stroke-linejoin="miter" fill="none"
 d="M150.997,71.999 L150.997,139.999 "/>
<path fill-rule="evenodd"  stroke="rgb(127, 127, 127)" stroke-width="1px" stroke-dasharray="4, 2" stroke-linecap="butt" stroke-linejoin="miter" fill="none"
 d="M150.997,9.999 L150.997,72.999 "/>
<path fill-rule="evenodd"  fill="rgb(255, 255, 255)"
 d="M166.999,101.000 C174.179,101.000 179.999,103.462 179.999,106.500 C179.999,109.537 174.179,112.000 166.999,112.000 C159.820,112.000 153.999,109.537 153.999,106.500 C153.999,103.462 159.820,101.000 166.999,101.000 Z"/>
<path fill-rule="evenodd"  fill="rgb(23, 204, 95)"
 d="M237.709,43.521 L182.590,96.028 L184.629,96.358 C185.063,96.436 185.381,96.860 185.342,97.309 C185.304,97.759 184.922,98.069 184.486,98.006 L180.727,97.399 C180.622,97.382 180.519,97.343 180.424,97.285 C180.340,97.233 180.269,97.165 180.206,97.089 C180.199,97.079 180.188,97.075 180.181,97.065 C180.169,97.051 180.167,97.033 180.157,97.018 C180.105,96.942 180.059,96.861 180.032,96.772 C180.000,96.662 179.988,96.550 179.998,96.440 L180.330,92.559 C180.384,92.119 180.767,91.824 181.196,91.894 C181.626,91.963 181.948,92.371 181.924,92.817 L181.784,94.468 L236.680,42.172 C237.019,41.900 237.525,41.983 237.808,42.355 C238.093,42.728 238.048,43.249 237.709,43.521 Z"/>
</svg>
