<svg 
 xmlns="http://www.w3.org/2000/svg"
 xmlns:xlink="http://www.w3.org/1999/xlink"
 width="300.5px" height="147.5px">
<path fill-rule="evenodd"  fill="none"
 d="M-0.002,-0.001 L299.998,-0.001 L299.998,146.999 L-0.002,146.999 L-0.002,-0.001 Z"/>
<path fill-rule="evenodd"  fill="rgb(127, 127, 127)"
 d="M156.010,101.154 C158.148,100.005 159.162,98.012 158.968,96.129 C159.176,94.136 158.148,92.252 156.010,91.103 L109.920,66.433 C107.879,65.284 105.435,64.758 102.992,64.758 C100.547,64.758 98.089,65.284 96.048,66.433 L49.960,91.007 C47.821,92.156 46.905,94.149 47.002,96.032 C46.905,98.025 47.821,100.005 49.960,101.154 L96.048,125.741 C98.089,126.890 100.534,127.416 102.992,127.416 C105.435,127.416 107.879,126.890 109.920,125.741 L156.010,101.154 Z"/>
<path fill-rule="evenodd"  fill="rgb(89, 89, 89)"
 d="M104.998,129.000 C104.998,129.000 102.998,127.719 102.998,125.999 C102.998,124.220 103.998,121.999 103.998,121.999 L158.998,91.000 L159.998,100.000 L104.998,129.000 Z"/>
<path fill-rule="evenodd"  fill="rgb(109, 109, 109)"
 d="M156.010,96.154 C158.148,95.005 159.162,93.012 158.968,91.129 C159.176,89.136 158.148,87.252 156.010,86.103 L109.920,61.433 C107.879,60.284 105.435,59.758 102.992,59.758 C100.547,59.758 98.089,60.284 96.048,61.433 L49.960,86.007 C47.821,87.156 46.905,89.149 47.002,91.032 C46.905,93.025 47.821,95.005 49.960,96.154 L96.048,120.741 C98.089,121.890 100.534,122.416 102.992,122.416 C105.435,122.416 107.879,121.890 109.920,120.741 L156.010,96.154 Z"/>
<path fill-rule="evenodd"  opacity="0.302" fill="rgb(0, 0, 0)"
 d="M104.998,123.999 C104.998,123.999 102.998,122.719 102.998,120.999 C102.998,119.220 103.998,116.999 103.998,116.999 L158.998,85.999 L159.998,94.999 L104.998,123.999 Z"/>
<path fill-rule="evenodd"  fill="rgb(28, 227, 107)"
 d="M156.010,91.154 C158.148,90.005 159.162,88.012 158.968,86.129 C159.176,84.136 158.148,82.252 156.010,81.103 L109.920,56.433 C107.879,55.284 105.435,54.758 102.992,54.758 C100.547,54.758 98.089,55.284 96.048,56.433 L49.960,81.007 C47.821,82.156 46.905,84.149 47.002,86.032 C46.905,88.025 47.821,90.005 49.960,91.154 L96.048,115.741 C98.089,116.890 100.534,117.416 102.992,117.416 C105.435,117.416 107.879,116.890 109.920,115.741 L156.010,91.154 Z"/>
<path fill-rule="evenodd"  fill="rgb(127, 127, 127)"
 d="M156.010,92.154 C158.148,91.005 159.162,89.012 158.968,87.129 C159.176,85.136 158.148,83.252 156.010,82.103 L109.920,57.433 C107.879,56.284 105.435,55.758 102.992,55.758 C100.547,55.758 98.089,56.284 96.048,57.433 L49.960,82.007 C47.821,83.156 46.905,85.149 47.002,87.032 C46.905,89.025 47.821,91.005 49.960,92.154 L96.048,116.741 C98.089,117.890 100.534,118.416 102.992,118.416 C105.435,118.416 107.879,117.890 109.920,116.741 L156.010,92.154 Z"/>
<path fill-rule="evenodd"  fill="rgb(89, 89, 89)"
 d="M104.998,120.000 C104.998,120.000 102.998,118.719 102.998,116.999 C102.998,115.220 103.998,112.999 103.998,112.999 L158.998,82.000 L159.998,91.000 L104.998,120.000 Z"/>
<path fill-rule="evenodd"  fill="rgb(28, 227, 107)"
 d="M156.010,87.154 C158.148,86.005 159.162,84.012 158.968,82.129 C159.176,80.136 158.148,78.253 156.010,77.103 L109.920,52.434 C107.879,51.284 105.435,50.758 102.992,50.758 C100.547,50.758 98.089,51.284 96.048,52.434 L49.960,77.007 C47.821,78.156 46.905,80.149 47.002,82.032 C46.905,84.025 47.821,86.005 49.960,87.154 L96.048,111.741 C98.089,112.890 100.534,113.416 102.992,113.416 C105.435,113.416 107.879,112.890 109.920,111.741 L156.010,87.154 Z"/>
<path fill-rule="evenodd"  stroke="rgb(24, 199, 93)" stroke-width="1px" stroke-linecap="butt" stroke-linejoin="miter" fill="none"
 d="M146.574,86.213 C148.311,85.259 149.135,83.604 148.977,82.042 C149.146,80.388 148.311,78.825 146.574,77.871 L109.124,57.397 C107.467,56.443 105.480,56.006 103.494,56.006 C101.509,56.006 99.511,56.443 97.853,57.397 L60.405,77.791 C58.667,78.745 57.922,80.399 58.001,81.962 C57.922,83.615 58.667,85.259 60.405,86.213 L97.853,106.618 C99.511,107.571 101.497,108.008 103.494,108.008 C105.480,108.008 107.467,107.571 109.124,106.618 L146.574,86.213 Z"/>
<path fill-rule="evenodd"  fill="rgb(16, 142, 66)"
 d="M61.997,81.999 L101.997,102.999 L141.998,81.999 L101.997,59.999 L61.997,81.999 Z"/>
<path fill-rule="evenodd"  stroke="rgb(28, 227, 107)" stroke-width="1px" stroke-linecap="butt" stroke-linejoin="miter" fill="none"
 d="M103.455,62.250 L101.850,61.540 L98.106,63.195 L105.595,63.195 L106.932,64.142 L95.431,64.142 L93.024,65.324 L110.142,65.324 L112.282,66.743 L90.616,66.743 L88.743,67.926 L115.224,67.926 L117.900,69.345 L85.534,69.345 L83.127,70.764 L121.108,70.764 L123.249,72.183 L80.185,72.183 L78.313,73.366 L126.726,73.602 L128.865,74.785 L74.567,75.021 L72.427,76.204 L132.343,76.441 L134.215,77.623 L69.485,77.859 L67.345,79.279 L137.099,79.279 L139.239,80.698 L63.601,80.698 L62.632,81.881 L140.517,82.354 L139.774,83.773 L64.135,83.773 L66.008,84.956 L135.820,85.429 L133.681,86.848 L70.288,86.848 L72.160,88.030 L131.006,88.030 L129.401,89.449 L75.637,89.449 L77.243,90.632 L125.121,90.868 L123.249,92.287 L80.987,92.287 L82.859,93.470 L119.772,93.470 L117.900,94.889 L86.337,95.126 L88.209,96.308 L113.620,96.544 L111.747,97.964 L92.756,97.964 L94.628,99.383 L108.270,99.147 L106.664,100.565 L98.641,100.802 L101.850,102.458 L103.723,101.748 "/>
<path fill-rule="evenodd"  stroke="rgb(127, 127, 127)" stroke-width="1px" stroke-dasharray="4, 2" stroke-linecap="butt" stroke-linejoin="miter" fill="none"
 d="M162.335,80.668 C164.452,79.478 165.427,77.466 165.197,75.587 C165.366,73.590 164.303,71.726 162.143,70.619 L121.627,48.720 C119.565,47.610 117.111,47.131 114.668,47.178 C112.224,47.225 109.776,47.798 107.758,48.986 "/>
<path fill-rule="evenodd"  fill="rgb(183, 183, 183)"
 d="M152.008,31.342 C152.008,31.342 151.984,50.500 152.008,50.828 C152.033,51.156 152.438,52.067 153.783,53.399 C155.129,54.732 165.687,66.586 165.850,66.771 C166.013,66.956 166.180,67.284 166.737,67.285 C167.295,67.286 167.767,66.823 168.157,66.428 C168.547,66.033 180.318,52.887 180.755,52.371 C181.194,51.855 181.639,51.041 181.643,49.628 C181.646,48.215 181.643,31.342 181.643,31.342 L152.008,31.342 Z"/>
<path fill-rule="evenodd"  fill="rgb(207, 207, 207)"
 d="M153.606,53.056 C153.606,53.056 154.444,54.071 156.090,54.771 C158.710,55.885 163.130,56.843 167.624,56.485 C174.942,55.903 179.513,54.428 179.513,54.428 L167.447,67.456 L165.673,67.285 L153.428,53.399 L153.606,53.056 Z"/>
<path fill-rule="evenodd"  fill="rgb(127, 127, 127)"
 d="M175.964,30.999 L175.964,55.114 L167.269,67.456 L167.624,67.456 C167.624,67.456 181.418,51.957 181.820,51.171 C182.222,50.385 181.820,30.999 181.820,30.999 L175.964,30.999 Z"/>
<path fill-rule="evenodd"  fill="rgb(249, 249, 249)"
 d="M155.913,31.342 L155.913,54.599 L166.559,67.285 L162.832,56.314 L163.011,31.171 L155.913,31.342 Z"/>
<path fill-rule="evenodd"  fill="rgb(176, 173, 173)"
 d="M144.000,20.000 L190.000,20.000 C190.000,20.000 190.000,23.343 190.000,25.000 L190.000,28.000 C190.000,29.657 188.656,31.000 186.999,31.000 L147.000,31.000 C145.342,31.000 144.000,29.657 144.000,28.000 L144.000,25.000 C144.000,23.343 144.000,20.000 144.000,20.000 Z"/>
<path fill-rule="evenodd"  fill="rgb(23, 204, 95)"
 d="M189.000,96.000 L189.000,94.000 L191.000,94.000 L190.974,96.000 L253.999,96.000 L253.999,98.000 L189.000,98.000 L189.000,96.000 Z"/>
<path fill-rule="evenodd"  fill="rgb(255, 222, 0)"
 d="M248.999,92.000 C251.761,92.000 253.999,94.239 253.999,97.000 C253.999,99.761 251.761,102.000 248.999,102.000 C246.238,102.000 243.999,99.761 243.999,97.000 C243.999,94.239 246.238,92.000 248.999,92.000 Z"/>
<path fill-rule="evenodd"  fill="rgb(255, 255, 255)"
 d="M248.999,87.000 L250.999,87.000 L250.999,84.000 L253.999,84.000 L253.999,82.000 L250.999,82.000 L250.999,79.000 L248.999,79.000 L248.999,82.000 L245.999,82.000 L245.999,84.000 L248.999,84.000 L248.999,87.000 Z"/>
<path fill-rule="evenodd"  fill="rgb(255, 255, 255)"
 d="M194.000,84.000 L196.999,84.000 L196.999,82.000 L194.000,82.000 L192.000,82.000 L189.000,82.000 L189.000,84.000 L192.000,84.000 L194.000,84.000 Z"/>
</svg>
