<svg 
 xmlns="http://www.w3.org/2000/svg"
 xmlns:xlink="http://www.w3.org/1999/xlink"
 width="300.5px" height="147.5px">
<path fill-rule="evenodd"  fill="none"
 d="M-0.002,-0.001 L299.998,-0.001 L299.998,146.999 L-0.002,146.999 L-0.002,-0.001 Z"/>
<path fill-rule="evenodd"  fill="rgb(119, 141, 128)"
 d="M148.998,8.000 C151.628,7.693 153.162,8.044 161.999,13.000 C171.118,18.114 200.663,33.245 202.998,35.000 C205.335,36.754 205.817,37.986 205.999,46.000 C206.180,54.013 205.999,61.000 205.999,61.000 L148.998,79.000 L145.999,62.000 C145.999,62.000 146.369,8.307 148.998,8.000 Z"/>
<path fill-rule="evenodd"  fill="rgb(135, 155, 143)"
 d="M93.999,44.000 C93.999,44.000 93.853,37.339 93.999,37.000 C94.144,36.661 146.531,8.001 146.999,8.000 C147.110,8.000 148.229,8.000 149.256,8.000 C150.164,8.000 150.998,8.000 150.998,8.000 L150.998,11.000 L150.998,74.000 L93.999,44.000 Z"/>
<path fill-rule="evenodd"  stroke="rgb(127, 127, 127)" stroke-width="1px" stroke-dasharray="4, 2" stroke-linecap="butt" stroke-linejoin="miter" fill="none"
 d="M203.009,113.420 C205.147,112.271 206.161,110.277 205.968,108.395 C206.175,106.401 205.147,104.518 203.009,103.369 L156.921,78.699 C154.880,77.550 152.436,77.024 149.991,77.024 C147.547,77.024 145.089,77.550 143.047,78.699 L96.960,103.272 C94.821,104.421 93.905,106.415 94.002,108.297 C93.905,110.291 94.821,112.271 96.960,113.420 L143.047,138.006 C145.089,139.156 147.534,139.682 149.991,139.682 C152.436,139.682 154.880,139.156 156.921,138.006 L203.009,113.420 Z"/>
<path fill-rule="evenodd"  stroke="rgb(23, 204, 95)" stroke-width="1px" stroke-linecap="butt" stroke-linejoin="miter" fill="none"
 d="M203.009,44.154 C205.147,43.005 206.161,41.011 205.968,39.129 C206.175,37.136 205.147,35.252 203.009,34.102 L156.921,9.433 C154.880,8.283 152.436,7.758 149.991,7.758 C147.547,7.758 145.089,8.283 143.047,9.433 L96.960,34.006 C94.821,35.155 93.905,37.149 94.002,39.031 C93.905,41.025 94.821,43.005 96.960,44.154 L143.047,68.741 C145.089,69.890 147.534,70.416 149.991,70.416 C152.436,70.416 154.880,69.890 156.921,68.741 L203.009,44.154 Z"/>
<path fill-rule="evenodd"  stroke="rgb(127, 127, 127)" stroke-width="1px" stroke-dasharray="4, 2" stroke-linecap="butt" stroke-linejoin="miter" fill="none"
 d="M94.997,43.999 L94.997,107.999 "/>
<path fill-rule="evenodd"  stroke="rgb(127, 127, 127)" stroke-width="1px" stroke-dasharray="4, 2" stroke-linecap="butt" stroke-linejoin="miter" fill="none"
 d="M205.997,43.999 L205.997,107.999 "/>
<path fill-rule="evenodd"  stroke="rgb(127, 127, 127)" stroke-width="1px" stroke-dasharray="4, 2" stroke-linecap="butt" stroke-linejoin="miter" fill="none"
 d="M150.997,71.999 L150.997,139.998 "/>
<path fill-rule="evenodd"  fill="rgb(28, 227, 107)"
 d="M149.998,70.000 C149.998,70.000 152.061,69.694 153.998,69.000 C155.936,68.305 203.218,42.372 203.998,42.000 C204.779,41.628 205.998,40.000 205.998,40.000 L205.998,110.000 C205.998,110.000 205.599,111.233 202.998,113.000 C200.399,114.767 155.104,139.436 153.998,140.000 C152.893,140.563 149.998,140.000 149.998,140.000 L149.998,70.000 Z"/>
<path fill-rule="evenodd"  fill="rgb(28, 227, 107)"
 d="M149.998,69.925 C149.998,69.925 147.936,69.620 145.999,68.927 C144.061,68.235 96.779,42.366 95.998,41.995 C95.218,41.623 93.998,40.000 93.998,40.000 L93.998,109.825 C93.998,109.825 94.399,111.055 96.999,112.818 C99.598,114.580 144.893,139.188 145.999,139.750 C147.104,140.312 149.998,139.750 149.998,139.750 L149.998,69.925 Z"/>
<path fill-rule="evenodd"  stroke="rgb(20, 188, 87)" stroke-width="1px" stroke-linecap="butt" stroke-linejoin="miter" fill="none"
 d="M149.992,136.011 C152.436,136.011 153.880,135.485 155.921,134.336 L202.010,109.749 C204.148,108.600 205.162,106.606 204.968,104.724 "/>
<path fill-rule="evenodd"  stroke="rgb(20, 188, 87)" stroke-width="1px" stroke-linecap="butt" stroke-linejoin="miter" fill="none"
 d="M149.992,131.416 C152.436,131.416 153.880,130.890 155.921,129.741 L202.010,105.154 C204.148,104.005 205.162,102.012 204.968,100.129 "/>
<path fill-rule="evenodd"  stroke="rgb(20, 188, 87)" stroke-width="1px" stroke-linecap="butt" stroke-linejoin="miter" fill="none"
 d="M149.992,127.416 C152.436,127.416 153.880,126.890 155.921,125.741 L202.010,101.154 C204.148,100.005 205.162,98.012 204.968,96.129 "/>
<path fill-rule="evenodd"  stroke="rgb(20, 188, 87)" stroke-width="1px" stroke-linecap="butt" stroke-linejoin="miter" fill="none"
 d="M149.992,122.416 C152.436,122.416 153.880,121.890 155.921,120.741 L202.010,96.154 C204.148,95.005 205.162,93.012 204.968,91.129 "/>
<path fill-rule="evenodd"  stroke="rgb(20, 188, 87)" stroke-width="1px" stroke-linecap="butt" stroke-linejoin="miter" fill="none"
 d="M149.992,118.416 C152.436,118.416 153.880,117.890 155.921,116.741 L202.010,92.154 C204.148,91.005 205.162,89.012 204.968,87.129 "/>
<path fill-rule="evenodd"  stroke="rgb(20, 188, 87)" stroke-width="1px" stroke-linecap="butt" stroke-linejoin="miter" fill="none"
 d="M149.992,113.682 C152.436,113.682 153.880,113.156 155.921,112.007 L202.010,87.420 C204.148,86.271 205.162,84.277 204.968,82.395 "/>
<path fill-rule="evenodd"  stroke="rgb(20, 188, 87)" stroke-width="1px" stroke-linecap="butt" stroke-linejoin="miter" fill="none"
 d="M149.992,109.682 C152.436,109.682 153.880,109.156 155.921,108.007 L202.010,83.420 C204.148,82.271 205.162,80.277 204.968,78.395 "/>
<path fill-rule="evenodd"  stroke="rgb(20, 188, 87)" stroke-width="1px" stroke-linecap="butt" stroke-linejoin="miter" fill="none"
 d="M149.992,104.682 C152.436,104.682 153.880,104.156 155.921,103.007 L202.010,78.420 C204.148,77.271 205.162,75.277 204.968,73.395 "/>
<path fill-rule="evenodd"  stroke="rgb(20, 188, 87)" stroke-width="1px" stroke-linecap="butt" stroke-linejoin="miter" fill="none"
 d="M149.992,100.682 C152.436,100.682 153.880,100.156 155.921,99.007 L202.010,74.420 C204.148,73.271 205.162,71.277 204.968,69.395 "/>
<path fill-rule="evenodd"  stroke="rgb(20, 188, 87)" stroke-width="1px" stroke-linecap="butt" stroke-linejoin="miter" fill="none"
 d="M149.992,95.682 C152.436,95.682 153.880,95.156 155.921,94.007 L202.010,69.420 C204.148,68.271 205.162,66.277 204.968,64.395 "/>
<path fill-rule="evenodd"  stroke="rgb(20, 188, 87)" stroke-width="1px" stroke-linecap="butt" stroke-linejoin="miter" fill="none"
 d="M149.992,91.682 C152.436,91.682 153.880,91.156 155.921,90.007 L202.010,65.420 C204.148,64.271 205.162,62.278 204.968,60.395 "/>
<path fill-rule="evenodd"  stroke="rgb(20, 188, 87)" stroke-width="1px" stroke-linecap="butt" stroke-linejoin="miter" fill="none"
 d="M149.992,86.682 C152.436,86.682 153.880,86.156 155.921,85.007 L202.010,60.420 C204.148,59.271 205.162,57.277 204.968,55.395 "/>
<path fill-rule="evenodd"  stroke="rgb(20, 188, 87)" stroke-width="1px" stroke-linecap="butt" stroke-linejoin="miter" fill="none"
 d="M149.992,82.682 C152.436,82.682 153.880,82.156 155.921,81.007 L202.010,56.420 C204.148,55.271 205.162,53.277 204.968,51.395 "/>
<path fill-rule="evenodd"  stroke="rgb(20, 188, 87)" stroke-width="1px" stroke-linecap="butt" stroke-linejoin="miter" fill="none"
 d="M149.992,77.682 C152.436,77.682 153.880,77.156 155.921,76.007 L202.010,51.420 C204.148,50.271 205.162,48.277 204.968,46.395 "/>
<path fill-rule="evenodd"  stroke="rgb(20, 188, 87)" stroke-width="1px" stroke-linecap="butt" stroke-linejoin="miter" fill="none"
 d="M149.992,73.682 C152.436,73.682 153.880,73.156 155.921,72.007 L202.010,47.420 C204.148,46.271 205.162,44.277 204.968,42.395 "/>
<path fill-rule="evenodd"  stroke="rgb(20, 188, 87)" stroke-width="1px" stroke-linecap="butt" stroke-linejoin="miter" fill="none"
 d="M150.004,137.008 C147.561,137.008 145.116,136.481 143.076,135.328 L96.987,110.668 C94.849,109.516 93.835,107.516 94.029,105.628 "/>
<path fill-rule="evenodd"  stroke="rgb(20, 188, 87)" stroke-width="1px" stroke-linecap="butt" stroke-linejoin="miter" fill="none"
 d="M150.004,132.399 C147.561,132.399 145.116,131.872 143.076,130.719 L96.987,106.060 C94.849,104.907 93.835,102.908 94.029,101.020 "/>
<path fill-rule="evenodd"  stroke="rgb(20, 188, 87)" stroke-width="1px" stroke-linecap="butt" stroke-linejoin="miter" fill="none"
 d="M150.004,128.388 C147.561,128.388 145.116,127.860 143.076,126.708 L96.987,102.048 C94.849,100.895 93.835,98.896 94.029,97.008 "/>
<path fill-rule="evenodd"  stroke="rgb(20, 188, 87)" stroke-width="1px" stroke-linecap="butt" stroke-linejoin="miter" fill="none"
 d="M150.004,123.373 C147.561,123.373 145.116,122.846 143.076,121.693 L96.987,97.033 C94.849,95.881 93.835,93.881 94.029,91.993 "/>
<path fill-rule="evenodd"  stroke="rgb(20, 188, 87)" stroke-width="1px" stroke-linecap="butt" stroke-linejoin="miter" fill="none"
 d="M150.004,119.361 C147.561,119.361 145.116,118.833 143.076,117.681 L96.987,93.021 C94.849,91.869 93.835,89.869 94.029,87.981 "/>
<path fill-rule="evenodd"  stroke="rgb(20, 188, 87)" stroke-width="1px" stroke-linecap="butt" stroke-linejoin="miter" fill="none"
 d="M150.004,114.612 C147.561,114.612 145.116,114.086 143.076,112.933 L96.987,88.273 C94.849,87.120 93.835,85.121 94.029,83.233 "/>
<path fill-rule="evenodd"  stroke="rgb(20, 188, 87)" stroke-width="1px" stroke-linecap="butt" stroke-linejoin="miter" fill="none"
 d="M150.004,110.601 C147.561,110.601 145.116,110.073 143.076,108.921 L96.987,84.261 C94.849,83.108 93.835,81.109 94.029,79.221 "/>
<path fill-rule="evenodd"  stroke="rgb(20, 188, 87)" stroke-width="1px" stroke-linecap="butt" stroke-linejoin="miter" fill="none"
 d="M150.004,105.586 C147.561,105.586 145.116,105.058 143.076,103.906 L96.987,79.246 C94.849,78.093 93.835,76.094 94.029,74.206 "/>
<path fill-rule="evenodd"  stroke="rgb(20, 188, 87)" stroke-width="1px" stroke-linecap="butt" stroke-linejoin="miter" fill="none"
 d="M150.004,101.574 C147.561,101.574 145.116,101.046 143.076,99.894 L96.987,75.234 C94.849,74.082 93.835,72.082 94.029,70.194 "/>
<path fill-rule="evenodd"  stroke="rgb(20, 188, 87)" stroke-width="1px" stroke-linecap="butt" stroke-linejoin="miter" fill="none"
 d="M150.004,96.559 C147.561,96.559 145.116,96.031 143.076,94.879 L96.987,70.220 C94.849,69.067 93.835,67.067 94.029,65.179 "/>
<path fill-rule="evenodd"  stroke="rgb(20, 188, 87)" stroke-width="1px" stroke-linecap="butt" stroke-linejoin="miter" fill="none"
 d="M150.004,92.547 C147.561,92.547 145.116,92.020 143.076,90.867 L96.987,66.207 C94.849,65.055 93.835,63.056 94.029,61.167 "/>
<path fill-rule="evenodd"  stroke="rgb(20, 188, 87)" stroke-width="1px" stroke-linecap="butt" stroke-linejoin="miter" fill="none"
 d="M150.004,87.532 C147.561,87.532 145.116,87.005 143.076,85.852 L96.987,61.192 C94.849,60.040 93.835,58.041 94.029,56.152 "/>
<path fill-rule="evenodd"  stroke="rgb(20, 188, 87)" stroke-width="1px" stroke-linecap="butt" stroke-linejoin="miter" fill="none"
 d="M150.004,83.521 C147.561,83.521 145.116,82.993 143.076,81.840 L96.987,57.180 C94.849,56.028 93.835,54.029 94.029,52.140 "/>
<path fill-rule="evenodd"  stroke="rgb(20, 188, 87)" stroke-width="1px" stroke-linecap="butt" stroke-linejoin="miter" fill="none"
 d="M150.004,78.506 C147.561,78.506 145.116,77.978 143.076,76.826 L96.987,52.166 C94.849,51.014 93.835,49.014 94.029,47.126 "/>
<path fill-rule="evenodd"  stroke="rgb(20, 188, 87)" stroke-width="1px" stroke-linecap="butt" stroke-linejoin="miter" fill="none"
 d="M150.004,74.494 C147.561,74.494 145.116,73.966 143.076,72.814 L96.987,48.154 C94.849,47.001 93.835,45.002 94.029,43.114 "/>
<path fill-rule="evenodd"  fill="rgb(153, 153, 153)"
 d="M216.952,14.899 L201.591,27.455 L203.530,27.761 C203.977,27.840 204.303,28.264 204.263,28.714 C204.223,29.165 203.832,29.475 203.385,29.412 L199.528,28.804 C199.420,28.787 199.314,28.748 199.216,28.689 C199.145,28.647 199.087,28.587 199.031,28.527 C199.011,28.505 198.985,28.494 198.967,28.470 C198.948,28.447 198.943,28.419 198.928,28.395 C198.883,28.325 198.838,28.255 198.814,28.175 C198.781,28.066 198.769,27.955 198.779,27.846 L199.120,23.955 C199.176,23.514 199.568,23.218 200.009,23.288 C200.450,23.357 200.780,23.766 200.757,24.213 L200.596,26.054 L215.896,13.547 C216.244,13.275 216.763,13.358 217.053,13.730 C217.346,14.104 217.300,14.627 216.952,14.899 Z"/>
<path fill-rule="evenodd"  fill="rgb(23, 204, 95)"
 d="M248.201,18.996 C247.758,18.996 247.400,18.612 247.400,18.139 L247.400,7.853 C247.400,7.380 247.758,6.996 248.201,6.996 C248.642,6.996 249.000,7.380 249.000,7.853 L249.000,18.139 C249.000,18.612 248.642,18.996 248.201,18.996 ZM243.966,16.458 C243.650,16.773 243.160,16.764 242.855,16.437 C242.550,16.111 242.541,15.584 242.835,15.247 L244.135,13.853 L233.866,13.853 L235.166,15.247 C235.470,15.584 235.465,16.119 235.157,16.449 C234.848,16.780 234.349,16.783 234.035,16.458 L231.370,13.604 C231.295,13.524 231.236,13.428 231.195,13.321 C231.171,13.260 231.168,13.194 231.159,13.129 C231.152,13.084 231.134,13.043 231.134,12.996 C231.134,12.947 231.152,12.906 231.159,12.860 C231.169,12.796 231.172,12.731 231.195,12.671 C231.236,12.564 231.296,12.468 231.371,12.388 L234.035,9.533 C234.351,9.219 234.841,9.228 235.146,9.554 C235.451,9.880 235.460,10.406 235.166,10.744 L233.865,12.138 L244.135,12.138 L242.833,10.744 C242.531,10.408 242.536,9.873 242.844,9.543 C243.153,9.213 243.652,9.207 243.966,9.533 L246.633,12.391 C246.944,12.725 246.944,13.267 246.633,13.602 L243.966,16.458 ZM229.800,18.996 C229.359,18.996 229.001,18.612 229.001,18.139 L229.001,7.853 C229.001,7.380 229.359,6.996 229.800,6.996 C230.242,6.996 230.601,7.380 230.601,7.853 L230.601,18.139 C230.601,18.612 230.242,18.996 229.800,18.996 Z"/>
<path fill-rule="evenodd"  fill="rgb(23, 204, 95)"
 d="M257.689,38.759 C256.009,38.759 254.808,37.323 254.808,34.907 C254.808,32.474 256.009,31.086 257.689,31.086 C259.370,31.086 260.587,32.474 260.587,34.907 C260.587,37.323 259.370,38.759 257.689,38.759 ZM257.689,32.441 C257.001,32.441 256.457,33.127 256.457,34.907 C256.457,36.686 257.001,37.388 257.689,37.388 C258.377,37.388 258.922,36.686 258.922,34.907 C258.922,33.127 258.377,32.441 257.689,32.441 ZM249.478,38.759 L255.913,26.220 L257.305,26.220 L250.855,38.759 L249.478,38.759 ZM249.078,33.878 C247.382,33.878 246.197,32.457 246.197,30.025 C246.197,27.608 247.382,26.220 249.078,26.220 C250.775,26.220 251.975,27.608 251.975,30.025 C251.975,32.457 250.775,33.878 249.078,33.878 ZM249.078,27.576 C248.390,27.576 247.861,28.245 247.861,30.025 C247.861,31.804 248.390,32.523 249.078,32.523 C249.766,32.523 250.310,31.804 250.310,30.025 C250.310,28.245 249.766,27.576 249.078,27.576 ZM243.196,38.531 L242.033,36.189 C241.768,35.646 241.529,35.089 241.221,34.446 L241.165,34.446 C240.899,35.089 240.661,35.646 240.408,36.189 L239.302,38.531 L237.102,38.531 L240.016,33.075 L237.285,27.962 L239.582,27.962 L240.618,30.133 C240.857,30.633 241.081,31.147 241.389,31.804 L241.459,31.804 C241.711,31.147 241.921,30.633 242.145,30.133 L243.126,27.962 L245.311,27.962 L242.579,33.175 L245.493,38.531 L243.196,38.531 ZM234.418,38.531 L233.255,36.189 C232.989,35.646 232.751,35.089 232.443,34.446 L232.387,34.446 C232.120,35.089 231.883,35.646 231.630,36.189 L230.524,38.531 L228.325,38.531 L231.238,33.075 L228.507,27.962 L230.804,27.962 L231.840,30.133 C232.079,30.633 232.303,31.147 232.611,31.804 L232.681,31.804 C232.933,31.147 233.143,30.633 233.367,30.133 L234.348,27.962 L236.533,27.962 L233.802,33.175 L236.715,38.531 L234.418,38.531 Z"/>
</svg>
