<svg 
 xmlns="http://www.w3.org/2000/svg"
 xmlns:xlink="http://www.w3.org/1999/xlink"
 width="304px" height="151px">
<path fill-rule="evenodd"  fill="none"
 d="M-0.002,-0.001 L299.999,-0.001 L299.999,146.999 L-0.002,146.999 L-0.002,-0.001 Z"/>
<path fill-rule="evenodd"  fill="rgb(72, 90, 79)"
 d="M118.998,8.000 C121.628,7.693 123.162,8.044 131.999,13.000 C141.118,18.114 170.662,33.245 172.999,35.000 C175.334,36.754 175.817,37.986 175.999,46.000 C176.181,54.013 175.999,61.000 175.999,61.000 L118.998,79.000 L115.999,62.000 C115.999,62.000 116.370,8.307 118.998,8.000 Z"/>
<path fill-rule="evenodd"  fill="rgb(81, 106, 91)"
 d="M63.999,44.000 C63.999,44.000 63.852,37.339 63.999,37.000 C64.144,36.661 116.531,8.000 116.999,8.000 C117.110,7.999 118.229,7.999 119.256,8.000 C120.164,8.000 120.999,8.000 120.999,8.000 L120.999,11.000 L120.999,74.000 L63.999,44.000 Z"/>
<path fill-rule="evenodd"  stroke="rgb(127, 127, 127)" stroke-width="1px" stroke-dasharray="4, 2" stroke-linecap="butt" stroke-linejoin="miter" fill="none"
 d="M173.009,113.420 C175.148,112.271 176.162,110.277 175.968,108.395 C176.176,106.401 175.148,104.517 173.009,103.369 L126.921,78.698 C124.880,77.549 122.435,77.024 119.992,77.024 C117.547,77.024 115.090,77.549 113.048,78.698 L66.960,103.272 C64.821,104.421 63.905,106.415 64.002,108.297 C63.905,110.290 64.821,112.271 66.960,113.420 L113.048,138.006 C115.090,139.156 117.534,139.682 119.992,139.682 C122.435,139.682 124.880,139.156 126.921,138.006 L173.009,113.420 Z"/>
<path fill-rule="evenodd"  stroke="rgb(127, 127, 127)" stroke-width="1px" stroke-dasharray="4, 2" stroke-linecap="butt" stroke-linejoin="miter" fill="none"
 d="M64.997,43.999 L64.997,107.999 "/>
<path fill-rule="evenodd"  stroke="rgb(127, 127, 127)" stroke-width="1px" stroke-dasharray="4, 2" stroke-linecap="butt" stroke-linejoin="miter" fill="none"
 d="M175.997,43.999 L175.997,107.999 "/>
<path fill-rule="evenodd"  stroke="rgb(127, 127, 127)" stroke-width="1px" stroke-dasharray="4, 2" stroke-linecap="butt" stroke-linejoin="miter" fill="none"
 d="M120.997,71.998 L120.997,139.998 "/>
<path fill-rule="evenodd"  fill="rgb(28, 227, 107)"
 d="M119.998,69.999 C119.998,69.999 122.060,69.694 123.998,68.999 C125.936,68.305 173.218,42.372 173.998,41.999 C174.779,41.627 175.998,40.000 175.998,40.000 L175.998,110.000 C175.998,110.000 175.598,111.233 172.999,113.000 C170.399,114.767 125.104,139.436 123.998,140.000 C122.893,140.563 119.998,140.000 119.998,140.000 L119.998,69.999 Z"/>
<path fill-rule="evenodd"  fill="rgb(28, 227, 107)"
 d="M119.998,69.925 C119.998,69.925 117.936,69.620 115.999,68.927 C114.060,68.235 66.779,42.366 65.999,41.994 C65.219,41.623 63.999,40.000 63.999,40.000 L63.999,109.825 C63.999,109.825 64.399,111.055 66.999,112.818 C69.598,114.580 114.893,139.188 115.999,139.750 C117.105,140.312 119.998,139.750 119.998,139.750 L119.998,69.925 Z"/>
<path fill-rule="evenodd"  stroke="rgb(20, 188, 87)" stroke-width="1px" stroke-linecap="butt" stroke-linejoin="miter" fill="none"
 d="M119.992,136.011 C122.435,136.011 123.880,135.485 125.921,134.336 L172.010,109.749 C174.148,108.600 175.162,106.606 174.968,104.724 "/>
<path fill-rule="evenodd"  stroke="rgb(20, 188, 87)" stroke-width="1px" stroke-linecap="butt" stroke-linejoin="miter" fill="none"
 d="M119.992,131.416 C122.435,131.416 123.880,130.890 125.921,129.741 L172.010,105.154 C174.148,104.005 175.162,102.011 174.968,100.129 "/>
<path fill-rule="evenodd"  stroke="rgb(20, 188, 87)" stroke-width="1px" stroke-linecap="butt" stroke-linejoin="miter" fill="none"
 d="M119.992,127.416 C122.435,127.416 123.880,126.890 125.921,125.741 L172.010,101.154 C174.148,100.005 175.162,98.011 174.968,96.129 "/>
<path fill-rule="evenodd"  stroke="rgb(20, 188, 87)" stroke-width="1px" stroke-linecap="butt" stroke-linejoin="miter" fill="none"
 d="M119.992,122.416 C122.435,122.416 123.880,121.890 125.921,120.741 L172.010,96.154 C174.148,95.005 175.162,93.011 174.968,91.129 "/>
<path fill-rule="evenodd"  stroke="rgb(20, 188, 87)" stroke-width="1px" stroke-linecap="butt" stroke-linejoin="miter" fill="none"
 d="M119.992,118.416 C122.435,118.416 123.880,117.890 125.921,116.741 L172.010,92.154 C174.148,91.005 175.162,89.012 174.968,87.129 "/>
<path fill-rule="evenodd"  stroke="rgb(20, 188, 87)" stroke-width="1px" stroke-linecap="butt" stroke-linejoin="miter" fill="none"
 d="M119.992,113.682 C122.435,113.682 123.880,113.156 125.921,112.007 L172.010,87.420 C174.148,86.271 175.162,84.277 174.968,82.394 "/>
<path fill-rule="evenodd"  stroke="rgb(20, 188, 87)" stroke-width="1px" stroke-linecap="butt" stroke-linejoin="miter" fill="none"
 d="M119.992,109.682 C122.435,109.682 123.880,109.156 125.921,108.007 L172.010,83.420 C174.148,82.271 175.162,80.277 174.968,78.394 "/>
<path fill-rule="evenodd"  stroke="rgb(20, 188, 87)" stroke-width="1px" stroke-linecap="butt" stroke-linejoin="miter" fill="none"
 d="M119.992,104.682 C122.435,104.682 123.880,104.156 125.921,103.006 L172.010,78.420 C174.148,77.271 175.162,75.277 174.968,73.395 "/>
<path fill-rule="evenodd"  stroke="rgb(20, 188, 87)" stroke-width="1px" stroke-linecap="butt" stroke-linejoin="miter" fill="none"
 d="M119.992,100.682 C122.435,100.682 123.880,100.156 125.921,99.006 L172.010,74.420 C174.148,73.271 175.162,71.277 174.968,69.395 "/>
<path fill-rule="evenodd"  stroke="rgb(20, 188, 87)" stroke-width="1px" stroke-linecap="butt" stroke-linejoin="miter" fill="none"
 d="M119.992,95.682 C122.435,95.682 123.880,95.156 125.921,94.007 L172.010,69.420 C174.148,68.271 175.162,66.277 174.968,64.394 "/>
<path fill-rule="evenodd"  stroke="rgb(20, 188, 87)" stroke-width="1px" stroke-linecap="butt" stroke-linejoin="miter" fill="none"
 d="M119.992,91.682 C122.435,91.682 123.880,91.156 125.921,90.007 L172.010,65.420 C174.148,64.271 175.162,62.277 174.968,60.395 "/>
<path fill-rule="evenodd"  stroke="rgb(20, 188, 87)" stroke-width="1px" stroke-linecap="butt" stroke-linejoin="miter" fill="none"
 d="M119.992,86.682 C122.435,86.682 123.880,86.156 125.921,85.006 L172.010,60.420 C174.148,59.271 175.162,57.277 174.968,55.394 "/>
<path fill-rule="evenodd"  stroke="rgb(20, 188, 87)" stroke-width="1px" stroke-linecap="butt" stroke-linejoin="miter" fill="none"
 d="M119.992,82.682 C122.435,82.682 123.880,82.156 125.921,81.007 L172.010,56.420 C174.148,55.271 175.162,53.277 174.968,51.394 "/>
<path fill-rule="evenodd"  stroke="rgb(20, 188, 87)" stroke-width="1px" stroke-linecap="butt" stroke-linejoin="miter" fill="none"
 d="M119.992,77.682 C122.435,77.682 123.880,77.156 125.921,76.006 L172.010,51.420 C174.148,50.271 175.162,48.277 174.968,46.395 "/>
<path fill-rule="evenodd"  stroke="rgb(20, 188, 87)" stroke-width="1px" stroke-linecap="butt" stroke-linejoin="miter" fill="none"
 d="M119.992,73.682 C122.435,73.682 123.880,73.156 125.921,72.006 L172.010,47.420 C174.148,46.271 175.162,44.277 174.968,42.395 "/>
<path fill-rule="evenodd"  stroke="rgb(20, 188, 87)" stroke-width="1px" stroke-linecap="butt" stroke-linejoin="miter" fill="none"
 d="M120.004,137.008 C117.561,137.008 115.117,136.481 113.076,135.328 L66.987,110.668 C64.849,109.516 63.835,107.516 64.029,105.628 "/>
<path fill-rule="evenodd"  stroke="rgb(20, 188, 87)" stroke-width="1px" stroke-linecap="butt" stroke-linejoin="miter" fill="none"
 d="M120.004,132.399 C117.561,132.399 115.117,131.872 113.076,130.719 L66.987,106.060 C64.849,104.907 63.835,102.907 64.029,101.019 "/>
<path fill-rule="evenodd"  stroke="rgb(20, 188, 87)" stroke-width="1px" stroke-linecap="butt" stroke-linejoin="miter" fill="none"
 d="M120.004,128.388 C117.561,128.388 115.117,127.860 113.076,126.707 L66.987,102.047 C64.849,100.895 63.835,98.895 64.029,97.007 "/>
<path fill-rule="evenodd"  stroke="rgb(20, 188, 87)" stroke-width="1px" stroke-linecap="butt" stroke-linejoin="miter" fill="none"
 d="M120.004,123.373 C117.561,123.373 115.117,122.845 113.076,121.692 L66.987,97.032 C64.849,95.880 63.835,93.881 64.029,91.993 "/>
<path fill-rule="evenodd"  stroke="rgb(20, 188, 87)" stroke-width="1px" stroke-linecap="butt" stroke-linejoin="miter" fill="none"
 d="M120.004,119.361 C117.561,119.361 115.117,118.833 113.076,117.681 L66.987,93.021 C64.849,91.869 63.835,89.869 64.029,87.981 "/>
<path fill-rule="evenodd"  stroke="rgb(20, 188, 87)" stroke-width="1px" stroke-linecap="butt" stroke-linejoin="miter" fill="none"
 d="M120.004,114.612 C117.561,114.612 115.117,114.085 113.076,112.932 L66.987,88.272 C64.849,87.120 63.835,85.121 64.029,83.232 "/>
<path fill-rule="evenodd"  stroke="rgb(20, 188, 87)" stroke-width="1px" stroke-linecap="butt" stroke-linejoin="miter" fill="none"
 d="M120.004,110.601 C117.561,110.601 115.117,110.073 113.076,108.920 L66.987,84.261 C64.849,83.108 63.835,81.109 64.029,79.220 "/>
<path fill-rule="evenodd"  stroke="rgb(20, 188, 87)" stroke-width="1px" stroke-linecap="butt" stroke-linejoin="miter" fill="none"
 d="M120.004,105.586 C117.561,105.586 115.117,105.058 113.076,103.905 L66.987,79.246 C64.849,78.093 63.835,76.094 64.029,74.206 "/>
<path fill-rule="evenodd"  stroke="rgb(20, 188, 87)" stroke-width="1px" stroke-linecap="butt" stroke-linejoin="miter" fill="none"
 d="M120.004,101.574 C117.561,101.574 115.117,101.046 113.076,99.893 L66.987,75.234 C64.849,74.081 63.835,72.082 64.029,70.194 "/>
<path fill-rule="evenodd"  stroke="rgb(20, 188, 87)" stroke-width="1px" stroke-linecap="butt" stroke-linejoin="miter" fill="none"
 d="M120.004,96.559 C117.561,96.559 115.117,96.031 113.076,94.879 L66.987,70.219 C64.849,69.066 63.835,67.067 64.029,65.179 "/>
<path fill-rule="evenodd"  stroke="rgb(20, 188, 87)" stroke-width="1px" stroke-linecap="butt" stroke-linejoin="miter" fill="none"
 d="M120.004,92.547 C117.561,92.547 115.117,92.020 113.076,90.867 L66.987,66.207 C64.849,65.055 63.835,63.055 64.029,61.167 "/>
<path fill-rule="evenodd"  stroke="rgb(20, 188, 87)" stroke-width="1px" stroke-linecap="butt" stroke-linejoin="miter" fill="none"
 d="M120.004,87.532 C117.561,87.532 115.117,87.005 113.076,85.852 L66.987,61.192 C64.849,60.040 63.835,58.040 64.029,56.152 "/>
<path fill-rule="evenodd"  stroke="rgb(20, 188, 87)" stroke-width="1px" stroke-linecap="butt" stroke-linejoin="miter" fill="none"
 d="M120.004,83.521 C117.561,83.521 115.117,82.993 113.076,81.840 L66.987,57.180 C64.849,56.028 63.835,54.029 64.029,52.140 "/>
<path fill-rule="evenodd"  stroke="rgb(20, 188, 87)" stroke-width="1px" stroke-linecap="butt" stroke-linejoin="miter" fill="none"
 d="M120.004,78.506 C117.561,78.506 115.117,77.978 113.076,76.826 L66.987,52.166 C64.849,51.013 63.835,49.014 64.029,47.126 "/>
<path fill-rule="evenodd"  stroke="rgb(20, 188, 87)" stroke-width="1px" stroke-linecap="butt" stroke-linejoin="miter" fill="none"
 d="M120.004,74.494 C117.561,74.494 115.117,73.966 113.076,72.813 L66.987,48.154 C64.849,47.001 63.835,45.002 64.029,43.114 "/>
<path fill-rule="evenodd"  stroke="rgb(127, 127, 127)" stroke-width="1px" stroke-dasharray="4, 2" stroke-linecap="butt" stroke-linejoin="miter" fill="rgb(64, 64, 66)"
 d="M221.999,15.000 C235.806,15.000 246.999,26.192 246.999,40.000 C246.999,53.807 235.806,65.000 221.999,65.000 C208.192,65.000 196.999,53.807 196.999,40.000 C196.999,26.192 208.192,15.000 221.999,15.000 Z"/>
<path fill-rule="evenodd"  stroke="rgb(23, 204, 95)" stroke-width="8px" stroke-linecap="butt" stroke-linejoin="miter" fill="none"
 d="M235.334,51.553 L204.881,35.237 "/>
<path fill-rule="evenodd"  fill="rgb(255, 255, 255)"
 d="M201.952,67.899 L186.592,80.455 L188.531,80.761 C188.977,80.840 189.303,81.264 189.263,81.715 C189.223,82.165 188.833,82.475 188.385,82.412 L184.528,81.804 C184.420,81.788 184.314,81.749 184.216,81.690 C184.143,81.646 184.083,81.584 184.025,81.522 C184.007,81.502 183.983,81.492 183.967,81.470 C183.949,81.448 183.944,81.421 183.929,81.397 C183.884,81.327 183.839,81.256 183.815,81.175 C183.781,81.066 183.770,80.954 183.780,80.845 L184.121,76.956 C184.176,76.514 184.569,76.218 185.009,76.288 C185.450,76.358 185.781,76.766 185.757,77.214 L185.596,79.055 L200.897,66.548 C201.244,66.276 201.763,66.358 202.054,66.731 C202.346,67.105 202.300,67.627 201.952,67.899 Z"/>
<path fill-rule="evenodd"  fill="rgb(255, 255, 255)"
 d="M266.273,54.432 C266.038,54.806 265.521,54.905 265.122,54.653 L256.416,49.174 C256.016,48.922 255.882,48.414 256.118,48.040 C256.352,47.666 256.868,47.567 257.269,47.820 L265.974,53.299 C266.374,53.550 266.509,54.058 266.273,54.432 ZM259.848,52.240 C260.296,52.155 260.755,52.443 260.873,52.886 L261.869,56.664 C261.968,57.099 261.699,57.509 261.261,57.593 C260.821,57.677 260.371,57.404 260.242,56.976 L259.755,55.133 L254.285,63.824 L256.158,63.466 C256.604,63.389 257.054,63.678 257.170,64.115 C257.285,64.552 257.022,64.976 256.580,65.069 L252.746,65.803 C252.638,65.824 252.525,65.824 252.413,65.801 C252.316,65.782 252.226,65.743 252.141,65.694 C252.129,65.687 252.116,65.687 252.104,65.680 C252.099,65.676 252.096,65.670 252.091,65.667 C252.003,65.609 251.924,65.538 251.861,65.453 C251.792,65.362 251.743,65.260 251.716,65.154 L250.719,61.380 C250.621,60.946 250.891,60.535 251.329,60.451 C251.767,60.367 252.217,60.639 252.346,61.068 L252.833,62.912 L258.304,54.220 L256.430,54.578 C255.985,54.656 255.535,54.367 255.420,53.930 C255.304,53.493 255.566,53.067 256.009,52.975 L259.848,52.240 ZM256.472,70.005 C256.237,70.378 255.721,70.477 255.320,70.225 L246.616,64.746 C246.215,64.494 246.081,63.986 246.316,63.612 C246.552,63.238 247.067,63.140 247.468,63.392 L256.173,68.871 C256.572,69.123 256.708,69.631 256.472,70.005 Z"/>
</svg>
