<svg 
 xmlns="http://www.w3.org/2000/svg"
 xmlns:xlink="http://www.w3.org/1999/xlink"
 width="304px" height="151px">
<path fill-rule="evenodd"  fill="none"
 d="M-0.002,-0.001 L299.999,-0.001 L299.999,146.999 L-0.002,146.999 L-0.002,-0.001 Z"/>
<path fill-rule="evenodd"  fill="rgb(127, 127, 127)"
 d="M21.000,27.000 L81.000,27.000 L81.000,29.000 L21.000,29.000 L21.000,27.000 Z"/>
<path fill-rule="evenodd"  fill="rgb(127, 127, 127)"
 d="M212.000,26.000 L271.999,26.000 L271.999,31.000 L212.000,31.000 L212.000,26.000 Z"/>
<path fill-rule="evenodd"  fill="rgb(255, 255, 255)"
 d="M181.658,28.869 L185.439,30.191 L185.439,32.430 L176.202,28.796 L176.202,26.887 L185.439,23.252 L185.439,25.473 L181.658,26.795 L178.903,27.786 L178.903,27.878 L181.658,28.869 ZM159.449,35.000 C157.558,35.000 156.208,33.385 156.208,30.668 C156.208,27.933 157.558,26.373 159.449,26.373 C161.339,26.373 162.708,27.933 162.708,30.668 C162.708,33.385 161.339,35.000 159.449,35.000 ZM159.449,27.896 C158.674,27.896 158.062,28.667 158.062,30.668 C158.062,32.669 158.674,33.458 159.449,33.458 C160.223,33.458 160.835,32.669 160.835,30.668 C160.835,28.667 160.223,27.896 159.449,27.896 ZM150.212,35.000 L157.450,20.902 L159.017,20.902 L151.760,35.000 L150.212,35.000 ZM149.762,29.512 C147.853,29.512 146.521,27.915 146.521,25.180 C146.521,22.463 147.853,20.902 149.762,20.902 C151.670,20.902 153.021,22.463 153.021,25.180 C153.021,27.915 151.670,29.512 149.762,29.512 ZM149.762,22.426 C148.988,22.426 148.394,23.179 148.394,25.180 C148.394,27.181 148.988,27.988 149.762,27.988 C150.536,27.988 151.148,27.181 151.148,25.180 C151.148,23.179 150.536,22.426 149.762,22.426 ZM142.743,34.743 L141.249,31.733 C140.906,31.035 140.600,30.319 140.204,29.493 L140.132,29.493 C139.790,30.319 139.484,31.035 139.160,31.733 L137.738,34.743 L134.911,34.743 L138.656,27.731 L135.145,21.160 L138.098,21.160 L139.430,23.950 C139.736,24.592 140.025,25.253 140.420,26.097 L140.510,26.097 C140.834,25.253 141.105,24.592 141.393,23.950 L142.653,21.160 L145.462,21.160 L141.951,27.860 L145.696,34.743 L142.743,34.743 ZM131.457,34.743 L129.963,31.733 C129.620,31.035 129.314,30.319 128.918,29.493 L128.846,29.493 C128.504,30.319 128.198,31.035 127.874,31.733 L126.451,34.743 L123.625,34.743 L127.370,27.731 L123.859,21.160 L126.812,21.160 L128.144,23.950 C128.450,24.592 128.738,25.253 129.134,26.097 L129.224,26.097 C129.548,25.253 129.819,24.592 130.107,23.950 L131.367,21.160 L134.176,21.160 L130.665,27.860 L134.410,34.743 L131.457,34.743 ZM101.197,26.887 L110.434,23.252 L110.434,25.473 L106.653,26.795 L103.898,27.786 L103.898,27.878 L106.653,28.869 L110.434,30.191 L110.434,32.430 L101.197,28.796 L101.197,26.887 Z"/>
<path fill-rule="evenodd"  fill="rgb(255, 255, 255)"
 d="M245.952,45.899 L230.592,58.455 L232.531,58.761 C232.977,58.840 233.303,59.264 233.263,59.714 C233.224,60.165 232.833,60.475 232.385,60.412 L228.528,59.804 C228.420,59.787 228.315,59.748 228.217,59.690 C228.125,59.635 228.046,59.563 227.979,59.481 C227.976,59.477 227.971,59.475 227.967,59.470 C227.965,59.467 227.964,59.463 227.962,59.459 C227.897,59.374 227.846,59.278 227.814,59.174 C227.782,59.068 227.771,58.960 227.779,58.854 C227.780,58.853 227.779,58.851 227.779,58.849 L227.779,58.849 C227.779,58.849 227.779,58.849 227.779,58.849 L228.120,54.955 C228.176,54.514 228.569,54.218 229.009,54.288 C229.450,54.357 229.781,54.766 229.757,55.213 L229.596,57.055 L244.896,44.548 C245.244,44.276 245.763,44.358 246.054,44.731 C246.346,45.104 246.300,45.627 245.952,45.899 Z"/>
<path fill-rule="evenodd"  stroke="rgb(23, 204, 95)" stroke-width="8px" stroke-linecap="round" stroke-linejoin="miter" fill="none"
 d="M203.999,84.000 C203.999,84.000 203.999,84.648 203.999,100.997 C203.999,115.002 198.013,121.000 183.991,121.000 C160.731,121.000 114.999,121.000 114.999,121.000 "/>
<path fill-rule="evenodd"  fill="rgb(183, 183, 183)"
 d="M185.009,65.342 C185.009,65.342 184.985,80.500 185.009,80.828 C185.034,81.156 185.438,82.067 186.783,83.399 C188.129,84.732 198.687,96.586 198.850,96.771 C199.014,96.956 199.180,97.284 199.737,97.285 C200.295,97.286 200.767,96.823 201.157,96.428 C201.547,96.033 213.319,82.887 213.756,82.371 C214.193,81.855 214.640,81.040 214.642,79.628 C214.646,78.215 214.642,65.342 214.642,65.342 L185.009,65.342 Z"/>
<path fill-rule="evenodd"  fill="rgb(207, 207, 207)"
 d="M186.605,83.056 C186.605,83.056 187.444,84.071 189.091,84.771 C191.710,85.885 196.131,86.843 200.625,86.485 C207.942,85.903 212.514,84.428 212.514,84.428 L200.448,97.456 L198.672,97.285 L186.429,83.399 L186.605,83.056 Z"/>
<path fill-rule="evenodd"  fill="rgb(127, 127, 127)"
 d="M208.965,65.000 L208.965,85.114 L200.270,97.456 L200.625,97.456 C200.625,97.456 214.419,81.957 214.821,81.171 C215.223,80.385 214.821,65.000 214.821,65.000 L208.965,65.000 Z"/>
<path fill-rule="evenodd"  fill="rgb(249, 249, 249)"
 d="M188.912,65.342 L188.912,84.599 L199.560,97.285 L195.833,86.314 L196.011,65.171 L188.912,65.342 Z"/>
<path fill-rule="evenodd"  fill="rgb(255, 19, 97)"
 d="M52.344,46.000 C52.344,40.287 47.713,35.655 41.999,35.655 C36.286,35.655 31.655,40.287 31.655,46.000 C31.655,51.713 36.286,56.345 41.999,56.345 C47.713,56.345 52.344,51.713 52.344,46.000 L52.344,46.000 ZM41.999,44.830 L38.489,41.319 C38.163,40.993 37.641,40.995 37.317,41.318 C36.992,41.644 36.995,42.166 37.318,42.489 L40.829,46.000 L37.318,49.510 C36.993,49.836 36.995,50.358 37.317,50.681 C37.644,51.007 38.165,51.004 38.489,50.681 L41.999,47.170 L45.510,50.681 C45.835,51.006 46.358,51.005 46.680,50.681 C47.006,50.356 47.004,49.834 46.680,49.510 L43.170,46.000 L46.680,42.489 C47.006,42.164 47.004,41.642 46.680,41.318 C46.355,40.993 45.833,40.995 45.510,41.319 L41.999,44.830 ZM30.000,46.000 C30.000,39.373 35.372,34.000 41.999,34.000 C48.627,34.000 54.000,39.373 54.000,46.000 C54.000,52.627 48.627,58.000 41.999,58.000 C35.372,58.000 30.000,52.627 30.000,46.000 L30.000,46.000 Z"/>
</svg>
