<svg width="24" height="24" viewBox="0 0 24 24" fill="none" xmlns="http://www.w3.org/2000/svg">
<g id="&#229;&#177;&#130;&#233;&#171;&#152;">
<g id="-s-&#229;&#143;&#170;&#230;&#152;&#190;&#231;&#164;&#186;&#229;&#189;&#147;&#229;&#137;&#141;&#229;&#177;&#130;">
<path id="&#229;&#143;&#170;&#230;&#152;&#190;&#231;&#164;&#186;&#229;&#189;&#147;&#229;&#137;&#141;&#229;&#177;&#130; &#230;&#139;&#183;&#232;&#180;&#157;" d="M19.1143 10.7134L18.0723 10.3135L16.1193 11.0745L18.5133 11.9915L12.0052 14.5076L5.49829 11.9915L7.88123 11.0706L5.92529 10.3096L4.8833 10.7095C4.62274 10.7921 4.39759 10.9602 4.24426 11.1865C4.08502 11.4229 4 11.7015 4 11.9866C4 12.2716 4.08502 12.55 4.24426 12.7864C4.39781 13.0123 4.62292 13.18 4.8833 13.2625L11.4833 15.8206C11.8094 15.9473 12.1712 15.9473 12.4973 15.8206L19.0973 13.2625C19.3577 13.1801 19.5828 13.0123 19.7363 12.7864C19.8957 12.55 19.9808 12.2716 19.9808 11.9866C19.9808 11.7015 19.8957 11.4229 19.7363 11.1865C19.5831 10.9602 19.3579 10.7921 19.0973 10.7095L19.1143 10.7134ZM19.1143 14.7744L18.0723 14.3745L16.1193 15.1355L18.4993 16.0564L12.0052 18.5684L5.50525 16.0525L7.88831 15.1313L5.93225 14.3704L4.89026 14.7705C4.62966 14.8531 4.40449 15.0212 4.25122 15.2476C4.09172 15.4839 4.00659 15.7623 4.00659 16.0474C4.00659 16.3325 4.09172 16.6111 4.25122 16.8474C4.40438 17.0739 4.62959 17.242 4.89026 17.3245L11.4902 19.8826C11.8164 20.0093 12.1781 20.0093 12.5043 19.8826L19.1042 17.3245C19.3649 17.2419 19.5901 17.0738 19.7433 16.8474C19.9027 16.6111 19.9878 16.3324 19.9878 16.0474C19.9878 15.7623 19.9027 15.4839 19.7433 15.2476C19.59 15.0212 19.3648 14.8531 19.1042 14.7705L19.1143 14.7744Z" fill="#4E5969"/>
<path id="&#229;&#143;&#170;&#230;&#152;&#190;&#231;&#164;&#186;&#229;&#189;&#147;&#229;&#137;&#141;&#229;&#177;&#130;" d="M12.0059 11.8633C11.8321 11.8621 11.6601 11.8281 11.4989 11.7632L4.89893 9.20532C4.63848 9.12299 4.41333 8.95523 4.25989 8.72924C4.10065 8.49283 4.01562 8.21423 4.01562 7.9292C4.01562 7.64416 4.10065 7.36556 4.25989 7.12915C4.41322 6.90284 4.63837 6.73475 4.89893 6.6521L11.4989 4.09423C11.8252 3.96859 12.1866 3.96859 12.5129 4.09423L19.1129 6.6521C19.3731 6.73488 19.5978 6.90297 19.7509 7.12915C19.9104 7.36546 19.9956 7.6441 19.9956 7.9292C19.9956 8.21429 19.9104 8.49293 19.7509 8.72924C19.5977 8.9551 19.373 9.12286 19.1129 9.20532L12.5129 11.7632C12.3517 11.828 12.1796 11.8621 12.0059 11.8633Z" fill="#15C059"/>
</g>
</g>
</svg>
