<svg 
 xmlns="http://www.w3.org/2000/svg"
 xmlns:xlink="http://www.w3.org/1999/xlink"
 width="300.5px" height="147.5px">
<path fill-rule="evenodd"  fill="none"
 d="M-0.002,-0.000 L299.999,-0.000 L299.999,147.000 L-0.002,147.000 L-0.002,-0.000 Z"/>
<path fill-rule="evenodd"  stroke="rgb(127, 127, 127)" stroke-width="1px" stroke-dasharray="4, 2" stroke-linecap="butt" stroke-linejoin="miter" fill="none"
 d="M189.009,110.420 C191.148,109.271 192.162,107.277 191.968,105.395 C192.176,103.401 191.148,101.518 189.009,100.369 L142.921,75.699 C140.880,74.550 138.436,74.024 135.992,74.024 C133.548,74.024 131.090,74.550 129.048,75.699 L82.960,100.272 C80.822,101.421 79.905,103.415 80.002,105.297 C79.905,107.291 80.822,109.271 82.960,110.420 L129.048,135.007 C131.090,136.156 133.534,136.682 135.992,136.682 C138.436,136.682 140.880,136.156 142.921,135.007 L189.009,110.420 Z"/>
<path fill-rule="evenodd"  stroke="rgb(127, 127, 127)" stroke-width="1px" stroke-dasharray="4, 2" stroke-linecap="butt" stroke-linejoin="miter" fill="none"
 d="M189.009,41.154 C191.148,40.005 192.162,38.011 191.968,36.129 C192.176,34.136 191.148,32.252 189.009,31.102 L142.921,6.433 C140.880,5.283 138.436,4.758 135.992,4.758 C133.548,4.758 131.090,5.283 129.048,6.433 L82.960,31.006 C80.822,32.156 79.905,34.149 80.002,36.032 C79.905,38.025 80.822,40.005 82.960,41.154 L129.048,65.741 C131.090,66.890 133.534,67.416 135.992,67.416 C138.436,67.416 140.880,66.890 142.921,65.741 L189.009,41.154 Z"/>
<path fill-rule="evenodd"  stroke="rgb(127, 127, 127)" stroke-width="1px" stroke-dasharray="4, 2" stroke-linecap="butt" stroke-linejoin="miter" fill="none"
 d="M80.997,40.999 L80.997,104.999 "/>
<path fill-rule="evenodd"  stroke="rgb(127, 127, 127)" stroke-width="1px" stroke-dasharray="4, 2" stroke-linecap="butt" stroke-linejoin="miter" fill="none"
 d="M191.997,40.999 L191.997,104.999 "/>
<path fill-rule="evenodd"  stroke="rgb(127, 127, 127)" stroke-width="1px" stroke-dasharray="4, 2" stroke-linecap="butt" stroke-linejoin="miter" fill="none"
 d="M136.997,68.999 L136.997,136.999 "/>
<path fill-rule="evenodd"  stroke="rgb(127, 127, 127)" stroke-width="1px" stroke-dasharray="4, 2" stroke-linecap="butt" stroke-linejoin="miter" fill="none"
 d="M136.997,6.999 L136.997,69.999 "/>
<path fill-rule="evenodd"  fill="rgb(28, 227, 107)"
 d="M135.999,67.000 C135.999,67.000 138.061,66.694 139.998,66.000 C141.937,65.306 189.218,39.372 189.999,39.000 C190.779,38.628 191.999,37.000 191.999,37.000 L191.999,107.000 C191.999,107.000 191.599,108.233 188.999,110.000 C186.399,111.767 141.105,136.436 139.998,137.000 C138.893,137.563 135.999,137.000 135.999,137.000 L135.999,67.000 Z"/>
<path fill-rule="evenodd"  fill="rgb(28, 227, 107)"
 d="M135.999,66.925 C135.999,66.925 133.937,66.620 131.999,65.928 C130.061,65.235 82.779,39.366 81.999,38.995 C81.218,38.624 79.999,37.000 79.999,37.000 L79.999,106.825 C79.999,106.825 80.399,108.055 82.999,109.818 C85.598,111.580 130.893,136.188 131.999,136.750 C133.104,137.313 135.999,136.750 135.999,136.750 L135.999,66.925 Z"/>
<path fill-rule="evenodd"  stroke="rgb(20, 188, 87)" stroke-width="1px" stroke-linecap="butt" stroke-linejoin="miter" fill="none"
 d="M135.993,133.011 C138.436,133.011 139.881,132.485 141.922,131.336 L188.010,106.749 C190.148,105.600 191.162,103.607 190.969,101.724 "/>
<path fill-rule="evenodd"  stroke="rgb(20, 188, 87)" stroke-width="1px" stroke-linecap="butt" stroke-linejoin="miter" fill="none"
 d="M135.993,128.416 C138.436,128.416 139.881,127.890 141.922,126.741 L188.010,102.154 C190.148,101.005 191.162,99.012 190.969,97.129 "/>
<path fill-rule="evenodd"  stroke="rgb(20, 188, 87)" stroke-width="1px" stroke-linecap="butt" stroke-linejoin="miter" fill="none"
 d="M135.993,124.416 C138.436,124.416 139.881,123.890 141.922,122.741 L188.010,98.154 C190.148,97.005 191.162,95.012 190.969,93.129 "/>
<path fill-rule="evenodd"  stroke="rgb(20, 188, 87)" stroke-width="1px" stroke-linecap="butt" stroke-linejoin="miter" fill="none"
 d="M135.993,119.416 C138.436,119.416 139.881,118.891 141.922,117.741 L188.010,93.154 C190.148,92.006 191.162,90.012 190.969,88.129 "/>
<path fill-rule="evenodd"  stroke="rgb(20, 188, 87)" stroke-width="1px" stroke-linecap="butt" stroke-linejoin="miter" fill="none"
 d="M135.993,115.416 C138.436,115.416 139.881,114.890 141.922,113.741 L188.010,89.155 C190.148,88.005 191.162,86.012 190.969,84.129 "/>
<path fill-rule="evenodd"  stroke="rgb(20, 188, 87)" stroke-width="1px" stroke-linecap="butt" stroke-linejoin="miter" fill="none"
 d="M135.993,110.682 C138.436,110.682 139.881,110.156 141.922,109.007 L188.010,84.420 C190.148,83.271 191.162,81.278 190.969,79.395 "/>
<path fill-rule="evenodd"  stroke="rgb(20, 188, 87)" stroke-width="1px" stroke-linecap="butt" stroke-linejoin="miter" fill="none"
 d="M135.993,106.682 C138.436,106.682 139.881,106.156 141.922,105.007 L188.010,80.420 C190.148,79.271 191.162,77.277 190.969,75.395 "/>
<path fill-rule="evenodd"  stroke="rgb(20, 188, 87)" stroke-width="1px" stroke-linecap="butt" stroke-linejoin="miter" fill="none"
 d="M135.993,101.682 C138.436,101.682 139.881,101.156 141.922,100.007 L188.010,75.420 C190.148,74.271 191.162,72.278 190.969,70.395 "/>
<path fill-rule="evenodd"  stroke="rgb(20, 188, 87)" stroke-width="1px" stroke-linecap="butt" stroke-linejoin="miter" fill="none"
 d="M135.993,97.682 C138.436,97.682 139.881,97.156 141.922,96.007 L188.010,71.420 C190.148,70.271 191.162,68.277 190.969,66.395 "/>
<path fill-rule="evenodd"  stroke="rgb(20, 188, 87)" stroke-width="1px" stroke-linecap="butt" stroke-linejoin="miter" fill="none"
 d="M135.993,92.682 C138.436,92.682 139.881,92.156 141.922,91.007 L188.010,66.420 C190.148,65.271 191.162,63.277 190.969,61.395 "/>
<path fill-rule="evenodd"  stroke="rgb(20, 188, 87)" stroke-width="1px" stroke-linecap="butt" stroke-linejoin="miter" fill="none"
 d="M135.993,88.682 C138.436,88.682 139.881,88.156 141.922,87.007 L188.010,62.420 C190.148,61.271 191.162,59.278 190.969,57.395 "/>
<path fill-rule="evenodd"  stroke="rgb(20, 188, 87)" stroke-width="1px" stroke-linecap="butt" stroke-linejoin="miter" fill="none"
 d="M135.993,83.682 C138.436,83.682 139.881,83.156 141.922,82.007 L188.010,57.420 C190.148,56.271 191.162,54.278 190.969,52.395 "/>
<path fill-rule="evenodd"  stroke="rgb(20, 188, 87)" stroke-width="1px" stroke-linecap="butt" stroke-linejoin="miter" fill="none"
 d="M135.993,79.682 C138.436,79.682 139.881,79.156 141.922,78.007 L188.010,53.420 C190.148,52.271 191.162,50.277 190.969,48.395 "/>
<path fill-rule="evenodd"  stroke="rgb(20, 188, 87)" stroke-width="1px" stroke-linecap="butt" stroke-linejoin="miter" fill="none"
 d="M135.993,74.682 C138.436,74.682 139.881,74.156 141.922,73.007 L188.010,48.420 C190.148,47.271 191.162,45.278 190.969,43.395 "/>
<path fill-rule="evenodd"  stroke="rgb(20, 188, 87)" stroke-width="1px" stroke-linecap="butt" stroke-linejoin="miter" fill="none"
 d="M135.993,70.682 C138.436,70.682 139.881,70.156 141.922,69.007 L188.010,44.420 C190.148,43.271 191.162,41.277 190.969,39.395 "/>
<path fill-rule="evenodd"  stroke="rgb(20, 188, 87)" stroke-width="1px" stroke-linecap="butt" stroke-linejoin="miter" fill="none"
 d="M136.005,134.008 C133.562,134.008 131.117,133.481 129.076,132.328 L82.988,107.669 C80.849,106.516 79.835,104.516 80.029,102.628 "/>
<path fill-rule="evenodd"  stroke="rgb(20, 188, 87)" stroke-width="1px" stroke-linecap="butt" stroke-linejoin="miter" fill="none"
 d="M136.005,129.400 C133.562,129.400 131.117,128.872 129.076,127.719 L82.988,103.060 C80.849,101.907 79.835,99.908 80.029,98.020 "/>
<path fill-rule="evenodd"  stroke="rgb(20, 188, 87)" stroke-width="1px" stroke-linecap="butt" stroke-linejoin="miter" fill="none"
 d="M136.005,125.388 C133.562,125.388 131.117,124.860 129.076,123.708 L82.988,99.048 C80.849,97.895 79.835,95.896 80.029,94.008 "/>
<path fill-rule="evenodd"  stroke="rgb(20, 188, 87)" stroke-width="1px" stroke-linecap="butt" stroke-linejoin="miter" fill="none"
 d="M136.005,120.373 C133.562,120.373 131.117,119.846 129.076,118.693 L82.988,94.033 C80.849,92.881 79.835,90.881 80.029,88.993 "/>
<path fill-rule="evenodd"  stroke="rgb(20, 188, 87)" stroke-width="1px" stroke-linecap="butt" stroke-linejoin="miter" fill="none"
 d="M136.005,116.361 C133.562,116.361 131.117,115.834 129.076,114.681 L82.988,90.021 C80.849,88.869 79.835,86.869 80.029,84.981 "/>
<path fill-rule="evenodd"  stroke="rgb(20, 188, 87)" stroke-width="1px" stroke-linecap="butt" stroke-linejoin="miter" fill="none"
 d="M136.005,111.613 C133.562,111.613 131.117,111.086 129.076,109.933 L82.988,85.273 C80.849,84.120 79.835,82.121 80.029,80.233 "/>
<path fill-rule="evenodd"  stroke="rgb(20, 188, 87)" stroke-width="1px" stroke-linecap="butt" stroke-linejoin="miter" fill="none"
 d="M136.005,107.601 C133.562,107.601 131.117,107.074 129.076,105.921 L82.988,81.261 C80.849,80.108 79.835,78.109 80.029,76.221 "/>
<path fill-rule="evenodd"  stroke="rgb(20, 188, 87)" stroke-width="1px" stroke-linecap="butt" stroke-linejoin="miter" fill="none"
 d="M136.005,102.586 C133.562,102.586 131.117,102.059 129.076,100.906 L82.988,76.246 C80.849,75.094 79.835,73.094 80.029,71.206 "/>
<path fill-rule="evenodd"  stroke="rgb(20, 188, 87)" stroke-width="1px" stroke-linecap="butt" stroke-linejoin="miter" fill="none"
 d="M136.005,98.574 C133.562,98.574 131.117,98.047 129.076,96.894 L82.988,72.234 C80.849,71.082 79.835,69.082 80.029,67.194 "/>
<path fill-rule="evenodd"  stroke="rgb(20, 188, 87)" stroke-width="1px" stroke-linecap="butt" stroke-linejoin="miter" fill="none"
 d="M136.005,93.559 C133.562,93.559 131.117,93.032 129.076,91.879 L82.988,67.220 C80.849,66.067 79.835,64.067 80.029,62.179 "/>
<path fill-rule="evenodd"  stroke="rgb(20, 188, 87)" stroke-width="1px" stroke-linecap="butt" stroke-linejoin="miter" fill="none"
 d="M136.005,89.547 C133.562,89.547 131.117,89.020 129.076,87.867 L82.988,63.208 C80.849,62.055 79.835,60.056 80.029,58.168 "/>
<path fill-rule="evenodd"  stroke="rgb(20, 188, 87)" stroke-width="1px" stroke-linecap="butt" stroke-linejoin="miter" fill="none"
 d="M136.005,84.532 C133.562,84.532 131.117,84.005 129.076,82.852 L82.988,58.193 C80.849,57.040 79.835,55.041 80.029,53.153 "/>
<path fill-rule="evenodd"  stroke="rgb(20, 188, 87)" stroke-width="1px" stroke-linecap="butt" stroke-linejoin="miter" fill="none"
 d="M136.005,80.521 C133.562,80.521 131.117,79.993 129.076,78.841 L82.988,54.181 C80.849,53.028 79.835,51.029 80.029,49.140 "/>
<path fill-rule="evenodd"  stroke="rgb(20, 188, 87)" stroke-width="1px" stroke-linecap="butt" stroke-linejoin="miter" fill="none"
 d="M136.005,75.506 C133.562,75.506 131.117,74.978 129.076,73.826 L82.988,49.166 C80.849,48.014 79.835,46.014 80.029,44.126 "/>
<path fill-rule="evenodd"  stroke="rgb(20, 188, 87)" stroke-width="1px" stroke-linecap="butt" stroke-linejoin="miter" fill="none"
 d="M136.005,71.494 C133.562,71.494 131.117,70.967 129.076,69.814 L82.988,45.154 C80.849,44.002 79.835,42.002 80.029,40.114 "/>
<path fill-rule="evenodd"  fill="rgb(23, 204, 95)"
 d="M226.999,43.000 C228.103,43.000 228.999,43.895 228.999,45.000 L228.999,75.000 C228.999,76.104 228.103,77.000 226.999,77.000 C225.894,77.000 224.999,76.104 224.999,75.000 L224.999,45.000 C224.999,43.895 225.894,43.000 226.999,43.000 Z"/>
<path fill-rule="evenodd"  fill="rgb(183, 183, 183)"
 d="M212.008,16.342 C212.008,16.342 211.985,35.500 212.008,35.828 C212.034,36.156 212.437,37.067 213.783,38.399 C215.129,39.732 225.686,51.585 225.850,51.771 C226.013,51.956 226.179,52.284 226.737,52.285 C227.295,52.286 227.767,51.823 228.157,51.428 C228.546,51.033 240.318,37.887 240.755,37.371 C241.193,36.855 241.640,36.041 241.642,34.628 C241.647,33.215 241.642,16.342 241.642,16.342 L212.008,16.342 Z"/>
<path fill-rule="evenodd"  fill="rgb(207, 207, 207)"
 d="M213.605,38.056 C213.605,38.056 214.444,39.071 216.090,39.770 C218.709,40.885 223.131,41.843 227.624,41.485 C234.942,40.903 239.513,39.428 239.513,39.428 L227.447,52.456 L225.672,52.285 L213.428,38.399 L213.605,38.056 Z"/>
<path fill-rule="evenodd"  fill="rgb(127, 127, 127)"
 d="M235.965,15.999 L235.965,40.113 L227.270,52.456 L227.624,52.456 C227.624,52.456 241.418,36.957 241.820,36.171 C242.222,35.385 241.820,15.999 241.820,15.999 L235.965,15.999 Z"/>
<path fill-rule="evenodd"  fill="rgb(249, 249, 249)"
 d="M215.912,16.342 L215.912,39.599 L226.560,52.285 L222.833,41.313 L223.010,16.170 L215.912,16.342 Z"/>
<path fill-rule="evenodd"  fill="rgb(255, 255, 255)"
 d="M236.201,98.996 C235.759,98.996 235.400,98.612 235.400,98.139 L235.400,87.853 C235.400,87.380 235.759,86.996 236.201,86.996 C236.642,86.996 237.001,87.380 237.001,87.853 L237.001,98.139 C237.001,98.612 236.642,98.996 236.201,98.996 ZM231.966,96.458 C231.651,96.773 231.160,96.764 230.855,96.438 C230.551,96.111 230.542,95.584 230.836,95.247 L232.135,93.854 L221.867,93.854 L223.167,95.247 C223.470,95.584 223.466,96.119 223.157,96.449 C222.848,96.780 222.349,96.784 222.035,96.458 L219.370,93.603 C219.295,93.524 219.236,93.428 219.196,93.322 C219.171,93.257 219.167,93.188 219.157,93.120 C219.151,93.078 219.134,93.040 219.134,92.996 C219.134,92.949 219.152,92.908 219.159,92.863 C219.169,92.798 219.172,92.732 219.195,92.671 C219.236,92.564 219.296,92.468 219.371,92.388 L222.035,89.533 C222.351,89.219 222.842,89.228 223.146,89.554 C223.451,89.880 223.460,90.406 223.166,90.744 L221.865,92.139 L232.135,92.139 L230.835,90.744 C230.531,90.408 230.536,89.873 230.844,89.543 C231.153,89.213 231.652,89.208 231.966,89.533 L234.633,92.391 C234.945,92.725 234.945,93.267 234.633,93.602 L231.966,96.458 ZM217.800,98.996 C217.359,98.996 217.001,98.612 217.001,98.139 L217.001,87.853 C217.001,87.380 217.359,86.996 217.800,86.996 C218.242,86.996 218.601,87.380 218.601,87.853 L218.601,98.139 C218.601,98.612 218.242,98.996 217.800,98.996 Z"/>
</svg>
