<svg width="24" height="24" viewBox="0 0 24 24" fill="none" xmlns="http://www.w3.org/2000/svg">
<path d="M12 18C13.3807 18 14.5 19.1193 14.5 20.5C14.5 21.8807 13.3807 23 12 23C10.6193 23 9.5 21.8807 9.5 20.5C9.5 19.1193 10.6193 18 12 18ZM3.5 18C4.88071 18 6 19.1193 6 20.5C6 21.0637 5.81083 21.5818 5.49609 22H3.5C4.32843 22 5 21.3284 5 20.5C5 19.6716 4.32843 19 3.5 19C2.67157 19 2 19.6716 2 20.5C2 21.3284 2.67157 22 3.5 22H2V18.5029C2.41809 18.1884 2.93653 18 3.5 18ZM12 19C11.1716 19 10.5 19.6716 10.5 20.5C10.5 21.3284 11.1716 22 12 22C12.8284 22 13.5 21.3284 13.5 20.5C13.5 19.6716 12.8284 19 12 19ZM20.5 18C21.0635 18 21.5819 18.1884 22 18.5029V22H20.5C21.3284 22 22 21.3284 22 20.5C22 19.6716 21.3284 19 20.5 19C19.6716 19 19 19.6716 19 20.5C19 21.3284 19.6716 22 20.5 22H18.5039C18.1892 21.5818 18 21.0637 18 20.5C18 19.1193 19.1193 18 20.5 18ZM3.5 9.5C4.88071 9.5 6 10.6193 6 12C6 13.3807 4.88071 14.5 3.5 14.5C2.11929 14.5 1 13.3807 1 12C1 10.6193 2.11929 9.5 3.5 9.5ZM12 9.5C13.3807 9.5 14.5 10.6193 14.5 12C14.5 13.3807 13.3807 14.5 12 14.5C10.6193 14.5 9.5 13.3807 9.5 12C9.5 10.6193 10.6193 9.5 12 9.5ZM20.5 9.5C21.8807 9.5 23 10.6193 23 12C23 13.3807 21.8807 14.5 20.5 14.5C19.1193 14.5 18 13.3807 18 12C18 10.6193 19.1193 9.5 20.5 9.5ZM3.5 10.5C2.67157 10.5 2 11.1716 2 12C2 12.8284 2.67157 13.5 3.5 13.5C4.32843 13.5 5 12.8284 5 12C5 11.1716 4.32843 10.5 3.5 10.5ZM12 10.5C11.1716 10.5 10.5 11.1716 10.5 12C10.5 12.8284 11.1716 13.5 12 13.5C12.8284 13.5 13.5 12.8284 13.5 12C13.5 11.1716 12.8284 10.5 12 10.5ZM20.5 10.5C19.6716 10.5 19 11.1716 19 12C19 12.8284 19.6716 13.5 20.5 13.5C21.3284 13.5 22 12.8284 22 12C22 11.1716 21.3284 10.5 20.5 10.5ZM3.5 2C2.67157 2 2 2.67157 2 3.5C2 4.32843 2.67157 5 3.5 5C4.32843 5 5 4.32843 5 3.5C5 2.67157 4.32843 2 3.5 2H5.49609C5.81083 2.41817 6 2.93631 6 3.5C6 4.88071 4.88071 6 3.5 6C2.93653 6 2.41809 5.81159 2 5.49707V2H3.5ZM12 1C13.3807 1 14.5 2.11929 14.5 3.5C14.5 4.88071 13.3807 6 12 6C10.6193 6 9.5 4.88071 9.5 3.5C9.5 2.11929 10.6193 1 12 1ZM20.5 2C19.6716 2 19 2.67157 19 3.5C19 4.32843 19.6716 5 20.5 5C21.3284 5 22 4.32843 22 3.5C22 2.67157 21.3284 2 20.5 2H22V5.49707C21.5819 5.81159 21.0635 6 20.5 6C19.1193 6 18 4.88071 18 3.5C18 2.93631 18.1892 2.41817 18.5039 2H20.5ZM12 2C11.1716 2 10.5 2.67157 10.5 3.5C10.5 4.32843 11.1716 5 12 5C12.8284 5 13.5 4.32843 13.5 3.5C13.5 2.67157 12.8284 2 12 2Z" fill="#D0D4DE"/>
<path d="M16.3271 21.5576C15.1267 18.2971 18.2971 15.1274 21.5576 16.3281C22.0467 16.5083 22.5368 16.5557 23 16.498V17.5039C22.4231 17.5574 21.8174 17.4892 21.2129 17.2666C18.7526 16.3602 16.3597 18.7526 17.2656 21.2129C17.4882 21.8173 17.5573 22.4232 17.5039 23H16.498C16.5557 22.5369 16.5073 22.0466 16.3271 21.5576ZM15.9238 11.9766C14.8078 8.94611 17.4933 5.88441 20.6436 6.5957L23 7.12695V8.15234L20.4229 7.57129C18.0459 7.03473 16.0201 9.34528 16.8623 11.6318C18.0631 14.8924 14.8924 18.0631 11.6318 16.8623C9.34516 16.0199 7.03455 18.0468 7.57129 20.4238L8.15234 23H7.12695L6.59473 20.6436C5.88358 17.4933 8.94614 14.8078 11.9766 15.9238C14.437 16.8302 16.8303 14.437 15.9238 11.9766ZM16.8701 1L17.4023 3.35449C18.1132 6.50452 15.0508 9.19019 12.0205 8.07422C9.56019 7.1678 7.16725 9.56019 8.07324 12.0205C9.18927 15.051 6.50376 18.1136 3.35352 17.4023L1 16.8701V15.8447L3.57422 16.4268C5.95118 16.9633 7.97715 14.6518 7.13477 12.3652C5.93433 9.10473 9.10472 5.93498 12.3652 7.13574C14.6519 7.97805 16.9634 5.95123 16.4268 3.57422L15.8447 1H16.8701ZM7.49805 1C7.44092 1.46236 7.49014 1.95138 7.66992 2.43945C8.87067 5.70005 5.70005 8.87067 2.43945 7.66992C1.95139 7.49011 1.46236 7.44193 1 7.49902V6.49219C1.57596 6.43927 2.18068 6.50918 2.78418 6.73145C5.2446 7.63778 7.63787 5.2446 6.73145 2.78418C6.50915 2.18056 6.44018 1.57606 6.49316 1H7.49805Z" fill="#15C059"/>
<rect x="1.5" y="1.5" width="21" height="21" rx="2.5" stroke="#15C059"/>
</svg>
