<svg width="24" height="24" viewBox="0 0 24 24" fill="none" xmlns="http://www.w3.org/2000/svg">
<path d="M17.6485 18.4199C18.7301 18.3296 20.4373 20.966 22.3203 21.9004C22.093 22.1776 21.8156 22.4106 21.5039 22.5918C20.8402 22.197 20.2276 21.6663 19.7032 21.1768C19.1067 20.62 18.6619 20.1606 18.2256 19.7949C18.0185 19.6213 17.8622 19.5119 17.7491 19.4521C17.7181 19.4359 17.6941 19.4265 17.6797 19.4209C16.2637 19.554 15.634 20.1615 15.3897 20.8623C15.2025 21.4004 15.1944 22.1293 15.4307 23H14.4004C13.8419 20.5694 14.8413 18.6573 17.6485 18.4199ZM13.8487 1C13.7437 1.65247 13.4518 2.27979 12.9707 2.79297C12.1414 3.67756 12.0956 5.04079 12.8643 5.97852L13.1201 6.29004C14.2073 7.61582 14.1433 9.54217 12.9707 10.793C12.1414 11.6776 12.0956 13.0408 12.8643 13.9785L13.1201 14.29C14.2073 15.6158 14.1433 17.5422 12.9707 18.793C12.1414 19.6776 12.0955 21.0408 12.8643 21.9785L12.9922 22.1348C13.2123 22.4031 13.3876 22.6948 13.5196 23H12.3867C12.335 22.921 12.2799 22.8431 12.2188 22.7686L12.0908 22.6123C11.0041 21.2865 11.0687 19.36 12.2412 18.1094C13.0707 17.2247 13.1157 15.8616 12.3467 14.9238L12.0908 14.6123C11.0041 13.2865 11.0687 11.36 12.2412 10.1094C13.0707 9.2247 13.1157 7.86159 12.3467 6.92383L12.0908 6.6123C11.0041 5.28647 11.0687 3.36 12.2412 2.10938C12.5422 1.78834 12.7381 1.40385 12.8311 1H13.8487ZM7.54788 1C7.62141 1.41213 7.779 1.8121 8.02053 2.17285C8.89157 3.47325 8.9424 5.15725 8.15139 6.50781L7.9219 6.90039C7.32506 7.91985 7.36331 9.19123 8.02053 10.1729C8.89157 11.4732 8.9424 13.1572 8.15139 14.5078L7.9219 14.9004C7.32506 15.9199 7.36331 17.1912 8.02053 18.1729C8.89157 19.4732 8.9424 21.1572 8.15139 22.5078L8.03714 22.7041C7.98065 22.8006 7.93111 22.8999 7.88479 23H6.80764C6.90231 22.7246 7.02316 22.4556 7.17385 22.1982L7.28909 22.0029C7.88634 20.9832 7.84805 19.7113 7.19046 18.7295C6.31958 17.4292 6.26871 15.745 7.0596 14.3945L7.28909 14.0029C7.88634 12.9832 7.84805 11.7113 7.19046 10.7295C6.31958 9.42916 6.26871 7.745 7.0596 6.39453L7.28909 6.00293C7.88634 4.98324 7.84805 3.71134 7.19046 2.72949C6.8362 2.20054 6.6205 1.60767 6.53909 1H7.54788ZM3.07717 1.14551C3.15959 1.50608 3.30752 1.8547 3.52053 2.17285C4.39157 3.47325 4.44239 5.15725 3.65139 6.50781L3.4219 6.90039C2.82505 7.91986 2.86331 9.19123 3.52053 10.1729C4.39157 11.4732 4.44239 13.1572 3.65139 14.5078L3.4219 14.9004C2.82505 15.9199 2.86331 17.1912 3.52053 18.1729C4.39157 19.4732 4.44239 21.1572 3.65139 22.5078L3.53713 22.7041C3.49153 22.782 3.44915 22.8611 3.41018 22.9414C3.07476 22.8745 2.76153 22.7487 2.47659 22.5801C2.53639 22.4508 2.60091 22.3228 2.67385 22.1982L2.78909 22.0029C3.38634 20.9832 3.34805 19.7113 2.69045 18.7295C1.81958 17.4292 1.7687 15.745 2.55959 14.3945L2.78909 14.0029C3.38634 12.9832 3.34805 11.7113 2.69045 10.7295C1.81958 9.42916 1.7687 7.745 2.55959 6.39453L2.78909 6.00293C3.38634 4.98324 3.34805 3.71134 2.69045 2.72949C2.45894 2.38381 2.2871 2.01047 2.1719 1.62402C2.44144 1.41632 2.74617 1.25244 3.07717 1.14551ZM18.5479 9.05371C19.5871 8.9659 21.2044 11.3971 23 12.417V13.5332C22.8334 13.4609 22.6725 13.3812 22.5196 13.2949C21.8106 12.8947 21.1577 12.3287 20.6026 11.8105C20.006 11.2536 19.5614 10.7944 19.125 10.4287C18.918 10.2553 18.7625 10.1467 18.6494 10.0869C18.6182 10.0705 18.5946 10.0603 18.5801 10.0547C17.1634 10.1878 16.5333 10.795 16.2891 11.4961C16.0074 12.3058 16.1286 13.5477 16.8828 15.0537C17.0327 15.3529 17.1723 15.5007 17.2784 15.5811C17.3823 15.6597 17.5069 15.714 17.6895 15.75C17.8889 15.7892 18.1235 15.801 18.4551 15.8086C18.7635 15.8156 19.162 15.819 19.5733 15.8652C20.4465 15.9634 21.4196 16.2567 22.3897 17.1338C22.5966 17.3209 22.7991 17.5331 23 17.7705V19.4932C20.1769 14.8127 17.4335 18.3842 15.9893 15.502L15.8418 15.1973C14.4025 12.0654 15.1605 9.34011 18.5479 9.05371ZM19.5889 1C18.6999 2.16872 17.6214 2.86771 16.6953 3.34668C16.3949 3.50204 16.1074 3.63564 15.8555 3.75195C15.5958 3.87187 15.3875 3.96694 15.2071 4.05859C15.0561 4.13529 14.9587 4.19477 14.8965 4.23828C14.7803 4.86957 14.9246 5.47479 15.2784 5.92773C15.6541 6.40844 16.3446 6.81727 17.4639 6.81738C17.6851 6.81738 17.7917 6.77756 17.8409 6.75293C17.8879 6.72923 17.9408 6.69008 18.0118 6.59668C18.093 6.48967 18.1729 6.34763 18.291 6.12012C18.3984 5.91344 18.5413 5.62912 18.7188 5.35059C19.1005 4.75151 19.6646 4.14038 20.6475 3.75C21.2623 3.50592 22.0071 3.36213 22.9229 3.33203C22.9718 3.54701 23 3.77021 23 4V4.33203C18.3101 4.46525 19.9925 7.81738 17.4639 7.81738C14.7892 7.81715 13.5426 5.88142 13.9219 3.99902L13.9639 3.81738C14.2764 3.01983 16.5278 2.77732 18.2725 1H19.5889Z" fill="#15C059"/>
<rect x="1.5" y="1.5" width="21" height="21" rx="2.5" stroke="#15C059"/>
</svg>
