<svg width="24" height="24" viewBox="0 0 24 24" fill="none" xmlns="http://www.w3.org/2000/svg">
<path d="M17.5 18C18.8807 18 20 18.6716 20 19.5C20 20.3284 18.8807 21 17.5 21C16.1193 21 15 20.3284 15 19.5C15 18.6716 16.1193 18 17.5 18ZM17.5 19C16.9599 19 16.5194 19.1336 16.2471 19.2969C16.0905 19.3908 16.0304 19.4639 16.0088 19.5C16.0304 19.5361 16.0905 19.6092 16.2471 19.7031C16.5194 19.8664 16.9599 20 17.5 20C18.0401 20 18.4806 19.8664 18.7529 19.7031C18.9089 19.6095 18.9684 19.5363 18.9902 19.5C18.9684 19.4637 18.9089 19.3905 18.7529 19.2969C18.4806 19.1336 18.0401 19 17.5 19ZM17.5 10C18.8807 10 20 10.6716 20 11.5C20 12.3284 18.8807 13 17.5 13C16.1193 13 15 12.3284 15 11.5C15 10.6716 16.1193 10 17.5 10ZM17.5 11C16.9599 11 16.5194 11.1336 16.2471 11.2969C16.0905 11.3908 16.0304 11.4639 16.0088 11.5C16.0304 11.5361 16.0905 11.6092 16.2471 11.7031C16.5194 11.8664 16.9599 12 17.5 12C18.0401 12 18.4806 11.8664 18.7529 11.7031C18.9089 11.6095 18.9684 11.5363 18.9902 11.5C18.9684 11.4637 18.9089 11.3905 18.7529 11.2969C18.4806 11.1336 18.0401 11 17.5 11ZM17.5 1C18.8807 1 20 1.67157 20 2.5C20 3.32843 18.8807 4 17.5 4C16.1193 4 15 3.32843 15 2.5C15 1.67157 16.1193 1 17.5 1ZM17.5 2C16.9599 2 16.5194 2.13357 16.2471 2.29688C16.0905 2.39084 16.0304 2.46389 16.0088 2.5C16.0304 2.53611 16.0905 2.60916 16.2471 2.70312C16.5194 2.86643 16.9599 3 17.5 3C18.0401 3 18.4806 2.86643 18.7529 2.70312C18.9089 2.60953 18.9684 2.53626 18.9902 2.5C18.9684 2.46374 18.9089 2.39047 18.7529 2.29688C18.4806 2.13357 18.0401 2 17.5 2Z" fill="#D0D4DE"/>
<path d="M22.999 20.0137C22.9967 20.5414 22.8568 21.0358 22.6152 21.4658C22.2826 21.6649 21.9342 21.8591 21.5898 22.04C20.8653 22.4207 20.1424 22.7578 19.6016 23H18.5293C18.5205 22.9784 18.5108 22.9557 18.501 22.9316C18.3254 22.5023 18.3125 22.471 18.3115 22.4688H18.3125L18.3145 22.4678C18.317 22.4667 18.3214 22.4649 18.3262 22.4629C18.3364 22.4586 18.3521 22.4517 18.3721 22.4434C18.4128 22.4264 18.4741 22.4008 18.5508 22.3682C18.7046 22.3027 18.9254 22.2081 19.1895 22.0898C19.7194 21.8526 20.4234 21.5229 21.125 21.1543C21.8216 20.7883 22.498 20.3906 22.999 20.0137ZM13.833 1.43164C14.0843 1.86388 14.0849 1.86427 14.085 1.86426L14.083 1.86523C14.0816 1.86604 14.079 1.86747 14.0762 1.86914C14.0703 1.87256 14.0612 1.87706 14.0498 1.88379C14.0264 1.89761 13.9917 1.91865 13.9473 1.94531C13.8585 1.99865 13.7311 2.07608 13.5781 2.17188C13.271 2.36419 12.8635 2.62879 12.458 2.91895C12.0493 3.21146 11.6562 3.52017 11.3711 3.80078C11.2281 3.94148 11.1248 4.06339 11.0605 4.16113C11.0431 4.18767 11.0324 4.21036 11.0234 4.22754C11.0333 4.23659 11.0436 4.24972 11.0586 4.26172C11.1658 4.34769 11.3445 4.44894 11.5996 4.56445C12.1082 4.79473 12.7928 5.02361 13.5205 5.27441C14.2286 5.51849 14.9776 5.78441 15.5508 6.08008C15.8365 6.22751 16.1085 6.39722 16.3154 6.59668C16.5207 6.7947 16.7139 7.07407 16.7139 7.43164C16.7139 7.77756 16.532 8.06509 16.3428 8.27832C16.1473 8.49854 15.886 8.70552 15.6045 8.89844C15.0416 9.2842 14.2985 9.6788 13.5947 10.0586C12.8741 10.4475 12.1905 10.8225 11.6865 11.1875C11.4349 11.3698 11.25 11.5339 11.1328 11.6777C11.0131 11.8246 11 11.9057 11 11.9316C11 11.951 11.0083 12.016 11.1172 12.1367C11.2266 12.258 11.4029 12.3959 11.6514 12.5459C12.1487 12.846 12.8269 13.1352 13.5469 13.4307C14.247 13.718 14.9921 14.0132 15.5557 14.3125C15.8372 14.462 16.1046 14.6282 16.3076 14.8154C16.5021 14.9948 16.7139 15.2653 16.7139 15.6221C16.7137 15.9829 16.5528 16.2839 16.3438 16.5205C16.1379 16.7534 15.864 16.9505 15.5742 17.1201C14.9961 17.4584 14.2414 17.7517 13.5342 18.0195C12.8048 18.2958 12.1253 18.5445 11.6221 18.8047C11.3708 18.9346 11.1964 19.0514 11.0908 19.1523C11.0244 19.2158 11.0059 19.2536 11.001 19.2666C11.0043 19.2822 11.0233 19.3532 11.1328 19.4873C11.2539 19.6355 11.4429 19.8085 11.6953 20C12.1983 20.3815 12.884 20.7835 13.5898 21.1543C14.2917 21.523 14.9954 21.8526 15.5254 22.0898C15.7897 22.2082 16.0103 22.3027 16.1641 22.3682C16.241 22.4009 16.302 22.4264 16.3428 22.4434C16.363 22.4518 16.3784 22.4587 16.3887 22.4629C16.3938 22.465 16.3979 22.4668 16.4004 22.4678L16.4023 22.4688H16.4033C16.4033 22.4689 16.3999 22.4765 16.2139 22.9316C16.204 22.9557 16.1944 22.9784 16.1855 23H15.1133C14.5724 22.7578 13.8497 22.4208 13.125 22.04C12.4023 21.6604 11.6593 21.228 11.0908 20.7969C10.8076 20.5821 10.5498 20.3545 10.3584 20.1201C10.1755 19.8962 10 19.6019 10 19.2637C10 18.905 10.1947 18.6264 10.4004 18.4297C10.6072 18.2321 10.8789 18.0639 11.1631 17.917C11.7311 17.6233 12.4807 17.3497 13.1797 17.085C13.901 16.8118 14.576 16.5455 15.0693 16.2568C15.315 16.1131 15.4872 15.979 15.5938 15.8584C15.6815 15.7591 15.7053 15.6896 15.7109 15.6436C15.7014 15.6284 15.68 15.5971 15.6299 15.5508C15.5204 15.4497 15.3411 15.3303 15.0869 15.1953C14.5791 14.9256 13.8953 14.6543 13.167 14.3555C12.4586 14.0647 11.7088 13.7477 11.1348 13.4014C10.8476 13.2281 10.5771 13.0318 10.374 12.8066C10.1706 12.581 10 12.2871 10 11.9316C10 11.5826 10.1656 11.2835 10.3584 11.0469C10.5537 10.8072 10.8156 10.5837 11.0996 10.3779C11.667 9.96688 12.4125 9.56061 13.1201 9.17871C13.8448 8.78764 14.5306 8.42168 15.0391 8.07324C15.2929 7.89926 15.4778 7.7459 15.5947 7.61426C15.6954 7.50085 15.7114 7.44225 15.7139 7.43164C15.7139 7.45612 15.7291 7.41965 15.6221 7.31641C15.5165 7.21463 15.3415 7.09759 15.0918 6.96875C14.5937 6.71183 13.9145 6.46795 13.1943 6.21973C12.4935 5.97818 11.7494 5.73048 11.1865 5.47559C10.9062 5.34862 10.6379 5.20574 10.4326 5.04102C10.2426 4.88854 10 4.63159 10 4.26465C10 4.00855 10.114 3.78101 10.2256 3.61133C10.3436 3.43187 10.5005 3.25463 10.6699 3.08789C11.0098 2.75341 11.4514 2.41033 11.876 2.10645C12.3038 1.80029 12.7291 1.52322 13.0469 1.32422C13.2061 1.22451 13.3392 1.14399 13.4326 1.08789C13.4793 1.05984 13.5166 1.03845 13.542 1.02344C13.5547 1.01595 13.5645 1.00983 13.5713 1.00586C13.5746 1.00392 13.5773 1.00203 13.5791 1.00098L13.5811 1C13.5811 0.999965 13.5828 1.00126 13.833 1.43164ZM9.08301 1.43164C9.33434 1.86388 9.33494 1.86427 9.33496 1.86426L9.33301 1.86523C9.33163 1.86604 9.32902 1.86747 9.32617 1.86914C9.32034 1.87256 9.31121 1.87706 9.2998 1.88379C9.2764 1.89761 9.24166 1.91865 9.19727 1.94531C9.10846 1.99865 8.98111 2.07608 8.82812 2.17188C8.52101 2.36419 8.11345 2.62879 7.70801 2.91895C7.2993 3.21146 6.90622 3.52017 6.62109 3.80078C6.47815 3.94148 6.3748 4.06339 6.31055 4.16113C6.29312 4.18767 6.28241 4.21036 6.27344 4.22754C6.28329 4.23659 6.29364 4.24972 6.30859 4.26172C6.41582 4.34769 6.59454 4.44894 6.84961 4.56445C7.35816 4.79473 8.04285 5.02361 8.77051 5.27441C9.47863 5.51849 10.2276 5.78441 10.8008 6.08008C11.0865 6.22751 11.3585 6.39722 11.5654 6.59668C11.7707 6.7947 11.9639 7.07407 11.9639 7.43164C11.9639 7.77756 11.782 8.06509 11.5928 8.27832C11.3973 8.49854 11.136 8.70552 10.8545 8.89844C10.2916 9.2842 9.54847 9.6788 8.84473 10.0586C8.12408 10.4475 7.44046 10.8225 6.93652 11.1875C6.68488 11.3698 6.49999 11.5339 6.38281 11.6777C6.26312 11.8246 6.25 11.9057 6.25 11.9316C6.25 11.951 6.25832 12.016 6.36719 12.1367C6.4766 12.258 6.65285 12.3959 6.90137 12.5459C7.39871 12.846 8.07694 13.1352 8.79688 13.4307C9.49704 13.718 10.2421 14.0132 10.8057 14.3125C11.0872 14.462 11.3546 14.6282 11.5576 14.8154C11.7521 14.9948 11.9639 15.2653 11.9639 15.6221C11.9637 15.9829 11.8028 16.2839 11.5938 16.5205C11.3879 16.7534 11.114 16.9505 10.8242 17.1201C10.2461 17.4584 9.49142 17.7517 8.78418 18.0195C8.05477 18.2958 7.37533 18.5445 6.87207 18.8047C6.62082 18.9346 6.44644 19.0514 6.34082 19.1523C6.27442 19.2158 6.25588 19.2536 6.25098 19.2666C6.25432 19.2822 6.27333 19.3532 6.38281 19.4873C6.50385 19.6355 6.69287 19.8085 6.94531 20C7.44828 20.3815 8.13397 20.7835 8.83984 21.1543C9.54166 21.523 10.2454 21.8526 10.7754 22.0898C11.0397 22.2082 11.2603 22.3027 11.4141 22.3682C11.491 22.4009 11.552 22.4264 11.5928 22.4434C11.613 22.4518 11.6284 22.4587 11.6387 22.4629C11.6438 22.465 11.6479 22.4668 11.6504 22.4678L11.6523 22.4688H11.6533C11.6533 22.4689 11.6499 22.4765 11.4639 22.9316C11.454 22.9557 11.4444 22.9784 11.4355 23H10.3633C9.82243 22.7578 9.09973 22.4208 8.375 22.04C7.65233 21.6604 6.90928 21.228 6.34082 20.7969C6.05763 20.5821 5.79984 20.3545 5.6084 20.1201C5.42555 19.8962 5.25003 19.6019 5.25 19.2637C5.25 18.905 5.44469 18.6264 5.65039 18.4297C5.85717 18.2321 6.12894 18.0639 6.41309 17.917C6.98112 17.6233 7.73067 17.3497 8.42969 17.085C9.15101 16.8118 9.82599 16.5455 10.3193 16.2568C10.565 16.1131 10.7372 15.979 10.8438 15.8584C10.9315 15.7591 10.9553 15.6896 10.9609 15.6436C10.9514 15.6284 10.93 15.5971 10.8799 15.5508C10.7704 15.4497 10.5911 15.3303 10.3369 15.1953C9.82909 14.9256 9.14527 14.6543 8.41699 14.3555C7.70857 14.0647 6.95875 13.7477 6.38477 13.4014C6.09756 13.2281 5.82711 13.0318 5.62402 12.8066C5.42056 12.581 5.25 12.2871 5.25 11.9316C5.25 11.5826 5.41561 11.2835 5.6084 11.0469C5.80373 10.8072 6.06557 10.5837 6.34961 10.3779C6.91704 9.96688 7.66248 9.56061 8.37012 9.17871C9.09476 8.78764 9.78064 8.42168 10.2891 8.07324C10.5429 7.89926 10.7278 7.7459 10.8447 7.61426C10.9454 7.50085 10.9614 7.44225 10.9639 7.43164C10.9639 7.45612 10.9791 7.41965 10.8721 7.31641C10.7665 7.21463 10.5915 7.09759 10.3418 6.96875C9.84369 6.71183 9.1645 6.46795 8.44434 6.21973C7.74353 5.97818 6.99938 5.73048 6.43652 5.47559C6.15619 5.34862 5.88788 5.20574 5.68262 5.04102C5.49263 4.88854 5.25 4.63159 5.25 4.26465C5.25003 4.00855 5.36404 3.78101 5.47559 3.61133C5.59358 3.43187 5.7505 3.25463 5.91992 3.08789C6.25979 2.75341 6.70137 2.41033 7.12598 2.10645C7.55375 1.80029 7.97908 1.52322 8.29688 1.32422C8.4561 1.22451 8.58921 1.14399 8.68262 1.08789C8.72932 1.05984 8.76657 1.03845 8.79199 1.02344C8.80468 1.01595 8.81451 1.00983 8.82129 1.00586C8.82461 1.00392 8.8273 1.00203 8.8291 1.00098L8.83105 1C8.83113 0.999965 8.83276 1.00126 9.08301 1.43164ZM4.83301 1.43164C5.08434 1.86388 5.08494 1.86427 5.08496 1.86426L5.08301 1.86523C5.08163 1.86604 5.07902 1.86747 5.07617 1.86914C5.07034 1.87256 5.06121 1.87706 5.0498 1.88379C5.0264 1.89761 4.99166 1.91865 4.94727 1.94531C4.85846 1.99865 4.73111 2.07608 4.57812 2.17188C4.27101 2.36419 3.86345 2.62879 3.45801 2.91895C3.0493 3.21146 2.65622 3.52017 2.37109 3.80078C2.22815 3.94148 2.1248 4.06339 2.06055 4.16113C2.04312 4.18767 2.03241 4.21036 2.02344 4.22754C2.03329 4.23659 2.04364 4.24972 2.05859 4.26172C2.16582 4.34769 2.34454 4.44894 2.59961 4.56445C3.10816 4.79473 3.79285 5.02361 4.52051 5.27441C5.22863 5.51849 5.97762 5.78441 6.55078 6.08008C6.83655 6.22751 7.10854 6.39722 7.31543 6.59668C7.52075 6.7947 7.71387 7.07407 7.71387 7.43164C7.71387 7.77756 7.53204 8.06509 7.34277 8.27832C7.14726 8.49854 6.88596 8.70552 6.60449 8.89844C6.04161 9.2842 5.29847 9.6788 4.59473 10.0586C3.87408 10.4475 3.19046 10.8225 2.68652 11.1875C2.43488 11.3698 2.24999 11.5339 2.13281 11.6777C2.01312 11.8246 2 11.9057 2 11.9316C2 11.951 2.00832 12.016 2.11719 12.1367C2.2266 12.258 2.40285 12.3959 2.65137 12.5459C3.14871 12.846 3.82694 13.1352 4.54688 13.4307C5.24704 13.718 5.99211 14.0132 6.55566 14.3125C6.83717 14.462 7.10464 14.6282 7.30762 14.8154C7.50207 14.9948 7.71387 15.2653 7.71387 15.6221C7.71373 15.9829 7.55281 16.2839 7.34375 16.5205C7.13791 16.7534 6.86401 16.9505 6.57422 17.1201C5.99614 17.4584 5.24142 17.7517 4.53418 18.0195C3.80477 18.2958 3.12533 18.5445 2.62207 18.8047C2.37082 18.9346 2.19644 19.0514 2.09082 19.1523C2.02442 19.2158 2.00588 19.2536 2.00098 19.2666C2.00432 19.2822 2.02333 19.3532 2.13281 19.4873C2.25385 19.6355 2.44287 19.8085 2.69531 20C3.19828 20.3815 3.88397 20.7835 4.58984 21.1543C5.29166 21.523 5.99539 21.8526 6.52539 22.0898C6.78972 22.2082 7.01026 22.3027 7.16406 22.3682C7.24096 22.4009 7.302 22.4264 7.34277 22.4434C7.36302 22.4518 7.37842 22.4587 7.38867 22.4629C7.39375 22.465 7.39791 22.4668 7.40039 22.4678L7.40234 22.4688H7.40332C7.40327 22.4689 7.39992 22.4765 7.21387 22.9316C7.20403 22.9557 7.19438 22.9784 7.18555 23H6.11328C5.57243 22.7578 4.84973 22.4208 4.125 22.04C3.40233 21.6604 2.65928 21.228 2.09082 20.7969C1.80763 20.5821 1.54984 20.3545 1.3584 20.1201C1.17555 19.8962 1.00003 19.6019 1 19.2637C1 18.905 1.19469 18.6264 1.40039 18.4297C1.60717 18.2321 1.87894 18.0639 2.16309 17.917C2.73112 17.6233 3.48067 17.3497 4.17969 17.085C4.90101 16.8118 5.57599 16.5455 6.06934 16.2568C6.31496 16.1131 6.48717 15.979 6.59375 15.8584C6.68152 15.7591 6.70531 15.6896 6.71094 15.6436C6.70138 15.6284 6.68004 15.5971 6.62988 15.5508C6.52037 15.4497 6.34107 15.3303 6.08691 15.1953C5.57909 14.9256 4.89527 14.6543 4.16699 14.3555C3.45857 14.0647 2.70875 13.7477 2.13477 13.4014C1.84756 13.2281 1.57711 13.0318 1.37402 12.8066C1.17056 12.581 1 12.2871 1 11.9316C1 11.5826 1.16561 11.2835 1.3584 11.0469C1.55373 10.8072 1.81557 10.5837 2.09961 10.3779C2.66704 9.96688 3.41248 9.56061 4.12012 9.17871C4.84476 8.78764 5.53064 8.42168 6.03906 8.07324C6.29289 7.89926 6.47785 7.7459 6.59473 7.61426C6.69539 7.50085 6.71141 7.44225 6.71387 7.43164C6.71387 7.45612 6.72907 7.41965 6.62207 7.31641C6.51654 7.21463 6.34155 7.09759 6.0918 6.96875C5.59369 6.71183 4.9145 6.46795 4.19434 6.21973C3.49353 5.97818 2.74938 5.73048 2.18652 5.47559C1.90619 5.34862 1.63788 5.20574 1.43262 5.04102C1.24263 4.88854 1 4.63159 1 4.26465C1.00003 4.00855 1.11404 3.78101 1.22559 3.61133C1.34358 3.43187 1.5005 3.25463 1.66992 3.08789C2.00979 2.75341 2.45137 2.41033 2.87598 2.10645C3.30375 1.80029 3.72908 1.52322 4.04688 1.32422C4.2061 1.22451 4.33921 1.14399 4.43262 1.08789C4.47932 1.05984 4.51657 1.03845 4.54199 1.02344C4.55468 1.01595 4.56451 1.00983 4.57129 1.00586C4.57461 1.00392 4.5773 1.00203 4.5791 1.00098L4.58105 1C4.58113 0.999965 4.58276 1.00126 4.83301 1.43164ZM1.45996 21.5918C1.85099 21.7817 2.21728 21.9519 2.52539 22.0898C2.78972 22.2082 3.01026 22.3027 3.16406 22.3682C3.24096 22.4009 3.302 22.4264 3.34277 22.4434C3.36302 22.4518 3.37842 22.4587 3.38867 22.4629C3.39375 22.465 3.39791 22.4668 3.40039 22.4678L3.40234 22.4688H3.40332C3.40327 22.4689 3.39916 22.4757 3.22754 22.8955C2.48568 22.6981 1.85817 22.2259 1.45996 21.5918ZM23 13.7129C22.5433 13.9394 22.0363 14.155 21.5479 14.3555C20.8198 14.6543 20.1357 14.9257 19.6279 15.1953C19.374 15.3302 19.1945 15.4498 19.085 15.5508C19.035 15.5969 19.0135 15.6283 19.0039 15.6436C19.0096 15.6896 19.0334 15.7591 19.1211 15.8584C19.2277 15.9789 19.4 16.1132 19.6455 16.2568C20.1388 16.5455 20.814 16.8119 21.5352 17.085C22.0253 17.2706 22.5401 17.4619 23 17.6602V18.7607C22.5074 18.5172 21.8666 18.2793 21.1807 18.0195C20.4736 17.7517 19.7187 17.4583 19.1406 17.1201C18.8509 16.9506 18.5769 16.7533 18.3711 16.5205C18.162 16.2839 18.0011 15.9829 18.001 15.6221C18.001 15.2653 18.2128 14.9948 18.4072 14.8154C18.6102 14.6283 18.8778 14.4619 19.1592 14.3125C19.7227 14.0133 20.468 13.7179 21.168 13.4307C21.8579 13.1475 22.5092 12.8688 23 12.582V13.7129ZM1 13.6172C1.55726 13.8455 2.11273 14.0773 2.55566 14.3125C2.83717 14.462 3.10464 14.6282 3.30762 14.8154C3.50207 14.9948 3.71387 15.2653 3.71387 15.6221C3.71373 15.9829 3.55281 16.2839 3.34375 16.5205C3.13791 16.7534 2.86401 16.9505 2.57422 17.1201C2.12195 17.3848 1.56118 17.6209 1 17.8398V16.7617C1.40284 16.5965 1.77001 16.432 2.06934 16.2568C2.31496 16.1131 2.48717 15.979 2.59375 15.8584C2.68152 15.7591 2.70531 15.6896 2.71094 15.6436C2.70138 15.6284 2.68004 15.5971 2.62988 15.5508C2.52037 15.4497 2.34107 15.3303 2.08691 15.1953C1.77953 15.0321 1.40718 14.8694 1 14.6992V13.6172ZM23 5.69336C22.5386 5.87173 22.0188 6.048 21.5205 6.21973C20.8005 6.46788 20.1211 6.7119 19.623 6.96875C19.3735 7.09748 19.1983 7.21468 19.0928 7.31641C18.9858 7.41965 19.001 7.45612 19.001 7.43164C19.0035 7.44253 19.0198 7.50123 19.1201 7.61426C19.237 7.74585 19.4221 7.89937 19.6758 8.07324C20.1842 8.42161 20.8702 8.78773 21.5947 9.17871C22.068 9.43414 22.5574 9.7022 23 9.97363V11.167C22.499 10.8085 21.8272 10.4402 21.1201 10.0586C20.4165 9.67888 19.6732 9.28412 19.1104 8.89844C18.829 8.70559 18.5676 8.49845 18.3721 8.27832C18.1828 8.06509 18.001 7.77756 18.001 7.43164C18.001 7.07407 18.1941 6.7947 18.3994 6.59668C18.6063 6.39732 18.8784 6.22745 19.1641 6.08008C19.7372 5.78449 20.4864 5.51843 21.1943 5.27441C21.8687 5.04198 22.5054 4.82568 23 4.61231V5.69336ZM1 5.44238C1.55524 5.63968 2.10604 5.85066 2.55078 6.08008C2.83655 6.22751 3.10854 6.39722 3.31543 6.59668C3.52075 6.7947 3.71387 7.07407 3.71387 7.43164C3.71387 7.77756 3.53204 8.06509 3.34277 8.27832C3.14726 8.49854 2.88596 8.70552 2.60449 8.89844C2.14926 9.21042 1.57485 9.52587 1 9.83691V8.69824C1.38785 8.48256 1.74377 8.27562 2.03906 8.07324C2.29289 7.89926 2.47785 7.7459 2.59473 7.61426C2.69539 7.50085 2.71141 7.44225 2.71387 7.43164C2.71387 7.45612 2.72907 7.41965 2.62207 7.31641C2.51654 7.21463 2.34155 7.09759 2.0918 6.96875C1.78559 6.81081 1.41052 6.65896 1 6.50684V5.44238ZM21.0264 1.18359C22.0101 1.54218 22.7541 2.39797 22.9492 3.44922C22.7367 3.27316 22.4997 3.0928 22.2568 2.91895C21.8515 2.6289 21.4438 2.36418 21.1367 2.17188C20.9839 2.07621 20.8564 1.99865 20.7676 1.94531C20.7234 1.91878 20.6884 1.89761 20.665 1.88379C20.6539 1.8772 20.6445 1.87253 20.6387 1.86914C20.6361 1.86761 20.6333 1.86606 20.6318 1.86523L20.6299 1.86426C20.6314 1.86174 20.6503 1.82984 20.8818 1.43164C20.9441 1.32458 20.9911 1.24414 21.0264 1.18359Z" fill="#15C059"/>
<rect x="1.5" y="1.5" width="21" height="21" rx="2.5" stroke="#15C059"/>
</svg>
