<svg 
 xmlns="http://www.w3.org/2000/svg"
 xmlns:xlink="http://www.w3.org/1999/xlink"
 width="16px" height="16px">
<path fill-rule="evenodd"  fill="rgb(255, 255, 255)"
 d="M7.976,16.000 C7.828,16.000 7.691,15.937 7.594,15.827 L2.789,11.504 L0.547,11.504 C0.271,11.504 0.047,11.288 0.037,11.014 C-0.050,8.449 0.029,8.345 0.136,8.198 C0.233,8.069 0.383,7.992 0.547,7.992 L2.509,7.992 L2.509,1.507 C2.509,1.428 2.527,1.352 2.562,1.284 L3.057,0.284 C3.143,0.109 3.322,0.000 3.515,0.000 L12.439,0.000 C12.633,0.000 12.812,0.109 12.896,0.284 L13.390,1.284 C13.426,1.352 13.444,1.431 13.444,1.507 L13.444,7.992 L15.406,7.992 C15.663,7.992 15.877,8.183 15.910,8.434 C16.112,9.982 15.913,11.047 15.905,11.093 C15.859,11.331 15.650,11.506 15.406,11.506 L13.163,11.506 L8.361,15.827 C8.264,15.937 8.124,16.000 7.976,16.000 L7.976,16.000 ZM1.041,10.489 L3.019,10.489 C3.166,10.489 3.304,10.553 3.401,10.662 L7.974,14.721 L12.546,10.662 C12.643,10.553 12.783,10.489 12.929,10.489 L14.950,10.489 C14.978,10.157 14.995,9.642 14.942,9.007 L12.929,9.007 C12.648,9.007 12.419,8.779 12.419,8.500 L12.419,1.624 L12.121,1.015 L3.831,1.015 L3.531,1.624 L3.531,8.500 C3.531,8.779 3.301,9.007 3.021,9.007 L1.023,9.007 C1.018,9.281 1.021,9.738 1.041,10.489 L1.041,10.489 Z"/>
<path fill-rule="evenodd"  fill="rgb(23, 204, 95)"
 d="M10.463,8.999 C10.463,10.380 9.347,11.504 7.976,11.504 C6.605,11.504 5.489,10.380 5.489,8.999 C5.489,8.210 5.862,7.498 6.478,7.025 L6.478,3.504 C6.478,2.674 7.150,1.997 7.976,1.997 C8.802,1.997 9.475,2.672 9.475,3.504 L9.475,7.026 C10.082,7.497 10.463,8.218 10.463,8.999 ZM8.455,3.504 C8.455,3.232 8.241,3.012 7.976,3.012 C7.711,3.012 7.497,3.232 7.497,3.504 L7.497,7.254 C7.497,7.411 7.420,7.546 7.307,7.639 C7.278,7.670 7.252,7.703 7.214,7.726 C6.771,8.000 6.508,8.477 6.508,8.999 C6.508,9.821 7.168,10.489 7.976,10.489 C8.787,10.489 9.444,9.819 9.444,8.999 C9.444,8.472 9.164,7.977 8.715,7.710 C8.672,7.685 8.641,7.649 8.609,7.615 C8.607,7.613 8.605,7.612 8.603,7.610 C8.573,7.577 8.550,7.541 8.530,7.502 C8.513,7.473 8.499,7.445 8.488,7.412 C8.484,7.400 8.483,7.388 8.480,7.376 C8.470,7.336 8.455,7.297 8.455,7.254 L8.455,3.504 Z"/>
</svg>
