<svg width="24" height="24" viewBox="0 0 24 24" fill="none" xmlns="http://www.w3.org/2000/svg">
<path d="M16.6357 23H15.2217L1 8.77832V7.36426L16.6357 23ZM9.56543 23H8.15039L1 15.8496V14.4346L9.56543 23ZM22.4434 21.7363C22.2485 22.0101 22.0091 22.2486 21.7354 22.4434L1.55566 2.26367C1.75029 1.99018 1.9893 1.75138 2.2627 1.55664L22.4434 21.7363ZM8.77832 1L23 15.2217V16.6357L7.36328 1H8.77832ZM15.8486 1L23 8.15039V9.56543L14.4346 1H15.8486Z" fill="#D0D4DE"/>
<path d="M13.7266 2H20.1846C20.7133 2.00002 21.2096 2.25638 21.5156 2.6875L21.2109 3H21.2041L3.20312 21H8.85938L22.1133 7.74609L22.8203 8.45312L21.9961 9.27734V14.9355L22.2334 14.6982L22.9404 15.4053L21.9961 16.3496L21.8545 16.4912L17.3457 21H21.9961V22H16.3457L15.7217 22.624L15.0977 22H14.9414L20.9961 15.9355V10.2773L9.01367 22.2598L8.75391 22H2.20312L2.12891 22.0742L2.05469 22H1.99609V21.9414L1.42188 21.3672L19.79 3H14.1328L2.99609 14.1367L2.99316 14.1348H2.89551H2.40234L1.99609 14.1367V13.7344L1.99023 13.7285L1.99609 13.7227V6.64844H1.99805L5.64648 3H2.26562C2.61309 2.38228 3.26684 2 3.97559 2H8.05859L7.0625 3H7.06055L2.99609 7.06445V12.7227L13.7178 2.00098L13.7188 2L13.7227 1.99609L13.7266 2Z" fill="#15C059"/>
<rect x="1.5" y="1.5" width="21" height="21" rx="2.5" stroke="#15C059"/>
</svg>
