<svg width="24" height="24" viewBox="0 0 24 24" fill="none" xmlns="http://www.w3.org/2000/svg">
<path d="M16.2627 1C16.2281 1.13263 16.2014 1.26895 16.1875 1.40918L16.167 1.61035C16.0878 2.40991 15.7343 3.12148 15.207 3.66016L16.2832 5.31445C16.8837 6.23694 17.7019 6.9986 18.6641 7.5332C19.792 8.16 20.7456 9.05885 21.4385 10.1475L21.9482 10.9492C22.2075 11.3565 22.5117 11.7305 22.8496 12.0703V13.4043C22.1662 12.8692 21.5735 12.2232 21.1045 11.4863L20.5947 10.6846C19.9912 9.73627 19.1603 8.95318 18.1777 8.40723C17.0732 7.79349 16.1347 6.91935 15.4453 5.86035L14.4092 4.26758C13.9509 4.51916 13.4305 4.6707 12.877 4.68848C11.6649 4.72751 10.6692 5.65936 10.5498 6.86621L10.5303 7.06348L12.7412 7.86328C14.0548 8.33874 15.0857 9.37036 15.5645 10.6729L15.7217 11.1445C16.0992 12.1707 16.9122 12.9828 17.9473 13.3574L18.3975 13.5205C19.7111 13.9959 20.7419 15.0267 21.2207 16.3291L21.3779 16.8008C21.6578 17.5614 22.178 18.2033 22.8496 18.6377V19.7793C21.7349 19.2512 20.8667 18.3073 20.4395 17.1455L20.2822 16.6738C19.9048 15.6478 19.0925 14.8356 18.0576 14.4609L17.6064 14.2979C16.2929 13.8224 15.262 12.7908 14.7832 11.4883L14.626 11.0166C14.2486 9.99064 13.4361 9.17841 12.4014 8.80371L10.333 8.05469C10.0879 8.75831 9.62274 9.35236 9.01953 9.75977L9.52734 11.7041C9.8261 12.8471 10.7523 13.7188 11.9111 13.9482C13.4465 14.2518 14.6736 15.4067 15.0693 16.9209L15.1846 17.3613C15.4834 18.5043 16.4094 19.3762 17.5684 19.6055C19.1038 19.9091 20.3309 21.0638 20.7266 22.5781L20.7959 22.8447C20.4982 22.9438 20.1806 22.9999 19.8496 23H19.8037L19.7598 22.8311C19.4611 21.6877 18.5343 20.8152 17.375 20.5859C15.8396 20.2823 14.6125 19.1276 14.2168 17.6133L14.1025 17.1738C13.8038 16.0305 12.877 15.158 11.7178 14.9287C10.1825 14.625 8.95615 13.4703 8.56055 11.9561L8.10059 10.1982C7.82006 10.2831 7.52493 10.3349 7.21973 10.3447C6.00779 10.3839 5.01191 11.3167 4.89258 12.5234L4.85352 12.9238C4.81264 13.3367 4.69716 13.7262 4.52441 14.0811L6.09473 14.2686C7.78603 14.47 9.07704 15.8768 9.13184 17.5791C9.17139 18.8059 10.1145 19.8137 11.3359 19.9346L11.7109 19.9717C13.3295 20.1318 14.5963 21.4066 14.7695 23H13.7607C13.594 21.9243 12.7199 21.0763 11.6123 20.9668L11.2373 20.9297C9.51638 20.7594 8.18843 19.3398 8.13281 17.6113C8.09401 16.4029 7.17709 15.4037 5.97656 15.2607L3.89746 14.9736L3.97949 14.8867C3.58764 15.3168 3.08796 15.6441 2.52441 15.8301L2.78613 18.4795C2.90559 19.6862 3.90128 20.6182 5.11328 20.6572C6.57059 20.7041 7.80315 21.6647 8.24414 23H7.16895C6.78343 22.2218 5.99379 21.6857 5.08105 21.6562C3.36752 21.6009 1.9598 20.2843 1.79102 18.5781L1.53516 16.0039C1.29625 16.0143 1.21649 15.964 1 16.0391V15C1.22008 14.9477 1.2974 15.0105 1.53125 15.0029C2.74321 14.9638 3.73904 14.0319 3.8584 12.8252L3.89746 12.4248C4.06618 10.7186 5.47397 9.40108 7.1875 9.3457C8.39959 9.30678 9.39614 8.37573 9.51562 7.16895L9.55469 6.76758C9.72341 5.06137 11.1311 3.74477 12.8447 3.68945C14.0568 3.65041 15.0525 2.71854 15.1719 1.51172L15.1924 1.31055C15.2028 1.20554 15.2183 1.10206 15.2373 1H16.2627ZM11.0264 1C10.9446 1.23008 10.894 1.47498 10.8857 1.73047C10.8304 3.44405 9.51383 4.85179 7.80762 5.02051L7.40625 5.05957C6.19946 5.17905 5.26842 6.1756 5.22949 7.3877C5.17412 9.10123 3.85657 10.509 2.15039 10.6777L1.75 10.7168C1.42581 10.7489 1.27253 10.8766 1 11.0224V9.93355C1.25455 9.84364 1.37214 9.74932 1.65137 9.72168L2.05176 9.68262C3.2585 9.56329 4.19128 8.56741 4.23047 7.35547C4.2855 5.64179 5.60146 4.23343 7.30762 4.06445L7.70898 4.02539C8.91583 3.90604 9.84768 2.91033 9.88672 1.69824C9.89442 1.45842 9.92964 1.22527 9.98438 1H11.0264ZM18.7764 1L20.0566 2.02441C20.7475 2.57716 21.3666 3.21506 21.8975 3.92285L22.4961 4.7207C22.6093 4.87165 22.7277 5.01841 22.8496 5.16211V6.61719C22.4303 6.2175 22.0434 5.7844 21.6953 5.32031L21.0967 4.52246C20.6164 3.88222 20.0576 3.3047 19.4326 2.80469L17.1758 1H18.7764ZM5.88281 1C5.73226 1.27655 5.63229 1.58554 5.59961 1.91602L5.56055 2.31738C5.39157 4.02354 3.98321 5.3395 2.26953 5.39453C1.7354 5.4118 1.39366 5.68863 1 6V4.8291C1.42231 4.62254 1.74102 4.41155 2.2373 4.39551C3.4494 4.35658 4.44595 3.42554 4.56543 2.21875L4.60449 1.81738C4.63267 1.53238 4.69804 1.25919 4.79102 1H5.88281Z" fill="#15C059"/>
<rect x="1.5" y="1.5" width="21" height="21" rx="2.5" stroke="#15C059"/>
</svg>
