<svg width="24" height="24" viewBox="0 0 24 24" fill="none" xmlns="http://www.w3.org/2000/svg">
<path d="M22.7588 12.5498L12.5898 22.7188L11.8828 22.0117L22.0518 11.8428L22.7588 12.5498ZM22.3379 2.36523L2.62109 22.082L1.91406 21.375L21.6309 1.6582L22.3379 2.36523ZM12.2891 1.8125L1.77734 12.3242L1.07031 11.6172L11.582 1.10547L12.2891 1.8125Z" fill="#D0D4DE"/>
<path d="M21 9.68359V1.99805H22V10.6836L22.9824 11.667L22.2754 12.374L12.8994 2.99805H3.70801L22.1514 21.4414L21.4443 22.1484L21.2939 21.998H11.5957L11.1406 22.4531L3 14.3125V21.998H2V13.3125L1.14062 12.4531L1.84766 11.7451L11.0996 20.998H20.2939L1.89258 2.59668L2.59961 1.88965L2.70801 1.99805H11.8994L11.8359 1.93457L12.543 1.22656L21 9.68359Z" fill="#15C059"/>
<rect x="1.5" y="1.5" width="21" height="21" rx="2.5" stroke="#15C059"/>
<path d="M12.1699 20.459H11.3486L8.28125 17.3916L12.1699 13.5029V20.459ZM6.68555 15.9287L2.79688 12.04L6.68555 8.15137V15.9287ZM17.3887 15.9287L13.5 12.04L17.3887 8.15137V15.9287ZM12.1699 10.5771L8.28125 6.68848L11.3486 3.62109H12.1699V10.5771Z" fill="#D0D4DE"/>
</svg>
