<svg width="24" height="24" viewBox="0 0 24 24" fill="none" xmlns="http://www.w3.org/2000/svg">
<path d="M7.36426 23H8.77832L23 8.77832V7.36426L7.36426 23ZM1.55664 21.7363C1.75151 22.0101 1.99087 22.2486 2.26465 22.4434L22.4443 2.26367C22.2497 1.99018 22.0107 1.75138 21.7373 1.55664L1.55664 21.7363ZM15.2217 1L1 15.2217V16.6357L16.6367 1H15.2217Z" fill="#D0D4DE"/>
<path d="M14.0674 20.1426L13.3604 20.8496L3.28906 10.7793L3.99707 10.0723L14.0674 20.1426ZM20.7891 19.793L20.0811 20.5L3.78906 4.20801L4.49609 3.50098L20.7891 19.793ZM20.9961 12.9287L20.2891 13.6357L10.6523 4L11.3604 3.29297L20.9961 12.9287Z" fill="#15C059"/>
<rect x="3.5" y="3.5" width="17" height="17" rx="1.5" stroke="#15C059"/>
<rect x="20" y="2" width="1" height="3" fill="#15C059"/>
<rect x="20" y="19" width="1" height="3" fill="#15C059"/>
<rect x="22" y="3" width="1" height="3" transform="rotate(90 22 3)" fill="#15C059"/>
<rect x="5" y="3" width="1" height="3" transform="rotate(90 5 3)" fill="#15C059"/>
<path d="M22 18.5H20V17.5H22V18.5ZM22 16.5H20V15.5H22V16.5ZM22 14.5H20V13.5H22V14.5ZM22 12.5H20V11.5H22V12.5ZM22 10.5H20V9.5H22V10.5ZM22 8.5H20V7.5H22V8.5ZM22 6.5H20V5.5H22V6.5Z" fill="#15C059"/>
<path d="M4 18.5H2V17.5H4V18.5ZM4 16.5H2V15.5H4V16.5ZM4 14.5H2V13.5H4V14.5ZM4 12.5H2V11.5H4V12.5ZM4 10.5H2V9.5H4V10.5ZM4 8.5H2V7.5H4V8.5ZM4 6.5H2V5.5H4V6.5Z" fill="#15C059"/>
<rect x="22" y="20" width="1" height="3" transform="rotate(90 22 20)" fill="#15C059"/>
<path d="M6.5 4H5.5V2H6.5V4ZM8.5 4H7.5V2H8.5V4ZM10.5 4H9.5V2H10.5V4ZM12.5 4H11.5V2H12.5V4ZM14.5 4H13.5V2H14.5V4ZM16.5 4H15.5V2H16.5V4ZM18.5 4H17.5V2H18.5V4Z" fill="#15C059"/>
<rect x="5" y="20" width="1" height="3" transform="rotate(90 5 20)" fill="#15C059"/>
<path d="M6.5 22H5.5V20H6.5V22ZM8.5 22H7.5V20H8.5V22ZM10.5 22H9.5V20H10.5V22ZM12.5 22H11.5V20H12.5V22ZM14.5 22H13.5V20H14.5V22ZM16.5 22H15.5V20H16.5V22ZM18.5 22H17.5V20H18.5V22Z" fill="#15C059"/>
<rect x="3" y="2" width="1" height="3" fill="#15C059"/>
<rect x="3" y="19" width="1" height="3" fill="#15C059"/>
<rect x="1.5" y="1.5" width="21" height="21" rx="2.5" stroke="#15C059"/>
</svg>
