<svg 
 xmlns="http://www.w3.org/2000/svg"
 xmlns:xlink="http://www.w3.org/1999/xlink"
 width="16px" height="16px">
<path fill-rule="evenodd"  fill="rgb(23, 204, 95)"
 d="M0.500,13.001 C0.226,13.001 0.003,12.864 0.003,12.694 L0.003,10.542 C0.003,10.372 0.226,10.235 0.500,10.235 C0.775,10.235 0.998,10.372 0.998,10.542 L0.998,12.694 C0.998,12.864 0.775,13.001 0.500,13.001 ZM0.003,7.583 L0.003,5.431 C0.003,5.262 0.226,5.124 0.500,5.124 C0.775,5.124 0.998,5.262 0.998,5.431 L0.998,7.583 C0.998,7.753 0.775,7.891 0.500,7.891 C0.226,7.891 0.003,7.753 0.003,7.583 ZM0.003,2.473 L0.003,0.321 C0.003,0.151 0.226,0.014 0.500,0.014 C0.775,0.014 0.998,0.151 0.998,0.321 L0.998,2.473 C0.998,2.643 0.775,2.780 0.500,2.780 C0.226,2.780 0.003,2.643 0.003,2.473 Z"/>
<path fill-rule="evenodd"  fill="rgb(255, 255, 255)"
 d="M11.780,2.564 L11.780,4.669 C11.780,4.835 11.646,4.970 11.480,4.970 C11.314,4.970 11.180,4.835 11.180,4.669 L11.180,2.564 C11.180,2.398 11.314,2.263 11.480,2.263 C11.646,2.263 11.780,2.398 11.780,2.564 ZM15.930,8.712 C15.885,8.757 15.824,8.782 15.760,8.782 L14.867,8.782 L14.814,8.843 L9.899,12.176 L9.500,12.632 L9.101,12.176 L4.186,8.843 L4.133,8.782 L3.240,8.782 C3.176,8.782 3.115,8.757 3.070,8.712 C3.025,8.667 3.000,8.606 3.000,8.542 L3.000,6.737 C3.000,6.604 3.107,6.497 3.240,6.497 L4.140,6.497 L4.140,0.541 C4.140,0.468 4.154,0.398 4.183,0.331 C4.210,0.266 4.248,0.208 4.298,0.159 C4.348,0.109 4.405,0.070 4.470,0.043 C4.537,0.014 4.607,0.000 4.680,0.000 L5.040,0.000 C5.206,0.000 5.340,0.135 5.340,0.301 C5.340,0.467 5.206,0.601 5.040,0.602 L4.740,0.602 L4.740,6.497 L14.260,6.497 L14.260,0.602 L5.880,0.602 C5.714,0.601 5.580,0.467 5.580,0.301 C5.580,0.135 5.714,0.000 5.880,0.000 L14.320,0.000 C14.393,0.000 14.463,0.014 14.530,0.043 C14.595,0.070 14.652,0.109 14.702,0.159 C14.752,0.208 14.790,0.266 14.817,0.331 C14.846,0.398 14.860,0.468 14.860,0.541 L14.860,6.497 L15.760,6.497 C15.892,6.497 16.000,6.604 16.000,6.737 L16.000,8.542 C16.000,8.606 15.975,8.667 15.930,8.712 ZM9.500,11.720 L9.682,11.604 L12.900,8.843 L4.984,8.843 L9.500,11.720 Z"/>
<path fill-rule="evenodd"  fill="rgb(23, 204, 95)"
 d="M9.766,11.971 C9.766,11.988 9.764,12.004 9.759,12.020 L9.759,12.021 C9.627,12.484 9.599,12.790 9.677,12.941 C9.701,12.987 9.742,13.026 9.801,13.057 C9.847,13.081 9.934,13.111 10.060,13.149 C10.217,13.195 10.337,13.238 10.420,13.277 C10.568,13.347 10.695,13.439 10.799,13.552 C10.890,13.652 10.937,13.754 10.940,13.856 C10.942,13.960 10.901,14.055 10.817,14.142 C10.763,14.197 10.684,14.254 10.580,14.313 C10.523,14.345 10.427,14.395 10.291,14.461 C10.106,14.551 9.968,14.624 9.876,14.678 C9.725,14.768 9.601,14.859 9.505,14.953 C9.394,15.063 9.313,15.181 9.263,15.309 C9.206,15.455 9.188,15.619 9.208,15.800 L9.208,15.800 L9.208,15.801 C9.218,15.899 9.147,15.988 9.049,15.999 C8.950,16.010 8.862,15.939 8.850,15.840 C8.800,15.390 8.935,15.008 9.254,14.695 C9.370,14.581 9.517,14.472 9.693,14.368 C9.793,14.308 9.940,14.231 10.134,14.136 C10.262,14.073 10.352,14.028 10.403,13.999 C10.477,13.957 10.529,13.920 10.559,13.889 C10.570,13.879 10.576,13.870 10.580,13.863 C10.579,13.861 10.577,13.858 10.575,13.853 C10.567,13.837 10.553,13.818 10.533,13.796 C10.461,13.717 10.373,13.653 10.267,13.604 C10.201,13.572 10.098,13.536 9.959,13.495 C9.810,13.451 9.702,13.412 9.635,13.377 C9.509,13.311 9.416,13.221 9.357,13.106 C9.293,12.982 9.266,12.824 9.276,12.632 C9.286,12.443 9.332,12.206 9.413,11.921 C9.438,11.834 9.522,11.779 9.611,11.792 C9.700,11.804 9.766,11.881 9.766,11.971 L9.766,11.971 Z"/>
</svg>
