<svg width="24" height="24" viewBox="0 0 24 24" fill="none" xmlns="http://www.w3.org/2000/svg">
<path d="M2 4.29728L4.5 2L22 2.0001M2 4.29728V22.0001H20M2 4.29728H20M20 22.0001V4.29728M20 22.0001L22 19.5001V2.0001M20 4.29728L22 2.0001" stroke="#15C059"/>
<path d="M19.5 14V19L15 21.5L10.5 19V14L15 11.5L19.5 14ZM11.4897 14.5497V18.4494L15 20.3997L18.5103 18.4494V14.5497L15 12.5993L11.4897 14.5497Z" fill="#15C059"/>
<path d="M11.5 14V19L7 21.5L2.5 19V14L7 11.5L11.5 14ZM3.48969 14.5497V18.4494L7 20.3997L10.5103 18.4494V14.5497L7 12.5993L3.48969 14.5497Z" fill="#15C059"/>
<path d="M15.5 7.30078V12.3008L11 14.8008L6.5 12.3008V7.30078L11 4.80078L15.5 7.30078ZM7.48969 7.85045V11.7502L11 13.7005L14.5103 11.7502V7.85045L11 5.90011L7.48969 7.85045Z" fill="#15C059"/>
<path d="M7.5 12.3008V7.30078L3 4.80078L2.5 5.07856V6.17791L3 5.90011L6.51031 7.85045V11.7502L3 13.7005L2.5 13.4227V14.523L3 14.8008L7.5 12.3008Z" fill="#15C059"/>
<path d="M14.5 12.3008L19 14.8008L19.5 14.523V13.4227L19 13.7005L15.4897 11.7502V7.85045L19 5.90011L19.5 6.17791V5.07856L19 4.80078L14.5 7.30078V12.3008Z" fill="#15C059"/>
</svg>
