<svg 
 xmlns="http://www.w3.org/2000/svg"
 xmlns:xlink="http://www.w3.org/1999/xlink"
 width="300.5px" height="147.5px">
<path fill-rule="evenodd"  fill="none"
 d="M-0.002,-0.001 L299.998,-0.001 L299.998,146.999 L-0.002,146.999 L-0.002,-0.001 Z"/>
<path fill-rule="evenodd"  fill="rgb(127, 127, 127)"
 d="M188.009,101.154 C190.148,100.005 191.162,98.012 190.968,96.129 C191.176,94.136 190.148,92.252 188.009,91.103 L141.921,66.433 C139.880,65.284 137.435,64.758 134.991,64.758 C132.547,64.758 130.089,65.284 128.049,66.433 L81.960,91.007 C79.821,92.156 78.905,94.149 79.002,96.032 C78.905,98.025 79.821,100.005 81.960,101.154 L128.049,125.741 C130.089,126.890 132.533,127.416 134.991,127.416 C137.435,127.416 139.880,126.890 141.921,125.741 L188.009,101.154 Z"/>
<path fill-rule="evenodd"  fill="rgb(89, 89, 89)"
 d="M136.998,129.000 C136.998,129.000 134.998,127.719 134.998,125.999 C134.998,124.220 135.998,121.999 135.998,121.999 L190.997,91.000 L191.997,100.000 L136.998,129.000 Z"/>
<path fill-rule="evenodd"  fill="rgb(109, 109, 109)"
 d="M188.009,96.154 C190.148,95.005 191.162,93.012 190.968,91.129 C191.176,89.136 190.148,87.252 188.009,86.103 L141.921,61.433 C139.880,60.284 137.435,59.758 134.991,59.758 C132.547,59.758 130.089,60.284 128.049,61.433 L81.960,86.007 C79.821,87.156 78.905,89.149 79.002,91.032 C78.905,93.025 79.821,95.005 81.960,96.154 L128.049,120.741 C130.089,121.890 132.533,122.416 134.991,122.416 C137.435,122.416 139.880,121.890 141.921,120.741 L188.009,96.154 Z"/>
<path fill-rule="evenodd"  opacity="0.302" fill="rgb(0, 0, 0)"
 d="M136.998,123.999 C136.998,123.999 134.998,122.719 134.998,120.999 C134.998,119.220 135.998,116.999 135.998,116.999 L190.997,86.000 L191.997,95.000 L136.998,123.999 Z"/>
<path fill-rule="evenodd"  fill="rgb(28, 227, 107)"
 d="M188.009,91.155 C190.148,90.005 191.162,88.012 190.968,86.129 C191.176,84.136 190.148,82.253 188.009,81.103 L141.921,56.433 C139.880,55.284 137.435,54.758 134.991,54.758 C132.547,54.758 130.089,55.284 128.049,56.433 L81.960,81.007 C79.821,82.156 78.905,84.149 79.002,86.032 C78.905,88.025 79.821,90.005 81.960,91.155 L128.049,115.741 C130.089,116.890 132.533,117.416 134.991,117.416 C137.435,117.416 139.880,116.890 141.921,115.741 L188.009,91.155 Z"/>
<path fill-rule="evenodd"  fill="rgb(127, 127, 127)"
 d="M188.009,92.154 C190.148,91.005 191.162,89.012 190.968,87.129 C191.176,85.136 190.148,83.252 188.009,82.103 L141.921,57.433 C139.880,56.284 137.435,55.758 134.991,55.758 C132.547,55.758 130.089,56.284 128.049,57.433 L81.960,82.007 C79.821,83.156 78.905,85.149 79.002,87.032 C78.905,89.025 79.821,91.005 81.960,92.154 L128.049,116.741 C130.089,117.890 132.533,118.416 134.991,118.416 C137.435,118.416 139.880,117.890 141.921,116.741 L188.009,92.154 Z"/>
<path fill-rule="evenodd"  fill="rgb(89, 89, 89)"
 d="M136.998,120.000 C136.998,120.000 134.998,118.719 134.998,116.999 C134.998,115.220 135.998,112.999 135.998,112.999 L190.997,82.000 L191.997,91.000 L136.998,120.000 Z"/>
<path fill-rule="evenodd"  fill="rgb(28, 227, 107)"
 d="M188.009,87.154 C190.148,86.005 191.162,84.012 190.968,82.129 C191.176,80.136 190.148,78.253 188.009,77.104 L141.921,52.434 C139.880,51.284 137.435,50.758 134.991,50.758 C132.547,50.758 130.089,51.284 128.049,52.434 L81.960,77.007 C79.821,78.156 78.905,80.149 79.002,82.032 C78.905,84.025 79.821,86.005 81.960,87.154 L128.049,111.741 C130.089,112.890 132.533,113.416 134.991,113.416 C137.435,113.416 139.880,112.890 141.921,111.741 L188.009,87.154 Z"/>
<path fill-rule="evenodd"  stroke="rgb(24, 199, 93)" stroke-width="1px" stroke-linecap="butt" stroke-linejoin="miter" fill="none"
 d="M178.574,86.212 C180.311,85.259 181.134,83.604 180.977,82.042 C181.146,80.388 180.311,78.824 178.574,77.871 L141.124,57.397 C139.466,56.443 137.480,56.006 135.495,56.006 C133.509,56.006 131.511,56.443 129.853,57.397 L92.404,77.791 C90.666,78.745 89.922,80.399 90.000,81.962 C89.922,83.615 90.666,85.259 92.404,86.212 L129.853,106.617 C131.511,107.571 133.497,108.008 135.495,108.008 C137.480,108.008 139.466,107.571 141.124,106.617 L178.574,86.212 Z"/>
<path fill-rule="evenodd"  fill="rgb(16, 142, 66)"
 d="M93.997,81.999 L133.997,102.999 L173.997,81.999 L133.997,59.999 L93.997,81.999 Z"/>
<path fill-rule="evenodd"  stroke="rgb(28, 227, 107)" stroke-width="1px" stroke-linecap="butt" stroke-linejoin="miter" fill="none"
 d="M135.455,62.250 L133.850,61.540 L130.105,63.195 L137.595,63.195 L138.932,64.142 L127.431,64.142 L125.023,65.324 L142.142,65.324 L144.282,66.743 L122.616,66.743 L120.743,67.926 L147.224,67.926 L149.899,69.345 L117.534,69.345 L115.127,70.764 L153.109,70.764 L155.248,72.183 L112.185,72.183 L110.312,73.366 L158.726,73.602 L160.866,74.785 L106.567,75.021 L104.427,76.204 L164.343,76.441 L166.215,77.623 L101.485,77.860 L99.345,79.279 L169.099,79.279 L171.238,80.698 L95.601,80.698 L94.632,81.881 L172.517,82.354 L171.774,83.773 L96.136,83.773 L98.008,84.956 L167.820,85.429 L165.681,86.848 L102.288,86.848 L104.160,88.030 L163.005,88.030 L161.400,89.449 L107.637,89.449 L109.242,90.632 L157.121,90.868 L155.248,92.288 L112.987,92.288 L114.860,93.470 L151.772,93.470 L149.899,94.889 L118.336,95.126 L120.208,96.308 L145.619,96.545 L143.747,97.964 L124.756,97.964 L126.628,99.383 L140.270,99.147 L138.665,100.566 L130.641,100.802 L133.850,102.458 L135.723,101.748 "/>
<path fill-rule="evenodd"  stroke="rgb(127, 127, 127)" stroke-width="1px" stroke-dasharray="4, 2" stroke-linecap="butt" stroke-linejoin="miter" fill="none"
 d="M194.335,80.668 C196.452,79.478 197.427,77.466 197.197,75.587 C197.367,73.590 196.303,71.726 194.143,70.619 L153.628,48.720 C151.565,47.610 149.111,47.131 146.668,47.178 C144.223,47.225 141.776,47.798 139.758,48.986 "/>
<path fill-rule="evenodd"  fill="rgb(183, 183, 183)"
 d="M184.008,31.342 C184.008,31.342 183.984,50.500 184.008,50.828 C184.034,51.156 184.437,52.067 185.783,53.399 C187.129,54.732 197.686,66.586 197.850,66.771 C198.013,66.956 198.180,67.284 198.737,67.285 C199.295,67.286 199.767,66.823 200.157,66.428 C200.546,66.033 212.318,52.887 212.755,52.371 C213.193,51.855 213.639,51.041 213.642,49.628 C213.646,48.215 213.642,31.342 213.642,31.342 L184.008,31.342 Z"/>
<path fill-rule="evenodd"  fill="rgb(207, 207, 207)"
 d="M185.605,53.057 C185.605,53.057 186.444,54.071 188.090,54.771 C190.709,55.885 195.130,56.843 199.624,56.485 C206.942,55.903 211.512,54.428 211.512,54.428 L199.447,67.456 L197.673,67.285 L185.428,53.399 L185.605,53.057 Z"/>
<path fill-rule="evenodd"  fill="rgb(127, 127, 127)"
 d="M207.964,30.999 L207.964,55.114 L199.270,67.456 L199.624,67.456 C199.624,67.456 213.418,51.957 213.820,51.171 C214.222,50.385 213.820,30.999 213.820,30.999 L207.964,30.999 Z"/>
<path fill-rule="evenodd"  fill="rgb(249, 249, 249)"
 d="M187.913,31.342 L187.913,54.599 L198.559,67.285 L194.833,56.314 L195.010,31.171 L187.913,31.342 Z"/>
<path fill-rule="evenodd"  fill="rgb(176, 173, 173)"
 d="M175.999,20.000 L221.999,20.000 C221.999,20.000 221.999,23.343 221.999,25.000 L221.999,28.000 C221.999,29.657 220.656,31.000 218.999,31.000 L178.999,31.000 C177.343,31.000 175.999,29.657 175.999,28.000 L175.999,25.000 C175.999,23.343 175.999,20.000 175.999,20.000 Z"/>
</svg>
