<svg 
 xmlns="http://www.w3.org/2000/svg"
 xmlns:xlink="http://www.w3.org/1999/xlink"
 width="301px" height="148px">
<path fill-rule="evenodd"  fill="none"
 d="M-0.001,-0.001 L299.998,-0.001 L299.998,146.999 L-0.001,146.999 L-0.001,-0.001 Z"/>
<path fill-rule="evenodd"  stroke="rgb(127, 127, 127)" stroke-width="1px" stroke-dasharray="4, 2" stroke-linecap="butt" stroke-linejoin="miter" fill="none"
 d="M187.010,110.420 C189.148,109.270 190.162,107.277 189.968,105.394 C190.176,103.401 189.148,101.517 187.010,100.368 L140.921,75.698 C138.880,74.549 136.436,74.023 133.992,74.023 C131.547,74.023 129.090,74.549 127.049,75.698 L80.960,100.272 C78.822,101.421 77.905,103.415 78.002,105.297 C77.905,107.290 78.822,109.270 80.960,110.420 L127.049,135.006 C129.090,136.156 131.534,136.682 133.992,136.682 C136.436,136.682 138.880,136.156 140.921,135.006 L187.010,110.420 Z"/>
<path fill-rule="evenodd"  stroke="rgb(127, 127, 127)" stroke-width="1px" stroke-dasharray="4, 2" stroke-linecap="butt" stroke-linejoin="miter" fill="none"
 d="M78.997,40.999 L78.997,104.999 "/>
<path fill-rule="evenodd"  stroke="rgb(127, 127, 127)" stroke-width="1px" stroke-dasharray="4, 2" stroke-linecap="butt" stroke-linejoin="miter" fill="none"
 d="M189.998,40.999 L189.998,104.999 "/>
<path fill-rule="evenodd"  stroke="rgb(127, 127, 127)" stroke-width="1px" stroke-dasharray="4, 2" stroke-linecap="butt" stroke-linejoin="miter" fill="none"
 d="M134.997,6.998 L134.997,69.998 "/>
<path fill-rule="evenodd"  stroke="rgb(28, 227, 107)" stroke-width="2px" stroke-linecap="butt" stroke-linejoin="miter" fill="rgb(127, 127, 127)"
 d="M187.011,80.155 C189.149,79.005 190.163,77.012 189.969,75.129 C190.176,73.136 189.149,71.252 187.011,70.103 L140.921,45.433 C138.881,44.284 136.436,43.758 133.993,43.758 C131.548,43.758 129.090,44.284 127.049,45.433 L80.961,70.007 C78.822,71.155 77.906,73.149 78.002,75.032 C77.906,77.025 78.822,79.005 80.961,80.155 L127.049,104.741 C129.090,105.891 131.534,106.416 133.993,106.416 C136.436,106.416 138.881,105.891 140.921,104.741 L187.011,80.155 Z"/>
<path fill-rule="evenodd"  stroke="rgb(109, 109, 109)" stroke-width="1px" stroke-linecap="butt" stroke-linejoin="miter" fill="none"
 d="M175.685,79.051 C177.365,78.133 178.162,76.542 178.010,75.040 C178.172,73.449 177.365,71.947 175.685,71.029 L139.458,51.343 C137.853,50.426 135.932,50.005 134.010,50.005 C132.090,50.005 130.157,50.426 128.553,51.343 L92.326,70.953 C90.646,71.869 89.926,73.460 90.000,74.963 C89.926,76.553 90.646,78.133 92.326,79.051 L128.553,98.670 C130.157,99.588 132.079,100.008 134.010,100.008 C135.932,100.008 137.853,99.588 139.458,98.670 L175.685,79.051 Z"/>
<path fill-rule="evenodd"  stroke="rgb(109, 109, 109)" stroke-width="1px" stroke-linecap="butt" stroke-linejoin="miter" fill="none"
 d="M181.335,80.118 C183.244,79.072 184.149,77.259 183.976,75.546 C184.161,73.733 183.244,72.019 181.335,70.974 L140.182,48.531 C138.360,47.485 136.177,47.007 133.995,47.007 C131.812,47.007 129.617,47.485 127.796,48.531 L86.643,70.886 C84.734,71.931 83.915,73.745 84.002,75.458 C83.915,77.271 84.734,79.072 86.643,80.118 L127.796,102.485 C129.617,103.530 131.800,104.009 133.995,104.009 C136.177,104.009 138.360,103.530 140.182,102.485 L181.335,80.118 Z"/>
<path fill-rule="evenodd"  stroke="rgb(109, 109, 109)" stroke-width="1px" stroke-linecap="butt" stroke-linejoin="miter" fill="none"
 d="M136.456,55.249 L134.851,54.540 L131.106,56.196 L138.596,56.196 L139.933,57.142 L128.431,57.142 L126.024,58.324 L143.143,58.324 L145.282,59.744 L123.617,59.744 L121.744,60.926 L148.225,60.926 L150.900,62.345 L118.535,62.345 L116.128,63.764 L154.110,63.764 L156.250,65.183 L113.186,65.183 L111.313,66.366 L159.726,66.602 L161.866,67.785 L107.568,68.022 L105.428,69.204 L165.344,69.441 L167.216,70.623 L102.486,70.859 L100.346,72.279 L170.100,72.279 L172.239,73.698 L96.601,73.698 L95.633,74.880 L173.518,75.354 L172.774,76.772 L97.137,76.772 L99.009,77.955 L168.821,78.428 L166.681,79.847 L103.288,79.847 L105.161,81.030 L164.006,81.030 L162.401,82.449 L108.638,82.449 L110.243,83.632 L158.122,83.868 L156.250,85.287 L113.987,85.287 L115.860,86.470 L152.773,86.470 L150.900,87.889 L119.337,88.126 L121.210,89.308 L146.620,89.545 L144.748,90.964 L125.757,90.964 L127.629,92.383 L141.270,92.146 L139.666,93.566 L131.641,93.802 L134.851,95.458 L136.724,94.748 "/>
<path fill-rule="evenodd"  fill="rgb(255, 255, 255)"
 d="M216.997,76.999 L203.998,76.999 L203.998,80.999 L196.996,74.999 L203.998,68.999 L203.998,72.999 L216.997,72.999 L216.997,76.999 Z"/>
<path fill-rule="evenodd"  stroke="rgb(23, 204, 95)" stroke-width="2px" stroke-linecap="butt" stroke-linejoin="miter" fill="none"
 d="M187.999,76.000 L176.999,76.000 "/>
<path fill-rule="evenodd"  fill="rgb(255, 255, 255)"
 d="M248.999,76.461 C248.999,76.582 248.970,76.696 248.922,76.800 C248.626,79.407 247.419,81.853 245.475,83.712 L245.475,83.713 C245.336,83.867 245.145,83.938 244.944,83.965 C244.941,83.966 244.938,83.969 244.935,83.970 C244.878,83.985 244.822,83.967 244.764,83.971 C244.716,83.967 244.669,83.986 244.621,83.975 C244.618,83.974 244.617,83.971 244.614,83.971 C244.425,83.949 244.243,83.889 244.103,83.753 L243.246,82.916 L243.246,82.915 C243.084,82.759 242.994,82.545 242.994,82.321 C242.994,82.098 243.084,81.884 243.246,81.727 C243.584,81.398 244.126,81.398 244.463,81.727 L244.762,82.018 C245.973,80.681 246.784,79.049 247.111,77.298 L246.427,77.298 C245.956,77.300 245.573,76.926 245.570,76.461 C245.570,75.999 245.953,75.624 246.427,75.624 L247.280,75.624 C247.280,75.599 247.284,75.574 247.284,75.548 C247.284,73.102 246.372,70.864 244.865,69.128 L244.463,69.520 C244.246,69.733 243.929,69.817 243.632,69.738 C243.336,69.662 243.104,69.435 243.023,69.144 C242.944,68.854 243.029,68.544 243.246,68.332 L243.645,67.942 C242.094,66.666 240.151,65.825 238.013,65.621 L238.013,67.252 C238.013,67.715 237.618,68.089 237.130,68.089 C236.643,68.089 236.249,67.715 236.249,67.252 L236.249,65.608 C234.007,65.765 231.965,66.612 230.350,67.941 L230.750,68.332 C230.912,68.488 231.003,68.703 231.003,68.926 C231.003,69.150 230.912,69.364 230.750,69.521 C230.413,69.849 229.871,69.849 229.533,69.521 L229.129,69.127 C227.621,70.862 226.709,73.101 226.709,75.549 C226.709,75.574 226.712,75.599 226.713,75.624 L227.570,75.624 C228.042,75.624 228.426,75.999 228.426,76.461 C228.426,76.923 228.043,77.298 227.570,77.298 L226.881,77.298 C227.210,79.050 228.020,80.683 229.233,82.020 L229.533,81.727 L229.533,81.727 C229.751,81.515 230.067,81.432 230.364,81.510 C230.661,81.587 230.893,81.813 230.973,82.104 C231.052,82.394 230.966,82.704 230.750,82.915 L229.893,83.752 C229.631,84.007 229.248,84.059 228.932,83.918 C228.775,83.885 228.623,83.824 228.501,83.705 C226.550,81.821 225.410,79.388 225.108,76.847 C225.045,76.730 224.999,76.603 224.999,76.461 C224.999,76.397 225.022,76.341 225.036,76.281 C224.918,74.540 225.196,72.762 225.919,71.083 C227.784,66.757 232.164,63.957 236.997,64.000 C243.589,64.000 248.946,69.155 248.999,75.548 C248.998,75.792 248.977,76.034 248.961,76.277 C248.975,76.338 248.999,76.396 248.999,76.461 ZM235.661,74.017 C236.404,73.665 237.187,73.400 237.993,73.230 L238.850,73.003 C239.553,72.830 240.259,72.666 240.967,72.510 L241.661,72.351 L241.936,72.291 C242.290,72.214 242.657,72.364 242.850,72.666 C243.043,72.966 243.020,73.354 242.792,73.631 C242.792,73.673 242.707,73.748 242.621,73.841 L242.167,74.394 C241.687,74.963 241.206,75.532 240.744,76.068 L240.539,76.302 C239.874,77.148 239.115,77.918 238.275,78.596 C237.679,78.960 236.955,79.060 236.281,78.872 C235.608,78.686 235.046,78.226 234.735,77.608 C234.060,76.354 234.461,74.799 235.661,74.017 ZM236.270,76.830 C236.355,77.032 236.527,77.188 236.740,77.255 C236.953,77.323 237.185,77.296 237.376,77.181 C238.052,76.574 238.681,75.916 239.253,75.214 L239.459,74.988 L239.887,74.485 L239.296,74.628 L238.438,74.854 C237.810,74.999 237.193,75.192 236.596,75.431 C236.148,75.751 236.008,76.349 236.270,76.830 Z"/>
<path fill-rule="evenodd"  stroke="rgb(127, 127, 127)" stroke-width="1px" stroke-dasharray="4, 2" stroke-linecap="butt" stroke-linejoin="miter" fill="none"
 d="M134.997,68.998 L134.997,136.998 "/>
<path fill-rule="evenodd"  stroke="rgb(127, 127, 127)" stroke-width="1px" stroke-dasharray="4, 2" stroke-linecap="butt" stroke-linejoin="miter" fill="none"
 d="M187.010,43.419 C189.148,42.270 190.162,40.277 189.968,38.394 C190.176,36.401 189.148,34.517 187.010,33.368 L140.921,8.698 C138.880,7.549 136.436,7.023 133.992,7.023 C131.547,7.023 129.090,7.549 127.049,8.698 L80.960,33.272 C78.822,34.421 77.905,36.414 78.002,38.297 C77.905,40.290 78.822,42.270 80.960,43.419 L127.049,68.006 C129.090,69.155 131.534,69.682 133.992,69.682 C136.436,69.682 138.880,69.155 140.921,68.006 L187.010,43.419 Z"/>
</svg>
