<svg 
 xmlns="http://www.w3.org/2000/svg"
 xmlns:xlink="http://www.w3.org/1999/xlink"
 width="300px" height="147px">
<path fill-rule="evenodd"  fill="none"
 d="M-0.001,-0.001 L299.999,-0.001 L299.999,146.999 L-0.001,146.999 L-0.001,-0.001 Z"/>
<path fill-rule="evenodd"  fill="rgb(23, 204, 95)"
 d="M173.998,30.999 L224.997,30.999 C227.759,30.999 229.998,33.237 229.998,35.999 L229.998,35.999 C229.998,38.761 227.759,40.999 224.997,40.999 L129.998,40.999 L173.998,30.999 Z"/>
<path fill-rule="evenodd"  fill="rgb(16, 142, 66)"
 d="M149.255,36.999 L224.998,36.999 C229.091,36.999 229.171,33.244 229.171,33.244 C229.171,33.244 229.998,34.981 229.998,35.999 C229.998,38.761 227.759,40.999 224.998,40.999 L152.998,40.999 C150.236,40.999 125.999,41.000 125.999,41.000 L149.255,36.999 Z"/>
<path fill-rule="evenodd"  fill="rgb(23, 204, 95)"
 d="M74.997,30.999 L169.997,30.999 L125.998,40.999 L74.997,40.999 C72.236,40.999 69.997,38.761 69.997,35.999 L69.997,35.999 C69.997,33.237 72.236,30.999 74.997,30.999 Z"/>
<path fill-rule="evenodd"  fill="rgb(16, 142, 66)"
 d="M74.997,36.999 L165.997,36.999 L145.997,40.999 L74.997,40.999 C72.236,40.999 69.997,38.761 69.997,35.999 C69.997,34.917 70.925,33.097 70.925,33.097 C70.925,33.097 71.085,36.999 74.997,36.999 Z"/>
<path fill-rule="evenodd"  fill="rgb(23, 204, 95)"
 d="M173.998,40.999 L224.997,40.999 C227.759,40.999 229.998,43.237 229.998,45.999 L229.998,45.999 C229.998,48.761 227.759,50.999 224.997,50.999 L129.998,50.999 L173.998,40.999 Z"/>
<path fill-rule="evenodd"  fill="rgb(16, 142, 66)"
 d="M149.255,46.999 L224.998,46.999 C229.091,46.999 229.171,43.244 229.171,43.244 C229.171,43.244 229.998,44.981 229.998,45.999 C229.998,48.761 227.759,50.999 224.998,50.999 L152.998,50.999 C150.236,50.999 125.999,51.000 125.999,51.000 L149.255,46.999 Z"/>
<path fill-rule="evenodd"  fill="rgb(23, 204, 95)"
 d="M74.997,40.999 L169.997,40.999 L125.998,50.999 L74.997,50.999 C72.236,50.999 69.997,48.761 69.997,45.999 L69.997,45.999 C69.997,43.237 72.236,40.999 74.997,40.999 Z"/>
<path fill-rule="evenodd"  fill="rgb(16, 142, 66)"
 d="M74.997,46.999 L165.997,46.999 L145.997,50.999 L74.997,50.999 C72.236,50.999 69.997,48.761 69.997,45.999 C69.997,44.917 70.925,43.097 70.925,43.097 C70.925,43.097 71.085,46.999 74.997,46.999 Z"/>
<path fill-rule="evenodd"  fill="rgb(23, 204, 95)"
 d="M173.998,50.999 L224.997,50.999 C227.759,50.999 229.998,53.237 229.998,55.999 L229.998,55.999 C229.998,58.760 227.759,60.999 224.997,60.999 L129.998,60.999 L173.998,50.999 Z"/>
<path fill-rule="evenodd"  fill="rgb(16, 142, 66)"
 d="M149.255,56.999 L224.998,56.999 C229.091,56.999 229.171,53.244 229.171,53.244 C229.171,53.244 229.998,54.980 229.998,55.999 C229.998,58.760 227.759,60.999 224.998,60.999 L152.998,60.999 C150.236,60.999 125.999,61.000 125.999,61.000 L149.255,56.999 Z"/>
<path fill-rule="evenodd"  fill="rgb(23, 204, 95)"
 d="M74.997,50.999 L169.997,50.999 L125.998,60.999 L74.997,60.999 C72.236,60.999 69.997,58.760 69.997,55.999 L69.997,55.999 C69.997,53.237 72.236,50.999 74.997,50.999 Z"/>
<path fill-rule="evenodd"  fill="rgb(16, 142, 66)"
 d="M74.997,56.999 L165.997,56.999 L145.997,60.999 L74.997,60.999 C72.236,60.999 69.997,58.760 69.997,55.999 C69.997,54.917 70.925,53.097 70.925,53.097 C70.925,53.097 71.085,56.999 74.997,56.999 Z"/>
<path fill-rule="evenodd"  fill="rgb(23, 204, 95)"
 d="M173.998,60.999 L224.997,60.999 C227.759,60.999 229.998,63.237 229.998,65.999 L229.998,65.999 C229.998,68.760 227.759,70.999 224.997,70.999 L129.998,70.999 L173.998,60.999 Z"/>
<path fill-rule="evenodd"  fill="rgb(16, 142, 66)"
 d="M149.255,66.999 L224.998,66.999 C229.091,66.999 229.171,63.244 229.171,63.244 C229.171,63.244 229.998,64.980 229.998,65.999 C229.998,68.760 227.759,70.999 224.998,70.999 L152.998,70.999 C150.236,70.999 125.999,71.000 125.999,71.000 L149.255,66.999 Z"/>
<path fill-rule="evenodd"  fill="rgb(23, 204, 95)"
 d="M74.997,60.999 L169.997,60.999 L125.998,70.999 L74.997,70.999 C72.236,70.999 69.997,68.760 69.997,65.999 L69.997,65.999 C69.997,63.237 72.236,60.999 74.997,60.999 Z"/>
<path fill-rule="evenodd"  fill="rgb(16, 142, 66)"
 d="M74.997,66.999 L165.997,66.999 L145.997,70.999 L74.997,70.999 C72.236,70.999 69.997,68.760 69.997,65.999 C69.997,64.917 70.925,63.097 70.925,63.097 C70.925,63.097 71.085,66.999 74.997,66.999 Z"/>
<path fill-rule="evenodd"  fill="rgb(23, 204, 95)"
 d="M173.998,70.999 L224.997,70.999 C227.759,70.999 229.998,73.237 229.998,75.999 L229.998,75.999 C229.998,78.760 227.759,80.999 224.997,80.999 L129.998,80.999 L173.998,70.999 Z"/>
<path fill-rule="evenodd"  fill="rgb(16, 142, 66)"
 d="M149.255,76.999 L224.998,76.999 C229.091,76.999 229.171,73.244 229.171,73.244 C229.171,73.244 229.998,74.980 229.998,75.999 C229.998,78.760 227.759,80.999 224.998,80.999 L152.998,80.999 C150.236,80.999 125.999,81.000 125.999,81.000 L149.255,76.999 Z"/>
<path fill-rule="evenodd"  fill="rgb(23, 204, 95)"
 d="M74.997,70.999 L169.997,70.999 L125.998,80.999 L74.997,80.999 C72.236,80.999 69.997,78.760 69.997,75.999 L69.997,75.999 C69.997,73.237 72.236,70.999 74.997,70.999 Z"/>
<path fill-rule="evenodd"  fill="rgb(16, 142, 66)"
 d="M74.997,76.999 L165.997,76.999 L145.997,80.999 L74.997,80.999 C72.236,80.999 69.997,78.760 69.997,75.999 C69.997,74.917 70.925,73.097 70.925,73.097 C70.925,73.097 71.085,76.999 74.997,76.999 Z"/>
<path fill-rule="evenodd"  fill="rgb(23, 204, 95)"
 d="M173.998,80.999 L224.997,80.999 C227.759,80.999 229.998,83.237 229.998,85.999 L229.998,85.999 C229.998,88.760 227.759,90.999 224.997,90.999 L129.998,90.999 L173.998,80.999 Z"/>
<path fill-rule="evenodd"  fill="rgb(16, 142, 66)"
 d="M149.255,86.999 L224.998,86.999 C229.091,86.999 229.171,83.244 229.171,83.244 C229.171,83.244 229.998,84.980 229.998,85.999 C229.998,88.760 227.759,90.999 224.998,90.999 L152.998,90.999 C150.236,90.999 125.999,91.000 125.999,91.000 L149.255,86.999 Z"/>
<path fill-rule="evenodd"  fill="rgb(23, 204, 95)"
 d="M74.997,80.999 L169.997,80.999 L125.998,90.999 L74.997,90.999 C72.236,90.999 69.997,88.760 69.997,85.999 L69.997,85.999 C69.997,83.237 72.236,80.999 74.997,80.999 Z"/>
<path fill-rule="evenodd"  fill="rgb(16, 142, 66)"
 d="M74.997,86.999 L165.997,86.999 L145.997,90.999 L74.997,90.999 C72.236,90.999 69.997,88.760 69.997,85.999 C69.997,84.917 70.925,83.097 70.925,83.097 C70.925,83.097 71.085,86.999 74.997,86.999 Z"/>
<path fill-rule="evenodd"  fill="rgb(23, 204, 95)"
 d="M173.998,90.999 L224.997,90.999 C227.759,90.999 229.998,93.237 229.998,95.999 L229.998,95.999 C229.998,98.760 227.759,100.999 224.997,100.999 L129.998,100.999 L173.998,90.999 Z"/>
<path fill-rule="evenodd"  fill="rgb(16, 142, 66)"
 d="M149.255,96.999 L224.998,96.999 C229.091,96.999 229.171,93.244 229.171,93.244 C229.171,93.244 229.998,94.980 229.998,95.999 C229.998,98.760 227.759,100.999 224.998,100.999 L152.998,100.999 C150.236,100.999 125.999,101.000 125.999,101.000 L149.255,96.999 Z"/>
<path fill-rule="evenodd"  fill="rgb(23, 204, 95)"
 d="M74.997,90.999 L169.997,90.999 L125.998,100.999 L74.997,100.999 C72.236,100.999 69.997,98.760 69.997,95.999 L69.997,95.999 C69.997,93.237 72.236,90.999 74.997,90.999 Z"/>
<path fill-rule="evenodd"  fill="rgb(16, 142, 66)"
 d="M74.997,96.999 L165.997,96.999 L145.997,100.999 L74.997,100.999 C72.236,100.999 69.997,98.760 69.997,95.999 C69.997,94.917 70.925,93.097 70.925,93.097 C70.925,93.097 71.085,96.999 74.997,96.999 Z"/>
<path fill-rule="evenodd"  fill="rgb(23, 204, 95)"
 d="M173.998,100.999 L224.997,100.999 C227.759,100.999 229.998,103.237 229.998,105.999 L229.998,105.999 C229.998,108.760 227.759,110.999 224.997,110.999 L129.998,110.999 L173.998,100.999 Z"/>
<path fill-rule="evenodd"  fill="rgb(16, 142, 66)"
 d="M149.255,106.999 L224.998,106.999 C229.091,106.999 229.171,103.244 229.171,103.244 C229.171,103.244 229.998,104.980 229.998,105.999 C229.998,108.760 227.759,110.999 224.998,110.999 L152.998,110.999 C150.236,110.999 125.999,111.000 125.999,111.000 L149.255,106.999 Z"/>
<path fill-rule="evenodd"  fill="rgb(23, 204, 95)"
 d="M74.997,100.999 L169.997,100.999 L125.998,110.999 L74.997,110.999 C72.236,110.999 69.997,108.760 69.997,105.999 L69.997,105.999 C69.997,103.237 72.236,100.999 74.997,100.999 Z"/>
<path fill-rule="evenodd"  fill="rgb(16, 142, 66)"
 d="M74.997,106.999 L165.997,106.999 L145.997,110.999 L74.997,110.999 C72.236,110.999 69.997,108.760 69.997,105.999 C69.997,104.917 70.925,103.097 70.925,103.097 C70.925,103.097 71.085,106.999 74.997,106.999 Z"/>
<path fill-rule="evenodd"  fill="rgb(23, 204, 95)"
 d="M173.998,110.999 L224.997,110.999 C227.759,110.999 229.998,113.238 229.998,115.999 L229.998,115.999 C229.998,118.761 227.759,120.999 224.997,120.999 L129.998,120.999 L173.998,110.999 Z"/>
<path fill-rule="evenodd"  fill="rgb(16, 142, 66)"
 d="M149.255,116.999 L224.998,116.999 C229.091,116.999 229.171,113.244 229.171,113.244 C229.171,113.244 229.998,114.981 229.998,115.999 C229.998,118.761 227.759,120.999 224.998,120.999 L152.998,120.999 C150.236,120.999 125.999,121.000 125.999,121.000 L149.255,116.999 Z"/>
<path fill-rule="evenodd"  fill="rgb(23, 204, 95)"
 d="M74.997,110.999 L169.997,110.999 L125.998,120.999 L74.997,120.999 C72.236,120.999 69.997,118.761 69.997,115.999 L69.997,115.999 C69.997,113.238 72.236,110.999 74.997,110.999 Z"/>
<path fill-rule="evenodd"  fill="rgb(16, 142, 66)"
 d="M74.997,116.999 L165.997,116.999 L145.997,120.999 L74.997,120.999 C72.236,120.999 69.997,118.761 69.997,115.999 C69.997,114.917 70.925,113.098 70.925,113.098 C70.925,113.098 71.085,116.999 74.997,116.999 Z"/>
<path fill-rule="evenodd"  fill="rgb(23, 204, 95)"
 d="M173.998,120.999 L224.997,120.999 C227.759,120.999 229.998,123.237 229.998,125.999 L229.998,125.999 C229.998,128.761 227.759,130.999 224.997,130.999 L129.998,130.999 L173.998,120.999 Z"/>
<path fill-rule="evenodd"  fill="rgb(16, 142, 66)"
 d="M149.255,126.999 L224.998,126.999 C229.091,126.999 229.171,123.244 229.171,123.244 C229.171,123.244 229.998,124.981 229.998,125.999 C229.998,128.761 227.759,130.999 224.998,130.999 L152.998,130.999 C150.236,130.999 125.999,131.000 125.999,131.000 L149.255,126.999 Z"/>
<path fill-rule="evenodd"  fill="rgb(23, 204, 95)"
 d="M74.997,120.999 L169.997,120.999 L125.998,130.999 L74.997,130.999 C72.236,130.999 69.997,128.761 69.997,125.999 L69.997,125.999 C69.997,123.237 72.236,120.999 74.997,120.999 Z"/>
<path fill-rule="evenodd"  fill="rgb(16, 142, 66)"
 d="M74.997,126.999 L165.997,126.999 L145.997,130.999 L74.997,130.999 C72.236,130.999 69.997,128.761 69.997,125.999 C69.997,124.917 70.925,123.098 70.925,123.098 C70.925,123.098 71.085,126.999 74.997,126.999 Z"/>
<path fill-rule="evenodd"  fill="rgb(255, 255, 255)"
 d="M161.999,17.461 C161.999,17.583 161.970,17.696 161.922,17.800 C161.626,20.408 160.419,22.854 158.475,24.713 L158.475,24.714 C158.336,24.868 158.145,24.938 157.944,24.965 C157.941,24.966 157.938,24.970 157.935,24.971 C157.878,24.986 157.822,24.967 157.764,24.971 C157.716,24.967 157.670,24.987 157.622,24.975 C157.619,24.974 157.617,24.972 157.614,24.971 C157.425,24.949 157.243,24.890 157.103,24.753 L156.247,23.917 L156.247,23.916 C156.085,23.759 155.994,23.545 155.994,23.321 C155.994,23.098 156.085,22.884 156.247,22.727 C156.584,22.399 157.126,22.399 157.464,22.727 L157.762,23.019 C158.974,21.682 159.784,20.050 160.112,18.298 L159.427,18.298 C158.957,18.300 158.573,17.926 158.570,17.461 C158.570,16.999 158.953,16.624 159.427,16.624 L160.280,16.624 C160.280,16.599 160.284,16.574 160.284,16.549 C160.284,14.102 159.373,11.864 157.865,10.129 L157.464,10.521 C157.246,10.733 156.929,10.817 156.633,10.738 C156.336,10.662 156.104,10.436 156.023,10.145 C155.944,9.854 156.029,9.545 156.247,9.333 L156.646,8.943 C155.094,7.666 153.151,6.825 151.013,6.622 L151.013,8.252 C151.013,8.715 150.618,9.089 150.130,9.089 C149.643,9.089 149.249,8.715 149.249,8.252 L149.249,6.609 C147.007,6.765 144.965,7.613 143.350,8.941 L143.750,9.332 C143.912,9.489 144.003,9.703 144.003,9.927 C144.003,10.150 143.912,10.365 143.750,10.522 C143.412,10.850 142.871,10.850 142.533,10.522 L142.129,10.127 C140.621,11.863 139.709,14.102 139.709,16.549 C139.709,16.574 139.713,16.599 139.713,16.624 L140.570,16.624 C141.043,16.624 141.427,16.999 141.427,17.461 C141.427,17.923 141.044,18.298 140.570,18.298 L139.881,18.298 C140.209,20.051 141.020,21.684 142.233,23.021 L142.533,22.728 L142.533,22.727 C142.751,22.515 143.067,22.432 143.364,22.510 C143.661,22.588 143.893,22.814 143.973,23.104 C144.053,23.394 143.967,23.704 143.750,23.916 L142.893,24.753 C142.631,25.007 142.249,25.059 141.932,24.918 C141.775,24.886 141.623,24.825 141.501,24.705 C139.550,22.822 138.410,20.388 138.108,17.847 C138.045,17.730 138.000,17.603 137.999,17.461 C137.999,17.397 138.022,17.341 138.036,17.281 C137.919,15.540 138.196,13.762 138.920,12.084 C140.785,7.757 145.164,4.957 149.997,5.000 C156.589,5.000 161.946,10.155 161.999,16.548 C161.999,16.793 161.977,17.035 161.961,17.278 C161.975,17.338 161.999,17.396 161.999,17.461 ZM148.661,15.017 C149.404,14.665 150.187,14.401 150.993,14.230 L151.851,14.003 C152.553,13.830 153.259,13.666 153.968,13.510 L154.661,13.351 L154.936,13.292 C155.290,13.215 155.657,13.364 155.850,13.666 C156.043,13.967 156.020,14.355 155.793,14.632 C155.793,14.674 155.707,14.749 155.621,14.841 L155.167,15.394 C154.687,15.963 154.207,16.532 153.744,17.068 L153.539,17.303 C152.874,18.149 152.115,18.918 151.276,19.596 C150.680,19.960 149.955,20.060 149.281,19.872 C148.608,19.686 148.047,19.227 147.736,18.609 C147.060,17.355 147.461,15.799 148.661,15.017 ZM149.270,17.830 C149.355,18.032 149.527,18.188 149.740,18.255 C149.953,18.324 150.186,18.296 150.376,18.181 C151.052,17.574 151.681,16.916 152.253,16.214 L152.458,15.988 L152.886,15.486 L152.296,15.628 L151.439,15.854 C150.810,15.999 150.194,16.192 149.596,16.432 C149.147,16.751 149.008,17.349 149.270,17.830 Z"/>
<path fill-rule="evenodd"  fill="rgb(255, 255, 255)"
 d="M125.999,5.000 L126.999,5.000 L126.999,25.000 L125.999,25.000 L125.999,5.000 Z"/>
<path fill-rule="evenodd"  fill="rgb(255, 255, 255)"
 d="M172.999,5.000 L173.999,5.000 L173.999,25.000 L172.999,25.000 L172.999,5.000 Z"/>
<path fill-rule="evenodd"  fill="rgb(255, 255, 255)"
 d="M135.538,16.070 L131.594,16.070 L132.351,17.012 C132.528,17.240 132.525,17.601 132.346,17.825 C132.166,18.048 131.875,18.051 131.692,17.831 L130.142,15.901 C130.058,15.797 130.006,15.652 130.005,15.493 C130.005,15.491 130.005,15.490 130.005,15.488 C130.006,15.328 130.058,15.183 130.143,15.079 L131.692,13.149 C131.877,12.937 132.162,12.943 132.339,13.163 C132.516,13.384 132.521,13.739 132.351,13.967 L131.594,14.910 L135.538,14.910 C135.795,14.910 136.003,15.170 136.003,15.490 C136.003,15.811 135.795,16.070 135.538,16.070 Z"/>
<path fill-rule="evenodd"  fill="rgb(255, 255, 255)"
 d="M169.993,15.490 C169.993,15.651 169.940,15.796 169.855,15.901 L168.305,17.831 C168.122,18.051 167.832,18.048 167.652,17.825 C167.473,17.601 167.470,17.240 167.647,17.012 L168.403,16.070 L164.460,16.070 C164.202,16.070 163.995,15.811 163.995,15.490 C163.995,15.170 164.202,14.910 164.460,14.910 L168.404,14.910 L167.647,13.967 C167.477,13.739 167.481,13.384 167.658,13.163 C167.835,12.943 168.121,12.937 168.305,13.149 L169.855,15.079 C169.940,15.184 169.993,15.329 169.993,15.490 Z"/>
</svg>
