<svg 
 xmlns="http://www.w3.org/2000/svg"
 xmlns:xlink="http://www.w3.org/1999/xlink"
 width="300px" height="147px">
<path fill-rule="evenodd"  fill="none"
 d="M-0.002,-0.001 L299.998,-0.001 L299.998,146.999 L-0.002,146.999 L-0.002,-0.001 Z"/>
<path fill-rule="evenodd"  fill="rgb(23, 204, 95)"
 d="M149.999,69.000 C122.384,69.000 99.999,62.284 99.999,54.000 C99.999,45.715 122.384,39.000 149.999,39.000 C177.613,39.000 199.999,45.715 199.999,54.000 C199.999,62.284 177.613,69.000 149.999,69.000 ZM149.498,44.000 C130.997,44.000 106.998,48.477 106.998,54.000 C106.998,59.523 130.997,64.000 149.498,64.000 C168.000,64.000 192.999,59.523 192.999,54.000 C192.999,48.477 168.000,44.000 149.498,44.000 Z"/>
<path fill-rule="evenodd"  fill="rgb(255, 255, 255)"
 d="M149.999,64.000 L150.999,64.000 L150.999,69.000 L149.999,69.000 L149.999,64.000 Z"/>
<path fill-rule="evenodd"  fill="rgb(23, 204, 95)"
 d="M59.989,99.000 L239.988,99.000 L59.989,106.000 L59.989,99.000 Z"/>
<path fill-rule="evenodd"  fill="rgb(23, 204, 95)"
 d="M240.009,108.000 L60.009,108.000 L240.009,101.000 L240.009,108.000 Z"/>
<path fill-rule="evenodd"  fill="rgb(102, 102, 102)"
 d="M157.780,77.847 L157.780,77.918 C158.900,78.189 159.726,78.989 159.726,80.417 C159.726,82.545 157.990,83.531 155.707,83.531 L152.008,83.531 L152.008,72.962 L155.440,72.962 C157.569,72.962 159.194,73.591 159.194,75.562 C159.194,76.533 158.662,77.532 157.780,77.847 ZM155.314,74.576 L154.081,74.576 L154.081,77.261 L155.286,77.261 C156.603,77.261 157.177,76.718 157.177,75.876 C157.177,74.947 156.561,74.576 155.314,74.576 ZM155.524,78.832 L154.081,78.832 L154.081,81.903 L155.524,81.903 C156.938,81.903 157.709,81.389 157.709,80.289 C157.709,79.261 156.953,78.832 155.524,78.832 ZM147.895,80.817 L144.533,80.817 L143.805,83.531 L141.704,83.531 L145.023,72.962 L147.461,72.962 L150.794,83.531 L148.623,83.531 L147.895,80.817 ZM147.138,78.018 C146.816,76.918 146.536,75.704 146.228,74.562 L146.172,74.562 C145.906,75.719 145.597,76.918 145.290,78.018 L144.981,79.175 L147.447,79.175 L147.138,78.018 Z"/>
<path fill-rule="evenodd"  fill="rgb(51, 51, 51)"
 d="M47.749,103.175 L48.056,102.018 C48.364,100.918 48.673,99.719 48.939,98.562 L48.995,98.562 C49.303,99.704 49.583,100.918 49.905,102.018 L50.214,103.175 L47.749,103.175 ZM51.390,107.531 L53.561,107.531 L50.228,96.962 L47.791,96.962 L44.470,107.531 L46.572,107.531 L47.300,104.817 L50.662,104.817 L51.390,107.531 Z"/>
<path fill-rule="evenodd"  fill="rgb(51, 51, 51)"
 d="M246.521,108.531 L250.220,108.531 C252.503,108.531 254.240,107.545 254.240,105.417 C254.240,103.989 253.413,103.189 252.293,102.918 L252.293,102.847 C253.175,102.532 253.707,101.533 253.707,100.562 C253.707,98.591 252.082,97.962 249.953,97.962 L246.521,97.962 L246.521,108.531 ZM248.594,102.261 L248.594,99.576 L249.827,99.576 C251.074,99.576 251.690,99.947 251.690,100.876 C251.690,101.718 251.116,102.261 249.799,102.261 L248.594,102.261 ZM248.594,106.903 L248.594,103.832 L250.037,103.832 C251.466,103.832 252.222,104.261 252.222,105.289 C252.222,106.389 251.452,106.903 250.037,106.903 L248.594,106.903 Z"/>
</svg>
