<svg 
 xmlns="http://www.w3.org/2000/svg"
 xmlns:xlink="http://www.w3.org/1999/xlink"
 width="300.5px" height="147.5px">
<path fill-rule="evenodd"  fill="none"
 d="M-0.002,-0.000 L299.998,-0.000 L299.998,147.000 L-0.002,147.000 L-0.002,-0.000 Z"/>
<path fill-rule="evenodd"  stroke="rgb(127, 127, 127)" stroke-width="1px" stroke-dasharray="4, 2" stroke-linecap="butt" stroke-linejoin="miter" fill="none"
 d="M169.009,110.420 C171.147,109.271 172.162,107.277 171.967,105.395 C172.176,103.401 171.147,101.518 169.009,100.369 L122.921,75.698 C120.880,74.550 118.435,74.024 115.991,74.024 C113.547,74.024 111.089,74.550 109.048,75.698 L62.960,100.272 C60.822,101.421 59.904,103.415 60.002,105.297 C59.904,107.291 60.822,109.271 62.960,110.420 L109.048,135.006 C111.089,136.156 113.534,136.682 115.991,136.682 C118.435,136.682 120.880,136.156 122.921,135.006 L169.009,110.420 Z"/>
<path fill-rule="evenodd"  stroke="rgb(23, 204, 95)" stroke-width="1px" stroke-linecap="butt" stroke-linejoin="miter" fill="none"
 d="M169.009,41.154 C171.147,40.005 172.162,38.011 171.967,36.129 C172.176,34.135 171.147,32.252 169.009,31.102 L122.921,6.433 C120.880,5.283 118.435,4.758 115.991,4.758 C113.547,4.758 111.089,5.283 109.048,6.433 L62.960,31.006 C60.822,32.155 59.904,34.149 60.002,36.031 C59.904,38.025 60.822,40.005 62.960,41.154 L109.048,65.740 C111.089,66.890 113.534,67.416 115.991,67.416 C118.435,67.416 120.880,66.890 122.921,65.740 L169.009,41.154 Z"/>
<path fill-rule="evenodd"  stroke="rgb(127, 127, 127)" stroke-width="1px" stroke-dasharray="4, 2" stroke-linecap="butt" stroke-linejoin="miter" fill="none"
 d="M60.996,40.999 L60.996,104.999 "/>
<path fill-rule="evenodd"  stroke="rgb(127, 127, 127)" stroke-width="1px" stroke-dasharray="4, 2" stroke-linecap="butt" stroke-linejoin="miter" fill="none"
 d="M171.997,40.999 L171.997,104.999 "/>
<path fill-rule="evenodd"  stroke="rgb(127, 127, 127)" stroke-width="1px" stroke-dasharray="4, 2" stroke-linecap="butt" stroke-linejoin="miter" fill="none"
 d="M116.997,68.998 L116.997,136.998 "/>
<path fill-rule="evenodd"  stroke="rgb(127, 127, 127)" stroke-width="1px" stroke-dasharray="4, 2" stroke-linecap="butt" stroke-linejoin="miter" fill="none"
 d="M116.997,6.999 L116.997,69.999 "/>
<path fill-rule="evenodd"  stroke="rgb(23, 204, 95)" stroke-width="1px" stroke-linecap="butt" stroke-linejoin="miter" fill="none"
 d="M165.331,40.536 C167.243,39.509 169.148,37.728 168.975,36.044 C169.161,34.263 167.243,32.579 165.331,31.553 L122.172,9.504 C120.349,8.476 118.164,8.006 115.981,8.006 C113.796,8.006 111.600,8.476 109.775,9.504 L66.644,31.467 C64.734,32.494 62.914,34.275 63.001,35.958 C62.914,37.739 64.734,39.509 66.644,40.536 L109.775,62.511 C111.600,63.538 113.783,64.008 115.981,64.008 C118.164,64.008 120.349,63.538 122.172,62.511 L165.331,40.536 Z"/>
<path fill-rule="evenodd"  stroke="rgb(23, 204, 95)" stroke-width="1px" stroke-linecap="butt" stroke-linejoin="miter" fill="none"
 d="M160.704,40.050 C162.436,39.133 166.163,37.542 166.006,36.040 C166.174,34.449 162.436,32.946 160.704,32.029 L121.606,12.343 C119.954,11.425 117.974,11.006 115.997,11.006 C114.018,11.006 112.028,11.425 110.375,12.343 L71.301,31.952 C69.570,32.869 65.922,34.460 66.001,35.962 C65.922,37.553 69.570,39.133 71.301,40.050 L110.375,59.671 C112.028,60.587 114.006,61.007 115.997,61.007 C117.974,61.007 119.954,60.587 121.606,59.671 L160.704,40.050 Z"/>
<path fill-rule="evenodd"  fill="rgb(23, 204, 95)"
 d="M248.997,16.998 L253.997,16.998 C256.759,16.998 258.997,19.237 258.997,21.999 L258.997,21.999 C258.997,24.760 256.759,26.999 253.997,26.999 L204.996,26.999 L248.997,16.998 Z"/>
<path fill-rule="evenodd"  fill="rgb(16, 142, 66)"
 d="M224.255,22.999 L253.997,22.999 C258.091,22.999 258.170,19.243 258.170,19.243 C258.170,19.243 258.997,20.980 258.997,21.999 C258.997,24.760 256.759,26.999 253.997,26.999 L227.998,26.999 C225.236,26.999 200.998,27.000 200.998,27.000 L224.255,22.999 Z"/>
<path fill-rule="evenodd"  fill="rgb(23, 204, 95)"
 d="M195.996,16.998 L244.997,16.998 L200.997,26.999 L195.996,26.999 C193.235,26.999 190.996,24.760 190.996,21.999 L190.996,21.999 C190.996,19.237 193.235,16.998 195.996,16.998 Z"/>
<path fill-rule="evenodd"  fill="rgb(16, 142, 66)"
 d="M195.996,22.999 L240.997,22.999 L220.997,26.999 L195.996,26.999 C193.235,26.999 190.996,24.760 190.996,21.999 C190.996,20.917 191.925,19.097 191.925,19.097 C191.925,19.097 192.084,22.999 195.996,22.999 Z"/>
<path fill-rule="evenodd"  fill="rgb(23, 204, 95)"
 d="M248.997,26.999 L253.997,26.999 C256.759,26.999 258.997,29.237 258.997,31.999 L258.997,31.999 C258.997,34.760 256.759,36.999 253.997,36.999 L204.996,36.999 L248.997,26.999 Z"/>
<path fill-rule="evenodd"  fill="rgb(16, 142, 66)"
 d="M224.255,32.999 L253.997,32.999 C258.091,32.999 258.170,29.244 258.170,29.244 C258.170,29.244 258.997,30.980 258.997,31.999 C258.997,34.760 256.759,36.999 253.997,36.999 L227.998,36.999 C225.236,36.999 200.998,37.000 200.998,37.000 L224.255,32.999 Z"/>
<path fill-rule="evenodd"  fill="rgb(23, 204, 95)"
 d="M195.996,26.999 L244.997,26.999 L200.997,36.999 L195.996,36.999 C193.235,36.999 190.996,34.760 190.996,31.999 L190.996,31.999 C190.996,29.237 193.235,26.999 195.996,26.999 Z"/>
<path fill-rule="evenodd"  fill="rgb(16, 142, 66)"
 d="M195.996,32.999 L240.997,32.999 L220.997,36.999 L195.996,36.999 C193.235,36.999 190.996,34.760 190.996,31.999 C190.996,30.917 191.925,29.097 191.925,29.097 C191.925,29.097 192.084,32.999 195.996,32.999 Z"/>
<path fill-rule="evenodd"  fill="rgb(23, 204, 95)"
 d="M248.997,36.999 L253.997,36.999 C256.759,36.999 258.997,39.237 258.997,41.999 L258.997,41.999 C258.997,44.760 256.759,46.999 253.997,46.999 L204.996,46.999 L248.997,36.999 Z"/>
<path fill-rule="evenodd"  fill="rgb(16, 142, 66)"
 d="M224.255,42.999 L253.997,42.999 C258.091,42.999 258.170,39.244 258.170,39.244 C258.170,39.244 258.997,40.980 258.997,41.999 C258.997,44.760 256.759,46.999 253.997,46.999 L227.998,46.999 C225.236,46.999 200.998,47.000 200.998,47.000 L224.255,42.999 Z"/>
<path fill-rule="evenodd"  fill="rgb(23, 204, 95)"
 d="M195.996,36.999 L244.997,36.999 L200.997,46.999 L195.996,46.999 C193.235,46.999 190.996,44.760 190.996,41.999 L190.996,41.999 C190.996,39.237 193.235,36.999 195.996,36.999 Z"/>
<path fill-rule="evenodd"  fill="rgb(16, 142, 66)"
 d="M195.996,42.999 L240.997,42.999 L220.997,46.999 L195.996,46.999 C193.235,46.999 190.996,44.760 190.996,41.999 C190.996,40.917 191.925,39.097 191.925,39.097 C191.925,39.097 192.084,42.999 195.996,42.999 Z"/>
</svg>
