<svg 
 xmlns="http://www.w3.org/2000/svg"
 xmlns:xlink="http://www.w3.org/1999/xlink"
 width="300.5px" height="147.5px">
<path fill-rule="evenodd"  fill="none"
 d="M-0.001,-0.001 L299.999,-0.001 L299.999,146.999 L-0.001,146.999 L-0.001,-0.001 Z"/>
<path fill-rule="evenodd"  fill="rgb(23, 204, 95)"
 d="M173.998,30.999 L224.997,30.999 C227.759,30.999 229.998,33.238 229.998,35.999 L229.998,35.999 C229.998,38.761 227.759,40.999 224.997,40.999 L129.998,40.999 L173.998,30.999 Z"/>
<path fill-rule="evenodd"  fill="rgb(16, 142, 66)"
 d="M149.255,36.999 L224.998,36.999 C229.091,36.999 229.171,33.244 229.171,33.244 C229.171,33.244 229.998,34.981 229.998,35.999 C229.998,38.761 227.759,40.999 224.998,40.999 L152.998,40.999 C150.236,40.999 125.999,41.000 125.999,41.000 L149.255,36.999 Z"/>
<path fill-rule="evenodd"  fill="rgb(23, 204, 95)"
 d="M74.997,30.999 L169.997,30.999 L125.998,40.999 L74.997,40.999 C72.236,40.999 69.997,38.761 69.997,35.999 L69.997,35.999 C69.997,33.238 72.236,30.999 74.997,30.999 Z"/>
<path fill-rule="evenodd"  fill="rgb(16, 142, 66)"
 d="M74.997,36.999 L165.997,36.999 L145.997,40.999 L74.997,40.999 C72.236,40.999 69.997,38.761 69.997,35.999 C69.997,34.917 70.925,33.098 70.925,33.098 C70.925,33.098 71.085,36.999 74.997,36.999 Z"/>
<path fill-rule="evenodd"  fill="rgb(23, 204, 95)"
 d="M173.998,40.999 L224.997,40.999 C227.759,40.999 229.998,43.237 229.998,45.999 L229.998,45.999 C229.998,48.761 227.759,50.999 224.997,50.999 L129.998,50.999 L173.998,40.999 Z"/>
<path fill-rule="evenodd"  fill="rgb(16, 142, 66)"
 d="M149.255,46.999 L224.998,46.999 C229.091,46.999 229.171,43.244 229.171,43.244 C229.171,43.244 229.998,44.981 229.998,45.999 C229.998,48.761 227.759,50.999 224.998,50.999 L152.998,50.999 C150.236,50.999 125.999,51.000 125.999,51.000 L149.255,46.999 Z"/>
<path fill-rule="evenodd"  fill="rgb(23, 204, 95)"
 d="M74.997,40.999 L169.997,40.999 L125.998,50.999 L74.997,50.999 C72.236,50.999 69.997,48.761 69.997,45.999 L69.997,45.999 C69.997,43.237 72.236,40.999 74.997,40.999 Z"/>
<path fill-rule="evenodd"  fill="rgb(16, 142, 66)"
 d="M74.997,46.999 L165.997,46.999 L145.997,50.999 L74.997,50.999 C72.236,50.999 69.997,48.761 69.997,45.999 C69.997,44.917 70.925,43.098 70.925,43.098 C70.925,43.098 71.085,46.999 74.997,46.999 Z"/>
<path fill-rule="evenodd"  fill="rgb(23, 204, 95)"
 d="M173.998,50.999 L224.997,50.999 C227.759,50.999 229.998,53.237 229.998,55.999 L229.998,55.999 C229.998,58.761 227.759,60.999 224.997,60.999 L129.998,60.999 L173.998,50.999 Z"/>
<path fill-rule="evenodd"  fill="rgb(16, 142, 66)"
 d="M149.255,56.999 L224.998,56.999 C229.091,56.999 229.171,53.244 229.171,53.244 C229.171,53.244 229.998,54.981 229.998,55.999 C229.998,58.761 227.759,60.999 224.998,60.999 L152.998,60.999 C150.236,60.999 125.999,61.000 125.999,61.000 L149.255,56.999 Z"/>
<path fill-rule="evenodd"  fill="rgb(23, 204, 95)"
 d="M74.997,50.999 L169.997,50.999 L125.998,60.999 L74.997,60.999 C72.236,60.999 69.997,58.761 69.997,55.999 L69.997,55.999 C69.997,53.237 72.236,50.999 74.997,50.999 Z"/>
<path fill-rule="evenodd"  fill="rgb(16, 142, 66)"
 d="M74.997,56.999 L165.997,56.999 L145.997,60.999 L74.997,60.999 C72.236,60.999 69.997,58.761 69.997,55.999 C69.997,54.917 70.925,53.097 70.925,53.097 C70.925,53.097 71.085,56.999 74.997,56.999 Z"/>
<path fill-rule="evenodd"  fill="rgb(23, 204, 95)"
 d="M173.998,60.999 L224.997,60.999 C227.759,60.999 229.998,63.237 229.998,65.999 L229.998,65.999 C229.998,68.760 227.759,70.999 224.997,70.999 L129.998,70.999 L173.998,60.999 Z"/>
<path fill-rule="evenodd"  fill="rgb(16, 142, 66)"
 d="M149.255,66.999 L224.998,66.999 C229.091,66.999 229.171,63.244 229.171,63.244 C229.171,63.244 229.998,64.981 229.998,65.999 C229.998,68.760 227.759,70.999 224.998,70.999 L152.998,70.999 C150.236,70.999 125.999,71.000 125.999,71.000 L149.255,66.999 Z"/>
<path fill-rule="evenodd"  fill="rgb(23, 204, 95)"
 d="M74.997,60.999 L169.997,60.999 L125.998,70.999 L74.997,70.999 C72.236,70.999 69.997,68.760 69.997,65.999 L69.997,65.999 C69.997,63.237 72.236,60.999 74.997,60.999 Z"/>
<path fill-rule="evenodd"  fill="rgb(16, 142, 66)"
 d="M74.997,66.999 L165.997,66.999 L145.997,70.999 L74.997,70.999 C72.236,70.999 69.997,68.760 69.997,65.999 C69.997,64.917 70.925,63.097 70.925,63.097 C70.925,63.097 71.085,66.999 74.997,66.999 Z"/>
<path fill-rule="evenodd"  fill="rgb(23, 204, 95)"
 d="M173.998,70.999 L224.997,70.999 C227.759,70.999 229.998,73.237 229.998,75.999 L229.998,75.999 C229.998,78.760 227.759,80.999 224.997,80.999 L129.998,80.999 L173.998,70.999 Z"/>
<path fill-rule="evenodd"  fill="rgb(16, 142, 66)"
 d="M149.255,76.999 L224.998,76.999 C229.091,76.999 229.171,73.244 229.171,73.244 C229.171,73.244 229.998,74.980 229.998,75.999 C229.998,78.760 227.759,80.999 224.998,80.999 L152.998,80.999 C150.236,80.999 125.999,81.000 125.999,81.000 L149.255,76.999 Z"/>
<path fill-rule="evenodd"  fill="rgb(23, 204, 95)"
 d="M74.997,70.999 L169.997,70.999 L125.998,80.999 L74.997,80.999 C72.236,80.999 69.997,78.760 69.997,75.999 L69.997,75.999 C69.997,73.237 72.236,70.999 74.997,70.999 Z"/>
<path fill-rule="evenodd"  fill="rgb(16, 142, 66)"
 d="M74.997,76.999 L165.997,76.999 L145.997,80.999 L74.997,80.999 C72.236,80.999 69.997,78.760 69.997,75.999 C69.997,74.917 70.925,73.097 70.925,73.097 C70.925,73.097 71.085,76.999 74.997,76.999 Z"/>
<path fill-rule="evenodd"  fill="rgb(23, 204, 95)"
 d="M173.998,80.999 L224.997,80.999 C227.759,80.999 229.998,83.237 229.998,85.999 L229.998,85.999 C229.998,88.760 227.759,90.999 224.997,90.999 L129.998,90.999 L173.998,80.999 Z"/>
<path fill-rule="evenodd"  fill="rgb(16, 142, 66)"
 d="M149.255,86.999 L224.998,86.999 C229.091,86.999 229.171,83.244 229.171,83.244 C229.171,83.244 229.998,84.980 229.998,85.999 C229.998,88.760 227.759,90.999 224.998,90.999 L152.998,90.999 C150.236,90.999 125.999,91.000 125.999,91.000 L149.255,86.999 Z"/>
<path fill-rule="evenodd"  fill="rgb(23, 204, 95)"
 d="M74.997,80.999 L169.997,80.999 L125.998,90.999 L74.997,90.999 C72.236,90.999 69.997,88.760 69.997,85.999 L69.997,85.999 C69.997,83.237 72.236,80.999 74.997,80.999 Z"/>
<path fill-rule="evenodd"  fill="rgb(16, 142, 66)"
 d="M74.997,86.999 L165.997,86.999 L145.997,90.999 L74.997,90.999 C72.236,90.999 69.997,88.760 69.997,85.999 C69.997,84.917 70.925,83.097 70.925,83.097 C70.925,83.097 71.085,86.999 74.997,86.999 Z"/>
<path fill-rule="evenodd"  fill="rgb(23, 204, 95)"
 d="M173.998,90.999 L224.997,90.999 C227.759,90.999 229.998,93.237 229.998,95.999 L229.998,95.999 C229.998,98.760 227.759,100.999 224.997,100.999 L129.998,100.999 L173.998,90.999 Z"/>
<path fill-rule="evenodd"  fill="rgb(16, 142, 66)"
 d="M149.255,96.999 L224.998,96.999 C229.091,96.999 229.171,93.244 229.171,93.244 C229.171,93.244 229.998,94.980 229.998,95.999 C229.998,98.760 227.759,100.999 224.998,100.999 L152.998,100.999 C150.236,100.999 125.999,101.000 125.999,101.000 L149.255,96.999 Z"/>
<path fill-rule="evenodd"  fill="rgb(23, 204, 95)"
 d="M74.997,90.999 L169.997,90.999 L125.998,100.999 L74.997,100.999 C72.236,100.999 69.997,98.760 69.997,95.999 L69.997,95.999 C69.997,93.237 72.236,90.999 74.997,90.999 Z"/>
<path fill-rule="evenodd"  fill="rgb(16, 142, 66)"
 d="M74.997,96.999 L165.997,96.999 L145.997,100.999 L74.997,100.999 C72.236,100.999 69.997,98.760 69.997,95.999 C69.997,94.917 70.925,93.097 70.925,93.097 C70.925,93.097 71.085,96.999 74.997,96.999 Z"/>
<path fill-rule="evenodd"  fill="rgb(23, 204, 95)"
 d="M173.998,100.999 L224.997,100.999 C227.759,100.999 229.998,103.237 229.998,105.999 L229.998,105.999 C229.998,108.760 227.759,110.999 224.997,110.999 L129.998,110.999 L173.998,100.999 Z"/>
<path fill-rule="evenodd"  fill="rgb(16, 142, 66)"
 d="M149.255,106.999 L224.998,106.999 C229.091,106.999 229.171,103.244 229.171,103.244 C229.171,103.244 229.998,104.980 229.998,105.999 C229.998,108.760 227.759,110.999 224.998,110.999 L152.998,110.999 C150.236,110.999 125.999,111.000 125.999,111.000 L149.255,106.999 Z"/>
<path fill-rule="evenodd"  fill="rgb(23, 204, 95)"
 d="M74.997,100.999 L169.997,100.999 L125.998,110.999 L74.997,110.999 C72.236,110.999 69.997,108.760 69.997,105.999 L69.997,105.999 C69.997,103.237 72.236,100.999 74.997,100.999 Z"/>
<path fill-rule="evenodd"  fill="rgb(16, 142, 66)"
 d="M74.997,106.999 L165.997,106.999 L145.997,110.999 L74.997,110.999 C72.236,110.999 69.997,108.760 69.997,105.999 C69.997,104.917 70.925,103.097 70.925,103.097 C70.925,103.097 71.085,106.999 74.997,106.999 Z"/>
<path fill-rule="evenodd"  fill="rgb(23, 204, 95)"
 d="M173.998,110.999 L224.997,110.999 C227.759,110.999 229.998,113.237 229.998,115.999 L229.998,115.999 C229.998,118.760 227.759,120.999 224.997,120.999 L129.998,120.999 L173.998,110.999 Z"/>
<path fill-rule="evenodd"  fill="rgb(16, 142, 66)"
 d="M149.255,116.999 L224.998,116.999 C229.091,116.999 229.171,113.244 229.171,113.244 C229.171,113.244 229.998,114.980 229.998,115.999 C229.998,118.760 227.759,120.999 224.998,120.999 L152.998,120.999 C150.236,120.999 125.999,121.000 125.999,121.000 L149.255,116.999 Z"/>
<path fill-rule="evenodd"  fill="rgb(23, 204, 95)"
 d="M74.997,110.999 L169.997,110.999 L125.998,120.999 L74.997,120.999 C72.236,120.999 69.997,118.760 69.997,115.999 L69.997,115.999 C69.997,113.237 72.236,110.999 74.997,110.999 Z"/>
<path fill-rule="evenodd"  fill="rgb(16, 142, 66)"
 d="M74.997,116.999 L165.997,116.999 L145.997,120.999 L74.997,120.999 C72.236,120.999 69.997,118.760 69.997,115.999 C69.997,114.917 70.925,113.097 70.925,113.097 C70.925,113.097 71.085,116.999 74.997,116.999 Z"/>
<path fill-rule="evenodd"  fill="rgb(23, 204, 95)"
 d="M173.998,120.999 L224.997,120.999 C227.759,120.999 229.998,123.237 229.998,125.999 L229.998,125.999 C229.998,128.760 227.759,130.999 224.997,130.999 L129.998,130.999 L173.998,120.999 Z"/>
<path fill-rule="evenodd"  fill="rgb(16, 142, 66)"
 d="M149.255,126.999 L224.998,126.999 C229.091,126.999 229.171,123.243 229.171,123.243 C229.171,123.243 229.998,124.980 229.998,125.999 C229.998,128.760 227.759,130.999 224.998,130.999 L152.998,130.999 C150.236,130.999 125.999,131.000 125.999,131.000 L149.255,126.999 Z"/>
<path fill-rule="evenodd"  fill="rgb(23, 204, 95)"
 d="M74.997,120.999 L169.997,120.999 L125.998,130.999 L74.997,130.999 C72.236,130.999 69.997,128.760 69.997,125.999 L69.997,125.999 C69.997,123.237 72.236,120.999 74.997,120.999 Z"/>
<path fill-rule="evenodd"  fill="rgb(16, 142, 66)"
 d="M74.997,126.999 L165.997,126.999 L145.997,130.999 L74.997,130.999 C72.236,130.999 69.997,128.760 69.997,125.999 C69.997,124.917 70.925,123.097 70.925,123.097 C70.925,123.097 71.085,126.999 74.997,126.999 Z"/>
<path fill-rule="evenodd"  stroke="rgb(255, 255, 255)" stroke-width="1px" stroke-linecap="butt" stroke-linejoin="miter" fill="none"
 d="M166.999,12.000 L95.999,12.000 L95.999,20.000 L122.999,20.000 "/>
<path fill-rule="evenodd"  stroke="rgb(255, 255, 255)" stroke-width="1px" stroke-dasharray="4, 2" stroke-linecap="butt" stroke-linejoin="miter" fill="none"
 d="M121.999,20.000 L166.999,11.000 "/>
<path fill-rule="evenodd"  stroke="rgb(255, 255, 255)" stroke-width="1px" stroke-linecap="butt" stroke-linejoin="miter" fill="none"
 d="M133.999,20.000 L203.999,20.000 L203.999,12.000 L175.999,12.000 "/>
<path fill-rule="evenodd"  stroke="rgb(255, 255, 255)" stroke-width="1px" stroke-dasharray="4, 2" stroke-linecap="butt" stroke-linejoin="miter" fill="none"
 d="M131.998,20.000 L176.999,11.000 "/>
</svg>
