<svg 
 xmlns="http://www.w3.org/2000/svg"
 xmlns:xlink="http://www.w3.org/1999/xlink"
 width="300px" height="147px">
<path fill-rule="evenodd"  fill="none"
 d="M-0.001,-0.001 L299.998,-0.001 L299.998,146.999 L-0.001,146.999 L-0.001,-0.001 Z"/>
<path fill-rule="evenodd"  fill="rgb(23, 204, 95)"
 d="M173.997,50.999 L224.998,50.999 C227.759,50.999 229.998,53.237 229.998,55.999 L229.998,55.999 C229.998,58.761 227.759,60.999 224.998,60.999 L129.997,60.999 L173.997,50.999 Z"/>
<path fill-rule="evenodd"  fill="rgb(16, 142, 66)"
 d="M149.256,56.999 L224.998,56.999 C229.091,56.999 229.170,53.244 229.170,53.244 C229.170,53.244 229.998,54.981 229.998,55.999 C229.998,58.761 227.759,60.999 224.998,60.999 L152.998,60.999 C150.237,60.999 125.999,61.000 125.999,61.000 L149.256,56.999 Z"/>
<path fill-rule="evenodd"  fill="rgb(23, 204, 95)"
 d="M74.997,50.999 L169.997,50.999 L125.997,60.999 L74.997,60.999 C72.236,60.999 69.998,58.761 69.998,55.999 L69.998,55.999 C69.998,53.237 72.236,50.999 74.997,50.999 Z"/>
<path fill-rule="evenodd"  fill="rgb(16, 142, 66)"
 d="M74.997,56.999 L165.997,56.999 L145.997,60.999 L74.997,60.999 C72.236,60.999 69.998,58.761 69.998,55.999 C69.998,54.917 70.925,53.097 70.925,53.097 C70.925,53.097 71.085,56.999 74.997,56.999 Z"/>
<path fill-rule="evenodd"  fill="rgb(23, 204, 95)"
 d="M173.997,60.999 L224.998,60.999 C227.759,60.999 229.998,63.237 229.998,65.999 L229.998,65.999 C229.998,68.760 227.759,70.999 224.998,70.999 L129.997,70.999 L173.997,60.999 Z"/>
<path fill-rule="evenodd"  fill="rgb(16, 142, 66)"
 d="M149.256,66.999 L224.998,66.999 C229.091,66.999 229.170,63.244 229.170,63.244 C229.170,63.244 229.998,64.980 229.998,65.999 C229.998,68.760 227.759,70.999 224.998,70.999 L152.998,70.999 C150.237,70.999 125.999,71.000 125.999,71.000 L149.256,66.999 Z"/>
<path fill-rule="evenodd"  fill="rgb(23, 204, 95)"
 d="M74.997,60.999 L169.997,60.999 L125.997,70.999 L74.997,70.999 C72.236,70.999 69.998,68.760 69.998,65.999 L69.998,65.999 C69.998,63.237 72.236,60.999 74.997,60.999 Z"/>
<path fill-rule="evenodd"  fill="rgb(16, 142, 66)"
 d="M74.997,66.999 L165.997,66.999 L145.997,70.999 L74.997,70.999 C72.236,70.999 69.998,68.760 69.998,65.999 C69.998,64.917 70.925,63.097 70.925,63.097 C70.925,63.097 71.085,66.999 74.997,66.999 Z"/>
<path fill-rule="evenodd"  fill="rgb(23, 204, 95)"
 d="M173.997,70.999 L224.998,70.999 C227.759,70.999 229.998,73.237 229.998,75.999 L229.998,75.999 C229.998,78.760 227.759,80.999 224.998,80.999 L129.997,80.999 L173.997,70.999 Z"/>
<path fill-rule="evenodd"  fill="rgb(16, 142, 66)"
 d="M149.256,76.999 L224.998,76.999 C229.091,76.999 229.170,73.244 229.170,73.244 C229.170,73.244 229.998,74.980 229.998,75.999 C229.998,78.760 227.759,80.999 224.998,80.999 L152.998,80.999 C150.237,80.999 125.999,81.000 125.999,81.000 L149.256,76.999 Z"/>
<path fill-rule="evenodd"  fill="rgb(23, 204, 95)"
 d="M74.997,70.999 L169.997,70.999 L125.997,80.999 L74.997,80.999 C72.236,80.999 69.998,78.760 69.998,75.999 L69.998,75.999 C69.998,73.237 72.236,70.999 74.997,70.999 Z"/>
<path fill-rule="evenodd"  fill="rgb(16, 142, 66)"
 d="M74.997,76.999 L165.997,76.999 L145.997,80.999 L74.997,80.999 C72.236,80.999 69.998,78.760 69.998,75.999 C69.998,74.917 70.925,73.097 70.925,73.097 C70.925,73.097 71.085,76.999 74.997,76.999 Z"/>
<path fill-rule="evenodd"  fill="rgb(23, 204, 95)"
 d="M173.997,80.999 L224.998,80.999 C227.759,80.999 229.998,83.237 229.998,85.999 L229.998,85.999 C229.998,88.760 227.759,90.999 224.998,90.999 L129.997,90.999 L173.997,80.999 Z"/>
<path fill-rule="evenodd"  fill="rgb(16, 142, 66)"
 d="M149.256,86.999 L224.998,86.999 C229.091,86.999 229.170,83.244 229.170,83.244 C229.170,83.244 229.998,84.980 229.998,85.999 C229.998,88.760 227.759,90.999 224.998,90.999 L152.998,90.999 C150.237,90.999 125.999,91.000 125.999,91.000 L149.256,86.999 Z"/>
<path fill-rule="evenodd"  fill="rgb(23, 204, 95)"
 d="M74.997,80.999 L169.997,80.999 L125.997,90.999 L74.997,90.999 C72.236,90.999 69.998,88.760 69.998,85.999 L69.998,85.999 C69.998,83.237 72.236,80.999 74.997,80.999 Z"/>
<path fill-rule="evenodd"  fill="rgb(16, 142, 66)"
 d="M74.997,86.999 L165.997,86.999 L145.997,90.999 L74.997,90.999 C72.236,90.999 69.998,88.760 69.998,85.999 C69.998,84.917 70.925,83.097 70.925,83.097 C70.925,83.097 71.085,86.999 74.997,86.999 Z"/>
<path fill-rule="evenodd"  fill="rgb(23, 204, 95)"
 d="M173.997,90.999 L224.998,90.999 C227.759,90.999 229.998,93.237 229.998,95.999 L229.998,95.999 C229.998,98.760 227.759,100.999 224.998,100.999 L129.997,100.999 L173.997,90.999 Z"/>
<path fill-rule="evenodd"  fill="rgb(16, 142, 66)"
 d="M149.256,96.999 L224.998,96.999 C229.091,96.999 229.170,93.244 229.170,93.244 C229.170,93.244 229.998,94.980 229.998,95.999 C229.998,98.760 227.759,100.999 224.998,100.999 L152.998,100.999 C150.237,100.999 125.999,101.000 125.999,101.000 L149.256,96.999 Z"/>
<path fill-rule="evenodd"  fill="rgb(23, 204, 95)"
 d="M74.997,90.999 L169.997,90.999 L125.997,100.999 L74.997,100.999 C72.236,100.999 69.998,98.760 69.998,95.999 L69.998,95.999 C69.998,93.237 72.236,90.999 74.997,90.999 Z"/>
<path fill-rule="evenodd"  fill="rgb(16, 142, 66)"
 d="M74.997,96.999 L165.997,96.999 L145.997,100.999 L74.997,100.999 C72.236,100.999 69.998,98.760 69.998,95.999 C69.998,94.917 70.925,93.097 70.925,93.097 C70.925,93.097 71.085,96.999 74.997,96.999 Z"/>
<path fill-rule="evenodd"  fill="rgb(23, 204, 95)"
 d="M173.997,100.999 L224.998,100.999 C227.759,100.999 229.998,103.237 229.998,105.999 L229.998,105.999 C229.998,108.760 227.759,110.999 224.998,110.999 L129.997,110.999 L173.997,100.999 Z"/>
<path fill-rule="evenodd"  fill="rgb(16, 142, 66)"
 d="M149.256,106.999 L224.998,106.999 C229.091,106.999 229.170,103.244 229.170,103.244 C229.170,103.244 229.998,104.980 229.998,105.999 C229.998,108.760 227.759,110.999 224.998,110.999 L152.998,110.999 C150.237,110.999 125.999,111.000 125.999,111.000 L149.256,106.999 Z"/>
<path fill-rule="evenodd"  fill="rgb(23, 204, 95)"
 d="M74.997,100.999 L169.997,100.999 L125.997,110.999 L74.997,110.999 C72.236,110.999 69.998,108.760 69.998,105.999 L69.998,105.999 C69.998,103.237 72.236,100.999 74.997,100.999 Z"/>
<path fill-rule="evenodd"  fill="rgb(16, 142, 66)"
 d="M74.997,106.999 L165.997,106.999 L145.997,110.999 L74.997,110.999 C72.236,110.999 69.998,108.760 69.998,105.999 C69.998,104.917 70.925,103.097 70.925,103.097 C70.925,103.097 71.085,106.999 74.997,106.999 Z"/>
<path fill-rule="evenodd"  fill="rgb(23, 204, 95)"
 d="M173.997,110.999 L224.998,110.999 C227.759,110.999 229.998,113.237 229.998,115.999 L229.998,115.999 C229.998,118.760 227.759,120.999 224.998,120.999 L129.997,120.999 L173.997,110.999 Z"/>
<path fill-rule="evenodd"  fill="rgb(16, 142, 66)"
 d="M149.256,116.999 L224.998,116.999 C229.091,116.999 229.170,113.244 229.170,113.244 C229.170,113.244 229.998,114.980 229.998,115.999 C229.998,118.760 227.759,120.999 224.998,120.999 L152.998,120.999 C150.237,120.999 125.999,121.000 125.999,121.000 L149.256,116.999 Z"/>
<path fill-rule="evenodd"  fill="rgb(23, 204, 95)"
 d="M74.997,110.999 L169.997,110.999 L125.997,120.999 L74.997,120.999 C72.236,120.999 69.998,118.760 69.998,115.999 L69.998,115.999 C69.998,113.237 72.236,110.999 74.997,110.999 Z"/>
<path fill-rule="evenodd"  fill="rgb(16, 142, 66)"
 d="M74.997,116.999 L165.997,116.999 L145.997,120.999 L74.997,120.999 C72.236,120.999 69.998,118.760 69.998,115.999 C69.998,114.917 70.925,113.097 70.925,113.097 C70.925,113.097 71.085,116.999 74.997,116.999 Z"/>
<path fill-rule="evenodd"  fill="rgb(23, 204, 95)"
 d="M173.997,120.999 L224.998,120.999 C227.759,120.999 229.998,123.237 229.998,125.999 L229.998,125.999 C229.998,128.760 227.759,130.999 224.998,130.999 L129.997,130.999 L173.997,120.999 Z"/>
<path fill-rule="evenodd"  fill="rgb(16, 142, 66)"
 d="M149.256,126.999 L224.998,126.999 C229.091,126.999 229.170,123.243 229.170,123.243 C229.170,123.243 229.998,124.980 229.998,125.999 C229.998,128.760 227.759,130.999 224.998,130.999 L152.998,130.999 C150.237,130.999 125.999,131.000 125.999,131.000 L149.256,126.999 Z"/>
<path fill-rule="evenodd"  fill="rgb(23, 204, 95)"
 d="M74.997,120.999 L169.997,120.999 L125.997,130.999 L74.997,130.999 C72.236,130.999 69.998,128.760 69.998,125.999 L69.998,125.999 C69.998,123.237 72.236,120.999 74.997,120.999 Z"/>
<path fill-rule="evenodd"  fill="rgb(16, 142, 66)"
 d="M74.997,126.999 L165.997,126.999 L145.997,130.999 L74.997,130.999 C72.236,130.999 69.998,128.760 69.998,125.999 C69.998,124.917 70.925,123.097 70.925,123.097 C70.925,123.097 71.085,126.999 74.997,126.999 Z"/>
<path fill-rule="evenodd"  fill="rgb(255, 255, 255)"
 d="M173.201,44.996 C172.759,44.996 172.401,44.612 172.401,44.139 L172.401,29.853 C172.401,29.380 172.759,28.996 173.201,28.996 C173.643,28.996 174.001,29.380 174.001,29.853 L174.001,44.139 C174.001,44.612 173.643,44.996 173.201,44.996 ZM168.966,40.458 C168.651,40.773 168.159,40.764 167.855,40.438 C167.551,40.111 167.542,39.585 167.835,39.248 L169.136,37.854 L130.866,37.854 L132.167,39.248 C132.470,39.584 132.466,40.119 132.157,40.450 C131.848,40.780 131.349,40.784 131.035,40.458 L128.372,37.605 C128.296,37.525 128.237,37.429 128.195,37.322 C128.168,37.250 128.162,37.174 128.153,37.098 C128.149,37.063 128.134,37.032 128.134,36.996 C128.134,36.958 128.150,36.926 128.154,36.889 C128.163,36.815 128.169,36.741 128.195,36.671 C128.237,36.563 128.297,36.467 128.373,36.386 L131.035,33.533 C131.351,33.219 131.842,33.228 132.146,33.554 C132.451,33.881 132.460,34.406 132.166,34.744 L130.865,36.139 L169.135,36.139 L167.834,34.744 C167.532,34.408 167.536,33.873 167.845,33.543 C168.153,33.213 168.652,33.207 168.966,33.533 L171.633,36.391 C171.945,36.725 171.945,37.267 171.633,37.602 L168.966,40.458 ZM126.801,44.996 C126.358,44.996 126.001,44.612 126.001,44.139 L126.001,29.853 C126.001,29.380 126.358,28.996 126.801,28.996 C127.243,28.996 127.601,29.380 127.601,29.853 L127.601,44.139 C127.601,44.612 127.243,44.996 126.801,44.996 Z"/>
<path fill-rule="evenodd"  fill="rgb(255, 255, 255)"
 d="M171.634,21.755 L170.495,21.241 C171.694,19.919 172.642,18.230 172.642,15.881 C172.642,13.531 171.694,11.842 170.495,10.521 L171.634,10.007 C172.930,11.304 173.997,13.262 173.997,15.881 C173.997,18.500 172.930,20.458 171.634,21.755 ZM167.311,16.480 C167.311,15.428 167.011,15.049 166.375,15.049 C165.992,15.049 165.560,15.306 165.080,15.820 L165.080,20.531 L163.317,20.531 L163.317,16.480 C163.317,15.428 163.017,15.049 162.381,15.049 C161.998,15.049 161.566,15.306 161.086,15.820 L161.086,20.531 L159.335,20.531 L159.335,13.678 L160.774,13.678 L160.894,14.596 L160.942,14.596 C161.506,13.996 162.129,13.507 163.005,13.507 C163.965,13.507 164.528,13.947 164.852,14.706 C165.464,14.045 166.111,13.507 166.987,13.507 C168.414,13.507 169.074,14.535 169.074,16.260 L169.074,20.531 L167.311,20.531 L167.311,16.480 ZM155.743,16.480 C155.743,15.428 155.443,15.049 154.807,15.049 C154.423,15.049 153.992,15.306 153.512,15.820 L153.512,20.531 L151.749,20.531 L151.749,16.480 C151.749,15.428 151.449,15.049 150.813,15.049 C150.430,15.049 149.998,15.306 149.518,15.820 L149.518,20.531 L147.767,20.531 L147.767,13.678 L149.206,13.678 L149.327,14.596 L149.374,14.596 C149.938,13.996 150.562,13.507 151.437,13.507 C152.397,13.507 152.960,13.947 153.284,14.706 C153.896,14.045 154.544,13.507 155.419,13.507 C156.846,13.507 157.506,14.535 157.506,16.260 L157.506,20.531 L155.743,20.531 L155.743,16.480 ZM145.090,23.003 C143.963,21.106 143.303,19.124 143.303,16.664 C143.303,14.229 143.963,12.222 145.090,10.337 L146.193,10.814 C145.186,12.601 144.730,14.669 144.730,16.664 C144.730,18.683 145.186,20.739 146.193,22.526 L145.090,23.003 ZM137.470,20.531 L136.726,19.283 C136.510,18.879 136.294,18.463 136.078,18.071 L136.018,18.071 C135.826,18.463 135.646,18.867 135.455,19.283 L134.831,20.531 L133.008,20.531 L135.107,16.958 L133.140,13.678 L135.035,13.678 L135.706,14.902 C135.898,15.281 136.102,15.673 136.306,16.052 L136.354,16.052 C136.510,15.673 136.690,15.281 136.846,14.902 L137.409,13.678 L139.232,13.678 L137.265,17.166 L139.364,20.531 L137.470,20.531 ZM130.726,20.531 L129.982,19.283 C129.766,18.879 129.550,18.463 129.334,18.071 L129.274,18.071 C129.083,18.463 128.902,18.867 128.711,19.283 L128.087,20.531 L126.264,20.531 L128.363,16.958 L126.396,13.678 L128.291,13.678 L128.962,14.902 C129.154,15.281 129.358,15.673 129.562,16.052 L129.610,16.052 C129.766,15.673 129.946,15.281 130.102,14.902 L130.665,13.678 L132.489,13.678 L130.521,17.166 L132.620,20.531 L130.726,20.531 Z"/>
</svg>
