<svg 
 xmlns="http://www.w3.org/2000/svg"
 xmlns:xlink="http://www.w3.org/1999/xlink"
 width="300px" height="147px">
<path fill-rule="evenodd"  fill="none"
 d="M-0.001,-0.001 L299.999,-0.001 L299.999,146.999 L-0.001,146.999 L-0.001,-0.001 Z"/>
<path fill-rule="evenodd"  fill="rgb(23, 204, 95)"
 d="M74.998,81.000 L146.999,81.000 C149.759,81.000 151.998,83.238 151.998,86.000 C151.998,88.761 149.759,91.000 146.999,91.000 L74.998,91.000 C72.237,91.000 69.999,88.761 69.999,86.000 C69.999,83.238 72.237,81.000 74.998,81.000 Z"/>
<path fill-rule="evenodd"  fill="rgb(16, 142, 66)"
 d="M147.000,86.999 L75.000,86.999 C70.907,86.999 70.828,83.244 70.828,83.244 C70.828,83.244 70.000,84.981 70.000,85.999 C70.000,88.761 72.239,90.999 75.000,90.999 L147.000,90.999 C149.761,90.999 152.000,88.761 152.000,85.999 C152.000,84.917 151.073,83.098 151.073,83.098 C151.073,83.098 150.912,86.999 147.000,86.999 Z"/>
<path fill-rule="evenodd"  fill="rgb(23, 204, 95)"
 d="M153.998,81.000 L224.999,81.000 C227.760,81.000 229.999,83.238 229.999,86.000 L229.999,86.000 C229.999,88.761 227.760,91.000 224.999,91.000 L153.998,91.000 C151.237,91.000 148.999,88.761 148.999,86.000 L148.999,86.000 C148.999,83.238 151.237,81.000 153.998,81.000 Z"/>
<path fill-rule="evenodd"  fill="rgb(16, 142, 66)"
 d="M225.000,86.999 L154.000,86.999 C149.906,86.999 149.827,83.244 149.827,83.244 C149.827,83.244 149.000,84.981 149.000,85.999 C149.000,88.761 151.239,90.999 154.000,90.999 L225.000,90.999 C227.761,90.999 229.999,88.761 229.999,85.999 C229.999,84.917 229.072,83.098 229.072,83.098 C229.072,83.098 228.912,86.999 225.000,86.999 Z"/>
<path fill-rule="evenodd"  fill="rgb(23, 204, 95)"
 d="M152.998,91.000 L224.998,91.000 C227.760,91.000 229.999,93.238 229.999,96.000 C229.999,98.761 227.760,101.000 224.998,101.000 L152.998,101.000 C150.237,101.000 147.998,98.761 147.998,96.000 C147.998,93.238 150.237,91.000 152.998,91.000 Z"/>
<path fill-rule="evenodd"  fill="rgb(16, 142, 66)"
 d="M152.998,96.999 L224.998,96.999 C229.091,96.999 229.170,93.244 229.170,93.244 C229.170,93.244 229.998,94.981 229.998,95.999 C229.998,98.761 227.759,100.999 224.998,100.999 L152.998,100.999 C150.236,100.999 147.997,98.761 147.997,95.999 C147.997,94.917 148.925,93.098 148.925,93.098 C148.925,93.098 149.085,96.999 152.998,96.999 Z"/>
<path fill-rule="evenodd"  fill="rgb(23, 204, 95)"
 d="M74.998,91.000 L145.999,91.000 C148.760,91.000 150.999,93.238 150.999,96.000 L150.999,96.000 C150.999,98.761 148.760,101.000 145.999,101.000 L74.998,101.000 C72.237,101.000 69.999,98.761 69.999,96.000 L69.999,96.000 C69.999,93.238 72.237,91.000 74.998,91.000 Z"/>
<path fill-rule="evenodd"  fill="rgb(16, 142, 66)"
 d="M74.996,96.999 L145.997,96.999 C150.091,96.999 150.169,93.244 150.169,93.244 C150.169,93.244 150.997,94.981 150.997,95.999 C150.997,98.761 148.758,100.999 145.997,100.999 L74.996,100.999 C72.236,100.999 69.997,98.761 69.997,95.999 C69.997,94.917 70.924,93.098 70.924,93.098 C70.924,93.098 71.084,96.999 74.996,96.999 Z"/>
<path fill-rule="evenodd"  fill="rgb(23, 204, 95)"
 d="M74.998,101.000 L146.999,101.000 C149.759,101.000 151.998,103.238 151.998,106.000 C151.998,108.761 149.759,111.000 146.999,111.000 L74.998,111.000 C72.237,111.000 69.999,108.761 69.999,106.000 C69.999,103.238 72.237,101.000 74.998,101.000 Z"/>
<path fill-rule="evenodd"  fill="rgb(16, 142, 66)"
 d="M147.000,106.999 L75.000,106.999 C70.907,106.999 70.828,103.244 70.828,103.244 C70.828,103.244 70.000,104.981 70.000,105.999 C70.000,108.761 72.239,110.999 75.000,110.999 L147.000,110.999 C149.761,110.999 152.000,108.761 152.000,105.999 C152.000,104.917 151.073,103.097 151.073,103.097 C151.073,103.097 150.912,106.999 147.000,106.999 Z"/>
<path fill-rule="evenodd"  fill="rgb(23, 204, 95)"
 d="M153.998,101.000 L224.999,101.000 C227.760,101.000 229.999,103.238 229.999,106.000 L229.999,106.000 C229.999,108.761 227.760,111.000 224.999,111.000 L153.998,111.000 C151.237,111.000 148.999,108.761 148.999,106.000 L148.999,106.000 C148.999,103.238 151.237,101.000 153.998,101.000 Z"/>
<path fill-rule="evenodd"  fill="rgb(16, 142, 66)"
 d="M225.000,106.999 L154.000,106.999 C149.906,106.999 149.827,103.244 149.827,103.244 C149.827,103.244 149.000,104.981 149.000,105.999 C149.000,108.761 151.239,110.999 154.000,110.999 L225.000,110.999 C227.761,110.999 229.999,108.761 229.999,105.999 C229.999,104.917 229.072,103.097 229.072,103.097 C229.072,103.097 228.912,106.999 225.000,106.999 Z"/>
<path fill-rule="evenodd"  fill="rgb(23, 204, 95)"
 d="M152.998,111.000 L224.998,111.000 C227.760,111.000 229.999,113.238 229.999,116.000 C229.999,118.761 227.760,121.000 224.998,121.000 L152.998,121.000 C150.237,121.000 147.998,118.761 147.998,116.000 C147.998,113.238 150.237,111.000 152.998,111.000 Z"/>
<path fill-rule="evenodd"  fill="rgb(16, 142, 66)"
 d="M152.998,116.999 L224.998,116.999 C229.091,116.999 229.170,113.244 229.170,113.244 C229.170,113.244 229.998,114.981 229.998,115.999 C229.998,118.760 227.759,120.999 224.998,120.999 L152.998,120.999 C150.236,120.999 147.997,118.760 147.997,115.999 C147.997,114.917 148.925,113.097 148.925,113.097 C148.925,113.097 149.085,116.999 152.998,116.999 Z"/>
<path fill-rule="evenodd"  fill="rgb(23, 204, 95)"
 d="M74.998,111.000 L145.999,111.000 C148.760,111.000 150.999,113.238 150.999,116.000 L150.999,116.000 C150.999,118.761 148.760,121.000 145.999,121.000 L74.998,121.000 C72.237,121.000 69.999,118.761 69.999,116.000 L69.999,116.000 C69.999,113.238 72.237,111.000 74.998,111.000 Z"/>
<path fill-rule="evenodd"  fill="rgb(16, 142, 66)"
 d="M74.996,116.999 L145.997,116.999 C150.091,116.999 150.169,113.244 150.169,113.244 C150.169,113.244 150.997,114.981 150.997,115.999 C150.997,118.760 148.758,120.999 145.997,120.999 L74.996,120.999 C72.236,120.999 69.997,118.760 69.997,115.999 C69.997,114.917 70.924,113.097 70.924,113.097 C70.924,113.097 71.084,116.999 74.996,116.999 Z"/>
<path fill-rule="evenodd"  fill="rgb(23, 204, 95)"
 d="M74.998,121.000 L146.999,121.000 C149.759,121.000 151.998,123.238 151.998,126.000 C151.998,128.761 149.759,131.000 146.999,131.000 L74.998,131.000 C72.237,131.000 69.999,128.761 69.999,126.000 C69.999,123.238 72.237,121.000 74.998,121.000 Z"/>
<path fill-rule="evenodd"  fill="rgb(16, 142, 66)"
 d="M147.000,126.999 L75.000,126.999 C70.907,126.999 70.828,123.244 70.828,123.244 C70.828,123.244 70.000,124.980 70.000,125.999 C70.000,128.760 72.239,130.999 75.000,130.999 L147.000,130.999 C149.761,130.999 152.000,128.760 152.000,125.999 C152.000,124.917 151.073,123.097 151.073,123.097 C151.073,123.097 150.912,126.999 147.000,126.999 Z"/>
<path fill-rule="evenodd"  fill="rgb(23, 204, 95)"
 d="M153.998,121.000 L224.999,121.000 C227.760,121.000 229.999,123.238 229.999,126.000 L229.999,126.000 C229.999,128.761 227.760,131.000 224.999,131.000 L153.998,131.000 C151.237,131.000 148.999,128.761 148.999,126.000 L148.999,126.000 C148.999,123.238 151.237,121.000 153.998,121.000 Z"/>
<path fill-rule="evenodd"  fill="rgb(16, 142, 66)"
 d="M225.000,126.999 L154.000,126.999 C149.906,126.999 149.827,123.244 149.827,123.244 C149.827,123.244 149.000,124.980 149.000,125.999 C149.000,128.760 151.239,130.999 154.000,130.999 L225.000,130.999 C227.761,130.999 229.999,128.760 229.999,125.999 C229.999,124.917 229.072,123.097 229.072,123.097 C229.072,123.097 228.912,126.999 225.000,126.999 Z"/>
<path fill-rule="evenodd"  fill="rgb(23, 204, 95)"
 d="M173.997,30.999 L224.997,30.999 C227.759,30.999 229.998,33.237 229.998,35.999 L229.998,35.999 C229.998,38.760 227.759,40.999 224.997,40.999 L129.998,40.999 L173.997,30.999 Z"/>
<path fill-rule="evenodd"  fill="rgb(16, 142, 66)"
 d="M149.255,36.999 L224.998,36.999 C229.091,36.999 229.170,33.244 229.170,33.244 C229.170,33.244 229.998,34.980 229.998,35.999 C229.998,38.760 227.759,40.999 224.998,40.999 L152.998,40.999 C150.236,40.999 125.998,41.000 125.998,41.000 L149.255,36.999 Z"/>
<path fill-rule="evenodd"  fill="rgb(23, 204, 95)"
 d="M74.996,30.999 L169.997,30.999 L125.997,40.999 L74.996,40.999 C72.236,40.999 69.997,38.760 69.997,35.999 L69.997,35.999 C69.997,33.237 72.236,30.999 74.996,30.999 Z"/>
<path fill-rule="evenodd"  fill="rgb(16, 142, 66)"
 d="M74.996,36.999 L165.997,36.999 L145.997,40.999 L74.996,40.999 C72.236,40.999 69.997,38.760 69.997,35.999 C69.997,34.917 70.924,33.097 70.924,33.097 C70.924,33.097 71.084,36.999 74.996,36.999 Z"/>
<path fill-rule="evenodd"  fill="rgb(23, 204, 95)"
 d="M173.997,40.999 L224.997,40.999 C227.759,40.999 229.998,43.237 229.998,45.999 L229.998,45.999 C229.998,48.760 227.759,50.999 224.997,50.999 L129.998,50.999 L173.997,40.999 Z"/>
<path fill-rule="evenodd"  fill="rgb(16, 142, 66)"
 d="M149.255,46.999 L224.998,46.999 C229.091,46.999 229.170,43.244 229.170,43.244 C229.170,43.244 229.998,44.980 229.998,45.999 C229.998,48.760 227.759,50.999 224.998,50.999 L152.998,50.999 C150.236,50.999 125.998,51.000 125.998,51.000 L149.255,46.999 Z"/>
<path fill-rule="evenodd"  fill="rgb(23, 204, 95)"
 d="M74.996,40.999 L169.997,40.999 L125.997,50.999 L74.996,50.999 C72.236,50.999 69.997,48.760 69.997,45.999 L69.997,45.999 C69.997,43.237 72.236,40.999 74.996,40.999 Z"/>
<path fill-rule="evenodd"  fill="rgb(16, 142, 66)"
 d="M74.996,46.999 L165.997,46.999 L145.997,50.999 L74.996,50.999 C72.236,50.999 69.997,48.760 69.997,45.999 C69.997,44.917 70.924,43.097 70.924,43.097 C70.924,43.097 71.084,46.999 74.996,46.999 Z"/>
<path fill-rule="evenodd"  fill="rgb(23, 204, 95)"
 d="M173.997,50.999 L224.997,50.999 C227.759,50.999 229.998,53.237 229.998,55.999 L229.998,55.999 C229.998,58.760 227.759,60.999 224.997,60.999 L129.998,60.999 L173.997,50.999 Z"/>
<path fill-rule="evenodd"  fill="rgb(16, 142, 66)"
 d="M149.255,56.999 L224.998,56.999 C229.091,56.999 229.170,53.244 229.170,53.244 C229.170,53.244 229.998,54.980 229.998,55.999 C229.998,58.760 227.759,60.999 224.998,60.999 L152.998,60.999 C150.236,60.999 125.998,61.000 125.998,61.000 L149.255,56.999 Z"/>
<path fill-rule="evenodd"  fill="rgb(23, 204, 95)"
 d="M74.996,50.999 L169.997,50.999 L125.997,60.999 L74.996,60.999 C72.236,60.999 69.997,58.760 69.997,55.999 L69.997,55.999 C69.997,53.237 72.236,50.999 74.996,50.999 Z"/>
<path fill-rule="evenodd"  fill="rgb(16, 142, 66)"
 d="M74.996,56.999 L165.997,56.999 L145.997,60.999 L74.996,60.999 C72.236,60.999 69.997,58.760 69.997,55.999 C69.997,54.917 70.924,53.097 70.924,53.097 C70.924,53.097 71.084,56.999 74.996,56.999 Z"/>
<path fill-rule="evenodd"  fill="rgb(23, 204, 95)"
 d="M173.997,60.999 L224.997,60.999 C227.759,60.999 229.998,63.237 229.998,65.999 L229.998,65.999 C229.998,68.760 227.759,70.999 224.997,70.999 L129.998,70.999 L173.997,60.999 Z"/>
<path fill-rule="evenodd"  fill="rgb(16, 142, 66)"
 d="M149.255,66.999 L224.998,66.999 C229.091,66.999 229.170,63.244 229.170,63.244 C229.170,63.244 229.998,64.980 229.998,65.999 C229.998,68.760 227.759,70.999 224.998,70.999 L152.998,70.999 C150.236,70.999 125.998,71.000 125.998,71.000 L149.255,66.999 Z"/>
<path fill-rule="evenodd"  fill="rgb(23, 204, 95)"
 d="M74.996,60.999 L169.997,60.999 L125.997,70.999 L74.996,70.999 C72.236,70.999 69.997,68.760 69.997,65.999 L69.997,65.999 C69.997,63.237 72.236,60.999 74.996,60.999 Z"/>
<path fill-rule="evenodd"  fill="rgb(16, 142, 66)"
 d="M74.996,66.999 L165.997,66.999 L145.997,70.999 L74.996,70.999 C72.236,70.999 69.997,68.760 69.997,65.999 C69.997,64.917 70.924,63.097 70.924,63.097 C70.924,63.097 71.084,66.999 74.996,66.999 Z"/>
<path fill-rule="evenodd"  fill="rgb(23, 204, 95)"
 d="M173.997,70.999 L224.997,70.999 C227.759,70.999 229.998,73.237 229.998,75.999 L229.998,75.999 C229.998,78.760 227.759,80.999 224.997,80.999 L129.998,80.999 L173.997,70.999 Z"/>
<path fill-rule="evenodd"  fill="rgb(16, 142, 66)"
 d="M149.255,76.999 L224.998,76.999 C229.091,76.999 229.170,73.244 229.170,73.244 C229.170,73.244 229.998,74.980 229.998,75.999 C229.998,78.760 227.759,80.999 224.998,80.999 L152.998,80.999 C150.236,80.999 125.998,81.000 125.998,81.000 L149.255,76.999 Z"/>
<path fill-rule="evenodd"  fill="rgb(23, 204, 95)"
 d="M74.996,70.999 L169.997,70.999 L125.997,80.999 L74.996,80.999 C72.236,80.999 69.997,78.760 69.997,75.999 L69.997,75.999 C69.997,73.237 72.236,70.999 74.996,70.999 Z"/>
<path fill-rule="evenodd"  fill="rgb(16, 142, 66)"
 d="M74.996,76.999 L165.997,76.999 L145.997,80.999 L74.996,80.999 C72.236,80.999 69.997,78.760 69.997,75.999 C69.997,74.917 70.924,73.097 70.924,73.097 C70.924,73.097 71.084,76.999 74.996,76.999 Z"/>
<path fill-rule="evenodd"  fill="rgb(23, 204, 95)"
 d="M244.998,71.000 C247.761,71.000 249.999,73.239 249.999,76.000 C249.999,78.761 247.761,81.000 244.998,81.000 C242.237,81.000 239.998,78.761 239.998,76.000 C239.998,73.239 242.237,71.000 244.998,71.000 Z"/>
<path fill-rule="evenodd"  fill="rgb(153, 153, 153)"
 d="M246.998,68.001 L246.998,38.001 L250.998,38.001 L244.998,31.000 L238.998,38.001 L242.998,38.001 L242.998,68.001 L246.998,68.001 Z"/>
</svg>
