<svg 
 xmlns="http://www.w3.org/2000/svg"
 xmlns:xlink="http://www.w3.org/1999/xlink"
 width="300px" height="147px">
<path fill-rule="evenodd"  fill="none"
 d="M-0.001,-0.000 L299.999,-0.000 L299.999,147.000 L-0.001,147.000 L-0.001,-0.000 Z"/>
<path fill-rule="evenodd"  fill="rgb(23, 204, 95)"
 d="M149.998,30.999 L224.998,30.999 C227.759,30.999 229.998,33.237 229.998,35.999 L229.998,35.999 C229.998,38.761 227.759,40.999 224.998,40.999 L149.998,40.999 C147.236,40.999 144.997,38.761 144.997,35.999 L144.997,35.999 C144.997,33.237 147.236,30.999 149.998,30.999 Z"/>
<path fill-rule="evenodd"  fill="rgb(16, 142, 66)"
 d="M149.998,36.999 L224.998,36.999 C229.091,36.999 229.171,33.244 229.171,33.244 C229.171,33.244 229.998,34.981 229.998,35.999 C229.998,38.761 227.759,40.999 224.998,40.999 L149.998,40.999 C147.237,40.999 144.997,38.761 144.997,35.999 C144.997,34.917 145.925,33.098 145.925,33.098 C145.925,33.098 146.085,36.999 149.998,36.999 Z"/>
<path fill-rule="evenodd"  fill="rgb(23, 204, 95)"
 d="M74.997,30.999 L133.998,30.999 C136.759,30.999 138.998,33.237 138.998,35.999 L138.998,35.999 C138.998,38.761 136.759,40.999 133.998,40.999 L74.997,40.999 C72.236,40.999 69.997,38.761 69.997,35.999 L69.997,35.999 C69.997,33.237 72.236,30.999 74.997,30.999 Z"/>
<path fill-rule="evenodd"  fill="rgb(16, 142, 66)"
 d="M74.997,36.999 L133.998,36.999 C138.091,36.999 138.170,33.244 138.170,33.244 C138.170,33.244 138.998,34.981 138.998,35.999 C138.998,38.761 136.759,40.999 133.998,40.999 L74.997,40.999 C72.236,40.999 69.997,38.761 69.997,35.999 C69.997,34.917 70.925,33.098 70.925,33.098 C70.925,33.098 71.085,36.999 74.997,36.999 Z"/>
<path fill-rule="evenodd"  fill="rgb(23, 204, 95)"
 d="M74.997,40.999 L144.998,40.999 C147.759,40.999 149.998,43.238 149.998,45.999 C149.998,48.760 147.759,50.999 144.998,50.999 L74.997,50.999 C72.236,50.999 69.997,48.760 69.997,45.999 C69.997,43.238 72.236,40.999 74.997,40.999 Z"/>
<path fill-rule="evenodd"  fill="rgb(16, 142, 66)"
 d="M74.997,46.999 L144.997,46.999 C149.091,46.999 149.171,43.244 149.171,43.244 C149.171,43.244 149.998,44.981 149.998,45.999 C149.998,48.760 147.759,50.999 144.997,50.999 L74.997,50.999 C72.236,50.999 69.997,48.760 69.997,45.999 C69.997,44.917 70.925,43.098 70.925,43.098 C70.925,43.098 71.085,46.999 74.997,46.999 Z"/>
<path fill-rule="evenodd"  fill="rgb(23, 204, 95)"
 d="M74.997,50.999 L139.998,50.999 C142.759,50.999 144.997,53.238 144.997,55.999 C144.997,58.760 142.759,60.999 139.998,60.999 L74.997,60.999 C72.236,60.999 69.997,58.760 69.997,55.999 C69.997,53.238 72.236,50.999 74.997,50.999 Z"/>
<path fill-rule="evenodd"  fill="rgb(16, 142, 66)"
 d="M74.997,56.999 L139.998,56.999 C144.092,56.999 144.171,53.244 144.171,53.244 C144.171,53.244 144.997,54.981 144.997,55.999 C144.997,58.761 142.758,60.999 139.998,60.999 L74.997,60.999 C72.236,60.999 69.997,58.761 69.997,55.999 C69.997,54.917 70.925,53.097 70.925,53.097 C70.925,53.097 71.085,56.999 74.997,56.999 Z"/>
<path fill-rule="evenodd"  fill="rgb(23, 204, 95)"
 d="M74.997,60.999 L134.998,60.999 C137.759,60.999 139.998,63.237 139.998,65.999 L139.998,65.999 C139.998,68.760 137.759,70.999 134.998,70.999 L74.997,70.999 C72.236,70.999 69.997,68.760 69.997,65.999 L69.997,65.999 C69.997,63.237 72.236,60.999 74.997,60.999 Z"/>
<path fill-rule="evenodd"  fill="rgb(16, 142, 66)"
 d="M74.997,66.999 L134.997,66.999 C139.091,66.999 139.171,63.244 139.171,63.244 C139.171,63.244 139.998,64.981 139.998,65.999 C139.998,68.760 137.759,70.999 134.997,70.999 L74.997,70.999 C72.236,70.999 69.997,68.760 69.997,65.999 C69.997,64.917 70.925,63.098 70.925,63.098 C70.925,63.098 71.085,66.999 74.997,66.999 Z"/>
<path fill-rule="evenodd"  fill="rgb(23, 204, 95)"
 d="M74.997,70.999 L139.998,70.999 C142.759,70.999 144.997,73.238 144.997,75.999 L144.997,75.999 C144.997,78.760 142.759,80.999 139.998,80.999 L74.997,80.999 C72.236,80.999 69.997,78.760 69.997,75.999 L69.997,75.999 C69.997,73.238 72.236,70.999 74.997,70.999 Z"/>
<path fill-rule="evenodd"  fill="rgb(16, 142, 66)"
 d="M74.997,76.999 L139.998,76.999 C144.092,76.999 144.171,73.244 144.171,73.244 C144.171,73.244 144.997,74.981 144.997,75.999 C144.997,78.761 142.758,80.999 139.998,80.999 L74.997,80.999 C72.236,80.999 69.997,78.761 69.997,75.999 C69.997,74.917 70.925,73.098 70.925,73.098 C70.925,73.098 71.085,76.999 74.997,76.999 Z"/>
<path fill-rule="evenodd"  fill="rgb(23, 204, 95)"
 d="M74.997,80.999 L144.998,80.999 C147.759,80.999 149.998,83.238 149.998,85.999 C149.998,88.760 147.759,90.999 144.998,90.999 L74.997,90.999 C72.236,90.999 69.997,88.760 69.997,85.999 C69.997,83.238 72.236,80.999 74.997,80.999 Z"/>
<path fill-rule="evenodd"  fill="rgb(16, 142, 66)"
 d="M74.997,86.999 L144.997,86.999 C149.091,86.999 149.171,83.244 149.171,83.244 C149.171,83.244 149.998,84.981 149.998,85.999 C149.998,88.761 147.759,90.999 144.997,90.999 L74.997,90.999 C72.236,90.999 69.997,88.761 69.997,85.999 C69.997,84.917 70.925,83.097 70.925,83.097 C70.925,83.097 71.085,86.999 74.997,86.999 Z"/>
<path fill-rule="evenodd"  fill="rgb(23, 204, 95)"
 d="M74.997,90.999 L149.998,90.999 C152.760,90.999 154.998,93.237 154.998,95.999 L154.998,95.999 C154.998,98.760 152.760,100.999 149.998,100.999 L74.997,100.999 C72.236,100.999 69.997,98.760 69.997,95.999 L69.997,95.999 C69.997,93.237 72.236,90.999 74.997,90.999 Z"/>
<path fill-rule="evenodd"  fill="rgb(16, 142, 66)"
 d="M74.997,96.999 L149.998,96.999 C154.091,96.999 154.171,93.244 154.171,93.244 C154.171,93.244 154.998,94.981 154.998,95.999 C154.998,98.760 152.759,100.999 149.998,100.999 L74.997,100.999 C72.236,100.999 69.997,98.760 69.997,95.999 C69.997,94.917 70.925,93.098 70.925,93.098 C70.925,93.098 71.085,96.999 74.997,96.999 Z"/>
<path fill-rule="evenodd"  fill="rgb(23, 204, 95)"
 d="M74.997,100.999 L154.998,100.999 C157.759,100.999 159.998,103.238 159.998,105.999 C159.998,108.760 157.759,110.999 154.998,110.999 L74.997,110.999 C72.236,110.999 69.997,108.760 69.997,105.999 C69.997,103.238 72.236,100.999 74.997,100.999 Z"/>
<path fill-rule="evenodd"  fill="rgb(16, 142, 66)"
 d="M74.997,106.999 L154.998,106.999 C159.091,106.999 159.171,103.244 159.171,103.244 C159.171,103.244 159.998,104.981 159.998,105.999 C159.998,108.761 157.759,110.999 154.998,110.999 L74.997,110.999 C72.236,110.999 69.997,108.761 69.997,105.999 C69.997,104.917 70.925,103.098 70.925,103.098 C70.925,103.098 71.085,106.999 74.997,106.999 Z"/>
<path fill-rule="evenodd"  fill="rgb(23, 204, 95)"
 d="M74.997,110.999 L149.998,110.999 C152.760,110.999 154.998,113.238 154.998,115.999 C154.998,118.760 152.760,120.999 149.998,120.999 L74.997,120.999 C72.236,120.999 69.997,118.760 69.997,115.999 C69.997,113.238 72.236,110.999 74.997,110.999 Z"/>
<path fill-rule="evenodd"  fill="rgb(16, 142, 66)"
 d="M74.997,116.999 L149.998,116.999 C154.091,116.999 154.171,113.244 154.171,113.244 C154.171,113.244 154.998,114.981 154.998,115.999 C154.998,118.761 152.759,120.999 149.998,120.999 L74.997,120.999 C72.236,120.999 69.997,118.761 69.997,115.999 C69.997,114.918 70.925,113.098 70.925,113.098 C70.925,113.098 71.085,116.999 74.997,116.999 Z"/>
<path fill-rule="evenodd"  fill="rgb(23, 204, 95)"
 d="M74.997,120.999 L144.998,120.999 C147.759,120.999 149.998,123.237 149.998,125.999 L149.998,125.999 C149.998,128.760 147.759,130.999 144.998,130.999 L74.997,130.999 C72.236,130.999 69.997,128.760 69.997,125.999 L69.997,125.999 C69.997,123.237 72.236,120.999 74.997,120.999 Z"/>
<path fill-rule="evenodd"  fill="rgb(16, 142, 66)"
 d="M74.997,126.999 L144.997,126.999 C149.091,126.999 149.171,123.244 149.171,123.244 C149.171,123.244 149.998,124.981 149.998,125.999 C149.998,128.760 147.759,130.999 144.997,130.999 L74.997,130.999 C72.236,130.999 69.997,128.760 69.997,125.999 C69.997,124.917 70.925,123.098 70.925,123.098 C70.925,123.098 71.085,126.999 74.997,126.999 Z"/>
<path fill-rule="evenodd"  fill="rgb(23, 204, 95)"
 d="M154.998,41.000 L224.999,41.000 C227.759,41.000 229.998,43.238 229.998,46.000 C229.998,48.761 227.759,50.999 224.999,50.999 L154.998,50.999 C152.236,50.999 149.998,48.761 149.998,46.000 C149.998,43.238 152.236,41.000 154.998,41.000 Z"/>
<path fill-rule="evenodd"  fill="rgb(16, 142, 66)"
 d="M224.999,46.999 L154.998,46.999 C150.905,46.999 150.825,43.244 150.825,43.244 C150.825,43.244 149.998,44.981 149.998,45.999 C149.998,48.760 152.238,50.999 154.998,50.999 L224.999,50.999 C227.760,50.999 229.999,48.760 229.999,45.999 C229.999,44.917 229.071,43.098 229.071,43.098 C229.071,43.098 228.912,46.999 224.999,46.999 Z"/>
<path fill-rule="evenodd"  fill="rgb(23, 204, 95)"
 d="M149.998,50.999 L224.999,50.999 C227.759,50.999 229.998,53.238 229.998,55.999 L229.998,56.000 C229.998,58.761 227.759,61.000 224.999,61.000 L149.998,61.000 C147.237,61.000 144.998,58.761 144.998,56.000 L144.998,55.999 C144.998,53.238 147.237,50.999 149.998,50.999 Z"/>
<path fill-rule="evenodd"  fill="rgb(16, 142, 66)"
 d="M224.999,56.999 L149.998,56.999 C145.905,56.999 145.826,53.244 145.826,53.244 C145.826,53.244 144.999,54.981 144.999,55.999 C144.999,58.761 147.237,60.999 149.998,60.999 L224.999,60.999 C227.760,60.999 229.999,58.761 229.999,55.999 C229.999,54.917 229.071,53.097 229.071,53.097 C229.071,53.097 228.912,56.999 224.999,56.999 Z"/>
<path fill-rule="evenodd"  fill="rgb(23, 204, 95)"
 d="M144.998,61.000 L224.999,61.000 C227.759,61.000 229.998,63.238 229.998,66.000 L229.998,66.000 C229.998,68.761 227.759,71.000 224.999,71.000 L144.998,71.000 C142.236,71.000 139.998,68.761 139.998,66.000 L139.998,66.000 C139.998,63.238 142.236,61.000 144.998,61.000 Z"/>
<path fill-rule="evenodd"  fill="rgb(16, 142, 66)"
 d="M224.999,66.999 L144.999,66.999 C140.906,66.999 140.825,63.244 140.825,63.244 C140.825,63.244 139.998,64.981 139.998,65.999 C139.998,68.760 142.237,70.999 144.999,70.999 L224.999,70.999 C227.760,70.999 229.999,68.760 229.999,65.999 C229.999,64.917 229.071,63.098 229.071,63.098 C229.071,63.098 228.912,66.999 224.999,66.999 Z"/>
<path fill-rule="evenodd"  fill="rgb(23, 204, 95)"
 d="M149.998,71.000 L224.999,71.000 C227.759,71.000 229.998,73.238 229.998,76.000 C229.998,78.761 227.759,80.999 224.999,80.999 L149.998,80.999 C147.237,80.999 144.998,78.761 144.998,76.000 C144.998,73.238 147.237,71.000 149.998,71.000 Z"/>
<path fill-rule="evenodd"  fill="rgb(16, 142, 66)"
 d="M224.999,76.999 L149.998,76.999 C145.905,76.999 145.826,73.244 145.826,73.244 C145.826,73.244 144.999,74.981 144.999,75.999 C144.999,78.761 147.237,80.999 149.998,80.999 L224.999,80.999 C227.760,80.999 229.999,78.761 229.999,75.999 C229.999,74.917 229.071,73.098 229.071,73.098 C229.071,73.098 228.912,76.999 224.999,76.999 Z"/>
<path fill-rule="evenodd"  fill="rgb(23, 204, 95)"
 d="M154.998,80.999 L224.999,80.999 C227.759,80.999 229.998,83.238 229.998,85.999 L229.998,85.999 C229.998,88.761 227.759,91.000 224.999,91.000 L154.998,91.000 C152.236,91.000 149.998,88.761 149.998,85.999 L149.998,85.999 C149.998,83.238 152.236,80.999 154.998,80.999 Z"/>
<path fill-rule="evenodd"  fill="rgb(16, 142, 66)"
 d="M224.999,86.999 L154.998,86.999 C150.905,86.999 150.825,83.244 150.825,83.244 C150.825,83.244 149.998,84.981 149.998,85.999 C149.998,88.761 152.238,90.999 154.998,90.999 L224.999,90.999 C227.760,90.999 229.999,88.761 229.999,85.999 C229.999,84.917 229.071,83.097 229.071,83.097 C229.071,83.097 228.912,86.999 224.999,86.999 Z"/>
<path fill-rule="evenodd"  fill="rgb(23, 204, 95)"
 d="M159.998,91.000 L224.999,91.000 C227.759,91.000 229.998,93.238 229.998,95.999 L229.998,95.999 C229.998,98.761 227.759,101.000 224.999,101.000 L159.998,101.000 C157.236,101.000 154.998,98.761 154.998,95.999 L154.998,95.999 C154.998,93.238 157.236,91.000 159.998,91.000 Z"/>
<path fill-rule="evenodd"  fill="rgb(16, 142, 66)"
 d="M224.999,96.999 L159.999,96.999 C155.905,96.999 155.825,93.244 155.825,93.244 C155.825,93.244 154.998,94.981 154.998,95.999 C154.998,98.760 157.238,100.999 159.999,100.999 L224.999,100.999 C227.760,100.999 229.999,98.760 229.999,95.999 C229.999,94.917 229.071,93.098 229.071,93.098 C229.071,93.098 228.912,96.999 224.999,96.999 Z"/>
<path fill-rule="evenodd"  fill="rgb(23, 204, 95)"
 d="M164.998,101.000 L224.999,101.000 C227.759,101.000 229.998,103.238 229.998,105.999 L229.998,105.999 C229.998,108.761 227.759,111.000 224.999,111.000 L164.998,111.000 C162.237,111.000 159.998,108.761 159.998,105.999 L159.998,105.999 C159.998,103.238 162.237,101.000 164.998,101.000 Z"/>
<path fill-rule="evenodd"  fill="rgb(16, 142, 66)"
 d="M224.999,106.999 L164.999,106.999 C160.905,106.999 160.826,103.244 160.826,103.244 C160.826,103.244 159.999,104.981 159.999,105.999 C159.999,108.761 162.238,110.999 164.999,110.999 L224.999,110.999 C227.760,110.999 229.999,108.761 229.999,105.999 C229.999,104.917 229.071,103.098 229.071,103.098 C229.071,103.098 228.912,106.999 224.999,106.999 Z"/>
<path fill-rule="evenodd"  fill="rgb(23, 204, 95)"
 d="M159.998,111.000 L224.999,111.000 C227.759,111.000 229.998,113.238 229.998,115.999 L229.998,115.999 C229.998,118.761 227.759,121.000 224.999,121.000 L159.998,121.000 C157.236,121.000 154.998,118.761 154.998,115.999 L154.998,115.999 C154.998,113.238 157.236,111.000 159.998,111.000 Z"/>
<path fill-rule="evenodd"  fill="rgb(16, 142, 66)"
 d="M224.999,116.999 L159.999,116.999 C155.905,116.999 155.825,113.244 155.825,113.244 C155.825,113.244 154.998,114.981 154.998,115.999 C154.998,118.761 157.238,120.999 159.999,120.999 L224.999,120.999 C227.760,120.999 229.999,118.761 229.999,115.999 C229.999,114.918 229.071,113.098 229.071,113.098 C229.071,113.098 228.912,116.999 224.999,116.999 Z"/>
<path fill-rule="evenodd"  fill="rgb(23, 204, 95)"
 d="M154.998,121.000 L224.999,121.000 C227.759,121.000 229.998,123.238 229.998,125.999 L229.998,126.000 C229.998,128.761 227.759,131.000 224.999,131.000 L154.998,131.000 C152.236,131.000 149.998,128.761 149.998,126.000 L149.998,125.999 C149.998,123.238 152.236,121.000 154.998,121.000 Z"/>
<path fill-rule="evenodd"  fill="rgb(16, 142, 66)"
 d="M224.999,126.999 L154.998,126.999 C150.905,126.999 150.825,123.244 150.825,123.244 C150.825,123.244 149.998,124.981 149.998,125.999 C149.998,128.760 152.238,130.999 154.998,130.999 L224.999,130.999 C227.760,130.999 229.999,128.760 229.999,125.999 C229.999,124.917 229.071,123.098 229.071,123.098 C229.071,123.098 228.912,126.999 224.999,126.999 Z"/>
<path fill-rule="evenodd"  fill="rgb(255, 255, 255)"
 d="M151.201,24.996 C150.759,24.996 150.401,24.612 150.401,24.139 L150.401,9.853 C150.401,9.380 150.759,8.996 151.201,8.996 C151.643,8.996 152.001,9.380 152.001,9.853 L152.001,24.139 C152.001,24.612 151.643,24.996 151.201,24.996 ZM146.966,20.458 C146.652,20.773 146.160,20.764 145.855,20.438 C145.550,20.111 145.542,19.585 145.835,19.248 L147.135,17.854 L136.866,17.854 L138.167,19.248 C138.471,19.584 138.466,20.119 138.157,20.450 C137.848,20.780 137.349,20.784 137.035,20.458 L134.372,17.605 C134.297,17.525 134.237,17.429 134.196,17.322 C134.168,17.250 134.162,17.174 134.154,17.098 C134.149,17.063 134.134,17.032 134.134,16.996 C134.134,16.958 134.150,16.926 134.154,16.889 C134.163,16.815 134.169,16.741 134.196,16.671 C134.237,16.563 134.297,16.467 134.373,16.386 L137.035,13.533 C137.351,13.219 137.843,13.228 138.147,13.554 C138.451,13.881 138.460,14.406 138.166,14.744 L136.865,16.139 L147.135,16.139 L145.834,14.744 C145.531,14.408 145.536,13.873 145.845,13.543 C146.153,13.213 146.652,13.207 146.966,13.533 L149.633,16.391 C149.945,16.725 149.945,17.267 149.633,17.602 L146.966,20.458 ZM132.801,24.996 C132.359,24.996 132.001,24.612 132.001,24.139 L132.001,9.853 C132.001,9.380 132.359,8.996 132.801,8.996 C133.243,8.996 133.601,9.380 133.601,9.853 L133.601,24.139 C133.601,24.612 133.243,24.996 132.801,24.996 Z"/>
</svg>
