<svg 
 xmlns="http://www.w3.org/2000/svg"
 xmlns:xlink="http://www.w3.org/1999/xlink"
 width="300px" height="147px">
<path fill-rule="evenodd"  fill="none"
 d="M-0.001,-0.001 L299.999,-0.001 L299.999,146.999 L-0.001,146.999 L-0.001,-0.001 Z"/>
<path fill-rule="evenodd"  fill="rgb(23, 204, 95)"
 d="M114.998,31.000 L139.999,31.000 C142.760,31.000 144.999,33.238 144.999,36.000 L144.999,36.000 C144.999,38.761 142.760,41.000 139.999,41.000 L114.998,41.000 C112.237,41.000 109.999,38.761 109.999,36.000 L109.999,36.000 C109.999,33.238 112.237,31.000 114.998,31.000 Z"/>
<path fill-rule="evenodd"  fill="rgb(16, 142, 66)"
 d="M114.997,36.999 L139.997,36.999 C144.091,36.999 144.170,33.244 144.170,33.244 C144.170,33.244 144.997,34.981 144.997,35.999 C144.997,38.761 142.758,40.999 139.997,40.999 L114.997,40.999 C112.236,40.999 109.998,38.761 109.998,35.999 C109.998,34.917 110.925,33.098 110.925,33.098 C110.925,33.098 111.085,36.999 114.997,36.999 Z"/>
<path fill-rule="evenodd"  fill="rgb(23, 204, 95)"
 d="M109.999,41.000 L140.999,41.000 C143.760,41.000 145.998,43.238 145.998,46.000 C145.998,48.761 143.760,51.000 140.999,51.000 L109.999,51.000 C107.237,51.000 104.998,48.761 104.998,46.000 C104.998,43.238 107.237,41.000 109.999,41.000 Z"/>
<path fill-rule="evenodd"  fill="rgb(16, 142, 66)"
 d="M141.000,46.999 L110.000,46.999 C105.907,46.999 105.827,43.244 105.827,43.244 C105.827,43.244 105.000,44.981 105.000,45.999 C105.000,48.761 107.239,50.999 110.000,50.999 L141.000,50.999 C143.761,50.999 146.000,48.761 146.000,45.999 C146.000,44.917 145.073,43.097 145.073,43.097 C145.073,43.097 144.913,46.999 141.000,46.999 Z"/>
<path fill-rule="evenodd"  fill="rgb(23, 204, 95)"
 d="M103.998,51.000 L139.999,51.000 C142.760,51.000 144.999,53.238 144.999,56.000 L144.999,56.000 C144.999,58.761 142.760,61.000 139.999,61.000 L103.998,61.000 C101.237,61.000 98.999,58.761 98.999,56.000 L98.999,56.000 C98.999,53.238 101.237,51.000 103.998,51.000 Z"/>
<path fill-rule="evenodd"  fill="rgb(16, 142, 66)"
 d="M103.997,56.999 L139.997,56.999 C144.091,56.999 144.170,53.244 144.170,53.244 C144.170,53.244 144.997,54.981 144.997,55.999 C144.997,58.761 142.758,60.999 139.997,60.999 L103.997,60.999 C101.236,60.999 98.997,58.761 98.997,55.999 C98.997,54.917 99.925,53.097 99.925,53.097 C99.925,53.097 100.085,56.999 103.997,56.999 Z"/>
<path fill-rule="evenodd"  fill="rgb(23, 204, 95)"
 d="M114.998,61.000 L140.999,61.000 C143.760,61.000 145.998,63.238 145.998,66.000 C145.998,68.761 143.760,71.000 140.999,71.000 L114.998,71.000 C112.237,71.000 109.999,68.761 109.999,66.000 C109.999,63.238 112.237,61.000 114.998,61.000 Z"/>
<path fill-rule="evenodd"  fill="rgb(16, 142, 66)"
 d="M141.000,66.999 L115.000,66.999 C110.906,66.999 110.828,63.244 110.828,63.244 C110.828,63.244 110.000,64.981 110.000,65.999 C110.000,68.761 112.239,70.999 115.000,70.999 L141.000,70.999 C143.761,70.999 146.000,68.761 146.000,65.999 C146.000,64.917 145.073,63.098 145.073,63.098 C145.073,63.098 144.913,66.999 141.000,66.999 Z"/>
<path fill-rule="evenodd"  fill="rgb(23, 204, 95)"
 d="M119.999,71.000 L139.999,71.000 C142.760,71.000 144.999,73.238 144.999,76.000 L144.999,76.000 C144.999,78.761 142.760,81.000 139.999,81.000 L119.999,81.000 C117.237,81.000 114.998,78.761 114.998,76.000 L114.998,76.000 C114.998,73.238 117.237,71.000 119.999,71.000 Z"/>
<path fill-rule="evenodd"  fill="rgb(16, 142, 66)"
 d="M119.997,76.999 L139.997,76.999 C144.091,76.999 144.170,73.244 144.170,73.244 C144.170,73.244 144.997,74.981 144.997,75.999 C144.997,78.761 142.758,80.999 139.997,80.999 L119.997,80.999 C117.236,80.999 114.997,78.761 114.997,75.999 C114.997,74.917 115.924,73.098 115.924,73.098 C115.924,73.098 116.085,76.999 119.997,76.999 Z"/>
<path fill-rule="evenodd"  fill="rgb(23, 204, 95)"
 d="M124.999,81.000 L140.999,81.000 C143.760,81.000 145.998,83.238 145.998,86.000 C145.998,88.761 143.760,91.000 140.999,91.000 L124.999,91.000 C122.237,91.000 119.999,88.761 119.999,86.000 C119.999,83.238 122.237,81.000 124.999,81.000 Z"/>
<path fill-rule="evenodd"  fill="rgb(16, 142, 66)"
 d="M141.000,86.999 L125.000,86.999 C120.906,86.999 120.827,83.244 120.827,83.244 C120.827,83.244 119.999,84.981 119.999,85.999 C119.999,88.761 122.239,90.999 125.000,90.999 L141.000,90.999 C143.761,90.999 146.000,88.761 146.000,85.999 C146.000,84.917 145.073,83.098 145.073,83.098 C145.073,83.098 144.913,86.999 141.000,86.999 Z"/>
<path fill-rule="evenodd"  fill="rgb(23, 204, 95)"
 d="M109.998,91.000 L139.999,91.000 C142.760,91.000 144.999,93.238 144.999,96.000 L144.999,96.000 C144.999,98.761 142.760,101.000 139.999,101.000 L109.998,101.000 C107.237,101.000 104.998,98.761 104.998,96.000 L104.998,96.000 C104.998,93.238 107.237,91.000 109.998,91.000 Z"/>
<path fill-rule="evenodd"  fill="rgb(16, 142, 66)"
 d="M109.997,96.999 L139.997,96.999 C144.091,96.999 144.170,93.244 144.170,93.244 C144.170,93.244 144.997,94.981 144.997,95.999 C144.997,98.761 142.758,100.999 139.997,100.999 L109.997,100.999 C107.236,100.999 104.997,98.761 104.997,95.999 C104.997,94.917 105.925,93.098 105.925,93.098 C105.925,93.098 106.085,96.999 109.997,96.999 Z"/>
<path fill-rule="evenodd"  fill="rgb(23, 204, 95)"
 d="M106.999,101.000 L140.999,101.000 C143.760,101.000 145.998,103.238 145.998,106.000 C145.998,108.761 143.760,111.000 140.999,111.000 L106.999,111.000 C104.238,111.000 101.999,108.761 101.999,106.000 C101.999,103.238 104.238,101.000 106.999,101.000 Z"/>
<path fill-rule="evenodd"  fill="rgb(16, 142, 66)"
 d="M141.000,106.999 L107.000,106.999 C102.907,106.999 102.827,103.244 102.827,103.244 C102.827,103.244 102.000,104.981 102.000,105.999 C102.000,108.761 104.239,110.999 107.000,110.999 L141.000,110.999 C143.761,110.999 146.000,108.761 146.000,105.999 C146.000,104.917 145.073,103.098 145.073,103.098 C145.073,103.098 144.913,106.999 141.000,106.999 Z"/>
<path fill-rule="evenodd"  fill="rgb(23, 204, 95)"
 d="M103.998,111.000 L139.999,111.000 C142.760,111.000 144.999,113.238 144.999,116.000 L144.999,116.000 C144.999,118.761 142.760,121.000 139.999,121.000 L103.998,121.000 C101.237,121.000 98.999,118.761 98.999,116.000 L98.999,116.000 C98.999,113.238 101.237,111.000 103.998,111.000 Z"/>
<path fill-rule="evenodd"  fill="rgb(16, 142, 66)"
 d="M103.997,116.999 L139.997,116.999 C144.091,116.999 144.170,113.244 144.170,113.244 C144.170,113.244 144.997,114.981 144.997,115.999 C144.997,118.761 142.758,120.999 139.997,120.999 L103.997,120.999 C101.236,120.999 98.997,118.761 98.997,115.999 C98.997,114.917 99.925,113.098 99.925,113.098 C99.925,113.098 100.085,116.999 103.997,116.999 Z"/>
<path fill-rule="evenodd"  fill="rgb(23, 204, 95)"
 d="M119.999,121.000 L140.999,121.000 C143.760,121.000 145.998,123.238 145.998,126.000 C145.998,128.761 143.760,131.000 140.999,131.000 L119.999,131.000 C117.237,131.000 114.998,128.761 114.998,126.000 C114.998,123.238 117.237,121.000 119.999,121.000 Z"/>
<path fill-rule="evenodd"  fill="rgb(16, 142, 66)"
 d="M141.000,126.999 L119.999,126.999 C115.907,126.999 115.827,123.244 115.827,123.244 C115.827,123.244 115.000,124.981 115.000,125.999 C115.000,128.761 117.239,130.999 119.999,130.999 L141.000,130.999 C143.761,130.999 146.000,128.761 146.000,125.999 C146.000,124.917 145.073,123.098 145.073,123.098 C145.073,123.098 144.913,126.999 141.000,126.999 Z"/>
<path fill-rule="evenodd"  fill="rgb(23, 204, 95)"
 d="M74.998,31.000 L104.998,31.000 C107.760,31.000 109.999,33.238 109.999,36.000 L109.999,36.000 C109.999,38.761 107.760,41.000 104.998,41.000 L74.998,41.000 C72.237,41.000 69.999,38.761 69.999,36.000 L69.999,36.000 C69.999,33.238 72.237,31.000 74.998,31.000 Z"/>
<path fill-rule="evenodd"  fill="rgb(16, 142, 66)"
 d="M74.996,36.999 L104.998,36.999 C109.091,36.999 109.170,33.244 109.170,33.244 C109.170,33.244 109.998,34.981 109.998,35.999 C109.998,38.761 107.758,40.999 104.998,40.999 L74.996,40.999 C72.236,40.999 69.997,38.761 69.997,35.999 C69.997,34.917 70.924,33.098 70.924,33.098 C70.924,33.098 71.084,36.999 74.996,36.999 Z"/>
<path fill-rule="evenodd"  fill="rgb(23, 204, 95)"
 d="M74.998,41.000 L99.999,41.000 C102.760,41.000 104.998,43.238 104.998,46.000 L104.998,46.000 C104.998,48.761 102.760,51.000 99.999,51.000 L74.998,51.000 C72.237,51.000 69.999,48.761 69.999,46.000 L69.999,46.000 C69.999,43.238 72.237,41.000 74.998,41.000 Z"/>
<path fill-rule="evenodd"  fill="rgb(16, 142, 66)"
 d="M74.996,46.999 L99.998,46.999 C104.091,46.999 104.170,43.244 104.170,43.244 C104.170,43.244 104.998,44.981 104.998,45.999 C104.998,48.761 102.758,50.999 99.998,50.999 L74.996,50.999 C72.236,50.999 69.997,48.761 69.997,45.999 C69.997,44.917 70.924,43.097 70.924,43.097 C70.924,43.097 71.084,46.999 74.996,46.999 Z"/>
<path fill-rule="evenodd"  fill="rgb(23, 204, 95)"
 d="M74.998,51.000 L93.999,51.000 C96.760,51.000 98.999,53.238 98.999,56.000 L98.999,56.000 C98.999,58.761 96.760,61.000 93.999,61.000 L74.998,61.000 C72.237,61.000 69.999,58.761 69.999,56.000 L69.999,56.000 C69.999,53.238 72.237,51.000 74.998,51.000 Z"/>
<path fill-rule="evenodd"  fill="rgb(16, 142, 66)"
 d="M74.996,56.999 L93.997,56.999 C98.091,56.999 98.170,53.244 98.170,53.244 C98.170,53.244 98.997,54.981 98.997,55.999 C98.997,58.761 96.758,60.999 93.997,60.999 L74.996,60.999 C72.236,60.999 69.997,58.761 69.997,55.999 C69.997,54.917 70.924,53.097 70.924,53.097 C70.924,53.097 71.084,56.999 74.996,56.999 Z"/>
<path fill-rule="evenodd"  fill="rgb(23, 204, 95)"
 d="M74.998,61.000 L104.998,61.000 C107.760,61.000 109.999,63.238 109.999,66.000 L109.999,66.000 C109.999,68.761 107.760,71.000 104.998,71.000 L74.998,71.000 C72.237,71.000 69.999,68.761 69.999,66.000 L69.999,66.000 C69.999,63.238 72.237,61.000 74.998,61.000 Z"/>
<path fill-rule="evenodd"  fill="rgb(16, 142, 66)"
 d="M74.996,66.999 L104.998,66.999 C109.091,66.999 109.170,63.244 109.170,63.244 C109.170,63.244 109.998,64.981 109.998,65.999 C109.998,68.761 107.758,70.999 104.998,70.999 L74.996,70.999 C72.236,70.999 69.997,68.761 69.997,65.999 C69.997,64.917 70.924,63.098 70.924,63.098 C70.924,63.098 71.084,66.999 74.996,66.999 Z"/>
<path fill-rule="evenodd"  fill="rgb(23, 204, 95)"
 d="M74.998,91.000 L99.999,91.000 C102.760,91.000 104.998,93.238 104.998,96.000 L104.998,96.000 C104.998,98.761 102.760,101.000 99.999,101.000 L74.998,101.000 C72.237,101.000 69.999,98.761 69.999,96.000 L69.999,96.000 C69.999,93.238 72.237,91.000 74.998,91.000 Z"/>
<path fill-rule="evenodd"  fill="rgb(16, 142, 66)"
 d="M74.996,96.999 L99.998,96.999 C104.091,96.999 104.170,93.244 104.170,93.244 C104.170,93.244 104.998,94.981 104.998,95.999 C104.998,98.761 102.758,100.999 99.998,100.999 L74.996,100.999 C72.236,100.999 69.997,98.761 69.997,95.999 C69.997,94.917 70.924,93.098 70.924,93.098 C70.924,93.098 71.084,96.999 74.996,96.999 Z"/>
<path fill-rule="evenodd"  fill="rgb(23, 204, 95)"
 d="M74.998,101.000 L96.999,101.000 C99.760,101.000 101.999,103.238 101.999,106.000 L101.999,106.000 C101.999,108.761 99.760,111.000 96.999,111.000 L74.998,111.000 C72.237,111.000 69.999,108.761 69.999,106.000 L69.999,106.000 C69.999,103.238 72.237,101.000 74.998,101.000 Z"/>
<path fill-rule="evenodd"  fill="rgb(16, 142, 66)"
 d="M74.996,106.999 L96.997,106.999 C101.091,106.999 101.170,103.244 101.170,103.244 C101.170,103.244 101.998,104.981 101.998,105.999 C101.998,108.761 99.758,110.999 96.997,110.999 L74.996,110.999 C72.236,110.999 69.997,108.761 69.997,105.999 C69.997,104.917 70.924,103.098 70.924,103.098 C70.924,103.098 71.084,106.999 74.996,106.999 Z"/>
<path fill-rule="evenodd"  fill="rgb(23, 204, 95)"
 d="M74.998,111.000 L93.999,111.000 C96.760,111.000 98.999,113.238 98.999,116.000 L98.999,116.000 C98.999,118.761 96.760,121.000 93.999,121.000 L74.998,121.000 C72.237,121.000 69.999,118.761 69.999,116.000 L69.999,116.000 C69.999,113.238 72.237,111.000 74.998,111.000 Z"/>
<path fill-rule="evenodd"  fill="rgb(16, 142, 66)"
 d="M74.996,116.999 L93.997,116.999 C98.091,116.999 98.170,113.244 98.170,113.244 C98.170,113.244 98.997,114.981 98.997,115.999 C98.997,118.761 96.758,120.999 93.997,120.999 L74.996,120.999 C72.236,120.999 69.997,118.761 69.997,115.999 C69.997,114.917 70.924,113.098 70.924,113.098 C70.924,113.098 71.084,116.999 74.996,116.999 Z"/>
<path fill-rule="evenodd"  fill="rgb(23, 204, 95)"
 d="M74.998,71.000 L109.999,71.000 C112.760,71.000 114.998,73.238 114.998,76.000 L114.998,76.000 C114.998,78.761 112.760,81.000 109.999,81.000 L74.998,81.000 C72.237,81.000 69.999,78.761 69.999,76.000 L69.999,76.000 C69.999,73.238 72.237,71.000 74.998,71.000 Z"/>
<path fill-rule="evenodd"  fill="rgb(16, 142, 66)"
 d="M74.996,76.999 L109.998,76.999 C114.091,76.999 114.170,73.244 114.170,73.244 C114.170,73.244 114.997,74.981 114.997,75.999 C114.997,78.761 112.758,80.999 109.998,80.999 L74.996,80.999 C72.236,80.999 69.997,78.761 69.997,75.999 C69.997,74.917 70.924,73.098 70.924,73.098 C70.924,73.098 71.084,76.999 74.996,76.999 Z"/>
<path fill-rule="evenodd"  fill="rgb(23, 204, 95)"
 d="M74.998,121.000 L109.999,121.000 C112.760,121.000 114.998,123.239 114.998,126.000 L114.998,126.000 C114.998,128.761 112.760,131.000 109.999,131.000 L74.998,131.000 C72.237,131.000 69.999,128.761 69.999,126.000 L69.999,126.000 C69.999,123.239 72.237,121.000 74.998,121.000 Z"/>
<path fill-rule="evenodd"  fill="rgb(16, 142, 66)"
 d="M74.996,126.999 L109.998,126.999 C114.091,126.999 114.170,123.244 114.170,123.244 C114.170,123.244 114.997,124.981 114.997,125.999 C114.997,128.761 112.758,130.999 109.998,130.999 L74.996,130.999 C72.236,130.999 69.997,128.761 69.997,125.999 C69.997,124.917 70.924,123.098 70.924,123.098 C70.924,123.098 71.084,126.999 74.996,126.999 Z"/>
<path fill-rule="evenodd"  fill="rgb(23, 204, 95)"
 d="M74.998,81.000 L114.998,81.000 C117.761,81.000 119.999,83.238 119.999,86.000 L119.999,86.000 C119.999,88.761 117.761,91.000 114.998,91.000 L74.998,91.000 C72.237,91.000 69.999,88.761 69.999,86.000 L69.999,86.000 C69.999,83.238 72.237,81.000 74.998,81.000 Z"/>
<path fill-rule="evenodd"  fill="rgb(16, 142, 66)"
 d="M74.996,86.999 L114.997,86.999 C119.091,86.999 119.170,83.244 119.170,83.244 C119.170,83.244 119.997,84.981 119.997,85.999 C119.997,88.761 117.758,90.999 114.997,90.999 L74.996,90.999 C72.236,90.999 69.997,88.761 69.997,85.999 C69.997,84.917 70.924,83.098 70.924,83.098 C70.924,83.098 71.084,86.999 74.996,86.999 Z"/>
<path fill-rule="evenodd"  fill="rgb(51, 51, 51)"
 d="M113.756,24.788 C111.235,24.788 108.913,22.805 108.913,19.410 C108.913,15.977 111.235,13.995 113.756,13.995 C116.277,13.995 118.600,15.977 118.600,19.410 C118.600,22.805 116.277,24.788 113.756,24.788 ZM113.756,16.197 C112.388,16.197 111.614,17.464 111.614,19.410 C111.614,21.337 112.388,22.585 113.756,22.585 C115.125,22.585 115.899,21.337 115.899,19.410 C115.899,17.464 115.125,16.197 113.756,16.197 ZM99.914,17.262 L98.564,14.343 L98.474,14.343 C98.600,15.812 98.798,17.519 98.798,19.079 L98.798,24.531 L96.277,24.531 L96.277,10.947 L98.996,10.947 L102.868,18.180 L104.199,21.117 L104.290,21.117 C104.146,19.703 103.948,17.904 103.948,16.362 L103.948,10.947 L106.469,10.947 L106.469,24.531 L103.768,24.531 L99.914,17.262 Z"/>
<path fill-rule="evenodd"  fill="rgb(51, 51, 51)"
 d="M202.806,16.014 C201.905,16.014 201.473,16.417 201.473,17.005 C201.473,17.757 202.463,18.033 203.526,18.437 C204.859,18.951 206.335,19.630 206.335,21.539 C206.335,23.338 204.948,24.788 202.319,24.788 C200.969,24.788 199.475,24.182 198.484,23.338 L199.691,21.649 C200.591,22.365 201.456,22.769 202.391,22.769 C203.400,22.769 203.850,22.328 203.850,21.686 C203.850,20.915 202.806,20.566 201.743,20.144 C200.465,19.648 198.989,18.859 198.989,17.152 C198.989,15.298 200.465,13.995 202.734,13.995 C204.211,13.995 205.326,14.619 206.173,15.261 L204.984,16.895 C204.264,16.381 203.562,16.014 202.806,16.014 ZM190.925,20.144 C191.142,21.833 192.222,22.714 193.717,22.714 C194.545,22.714 195.265,22.457 195.985,21.998 L196.885,23.650 C195.895,24.347 194.617,24.788 193.356,24.788 C190.548,24.788 188.351,22.787 188.351,19.410 C188.351,16.069 190.637,13.995 193.050,13.995 C195.823,13.995 197.263,16.069 197.263,18.914 C197.263,19.410 197.209,19.905 197.137,20.144 L190.925,20.144 ZM193.086,16.087 C192.024,16.087 191.087,16.858 190.889,18.363 L194.995,18.363 C194.995,16.968 194.383,16.087 193.086,16.087 ZM183.655,24.531 L180.990,24.531 L180.990,19.556 L176.992,10.947 L179.819,10.947 L181.152,14.251 C181.530,15.261 181.890,16.216 182.304,17.262 L182.376,17.262 C182.790,16.216 183.186,15.261 183.565,14.251 L184.897,10.947 L187.669,10.947 L183.655,19.556 L183.655,24.531 Z"/>
<path fill-rule="evenodd"  fill="rgb(23, 204, 95)"
 d="M215.997,30.999 L224.997,30.999 C227.759,30.999 229.998,33.237 229.998,35.999 L229.998,35.999 C229.998,38.760 227.759,40.999 224.997,40.999 L171.997,40.999 L215.997,30.999 Z"/>
<path fill-rule="evenodd"  fill="rgb(16, 142, 66)"
 d="M191.255,36.999 L224.998,36.999 C229.091,36.999 229.170,33.243 229.170,33.243 C229.170,33.243 229.998,34.980 229.998,35.999 C229.998,38.760 227.759,40.999 224.998,40.999 L194.997,40.999 C192.236,40.999 167.999,41.000 167.999,41.000 L191.255,36.999 Z"/>
<path fill-rule="evenodd"  fill="rgb(23, 204, 95)"
 d="M158.997,30.999 L211.997,30.999 L167.997,40.999 L158.997,40.999 C156.236,40.999 153.997,38.760 153.997,35.999 L153.997,35.999 C153.997,33.237 156.236,30.999 158.997,30.999 Z"/>
<path fill-rule="evenodd"  fill="rgb(16, 142, 66)"
 d="M158.997,36.999 L207.997,36.999 L187.997,40.999 L158.997,40.999 C156.236,40.999 153.997,38.760 153.997,35.999 C153.997,34.917 154.925,33.097 154.925,33.097 C154.925,33.097 155.085,36.999 158.997,36.999 Z"/>
<path fill-rule="evenodd"  fill="rgb(23, 204, 95)"
 d="M215.997,40.999 L224.997,40.999 C227.759,40.999 229.998,43.237 229.998,45.999 L229.998,45.999 C229.998,48.761 227.759,50.999 224.997,50.999 L171.997,50.999 L215.997,40.999 Z"/>
<path fill-rule="evenodd"  fill="rgb(16, 142, 66)"
 d="M191.255,46.999 L224.998,46.999 C229.091,46.999 229.170,43.244 229.170,43.244 C229.170,43.244 229.998,44.981 229.998,45.999 C229.998,48.761 227.759,50.999 224.998,50.999 L194.997,50.999 C192.236,50.999 167.999,51.000 167.999,51.000 L191.255,46.999 Z"/>
<path fill-rule="evenodd"  fill="rgb(23, 204, 95)"
 d="M158.997,40.999 L211.997,40.999 L167.997,50.999 L158.997,50.999 C156.236,50.999 153.997,48.761 153.997,45.999 L153.997,45.999 C153.997,43.237 156.236,40.999 158.997,40.999 Z"/>
<path fill-rule="evenodd"  fill="rgb(16, 142, 66)"
 d="M158.997,46.999 L207.997,46.999 L187.997,50.999 L158.997,50.999 C156.236,50.999 153.997,48.761 153.997,45.999 C153.997,44.917 154.925,43.097 154.925,43.097 C154.925,43.097 155.085,46.999 158.997,46.999 Z"/>
<path fill-rule="evenodd"  fill="rgb(23, 204, 95)"
 d="M215.997,50.999 L224.997,50.999 C227.759,50.999 229.998,53.237 229.998,55.999 L229.998,55.999 C229.998,58.761 227.759,60.999 224.997,60.999 L171.997,60.999 L215.997,50.999 Z"/>
<path fill-rule="evenodd"  fill="rgb(16, 142, 66)"
 d="M191.255,56.999 L224.998,56.999 C229.091,56.999 229.170,53.244 229.170,53.244 C229.170,53.244 229.998,54.981 229.998,55.999 C229.998,58.761 227.759,60.999 224.998,60.999 L194.997,60.999 C192.236,60.999 167.999,61.000 167.999,61.000 L191.255,56.999 Z"/>
<path fill-rule="evenodd"  fill="rgb(23, 204, 95)"
 d="M158.997,50.999 L211.997,50.999 L167.997,60.999 L158.997,60.999 C156.236,60.999 153.997,58.761 153.997,55.999 L153.997,55.999 C153.997,53.237 156.236,50.999 158.997,50.999 Z"/>
<path fill-rule="evenodd"  fill="rgb(16, 142, 66)"
 d="M158.997,56.999 L207.997,56.999 L187.997,60.999 L158.997,60.999 C156.236,60.999 153.997,58.761 153.997,55.999 C153.997,54.917 154.925,53.097 154.925,53.097 C154.925,53.097 155.085,56.999 158.997,56.999 Z"/>
<path fill-rule="evenodd"  fill="rgb(23, 204, 95)"
 d="M215.997,60.999 L224.997,60.999 C227.759,60.999 229.998,63.237 229.998,65.999 L229.998,65.999 C229.998,68.760 227.759,70.999 224.997,70.999 L171.997,70.999 L215.997,60.999 Z"/>
<path fill-rule="evenodd"  fill="rgb(16, 142, 66)"
 d="M191.255,66.999 L224.998,66.999 C229.091,66.999 229.170,63.244 229.170,63.244 C229.170,63.244 229.998,64.980 229.998,65.999 C229.998,68.760 227.759,70.999 224.998,70.999 L194.997,70.999 C192.236,70.999 167.999,71.000 167.999,71.000 L191.255,66.999 Z"/>
<path fill-rule="evenodd"  fill="rgb(23, 204, 95)"
 d="M158.997,60.999 L211.997,60.999 L167.997,70.999 L158.997,70.999 C156.236,70.999 153.997,68.760 153.997,65.999 L153.997,65.999 C153.997,63.237 156.236,60.999 158.997,60.999 Z"/>
<path fill-rule="evenodd"  fill="rgb(16, 142, 66)"
 d="M158.997,66.999 L207.997,66.999 L187.997,70.999 L158.997,70.999 C156.236,70.999 153.997,68.760 153.997,65.999 C153.997,64.917 154.925,63.097 154.925,63.097 C154.925,63.097 155.085,66.999 158.997,66.999 Z"/>
<path fill-rule="evenodd"  fill="rgb(23, 204, 95)"
 d="M215.997,70.999 L224.997,70.999 C227.759,70.999 229.998,73.237 229.998,75.999 L229.998,75.999 C229.998,78.760 227.759,80.999 224.997,80.999 L171.997,80.999 L215.997,70.999 Z"/>
<path fill-rule="evenodd"  fill="rgb(16, 142, 66)"
 d="M191.255,76.999 L224.998,76.999 C229.091,76.999 229.170,73.244 229.170,73.244 C229.170,73.244 229.998,74.980 229.998,75.999 C229.998,78.760 227.759,80.999 224.998,80.999 L194.997,80.999 C192.236,80.999 167.999,81.000 167.999,81.000 L191.255,76.999 Z"/>
<path fill-rule="evenodd"  fill="rgb(23, 204, 95)"
 d="M158.997,70.999 L211.997,70.999 L167.997,80.999 L158.997,80.999 C156.236,80.999 153.997,78.760 153.997,75.999 L153.997,75.999 C153.997,73.237 156.236,70.999 158.997,70.999 Z"/>
<path fill-rule="evenodd"  fill="rgb(16, 142, 66)"
 d="M158.997,76.999 L207.997,76.999 L187.997,80.999 L158.997,80.999 C156.236,80.999 153.997,78.760 153.997,75.999 C153.997,74.917 154.925,73.097 154.925,73.097 C154.925,73.097 155.085,76.999 158.997,76.999 Z"/>
<path fill-rule="evenodd"  fill="rgb(23, 204, 95)"
 d="M215.997,80.999 L224.997,80.999 C227.759,80.999 229.998,83.237 229.998,85.999 L229.998,85.999 C229.998,88.760 227.759,90.999 224.997,90.999 L171.997,90.999 L215.997,80.999 Z"/>
<path fill-rule="evenodd"  fill="rgb(16, 142, 66)"
 d="M191.255,86.999 L224.998,86.999 C229.091,86.999 229.170,83.244 229.170,83.244 C229.170,83.244 229.998,84.980 229.998,85.999 C229.998,88.760 227.759,90.999 224.998,90.999 L194.997,90.999 C192.236,90.999 167.999,91.000 167.999,91.000 L191.255,86.999 Z"/>
<path fill-rule="evenodd"  fill="rgb(23, 204, 95)"
 d="M158.997,80.999 L211.997,80.999 L167.997,90.999 L158.997,90.999 C156.236,90.999 153.997,88.760 153.997,85.999 L153.997,85.999 C153.997,83.237 156.236,80.999 158.997,80.999 Z"/>
<path fill-rule="evenodd"  fill="rgb(16, 142, 66)"
 d="M158.997,86.999 L207.997,86.999 L187.997,90.999 L158.997,90.999 C156.236,90.999 153.997,88.760 153.997,85.999 C153.997,84.917 154.925,83.097 154.925,83.097 C154.925,83.097 155.085,86.999 158.997,86.999 Z"/>
<path fill-rule="evenodd"  fill="rgb(23, 204, 95)"
 d="M215.997,90.999 L224.997,90.999 C227.759,90.999 229.998,93.237 229.998,95.999 L229.998,95.999 C229.998,98.760 227.759,100.999 224.997,100.999 L171.997,100.999 L215.997,90.999 Z"/>
<path fill-rule="evenodd"  fill="rgb(16, 142, 66)"
 d="M191.255,96.999 L224.998,96.999 C229.091,96.999 229.170,93.244 229.170,93.244 C229.170,93.244 229.998,94.980 229.998,95.999 C229.998,98.760 227.759,100.999 224.998,100.999 L194.997,100.999 C192.236,100.999 167.999,101.000 167.999,101.000 L191.255,96.999 Z"/>
<path fill-rule="evenodd"  fill="rgb(23, 204, 95)"
 d="M158.997,90.999 L211.997,90.999 L167.997,100.999 L158.997,100.999 C156.236,100.999 153.997,98.760 153.997,95.999 L153.997,95.999 C153.997,93.237 156.236,90.999 158.997,90.999 Z"/>
<path fill-rule="evenodd"  fill="rgb(16, 142, 66)"
 d="M158.997,96.999 L207.997,96.999 L187.997,100.999 L158.997,100.999 C156.236,100.999 153.997,98.760 153.997,95.999 C153.997,94.917 154.925,93.097 154.925,93.097 C154.925,93.097 155.085,96.999 158.997,96.999 Z"/>
<path fill-rule="evenodd"  fill="rgb(23, 204, 95)"
 d="M215.997,100.999 L224.997,100.999 C227.759,100.999 229.998,103.237 229.998,105.999 L229.998,105.999 C229.998,108.760 227.759,110.999 224.997,110.999 L171.997,110.999 L215.997,100.999 Z"/>
<path fill-rule="evenodd"  fill="rgb(16, 142, 66)"
 d="M191.255,106.999 L224.998,106.999 C229.091,106.999 229.170,103.244 229.170,103.244 C229.170,103.244 229.998,104.980 229.998,105.999 C229.998,108.760 227.759,110.999 224.998,110.999 L194.997,110.999 C192.236,110.999 167.999,111.000 167.999,111.000 L191.255,106.999 Z"/>
<path fill-rule="evenodd"  fill="rgb(23, 204, 95)"
 d="M158.997,100.999 L211.997,100.999 L167.997,110.999 L158.997,110.999 C156.236,110.999 153.997,108.760 153.997,105.999 L153.997,105.999 C153.997,103.237 156.236,100.999 158.997,100.999 Z"/>
<path fill-rule="evenodd"  fill="rgb(16, 142, 66)"
 d="M158.997,106.999 L207.997,106.999 L187.997,110.999 L158.997,110.999 C156.236,110.999 153.997,108.760 153.997,105.999 C153.997,104.917 154.925,103.097 154.925,103.097 C154.925,103.097 155.085,106.999 158.997,106.999 Z"/>
<path fill-rule="evenodd"  fill="rgb(23, 204, 95)"
 d="M215.997,110.999 L224.997,110.999 C227.759,110.999 229.998,113.237 229.998,115.999 L229.998,115.999 C229.998,118.760 227.759,120.999 224.997,120.999 L171.997,120.999 L215.997,110.999 Z"/>
<path fill-rule="evenodd"  fill="rgb(16, 142, 66)"
 d="M191.255,116.999 L224.998,116.999 C229.091,116.999 229.170,113.243 229.170,113.243 C229.170,113.243 229.998,114.980 229.998,115.999 C229.998,118.760 227.759,120.999 224.998,120.999 L194.997,120.999 C192.236,120.999 167.999,121.000 167.999,121.000 L191.255,116.999 Z"/>
<path fill-rule="evenodd"  fill="rgb(23, 204, 95)"
 d="M158.997,110.999 L211.997,110.999 L167.997,120.999 L158.997,120.999 C156.236,120.999 153.997,118.760 153.997,115.999 L153.997,115.999 C153.997,113.237 156.236,110.999 158.997,110.999 Z"/>
<path fill-rule="evenodd"  fill="rgb(16, 142, 66)"
 d="M158.997,116.999 L207.997,116.999 L187.997,120.999 L158.997,120.999 C156.236,120.999 153.997,118.760 153.997,115.999 C153.997,114.917 154.925,113.097 154.925,113.097 C154.925,113.097 155.085,116.999 158.997,116.999 Z"/>
<path fill-rule="evenodd"  fill="rgb(23, 204, 95)"
 d="M215.997,120.999 L224.997,120.999 C227.759,120.999 229.998,123.237 229.998,125.999 L229.998,125.999 C229.998,128.760 227.759,130.999 224.997,130.999 L171.997,130.999 L215.997,120.999 Z"/>
<path fill-rule="evenodd"  fill="rgb(16, 142, 66)"
 d="M191.255,126.999 L224.998,126.999 C229.091,126.999 229.170,123.243 229.170,123.243 C229.170,123.243 229.998,124.980 229.998,125.999 C229.998,128.760 227.759,130.999 224.998,130.999 L194.997,130.999 C192.236,130.999 167.999,131.000 167.999,131.000 L191.255,126.999 Z"/>
<path fill-rule="evenodd"  fill="rgb(23, 204, 95)"
 d="M158.997,120.999 L211.997,120.999 L167.997,130.999 L158.997,130.999 C156.236,130.999 153.997,128.760 153.997,125.999 L153.997,125.999 C153.997,123.237 156.236,120.999 158.997,120.999 Z"/>
<path fill-rule="evenodd"  fill="rgb(16, 142, 66)"
 d="M158.997,126.999 L207.997,126.999 L187.997,130.999 L158.997,130.999 C156.236,130.999 153.997,128.760 153.997,125.999 C153.997,124.917 154.925,123.097 154.925,123.097 C154.925,123.097 155.085,126.999 158.997,126.999 Z"/>
</svg>
