<svg 
 xmlns="http://www.w3.org/2000/svg"
 xmlns:xlink="http://www.w3.org/1999/xlink"
 width="300.5px" height="147.5px">
<path fill-rule="evenodd"  fill="none"
 d="M-0.001,-0.000 L299.998,-0.000 L299.998,147.000 L-0.001,147.000 L-0.001,-0.000 Z"/>
<path fill-rule="evenodd"  stroke="rgb(127, 127, 127)" stroke-width="1px" stroke-dasharray="4, 2" stroke-linecap="butt" stroke-linejoin="miter" fill="none"
 d="M169.009,110.420 C171.148,109.271 172.162,107.277 171.967,105.395 C172.176,103.401 171.148,101.518 169.009,100.369 L122.921,75.699 C120.880,74.550 118.436,74.024 115.992,74.024 C113.548,74.024 111.089,74.550 109.048,75.699 L62.960,100.272 C60.822,101.421 59.905,103.415 60.002,105.297 C59.905,107.291 60.822,109.271 62.960,110.420 L109.048,135.006 C111.089,136.156 113.534,136.682 115.992,136.682 C118.436,136.682 120.880,136.156 122.921,135.006 L169.009,110.420 Z"/>
<path fill-rule="evenodd"  stroke="rgb(23, 204, 95)" stroke-width="1px" stroke-linecap="butt" stroke-linejoin="miter" fill="none"
 d="M169.009,41.154 C171.148,40.005 172.162,38.011 171.967,36.129 C172.176,34.135 171.148,32.252 169.009,31.102 L122.921,6.433 C120.880,5.283 118.436,4.758 115.992,4.758 C113.548,4.758 111.089,5.283 109.048,6.433 L62.960,31.006 C60.822,32.155 59.905,34.149 60.002,36.031 C59.905,38.025 60.822,40.005 62.960,41.154 L109.048,65.740 C111.089,66.890 113.534,67.416 115.992,67.416 C118.436,67.416 120.880,66.890 122.921,65.740 L169.009,41.154 Z"/>
<path fill-rule="evenodd"  stroke="rgb(127, 127, 127)" stroke-width="1px" stroke-dasharray="4, 2" stroke-linecap="butt" stroke-linejoin="miter" fill="none"
 d="M60.997,40.999 L60.997,104.999 "/>
<path fill-rule="evenodd"  stroke="rgb(127, 127, 127)" stroke-width="1px" stroke-dasharray="4, 2" stroke-linecap="butt" stroke-linejoin="miter" fill="none"
 d="M171.997,40.999 L171.997,104.999 "/>
<path fill-rule="evenodd"  stroke="rgb(127, 127, 127)" stroke-width="1px" stroke-dasharray="4, 2" stroke-linecap="butt" stroke-linejoin="miter" fill="none"
 d="M116.998,68.999 L116.998,136.998 "/>
<path fill-rule="evenodd"  stroke="rgb(127, 127, 127)" stroke-width="1px" stroke-dasharray="4, 2" stroke-linecap="butt" stroke-linejoin="miter" fill="none"
 d="M116.998,6.999 L116.998,69.999 "/>
<path fill-rule="evenodd"  stroke="rgb(23, 204, 95)" stroke-width="1px" stroke-linecap="butt" stroke-linejoin="miter" fill="none"
 d="M165.331,40.536 C167.243,39.509 169.149,37.728 168.976,36.044 C169.161,34.263 167.243,32.579 165.331,31.553 L122.172,9.504 C120.349,8.476 118.164,8.006 115.981,8.006 C113.796,8.006 111.600,8.476 109.776,9.504 L66.645,31.467 C64.734,32.494 62.914,34.275 63.001,35.958 C62.914,37.740 64.734,39.509 66.645,40.536 L109.776,62.511 C111.600,63.538 113.783,64.008 115.981,64.008 C118.164,64.008 120.349,63.538 122.172,62.511 L165.331,40.536 Z"/>
<path fill-rule="evenodd"  stroke="rgb(23, 204, 95)" stroke-width="1px" stroke-linecap="butt" stroke-linejoin="miter" fill="none"
 d="M160.705,40.050 C162.436,39.133 166.163,37.542 166.006,36.040 C166.174,34.449 162.436,32.946 160.705,32.029 L121.606,12.343 C119.954,11.425 117.975,11.006 115.997,11.006 C114.018,11.006 112.028,11.425 110.375,12.343 L71.301,31.952 C69.570,32.869 65.922,34.460 66.001,35.962 C65.922,37.553 69.570,39.133 71.301,40.050 L110.375,59.671 C112.028,60.587 114.006,61.007 115.997,61.007 C117.975,61.007 119.954,60.587 121.606,59.671 L160.705,40.050 Z"/>
<path fill-rule="evenodd"  fill="rgb(23, 204, 95)"
 d="M248.997,16.998 L253.997,16.998 C256.759,16.998 258.998,19.237 258.998,21.999 L258.998,21.999 C258.998,24.760 256.759,26.999 253.997,26.999 L204.997,26.999 L248.997,16.998 Z"/>
<path fill-rule="evenodd"  fill="rgb(16, 142, 66)"
 d="M224.255,22.999 L253.998,22.999 C258.091,22.999 258.170,19.243 258.170,19.243 C258.170,19.243 258.998,20.980 258.998,21.999 C258.998,24.760 256.759,26.999 253.998,26.999 L227.998,26.999 C225.236,26.999 200.999,27.000 200.999,27.000 L224.255,22.999 Z"/>
<path fill-rule="evenodd"  fill="rgb(23, 204, 95)"
 d="M195.997,16.998 L244.997,16.998 L200.997,26.999 L195.997,26.999 C193.236,26.999 190.997,24.760 190.997,21.999 L190.997,21.999 C190.997,19.237 193.236,16.998 195.997,16.998 Z"/>
<path fill-rule="evenodd"  fill="rgb(16, 142, 66)"
 d="M195.997,22.999 L240.997,22.999 L220.997,26.999 L195.997,26.999 C193.236,26.999 190.997,24.760 190.997,21.999 C190.997,20.917 191.925,19.097 191.925,19.097 C191.925,19.097 192.085,22.999 195.997,22.999 Z"/>
<path fill-rule="evenodd"  fill="rgb(23, 204, 95)"
 d="M248.997,26.999 L253.997,26.999 C256.759,26.999 258.998,29.237 258.998,31.999 L258.998,31.999 C258.998,34.760 256.759,36.999 253.997,36.999 L204.997,36.999 L248.997,26.999 Z"/>
<path fill-rule="evenodd"  fill="rgb(16, 142, 66)"
 d="M224.255,32.999 L253.998,32.999 C258.091,32.999 258.170,29.244 258.170,29.244 C258.170,29.244 258.998,30.980 258.998,31.999 C258.998,34.760 256.759,36.999 253.998,36.999 L227.998,36.999 C225.236,36.999 200.999,37.000 200.999,37.000 L224.255,32.999 Z"/>
<path fill-rule="evenodd"  fill="rgb(23, 204, 95)"
 d="M195.997,26.999 L244.997,26.999 L200.997,36.999 L195.997,36.999 C193.236,36.999 190.997,34.760 190.997,31.999 L190.997,31.999 C190.997,29.237 193.236,26.999 195.997,26.999 Z"/>
<path fill-rule="evenodd"  fill="rgb(16, 142, 66)"
 d="M195.997,32.999 L240.997,32.999 L220.997,36.999 L195.997,36.999 C193.236,36.999 190.997,34.760 190.997,31.999 C190.997,30.917 191.925,29.097 191.925,29.097 C191.925,29.097 192.085,32.999 195.997,32.999 Z"/>
<path fill-rule="evenodd"  fill="rgb(23, 204, 95)"
 d="M248.997,36.999 L253.997,36.999 C256.759,36.999 258.998,39.237 258.998,41.999 L258.998,41.999 C258.998,44.760 256.759,46.999 253.997,46.999 L204.997,46.999 L248.997,36.999 Z"/>
<path fill-rule="evenodd"  fill="rgb(16, 142, 66)"
 d="M224.255,42.999 L253.998,42.999 C258.091,42.999 258.170,39.244 258.170,39.244 C258.170,39.244 258.998,40.980 258.998,41.999 C258.998,44.760 256.759,46.999 253.998,46.999 L227.998,46.999 C225.236,46.999 200.999,47.000 200.999,47.000 L224.255,42.999 Z"/>
<path fill-rule="evenodd"  fill="rgb(23, 204, 95)"
 d="M195.997,36.999 L244.997,36.999 L200.997,46.999 L195.997,46.999 C193.236,46.999 190.997,44.760 190.997,41.999 L190.997,41.999 C190.997,39.237 193.236,36.999 195.997,36.999 Z"/>
<path fill-rule="evenodd"  fill="rgb(16, 142, 66)"
 d="M195.997,42.999 L240.997,42.999 L220.997,46.999 L195.997,46.999 C193.236,46.999 190.997,44.760 190.997,41.999 C190.997,40.917 191.925,39.097 191.925,39.097 C191.925,39.097 192.085,42.999 195.997,42.999 Z"/>
</svg>
