<svg 
 xmlns="http://www.w3.org/2000/svg"
 xmlns:xlink="http://www.w3.org/1999/xlink"
 width="300px" height="147px">
<path fill-rule="evenodd"  fill="none"
 d="M-0.001,-0.001 L299.998,-0.001 L299.998,146.999 L-0.001,146.999 L-0.001,-0.001 Z"/>
<path fill-rule="evenodd"  fill="rgb(23, 204, 95)"
 d="M193.997,70.999 L224.998,70.999 C227.759,70.999 229.998,73.237 229.998,75.999 L229.998,75.999 C229.998,78.760 227.759,80.999 224.998,80.999 L113.997,80.999 L193.997,70.999 Z"/>
<path fill-rule="evenodd"  fill="rgb(16, 142, 66)"
 d="M119.255,76.999 L224.998,76.999 C229.091,76.999 229.170,73.244 229.170,73.244 C229.170,73.244 229.998,74.980 229.998,75.999 C229.998,78.760 227.759,80.999 224.998,80.999 L152.998,80.999 C150.237,80.999 95.999,81.000 95.999,81.000 L119.255,76.999 Z"/>
<path fill-rule="evenodd"  fill="rgb(23, 204, 95)"
 d="M74.997,70.999 L185.998,70.999 L105.997,80.999 L74.997,80.999 C72.236,80.999 69.998,78.760 69.998,75.999 L69.998,75.999 C69.998,73.237 72.236,70.999 74.997,70.999 Z"/>
<path fill-rule="evenodd"  fill="rgb(16, 142, 66)"
 d="M74.997,76.999 L165.997,76.999 L145.997,80.999 L74.997,80.999 C72.236,80.999 69.998,78.760 69.998,75.999 C69.998,74.917 70.925,73.097 70.925,73.097 C70.925,73.097 71.085,76.999 74.997,76.999 Z"/>
<path fill-rule="evenodd"  fill="rgb(23, 204, 95)"
 d="M193.997,80.999 L224.998,80.999 C227.759,80.999 229.998,83.237 229.998,85.999 L229.998,85.999 C229.998,88.760 227.759,90.999 224.998,90.999 L113.997,90.999 L193.997,80.999 Z"/>
<path fill-rule="evenodd"  fill="rgb(16, 142, 66)"
 d="M119.255,86.999 L224.998,86.999 C229.091,86.999 229.170,83.244 229.170,83.244 C229.170,83.244 229.998,84.980 229.998,85.999 C229.998,88.760 227.759,90.999 224.998,90.999 L152.998,90.999 C150.237,90.999 95.999,91.000 95.999,91.000 L119.255,86.999 Z"/>
<path fill-rule="evenodd"  fill="rgb(23, 204, 95)"
 d="M74.997,80.999 L185.998,80.999 L105.997,90.999 L74.997,90.999 C72.236,90.999 69.998,88.760 69.998,85.999 L69.998,85.999 C69.998,83.237 72.236,80.999 74.997,80.999 Z"/>
<path fill-rule="evenodd"  fill="rgb(16, 142, 66)"
 d="M74.997,86.999 L165.997,86.999 L145.997,90.999 L74.997,90.999 C72.236,90.999 69.998,88.760 69.998,85.999 C69.998,84.917 70.925,83.097 70.925,83.097 C70.925,83.097 71.085,86.999 74.997,86.999 Z"/>
<path fill-rule="evenodd"  fill="rgb(23, 204, 95)"
 d="M193.997,90.999 L224.998,90.999 C227.759,90.999 229.998,93.237 229.998,95.999 L229.998,95.999 C229.998,98.760 227.759,100.999 224.998,100.999 L113.997,100.999 L193.997,90.999 Z"/>
<path fill-rule="evenodd"  fill="rgb(16, 142, 66)"
 d="M119.255,96.999 L224.998,96.999 C229.091,96.999 229.170,93.244 229.170,93.244 C229.170,93.244 229.998,94.980 229.998,95.999 C229.998,98.760 227.759,100.999 224.998,100.999 L152.998,100.999 C150.237,100.999 95.999,101.000 95.999,101.000 L119.255,96.999 Z"/>
<path fill-rule="evenodd"  fill="rgb(23, 204, 95)"
 d="M74.997,90.999 L185.998,90.999 L105.997,100.999 L74.997,100.999 C72.236,100.999 69.998,98.760 69.998,95.999 L69.998,95.999 C69.998,93.237 72.236,90.999 74.997,90.999 Z"/>
<path fill-rule="evenodd"  fill="rgb(16, 142, 66)"
 d="M74.997,96.999 L165.997,96.999 L145.997,100.999 L74.997,100.999 C72.236,100.999 69.998,98.760 69.998,95.999 C69.998,94.917 70.925,93.097 70.925,93.097 C70.925,93.097 71.085,96.999 74.997,96.999 Z"/>
<path fill-rule="evenodd"  fill="rgb(23, 204, 95)"
 d="M193.997,100.999 L224.998,100.999 C227.759,100.999 229.998,103.237 229.998,105.999 L229.998,105.999 C229.998,108.760 227.759,110.999 224.998,110.999 L113.997,110.999 L193.997,100.999 Z"/>
<path fill-rule="evenodd"  fill="rgb(16, 142, 66)"
 d="M119.255,106.999 L224.998,106.999 C229.091,106.999 229.170,103.243 229.170,103.243 C229.170,103.243 229.998,104.980 229.998,105.999 C229.998,108.760 227.759,110.999 224.998,110.999 L152.998,110.999 C150.237,110.999 95.999,111.000 95.999,111.000 L119.255,106.999 Z"/>
<path fill-rule="evenodd"  fill="rgb(23, 204, 95)"
 d="M74.997,100.999 L185.998,100.999 L105.997,110.999 L74.997,110.999 C72.236,110.999 69.998,108.760 69.998,105.999 L69.998,105.999 C69.998,103.237 72.236,100.999 74.997,100.999 Z"/>
<path fill-rule="evenodd"  fill="rgb(16, 142, 66)"
 d="M74.997,106.999 L165.997,106.999 L145.997,110.999 L74.997,110.999 C72.236,110.999 69.998,108.760 69.998,105.999 C69.998,104.917 70.925,103.097 70.925,103.097 C70.925,103.097 71.085,106.999 74.997,106.999 Z"/>
<path fill-rule="evenodd"  fill="rgb(23, 204, 95)"
 d="M193.997,110.999 L224.998,110.999 C227.759,110.999 229.998,113.237 229.998,115.999 L229.998,115.999 C229.998,118.760 227.759,120.999 224.998,120.999 L113.997,120.999 L193.997,110.999 Z"/>
<path fill-rule="evenodd"  fill="rgb(16, 142, 66)"
 d="M119.255,116.999 L224.998,116.999 C229.091,116.999 229.170,113.243 229.170,113.243 C229.170,113.243 229.998,114.980 229.998,115.999 C229.998,118.760 227.759,120.999 224.998,120.999 L152.998,120.999 C150.237,120.999 95.999,121.000 95.999,121.000 L119.255,116.999 Z"/>
<path fill-rule="evenodd"  fill="rgb(23, 204, 95)"
 d="M74.997,110.999 L185.998,110.999 L105.997,120.999 L74.997,120.999 C72.236,120.999 69.998,118.760 69.998,115.999 L69.998,115.999 C69.998,113.237 72.236,110.999 74.997,110.999 Z"/>
<path fill-rule="evenodd"  fill="rgb(16, 142, 66)"
 d="M74.997,116.999 L165.997,116.999 L145.997,120.999 L74.997,120.999 C72.236,120.999 69.998,118.760 69.998,115.999 C69.998,114.917 70.925,113.097 70.925,113.097 C70.925,113.097 71.085,116.999 74.997,116.999 Z"/>
<path fill-rule="evenodd"  fill="rgb(23, 204, 95)"
 d="M193.997,120.999 L224.998,120.999 C227.759,120.999 229.998,123.237 229.998,125.999 L229.998,125.999 C229.998,128.761 227.759,130.999 224.998,130.999 L113.997,130.999 L193.997,120.999 Z"/>
<path fill-rule="evenodd"  fill="rgb(16, 142, 66)"
 d="M119.255,126.999 L224.998,126.999 C229.091,126.999 229.170,123.244 229.170,123.244 C229.170,123.244 229.998,124.981 229.998,125.999 C229.998,128.761 227.759,130.999 224.998,130.999 L152.998,130.999 C150.237,130.999 95.999,131.000 95.999,131.000 L119.255,126.999 Z"/>
<path fill-rule="evenodd"  fill="rgb(23, 204, 95)"
 d="M74.997,120.999 L185.998,120.999 L105.997,130.999 L74.997,130.999 C72.236,130.999 69.998,128.761 69.998,125.999 L69.998,125.999 C69.998,123.237 72.236,120.999 74.997,120.999 Z"/>
<path fill-rule="evenodd"  fill="rgb(16, 142, 66)"
 d="M74.997,126.999 L165.997,126.999 L145.997,130.999 L74.997,130.999 C72.236,130.999 69.998,128.761 69.998,125.999 C69.998,124.917 70.925,123.097 70.925,123.097 C70.925,123.097 71.085,126.999 74.997,126.999 Z"/>
<path fill-rule="evenodd"  fill="rgb(255, 255, 255)"
 d="M193.201,64.996 C192.758,64.996 192.400,64.612 192.400,64.139 L192.400,49.853 C192.400,49.380 192.758,48.996 193.201,48.996 C193.643,48.996 194.001,49.380 194.001,49.853 L194.001,64.139 C194.001,64.612 193.643,64.996 193.201,64.996 ZM190.800,57.854 L185.241,57.854 C185.115,57.943 184.964,57.996 184.801,57.996 C184.638,57.996 184.487,57.943 184.360,57.854 L177.241,57.854 C177.115,57.943 176.964,57.996 176.801,57.996 C176.638,57.996 176.486,57.943 176.360,57.854 L170.241,57.854 C170.115,57.943 169.964,57.996 169.801,57.996 C169.638,57.996 169.486,57.943 169.360,57.854 L162.241,57.854 C162.115,57.943 161.963,57.996 161.801,57.996 C161.638,57.996 161.487,57.943 161.360,57.854 L154.241,57.854 C154.115,57.943 153.964,57.996 153.801,57.996 C153.638,57.996 153.486,57.943 153.360,57.854 L146.241,57.854 C146.115,57.943 145.964,57.996 145.801,57.996 C145.638,57.996 145.487,57.943 145.360,57.854 L138.241,57.854 C138.115,57.943 137.964,57.996 137.801,57.996 C137.638,57.996 137.486,57.943 137.360,57.854 L130.241,57.854 C130.115,57.943 129.964,57.996 129.801,57.996 C129.638,57.996 129.486,57.943 129.360,57.854 L123.241,57.854 C123.115,57.943 122.964,57.996 122.801,57.996 C122.638,57.996 122.486,57.943 122.360,57.854 L115.241,57.854 C115.115,57.943 114.964,57.996 114.801,57.996 C114.638,57.996 114.486,57.943 114.360,57.854 L108.934,57.854 C108.492,57.854 108.135,57.470 108.135,56.996 C108.135,56.523 108.492,56.139 108.934,56.139 L114.000,56.139 L114.000,49.853 C114.000,49.380 114.359,48.996 114.801,48.996 C115.242,48.996 115.600,49.380 115.600,49.853 L115.600,56.139 L122.001,56.139 L122.001,49.853 C122.001,49.380 122.359,48.996 122.801,48.996 C123.242,48.996 123.601,49.380 123.601,49.853 L123.601,56.139 L129.001,56.139 L129.001,49.853 C129.001,49.380 129.358,48.996 129.801,48.996 C130.242,48.996 130.600,49.380 130.600,49.853 L130.600,56.139 L137.000,56.139 L137.000,49.853 C137.000,49.380 137.359,48.996 137.801,48.996 C138.243,48.996 138.601,49.380 138.601,49.853 L138.601,56.139 L145.001,56.139 L145.001,49.853 C145.001,49.380 145.359,48.996 145.801,48.996 C146.243,48.996 146.600,49.380 146.600,49.853 L146.600,56.139 L153.000,56.139 L153.000,49.853 C153.000,49.380 153.358,48.996 153.801,48.996 C154.242,48.996 154.600,49.380 154.600,49.853 L154.600,56.139 L161.000,56.139 L161.000,49.853 C161.000,49.380 161.359,48.996 161.801,48.996 C162.242,48.996 162.601,49.380 162.601,49.853 L162.601,56.139 L169.000,56.139 L169.000,49.853 C169.000,49.380 169.359,48.996 169.801,48.996 C170.242,48.996 170.600,49.380 170.600,49.853 L170.600,56.139 L176.001,56.139 L176.001,49.853 C176.001,49.380 176.358,48.996 176.801,48.996 C177.243,48.996 177.600,49.380 177.600,49.853 L177.600,56.139 L184.000,56.139 L184.000,49.853 C184.000,49.380 184.359,48.996 184.801,48.996 C185.243,48.996 185.601,49.380 185.601,49.853 L185.601,56.139 L190.800,56.139 C191.243,56.139 191.600,56.523 191.600,56.996 C191.600,57.470 191.243,57.854 190.800,57.854 ZM106.801,64.996 C106.359,64.996 106.001,64.612 106.001,64.139 L106.001,49.853 C106.001,49.380 106.359,48.996 106.801,48.996 C107.243,48.996 107.600,49.380 107.600,49.853 L107.600,64.139 C107.600,64.612 107.243,64.996 106.801,64.996 Z"/>
<path fill-rule="evenodd"  fill="rgb(255, 255, 255)"
 d="M166.020,33.003 L164.929,32.526 C165.936,30.739 166.392,28.683 166.392,26.664 C166.392,24.669 165.936,22.601 164.929,20.814 L166.020,20.337 C167.160,22.222 167.820,24.229 167.820,26.664 C167.820,29.124 167.160,31.106 166.020,33.003 ZM158.937,26.480 C158.937,25.428 158.637,25.049 158.001,25.049 C157.618,25.049 157.186,25.306 156.706,25.819 L156.706,30.531 L154.943,30.531 L154.943,26.480 C154.943,25.428 154.643,25.049 154.007,25.049 C153.624,25.049 153.192,25.306 152.712,25.819 L152.712,30.531 L150.961,30.531 L150.961,23.678 L152.401,23.678 L152.520,24.596 L152.568,24.596 C153.132,23.996 153.755,23.507 154.631,23.507 C155.591,23.507 156.155,23.947 156.478,24.706 C157.090,24.045 157.737,23.507 158.613,23.507 C160.040,23.507 160.700,24.535 160.700,26.260 L160.700,30.531 L158.937,30.531 L158.937,26.480 ZM147.369,26.480 C147.369,25.428 147.069,25.049 146.433,25.049 C146.050,25.049 145.618,25.306 145.138,25.819 L145.138,30.531 L143.375,30.531 L143.375,26.480 C143.375,25.428 143.076,25.049 142.440,25.049 C142.056,25.049 141.624,25.306 141.144,25.819 L141.144,30.531 L139.393,30.531 L139.393,23.678 L140.832,23.678 L140.953,24.596 L141.000,24.596 C141.564,23.996 142.188,23.507 143.063,23.507 C144.023,23.507 144.586,23.947 144.910,24.706 C145.522,24.045 146.170,23.507 147.045,23.507 C148.472,23.507 149.132,24.535 149.132,26.260 L149.132,30.531 L147.369,30.531 L147.369,26.480 ZM133.992,33.003 C132.865,31.106 132.205,29.124 132.205,26.664 C132.205,24.229 132.865,22.222 133.992,20.337 L135.096,20.814 C134.088,22.601 133.633,24.669 133.633,26.664 C133.633,28.683 134.088,30.739 135.096,32.526 L133.992,33.003 Z"/>
</svg>
