<svg 
 xmlns="http://www.w3.org/2000/svg"
 xmlns:xlink="http://www.w3.org/1999/xlink"
 width="14px" height="14px">
<path fill-rule="evenodd"  fill="rgb(255, 255, 255)"
 d="M13.776,13.780 C13.636,13.923 13.455,13.995 13.271,13.995 C13.086,13.995 12.905,13.923 12.761,13.780 L11.269,12.248 C10.070,13.322 8.521,13.995 6.807,13.995 C3.047,13.995 -0.013,10.855 -0.013,6.995 C-0.013,3.135 3.047,-0.005 6.807,-0.005 C10.569,-0.005 13.630,3.135 13.630,6.995 C13.630,8.566 13.104,10.002 12.250,11.171 L13.776,12.738 C14.057,13.027 14.057,13.491 13.776,13.780 ZM6.807,1.469 C3.838,1.469 1.425,3.948 1.425,6.995 C1.425,10.043 3.838,12.522 6.807,12.522 C9.776,12.522 12.193,10.043 12.193,6.995 C12.193,3.948 9.776,1.469 6.807,1.469 Z"/>
</svg>
