<svg 
 xmlns="http://www.w3.org/2000/svg"
 xmlns:xlink="http://www.w3.org/1999/xlink"
 width="14px" height="14px">
<path fill-rule="evenodd"  fill="rgb(51, 51, 51)"
 d="M13.786,13.781 C13.647,13.925 13.465,13.996 13.282,13.996 C13.096,13.996 12.915,13.925 12.772,13.781 L11.281,12.249 C10.082,13.323 8.535,13.996 6.823,13.996 C3.063,13.996 0.004,10.856 0.004,6.997 C0.004,3.136 3.063,-0.003 6.823,-0.003 C10.582,-0.003 13.640,3.136 13.640,6.997 C13.640,8.568 13.115,10.004 12.261,11.173 L13.786,12.740 C14.067,13.028 14.067,13.493 13.786,13.781 ZM6.823,1.470 C3.854,1.470 1.440,3.949 1.440,6.997 C1.440,10.044 3.854,12.523 6.823,12.523 C9.789,12.523 12.204,10.044 12.204,6.997 C12.204,3.949 9.789,1.470 6.823,1.470 Z"/>
</svg>
