<svg 
 xmlns="http://www.w3.org/2000/svg"
 xmlns:xlink="http://www.w3.org/1999/xlink"
 width="300.5px" height="147.5px">
<path fill-rule="evenodd"  fill="none"
 d="M-0.002,-0.000 L299.998,-0.000 L299.998,147.000 L-0.002,147.000 L-0.002,-0.000 Z"/>
<path fill-rule="evenodd"  stroke="rgb(127, 127, 127)" stroke-width="1px" stroke-dasharray="4, 2" stroke-linecap="butt" stroke-linejoin="miter" fill="none"
 d="M189.009,111.154 C191.147,110.005 192.162,108.011 191.967,106.129 C192.176,104.135 191.147,102.252 189.009,101.102 L142.921,76.433 C140.879,75.283 138.436,74.758 135.992,74.758 C133.548,74.758 131.090,75.283 129.048,76.433 L82.959,101.006 C80.822,102.155 79.904,104.149 80.002,106.031 C79.904,108.025 80.822,110.005 82.959,111.154 L129.048,135.740 C131.090,136.890 133.534,137.416 135.992,137.416 C138.436,137.416 140.879,136.890 142.921,135.740 L189.009,111.154 Z"/>
<path fill-rule="evenodd"  stroke="rgb(23, 204, 95)" stroke-width="1px" stroke-linecap="butt" stroke-linejoin="miter" fill="none"
 d="M177.684,110.050 C179.365,109.133 180.162,107.542 180.010,106.040 C180.172,104.449 179.365,102.946 177.684,102.029 L141.456,82.343 C139.853,81.425 137.931,81.006 136.011,81.006 C134.090,81.006 132.158,81.425 130.553,82.343 L94.326,101.952 C92.645,102.869 91.925,104.460 92.001,105.962 C91.925,107.553 92.645,109.133 94.326,110.050 L130.553,129.671 C132.158,130.587 134.078,131.007 136.011,131.007 C137.931,131.007 139.853,130.587 141.456,129.671 L177.684,110.050 Z"/>
<path fill-rule="evenodd"  opacity="0.702" fill="rgb(23, 204, 95)"
 d="M91.999,37.000 L92.999,37.000 L92.999,106.000 L91.999,106.000 L91.999,37.000 Z"/>
<path fill-rule="evenodd"  opacity="0.702" fill="rgb(23, 204, 95)"
 d="M178.999,37.000 L179.999,37.000 L179.999,106.000 L178.999,106.000 L178.999,37.000 Z"/>
<path fill-rule="evenodd"  stroke="rgb(127, 127, 127)" stroke-width="1px" stroke-dasharray="4, 2" stroke-linecap="butt" stroke-linejoin="miter" fill="none"
 d="M80.997,40.999 L80.997,104.999 "/>
<path fill-rule="evenodd"  stroke="rgb(127, 127, 127)" stroke-width="1px" stroke-dasharray="4, 2" stroke-linecap="butt" stroke-linejoin="miter" fill="none"
 d="M191.997,40.999 L191.997,104.999 "/>
<path fill-rule="evenodd"  stroke="rgb(127, 127, 127)" stroke-width="1px" stroke-dasharray="4, 2" stroke-linecap="butt" stroke-linejoin="miter" fill="none"
 d="M136.997,68.999 L136.997,136.999 "/>
<path fill-rule="evenodd"  stroke="rgb(127, 127, 127)" stroke-width="1px" stroke-dasharray="4, 2" stroke-linecap="butt" stroke-linejoin="miter" fill="none"
 d="M136.997,6.999 L136.997,9.999 "/>
<path fill-rule="evenodd"  stroke="rgb(127, 127, 127)" stroke-width="1px" stroke-dasharray="4, 2" stroke-linecap="butt" stroke-linejoin="miter" fill="none"
 d="M189.009,41.420 C191.147,40.271 192.162,38.277 191.967,36.395 C192.176,34.401 191.147,32.518 189.009,31.369 L142.921,6.699 C140.879,5.550 138.436,5.024 135.992,5.024 C133.548,5.024 131.090,5.550 129.048,6.699 L82.959,31.272 C80.822,32.421 79.904,34.415 80.002,36.297 C79.904,38.291 80.822,40.271 82.959,41.420 L129.048,66.006 C131.090,67.156 133.534,67.682 135.992,67.682 C138.436,67.682 140.879,67.156 142.921,66.006 L189.009,41.420 Z"/>
<path fill-rule="evenodd"  stroke="rgb(23, 204, 95)" stroke-width="1px" stroke-linecap="butt" stroke-linejoin="miter" fill="none"
 d="M177.684,39.050 C179.365,38.133 180.162,36.542 180.010,35.040 C180.172,33.449 179.365,31.946 177.684,31.029 L141.456,11.343 C139.853,10.425 137.931,10.006 136.011,10.006 C134.090,10.006 132.158,10.425 130.553,11.343 L94.326,30.952 C92.645,31.869 91.925,33.460 92.001,34.962 C91.925,36.553 92.645,38.133 94.326,39.050 L130.553,58.671 C132.158,59.587 134.078,60.007 136.011,60.007 C137.931,60.007 139.853,59.587 141.456,58.671 L177.684,39.050 Z"/>
<path fill-rule="evenodd"  stroke="rgb(23, 204, 95)" stroke-width="1px" stroke-linecap="butt" stroke-linejoin="miter" fill="none"
 d="M138.456,15.249 L136.851,14.540 L133.106,16.195 L140.596,16.195 L141.933,17.142 L130.431,17.142 L128.024,18.324 L145.143,18.324 L147.282,19.743 L125.616,19.743 L123.744,20.926 L150.224,20.926 L152.900,22.345 L120.535,22.345 L118.126,23.764 L156.108,23.764 L158.249,25.183 L115.185,25.183 L113.313,26.366 L161.726,26.602 L163.866,27.785 L109.568,28.021 L107.428,29.204 L167.344,29.440 L169.216,30.623 L104.485,30.860 L102.346,32.278 L172.099,32.278 L174.239,33.698 L98.601,33.698 L97.633,34.880 L175.518,35.354 L174.774,36.773 L99.136,36.773 L101.009,37.955 L170.821,38.428 L168.681,39.847 L105.288,39.847 L107.161,41.030 L166.006,41.030 L164.401,42.449 L110.638,42.449 L112.242,43.632 L160.121,43.868 L158.249,45.287 L115.987,45.287 L117.860,46.470 L154.772,46.470 L152.900,47.889 L121.337,48.125 L123.209,49.308 L148.620,49.544 L146.748,50.964 L127.757,50.964 L129.629,52.383 L143.271,52.146 L141.665,53.565 L133.641,53.802 L136.851,55.457 L138.723,54.748 "/>
<path fill-rule="evenodd"  fill="rgb(23, 204, 95)"
 d="M226.999,43.000 C228.103,43.000 228.998,43.895 228.998,45.000 L228.998,75.000 C228.998,76.104 228.103,77.000 226.999,77.000 C225.894,77.000 224.999,76.104 224.999,75.000 L224.999,45.000 C224.999,43.895 225.894,43.000 226.999,43.000 Z"/>
<path fill-rule="evenodd"  fill="rgb(183, 183, 183)"
 d="M212.008,16.342 C212.008,16.342 211.985,35.500 212.008,35.828 C212.033,36.156 212.437,37.067 213.782,38.399 C215.129,39.732 225.686,51.585 225.850,51.771 C226.013,51.956 226.179,52.284 226.737,52.285 C227.294,52.286 227.767,51.823 228.157,51.428 C228.546,51.033 240.318,37.887 240.755,37.371 C241.193,36.855 241.639,36.041 241.642,34.628 C241.646,33.215 241.642,16.342 241.642,16.342 L212.008,16.342 Z"/>
<path fill-rule="evenodd"  fill="rgb(207, 207, 207)"
 d="M213.605,38.056 C213.605,38.056 214.443,39.071 216.089,39.770 C218.709,40.885 223.131,41.843 227.624,41.485 C234.942,40.903 239.513,39.428 239.513,39.428 L227.447,52.456 L225.672,52.285 L213.428,38.399 L213.605,38.056 Z"/>
<path fill-rule="evenodd"  fill="rgb(127, 127, 127)"
 d="M235.964,15.999 L235.964,40.113 L227.270,52.456 L227.624,52.456 C227.624,52.456 241.418,36.957 241.820,36.171 C242.222,35.385 241.820,15.999 241.820,15.999 L235.964,15.999 Z"/>
<path fill-rule="evenodd"  fill="rgb(249, 249, 249)"
 d="M215.912,16.342 L215.912,39.599 L226.560,52.285 L222.833,41.313 L223.010,16.170 L215.912,16.342 Z"/>
<path fill-rule="evenodd"  fill="rgb(102, 102, 102)"
 d="M236.201,98.996 C235.759,98.996 235.400,98.612 235.400,98.139 L235.400,87.853 C235.400,87.380 235.759,86.996 236.201,86.996 C236.642,86.996 237.000,87.380 237.000,87.853 L237.000,98.139 C237.000,98.612 236.642,98.996 236.201,98.996 ZM231.966,96.458 C231.651,96.773 231.160,96.764 230.855,96.438 C230.550,96.111 230.542,95.584 230.835,95.247 L232.135,93.854 L221.866,93.854 L223.167,95.247 C223.470,95.584 223.466,96.119 223.157,96.449 C222.848,96.780 222.349,96.784 222.035,96.458 L219.370,93.604 C219.295,93.524 219.236,93.428 219.195,93.322 C219.171,93.259 219.168,93.191 219.158,93.125 C219.152,93.081 219.134,93.041 219.134,92.996 C219.134,92.949 219.152,92.908 219.159,92.863 C219.169,92.798 219.172,92.732 219.195,92.671 C219.236,92.564 219.296,92.468 219.371,92.388 L222.035,89.533 C222.350,89.219 222.842,89.228 223.146,89.554 C223.451,89.880 223.460,90.406 223.166,90.744 L221.865,92.139 L232.135,92.139 L230.834,90.744 C230.531,90.408 230.536,89.873 230.844,89.543 C231.153,89.213 231.652,89.208 231.966,89.533 L234.633,92.391 C234.944,92.725 234.944,93.267 234.633,93.602 L231.966,96.458 ZM217.800,98.996 C217.359,98.996 217.001,98.612 217.001,98.139 L217.001,87.853 C217.001,87.380 217.359,86.996 217.800,86.996 C218.242,86.996 218.601,87.380 218.601,87.853 L218.601,98.139 C218.601,98.612 218.242,98.996 217.800,98.996 Z"/>
</svg>
