<svg 
 xmlns="http://www.w3.org/2000/svg"
 xmlns:xlink="http://www.w3.org/1999/xlink"
 width="300.5px" height="147.5px">
<path fill-rule="evenodd"  fill="none"
 d="M-0.001,-0.000 L299.999,-0.000 L299.999,147.000 L-0.001,147.000 L-0.001,-0.000 Z"/>
<path fill-rule="evenodd"  fill="rgb(127, 127, 127)"
 d="M189.009,111.749 C191.148,110.600 192.162,108.607 191.968,106.724 C192.176,104.731 191.148,102.847 189.009,101.698 L142.921,77.028 C140.880,75.879 138.436,75.353 135.992,75.353 C133.548,75.353 131.089,75.879 129.049,77.028 L82.961,101.602 C80.822,102.750 79.905,104.744 80.003,106.627 C79.905,108.620 80.822,110.600 82.961,111.749 L129.049,136.336 C131.089,137.485 133.534,138.011 135.992,138.011 C138.436,138.011 140.880,137.485 142.921,136.336 L189.009,111.749 Z"/>
<path fill-rule="evenodd"  fill="rgb(98, 98, 98)"
 d="M189.009,108.420 C191.148,107.271 192.162,105.278 191.968,103.394 C192.176,101.401 191.148,99.518 189.009,98.369 L142.921,73.699 C140.880,72.550 138.436,72.024 135.992,72.024 C133.548,72.024 131.089,72.550 129.049,73.699 L82.961,98.272 C80.822,99.422 79.905,101.415 80.003,103.298 C79.905,105.290 80.822,107.271 82.961,108.420 L129.049,133.007 C131.089,134.156 133.534,134.682 135.992,134.682 C138.436,134.682 140.880,134.156 142.921,133.007 L189.009,108.420 Z"/>
<path fill-rule="evenodd"  fill="rgb(127, 127, 127)"
 d="M189.009,107.154 C191.148,106.005 192.162,104.011 191.968,102.129 C192.176,100.136 191.148,98.253 189.009,97.103 L142.921,72.433 C140.880,71.284 138.436,70.758 135.992,70.758 C133.548,70.758 131.089,71.284 129.049,72.433 L82.961,97.006 C80.822,98.156 79.905,100.149 80.003,102.032 C79.905,104.025 80.822,106.005 82.961,107.154 L129.049,131.741 C131.089,132.890 133.534,133.416 135.992,133.416 C138.436,133.416 140.880,132.890 142.921,131.741 L189.009,107.154 Z"/>
<path fill-rule="evenodd"  fill="rgb(98, 98, 98)"
 d="M189.009,103.420 C191.148,102.271 192.162,100.277 191.968,98.395 C192.176,96.402 191.148,94.518 189.009,93.369 L142.921,68.699 C140.880,67.550 138.436,67.024 135.992,67.024 C133.548,67.024 131.089,67.550 129.049,68.699 L82.961,93.272 C80.822,94.422 79.905,96.415 80.003,98.298 C79.905,100.291 80.822,102.271 82.961,103.420 L129.049,128.007 C131.089,129.156 133.534,129.682 135.992,129.682 C138.436,129.682 140.880,129.156 142.921,128.007 L189.009,103.420 Z"/>
<path fill-rule="evenodd"  fill="rgb(127, 127, 127)"
 d="M189.009,102.154 C191.148,101.005 192.162,99.012 191.968,97.129 C192.176,95.136 191.148,93.253 189.009,92.103 L142.921,67.433 C140.880,66.284 138.436,65.758 135.992,65.758 C133.548,65.758 131.089,66.284 129.049,67.433 L82.961,92.006 C80.822,93.156 79.905,95.149 80.003,97.032 C79.905,99.025 80.822,101.005 82.961,102.154 L129.049,126.741 C131.089,127.890 133.534,128.416 135.992,128.416 C138.436,128.416 140.880,127.890 142.921,126.741 L189.009,102.154 Z"/>
<path fill-rule="evenodd"  fill="rgb(98, 98, 98)"
 d="M189.009,98.420 C191.148,97.271 192.162,95.277 191.968,93.395 C192.176,91.401 191.148,89.518 189.009,88.369 L142.921,63.699 C140.880,62.550 138.436,62.024 135.992,62.024 C133.548,62.024 131.089,62.550 129.049,63.699 L82.961,88.272 C80.822,89.421 79.905,91.415 80.003,93.297 C79.905,95.291 80.822,97.271 82.961,98.420 L129.049,123.007 C131.089,124.156 133.534,124.682 135.992,124.682 C138.436,124.682 140.880,124.156 142.921,123.007 L189.009,98.420 Z"/>
<path fill-rule="evenodd"  fill="rgb(127, 127, 127)"
 d="M189.009,97.154 C191.148,96.005 192.162,94.011 191.968,92.129 C192.176,90.135 191.148,88.252 189.009,87.103 L142.921,62.433 C140.880,61.284 138.436,60.758 135.992,60.758 C133.548,60.758 131.089,61.284 129.049,62.433 L82.961,87.006 C80.822,88.156 79.905,90.149 80.003,92.031 C79.905,94.025 80.822,96.005 82.961,97.154 L129.049,121.741 C131.089,122.891 133.534,123.416 135.992,123.416 C138.436,123.416 140.880,122.891 142.921,121.741 L189.009,97.154 Z"/>
<path fill-rule="evenodd"  fill="rgb(98, 98, 98)"
 d="M189.009,93.420 C191.148,92.271 192.162,90.278 191.968,88.395 C192.176,86.401 191.148,84.518 189.009,83.369 L142.921,58.698 C140.880,57.550 138.436,57.024 135.992,57.024 C133.548,57.024 131.089,57.550 129.049,58.698 L82.961,83.272 C80.822,84.422 79.905,86.415 80.003,88.298 C79.905,90.291 80.822,92.271 82.961,93.420 L129.049,118.007 C131.089,119.156 133.534,119.682 135.992,119.682 C138.436,119.682 140.880,119.156 142.921,118.007 L189.009,93.420 Z"/>
<path fill-rule="evenodd"  fill="rgb(127, 127, 127)"
 d="M189.009,92.154 C191.148,91.005 192.162,89.012 191.968,87.129 C192.176,85.136 191.148,83.252 189.009,82.103 L142.921,57.433 C140.880,56.284 138.436,55.758 135.992,55.758 C133.548,55.758 131.089,56.284 129.049,57.433 L82.961,82.006 C80.822,83.155 79.905,85.149 80.003,87.031 C79.905,89.025 80.822,91.005 82.961,92.154 L129.049,116.741 C131.089,117.890 133.534,118.416 135.992,118.416 C138.436,118.416 140.880,117.890 142.921,116.741 L189.009,92.154 Z"/>
<path fill-rule="evenodd"  fill="rgb(98, 98, 98)"
 d="M189.009,88.420 C191.148,87.271 192.162,85.278 191.968,83.395 C192.176,81.401 191.148,79.518 189.009,78.369 L142.921,53.699 C140.880,52.550 138.436,52.024 135.992,52.024 C133.548,52.024 131.089,52.550 129.049,53.699 L82.961,78.273 C80.822,79.421 79.905,81.415 80.003,83.298 C79.905,85.291 80.822,87.271 82.961,88.420 L129.049,113.007 C131.089,114.156 133.534,114.682 135.992,114.682 C138.436,114.682 140.880,114.156 142.921,113.007 L189.009,88.420 Z"/>
<path fill-rule="evenodd"  fill="rgb(127, 127, 127)"
 d="M189.009,87.154 C191.148,86.005 192.162,84.012 191.968,82.129 C192.176,80.135 191.148,78.252 189.009,77.103 L142.921,52.433 C140.880,51.284 138.436,50.758 135.992,50.758 C133.548,50.758 131.089,51.284 129.049,52.433 L82.961,77.007 C80.822,78.155 79.905,80.149 80.003,82.031 C79.905,84.025 80.822,86.005 82.961,87.154 L129.049,111.741 C131.089,112.890 133.534,113.416 135.992,113.416 C138.436,113.416 140.880,112.890 142.921,111.741 L189.009,87.154 Z"/>
<path fill-rule="evenodd"  fill="rgb(98, 98, 98)"
 d="M189.009,83.420 C191.148,82.270 192.162,80.277 191.968,78.395 C192.176,76.402 191.148,74.518 189.009,73.369 L142.921,48.699 C140.880,47.550 138.436,47.023 135.992,47.023 C133.548,47.023 131.089,47.550 129.049,48.699 L82.961,73.272 C80.822,74.421 79.905,76.415 80.003,78.298 C79.905,80.291 80.822,82.270 82.961,83.420 L129.049,108.007 C131.089,109.156 133.534,109.682 135.992,109.682 C138.436,109.682 140.880,109.156 142.921,108.007 L189.009,83.420 Z"/>
<path fill-rule="evenodd"  fill="rgb(127, 127, 127)"
 d="M189.009,82.154 C191.148,81.005 192.162,79.012 191.968,77.129 C192.176,75.136 191.148,73.252 189.009,72.103 L142.921,47.433 C140.880,46.284 138.436,45.758 135.992,45.758 C133.548,45.758 131.089,46.284 129.049,47.433 L82.961,72.007 C80.822,73.155 79.905,75.149 80.003,77.032 C79.905,79.025 80.822,81.005 82.961,82.154 L129.049,106.741 C131.089,107.890 133.534,108.416 135.992,108.416 C138.436,108.416 140.880,107.890 142.921,106.741 L189.009,82.154 Z"/>
<path fill-rule="evenodd"  fill="rgb(98, 98, 98)"
 d="M189.009,78.420 C191.148,77.271 192.162,75.278 191.968,73.395 C192.176,71.402 191.148,69.518 189.009,68.369 L142.921,43.699 C140.880,42.550 138.436,42.023 135.992,42.023 C133.548,42.023 131.089,42.550 129.049,43.699 L82.961,68.272 C80.822,69.422 79.905,71.415 80.003,73.297 C79.905,75.291 80.822,77.271 82.961,78.420 L129.049,103.007 C131.089,104.156 133.534,104.682 135.992,104.682 C138.436,104.682 140.880,104.156 142.921,103.007 L189.009,78.420 Z"/>
<path fill-rule="evenodd"  fill="rgb(127, 127, 127)"
 d="M189.009,77.154 C191.148,76.005 192.162,74.012 191.968,72.129 C192.176,70.136 191.148,68.252 189.009,67.103 L142.921,42.433 C140.880,41.284 138.436,40.758 135.992,40.758 C133.548,40.758 131.089,41.284 129.049,42.433 L82.961,67.007 C80.822,68.155 79.905,70.149 80.003,72.032 C79.905,74.025 80.822,76.005 82.961,77.154 L129.049,101.741 C131.089,102.890 133.534,103.416 135.992,103.416 C138.436,103.416 140.880,102.890 142.921,101.741 L189.009,77.154 Z"/>
<path fill-rule="evenodd"  fill="rgb(98, 98, 98)"
 d="M189.009,73.420 C191.148,72.271 192.162,70.277 191.968,68.394 C192.176,66.401 191.148,64.518 189.009,63.369 L142.921,38.699 C140.880,37.549 138.436,37.024 135.992,37.024 C133.548,37.024 131.089,37.549 129.049,38.699 L82.961,63.272 C80.822,64.422 79.905,66.415 80.003,68.297 C79.905,70.291 80.822,72.271 82.961,73.420 L129.049,98.007 C131.089,99.156 133.534,99.681 135.992,99.681 C138.436,99.681 140.880,99.156 142.921,98.007 L189.009,73.420 Z"/>
<path fill-rule="evenodd"  fill="rgb(127, 127, 127)"
 d="M189.009,72.154 C191.148,71.005 192.162,69.011 191.968,67.129 C192.176,65.136 191.148,63.253 189.009,62.103 L142.921,37.433 C140.880,36.284 138.436,35.758 135.992,35.758 C133.548,35.758 131.089,36.284 129.049,37.433 L82.961,62.006 C80.822,63.156 79.905,65.149 80.003,67.032 C79.905,69.025 80.822,71.005 82.961,72.154 L129.049,96.741 C131.089,97.890 133.534,98.416 135.992,98.416 C138.436,98.416 140.880,97.890 142.921,96.741 L189.009,72.154 Z"/>
<path fill-rule="evenodd"  fill="rgb(98, 98, 98)"
 d="M189.009,68.420 C191.148,67.271 192.162,65.277 191.968,63.395 C192.176,61.402 191.148,59.518 189.009,58.368 L142.921,33.699 C140.880,32.549 138.436,32.024 135.992,32.024 C133.548,32.024 131.089,32.549 129.049,33.699 L82.961,58.272 C80.822,59.421 79.905,61.415 80.003,63.298 C79.905,65.291 80.822,67.271 82.961,68.420 L129.049,93.007 C131.089,94.156 133.534,94.682 135.992,94.682 C138.436,94.682 140.880,94.156 142.921,93.007 L189.009,68.420 Z"/>
<path fill-rule="evenodd"  fill="rgb(127, 127, 127)"
 d="M189.009,67.154 C191.148,66.005 192.162,64.011 191.968,62.129 C192.176,60.136 191.148,58.252 189.009,57.103 L142.921,32.433 C140.880,31.284 138.436,30.758 135.992,30.758 C133.548,30.758 131.089,31.284 129.049,32.433 L82.961,57.006 C80.822,58.156 79.905,60.149 80.003,62.032 C79.905,64.025 80.822,66.005 82.961,67.154 L129.049,91.741 C131.089,92.890 133.534,93.416 135.992,93.416 C138.436,93.416 140.880,92.890 142.921,91.741 L189.009,67.154 Z"/>
<path fill-rule="evenodd"  fill="rgb(98, 98, 98)"
 d="M189.009,63.420 C191.148,62.271 192.162,60.278 191.968,58.395 C192.176,56.401 191.148,54.518 189.009,53.369 L142.921,28.699 C140.880,27.550 138.436,27.024 135.992,27.024 C133.548,27.024 131.089,27.550 129.049,28.699 L82.961,53.272 C80.822,54.421 79.905,56.415 80.003,58.298 C79.905,60.291 80.822,62.271 82.961,63.420 L129.049,88.006 C131.089,89.156 133.534,89.682 135.992,89.682 C138.436,89.682 140.880,89.156 142.921,88.006 L189.009,63.420 Z"/>
<path fill-rule="evenodd"  fill="rgb(127, 127, 127)"
 d="M189.009,62.154 C191.148,61.005 192.162,59.011 191.968,57.129 C192.176,55.135 191.148,53.252 189.009,52.103 L142.921,27.433 C140.880,26.284 138.436,25.758 135.992,25.758 C133.548,25.758 131.089,26.284 129.049,27.433 L82.961,52.006 C80.822,53.156 79.905,55.149 80.003,57.032 C79.905,59.025 80.822,61.005 82.961,62.154 L129.049,86.741 C131.089,87.891 133.534,88.416 135.992,88.416 C138.436,88.416 140.880,87.891 142.921,86.741 L189.009,62.154 Z"/>
<path fill-rule="evenodd"  fill="rgb(98, 98, 98)"
 d="M189.009,58.420 C191.148,57.271 192.162,55.278 191.968,53.395 C192.176,51.401 191.148,49.518 189.009,48.369 L142.921,23.699 C140.880,22.550 138.436,22.024 135.992,22.024 C133.548,22.024 131.089,22.550 129.049,23.699 L82.961,48.273 C80.822,49.421 79.905,51.415 80.003,53.298 C79.905,55.291 80.822,57.271 82.961,58.420 L129.049,83.006 C131.089,84.156 133.534,84.682 135.992,84.682 C138.436,84.682 140.880,84.156 142.921,83.006 L189.009,58.420 Z"/>
<path fill-rule="evenodd"  fill="rgb(127, 127, 127)"
 d="M189.009,57.154 C191.148,56.005 192.162,54.011 191.968,52.129 C192.176,50.135 191.148,48.252 189.009,47.103 L142.921,22.433 C140.880,21.284 138.436,20.758 135.992,20.758 C133.548,20.758 131.089,21.284 129.049,22.433 L82.961,47.006 C80.822,48.155 79.905,50.149 80.003,52.032 C79.905,54.025 80.822,56.005 82.961,57.154 L129.049,81.741 C131.089,82.890 133.534,83.416 135.992,83.416 C138.436,83.416 140.880,82.890 142.921,81.741 L189.009,57.154 Z"/>
<path fill-rule="evenodd"  fill="rgb(98, 98, 98)"
 d="M189.009,53.420 C191.148,52.271 192.162,50.278 191.968,48.395 C192.176,46.402 191.148,44.518 189.009,43.369 L142.921,18.699 C140.880,17.550 138.436,17.024 135.992,17.024 C133.548,17.024 131.089,17.550 129.049,18.699 L82.961,43.273 C80.822,44.421 79.905,46.415 80.003,48.298 C79.905,50.291 80.822,52.271 82.961,53.420 L129.049,78.007 C131.089,79.156 133.534,79.682 135.992,79.682 C138.436,79.682 140.880,79.156 142.921,78.007 L189.009,53.420 Z"/>
<path fill-rule="evenodd"  fill="rgb(127, 127, 127)"
 d="M189.009,52.154 C191.148,51.005 192.162,49.012 191.968,47.129 C192.176,45.135 191.148,43.252 189.009,42.103 L142.921,17.433 C140.880,16.284 138.436,15.758 135.992,15.758 C133.548,15.758 131.089,16.284 129.049,17.433 L82.961,42.006 C80.822,43.156 79.905,45.149 80.003,47.032 C79.905,49.025 80.822,51.005 82.961,52.154 L129.049,76.741 C131.089,77.890 133.534,78.416 135.992,78.416 C138.436,78.416 140.880,77.890 142.921,76.741 L189.009,52.154 Z"/>
<path fill-rule="evenodd"  fill="rgb(98, 98, 98)"
 d="M189.009,48.420 C191.148,47.271 192.162,45.277 191.968,43.395 C192.176,41.402 191.148,39.518 189.009,38.369 L142.921,13.699 C140.880,12.550 138.436,12.024 135.992,12.024 C133.548,12.024 131.089,12.550 129.049,13.699 L82.961,38.272 C80.822,39.421 79.905,41.415 80.003,43.298 C79.905,45.291 80.822,47.271 82.961,48.420 L129.049,73.007 C131.089,74.156 133.534,74.682 135.992,74.682 C138.436,74.682 140.880,74.156 142.921,73.007 L189.009,48.420 Z"/>
<path fill-rule="evenodd"  fill="rgb(127, 127, 127)"
 d="M189.009,47.154 C191.148,46.005 192.162,44.012 191.968,42.129 C192.176,40.135 191.148,38.252 189.009,37.103 L142.921,12.433 C140.880,11.284 138.436,10.758 135.992,10.758 C133.548,10.758 131.089,11.284 129.049,12.433 L82.961,37.007 C80.822,38.156 79.905,40.149 80.003,42.032 C79.905,44.025 80.822,46.005 82.961,47.154 L129.049,71.741 C131.089,72.890 133.534,73.416 135.992,73.416 C138.436,73.416 140.880,72.890 142.921,71.741 L189.009,47.154 Z"/>
<path fill-rule="evenodd"  fill="rgb(108, 108, 108)"
 d="M189.009,43.420 C191.148,42.271 192.162,40.277 191.968,38.395 C192.176,36.402 191.148,34.518 189.009,33.369 L142.921,8.699 C140.880,7.549 138.436,7.024 135.992,7.024 C133.548,7.024 131.089,7.549 129.049,8.699 L82.961,33.272 C80.822,34.421 79.905,36.415 80.003,38.297 C79.905,40.291 80.822,42.271 82.961,43.420 L129.049,68.007 C131.089,69.156 133.534,69.682 135.992,69.682 C138.436,69.682 140.880,69.156 142.921,68.007 L189.009,43.420 Z"/>
<path fill-rule="evenodd"  fill="rgb(127, 127, 127)"
 d="M189.009,42.154 C191.148,41.005 192.162,39.012 191.968,37.128 C192.176,35.136 191.148,33.252 189.009,32.103 L142.921,7.433 C140.880,6.284 138.436,5.758 135.992,5.758 C133.548,5.758 131.089,6.284 129.049,7.433 L82.961,32.006 C80.822,33.156 79.905,35.149 80.003,37.032 C79.905,39.025 80.822,41.005 82.961,42.154 L129.049,66.741 C131.089,67.890 133.534,68.416 135.992,68.416 C138.436,68.416 140.880,67.890 142.921,66.741 L189.009,42.154 Z"/>
<path fill-rule="evenodd"  stroke="rgb(109, 109, 109)" stroke-width="1px" stroke-linecap="butt" stroke-linejoin="miter" fill="none"
 d="M177.684,41.050 C179.364,40.133 180.161,38.543 180.009,37.040 C180.172,35.450 179.364,33.946 177.684,33.029 L141.456,13.342 C139.852,12.425 137.932,12.006 136.010,12.006 C134.089,12.006 132.157,12.425 130.553,13.342 L94.325,32.952 C92.645,33.869 91.925,35.460 92.001,36.963 C91.925,38.553 92.645,40.133 94.325,41.050 L130.553,60.671 C132.157,61.588 134.079,62.007 136.010,62.007 C137.932,62.007 139.852,61.588 141.456,60.671 L177.684,41.050 Z"/>
<path fill-rule="evenodd"  stroke="rgb(109, 109, 109)" stroke-width="1px" stroke-linecap="butt" stroke-linejoin="miter" fill="none"
 d="M138.455,17.249 L136.850,16.540 L133.106,18.196 L140.595,18.196 L141.932,19.141 L130.431,19.141 L128.024,20.325 L145.143,20.325 L147.282,21.743 L125.617,21.743 L123.745,22.925 L150.224,22.925 L152.899,24.345 L120.534,24.345 L118.127,25.764 L156.110,25.764 L158.249,27.183 L115.185,27.183 L113.313,28.366 L161.727,28.602 L163.866,29.785 L109.567,30.021 L107.428,31.204 L167.343,31.440 L169.216,32.623 L104.486,32.860 L102.346,34.279 L172.099,34.279 L174.239,35.698 L98.600,35.698 L97.632,36.880 L175.517,37.353 L174.774,38.773 L99.136,38.773 L101.008,39.955 L170.821,40.428 L168.681,41.848 L105.287,41.848 L107.161,43.030 L166.006,43.030 L164.401,44.448 L110.638,44.448 L112.242,45.632 L160.121,45.868 L158.249,47.287 L115.987,47.287 L117.860,48.470 L154.772,48.470 L152.899,49.889 L121.337,50.125 L123.209,51.308 L148.619,51.544 L146.747,52.963 L127.756,52.963 L129.629,54.383 L143.270,54.146 L141.665,55.566 L133.641,55.802 L136.850,57.458 L138.723,56.748 "/>
<path fill-rule="evenodd"  opacity="0.302" fill="rgb(0, 0, 0)"
 d="M135.992,138.416 C138.436,138.416 140.880,137.890 142.921,136.741 L189.009,112.154 C191.148,111.005 192.162,109.012 191.968,107.129 C192.176,105.136 192.250,35.145 191.968,37.128 C192.162,40.088 191.136,41.850 188.997,42.998 L147.997,64.999 C145.956,66.148 138.020,69.288 136.997,68.999 C136.987,68.996 137.967,70.686 137.937,71.927 C137.922,72.532 136.906,73.268 136.887,74.118 C136.873,74.781 137.857,75.513 137.840,76.306 C137.826,77.039 136.809,77.825 136.792,78.657 C136.777,79.421 137.760,80.223 137.744,81.060 C137.727,81.874 136.711,82.721 136.694,83.596 C136.675,84.536 137.656,85.509 137.637,86.509 C137.621,87.302 136.606,88.111 136.590,88.935 C136.573,89.813 137.556,90.707 137.539,91.615 C137.528,92.188 136.517,92.767 136.506,93.350 C136.488,94.270 137.470,95.201 137.453,96.140 C137.437,96.989 136.420,97.846 136.405,98.706 C136.389,99.588 137.371,100.474 137.355,101.362 C137.338,102.255 136.321,103.151 136.304,104.045 C136.289,104.895 137.274,105.744 137.257,106.590 C137.244,107.336 136.230,108.080 136.216,108.821 C136.202,109.600 137.187,110.375 137.173,111.145 C137.157,112.032 136.140,112.912 136.125,113.782 C136.109,114.662 137.092,115.532 137.076,116.389 C137.062,117.184 136.048,117.969 136.034,118.739 C136.018,119.589 137.003,120.422 136.987,121.236 C136.973,122.049 135.959,122.844 135.945,123.615 C135.926,124.632 136.908,125.610 136.891,126.542 C136.878,127.280 135.865,127.989 135.852,128.667 C135.837,129.491 136.823,130.267 136.811,130.990 C136.796,131.743 135.784,132.438 135.773,133.068 C135.756,134.014 136.742,134.813 136.730,135.439 C136.712,136.467 135.702,137.033 135.702,137.033 C135.702,137.033 135.884,138.416 135.992,138.416 Z"/>
<path fill-rule="evenodd"  fill="rgb(21, 129, 64)"
 d="M166.996,89.999 L191.998,75.999 L191.998,108.999 L166.996,123.999 L166.996,89.999 Z"/>
<path fill-rule="evenodd"  fill="rgb(23, 204, 95)"
 d="M166.996,91.101 L166.996,93.032 C166.996,93.032 167.977,92.874 167.956,93.032 C167.935,93.189 168.428,121.451 168.435,121.989 C168.442,122.526 168.678,123.147 169.394,122.954 C170.110,122.761 172.590,121.306 172.750,121.024 C172.909,120.741 173.234,89.820 173.228,89.653 C173.223,89.486 174.675,88.828 174.666,89.170 C174.657,89.513 174.620,117.581 174.666,118.128 C174.713,118.674 175.543,119.313 176.105,119.093 C176.666,118.874 179.451,117.024 179.461,116.680 C179.469,116.336 179.316,85.905 179.461,85.792 C179.604,85.678 180.881,85.011 180.898,85.310 C180.915,85.608 180.887,114.218 180.898,114.749 C180.908,115.281 181.356,115.896 181.856,115.715 C182.357,115.533 185.612,113.695 185.691,113.302 C185.770,112.908 185.699,82.567 185.691,82.414 C185.684,82.261 187.101,81.486 187.129,81.931 C187.157,82.376 187.570,110.925 187.609,111.371 C187.647,111.817 188.024,112.030 188.568,111.854 C189.110,111.678 191.780,110.067 191.922,109.440 C192.064,108.814 191.961,77.997 191.922,77.588 C191.883,77.178 191.530,76.815 190.964,77.105 C190.398,77.395 190.459,77.650 190.484,79.035 C190.509,80.420 190.458,108.082 190.484,108.475 C190.511,108.869 189.075,109.812 189.047,109.440 C189.017,109.069 189.061,79.850 189.047,79.517 C189.032,79.186 188.342,78.674 186.650,79.517 C184.958,80.362 184.255,81.011 184.253,81.931 C184.252,82.851 184.314,111.477 184.253,111.854 C184.192,112.230 183.110,113.545 182.815,113.302 C182.520,113.058 182.825,83.984 182.815,83.379 C182.805,82.774 182.118,82.240 180.898,82.896 C179.679,83.552 177.869,84.607 177.543,84.827 C177.216,85.046 177.542,115.912 177.543,116.198 C177.543,116.482 176.597,117.208 176.584,116.680 C176.572,116.151 176.087,87.038 176.105,86.757 C176.122,86.476 175.765,85.913 174.187,86.757 C172.609,87.601 171.467,88.488 171.311,88.688 C171.154,88.887 171.332,119.938 171.311,120.058 C171.291,120.179 170.600,120.429 170.353,120.058 C170.106,119.687 169.853,90.948 169.873,90.618 C169.894,90.288 169.728,89.379 168.915,89.653 C168.101,89.927 166.996,91.101 166.996,91.101 Z"/>
<path fill-rule="evenodd"  fill="rgb(23, 204, 95)"
 d="M226.999,43.000 C228.103,43.000 228.999,43.895 228.999,45.000 L228.999,75.000 C228.999,76.104 228.103,77.000 226.999,77.000 C225.894,77.000 224.998,76.104 224.998,75.000 L224.998,45.000 C224.998,43.895 225.894,43.000 226.999,43.000 Z"/>
<path fill-rule="evenodd"  fill="rgb(183, 183, 183)"
 d="M212.008,16.342 C212.008,16.342 211.984,35.500 212.008,35.828 C212.033,36.156 212.437,37.067 213.783,38.399 C215.128,39.732 225.686,51.586 225.850,51.771 C226.012,51.956 226.179,52.284 226.736,52.285 C227.294,52.286 227.766,51.823 228.156,51.428 C228.546,51.033 240.317,37.887 240.755,37.371 C241.193,36.855 241.639,36.041 241.643,34.628 C241.646,33.215 241.643,16.342 241.643,16.342 L212.008,16.342 Z"/>
<path fill-rule="evenodd"  fill="rgb(207, 207, 207)"
 d="M213.605,38.056 C213.605,38.056 214.443,39.071 216.090,39.770 C218.709,40.885 223.130,41.843 227.624,41.485 C234.941,40.903 239.512,39.428 239.512,39.428 L227.447,52.456 L225.672,52.285 L213.427,38.399 L213.605,38.056 Z"/>
<path fill-rule="evenodd"  fill="rgb(127, 127, 127)"
 d="M235.964,15.999 L235.964,40.113 L227.269,52.456 L227.624,52.456 C227.624,52.456 241.418,36.957 241.819,36.171 C242.221,35.385 241.819,15.999 241.819,15.999 L235.964,15.999 Z"/>
<path fill-rule="evenodd"  fill="rgb(249, 249, 249)"
 d="M215.912,16.342 L215.912,39.599 L226.559,52.285 L222.832,41.314 L223.010,16.170 L215.912,16.342 Z"/>
<path fill-rule="evenodd"  fill="rgb(102, 102, 102)"
 d="M236.201,98.996 C235.758,98.996 235.400,98.612 235.400,98.139 L235.400,87.854 C235.400,87.380 235.758,86.996 236.201,86.996 C236.643,86.996 237.000,87.380 237.000,87.854 L237.000,98.139 C237.000,98.612 236.643,98.996 236.201,98.996 ZM231.966,96.458 C231.650,96.773 231.159,96.764 230.855,96.438 C230.550,96.111 230.541,95.585 230.835,95.247 L232.135,93.854 L221.866,93.854 L223.167,95.247 C223.470,95.584 223.465,96.119 223.157,96.450 C222.848,96.780 222.349,96.784 222.035,96.458 L219.370,93.604 C219.295,93.524 219.236,93.428 219.195,93.322 C219.164,93.242 219.155,93.156 219.148,93.071 C219.146,93.045 219.134,93.023 219.134,92.996 C219.134,92.967 219.146,92.943 219.149,92.916 C219.156,92.832 219.165,92.748 219.195,92.670 C219.236,92.563 219.296,92.468 219.371,92.388 L222.035,89.533 C222.350,89.219 222.841,89.228 223.146,89.554 C223.451,89.881 223.459,90.406 223.165,90.744 L221.865,92.139 L232.135,92.139 L230.834,90.744 C230.531,90.408 230.536,89.873 230.844,89.543 C231.153,89.213 231.652,89.207 231.966,89.533 L234.632,92.391 C234.945,92.725 234.945,93.267 234.632,93.602 L231.966,96.458 ZM217.801,98.996 C217.359,98.996 217.000,98.612 217.000,98.139 L217.000,87.854 C217.000,87.380 217.359,86.996 217.801,86.996 C218.242,86.996 218.600,87.380 218.600,87.854 L218.600,98.139 C218.600,98.612 218.242,98.996 217.801,98.996 Z"/>
</svg>
