<svg 
 xmlns="http://www.w3.org/2000/svg"
 xmlns:xlink="http://www.w3.org/1999/xlink"
 width="300px" height="147px">
<path fill-rule="evenodd"  fill="none"
 d="M-0.000,0.000 L300.000,0.000 L300.000,147.000 L-0.000,147.000 L-0.000,0.000 Z"/>
<path fill-rule="evenodd"  fill="rgb(56, 56, 58)"
 d="M73.988,124.989 L97.988,124.989 C99.645,124.989 100.988,126.333 100.988,127.989 C100.988,129.646 99.645,130.989 97.988,130.989 L73.988,130.989 C72.331,130.989 70.988,129.646 70.988,127.989 C70.988,126.333 72.331,124.989 73.988,124.989 Z"/>
<path fill-rule="evenodd"  fill="rgb(56, 56, 58)"
 d="M202.988,124.989 L226.988,124.989 C228.645,124.989 229.988,126.333 229.988,127.989 C229.988,129.646 228.645,130.989 226.988,130.989 L202.988,130.989 C201.331,130.989 199.988,129.646 199.988,127.989 C199.988,126.333 201.331,124.989 202.988,124.989 Z"/>
<path fill-rule="evenodd"  fill="rgb(47, 47, 49)"
 d="M52.998,114.999 L247.998,114.999 C249.103,114.999 249.998,115.894 249.998,116.999 L249.998,122.999 C249.998,124.104 249.103,124.999 247.998,124.999 L52.998,124.999 C51.893,124.999 50.998,124.104 50.998,122.999 L50.998,116.999 C50.998,115.894 51.893,114.999 52.998,114.999 Z"/>
<path fill-rule="evenodd"  fill="rgb(23, 204, 95)"
 d="M94.998,110.000 L94.998,80.000 C94.998,77.238 97.236,75.000 99.998,75.000 C102.759,75.000 104.998,77.238 104.998,80.000 L104.998,110.000 C104.998,112.761 102.759,115.000 99.998,115.000 C97.236,115.000 94.998,112.761 94.998,110.000 Z"/>
<path fill-rule="evenodd"  fill="rgb(16, 142, 66)"
 d="M100.998,110.000 L100.998,80.000 C100.998,75.907 97.243,75.827 97.243,75.827 C97.243,75.827 98.980,75.000 99.998,75.000 C102.759,75.000 104.998,77.238 104.998,80.000 L104.998,110.000 C104.998,112.761 102.759,115.000 99.998,115.000 C98.916,115.000 97.096,114.072 97.096,114.072 C97.096,114.072 100.998,113.912 100.998,110.000 Z"/>
<path fill-rule="evenodd"  fill="rgb(23, 204, 95)"
 d="M106.998,110.000 L106.998,80.000 C106.998,77.238 109.236,75.000 111.998,75.000 C114.759,75.000 116.998,77.238 116.998,80.000 L116.998,110.000 C116.998,112.761 114.759,115.000 111.998,115.000 C109.236,115.000 106.998,112.761 106.998,110.000 Z"/>
<path fill-rule="evenodd"  fill="rgb(16, 142, 66)"
 d="M112.998,110.000 L112.998,80.000 C112.998,75.907 109.243,75.827 109.243,75.827 C109.243,75.827 110.980,75.000 111.998,75.000 C114.759,75.000 116.998,77.238 116.998,80.000 L116.998,110.000 C116.998,112.761 114.759,115.000 111.998,115.000 C110.916,115.000 109.096,114.072 109.096,114.072 C109.096,114.072 112.998,113.912 112.998,110.000 Z"/>
<path fill-rule="evenodd"  fill="rgb(23, 204, 95)"
 d="M118.998,110.000 L118.998,90.000 C118.998,87.238 121.236,85.000 123.997,85.000 C126.759,85.000 128.998,87.238 128.998,90.000 L128.998,110.000 C128.998,112.761 126.759,115.000 123.997,115.000 C121.236,115.000 118.998,112.761 118.998,110.000 Z"/>
<path fill-rule="evenodd"  fill="rgb(16, 142, 66)"
 d="M124.997,110.000 L124.997,90.000 C124.997,85.907 121.243,85.827 121.243,85.827 C121.243,85.827 122.980,85.000 123.998,85.000 C126.759,85.000 128.998,87.239 128.998,90.000 L128.998,110.000 C128.998,112.761 126.759,115.000 123.998,115.000 C122.916,115.000 121.097,114.072 121.097,114.072 C121.097,114.072 124.997,113.912 124.997,110.000 Z"/>
<path fill-rule="evenodd"  fill="rgb(23, 204, 95)"
 d="M185.998,110.000 L185.998,80.000 C185.998,77.238 188.236,75.000 190.998,75.000 C193.760,75.000 195.997,77.238 195.997,80.000 L195.997,110.000 C195.997,112.761 193.760,115.000 190.998,115.000 C188.236,115.000 185.998,112.761 185.998,110.000 Z"/>
<path fill-rule="evenodd"  fill="rgb(16, 142, 66)"
 d="M191.998,110.000 L191.998,80.000 C191.998,75.907 188.243,75.827 188.243,75.827 C188.243,75.827 189.980,75.000 190.998,75.000 C193.760,75.000 195.997,77.238 195.997,80.000 L195.997,110.000 C195.997,112.761 193.760,115.000 190.998,115.000 C189.916,115.000 188.096,114.072 188.096,114.072 C188.096,114.072 191.998,113.912 191.998,110.000 Z"/>
<path fill-rule="evenodd"  fill="rgb(23, 204, 95)"
 d="M197.998,110.000 L197.998,80.000 C197.998,77.238 200.237,75.000 202.998,75.000 C205.759,75.000 207.998,77.238 207.998,80.000 L207.998,110.000 C207.998,112.761 205.759,115.000 202.998,115.000 C200.237,115.000 197.998,112.761 197.998,110.000 Z"/>
<path fill-rule="evenodd"  fill="rgb(16, 142, 66)"
 d="M203.998,110.000 L203.998,80.000 C203.998,75.907 200.243,75.827 200.243,75.827 C200.243,75.827 201.979,75.000 202.998,75.000 C205.759,75.000 207.998,77.238 207.998,80.000 L207.998,110.000 C207.998,112.761 205.759,115.000 202.998,115.000 C201.916,115.000 200.096,114.072 200.096,114.072 C200.096,114.072 203.998,113.912 203.998,110.000 Z"/>
<path fill-rule="evenodd"  fill="rgb(23, 204, 95)"
 d="M130.998,110.000 L130.998,90.000 C130.998,87.238 133.236,85.000 135.998,85.000 C138.759,85.000 140.998,87.238 140.998,90.000 L140.998,110.000 C140.998,112.761 138.759,115.000 135.998,115.000 C133.236,115.000 130.998,112.761 130.998,110.000 Z"/>
<path fill-rule="evenodd"  fill="rgb(16, 142, 66)"
 d="M136.998,110.000 L136.998,90.000 C136.998,85.907 133.243,85.827 133.243,85.827 C133.243,85.827 134.980,85.000 135.998,85.000 C138.759,85.000 140.998,87.239 140.998,90.000 L140.998,110.000 C140.998,112.761 138.759,115.000 135.998,115.000 C134.916,115.000 133.096,114.072 133.096,114.072 C133.096,114.072 136.998,113.912 136.998,110.000 Z"/>
<path fill-rule="evenodd"  fill="rgb(23, 204, 95)"
 d="M161.998,110.000 L161.998,90.000 C161.998,87.238 164.237,85.000 166.998,85.000 C169.759,85.000 171.998,87.238 171.998,90.000 L171.998,110.000 C171.998,112.761 169.759,115.000 166.998,115.000 C164.237,115.000 161.998,112.761 161.998,110.000 Z"/>
<path fill-rule="evenodd"  fill="rgb(16, 142, 66)"
 d="M167.998,110.000 L167.998,90.000 C167.998,85.907 164.242,85.827 164.242,85.827 C164.242,85.827 165.980,85.000 166.998,85.000 C169.760,85.000 171.998,87.239 171.998,90.000 L171.998,110.000 C171.998,112.761 169.760,115.000 166.998,115.000 C165.916,115.000 164.096,114.072 164.096,114.072 C164.096,114.072 167.998,113.912 167.998,110.000 Z"/>
<path fill-rule="evenodd"  fill="rgb(23, 204, 95)"
 d="M173.998,110.000 L173.998,90.000 C173.998,87.238 176.237,85.000 178.998,85.000 C181.759,85.000 183.998,87.238 183.998,90.000 L183.998,110.000 C183.998,112.761 181.759,115.000 178.998,115.000 C176.237,115.000 173.998,112.761 173.998,110.000 Z"/>
<path fill-rule="evenodd"  fill="rgb(16, 142, 66)"
 d="M179.998,110.000 L179.998,90.000 C179.998,85.907 176.243,85.827 176.243,85.827 C176.243,85.827 177.980,85.000 178.998,85.000 C181.760,85.000 183.998,87.239 183.998,90.000 L183.998,110.000 C183.998,112.761 181.760,115.000 178.998,115.000 C177.916,115.000 176.096,114.072 176.096,114.072 C176.096,114.072 179.998,113.912 179.998,110.000 Z"/>
<path fill-rule="evenodd"  fill="rgb(127, 127, 127)"
 d="M95.998,14.999 L205.998,14.999 C208.760,14.999 210.998,17.238 210.998,19.999 C210.998,22.760 208.760,24.999 205.998,24.999 L95.998,24.999 C93.237,24.999 90.997,22.760 90.997,19.999 C90.997,17.238 93.237,14.999 95.998,14.999 Z"/>
<path fill-rule="evenodd"  fill="rgb(103, 103, 103)"
 d="M95.998,20.999 L205.998,20.999 C210.090,20.999 210.171,17.244 210.171,17.244 C210.171,17.244 210.998,18.981 210.998,19.999 C210.998,22.760 208.759,24.999 205.998,24.999 L95.998,24.999 C93.237,24.999 90.997,22.760 90.997,19.999 C90.997,18.917 91.925,17.097 91.925,17.097 C91.925,17.097 92.086,20.999 95.998,20.999 Z"/>
<path fill-rule="evenodd"  fill="rgb(127, 127, 127)"
 d="M125.998,24.999 L175.998,24.999 C178.759,24.999 180.998,27.237 180.998,29.999 C180.998,32.760 178.759,34.999 175.998,34.999 L125.998,34.999 C123.236,34.999 120.998,32.760 120.998,29.999 C120.998,27.237 123.236,24.999 125.998,24.999 Z"/>
<path fill-rule="evenodd"  fill="rgb(103, 103, 103)"
 d="M125.998,30.999 L175.998,30.999 C180.091,30.999 180.170,27.244 180.170,27.244 C180.170,27.244 180.998,28.981 180.998,29.999 C180.998,32.760 178.759,34.999 175.998,34.999 L125.998,34.999 C123.236,34.999 120.998,32.760 120.998,29.999 C120.998,28.917 121.925,27.097 121.925,27.097 C121.925,27.097 122.085,30.999 125.998,30.999 Z"/>
<path fill-rule="evenodd"  fill="rgb(127, 127, 127)"
 d="M145.998,34.999 L155.998,34.999 C158.759,34.999 160.997,37.237 160.997,39.999 C160.997,42.760 158.759,44.999 155.998,44.999 L145.998,44.999 C143.236,44.999 140.998,42.760 140.998,39.999 C140.998,37.237 143.236,34.999 145.998,34.999 Z"/>
<path fill-rule="evenodd"  fill="rgb(103, 103, 103)"
 d="M145.998,40.999 L155.998,40.999 C160.092,40.999 160.171,37.244 160.171,37.244 C160.171,37.244 160.997,38.981 160.997,39.999 C160.997,42.761 158.759,44.999 155.998,44.999 L145.998,44.999 C143.236,44.999 140.998,42.761 140.998,39.999 C140.998,38.917 141.924,37.097 141.924,37.097 C141.924,37.097 142.085,40.999 145.998,40.999 Z"/>
<path fill-rule="evenodd"  fill="rgb(127, 127, 127)"
 d="M145.998,44.999 L155.998,44.999 C158.759,44.999 160.997,47.237 160.997,49.999 C160.997,52.760 158.759,54.999 155.998,54.999 L145.998,54.999 C143.236,54.999 140.998,52.760 140.998,49.999 C140.998,47.237 143.236,44.999 145.998,44.999 Z"/>
<path fill-rule="evenodd"  fill="rgb(103, 103, 103)"
 d="M145.998,50.999 L155.998,50.999 C160.092,50.999 160.171,47.244 160.171,47.244 C160.171,47.244 160.997,48.981 160.997,49.999 C160.997,52.760 158.759,54.999 155.998,54.999 L145.998,54.999 C143.236,54.999 140.998,52.760 140.998,49.999 C140.998,48.917 141.924,47.097 141.924,47.097 C141.924,47.097 142.085,50.999 145.998,50.999 Z"/>
<path fill-rule="evenodd"  fill="rgb(127, 127, 127)"
 d="M145.998,54.999 L155.998,54.999 C158.759,54.999 160.997,57.237 160.997,59.999 C160.997,62.760 158.759,64.998 155.998,64.998 L145.998,64.998 C143.236,64.998 140.998,62.760 140.998,59.999 C140.998,57.237 143.236,54.999 145.998,54.999 Z"/>
<path fill-rule="evenodd"  fill="rgb(103, 103, 103)"
 d="M145.998,60.999 L155.998,60.999 C160.092,60.999 160.171,57.244 160.171,57.244 C160.171,57.244 160.997,58.981 160.997,59.999 C160.997,62.760 158.759,64.998 155.998,64.998 L145.998,64.998 C143.236,64.998 140.998,62.760 140.998,59.999 C140.998,58.917 141.924,57.097 141.924,57.097 C141.924,57.097 142.085,60.999 145.998,60.999 Z"/>
<path fill-rule="evenodd"  fill="rgb(127, 127, 127)"
 d="M95.998,64.999 L205.998,64.999 C208.760,64.999 210.998,67.237 210.998,69.999 C210.998,72.760 208.760,74.999 205.998,74.999 L95.998,74.999 C93.237,74.999 90.997,72.760 90.997,69.999 C90.997,67.237 93.237,64.999 95.998,64.999 Z"/>
<path fill-rule="evenodd"  fill="rgb(103, 103, 103)"
 d="M95.998,70.999 L205.998,70.999 C210.090,70.999 210.171,67.244 210.171,67.244 C210.171,67.244 210.998,68.981 210.998,69.999 C210.998,72.760 208.759,74.999 205.998,74.999 L95.998,74.999 C93.237,74.999 90.997,72.760 90.997,69.999 C90.997,68.917 91.925,67.097 91.925,67.097 C91.925,67.097 92.086,70.999 95.998,70.999 Z"/>
<path fill-rule="evenodd"  fill="rgb(127, 127, 127)"
 d="M125.998,74.999 L175.998,74.999 C178.759,74.999 180.998,77.238 180.998,79.999 C180.998,82.760 178.759,84.999 175.998,84.999 L125.998,84.999 C123.236,84.999 120.998,82.760 120.998,79.999 C120.998,77.238 123.236,74.999 125.998,74.999 Z"/>
<path fill-rule="evenodd"  fill="rgb(103, 103, 103)"
 d="M125.998,80.999 L175.998,80.999 C180.091,80.999 180.170,77.244 180.170,77.244 C180.170,77.244 180.998,78.981 180.998,79.999 C180.998,82.760 178.759,84.999 175.998,84.999 L125.998,84.999 C123.236,84.999 120.998,82.760 120.998,79.999 C120.998,78.917 121.925,77.097 121.925,77.097 C121.925,77.097 122.085,80.999 125.998,80.999 Z"/>
<path fill-rule="evenodd"  fill="rgb(127, 127, 127)"
 d="M145.998,84.999 L155.998,84.999 C158.759,84.999 160.997,87.238 160.997,89.999 C160.997,92.760 158.759,94.999 155.998,94.999 L145.998,94.999 C143.236,94.999 140.998,92.760 140.998,89.999 C140.998,87.238 143.236,84.999 145.998,84.999 Z"/>
<path fill-rule="evenodd"  fill="rgb(103, 103, 103)"
 d="M145.998,90.999 L155.998,90.999 C160.092,90.999 160.171,87.244 160.171,87.244 C160.171,87.244 160.997,88.981 160.997,89.999 C160.997,92.760 158.759,94.999 155.998,94.999 L145.998,94.999 C143.236,94.999 140.998,92.760 140.998,89.999 C140.998,88.917 141.924,87.097 141.924,87.097 C141.924,87.097 142.085,90.999 145.998,90.999 Z"/>
<path fill-rule="evenodd"  fill="rgb(127, 127, 127)"
 d="M145.998,94.999 L155.998,94.999 C158.759,94.999 160.997,97.237 160.997,99.999 C160.997,102.760 158.759,104.999 155.998,104.999 L145.998,104.999 C143.236,104.999 140.998,102.760 140.998,99.999 C140.998,97.237 143.236,94.999 145.998,94.999 Z"/>
<path fill-rule="evenodd"  fill="rgb(103, 103, 103)"
 d="M145.998,100.999 L155.998,100.999 C160.092,100.999 160.171,97.244 160.171,97.244 C160.171,97.244 160.997,98.980 160.997,99.999 C160.997,102.760 158.759,104.999 155.998,104.999 L145.998,104.999 C143.236,104.999 140.998,102.760 140.998,99.999 C140.998,98.917 141.924,97.097 141.924,97.097 C141.924,97.097 142.085,100.999 145.998,100.999 Z"/>
<path fill-rule="evenodd"  fill="rgb(127, 127, 127)"
 d="M145.998,104.999 L155.998,104.999 C158.759,104.999 160.997,107.238 160.997,109.999 C160.997,112.760 158.759,114.999 155.998,114.999 L145.998,114.999 C143.236,114.999 140.998,112.760 140.998,109.999 C140.998,107.238 143.236,104.999 145.998,104.999 Z"/>
<path fill-rule="evenodd"  fill="rgb(103, 103, 103)"
 d="M145.998,110.999 L155.998,110.999 C160.092,110.999 160.171,107.244 160.171,107.244 C160.171,107.244 160.997,108.981 160.997,109.999 C160.997,112.760 158.759,114.999 155.998,114.999 L145.998,114.999 C143.236,114.999 140.998,112.760 140.998,109.999 C140.998,108.917 141.924,107.097 141.924,107.097 C141.924,107.097 142.085,110.999 145.998,110.999 Z"/>
</svg>
