<svg 
 xmlns="http://www.w3.org/2000/svg"
 xmlns:xlink="http://www.w3.org/1999/xlink"
 width="14px" height="14px">
<path fill-rule="evenodd"  fill="none"
 d="M-0.000,-0.000 L14.000,-0.000 L14.000,14.000 L-0.000,14.000 L-0.000,-0.000 Z"/>
<path fill-rule="evenodd"  fill="rgb(51, 51, 51)"
 d="M13.892,5.010 L11.956,8.841 C11.827,9.136 11.568,9.284 11.311,9.284 L9.504,9.284 L9.891,9.578 L9.504,10.315 L9.761,10.757 L10.278,10.168 L10.794,10.610 L10.278,11.199 L10.794,11.789 L8.986,14.000 L8.470,13.410 L7.954,14.000 L7.437,13.410 L7.696,12.673 L7.437,12.378 L6.921,12.968 L6.405,12.378 L6.793,11.642 L6.405,11.199 L5.888,11.789 L5.501,11.199 L5.888,10.610 L5.501,10.168 L4.985,10.757 L4.468,10.168 L4.985,9.431 L4.597,8.989 L4.081,9.578 L3.565,8.989 L3.823,8.400 L3.565,7.957 L3.049,8.547 L2.532,7.957 L2.144,8.547 C1.887,8.841 1.371,8.841 1.240,8.547 L0.208,7.368 C-0.049,7.073 -0.049,6.631 0.079,6.336 L3.952,1.915 C4.339,1.620 4.727,1.620 4.985,1.915 L5.630,2.652 L6.793,0.294 C6.921,0.147 7.180,-0.001 7.437,-0.001 L11.311,-0.001 C11.568,-0.001 11.827,0.147 11.956,0.294 L13.892,4.273 C14.021,4.420 14.021,4.715 13.892,5.010 ZM8.857,12.821 L9.761,11.789 L9.116,11.052 L8.470,12.526 L8.857,12.821 ZM9.116,9.284 L8.600,9.284 L8.857,9.578 L9.116,9.284 ZM8.083,11.936 L8.729,10.610 L8.213,10.020 L7.566,11.494 L8.083,11.936 ZM7.050,10.905 L7.696,9.431 L7.180,8.841 L6.533,10.315 L7.050,10.905 ZM6.146,9.726 L6.793,8.400 L6.277,7.810 L5.630,9.284 L6.146,9.726 ZM4.210,7.515 L4.856,6.041 L4.468,5.747 L3.565,6.779 L4.210,7.515 ZM5.243,3.241 L4.727,2.652 C4.597,2.505 4.339,2.505 4.210,2.652 L0.853,6.483 C0.724,6.631 0.724,6.926 0.853,7.073 L1.371,7.662 C1.499,7.810 1.758,7.810 1.887,7.662 L5.243,3.831 C5.372,3.684 5.372,3.389 5.243,3.241 ZM4.727,8.105 L5.114,8.694 L5.888,7.221 L5.372,6.631 L4.727,8.105 ZM11.311,0.736 L7.437,0.736 L6.146,3.241 C6.277,3.536 6.277,3.831 6.017,4.126 L5.501,4.715 L6.017,5.157 L5.888,5.452 L6.146,6.041 L6.405,5.747 L6.921,6.189 L6.663,6.926 L6.793,7.221 L6.921,7.368 L7.437,6.779 L7.825,7.368 L7.566,8.105 L7.825,8.547 L8.341,7.957 L8.857,8.547 L11.311,8.547 L13.247,4.568 L11.311,0.736 ZM9.374,6.926 C8.213,6.926 7.309,5.894 7.309,4.568 C7.309,3.241 8.213,2.210 9.374,2.210 C10.536,2.210 11.439,3.241 11.439,4.568 C11.439,5.894 10.536,6.926 9.374,6.926 ZM9.374,2.947 C8.600,2.947 7.954,3.684 7.954,4.568 C7.954,5.452 8.600,6.189 9.374,6.189 C10.148,6.189 10.664,5.452 10.794,4.568 C10.794,3.684 10.148,2.947 9.374,2.947 Z"/>
</svg>
