<svg 
 xmlns="http://www.w3.org/2000/svg"
 xmlns:xlink="http://www.w3.org/1999/xlink"
 width="300.5px" height="147.5px">
<path fill-rule="evenodd"  fill="none"
 d="M-0.002,-0.001 L299.998,-0.001 L299.998,146.999 L-0.002,146.999 L-0.002,-0.001 Z"/>
<path fill-rule="evenodd"  fill="rgb(23, 204, 95)"
 d="M58.999,112.999 L80.360,112.999 C83.122,112.999 85.360,115.238 85.360,117.999 L85.360,117.999 C85.360,120.761 83.122,122.999 80.360,122.999 L58.999,122.999 C56.237,122.999 53.998,120.761 53.998,117.999 L53.998,117.999 C53.998,115.238 56.237,112.999 58.999,112.999 Z"/>
<path fill-rule="evenodd"  fill="rgb(16, 142, 66)"
 d="M58.783,118.999 L80.569,118.999 C84.487,118.999 84.563,115.243 84.563,115.243 C84.563,115.243 85.354,116.980 85.354,117.999 C85.354,120.760 83.211,122.999 80.569,122.999 L58.783,122.999 C56.141,122.999 53.997,120.760 53.997,117.999 C53.997,116.917 54.886,115.097 54.886,115.097 C54.886,115.097 55.038,118.999 58.783,118.999 Z"/>
<path fill-rule="evenodd"  fill="rgb(23, 204, 95)"
 d="M58.999,102.999 L90.360,102.999 C93.121,102.999 95.360,105.238 95.360,107.999 L95.360,107.999 C95.360,110.761 93.121,112.999 90.360,112.999 L58.999,112.999 C56.237,112.999 53.998,110.761 53.998,107.999 L53.998,107.999 C53.998,105.238 56.237,102.999 58.999,102.999 Z"/>
<path fill-rule="evenodd"  fill="rgb(16, 142, 66)"
 d="M58.783,108.999 L90.569,108.999 C94.487,108.999 94.563,105.243 94.563,105.243 C94.563,105.243 95.355,106.980 95.355,107.999 C95.355,110.760 93.211,112.999 90.569,112.999 L58.783,112.999 C56.141,112.999 53.997,110.760 53.997,107.999 C53.997,106.917 54.886,105.097 54.886,105.097 C54.886,105.097 55.038,108.999 58.783,108.999 Z"/>
<path fill-rule="evenodd"  fill="rgb(23, 204, 95)"
 d="M58.999,92.999 L100.360,92.999 C103.122,92.999 105.360,95.238 105.360,97.999 L105.360,97.999 C105.360,100.761 103.122,102.999 100.360,102.999 L58.999,102.999 C56.237,102.999 53.998,100.761 53.998,97.999 L53.998,97.999 C53.998,95.238 56.237,92.999 58.999,92.999 Z"/>
<path fill-rule="evenodd"  fill="rgb(16, 142, 66)"
 d="M58.783,98.999 L100.569,98.999 C104.487,98.999 104.563,95.243 104.563,95.243 C104.563,95.243 105.355,96.980 105.355,97.999 C105.355,100.760 103.211,102.999 100.569,102.999 L58.783,102.999 C56.141,102.999 53.997,100.760 53.997,97.999 C53.997,96.917 54.886,95.097 54.886,95.097 C54.886,95.097 55.038,98.999 58.783,98.999 Z"/>
<path fill-rule="evenodd"  fill="rgb(23, 204, 95)"
 d="M58.999,83.000 L110.360,83.000 C113.122,83.000 115.361,85.238 115.361,87.999 L115.361,87.999 C115.361,90.761 113.122,92.999 110.360,92.999 L58.999,92.999 C56.237,92.999 53.998,90.761 53.998,87.999 L53.998,87.999 C53.998,85.238 56.237,83.000 58.999,83.000 Z"/>
<path fill-rule="evenodd"  fill="rgb(16, 142, 66)"
 d="M58.783,88.999 L110.569,88.999 C114.487,88.999 114.563,85.243 114.563,85.243 C114.563,85.243 115.355,86.980 115.355,87.999 C115.355,90.760 113.211,92.999 110.569,92.999 L58.783,92.999 C56.141,92.999 53.997,90.760 53.997,87.999 C53.997,86.917 54.886,85.097 54.886,85.097 C54.886,85.097 55.038,88.999 58.783,88.999 Z"/>
<path fill-rule="evenodd"  fill="rgb(23, 204, 95)"
 d="M58.999,73.000 L120.360,73.000 C123.121,73.000 125.360,75.238 125.360,77.999 L125.360,77.999 C125.360,80.761 123.121,83.000 120.360,83.000 L58.999,83.000 C56.237,83.000 53.998,80.761 53.998,77.999 L53.998,77.999 C53.998,75.238 56.237,73.000 58.999,73.000 Z"/>
<path fill-rule="evenodd"  fill="rgb(16, 142, 66)"
 d="M58.783,78.999 L120.569,78.999 C124.487,78.999 124.563,75.243 124.563,75.243 C124.563,75.243 125.355,76.980 125.355,77.999 C125.355,80.760 123.211,82.999 120.569,82.999 L58.783,82.999 C56.141,82.999 53.997,80.760 53.997,77.999 C53.997,76.917 54.886,75.097 54.886,75.097 C54.886,75.097 55.038,78.999 58.783,78.999 Z"/>
<path fill-rule="evenodd"  fill="rgb(23, 204, 95)"
 d="M58.999,63.000 L130.360,63.000 C133.121,63.000 135.360,65.238 135.360,67.999 L135.360,67.999 C135.360,70.761 133.121,73.000 130.360,73.000 L58.999,73.000 C56.237,73.000 53.998,70.761 53.998,67.999 L53.998,67.999 C53.998,65.238 56.237,63.000 58.999,63.000 Z"/>
<path fill-rule="evenodd"  fill="rgb(16, 142, 66)"
 d="M58.783,68.999 L130.569,68.999 C134.487,68.999 134.563,65.243 134.563,65.243 C134.563,65.243 135.354,66.980 135.354,67.999 C135.354,70.760 133.211,72.999 130.569,72.999 L58.783,72.999 C56.141,72.999 53.997,70.760 53.997,67.999 C53.997,66.917 54.886,65.097 54.886,65.097 C54.886,65.097 55.038,68.999 58.783,68.999 Z"/>
<path fill-rule="evenodd"  fill="rgb(255, 222, 0)"
 d="M108.999,53.000 L190.360,53.000 C193.122,53.000 195.360,55.238 195.360,57.999 L195.360,57.999 C195.360,60.761 193.122,63.000 190.360,63.000 L108.999,63.000 C106.237,63.000 103.998,60.761 103.998,57.999 L103.998,57.999 C103.998,55.238 106.237,53.000 108.999,53.000 Z"/>
<path fill-rule="evenodd"  fill="rgb(128, 118, 54)"
 d="M108.782,58.999 L190.569,58.999 C194.487,58.999 194.563,55.243 194.563,55.243 C194.563,55.243 195.355,56.980 195.355,57.999 C195.355,60.760 193.211,62.999 190.569,62.999 L108.782,62.999 C106.141,62.999 103.997,60.760 103.997,57.999 C103.997,56.917 104.886,55.097 104.886,55.097 C104.886,55.097 105.038,58.999 108.782,58.999 Z"/>
<path fill-rule="evenodd"  fill="rgb(23, 204, 95)"
 d="M58.999,53.000 L130.360,53.000 C133.121,53.000 135.360,55.238 135.360,57.999 L135.360,57.999 C135.360,60.761 133.121,63.000 130.360,63.000 L58.999,63.000 C56.237,63.000 53.998,60.761 53.998,57.999 L53.998,57.999 C53.998,55.238 56.237,53.000 58.999,53.000 Z"/>
<path fill-rule="evenodd"  fill="rgb(16, 142, 66)"
 d="M58.783,58.999 L130.569,58.999 C134.487,58.999 134.563,55.243 134.563,55.243 C134.563,55.243 135.354,56.980 135.354,57.999 C135.354,60.760 133.211,62.999 130.569,62.999 L58.783,62.999 C56.141,62.999 53.997,60.760 53.997,57.999 C53.997,56.917 54.886,55.097 54.886,55.097 C54.886,55.097 55.038,58.999 58.783,58.999 Z"/>
<path fill-rule="evenodd"  fill="rgb(23, 204, 95)"
 d="M241.019,112.999 L219.736,112.999 C216.984,112.999 214.754,115.238 214.754,117.999 L214.754,117.999 C214.754,120.761 216.984,122.999 219.736,122.999 L241.019,122.999 C243.770,122.999 246.000,120.761 246.000,117.999 L246.000,117.999 C246.000,115.238 243.770,112.999 241.019,112.999 Z"/>
<path fill-rule="evenodd"  fill="rgb(16, 142, 66)"
 d="M241.234,118.999 L219.528,118.999 C215.625,118.999 215.549,115.243 215.549,115.243 C215.549,115.243 214.760,116.980 214.760,117.999 C214.760,120.760 216.895,122.999 219.528,122.999 L241.234,122.999 C243.867,122.999 246.001,120.760 246.001,117.999 C246.001,116.917 245.116,115.097 245.116,115.097 C245.116,115.097 244.964,118.999 241.234,118.999 Z"/>
<path fill-rule="evenodd"  fill="rgb(23, 204, 95)"
 d="M241.019,102.999 L209.773,102.999 C207.022,102.999 204.792,105.238 204.792,107.999 L204.792,107.999 C204.792,110.761 207.022,112.999 209.773,112.999 L241.019,112.999 C243.770,112.999 246.000,110.761 246.000,107.999 L246.000,107.999 C246.000,105.238 243.770,102.999 241.019,102.999 Z"/>
<path fill-rule="evenodd"  fill="rgb(16, 142, 66)"
 d="M241.234,108.999 L209.565,108.999 C205.662,108.999 205.586,105.243 205.586,105.243 C205.586,105.243 204.798,106.980 204.798,107.999 C204.798,110.760 206.932,112.999 209.565,112.999 L241.234,112.999 C243.867,112.999 246.001,110.760 246.001,107.999 C246.001,106.917 245.116,105.097 245.116,105.097 C245.116,105.097 244.964,108.999 241.234,108.999 Z"/>
<path fill-rule="evenodd"  fill="rgb(23, 204, 95)"
 d="M241.019,92.999 L199.810,92.999 C197.058,92.999 194.828,95.238 194.828,97.999 L194.828,97.999 C194.828,100.761 197.058,102.999 199.810,102.999 L241.019,102.999 C243.770,102.999 246.000,100.761 246.000,97.999 L246.000,97.999 C246.000,95.238 243.770,92.999 241.019,92.999 Z"/>
<path fill-rule="evenodd"  fill="rgb(16, 142, 66)"
 d="M241.234,98.999 L199.602,98.999 C195.699,98.999 195.623,95.243 195.623,95.243 C195.623,95.243 194.834,96.980 194.834,97.999 C194.834,100.760 196.969,102.999 199.602,102.999 L241.234,102.999 C243.867,102.999 246.001,100.760 246.001,97.999 C246.001,96.917 245.116,95.097 245.116,95.097 C245.116,95.097 244.964,98.999 241.234,98.999 Z"/>
<path fill-rule="evenodd"  fill="rgb(23, 204, 95)"
 d="M241.019,83.000 L189.847,83.000 C187.095,83.000 184.866,85.238 184.866,87.999 L184.866,87.999 C184.866,90.761 187.095,92.999 189.847,92.999 L241.019,92.999 C243.770,92.999 246.000,90.761 246.000,87.999 L246.000,87.999 C246.000,85.238 243.770,83.000 241.019,83.000 Z"/>
<path fill-rule="evenodd"  fill="rgb(16, 142, 66)"
 d="M241.234,88.999 L189.638,88.999 C185.736,88.999 185.660,85.243 185.660,85.243 C185.660,85.243 184.871,86.980 184.871,87.999 C184.871,90.760 187.006,92.999 189.638,92.999 L241.234,92.999 C243.867,92.999 246.001,90.760 246.001,87.999 C246.001,86.917 245.116,85.097 245.116,85.097 C245.116,85.097 244.964,88.999 241.234,88.999 Z"/>
<path fill-rule="evenodd"  fill="rgb(23, 204, 95)"
 d="M241.019,73.000 L179.884,73.000 C177.133,73.000 174.902,75.238 174.902,77.999 L174.902,77.999 C174.902,80.761 177.133,83.000 179.884,83.000 L241.019,83.000 C243.770,83.000 246.000,80.761 246.000,77.999 L246.000,77.999 C246.000,75.238 243.770,73.000 241.019,73.000 Z"/>
<path fill-rule="evenodd"  fill="rgb(16, 142, 66)"
 d="M241.234,78.999 L179.676,78.999 C175.773,78.999 175.697,75.243 175.697,75.243 C175.697,75.243 174.908,76.980 174.908,77.999 C174.908,80.760 177.044,82.999 179.676,82.999 L241.234,82.999 C243.867,82.999 246.001,80.760 246.001,77.999 C246.001,76.917 245.116,75.097 245.116,75.097 C245.116,75.097 244.964,78.999 241.234,78.999 Z"/>
<path fill-rule="evenodd"  fill="rgb(23, 204, 95)"
 d="M241.019,63.000 L169.921,63.000 C167.170,63.000 164.939,65.238 164.939,67.999 L164.939,67.999 C164.939,70.761 167.170,73.000 169.921,73.000 L241.019,73.000 C243.770,73.000 246.000,70.761 246.000,67.999 L246.000,67.999 C246.000,65.238 243.770,63.000 241.019,63.000 Z"/>
<path fill-rule="evenodd"  fill="rgb(16, 142, 66)"
 d="M241.234,68.999 L169.713,68.999 C165.810,68.999 165.734,65.243 165.734,65.243 C165.734,65.243 164.945,66.980 164.945,67.999 C164.945,70.760 167.080,72.999 169.713,72.999 L241.234,72.999 C243.867,72.999 246.001,70.760 246.001,67.999 C246.001,66.917 245.116,65.097 245.116,65.097 C245.116,65.097 244.964,68.999 241.234,68.999 Z"/>
<path fill-rule="evenodd"  fill="rgb(23, 204, 95)"
 d="M241.019,53.000 L169.921,53.000 C167.170,53.000 164.939,55.238 164.939,57.999 L164.939,57.999 C164.939,60.761 167.170,63.000 169.921,63.000 L241.019,63.000 C243.770,63.000 246.000,60.761 246.000,57.999 L246.000,57.999 C246.000,55.238 243.770,53.000 241.019,53.000 Z"/>
<path fill-rule="evenodd"  fill="rgb(16, 142, 66)"
 d="M241.234,58.999 L169.713,58.999 C165.810,58.999 165.734,55.243 165.734,55.243 C165.734,55.243 164.945,56.980 164.945,57.999 C164.945,60.760 167.080,62.999 169.713,62.999 L241.234,62.999 C243.867,62.999 246.001,60.760 246.001,57.999 C246.001,56.917 245.116,55.097 245.116,55.097 C245.116,55.097 244.964,58.999 241.234,58.999 Z"/>
<path fill-rule="evenodd"  stroke="rgb(255, 255, 255)" stroke-width="1px" stroke-dasharray="4, 2" stroke-linecap="butt" stroke-linejoin="miter" fill="none"
 d="M134.999,84.000 L134.999,44.000 "/>
<path fill-rule="evenodd"  stroke="rgb(255, 255, 255)" stroke-width="1px" stroke-dasharray="4, 2" stroke-linecap="butt" stroke-linejoin="miter" fill="none"
 d="M163.999,84.000 L163.999,44.000 "/>
<path fill-rule="evenodd"  fill="rgb(255, 255, 255)"
 d="M164.201,36.996 C163.758,36.996 163.400,36.612 163.400,36.139 L163.400,25.853 C163.400,25.380 163.758,24.996 164.201,24.996 C164.642,24.996 165.000,25.380 165.000,25.853 L165.000,36.139 C165.000,36.612 164.642,36.996 164.201,36.996 ZM159.966,34.458 C159.651,34.773 159.160,34.764 158.855,34.437 C158.550,34.111 158.542,33.584 158.835,33.247 L160.135,31.853 L139.866,31.853 L141.167,33.247 C141.470,33.584 141.465,34.119 141.157,34.449 C140.848,34.780 140.349,34.783 140.035,34.458 L137.370,31.604 C137.295,31.524 137.236,31.428 137.195,31.322 C137.165,31.242 137.155,31.157 137.148,31.073 C137.146,31.046 137.134,31.023 137.134,30.996 C137.134,30.967 137.147,30.942 137.149,30.914 C137.157,30.831 137.165,30.748 137.195,30.670 C137.236,30.563 137.296,30.467 137.371,30.387 L140.035,27.533 C140.350,27.219 140.842,27.228 141.146,27.554 C141.450,27.880 141.460,28.406 141.166,28.744 L139.865,30.138 L160.135,30.138 L158.834,28.744 C158.531,28.408 158.536,27.873 158.844,27.543 C159.153,27.213 159.652,27.207 159.966,27.533 L162.633,30.391 C162.945,30.725 162.945,31.267 162.633,31.602 L159.966,34.458 ZM135.800,36.996 C135.359,36.996 135.000,36.612 135.000,36.139 L135.000,25.853 C135.000,25.380 135.359,24.996 135.800,24.996 C136.242,24.996 136.600,25.380 136.600,25.853 L136.600,36.139 C136.600,36.612 136.242,36.996 135.800,36.996 Z"/>
</svg>
