<svg 
 xmlns="http://www.w3.org/2000/svg"
 xmlns:xlink="http://www.w3.org/1999/xlink"
 width="300.5px" height="147.5px">
<path fill-rule="evenodd"  fill="none"
 d="M-0.002,-0.001 L299.998,-0.001 L299.998,146.999 L-0.002,146.999 L-0.002,-0.001 Z"/>
<path fill-rule="evenodd"  stroke="rgb(111, 111, 111)" stroke-width="1px" stroke-dasharray="4, 2" stroke-linecap="butt" stroke-linejoin="miter" fill="none"
 d="M53.999,24.000 L245.999,24.000 L245.999,96.000 L53.999,96.000 L53.999,24.000 Z"/>
<path fill-rule="evenodd"  stroke="rgb(111, 111, 111)" stroke-width="1px" stroke-dasharray="4, 2" stroke-linecap="butt" stroke-linejoin="miter" fill="none"
 d="M33.999,52.000 L266.000,52.000 L263.000,124.000 L36.999,124.000 L33.999,52.000 Z"/>
<path fill-rule="evenodd"  stroke="rgb(111, 111, 111)" stroke-width="1px" stroke-dasharray="4, 2" stroke-linecap="butt" stroke-linejoin="miter" fill="none"
 d="M55.000,25.000 L34.999,52.000 "/>
<path fill-rule="evenodd"  stroke="rgb(111, 111, 111)" stroke-width="1px" stroke-dasharray="4, 2" stroke-linecap="butt" stroke-linejoin="miter" fill="none"
 d="M245.999,24.000 L267.000,52.000 "/>
<path fill-rule="evenodd"  stroke="rgb(111, 111, 111)" stroke-width="1px" stroke-dasharray="4, 2" stroke-linecap="butt" stroke-linejoin="miter" fill="none"
 d="M55.000,97.000 L38.999,123.000 "/>
<path fill-rule="evenodd"  stroke="rgb(111, 111, 111)" stroke-width="1px" stroke-dasharray="4, 2" stroke-linecap="butt" stroke-linejoin="miter" fill="none"
 d="M246.999,96.000 L261.999,123.000 "/>
<path fill-rule="evenodd"  fill="rgb(23, 204, 95)"
 d="M52.999,102.999 L101.361,102.999 C104.122,102.999 106.361,105.238 106.361,107.999 L106.361,107.999 C106.361,110.761 104.122,112.999 101.361,112.999 L52.999,112.999 C50.237,112.999 47.998,110.761 47.998,107.999 L47.998,107.999 C47.998,105.238 50.237,102.999 52.999,102.999 Z"/>
<path fill-rule="evenodd"  fill="rgb(16, 142, 66)"
 d="M52.782,108.998 L101.569,108.998 C105.487,108.998 105.563,105.243 105.563,105.243 C105.563,105.243 106.355,106.980 106.355,107.998 C106.355,110.760 104.211,112.999 101.569,112.999 L52.782,112.999 C50.140,112.999 47.997,110.760 47.997,107.998 C47.997,106.917 48.885,105.097 48.885,105.097 C48.885,105.097 49.038,108.998 52.782,108.998 Z"/>
<path fill-rule="evenodd"  fill="rgb(23, 204, 95)"
 d="M52.999,92.999 L111.360,92.999 C114.122,92.999 116.360,95.238 116.360,97.999 L116.360,97.999 C116.360,100.761 114.122,102.999 111.360,102.999 L52.999,102.999 C50.237,102.999 47.998,100.761 47.998,97.999 L47.998,97.999 C47.998,95.238 50.237,92.999 52.999,92.999 Z"/>
<path fill-rule="evenodd"  fill="rgb(16, 142, 66)"
 d="M52.782,98.998 L111.569,98.998 C115.487,98.998 115.563,95.243 115.563,95.243 C115.563,95.243 116.354,96.980 116.354,97.999 C116.354,100.760 114.211,102.999 111.569,102.999 L52.782,102.999 C50.140,102.999 47.997,100.760 47.997,97.999 C47.997,96.917 48.885,95.097 48.885,95.097 C48.885,95.097 49.038,98.998 52.782,98.998 Z"/>
<path fill-rule="evenodd"  fill="rgb(23, 204, 95)"
 d="M51.999,82.999 L120.361,82.999 C123.122,82.999 125.360,85.238 125.360,87.999 L125.360,88.000 C125.360,90.761 123.122,92.999 120.361,92.999 L51.999,92.999 C49.237,92.999 46.999,90.761 46.999,88.000 L46.999,87.999 C46.999,85.238 49.237,82.999 51.999,82.999 Z"/>
<path fill-rule="evenodd"  fill="rgb(16, 142, 66)"
 d="M51.782,88.999 L120.569,88.999 C124.487,88.999 124.562,85.243 124.562,85.243 C124.562,85.243 125.354,86.980 125.354,87.999 C125.354,90.760 123.211,92.999 120.569,92.999 L51.782,92.999 C49.140,92.999 46.997,90.760 46.997,87.999 C46.997,86.917 47.885,85.097 47.885,85.097 C47.885,85.097 48.038,88.999 51.782,88.999 Z"/>
<path fill-rule="evenodd"  fill="rgb(23, 204, 95)"
 d="M51.999,72.999 L130.361,72.999 C133.122,72.999 135.360,75.238 135.360,77.999 L135.360,78.000 C135.360,80.761 133.122,82.999 130.361,82.999 L51.999,82.999 C49.237,82.999 46.999,80.761 46.999,78.000 L46.999,77.999 C46.999,75.238 49.237,72.999 51.999,72.999 Z"/>
<path fill-rule="evenodd"  fill="rgb(16, 142, 66)"
 d="M51.782,78.999 L130.569,78.999 C134.487,78.999 134.563,75.243 134.563,75.243 C134.563,75.243 135.354,76.980 135.354,77.999 C135.354,80.760 133.212,82.999 130.569,82.999 L51.782,82.999 C49.140,82.999 46.997,80.760 46.997,77.999 C46.997,76.917 47.885,75.097 47.885,75.097 C47.885,75.097 48.038,78.999 51.782,78.999 Z"/>
<path fill-rule="evenodd"  fill="rgb(255, 222, 0)"
 d="M85.998,62.999 L179.361,62.999 C182.122,62.999 184.360,65.238 184.360,67.999 L184.360,68.000 C184.360,70.761 182.122,72.999 179.361,72.999 L85.998,72.999 C83.237,72.999 80.998,70.761 80.998,68.000 L80.998,67.999 C80.998,65.238 83.237,62.999 85.998,62.999 Z"/>
<path fill-rule="evenodd"  fill="rgb(128, 118, 54)"
 d="M85.782,68.999 L179.569,68.999 C183.487,68.999 183.562,65.243 183.562,65.243 C183.562,65.243 184.354,66.980 184.354,67.999 C184.354,70.760 182.211,72.999 179.569,72.999 L85.782,72.999 C83.140,72.999 80.997,70.760 80.997,67.999 C80.997,66.917 81.885,65.097 81.885,65.097 C81.885,65.097 82.038,68.999 85.782,68.999 Z"/>
<path fill-rule="evenodd"  fill="rgb(23, 204, 95)"
 d="M50.999,62.999 L129.361,62.999 C132.122,62.999 134.360,65.238 134.360,67.999 L134.360,68.000 C134.360,70.761 132.122,72.999 129.361,72.999 L50.999,72.999 C48.237,72.999 45.999,70.761 45.999,68.000 L45.999,67.999 C45.999,65.238 48.237,62.999 50.999,62.999 Z"/>
<path fill-rule="evenodd"  fill="rgb(16, 142, 66)"
 d="M50.782,68.999 L129.569,68.999 C133.487,68.999 133.563,65.243 133.563,65.243 C133.563,65.243 134.354,66.980 134.354,67.999 C134.354,70.760 132.211,72.999 129.569,72.999 L50.782,72.999 C48.140,72.999 45.997,70.760 45.997,67.999 C45.997,66.917 46.885,65.097 46.885,65.097 C46.885,65.097 47.038,68.999 50.782,68.999 Z"/>
<path fill-rule="evenodd"  fill="rgb(23, 204, 95)"
 d="M247.024,102.999 L198.837,102.999 C196.086,102.999 193.854,105.238 193.854,107.999 L193.854,107.999 C193.854,110.761 196.086,112.999 198.837,112.999 L247.024,112.999 C249.776,112.999 252.007,110.761 252.007,107.999 L252.007,107.999 C252.007,105.238 249.776,102.999 247.024,102.999 Z"/>
<path fill-rule="evenodd"  fill="rgb(16, 142, 66)"
 d="M247.239,108.998 L198.630,108.998 C194.725,108.998 194.650,105.243 194.650,105.243 C194.650,105.243 193.860,106.980 193.860,107.998 C193.860,110.760 195.996,112.999 198.630,112.999 L247.239,112.999 C249.872,112.999 252.008,110.760 252.008,107.998 C252.008,106.917 251.123,105.097 251.123,105.097 C251.123,105.097 250.971,108.998 247.239,108.998 Z"/>
<path fill-rule="evenodd"  fill="rgb(23, 204, 95)"
 d="M247.024,92.999 L188.871,92.999 C186.119,92.999 183.887,95.238 183.887,97.999 L183.887,97.999 C183.887,100.761 186.119,102.999 188.871,102.999 L247.024,102.999 C249.776,102.999 252.007,100.761 252.007,97.999 L252.007,97.999 C252.007,95.238 249.776,92.999 247.024,92.999 Z"/>
<path fill-rule="evenodd"  fill="rgb(16, 142, 66)"
 d="M247.239,98.998 L188.663,98.998 C184.758,98.998 184.683,95.243 184.683,95.243 C184.683,95.243 183.893,96.980 183.893,97.999 C183.893,100.760 186.030,102.999 188.663,102.999 L247.239,102.999 C249.872,102.999 252.008,100.760 252.008,97.999 C252.008,96.917 251.123,95.097 251.123,95.097 C251.123,95.097 250.971,98.998 247.239,98.998 Z"/>
<path fill-rule="evenodd"  fill="rgb(23, 204, 95)"
 d="M248.020,82.999 L179.901,82.999 C177.148,82.999 174.918,85.238 174.918,87.999 L174.918,88.000 C174.918,90.761 177.148,92.999 179.901,92.999 L248.020,92.999 C250.772,92.999 253.003,90.761 253.003,88.000 L253.003,87.999 C253.003,85.238 250.772,82.999 248.020,82.999 Z"/>
<path fill-rule="evenodd"  fill="rgb(16, 142, 66)"
 d="M248.235,88.999 L179.693,88.999 C175.788,88.999 175.713,85.243 175.713,85.243 C175.713,85.243 174.924,86.980 174.924,87.999 C174.924,90.760 177.059,92.999 179.693,92.999 L248.235,92.999 C250.869,92.999 253.005,90.760 253.005,87.999 C253.005,86.917 252.119,85.097 252.119,85.097 C252.119,85.097 251.968,88.999 248.235,88.999 Z"/>
<path fill-rule="evenodd"  fill="rgb(23, 204, 95)"
 d="M248.020,72.999 L169.934,72.999 C167.182,72.999 164.950,75.238 164.950,77.999 L164.950,78.000 C164.950,80.761 167.182,82.999 169.934,82.999 L248.020,82.999 C250.772,82.999 253.003,80.761 253.003,78.000 L253.003,77.999 C253.003,75.238 250.772,72.999 248.020,72.999 Z"/>
<path fill-rule="evenodd"  fill="rgb(16, 142, 66)"
 d="M248.235,78.999 L169.726,78.999 C165.821,78.999 165.745,75.243 165.745,75.243 C165.745,75.243 164.956,76.980 164.956,77.999 C164.956,80.760 167.092,82.999 169.726,82.999 L248.235,82.999 C250.869,82.999 253.005,80.760 253.005,77.999 C253.005,76.917 252.119,75.097 252.119,75.097 C252.119,75.097 251.968,78.999 248.235,78.999 Z"/>
<path fill-rule="evenodd"  fill="rgb(23, 204, 95)"
 d="M249.017,62.999 L170.931,62.999 C168.179,62.999 165.947,65.238 165.947,67.999 L165.947,68.000 C165.947,70.761 168.179,72.999 170.931,72.999 L249.017,72.999 C251.769,72.999 254.000,70.761 254.000,68.000 L254.000,67.999 C254.000,65.238 251.769,62.999 249.017,62.999 Z"/>
<path fill-rule="evenodd"  fill="rgb(16, 142, 66)"
 d="M249.232,68.999 L170.723,68.999 C166.818,68.999 166.742,65.243 166.742,65.243 C166.742,65.243 165.953,66.980 165.953,67.999 C165.953,70.760 168.089,72.999 170.723,72.999 L249.232,72.999 C251.865,72.999 254.001,70.760 254.001,67.999 C254.001,66.917 253.117,65.097 253.117,65.097 C253.117,65.097 252.964,68.999 249.232,68.999 Z"/>
<path fill-rule="evenodd"  stroke="rgb(255, 255, 255)" stroke-width="1px" stroke-dasharray="4, 2" stroke-linecap="butt" stroke-linejoin="miter" fill="none"
 d="M133.999,86.000 L133.999,46.000 "/>
<path fill-rule="evenodd"  stroke="rgb(255, 255, 255)" stroke-width="1px" stroke-dasharray="4, 2" stroke-linecap="butt" stroke-linejoin="miter" fill="none"
 d="M163.999,86.000 L163.999,46.000 "/>
<path fill-rule="evenodd"  fill="rgb(255, 255, 255)"
 d="M164.200,40.996 C163.758,40.996 163.400,40.611 163.400,40.139 L163.400,29.853 C163.400,29.379 163.758,28.996 164.200,28.996 C164.642,28.996 165.000,29.379 165.000,29.853 L165.000,40.139 C165.000,40.611 164.642,40.996 164.200,40.996 ZM159.966,38.458 C159.651,38.773 159.159,38.764 158.855,38.437 C158.550,38.111 158.541,37.584 158.835,37.247 L160.135,35.853 L138.866,35.853 L140.166,37.247 C140.470,37.584 140.465,38.119 140.156,38.449 C139.848,38.779 139.349,38.783 139.035,38.458 L136.370,35.604 C136.295,35.524 136.236,35.428 136.195,35.321 C136.171,35.259 136.168,35.192 136.158,35.127 C136.151,35.082 136.133,35.042 136.133,34.996 C136.133,34.948 136.152,34.907 136.159,34.861 C136.168,34.797 136.171,34.731 136.195,34.670 C136.236,34.564 136.295,34.467 136.371,34.387 L139.035,31.532 C139.350,31.219 139.841,31.228 140.146,31.554 C140.451,31.880 140.459,32.406 140.166,32.744 L138.865,34.138 L160.135,34.138 L158.833,32.744 C158.531,32.408 158.535,31.873 158.844,31.543 C159.153,31.213 159.652,31.207 159.966,31.532 L162.632,34.390 C162.945,34.724 162.945,35.267 162.632,35.602 L159.966,38.458 ZM134.800,40.996 C134.358,40.996 134.000,40.611 134.000,40.139 L134.000,29.853 C134.000,29.379 134.358,28.996 134.800,28.996 C135.242,28.996 135.600,29.379 135.600,29.853 L135.600,40.139 C135.600,40.611 135.242,40.996 134.800,40.996 Z"/>
</svg>
