<svg 
 xmlns="http://www.w3.org/2000/svg"
 xmlns:xlink="http://www.w3.org/1999/xlink"
 width="40px" height="24px">
<path fill-rule="evenodd"  fill="rgb(29, 231, 109)"
 d="M11.985,-0.010 L27.995,-0.010 C34.620,-0.010 39.990,5.360 39.990,11.985 C39.990,18.610 34.620,23.980 27.995,23.980 L11.985,23.980 C5.360,23.980 -0.010,18.610 -0.010,11.985 C-0.010,5.360 5.360,-0.010 11.985,-0.010 Z"/>
<path fill-rule="evenodd"  fill="rgb(255, 255, 255)"
 d="M29.862,13.656 C29.574,15.917 27.683,17.608 25.451,17.604 L24.559,17.604 C24.460,17.604 24.381,17.522 24.381,17.423 L24.381,16.061 C24.382,15.962 24.460,15.881 24.559,15.881 L25.451,15.881 C26.182,15.883 26.880,15.586 27.395,15.057 C27.915,14.527 28.203,13.819 28.203,13.069 C28.203,11.795 27.360,10.677 26.155,10.344 L25.317,10.118 L25.010,9.289 C24.623,8.254 23.941,7.359 23.054,6.721 C22.140,6.066 21.067,5.719 19.943,5.719 C18.830,5.717 17.745,6.067 16.835,6.722 C15.946,7.360 15.263,8.255 14.876,9.291 L14.568,10.121 L13.727,10.344 C13.149,10.502 12.630,10.853 12.256,11.337 C11.607,12.184 11.487,13.335 11.951,14.303 C12.412,15.269 13.374,15.882 14.427,15.881 L15.318,15.881 C15.418,15.881 15.497,15.962 15.497,16.061 L15.497,17.423 C15.497,17.523 15.418,17.604 15.318,17.604 L14.427,17.604 C12.198,17.598 10.318,15.906 10.032,13.649 C9.746,11.392 11.141,9.268 13.298,8.683 C14.344,5.863 16.989,3.998 19.943,3.998 C22.898,4.000 25.542,5.865 26.588,8.686 C28.749,9.266 30.150,11.395 29.862,13.656 ZM19.810,10.077 C19.889,9.977 20.043,9.977 20.124,10.077 L22.934,13.551 C22.980,13.610 22.989,13.690 22.957,13.758 C22.924,13.825 22.853,13.868 22.777,13.868 L20.919,13.868 L20.919,19.809 C20.919,19.918 20.828,20.005 20.718,20.005 L19.212,20.005 C19.102,20.005 19.011,19.918 19.011,19.809 L19.011,13.868 L17.158,13.868 C17.080,13.868 17.012,13.825 16.977,13.758 C16.944,13.690 16.953,13.610 17.000,13.551 L19.810,10.077 Z"/>
</svg>
