<svg 
 xmlns="http://www.w3.org/2000/svg"
 xmlns:xlink="http://www.w3.org/1999/xlink"
 width="20px" height="24px">
<path fill-rule="evenodd"  fill="rgb(203, 203, 203)"
 d="M19.996,20.755 L19.996,12.194 C19.996,10.408 18.584,8.971 16.853,8.971 L11.320,8.971 C11.320,5.974 12.017,6.241 13.847,5.974 C15.698,5.707 17.569,5.358 17.569,0.821 C17.549,0.370 17.190,0.021 16.773,-0.000 C16.315,-0.021 15.917,0.349 15.897,0.821 C15.877,3.880 15.380,4.044 13.608,4.291 C11.758,4.558 9.648,4.496 9.648,8.971 L3.141,8.971 C1.409,8.971 -0.004,10.408 -0.004,12.194 L-0.004,20.776 C-0.004,22.562 1.409,23.999 3.141,23.999 L16.872,23.999 C18.604,23.978 19.996,22.541 19.996,20.755 L19.996,20.755 ZM12.075,12.194 L14.166,12.194 L14.166,14.329 L12.075,14.329 L12.075,12.194 ZM15.200,15.397 L15.200,17.532 L13.111,17.532 L13.111,15.397 L15.200,15.397 ZM12.057,15.397 L12.057,17.532 L9.947,17.532 L9.947,15.397 L12.057,15.397 ZM8.912,12.194 L11.001,12.194 L11.001,14.329 L8.912,14.329 L8.912,12.194 ZM5.768,12.194 L7.857,12.194 L7.857,14.329 L5.768,14.329 L5.768,12.194 ZM8.912,15.397 L8.912,17.532 L6.822,17.532 L6.822,15.397 L8.912,15.397 ZM2.624,12.194 L4.713,12.194 L4.713,14.329 L2.624,14.329 L2.624,12.194 ZM5.768,15.397 L5.768,17.532 L3.678,17.532 L3.678,15.397 L5.768,15.397 ZM4.713,20.755 L2.624,20.755 L2.624,18.620 L4.713,18.620 L4.713,20.755 ZM14.166,20.755 L5.768,20.755 L5.768,18.620 L14.166,18.620 L14.166,20.755 ZM17.309,20.755 L15.200,20.755 L15.200,18.620 L17.289,18.620 L17.289,20.755 L17.309,20.755 ZM17.309,14.329 L15.200,14.329 L15.200,12.194 L17.289,12.194 L17.289,14.329 L17.309,14.329 Z"/>
</svg>
