<svg width="20" height="20" viewBox="0 0 20 20" fill="none" xmlns="http://www.w3.org/2000/svg">
<g id="&#228;&#184;&#138;&#228;&#188;&#160;">
<path id="Vector" d="M5.79601 15.7288C4.74031 15.7288 3.83981 15.3626 3.09451 14.6302C2.34921 13.8977 1.97656 13.0026 1.97656 11.9447C1.97656 10.9957 2.28186 10.161 2.89247 9.4407C3.50307 8.72035 4.26034 8.29359 5.16427 8.16042C5.4091 7.01853 5.98329 6.08474 6.88684 5.35905C7.79027 4.63336 8.82712 4.27051 9.9974 4.27051C11.3805 4.27051 12.5539 4.75227 13.5174 5.71579C14.4809 6.6793 14.9627 7.85264 14.9627 9.23579V9.61773H15.1978C16.0028 9.68037 16.6741 10.0041 17.2118 10.5888C17.7494 11.1735 18.0182 11.8683 18.0182 12.6733C18.0182 13.5253 17.7244 14.2475 17.1369 14.8401C16.5492 15.4326 15.8294 15.7288 14.9774 15.7288H10.8054C10.4195 15.7288 10.0929 15.5952 9.82552 15.3278C9.55816 15.0604 9.42448 14.7338 9.42448 14.3479V10.1641L8.01128 11.5538L7.20634 10.7563L9.9974 7.96506L12.7885 10.7563L11.9835 11.5538L10.5703 10.1641V14.3479C10.5703 14.4067 10.5948 14.4606 10.6438 14.5095C10.6927 14.5585 10.7466 14.583 10.8054 14.583H14.9627C15.4974 14.583 15.9494 14.3984 16.3186 14.0292C16.6878 13.66 16.8724 13.208 16.8724 12.6733C16.8724 12.1386 16.6878 11.6866 16.3186 11.3174C15.9494 10.9482 15.4974 10.7636 14.9627 10.7636H13.8168V9.23579C13.8168 8.17907 13.4444 7.27832 12.6997 6.53353C11.9549 5.78874 11.0541 5.41634 9.9974 5.41634C8.94068 5.41634 8.03993 5.78874 7.29514 6.53353C6.55035 7.27832 6.17795 8.17907 6.17795 9.23579H5.7813C5.05752 9.23579 4.43342 9.49678 3.90901 10.0188C3.3846 10.5408 3.1224 11.171 3.1224 11.9094C3.1224 12.6478 3.38339 13.278 3.90538 13.8C4.42737 14.322 5.05758 14.583 5.79601 14.583H7.70573V15.7288H5.79601Z" fill="#4E5969" fill-opacity="0.4"/>
</g>
</svg>
