<svg 
 xmlns="http://www.w3.org/2000/svg"
 xmlns:xlink="http://www.w3.org/1999/xlink"
 width="19px" height="16px">
<path fill-rule="evenodd"  fill="none"
 d="M-0.000,-0.000 L19.000,-0.000 L19.000,16.000 L-0.000,16.000 L-0.000,-0.000 Z"/>
<path fill-rule="evenodd"  fill="rgb(51, 51, 51)"
 d="M18.819,6.036 C18.926,6.147 18.988,6.301 18.988,6.461 C18.988,6.622 18.926,6.775 18.819,6.886 L12.784,12.851 C12.553,13.083 12.186,12.893 12.186,12.541 L12.186,8.743 C12.186,8.743 3.397,6.487 4.168,15.749 C4.188,16.011 3.879,16.096 3.797,15.852 C2.639,12.299 1.052,2.898 12.311,3.641 L12.217,0.420 C12.205,0.064 12.577,-0.137 12.813,0.097 L18.819,6.036 Z"/>
</svg>
