<svg 
 xmlns="http://www.w3.org/2000/svg"
 xmlns:xlink="http://www.w3.org/1999/xlink"
 width="26px" height="16px">
<path fill-rule="evenodd"  fill="rgb(255, 255, 255)"
 d="M25.987,7.735 C25.974,7.280 25.922,6.826 25.832,6.378 C25.583,5.205 25.068,4.103 24.326,3.153 C23.628,2.262 22.755,1.520 21.758,0.971 C20.590,0.355 19.290,0.023 17.966,0.000 L17.877,0.000 C16.207,0.007 14.580,0.523 13.218,1.476 C13.147,1.525 13.068,1.561 13.002,1.613 C11.994,0.897 10.843,0.400 9.626,0.154 C9.216,0.077 8.801,0.033 8.385,0.021 C8.298,0.021 8.213,0.000 8.126,0.000 C3.640,0.005 0.005,3.585 -0.000,8.002 C-0.000,8.091 0.011,8.177 0.013,8.265 C0.026,8.720 0.078,9.175 0.168,9.622 C0.341,10.437 0.642,11.220 1.062,11.942 C1.245,12.257 1.450,12.559 1.674,12.847 C2.372,13.737 3.246,14.479 4.242,15.029 C5.410,15.644 6.710,15.977 8.034,16.000 L8.123,16.000 C9.793,15.992 11.420,15.477 12.782,14.523 C12.852,14.474 12.931,14.439 12.998,14.387 C14.006,15.103 15.157,15.600 16.374,15.846 C16.784,15.923 17.199,15.967 17.616,15.979 C17.703,15.979 17.787,16.000 17.874,16.000 C22.360,15.995 25.995,12.415 26.000,7.998 C26.000,7.909 25.989,7.823 25.987,7.735 L25.987,7.735 ZM23.554,3.914 L14.803,12.530 C14.862,12.448 14.920,12.367 14.976,12.283 C15.041,12.181 15.102,12.080 15.163,11.977 C15.243,11.839 15.319,11.699 15.391,11.557 C15.444,11.451 15.499,11.344 15.546,11.237 C15.612,11.090 15.671,10.939 15.729,10.788 C15.770,10.681 15.811,10.575 15.848,10.468 C15.900,10.308 15.943,10.148 15.985,9.983 C16.014,9.877 16.044,9.770 16.068,9.663 C16.107,9.482 16.134,9.297 16.160,9.113 C16.173,9.022 16.192,8.931 16.202,8.840 C16.232,8.560 16.248,8.279 16.249,7.998 L16.249,7.910 L21.919,2.327 C22.548,2.765 23.100,3.301 23.554,3.914 L23.554,3.914 ZM11.527,10.984 C11.474,10.878 11.430,10.761 11.382,10.648 C11.344,10.556 11.304,10.465 11.274,10.372 C11.216,10.215 11.165,10.052 11.120,9.895 C11.107,9.849 11.093,9.803 11.081,9.756 C11.030,9.565 10.988,9.372 10.954,9.178 C10.954,9.166 10.954,9.156 10.948,9.144 C10.913,8.930 10.887,8.717 10.870,8.504 L14.460,4.968 L14.484,5.011 C14.537,5.118 14.582,5.234 14.629,5.348 C14.667,5.439 14.707,5.531 14.737,5.624 C14.795,5.781 14.846,5.944 14.891,6.101 C14.904,6.147 14.918,6.193 14.930,6.240 C15.039,6.650 15.109,7.069 15.140,7.492 L11.551,11.028 C11.540,11.015 11.530,11.000 11.522,10.985 L11.527,10.984 ZM18.395,1.088 C19.284,1.152 20.153,1.383 20.954,1.768 L16.103,6.547 C15.991,5.934 15.808,5.337 15.555,4.766 C15.526,4.701 15.492,4.638 15.461,4.574 C15.397,4.441 15.323,4.313 15.252,4.184 L18.395,1.088 ZM16.807,1.145 L14.649,3.269 C14.540,3.120 14.438,2.964 14.317,2.822 C14.275,2.774 14.228,2.728 14.185,2.681 C14.076,2.557 13.968,2.433 13.846,2.316 C14.727,1.709 15.738,1.308 16.801,1.145 L16.807,1.145 ZM11.698,4.690 C11.842,4.428 12.003,4.175 12.180,3.934 C12.206,3.900 12.227,3.863 12.253,3.827 C12.459,3.563 12.684,3.313 12.927,3.080 L12.999,3.013 L13.061,3.070 C13.342,3.342 13.600,3.637 13.830,3.952 L13.880,4.023 L10.927,6.932 L10.947,6.810 C10.999,6.516 11.069,6.224 11.159,5.939 C11.172,5.898 11.179,5.857 11.193,5.816 C11.301,5.503 11.432,5.198 11.583,4.903 C11.618,4.829 11.658,4.760 11.698,4.690 L11.698,4.690 ZM7.262,1.121 L1.140,7.151 C1.538,3.998 4.060,1.514 7.261,1.120 L7.262,1.121 ZM1.859,11.151 C1.456,10.381 1.204,9.543 1.116,8.681 L8.800,1.114 C9.679,1.195 10.535,1.438 11.323,1.830 L1.859,11.151 ZM4.084,13.670 C3.453,13.232 2.900,12.695 2.444,12.082 L11.193,3.467 C11.136,3.548 11.076,3.629 11.022,3.713 C10.957,3.814 10.895,3.916 10.835,4.019 C10.754,4.157 10.679,4.297 10.607,4.439 C10.554,4.545 10.499,4.652 10.452,4.759 C10.387,4.907 10.326,5.056 10.269,5.208 C10.228,5.315 10.187,5.421 10.150,5.528 C10.098,5.687 10.055,5.848 10.012,6.013 C9.984,6.120 9.954,6.227 9.931,6.333 C9.891,6.515 9.864,6.699 9.838,6.885 C9.825,6.976 9.806,7.065 9.796,7.157 C9.765,7.437 9.750,7.718 9.749,7.999 L9.749,8.086 L4.084,13.670 ZM7.608,14.907 C6.719,14.844 5.850,14.613 5.049,14.227 L9.901,9.449 C10.012,10.062 10.195,10.659 10.448,11.230 C10.477,11.295 10.511,11.358 10.542,11.422 C10.606,11.555 10.680,11.683 10.751,11.812 L7.608,14.907 ZM9.198,14.851 L11.355,12.727 C11.463,12.876 11.565,13.032 11.686,13.174 C11.729,13.222 11.775,13.268 11.818,13.314 C11.927,13.438 12.035,13.563 12.158,13.679 C11.274,14.288 10.261,14.688 9.196,14.851 L9.198,14.851 ZM14.301,11.306 C14.157,11.569 13.996,11.821 13.819,12.063 C13.793,12.097 13.772,12.133 13.746,12.170 C13.540,12.434 13.314,12.684 13.072,12.917 L12.999,12.984 L12.938,12.927 C12.657,12.655 12.400,12.359 12.168,12.045 C12.151,12.021 12.136,11.997 12.120,11.973 L13.599,10.516 L15.072,9.065 C15.066,9.105 15.059,9.146 15.052,9.186 C15.001,9.481 14.930,9.773 14.840,10.058 C14.828,10.099 14.820,10.140 14.806,10.181 C14.698,10.494 14.568,10.799 14.417,11.094 C14.379,11.167 14.339,11.236 14.299,11.305 L14.301,11.306 ZM18.738,14.875 L24.859,8.846 C24.463,11.999 21.942,14.483 18.741,14.875 L18.738,14.875 ZM17.199,14.882 C16.320,14.801 15.464,14.558 14.677,14.166 L24.140,4.845 C24.543,5.615 24.795,6.453 24.883,7.315 L17.199,14.882 Z"/>
</svg>
