<svg width="20" height="20" viewBox="0 0 20 20" fill="none" xmlns="http://www.w3.org/2000/svg">
<g id="&#231;&#148;&#168;&#230;&#136;&#183;&#229;&#143;&#141;&#233;&#166;&#136;">
<path id="Vector" d="M9.52915 16.4929V15.3471H15.1113C15.1749 15.3471 15.2301 15.3275 15.2766 15.2883C15.3231 15.2492 15.3464 15.1978 15.3464 15.1342V9.79135C15.3464 8.33105 14.8239 7.1017 13.7789 6.10329C12.734 5.10489 11.4741 4.60569 9.99913 4.60569C8.52419 4.60569 7.26428 5.10489 6.21941 6.10329C5.17441 7.1017 4.65191 8.33105 4.65191 9.79135V14.2893H4.07899C3.71271 14.2893 3.39837 14.1618 3.13597 13.9068C2.87345 13.6517 2.74219 13.341 2.74219 12.9747V11.491C2.74219 11.2432 2.81272 11.0162 2.95378 10.81C3.09485 10.6039 3.27895 10.4382 3.50608 10.3129L3.54141 9.33741C3.59921 8.50592 3.81144 7.73566 4.17811 7.02665C4.5449 6.31763 5.01845 5.70041 5.59875 5.17498C6.17892 4.64955 6.84707 4.24017 7.60319 3.94684C8.35919 3.6535 9.15784 3.50684 9.99913 3.50684C10.8404 3.50684 11.6371 3.6535 12.3891 3.94684C13.1413 4.24017 13.8083 4.64758 14.39 5.16906C14.9717 5.69054 15.4439 6.30579 15.8068 7.01481C16.1696 7.72395 16.3863 8.4942 16.4569 9.32557L16.4922 10.282C16.7145 10.3867 16.8974 10.5366 17.0409 10.7315C17.1843 10.9264 17.2561 11.1438 17.2561 11.3837V13.0892C17.2561 13.3291 17.1843 13.5465 17.0409 13.7414C16.8974 13.9363 16.7145 14.0862 16.4922 14.191V15.1342C16.4922 15.5101 16.3573 15.8306 16.0875 16.0955C15.8176 16.3605 15.4922 16.4929 15.1113 16.4929H9.52915ZM7.85432 11.3514C7.6673 11.3514 7.5079 11.288 7.37613 11.1612C7.24448 11.0344 7.17866 10.8774 7.17866 10.6903C7.17866 10.5032 7.24448 10.3451 7.37613 10.2159C7.5079 10.0865 7.6673 10.0219 7.85432 10.0219C8.04148 10.0219 8.20087 10.0865 8.33252 10.2159C8.46429 10.3451 8.53017 10.5032 8.53017 10.6903C8.53017 10.8774 8.46429 11.0344 8.33252 11.1612C8.20087 11.288 8.04148 11.3514 7.85432 11.3514ZM12.1439 11.3514C11.9568 11.3514 11.7974 11.288 11.6657 11.1612C11.534 11.0344 11.4681 10.8774 11.4681 10.6903C11.4681 10.5032 11.534 10.3451 11.6657 10.2159C11.7974 10.0865 11.9568 10.0219 12.1439 10.0219C12.331 10.0219 12.4904 10.0865 12.6221 10.2159C12.7538 10.3451 12.8196 10.5032 12.8196 10.6903C12.8196 10.8774 12.7538 11.0344 12.6221 11.1612C12.4904 11.288 12.331 11.3514 12.1439 11.3514ZM5.69939 10.1527C5.62008 8.906 6.00788 7.83923 6.86279 6.95236C7.71771 6.06561 8.77589 5.62224 10.0373 5.62224C11.097 5.62224 12.032 5.95007 12.8423 6.60574C13.6528 7.26141 14.1447 8.11022 14.318 9.15217C13.2329 9.13943 12.2303 8.8545 11.3102 8.29737C10.3901 7.74012 9.68371 6.97623 9.19113 6.00571C8.99723 6.9556 8.59084 7.79537 7.97196 8.52501C7.35296 9.25466 6.59543 9.79721 5.69939 10.1527Z" fill="#DBDBDB" fill-opacity="0.4"/>
</g>
</svg>
