<svg 
 xmlns="http://www.w3.org/2000/svg"
 xmlns:xlink="http://www.w3.org/1999/xlink"
 width="300px" height="151px">
<path fill-rule="evenodd"  fill="none"
 d="M-0.002,3.999 L299.999,3.999 L299.999,150.999 L-0.002,150.999 L-0.002,3.999 Z"/>
<path fill-rule="evenodd"  fill="rgb(23, 204, 95)"
 d="M-0.001,72.000 C-0.001,72.000 14.355,77.568 17.999,80.000 C21.643,82.431 31.554,90.491 33.999,91.000 C36.444,91.509 51.452,97.243 54.999,100.000 C58.546,102.757 69.152,107.456 74.999,113.000 C80.846,118.544 94.234,126.432 97.999,129.000 C101.764,131.568 112.697,138.959 116.999,140.000 C121.301,141.040 130.962,145.000 135.999,148.000 C141.035,151.000 142.999,151.000 142.999,151.000 L198.999,151.000 C198.999,151.000 169.054,129.626 164.999,128.000 C160.944,126.373 145.723,120.633 140.999,117.000 C136.276,113.367 105.304,94.161 102.999,93.000 C100.694,91.839 98.853,92.383 91.999,88.000 C85.146,83.616 67.371,71.277 63.999,69.000 C60.627,66.723 50.806,62.695 45.999,60.000 C41.192,57.305 23.475,46.094 19.999,44.000 C16.524,41.906 -0.001,34.000 -0.001,34.000 L-0.001,72.000 Z"/>
<path fill-rule="evenodd"  fill="rgb(15, 160, 73)"
 d="M-0.001,61.000 C-0.001,61.000 15.355,66.568 18.999,69.000 C22.643,71.431 32.554,79.491 34.999,80.000 C37.444,80.509 52.452,86.243 55.999,89.000 C59.547,91.757 70.152,96.456 75.999,102.000 C81.846,107.544 95.234,115.432 99.000,118.000 C102.765,120.568 113.697,127.959 117.999,129.000 C122.302,130.040 131.963,134.000 136.999,137.000 C142.035,140.000 143.999,140.000 143.999,140.000 L164.999,151.000 L128.999,151.000 L-0.001,81.000 L-0.001,61.000 Z"/>
<path fill-rule="evenodd"  fill="rgb(255, 222, 0)"
 d="M-0.001,35.000 C-0.001,35.000 17.755,42.373 19.999,44.000 C22.242,45.627 40.513,55.813 41.999,57.000 C43.485,58.187 63.224,67.703 66.999,70.000 C70.775,72.296 96.439,87.349 97.999,90.000 C99.559,92.651 113.692,101.368 115.999,103.000 C118.306,104.632 129.923,111.695 137.999,115.000 C146.075,118.305 163.960,126.022 166.999,129.000 C170.038,131.978 184.843,140.376 188.999,144.000 C193.155,147.624 198.999,151.000 198.999,151.000 L268.999,151.000 C268.999,151.000 239.999,120.591 232.999,116.000 C225.999,111.408 217.719,104.280 214.999,103.000 C212.279,101.719 176.057,82.833 171.999,81.000 C167.940,79.166 158.973,71.570 154.999,68.000 C151.026,64.430 148.327,63.849 144.999,61.000 C141.671,58.151 129.828,49.638 122.999,48.000 C116.170,46.362 85.324,33.450 82.999,31.000 C80.674,28.550 70.981,22.431 67.999,18.000 C65.017,13.569 46.999,4.000 46.999,4.000 L-0.001,4.000 L-0.001,35.000 Z"/>
<path fill-rule="evenodd"  fill="rgb(212, 186, 12)"
 d="M-0.001,13.000 C-0.001,13.000 17.755,20.373 19.999,22.000 C22.242,23.627 40.513,33.813 41.999,35.000 C43.485,36.186 63.224,45.703 66.999,48.000 C70.775,50.296 96.439,65.349 97.999,68.000 C99.559,70.651 113.692,79.368 115.999,81.000 C118.306,82.632 129.923,89.695 137.999,93.000 C146.075,96.305 163.960,104.022 166.999,107.000 C170.038,109.978 184.843,118.376 188.999,122.000 C193.155,125.624 198.999,129.000 198.999,129.000 L228.999,151.000 L191.999,151.000 L-0.001,42.000 L-0.001,13.000 Z"/>
<path fill-rule="evenodd"  fill="rgb(23, 204, 95)"
 d="M46.999,4.000 L107.999,4.000 C107.999,4.000 109.392,11.677 110.999,13.000 C112.606,14.322 114.975,15.519 118.999,16.000 C123.023,16.481 137.521,19.202 138.999,20.000 C140.477,20.797 155.198,30.304 157.999,32.000 C160.800,33.696 166.822,39.789 167.999,40.000 C169.176,40.210 187.263,48.702 188.999,50.000 C190.735,51.297 198.228,65.487 199.999,66.000 C201.770,66.513 239.797,78.412 240.999,79.000 C242.201,79.588 280.818,116.269 282.999,119.000 C285.180,121.731 299.999,151.000 299.999,151.000 L268.999,151.000 C268.999,151.000 258.307,140.449 255.999,138.000 C253.690,135.551 226.493,106.520 223.999,106.000 C221.506,105.480 218.011,104.282 215.999,104.000 C213.987,103.718 181.841,92.025 180.999,91.000 C180.157,89.975 167.347,73.762 165.999,73.000 C164.652,72.238 132.113,52.198 129.999,51.000 C127.885,49.802 114.320,46.779 111.999,46.000 C109.678,45.221 99.335,45.224 89.999,37.000 C80.664,28.776 79.999,22.000 79.999,22.000 C79.999,22.000 70.068,19.181 66.999,17.000 C63.930,14.819 46.999,4.000 46.999,4.000 Z"/>
<path fill-rule="evenodd"  fill="rgb(15, 160, 73)"
 d="M62.999,-0.000 C62.999,-0.000 79.930,10.819 82.999,13.000 C86.068,15.181 95.999,18.000 95.999,18.000 C95.999,18.000 96.664,24.776 105.999,33.000 C115.334,41.224 125.677,41.221 127.999,42.000 C130.321,42.779 143.885,45.802 145.999,47.000 C148.114,48.198 180.652,68.238 181.999,69.000 C183.346,69.762 196.157,85.975 196.999,87.000 C197.841,88.025 229.987,99.718 231.999,100.000 C234.011,100.282 237.505,101.480 239.999,102.000 C242.493,102.520 269.690,131.551 271.999,134.000 C274.308,136.449 286.999,151.000 286.999,151.000 L247.999,151.000 L31.999,-0.000 L62.999,-0.000 Z"/>
<path fill-rule="evenodd"  fill="rgb(255, 247, 40)"
 d="M87.999,60.000 C87.999,60.000 101.081,72.591 102.999,75.000 C104.917,77.409 112.244,84.051 114.999,86.000 C117.754,87.949 129.920,94.349 130.999,95.000 C132.078,95.651 142.380,96.700 144.999,98.000 C147.618,99.300 158.999,102.000 158.999,102.000 C158.999,102.000 142.002,85.862 138.999,84.000 C135.997,82.138 118.757,70.996 113.999,69.000 C109.241,67.004 102.919,64.131 99.999,63.000 C97.080,61.869 87.999,60.000 87.999,60.000 Z"/>
<path fill-rule="evenodd"  fill="rgb(212, 186, 12)"
 d="M84.999,59.000 C84.999,59.000 110.266,71.719 112.999,72.000 C115.732,72.281 117.590,72.841 118.999,74.000 C120.408,75.158 126.979,79.647 128.999,81.000 C131.020,82.353 133.043,83.510 134.999,85.000 C136.955,86.489 154.381,99.863 156.999,101.000 C159.617,102.137 159.999,103.000 159.999,103.000 C159.999,103.000 145.964,82.640 141.999,78.000 C138.034,73.360 124.288,61.769 120.999,61.000 C117.710,60.230 98.029,59.028 95.999,59.000 C93.969,58.971 84.999,59.000 84.999,59.000 Z"/>
<path fill-rule="evenodd"  fill="rgb(65, 65, 67)"
 d="M135.355,74.344 C135.087,74.695 134.563,74.746 134.188,74.458 L126.025,68.201 C125.649,67.913 125.562,67.395 125.831,67.044 C126.100,66.694 126.622,66.643 126.998,66.931 L135.162,73.188 C135.537,73.476 135.624,73.994 135.355,74.344 ZM130.120,72.308 L130.765,76.161 C130.823,76.603 130.517,76.988 130.072,77.031 C129.628,77.074 129.205,76.760 129.116,76.322 L128.801,74.443 L122.554,82.593 L124.452,82.408 C124.903,82.373 125.325,82.702 125.399,83.148 C125.473,83.594 125.173,83.992 124.724,84.044 L120.836,84.422 C120.728,84.433 120.617,84.422 120.509,84.390 C120.403,84.359 120.305,84.308 120.218,84.243 C120.216,84.241 120.213,84.241 120.211,84.239 C120.211,84.239 120.210,84.238 120.210,84.238 C120.122,84.170 120.047,84.087 119.989,83.992 C119.930,83.895 119.890,83.789 119.873,83.682 L119.227,79.831 C119.170,79.389 119.476,79.005 119.920,78.962 C120.364,78.918 120.787,79.231 120.876,79.670 L121.192,81.551 L127.440,73.399 L125.541,73.583 C125.090,73.620 124.668,73.290 124.595,72.845 C124.520,72.399 124.819,72.000 125.268,71.948 L129.159,71.570 C129.614,71.526 130.044,71.856 130.120,72.308 ZM124.162,88.948 C123.893,89.299 123.370,89.349 122.995,89.062 L114.832,82.805 C114.455,82.516 114.369,81.999 114.637,81.648 C114.906,81.297 115.429,81.247 115.805,81.535 L123.968,87.792 C124.343,88.079 124.432,88.597 124.162,88.948 Z"/>
</svg>
