<svg 
 xmlns="http://www.w3.org/2000/svg"
 xmlns:xlink="http://www.w3.org/1999/xlink"
 width="300.5px" height="147.5px">
<path fill-rule="evenodd"  fill="none"
 d="M-0.002,-0.001 L299.998,-0.001 L299.998,146.999 L-0.002,146.999 L-0.002,-0.001 Z"/>
<path fill-rule="evenodd"  fill="rgb(72, 90, 79)"
 d="M148.998,7.999 C151.628,7.692 153.162,8.043 161.999,13.000 C171.117,18.114 200.663,33.245 202.998,34.999 C205.335,36.754 205.817,37.986 205.999,45.999 C206.180,54.013 205.999,60.999 205.999,60.999 L148.998,78.999 L145.999,61.999 C145.999,61.999 146.369,8.306 148.998,7.999 Z"/>
<path fill-rule="evenodd"  fill="rgb(81, 106, 91)"
 d="M93.999,43.999 C93.999,43.999 93.853,37.338 93.999,36.999 C94.144,36.661 146.531,8.000 146.999,7.999 C147.110,7.999 148.230,7.999 149.256,7.999 C150.164,7.999 150.999,7.999 150.999,7.999 L150.999,10.999 L150.999,73.999 L93.999,43.999 Z"/>
<path fill-rule="evenodd"  stroke="rgb(127, 127, 127)" stroke-width="1px" stroke-dasharray="4, 2" stroke-linecap="butt" stroke-linejoin="miter" fill="none"
 d="M203.009,113.419 C205.147,112.270 206.161,110.277 205.968,108.394 C206.175,106.401 205.147,104.517 203.009,103.368 L156.921,78.698 C154.880,77.549 152.436,77.023 149.992,77.023 C147.548,77.023 145.090,77.549 143.048,78.698 L96.960,103.272 C94.822,104.421 93.905,106.414 94.002,108.297 C93.905,110.290 94.822,112.270 96.960,113.419 L143.048,138.006 C145.090,139.155 147.534,139.682 149.992,139.682 C152.436,139.682 154.880,139.155 156.921,138.006 L203.009,113.419 Z"/>
<path fill-rule="evenodd"  stroke="rgb(127, 127, 127)" stroke-width="1px" stroke-dasharray="4, 2" stroke-linecap="butt" stroke-linejoin="miter" fill="none"
 d="M94.997,43.998 L94.997,107.998 "/>
<path fill-rule="evenodd"  stroke="rgb(127, 127, 127)" stroke-width="1px" stroke-dasharray="4, 2" stroke-linecap="butt" stroke-linejoin="miter" fill="none"
 d="M205.997,43.998 L205.997,107.998 "/>
<path fill-rule="evenodd"  stroke="rgb(127, 127, 127)" stroke-width="1px" stroke-dasharray="4, 2" stroke-linecap="butt" stroke-linejoin="miter" fill="none"
 d="M150.997,71.998 L150.997,139.998 "/>
<path fill-rule="evenodd"  fill="rgb(28, 227, 107)"
 d="M149.998,69.999 C149.998,69.999 152.060,69.694 153.998,68.999 C155.936,68.305 203.218,42.372 203.998,41.999 C204.779,41.627 205.998,39.999 205.998,39.999 L205.998,109.999 C205.998,109.999 205.598,111.232 202.998,112.999 C200.399,114.766 155.104,139.436 153.998,139.999 C152.893,140.563 149.998,139.999 149.998,139.999 L149.998,69.999 Z"/>
<path fill-rule="evenodd"  fill="rgb(28, 227, 107)"
 d="M149.998,69.925 C149.998,69.925 147.937,69.619 145.999,68.927 C144.060,68.235 96.779,42.366 95.998,41.994 C95.218,41.623 93.999,39.999 93.999,39.999 L93.999,109.825 C93.999,109.825 94.399,111.055 96.999,112.817 C99.598,114.580 144.893,139.188 145.999,139.750 C147.104,140.312 149.998,139.750 149.998,139.750 L149.998,69.925 Z"/>
<path fill-rule="evenodd"  stroke="rgb(20, 188, 87)" stroke-width="1px" stroke-linecap="butt" stroke-linejoin="miter" fill="none"
 d="M149.992,136.011 C152.436,136.011 153.880,135.485 155.921,134.336 L202.010,109.749 C204.148,108.600 205.161,106.606 204.968,104.724 "/>
<path fill-rule="evenodd"  stroke="rgb(20, 188, 87)" stroke-width="1px" stroke-linecap="butt" stroke-linejoin="miter" fill="none"
 d="M149.992,131.416 C152.436,131.416 153.880,130.890 155.921,129.740 L202.010,105.154 C204.148,104.005 205.161,102.011 204.968,100.129 "/>
<path fill-rule="evenodd"  stroke="rgb(20, 188, 87)" stroke-width="1px" stroke-linecap="butt" stroke-linejoin="miter" fill="none"
 d="M149.992,127.416 C152.436,127.416 153.880,126.890 155.921,125.741 L202.010,101.154 C204.148,100.005 205.161,98.011 204.968,96.129 "/>
<path fill-rule="evenodd"  stroke="rgb(20, 188, 87)" stroke-width="1px" stroke-linecap="butt" stroke-linejoin="miter" fill="none"
 d="M149.992,122.416 C152.436,122.416 153.880,121.890 155.921,120.741 L202.010,96.154 C204.148,95.005 205.161,93.011 204.968,91.129 "/>
<path fill-rule="evenodd"  stroke="rgb(20, 188, 87)" stroke-width="1px" stroke-linecap="butt" stroke-linejoin="miter" fill="none"
 d="M149.992,118.416 C152.436,118.416 153.880,117.890 155.921,116.741 L202.010,92.154 C204.148,91.005 205.161,89.011 204.968,87.129 "/>
<path fill-rule="evenodd"  stroke="rgb(20, 188, 87)" stroke-width="1px" stroke-linecap="butt" stroke-linejoin="miter" fill="none"
 d="M149.992,113.681 C152.436,113.681 153.880,113.156 155.921,112.007 L202.010,87.419 C204.148,86.271 205.161,84.277 204.968,82.394 "/>
<path fill-rule="evenodd"  stroke="rgb(20, 188, 87)" stroke-width="1px" stroke-linecap="butt" stroke-linejoin="miter" fill="none"
 d="M149.992,109.682 C152.436,109.682 153.880,109.156 155.921,108.006 L202.010,83.420 C204.148,82.270 205.161,80.277 204.968,78.394 "/>
<path fill-rule="evenodd"  stroke="rgb(20, 188, 87)" stroke-width="1px" stroke-linecap="butt" stroke-linejoin="miter" fill="none"
 d="M149.992,104.682 C152.436,104.682 153.880,104.156 155.921,103.006 L202.010,78.420 C204.148,77.271 205.161,75.277 204.968,73.395 "/>
<path fill-rule="evenodd"  stroke="rgb(20, 188, 87)" stroke-width="1px" stroke-linecap="butt" stroke-linejoin="miter" fill="none"
 d="M149.992,100.681 C152.436,100.681 153.880,100.156 155.921,99.006 L202.010,74.420 C204.148,73.270 205.161,71.277 204.968,69.394 "/>
<path fill-rule="evenodd"  stroke="rgb(20, 188, 87)" stroke-width="1px" stroke-linecap="butt" stroke-linejoin="miter" fill="none"
 d="M149.992,95.682 C152.436,95.682 153.880,95.155 155.921,94.007 L202.010,69.420 C204.148,68.270 205.161,66.277 204.968,64.394 "/>
<path fill-rule="evenodd"  stroke="rgb(20, 188, 87)" stroke-width="1px" stroke-linecap="butt" stroke-linejoin="miter" fill="none"
 d="M149.992,91.681 C152.436,91.681 153.880,91.156 155.921,90.006 L202.010,65.420 C204.148,64.271 205.161,62.277 204.968,60.394 "/>
<path fill-rule="evenodd"  stroke="rgb(20, 188, 87)" stroke-width="1px" stroke-linecap="butt" stroke-linejoin="miter" fill="none"
 d="M149.992,86.681 C152.436,86.681 153.880,86.156 155.921,85.006 L202.010,60.419 C204.148,59.271 205.161,57.277 204.968,55.394 "/>
<path fill-rule="evenodd"  stroke="rgb(20, 188, 87)" stroke-width="1px" stroke-linecap="butt" stroke-linejoin="miter" fill="none"
 d="M149.992,82.682 C152.436,82.682 153.880,82.156 155.921,81.006 L202.010,56.419 C204.148,55.270 205.161,53.277 204.968,51.394 "/>
<path fill-rule="evenodd"  stroke="rgb(20, 188, 87)" stroke-width="1px" stroke-linecap="butt" stroke-linejoin="miter" fill="none"
 d="M149.992,77.682 C152.436,77.682 153.880,77.156 155.921,76.006 L202.010,51.420 C204.148,50.271 205.161,48.277 204.968,46.395 "/>
<path fill-rule="evenodd"  stroke="rgb(20, 188, 87)" stroke-width="1px" stroke-linecap="butt" stroke-linejoin="miter" fill="none"
 d="M149.992,73.681 C152.436,73.681 153.880,73.156 155.921,72.006 L202.010,47.420 C204.148,46.270 205.161,44.277 204.968,42.394 "/>
<path fill-rule="evenodd"  stroke="rgb(20, 188, 87)" stroke-width="1px" stroke-linecap="butt" stroke-linejoin="miter" fill="none"
 d="M150.004,137.008 C147.561,137.008 145.116,136.480 143.076,135.328 L96.987,110.668 C94.849,109.515 93.835,107.516 94.029,105.628 "/>
<path fill-rule="evenodd"  stroke="rgb(20, 188, 87)" stroke-width="1px" stroke-linecap="butt" stroke-linejoin="miter" fill="none"
 d="M150.004,132.399 C147.561,132.399 145.116,131.872 143.076,130.719 L96.987,106.059 C94.849,104.907 93.835,102.907 94.029,101.019 "/>
<path fill-rule="evenodd"  stroke="rgb(20, 188, 87)" stroke-width="1px" stroke-linecap="butt" stroke-linejoin="miter" fill="none"
 d="M150.004,128.387 C147.561,128.387 145.116,127.860 143.076,126.707 L96.987,102.047 C94.849,100.895 93.835,98.895 94.029,97.007 "/>
<path fill-rule="evenodd"  stroke="rgb(20, 188, 87)" stroke-width="1px" stroke-linecap="butt" stroke-linejoin="miter" fill="none"
 d="M150.004,123.372 C147.561,123.372 145.116,122.845 143.076,121.692 L96.987,97.032 C94.849,95.880 93.835,93.881 94.029,91.992 "/>
<path fill-rule="evenodd"  stroke="rgb(20, 188, 87)" stroke-width="1px" stroke-linecap="butt" stroke-linejoin="miter" fill="none"
 d="M150.004,119.360 C147.561,119.360 145.116,118.833 143.076,117.680 L96.987,93.021 C94.849,91.868 93.835,89.869 94.029,87.980 "/>
<path fill-rule="evenodd"  stroke="rgb(20, 188, 87)" stroke-width="1px" stroke-linecap="butt" stroke-linejoin="miter" fill="none"
 d="M150.004,114.612 C147.561,114.612 145.116,114.085 143.076,112.932 L96.987,88.272 C94.849,87.120 93.835,85.120 94.029,83.232 "/>
<path fill-rule="evenodd"  stroke="rgb(20, 188, 87)" stroke-width="1px" stroke-linecap="butt" stroke-linejoin="miter" fill="none"
 d="M150.004,110.600 C147.561,110.600 145.116,110.073 143.076,108.920 L96.987,84.261 C94.849,83.108 93.835,81.108 94.029,79.220 "/>
<path fill-rule="evenodd"  stroke="rgb(20, 188, 87)" stroke-width="1px" stroke-linecap="butt" stroke-linejoin="miter" fill="none"
 d="M150.004,105.586 C147.561,105.586 145.116,105.058 143.076,103.905 L96.987,79.246 C94.849,78.093 93.835,76.094 94.029,74.206 "/>
<path fill-rule="evenodd"  stroke="rgb(20, 188, 87)" stroke-width="1px" stroke-linecap="butt" stroke-linejoin="miter" fill="none"
 d="M150.004,101.574 C147.561,101.574 145.116,101.046 143.076,99.893 L96.987,75.234 C94.849,74.081 93.835,72.082 94.029,70.194 "/>
<path fill-rule="evenodd"  stroke="rgb(20, 188, 87)" stroke-width="1px" stroke-linecap="butt" stroke-linejoin="miter" fill="none"
 d="M150.004,96.559 C147.561,96.559 145.116,96.031 143.076,94.879 L96.987,70.219 C94.849,69.066 93.835,67.067 94.029,65.179 "/>
<path fill-rule="evenodd"  stroke="rgb(20, 188, 87)" stroke-width="1px" stroke-linecap="butt" stroke-linejoin="miter" fill="none"
 d="M150.004,92.547 C147.561,92.547 145.116,92.020 143.076,90.867 L96.987,66.207 C94.849,65.055 93.835,63.055 94.029,61.167 "/>
<path fill-rule="evenodd"  stroke="rgb(20, 188, 87)" stroke-width="1px" stroke-linecap="butt" stroke-linejoin="miter" fill="none"
 d="M150.004,87.532 C147.561,87.532 145.116,87.005 143.076,85.852 L96.987,61.192 C94.849,60.040 93.835,58.040 94.029,56.152 "/>
<path fill-rule="evenodd"  stroke="rgb(20, 188, 87)" stroke-width="1px" stroke-linecap="butt" stroke-linejoin="miter" fill="none"
 d="M150.004,83.520 C147.561,83.520 145.116,82.993 143.076,81.840 L96.987,57.180 C94.849,56.028 93.835,54.028 94.029,52.140 "/>
<path fill-rule="evenodd"  stroke="rgb(20, 188, 87)" stroke-width="1px" stroke-linecap="butt" stroke-linejoin="miter" fill="none"
 d="M150.004,78.506 C147.561,78.506 145.116,77.978 143.076,76.825 L96.987,52.166 C94.849,51.013 93.835,49.014 94.029,47.125 "/>
<path fill-rule="evenodd"  stroke="rgb(20, 188, 87)" stroke-width="1px" stroke-linecap="butt" stroke-linejoin="miter" fill="none"
 d="M150.004,74.494 C147.561,74.494 145.116,73.966 143.076,72.813 L96.987,48.154 C94.849,47.001 93.835,45.002 94.029,43.114 "/>
<path fill-rule="evenodd"  stroke="rgb(255, 222, 0)" stroke-width="1px" stroke-linecap="butt" stroke-linejoin="miter" fill="none"
 d="M203.009,44.154 C205.147,43.004 206.161,41.011 205.968,39.128 C206.175,37.135 205.147,35.251 203.009,34.102 L156.921,9.432 C154.880,8.283 152.436,7.757 149.992,7.757 C147.548,7.757 145.090,8.283 143.048,9.432 L96.960,34.006 C94.822,35.155 93.905,37.149 94.002,39.031 C93.905,41.024 94.822,43.004 96.960,44.154 L143.048,68.740 C145.090,69.890 147.534,70.416 149.992,70.416 C152.436,70.416 154.880,69.890 156.921,68.740 L203.009,44.154 Z"/>
<path fill-rule="evenodd"  stroke="rgb(255, 222, 0)" stroke-width="1px" stroke-linecap="butt" stroke-linejoin="miter" fill="none"
 d="M199.331,43.536 C201.243,42.509 203.149,40.728 202.976,39.044 C203.162,37.263 201.243,35.579 199.331,34.552 L156.172,12.504 C154.349,11.476 152.164,11.006 149.981,11.006 C147.796,11.006 145.600,11.476 143.776,12.504 L100.645,34.467 C98.734,35.494 96.915,37.275 97.001,38.958 C96.915,40.739 98.734,42.509 100.645,43.536 L143.776,65.511 C145.600,66.538 147.784,67.008 149.981,67.008 C152.164,67.008 154.349,66.538 156.172,65.511 L199.331,43.536 Z"/>
<path fill-rule="evenodd"  stroke="rgb(255, 222, 0)" stroke-width="1px" stroke-linecap="butt" stroke-linejoin="miter" fill="none"
 d="M194.705,43.050 C196.436,42.133 200.163,40.542 200.006,39.040 C200.174,37.449 196.436,35.946 194.705,35.029 L155.606,15.343 C153.954,14.425 151.975,14.006 149.997,14.006 C148.018,14.006 146.028,14.425 144.375,15.343 L105.302,34.952 C103.570,35.869 99.922,37.460 100.001,38.962 C99.922,40.553 103.570,42.133 105.302,43.050 L144.375,62.671 C146.028,63.587 148.006,64.007 149.997,64.007 C151.975,64.007 153.954,63.587 155.606,62.671 L194.705,43.050 Z"/>
<path fill-rule="evenodd"  stroke="rgb(127, 127, 127)" stroke-width="1px" stroke-linecap="butt" stroke-linejoin="miter" fill="none"
 d="M32.999,16.000 L59.000,16.000 C61.761,16.000 63.999,18.238 63.999,21.000 L63.999,47.000 C63.999,49.761 61.761,52.000 59.000,52.000 L32.999,52.000 C30.238,52.000 27.999,49.761 27.999,47.000 L27.999,21.000 C27.999,18.238 30.238,16.000 32.999,16.000 Z"/>
<path fill-rule="evenodd"  stroke="rgb(127, 127, 127)" stroke-width="1px" stroke-linecap="butt" stroke-linejoin="miter" fill="none"
 d="M35.000,19.000 L57.000,19.000 C59.209,19.000 61.000,20.791 61.000,23.000 L61.000,45.000 C61.000,47.209 59.209,49.000 57.000,49.000 L35.000,49.000 C32.790,49.000 30.999,47.209 30.999,45.000 L30.999,23.000 C30.999,20.791 32.790,19.000 35.000,19.000 Z"/>
<path fill-rule="evenodd"  stroke="rgb(255, 222, 0)" stroke-width="1px" stroke-linecap="butt" stroke-linejoin="miter" fill="none"
 d="M37.000,22.000 L54.999,22.000 C56.656,22.000 57.999,23.343 57.999,25.000 L57.999,43.000 C57.999,44.657 56.656,46.000 54.999,46.000 L37.000,46.000 C35.343,46.000 34.000,44.657 34.000,43.000 L34.000,25.000 C34.000,23.343 35.343,22.000 37.000,22.000 Z"/>
<path fill-rule="evenodd"  fill="rgb(65, 65, 67)"
 d="M26.999,29.000 L32.999,29.000 L32.999,39.000 L26.999,39.000 L26.999,29.000 Z"/>
<path fill-rule="evenodd"  fill="rgb(255, 222, 0)"
 d="M29.999,30.000 L29.999,33.000 L34.000,33.000 L34.000,35.000 L29.999,35.000 L29.999,38.000 L26.000,33.986 L29.999,30.000 Z"/>
<path fill-rule="evenodd"  stroke="rgb(255, 222, 0)" stroke-width="1px" stroke-linecap="butt" stroke-linejoin="miter" fill="none"
 d="M240.999,16.000 L266.999,16.000 C269.761,16.000 272.000,18.238 272.000,21.000 L272.000,47.000 C272.000,49.761 269.761,52.000 266.999,52.000 L240.999,52.000 C238.238,52.000 235.999,49.761 235.999,47.000 L235.999,21.000 C235.999,18.238 238.238,16.000 240.999,16.000 Z"/>
<path fill-rule="evenodd"  stroke="rgb(127, 127, 127)" stroke-width="1px" stroke-linecap="butt" stroke-linejoin="miter" fill="none"
 d="M242.999,19.000 L264.999,19.000 C267.209,19.000 268.999,20.791 268.999,23.000 L268.999,45.000 C268.999,47.209 267.209,49.000 264.999,49.000 L242.999,49.000 C240.790,49.000 239.000,47.209 239.000,45.000 L239.000,23.000 C239.000,20.791 240.790,19.000 242.999,19.000 Z"/>
<path fill-rule="evenodd"  stroke="rgb(127, 127, 127)" stroke-width="1px" stroke-linecap="butt" stroke-linejoin="miter" fill="none"
 d="M245.000,22.000 L262.999,22.000 C264.656,22.000 265.999,23.343 265.999,25.000 L265.999,43.000 C265.999,44.657 264.656,46.000 262.999,46.000 L245.000,46.000 C243.343,46.000 241.999,44.657 241.999,43.000 L241.999,25.000 C241.999,23.343 243.343,22.000 245.000,22.000 Z"/>
<path fill-rule="evenodd"  fill="rgb(65, 65, 67)"
 d="M237.999,29.000 L243.999,29.000 L243.999,39.000 L237.999,39.000 L237.999,29.000 Z"/>
<path fill-rule="evenodd"  fill="rgb(255, 222, 0)"
 d="M240.999,30.000 L240.999,33.000 L236.999,33.000 L236.999,35.000 L240.999,35.000 L240.999,38.000 L245.000,33.986 L240.999,30.000 Z"/>
</svg>
