<svg 
 xmlns="http://www.w3.org/2000/svg"
 xmlns:xlink="http://www.w3.org/1999/xlink"
 width="300.5px" height="147.5px">
<path fill-rule="evenodd"  fill="none"
 d="M-0.003,-0.001 L299.999,-0.001 L299.999,146.999 L-0.003,146.999 L-0.003,-0.001 Z"/>
<path fill-rule="evenodd"  fill="rgb(119, 141, 128)"
 d="M148.998,8.000 C151.628,7.693 153.162,8.044 161.999,13.000 C171.118,18.114 200.663,33.245 202.999,35.000 C205.335,36.754 205.817,37.986 205.999,46.000 C206.180,54.013 205.999,61.000 205.999,61.000 L148.998,79.000 L145.999,62.000 C145.999,62.000 146.369,8.307 148.998,8.000 Z"/>
<path fill-rule="evenodd"  fill="rgb(135, 155, 143)"
 d="M93.998,44.000 C93.998,44.000 93.852,37.339 93.998,37.000 C94.145,36.661 146.531,8.001 146.999,8.000 C147.110,8.000 148.229,8.000 149.256,8.000 C150.164,8.000 150.999,8.000 150.999,8.000 L150.999,11.000 L150.999,74.000 L93.998,44.000 Z"/>
<path fill-rule="evenodd"  stroke="rgb(127, 127, 127)" stroke-width="1px" stroke-dasharray="4, 2" stroke-linecap="butt" stroke-linejoin="miter" fill="none"
 d="M203.009,113.420 C205.147,112.271 206.161,110.277 205.968,108.395 C206.175,106.401 205.147,104.518 203.009,103.369 L156.921,78.699 C154.879,77.550 152.436,77.024 149.991,77.024 C147.547,77.024 145.089,77.550 143.048,78.699 L96.960,103.272 C94.821,104.421 93.904,106.415 94.002,108.297 C93.904,110.291 94.821,112.271 96.960,113.420 L143.048,138.006 C145.089,139.156 147.533,139.682 149.991,139.682 C152.436,139.682 154.879,139.156 156.921,138.006 L203.009,113.420 Z"/>
<path fill-rule="evenodd"  stroke="rgb(127, 127, 127)" stroke-width="1px" stroke-dasharray="4, 2" stroke-linecap="butt" stroke-linejoin="miter" fill="none"
 d="M203.009,44.154 C205.147,43.005 206.161,41.011 205.968,39.129 C206.175,37.136 205.147,35.252 203.009,34.102 L156.921,9.433 C154.879,8.283 152.436,7.758 149.991,7.758 C147.547,7.758 145.089,8.283 143.048,9.433 L96.960,34.006 C94.821,35.155 93.904,37.149 94.002,39.031 C93.904,41.025 94.821,43.005 96.960,44.154 L143.048,68.741 C145.089,69.890 147.533,70.416 149.991,70.416 C152.436,70.416 154.879,69.890 156.921,68.741 L203.009,44.154 Z"/>
<path fill-rule="evenodd"  stroke="rgb(127, 127, 127)" stroke-width="1px" stroke-dasharray="4, 2" stroke-linecap="butt" stroke-linejoin="miter" fill="none"
 d="M94.997,43.999 L94.997,107.999 "/>
<path fill-rule="evenodd"  stroke="rgb(127, 127, 127)" stroke-width="1px" stroke-dasharray="4, 2" stroke-linecap="butt" stroke-linejoin="miter" fill="none"
 d="M205.997,43.999 L205.997,107.999 "/>
<path fill-rule="evenodd"  stroke="rgb(127, 127, 127)" stroke-width="1px" stroke-dasharray="4, 2" stroke-linecap="butt" stroke-linejoin="miter" fill="none"
 d="M150.997,71.999 L150.997,139.998 "/>
<path fill-rule="evenodd"  fill="rgb(28, 227, 107)"
 d="M149.998,70.000 C149.998,70.000 152.060,69.694 153.998,69.000 C155.936,68.305 203.218,42.372 203.998,42.000 C204.779,41.628 205.999,40.000 205.999,40.000 L205.999,110.000 C205.999,110.000 205.598,111.233 202.999,113.000 C200.398,114.767 155.104,139.436 153.998,140.000 C152.892,140.563 149.998,140.000 149.998,140.000 L149.998,70.000 Z"/>
<path fill-rule="evenodd"  fill="rgb(28, 227, 107)"
 d="M149.998,69.925 C149.998,69.925 147.937,69.620 145.998,68.927 C144.060,68.235 96.779,42.366 95.998,41.995 C95.218,41.623 93.998,40.000 93.998,40.000 L93.998,109.825 C93.998,109.825 94.399,111.055 96.999,112.818 C99.599,114.580 144.893,139.188 145.998,139.750 C147.104,140.312 149.998,139.750 149.998,139.750 L149.998,69.925 Z"/>
<path fill-rule="evenodd"  stroke="rgb(20, 188, 87)" stroke-width="1px" stroke-linecap="butt" stroke-linejoin="miter" fill="none"
 d="M149.992,136.011 C152.436,136.011 153.880,135.485 155.920,134.336 L202.010,109.749 C204.148,108.600 205.162,106.606 204.968,104.724 "/>
<path fill-rule="evenodd"  stroke="rgb(20, 188, 87)" stroke-width="1px" stroke-linecap="butt" stroke-linejoin="miter" fill="none"
 d="M149.992,131.416 C152.436,131.416 153.880,130.890 155.920,129.741 L202.010,105.154 C204.148,104.005 205.162,102.012 204.968,100.129 "/>
<path fill-rule="evenodd"  stroke="rgb(20, 188, 87)" stroke-width="1px" stroke-linecap="butt" stroke-linejoin="miter" fill="none"
 d="M149.992,127.416 C152.436,127.416 153.880,126.890 155.920,125.741 L202.010,101.154 C204.148,100.005 205.162,98.012 204.968,96.129 "/>
<path fill-rule="evenodd"  stroke="rgb(20, 188, 87)" stroke-width="1px" stroke-linecap="butt" stroke-linejoin="miter" fill="none"
 d="M149.992,122.416 C152.436,122.416 153.880,121.890 155.920,120.741 L202.010,96.154 C204.148,95.005 205.162,93.012 204.968,91.129 "/>
<path fill-rule="evenodd"  stroke="rgb(20, 188, 87)" stroke-width="1px" stroke-linecap="butt" stroke-linejoin="miter" fill="none"
 d="M149.992,118.416 C152.436,118.416 153.880,117.890 155.920,116.741 L202.010,92.154 C204.148,91.005 205.162,89.012 204.968,87.129 "/>
<path fill-rule="evenodd"  stroke="rgb(20, 188, 87)" stroke-width="1px" stroke-linecap="butt" stroke-linejoin="miter" fill="none"
 d="M149.992,113.682 C152.436,113.682 153.880,113.156 155.920,112.007 L202.010,87.420 C204.148,86.271 205.162,84.277 204.968,82.395 "/>
<path fill-rule="evenodd"  stroke="rgb(20, 188, 87)" stroke-width="1px" stroke-linecap="butt" stroke-linejoin="miter" fill="none"
 d="M149.992,109.682 C152.436,109.682 153.880,109.156 155.920,108.007 L202.010,83.420 C204.148,82.271 205.162,80.277 204.968,78.395 "/>
<path fill-rule="evenodd"  stroke="rgb(20, 188, 87)" stroke-width="1px" stroke-linecap="butt" stroke-linejoin="miter" fill="none"
 d="M149.992,104.682 C152.436,104.682 153.880,104.156 155.920,103.007 L202.010,78.420 C204.148,77.271 205.162,75.277 204.968,73.395 "/>
<path fill-rule="evenodd"  stroke="rgb(20, 188, 87)" stroke-width="1px" stroke-linecap="butt" stroke-linejoin="miter" fill="none"
 d="M149.992,100.682 C152.436,100.682 153.880,100.156 155.920,99.007 L202.010,74.420 C204.148,73.271 205.162,71.277 204.968,69.395 "/>
<path fill-rule="evenodd"  stroke="rgb(20, 188, 87)" stroke-width="1px" stroke-linecap="butt" stroke-linejoin="miter" fill="none"
 d="M149.992,95.682 C152.436,95.682 153.880,95.156 155.920,94.007 L202.010,69.420 C204.148,68.271 205.162,66.277 204.968,64.395 "/>
<path fill-rule="evenodd"  stroke="rgb(20, 188, 87)" stroke-width="1px" stroke-linecap="butt" stroke-linejoin="miter" fill="none"
 d="M149.992,91.682 C152.436,91.682 153.880,91.156 155.920,90.007 L202.010,65.420 C204.148,64.271 205.162,62.278 204.968,60.395 "/>
<path fill-rule="evenodd"  stroke="rgb(20, 188, 87)" stroke-width="1px" stroke-linecap="butt" stroke-linejoin="miter" fill="none"
 d="M149.992,86.682 C152.436,86.682 153.880,86.156 155.920,85.007 L202.010,60.420 C204.148,59.271 205.162,57.277 204.968,55.395 "/>
<path fill-rule="evenodd"  stroke="rgb(20, 188, 87)" stroke-width="1px" stroke-linecap="butt" stroke-linejoin="miter" fill="none"
 d="M149.992,82.682 C152.436,82.682 153.880,82.156 155.920,81.007 L202.010,56.420 C204.148,55.271 205.162,53.277 204.968,51.395 "/>
<path fill-rule="evenodd"  stroke="rgb(20, 188, 87)" stroke-width="1px" stroke-linecap="butt" stroke-linejoin="miter" fill="none"
 d="M149.992,77.682 C152.436,77.682 153.880,77.156 155.920,76.007 L202.010,51.420 C204.148,50.271 205.162,48.277 204.968,46.395 "/>
<path fill-rule="evenodd"  stroke="rgb(20, 188, 87)" stroke-width="1px" stroke-linecap="butt" stroke-linejoin="miter" fill="none"
 d="M149.992,73.682 C152.436,73.682 153.880,73.156 155.920,72.007 L202.010,47.420 C204.148,46.271 205.162,44.277 204.968,42.395 "/>
<path fill-rule="evenodd"  stroke="rgb(20, 188, 87)" stroke-width="1px" stroke-linecap="butt" stroke-linejoin="miter" fill="none"
 d="M150.005,137.008 C147.561,137.008 145.117,136.481 143.075,135.328 L96.987,110.668 C94.849,109.516 93.835,107.516 94.029,105.628 "/>
<path fill-rule="evenodd"  stroke="rgb(20, 188, 87)" stroke-width="1px" stroke-linecap="butt" stroke-linejoin="miter" fill="none"
 d="M150.005,132.399 C147.561,132.399 145.117,131.872 143.075,130.719 L96.987,106.060 C94.849,104.907 93.835,102.908 94.029,101.020 "/>
<path fill-rule="evenodd"  stroke="rgb(20, 188, 87)" stroke-width="1px" stroke-linecap="butt" stroke-linejoin="miter" fill="none"
 d="M150.005,128.388 C147.561,128.388 145.117,127.860 143.075,126.708 L96.987,102.048 C94.849,100.895 93.835,98.896 94.029,97.008 "/>
<path fill-rule="evenodd"  stroke="rgb(20, 188, 87)" stroke-width="1px" stroke-linecap="butt" stroke-linejoin="miter" fill="none"
 d="M150.005,123.373 C147.561,123.373 145.117,122.846 143.075,121.693 L96.987,97.033 C94.849,95.881 93.835,93.881 94.029,91.993 "/>
<path fill-rule="evenodd"  stroke="rgb(20, 188, 87)" stroke-width="1px" stroke-linecap="butt" stroke-linejoin="miter" fill="none"
 d="M150.005,119.361 C147.561,119.361 145.117,118.833 143.075,117.681 L96.987,93.021 C94.849,91.869 93.835,89.869 94.029,87.981 "/>
<path fill-rule="evenodd"  stroke="rgb(20, 188, 87)" stroke-width="1px" stroke-linecap="butt" stroke-linejoin="miter" fill="none"
 d="M150.005,114.612 C147.561,114.612 145.117,114.086 143.075,112.933 L96.987,88.273 C94.849,87.120 93.835,85.121 94.029,83.233 "/>
<path fill-rule="evenodd"  stroke="rgb(20, 188, 87)" stroke-width="1px" stroke-linecap="butt" stroke-linejoin="miter" fill="none"
 d="M150.005,110.601 C147.561,110.601 145.117,110.073 143.075,108.921 L96.987,84.261 C94.849,83.108 93.835,81.109 94.029,79.221 "/>
<path fill-rule="evenodd"  stroke="rgb(20, 188, 87)" stroke-width="1px" stroke-linecap="butt" stroke-linejoin="miter" fill="none"
 d="M150.005,105.586 C147.561,105.586 145.117,105.058 143.075,103.906 L96.987,79.246 C94.849,78.093 93.835,76.094 94.029,74.206 "/>
<path fill-rule="evenodd"  stroke="rgb(20, 188, 87)" stroke-width="1px" stroke-linecap="butt" stroke-linejoin="miter" fill="none"
 d="M150.005,101.574 C147.561,101.574 145.117,101.046 143.075,99.894 L96.987,75.234 C94.849,74.082 93.835,72.082 94.029,70.194 "/>
<path fill-rule="evenodd"  stroke="rgb(20, 188, 87)" stroke-width="1px" stroke-linecap="butt" stroke-linejoin="miter" fill="none"
 d="M150.005,96.559 C147.561,96.559 145.117,96.031 143.075,94.879 L96.987,70.220 C94.849,69.067 93.835,67.067 94.029,65.179 "/>
<path fill-rule="evenodd"  stroke="rgb(20, 188, 87)" stroke-width="1px" stroke-linecap="butt" stroke-linejoin="miter" fill="none"
 d="M150.005,92.547 C147.561,92.547 145.117,92.020 143.075,90.867 L96.987,66.207 C94.849,65.055 93.835,63.056 94.029,61.167 "/>
<path fill-rule="evenodd"  stroke="rgb(20, 188, 87)" stroke-width="1px" stroke-linecap="butt" stroke-linejoin="miter" fill="none"
 d="M150.005,87.532 C147.561,87.532 145.117,87.005 143.075,85.852 L96.987,61.192 C94.849,60.040 93.835,58.041 94.029,56.152 "/>
<path fill-rule="evenodd"  stroke="rgb(20, 188, 87)" stroke-width="1px" stroke-linecap="butt" stroke-linejoin="miter" fill="none"
 d="M150.005,83.521 C147.561,83.521 145.117,82.993 143.075,81.840 L96.987,57.180 C94.849,56.028 93.835,54.029 94.029,52.140 "/>
<path fill-rule="evenodd"  stroke="rgb(20, 188, 87)" stroke-width="1px" stroke-linecap="butt" stroke-linejoin="miter" fill="none"
 d="M150.005,78.506 C147.561,78.506 145.117,77.978 143.075,76.826 L96.987,52.166 C94.849,51.014 93.835,49.014 94.029,47.126 "/>
<path fill-rule="evenodd"  stroke="rgb(20, 188, 87)" stroke-width="1px" stroke-linecap="butt" stroke-linejoin="miter" fill="none"
 d="M150.005,74.494 C147.561,74.494 145.117,73.966 143.075,72.814 L96.987,48.154 C94.849,47.001 93.835,45.002 94.029,43.114 "/>
<path fill-rule="evenodd"  fill="rgb(28, 227, 107)"
 d="M190.999,29.476 C191.441,29.476 191.799,29.834 191.799,30.276 L191.799,49.200 C191.799,49.642 191.441,50.000 190.999,50.000 C190.557,50.000 190.199,49.642 190.199,49.200 L190.199,30.276 C190.199,29.834 190.557,29.476 190.999,29.476 Z"/>
<path fill-rule="evenodd"  fill="rgb(183, 183, 183)"
 d="M179.006,6.277 C179.006,6.277 178.987,21.786 179.006,22.051 C179.026,22.317 179.350,23.054 180.426,24.133 C181.502,25.212 189.949,34.807 190.079,34.957 C190.210,35.107 190.344,35.372 190.790,35.374 C191.235,35.375 191.614,35.000 191.925,34.680 C192.237,34.360 201.653,23.718 202.003,23.300 C202.355,22.882 202.711,22.223 202.714,21.080 C202.717,19.936 202.714,6.277 202.714,6.277 L179.006,6.277 Z"/>
<path fill-rule="evenodd"  fill="rgb(207, 207, 207)"
 d="M180.284,23.855 C180.284,23.855 180.955,24.676 182.272,25.243 C184.367,26.145 187.904,26.920 191.499,26.631 C197.353,26.159 201.009,24.965 201.009,24.965 L191.358,35.512 L189.938,35.374 L180.141,24.133 L180.284,23.855 Z"/>
<path fill-rule="evenodd"  fill="rgb(127, 127, 127)"
 d="M198.172,5.999 L198.172,25.520 L191.215,35.512 L191.499,35.512 C191.499,35.512 202.534,22.965 202.856,22.329 C203.177,21.692 202.856,5.999 202.856,5.999 L198.172,5.999 Z"/>
<path fill-rule="evenodd"  fill="rgb(249, 249, 249)"
 d="M182.130,6.277 L182.130,25.104 L190.647,35.374 L187.665,26.492 L187.807,6.138 L182.130,6.277 Z"/>
<path fill-rule="evenodd"  fill="rgb(255, 222, 0)"
 d="M205.999,35.000 C207.655,35.000 208.999,36.343 208.999,38.000 C208.999,39.657 207.655,41.000 205.999,41.000 C204.342,41.000 202.999,39.657 202.999,38.000 C202.999,36.343 204.342,35.000 205.999,35.000 Z"/>
<path fill-rule="evenodd"  fill="rgb(255, 222, 0)"
 d="M178.311,21.897 C178.075,22.308 177.573,22.462 177.190,22.241 L163.592,14.410 L164.190,16.583 C164.306,17.072 164.013,17.562 163.526,17.690 C163.038,17.818 162.532,17.538 162.381,17.057 L161.209,12.807 C161.072,12.308 161.366,11.799 161.865,11.668 L166.131,10.547 C166.626,10.426 167.133,10.724 167.269,11.215 C167.404,11.707 167.120,12.213 166.629,12.350 L164.447,12.924 L178.046,20.755 C178.429,20.975 178.547,21.487 178.311,21.897 Z"/>
<path fill-rule="evenodd"  fill="rgb(255, 222, 0)"
 d="M132.197,16.442 L118.424,23.960 L120.590,24.583 C121.068,24.738 121.332,25.244 121.188,25.727 C121.042,26.210 120.540,26.495 120.051,26.373 L115.813,25.157 C115.317,25.014 115.035,24.498 115.184,24.004 L116.452,19.779 C116.606,19.293 117.125,19.016 117.615,19.157 C118.106,19.297 118.388,19.804 118.251,20.294 L117.601,22.455 L131.375,14.936 C131.763,14.725 132.262,14.891 132.488,15.306 C132.715,15.722 132.586,16.230 132.197,16.442 Z"/>
<path fill-rule="evenodd"  fill="rgb(255, 222, 0)"
 d="M136.089,57.204 L131.868,58.483 C131.376,58.623 130.859,58.344 130.705,57.858 C130.551,57.372 130.818,56.856 131.302,56.700 L133.462,56.045 L119.581,48.725 C119.190,48.519 119.053,48.012 119.274,47.594 C119.495,47.174 119.990,47.002 120.380,47.208 L134.261,54.528 L133.583,52.379 C133.447,51.895 133.722,51.395 134.205,51.248 C134.688,51.102 135.203,51.363 135.372,51.838 L136.701,56.042 C136.856,56.535 136.582,57.055 136.089,57.204 Z"/>
<path fill-rule="evenodd"  fill="rgb(255, 222, 0)"
 d="M175.890,51.131 L174.747,55.391 C174.607,55.882 174.097,56.173 173.603,56.047 C173.109,55.921 172.811,55.423 172.935,54.929 L173.519,52.750 L159.973,60.671 C159.592,60.895 159.089,60.743 158.850,60.335 C158.611,59.926 158.726,59.414 159.107,59.191 L172.652,51.270 L170.470,50.711 C169.987,50.570 169.708,50.072 169.838,49.585 C169.969,49.098 170.462,48.798 170.955,48.905 L175.227,49.996 C175.728,50.125 176.024,50.633 175.890,51.131 Z"/>
</svg>
