<svg 
 xmlns="http://www.w3.org/2000/svg"
 xmlns:xlink="http://www.w3.org/1999/xlink"
 width="301.5px" height="148.5px">
<path fill-rule="evenodd"  fill="none"
 d="M-0.002,-0.001 L299.999,-0.001 L299.999,146.999 L-0.002,146.999 L-0.002,-0.001 Z"/>
<path fill-rule="evenodd"  stroke="rgb(150, 84, 204)" stroke-width="3px" stroke-linecap="butt" stroke-linejoin="miter" fill="none"
 d="M134.999,30.000 L164.999,30.000 "/>
<path fill-rule="evenodd"  stroke="rgb(150, 84, 204)" stroke-width="3px" stroke-linecap="butt" stroke-linejoin="miter" fill="none"
 d="M116.999,34.000 L183.999,34.000 "/>
<path fill-rule="evenodd"  stroke="rgb(150, 84, 204)" stroke-width="3px" stroke-linecap="butt" stroke-linejoin="miter" fill="none"
 d="M106.999,38.000 L193.999,38.000 "/>
<path fill-rule="evenodd"  stroke="rgb(150, 84, 204)" stroke-width="3px" stroke-linecap="butt" stroke-linejoin="miter" fill="none"
 d="M96.999,42.000 L203.999,42.000 "/>
<path fill-rule="evenodd"  stroke="rgb(150, 84, 204)" stroke-width="3px" stroke-linecap="butt" stroke-linejoin="miter" fill="none"
 d="M88.999,46.000 L211.999,46.000 "/>
<path fill-rule="evenodd"  stroke="rgb(150, 84, 204)" stroke-width="3px" stroke-linecap="butt" stroke-linejoin="miter" fill="none"
 d="M82.999,50.000 L216.999,50.000 "/>
<path fill-rule="evenodd"  stroke="rgb(150, 84, 204)" stroke-width="3px" stroke-linecap="butt" stroke-linejoin="miter" fill="none"
 d="M79.000,54.000 L220.999,54.000 "/>
<path fill-rule="evenodd"  stroke="rgb(150, 84, 204)" stroke-width="3px" stroke-linecap="butt" stroke-linejoin="miter" fill="none"
 d="M75.999,58.000 L223.999,58.000 "/>
<path fill-rule="evenodd"  stroke="rgb(150, 84, 204)" stroke-width="3px" stroke-linecap="butt" stroke-linejoin="miter" fill="none"
 d="M72.999,62.000 L226.999,62.000 "/>
<path fill-rule="evenodd"  stroke="rgb(150, 84, 204)" stroke-width="3px" stroke-linecap="butt" stroke-linejoin="miter" fill="none"
 d="M71.999,66.000 L227.998,66.000 "/>
<path fill-rule="evenodd"  stroke="rgb(150, 84, 204)" stroke-width="3px" stroke-linecap="butt" stroke-linejoin="miter" fill="none"
 d="M70.999,70.000 L228.999,70.000 "/>
<path fill-rule="evenodd"  stroke="rgb(150, 84, 204)" stroke-width="3px" stroke-linecap="butt" stroke-linejoin="miter" fill="none"
 d="M70.999,74.000 L228.999,74.000 "/>
<path fill-rule="evenodd"  stroke="rgb(150, 84, 204)" stroke-width="3px" stroke-linecap="butt" stroke-linejoin="miter" fill="none"
 d="M134.999,114.000 L164.999,114.000 "/>
<path fill-rule="evenodd"  stroke="rgb(150, 84, 204)" stroke-width="3px" stroke-linecap="butt" stroke-linejoin="miter" fill="none"
 d="M116.999,110.000 L183.999,110.000 "/>
<path fill-rule="evenodd"  stroke="rgb(150, 84, 204)" stroke-width="3px" stroke-linecap="butt" stroke-linejoin="miter" fill="none"
 d="M106.999,106.000 L193.999,106.000 "/>
<path fill-rule="evenodd"  stroke="rgb(150, 84, 204)" stroke-width="3px" stroke-linecap="butt" stroke-linejoin="miter" fill="none"
 d="M96.999,102.000 L203.999,102.000 "/>
<path fill-rule="evenodd"  stroke="rgb(150, 84, 204)" stroke-width="3px" stroke-linecap="butt" stroke-linejoin="miter" fill="none"
 d="M88.999,98.000 L211.999,98.000 "/>
<path fill-rule="evenodd"  stroke="rgb(150, 84, 204)" stroke-width="3px" stroke-linecap="butt" stroke-linejoin="miter" fill="none"
 d="M82.999,94.000 L216.999,94.000 "/>
<path fill-rule="evenodd"  stroke="rgb(150, 84, 204)" stroke-width="3px" stroke-linecap="butt" stroke-linejoin="miter" fill="none"
 d="M79.000,90.000 L220.999,90.000 "/>
<path fill-rule="evenodd"  stroke="rgb(150, 84, 204)" stroke-width="3px" stroke-linecap="butt" stroke-linejoin="miter" fill="none"
 d="M75.999,86.000 L223.999,86.000 "/>
<path fill-rule="evenodd"  stroke="rgb(150, 84, 204)" stroke-width="3px" stroke-linecap="butt" stroke-linejoin="miter" fill="none"
 d="M72.999,82.000 L226.999,82.000 "/>
<path fill-rule="evenodd"  stroke="rgb(150, 84, 204)" stroke-width="3px" stroke-linecap="butt" stroke-linejoin="miter" fill="none"
 d="M71.999,78.000 L227.998,78.000 "/>
<path fill-rule="evenodd"  stroke="rgb(23, 204, 95)" stroke-width="3px" stroke-linecap="butt" stroke-linejoin="miter" fill="none"
 d="M149.999,14.000 C202.466,14.000 244.999,40.863 244.999,74.000 C244.999,107.137 202.466,134.000 149.999,134.000 C97.532,134.000 54.999,107.137 54.999,74.000 C54.999,40.863 97.532,14.000 149.999,14.000 Z"/>
<path fill-rule="evenodd"  stroke="rgb(255, 222, 0)" stroke-width="3px" stroke-linecap="butt" stroke-linejoin="miter" fill="none"
 d="M149.999,18.000 C200.257,18.000 240.999,43.072 240.999,74.000 C240.999,104.928 200.257,130.000 149.999,130.000 C99.741,130.000 58.999,104.928 58.999,74.000 C58.999,43.072 99.741,18.000 149.999,18.000 Z"/>
<path fill-rule="evenodd"  stroke="rgb(255, 222, 0)" stroke-width="3px" stroke-linecap="butt" stroke-linejoin="miter" fill="none"
 d="M149.999,22.000 C198.048,22.000 236.999,45.281 236.999,74.000 C236.999,102.719 198.048,126.000 149.999,126.000 C101.950,126.000 62.999,102.719 62.999,74.000 C62.999,45.281 101.950,22.000 149.999,22.000 Z"/>
<path fill-rule="evenodd"  stroke="rgb(23, 204, 95)" stroke-width="3px" stroke-linecap="butt" stroke-linejoin="miter" fill="none"
 d="M149.999,26.000 C195.838,26.000 232.998,47.490 232.998,74.000 C232.998,100.509 195.838,122.000 149.999,122.000 C104.160,122.000 66.998,100.509 66.998,74.000 C66.998,47.490 104.160,26.000 149.999,26.000 Z"/>
<path fill-rule="evenodd"  fill="rgb(51, 51, 51)"
 d="M281.930,17.732 C281.930,18.646 282.295,19.074 282.995,19.074 C283.247,19.074 283.555,18.988 283.766,18.903 L284.102,20.431 C283.681,20.574 283.135,20.731 282.449,20.731 C280.586,20.731 279.872,19.531 279.872,17.732 L279.872,14.190 L278.765,14.190 L278.765,12.633 L279.970,12.533 L280.207,10.391 L281.930,10.391 L281.930,12.533 L283.864,12.533 L283.864,14.190 L281.930,14.190 L281.930,17.732 ZM275.394,15.804 C275.394,14.575 275.058,14.133 274.288,14.133 C273.643,14.133 273.237,14.447 272.649,15.032 L272.649,20.531 L270.603,20.531 L270.603,12.533 L272.284,12.533 L272.425,13.590 L272.480,13.590 C273.167,12.904 273.965,12.333 275.030,12.333 C276.725,12.333 277.453,13.533 277.453,15.546 L277.453,20.531 L275.394,20.531 L275.394,15.804 ZM266.574,19.388 L266.518,19.388 C265.846,20.203 265.089,20.731 264.011,20.731 C262.329,20.731 261.602,19.531 261.602,17.532 L261.602,12.533 L263.660,12.533 L263.660,17.260 C263.660,18.503 263.997,18.931 264.753,18.931 C265.398,18.931 265.818,18.646 266.350,17.932 L266.350,12.533 L268.409,12.533 L268.409,20.531 L266.728,20.531 L266.574,19.388 ZM256.199,20.731 C254.239,20.731 252.431,19.188 252.431,16.546 C252.431,13.875 254.239,12.333 256.199,12.333 C258.160,12.333 259.968,13.875 259.968,16.546 C259.968,19.188 258.160,20.731 256.199,20.731 ZM256.199,14.047 C255.135,14.047 254.533,15.032 254.533,16.546 C254.533,18.046 255.135,19.017 256.199,19.017 C257.264,19.017 257.866,18.046 257.866,16.546 C257.866,15.032 257.264,14.047 256.199,14.047 ZM249.101,19.017 C249.662,19.017 250.194,18.746 250.628,18.374 L251.441,19.760 C250.699,20.431 249.746,20.731 248.877,20.731 C246.706,20.731 245.054,19.188 245.054,16.546 C245.054,13.875 246.931,12.333 249.060,12.333 C250.026,12.333 250.768,12.719 251.343,13.218 L250.362,14.575 C249.970,14.233 249.606,14.047 249.158,14.047 C247.967,14.047 247.155,15.032 247.155,16.546 C247.155,18.046 247.967,19.017 249.101,19.017 ZM233.616,19.317 C236.431,16.746 238.098,14.761 238.098,13.133 C238.098,12.062 237.524,11.419 236.543,11.419 C235.787,11.419 235.156,11.919 234.639,12.504 L233.518,11.362 C234.470,10.333 235.395,9.762 236.810,9.762 C238.771,9.762 240.073,11.047 240.073,13.019 C240.073,14.932 238.519,16.989 236.628,18.874 C237.146,18.817 237.832,18.760 238.308,18.760 L240.564,18.760 L240.564,20.531 L233.616,20.531 L233.616,19.317 Z"/>
</svg>
