<svg 
 xmlns="http://www.w3.org/2000/svg"
 xmlns:xlink="http://www.w3.org/1999/xlink"
 width="301px" height="148px">
<path fill-rule="evenodd"  fill="none"
 d="M-0.002,-0.001 L299.998,-0.001 L299.998,146.999 L-0.002,146.999 L-0.002,-0.001 Z"/>
<path fill-rule="evenodd"  stroke="rgb(127, 127, 127)" stroke-width="1px" stroke-dasharray="4, 2" stroke-linecap="butt" stroke-linejoin="miter" fill="none"
 d="M190.009,110.419 C192.148,109.270 193.161,107.277 192.967,105.394 C193.176,103.401 192.148,101.517 190.009,100.368 L143.921,75.698 C141.880,74.549 139.436,74.023 136.991,74.023 C134.547,74.023 132.090,74.549 130.048,75.698 L83.960,100.272 C81.821,101.421 80.905,103.414 81.002,105.297 C80.905,107.290 81.821,109.270 83.960,110.419 L130.048,135.006 C132.090,136.155 134.534,136.682 136.991,136.682 C139.436,136.682 141.880,136.155 143.921,135.006 L190.009,110.419 Z"/>
<path fill-rule="evenodd"  stroke="rgb(127, 127, 127)" stroke-width="1px" stroke-dasharray="4, 2" stroke-linecap="butt" stroke-linejoin="miter" fill="none"
 d="M81.997,40.998 L81.997,104.998 "/>
<path fill-rule="evenodd"  stroke="rgb(127, 127, 127)" stroke-width="1px" stroke-dasharray="4, 2" stroke-linecap="butt" stroke-linejoin="miter" fill="none"
 d="M192.997,40.998 L192.997,104.998 "/>
<path fill-rule="evenodd"  stroke="rgb(127, 127, 127)" stroke-width="1px" stroke-dasharray="4, 2" stroke-linecap="butt" stroke-linejoin="miter" fill="none"
 d="M137.997,6.998 L137.997,69.998 "/>
<path fill-rule="evenodd"  stroke="rgb(28, 227, 107)" stroke-width="2px" stroke-linecap="butt" stroke-linejoin="miter" fill="rgb(127, 127, 127)"
 d="M190.010,80.154 C192.148,79.005 193.162,77.012 192.968,75.129 C193.176,73.136 192.148,71.252 190.010,70.103 L143.921,45.433 C141.880,44.284 139.436,43.758 136.992,43.758 C134.547,43.758 132.090,44.284 130.048,45.433 L83.961,70.007 C81.822,71.155 80.905,73.149 81.002,75.032 C80.905,77.025 81.822,79.005 83.961,80.154 L130.048,104.741 C132.090,105.890 134.534,106.416 136.992,106.416 C139.436,106.416 141.880,105.890 143.921,104.741 L190.010,80.154 Z"/>
<path fill-rule="evenodd"  stroke="rgb(109, 109, 109)" stroke-width="1px" stroke-linecap="butt" stroke-linejoin="miter" fill="none"
 d="M178.684,79.050 C180.364,78.133 181.162,76.542 181.009,75.040 C181.172,73.449 180.364,71.946 178.684,71.029 L142.457,51.342 C140.853,50.426 138.931,50.005 137.010,50.005 C135.089,50.005 133.157,50.426 131.553,51.342 L95.326,70.952 C93.645,71.869 92.925,73.460 93.001,74.963 C92.925,76.553 93.645,78.133 95.326,79.050 L131.553,98.670 C133.157,99.588 135.079,100.007 137.010,100.007 C138.931,100.007 140.853,99.588 142.457,98.670 L178.684,79.050 Z"/>
<path fill-rule="evenodd"  stroke="rgb(109, 109, 109)" stroke-width="1px" stroke-linecap="butt" stroke-linejoin="miter" fill="none"
 d="M184.334,80.117 C186.243,79.072 187.148,77.259 186.976,75.546 C187.161,73.732 186.243,72.019 184.334,70.974 L143.181,48.531 C141.359,47.485 139.177,47.006 136.995,47.006 C134.812,47.006 132.617,47.485 130.795,48.531 L89.643,70.886 C87.733,71.931 86.915,73.745 87.002,75.457 C86.915,77.271 87.733,79.072 89.643,80.117 L130.795,102.485 C132.617,103.530 134.799,104.009 136.995,104.009 C139.177,104.009 141.359,103.530 143.181,102.485 L184.334,80.117 Z"/>
<path fill-rule="evenodd"  stroke="rgb(109, 109, 109)" stroke-width="1px" stroke-linecap="butt" stroke-linejoin="miter" fill="none"
 d="M139.456,55.249 L137.851,54.540 L134.106,56.196 L141.596,56.196 L142.933,57.141 L131.431,57.141 L129.023,58.324 L146.143,58.324 L148.282,59.744 L126.617,59.744 L124.744,60.926 L151.225,60.926 L153.900,62.345 L121.535,62.345 L119.127,63.764 L157.109,63.764 L159.249,65.183 L116.186,65.183 L114.313,66.366 L162.726,66.602 L164.866,67.784 L110.568,68.022 L108.428,69.204 L168.343,69.440 L170.215,70.623 L105.486,70.859 L103.346,72.279 L173.099,72.279 L175.239,73.698 L99.601,73.698 L98.632,74.880 L176.517,75.353 L175.774,76.772 L100.135,76.772 L102.008,77.955 L171.820,78.428 L169.681,79.847 L106.288,79.847 L108.160,81.030 L167.006,81.030 L165.401,82.449 L111.638,82.449 L113.242,83.632 L161.121,83.868 L159.249,85.287 L116.988,85.287 L118.860,86.470 L155.772,86.470 L153.900,87.889 L122.337,88.126 L124.209,89.308 L149.620,89.545 L147.747,90.964 L128.756,90.964 L130.629,92.383 L144.270,92.146 L142.665,93.566 L134.641,93.802 L137.851,95.458 L139.723,94.748 "/>
<path fill-rule="evenodd"  fill="rgb(153, 153, 153)"
 d="M219.997,76.998 L206.997,76.998 L206.997,80.999 L199.996,74.999 L206.997,68.999 L206.997,72.999 L219.997,72.999 L219.997,76.998 Z"/>
<path fill-rule="evenodd"  stroke="rgb(23, 204, 95)" stroke-width="2px" stroke-linecap="butt" stroke-linejoin="miter" fill="none"
 d="M190.998,76.000 L179.998,76.000 "/>
<path fill-rule="evenodd"  stroke="rgb(127, 127, 127)" stroke-width="1px" stroke-dasharray="4, 2" stroke-linecap="butt" stroke-linejoin="miter" fill="none"
 d="M137.997,68.998 L137.997,136.998 "/>
<path fill-rule="evenodd"  stroke="rgb(127, 127, 127)" stroke-width="1px" stroke-dasharray="4, 2" stroke-linecap="butt" stroke-linejoin="miter" fill="none"
 d="M190.009,42.419 C192.148,41.270 193.161,39.276 192.967,37.394 C193.176,35.401 192.148,33.517 190.009,32.368 L143.921,7.698 C141.880,6.549 139.436,6.023 136.991,6.023 C134.547,6.023 132.090,6.549 130.048,7.698 L83.960,32.271 C81.821,33.421 80.905,35.414 81.002,37.297 C80.905,39.290 81.821,41.270 83.960,42.419 L130.048,67.006 C132.090,68.155 134.534,68.681 136.991,68.681 C139.436,68.681 141.880,68.155 143.921,67.006 L190.009,42.419 Z"/>
</svg>
