<svg 
 xmlns="http://www.w3.org/2000/svg"
 xmlns:xlink="http://www.w3.org/1999/xlink"
 width="301px" height="148px">
<path fill-rule="evenodd"  fill="none"
 d="M-0.001,-0.001 L299.998,-0.001 L299.998,146.999 L-0.001,146.999 L-0.001,-0.001 Z"/>
<path fill-rule="evenodd"  stroke="rgb(127, 127, 127)" stroke-width="1px" stroke-dasharray="4, 2" stroke-linecap="butt" stroke-linejoin="miter" fill="none"
 d="M187.010,110.420 C189.148,109.270 190.162,107.277 189.968,105.394 C190.176,103.401 189.148,101.517 187.010,100.368 L140.921,75.698 C138.880,74.549 136.436,74.023 133.992,74.023 C131.547,74.023 129.090,74.549 127.049,75.698 L80.960,100.272 C78.822,101.421 77.905,103.415 78.002,105.297 C77.905,107.290 78.822,109.270 80.960,110.420 L127.049,135.006 C129.090,136.155 131.534,136.682 133.992,136.682 C136.436,136.682 138.880,136.155 140.921,135.006 L187.010,110.420 Z"/>
<path fill-rule="evenodd"  stroke="rgb(127, 127, 127)" stroke-width="1px" stroke-dasharray="4, 2" stroke-linecap="butt" stroke-linejoin="miter" fill="none"
 d="M78.997,40.998 L78.997,104.998 "/>
<path fill-rule="evenodd"  stroke="rgb(127, 127, 127)" stroke-width="1px" stroke-dasharray="4, 2" stroke-linecap="butt" stroke-linejoin="miter" fill="none"
 d="M189.998,40.998 L189.998,104.998 "/>
<path fill-rule="evenodd"  stroke="rgb(127, 127, 127)" stroke-width="1px" stroke-dasharray="4, 2" stroke-linecap="butt" stroke-linejoin="miter" fill="none"
 d="M134.997,6.998 L134.997,69.998 "/>
<path fill-rule="evenodd"  stroke="rgb(28, 227, 107)" stroke-width="2px" stroke-linecap="butt" stroke-linejoin="miter" fill="rgb(127, 127, 127)"
 d="M187.011,80.155 C189.149,79.005 190.163,77.012 189.969,75.129 C190.176,73.136 189.149,71.252 187.011,70.103 L140.921,45.433 C138.881,44.284 136.436,43.758 133.993,43.758 C131.548,43.758 129.090,44.284 127.049,45.433 L80.961,70.007 C78.822,71.155 77.906,73.149 78.002,75.032 C77.906,77.025 78.822,79.005 80.961,80.155 L127.049,104.741 C129.090,105.890 131.534,106.416 133.993,106.416 C136.436,106.416 138.881,105.890 140.921,104.741 L187.011,80.155 Z"/>
<path fill-rule="evenodd"  stroke="rgb(109, 109, 109)" stroke-width="1px" stroke-linecap="butt" stroke-linejoin="miter" fill="none"
 d="M175.685,79.051 C177.365,78.133 178.162,76.542 178.010,75.040 C178.172,73.449 177.365,71.947 175.685,71.029 L139.458,51.342 C137.853,50.426 135.932,50.005 134.010,50.005 C132.090,50.005 130.157,50.426 128.553,51.342 L92.326,70.953 C90.646,71.869 89.926,73.460 90.000,74.963 C89.926,76.553 90.646,78.133 92.326,79.051 L128.553,98.670 C130.157,99.588 132.079,100.008 134.010,100.008 C135.932,100.008 137.853,99.588 139.458,98.670 L175.685,79.051 Z"/>
<path fill-rule="evenodd"  stroke="rgb(109, 109, 109)" stroke-width="1px" stroke-linecap="butt" stroke-linejoin="miter" fill="none"
 d="M181.335,80.118 C183.244,79.072 184.149,77.259 183.976,75.546 C184.161,73.733 183.244,72.019 181.335,70.974 L140.182,48.531 C138.360,47.485 136.177,47.007 133.995,47.007 C131.812,47.007 129.617,47.485 127.796,48.531 L86.643,70.886 C84.734,71.931 83.915,73.745 84.002,75.457 C83.915,77.271 84.734,79.072 86.643,80.118 L127.796,102.485 C129.617,103.530 131.800,104.009 133.995,104.009 C136.177,104.009 138.360,103.530 140.182,102.485 L181.335,80.118 Z"/>
<path fill-rule="evenodd"  stroke="rgb(109, 109, 109)" stroke-width="1px" stroke-linecap="butt" stroke-linejoin="miter" fill="none"
 d="M136.456,55.249 L134.851,54.540 L131.106,56.196 L138.596,56.196 L139.933,57.142 L128.431,57.142 L126.024,58.324 L143.143,58.324 L145.282,59.744 L123.617,59.744 L121.744,60.926 L148.225,60.926 L150.900,62.345 L118.535,62.345 L116.128,63.764 L154.110,63.764 L156.250,65.183 L113.186,65.183 L111.313,66.366 L159.726,66.602 L161.866,67.785 L107.568,68.022 L105.428,69.204 L165.344,69.441 L167.216,70.623 L102.486,70.859 L100.346,72.279 L170.100,72.279 L172.239,73.698 L96.601,73.698 L95.633,74.880 L173.518,75.353 L172.774,76.772 L97.137,76.772 L99.009,77.955 L168.821,78.428 L166.681,79.847 L103.288,79.847 L105.161,81.030 L164.006,81.030 L162.401,82.449 L108.638,82.449 L110.243,83.632 L158.122,83.868 L156.250,85.287 L113.987,85.287 L115.860,86.470 L152.773,86.470 L150.900,87.889 L119.337,88.126 L121.210,89.308 L146.620,89.545 L144.748,90.964 L125.757,90.964 L127.629,92.383 L141.270,92.146 L139.666,93.566 L131.641,93.802 L134.851,95.458 L136.724,94.748 "/>
<path fill-rule="evenodd"  fill="rgb(255, 255, 255)"
 d="M216.997,76.999 L203.998,76.999 L203.998,80.999 L196.996,74.999 L203.998,68.999 L203.998,72.999 L216.997,72.999 L216.997,76.999 Z"/>
<path fill-rule="evenodd"  stroke="rgb(23, 204, 95)" stroke-width="2px" stroke-linecap="butt" stroke-linejoin="miter" fill="none"
 d="M187.999,76.000 L176.999,76.000 "/>
<path fill-rule="evenodd"  fill="rgb(255, 255, 255)"
 d="M229.231,76.840 L228.353,76.840 C227.840,76.840 227.583,76.579 227.583,76.057 C227.583,75.535 227.840,75.274 228.353,75.274 L229.231,75.274 C229.745,75.274 230.002,75.535 230.002,76.057 C230.002,76.579 229.745,76.840 229.231,76.840 ZM231.313,69.898 L231.933,70.530 C232.296,70.899 232.296,71.268 231.933,71.637 C231.570,72.006 231.207,72.006 230.845,71.637 L230.224,71.005 C229.860,70.636 229.860,70.267 230.224,69.898 C230.587,69.529 230.949,69.529 231.313,69.898 ZM247.209,74.644 C246.791,74.717 246.394,74.431 246.322,74.004 C246.194,73.231 245.978,72.475 245.677,71.753 C244.148,68.080 240.641,65.662 236.720,65.575 C232.800,65.489 229.194,67.751 227.510,71.354 C225.826,74.956 226.377,79.228 228.917,82.267 C228.938,82.291 228.969,82.306 229.000,82.306 L234.833,82.306 C235.261,82.306 235.608,82.659 235.608,83.094 C235.608,83.300 235.527,83.498 235.383,83.644 C235.240,83.790 235.046,83.872 234.843,83.872 L228.320,83.872 C228.291,83.872 228.262,83.860 228.242,83.838 C226.282,81.788 225.132,79.077 225.010,76.220 C224.714,69.386 230.262,63.728 236.982,64.010 C242.461,64.240 246.950,68.370 247.839,73.741 C247.911,74.167 247.629,74.572 247.209,74.644 ZM236.555,69.635 C236.042,69.635 235.785,69.374 235.785,68.852 L235.785,67.959 C235.785,67.436 236.042,67.175 236.555,67.175 C237.070,67.175 237.326,67.436 237.326,67.959 L237.326,68.852 C237.326,69.374 237.070,69.635 236.555,69.635 ZM234.402,77.841 C233.830,77.298 233.811,76.352 234.361,75.785 C234.698,75.436 235.187,75.286 235.658,75.387 L237.192,73.827 C237.492,73.521 237.980,73.521 238.281,73.826 C238.426,73.973 238.507,74.173 238.507,74.380 C238.507,74.588 238.426,74.787 238.281,74.934 L236.747,76.495 C236.875,77.108 236.597,77.734 236.059,78.042 C235.523,78.350 234.852,78.269 234.402,77.841 ZM241.691,69.897 C242.054,69.528 242.417,69.528 242.779,69.897 C243.142,70.267 243.142,70.636 242.779,71.005 L242.159,71.637 C241.796,72.006 241.433,72.006 241.070,71.637 C240.706,71.267 240.706,70.898 241.070,70.529 L241.691,69.897 Z"/>
<path fill-rule="evenodd"  fill="rgb(23, 204, 95)"
 d="M248.872,82.586 C248.792,82.668 248.681,82.714 248.567,82.714 L247.996,82.714 C247.614,82.714 247.423,83.185 247.693,83.459 L248.097,83.871 C248.265,84.041 248.265,84.318 248.097,84.489 L246.528,86.084 C246.360,86.254 246.090,86.254 245.922,86.084 L245.517,85.673 C245.438,85.591 245.330,85.544 245.217,85.544 C245.102,85.543 244.992,85.589 244.911,85.671 C244.829,85.754 244.784,85.865 244.784,85.982 L244.784,86.563 C244.784,86.804 244.591,87.000 244.355,87.000 L242.136,87.000 C241.899,87.000 241.706,86.804 241.706,86.563 L241.706,85.982 C241.707,85.865 241.661,85.754 241.580,85.671 C241.498,85.589 241.388,85.543 241.273,85.544 C241.160,85.544 241.052,85.591 240.973,85.673 L240.568,86.084 C240.401,86.254 240.130,86.254 239.962,86.084 L238.393,84.489 C238.226,84.318 238.226,84.041 238.393,83.871 L238.798,83.459 C239.069,83.184 238.876,82.714 238.494,82.714 L237.923,82.714 C237.686,82.714 237.493,82.518 237.493,82.277 L237.493,80.020 C237.493,79.779 237.686,79.583 237.923,79.583 L238.495,79.583 C238.878,79.583 239.068,79.111 238.798,78.837 L238.394,78.426 C238.227,78.255 238.227,77.979 238.394,77.808 L239.963,76.212 C240.131,76.042 240.401,76.042 240.569,76.212 L240.974,76.624 C241.053,76.706 241.161,76.753 241.275,76.753 C241.389,76.754 241.499,76.708 241.581,76.626 C241.662,76.543 241.707,76.432 241.707,76.315 L241.707,75.734 C241.707,75.492 241.899,75.297 242.137,75.297 L244.356,75.297 C244.594,75.297 244.786,75.492 244.786,75.734 L244.786,76.315 C244.785,76.432 244.831,76.543 244.913,76.626 C244.993,76.708 245.104,76.754 245.219,76.753 C245.332,76.753 245.440,76.706 245.519,76.624 L245.923,76.212 C246.091,76.042 246.362,76.042 246.530,76.212 L248.099,77.808 C248.267,77.979 248.267,78.255 248.099,78.426 L247.694,78.837 C247.423,79.112 247.616,79.583 247.998,79.583 L248.569,79.583 C248.683,79.583 248.792,79.629 248.873,79.711 C248.954,79.793 248.999,79.904 248.999,80.020 L248.999,82.277 C248.999,82.393 248.954,82.504 248.872,82.586 ZM247.472,81.064 C246.893,80.899 246.420,80.473 246.190,79.908 C245.960,79.343 245.998,78.702 246.292,78.169 L246.176,78.050 C245.652,78.350 245.021,78.388 244.465,78.154 C243.909,77.920 243.491,77.439 243.329,76.850 L243.164,76.850 C243.138,76.944 243.105,77.036 243.067,77.125 C242.961,77.368 242.808,77.586 242.618,77.768 C242.254,78.114 241.774,78.307 241.275,78.306 C240.939,78.306 240.610,78.218 240.318,78.050 L240.201,78.169 C240.496,78.702 240.534,79.343 240.303,79.908 C240.073,80.473 239.601,80.899 239.022,81.064 L239.022,81.232 C239.601,81.397 240.073,81.824 240.303,82.389 C240.534,82.953 240.496,83.594 240.201,84.128 L240.318,84.247 C240.610,84.078 240.939,83.990 241.275,83.991 C241.774,83.990 242.253,84.182 242.617,84.528 C242.879,84.777 243.069,85.095 243.165,85.446 L243.329,85.446 C243.355,85.352 243.388,85.261 243.427,85.172 C243.532,84.929 243.685,84.710 243.876,84.529 C244.239,84.182 244.720,83.990 245.218,83.991 C245.553,83.990 245.883,84.078 246.176,84.247 L246.292,84.128 C245.998,83.595 245.960,82.954 246.190,82.389 C246.420,81.824 246.893,81.398 247.472,81.233 L247.472,81.064 ZM243.246,83.433 C242.006,83.433 241.000,82.410 241.000,81.148 C241.000,79.886 242.006,78.863 243.246,78.863 C244.486,78.865 245.491,79.887 245.492,81.148 C245.492,82.410 244.486,83.433 243.246,83.433 ZM243.246,80.417 C242.849,80.417 242.527,80.744 242.527,81.148 C242.527,81.552 242.849,81.879 243.246,81.879 C243.643,81.879 243.965,81.552 243.965,81.148 C243.965,80.744 243.643,80.417 243.246,80.417 Z"/>
<path fill-rule="evenodd"  stroke="rgb(127, 127, 127)" stroke-width="1px" stroke-dasharray="4, 2" stroke-linecap="butt" stroke-linejoin="miter" fill="none"
 d="M134.997,68.998 L134.997,136.998 "/>
<path fill-rule="evenodd"  stroke="rgb(127, 127, 127)" stroke-width="1px" stroke-dasharray="4, 2" stroke-linecap="butt" stroke-linejoin="miter" fill="none"
 d="M187.010,42.419 C189.148,41.270 190.162,39.277 189.968,37.394 C190.176,35.401 189.148,33.517 187.010,32.368 L140.921,7.698 C138.880,6.549 136.436,6.023 133.992,6.023 C131.547,6.023 129.090,6.549 127.049,7.698 L80.960,32.272 C78.822,33.421 77.905,35.414 78.002,37.297 C77.905,39.290 78.822,41.270 80.960,42.419 L127.049,67.006 C129.090,68.155 131.534,68.682 133.992,68.682 C136.436,68.682 138.880,68.155 140.921,67.006 L187.010,42.419 Z"/>
</svg>
