<svg width="24" height="24" viewBox="0 0 24 24" fill="none" xmlns="http://www.w3.org/2000/svg">
<g id="&#230;&#137;&#147;&#229;&#141;&#176;&#230;&#156;&#186;">
<g id="Group 5683">
<path id="Vector" d="M19.3375 11.3984H4.57747C3.49747 11.3984 3.01747 12.8384 3.85747 13.6784L11.1775 20.6384C11.6575 21.1184 12.2575 21.1184 12.7375 20.6384L20.0575 13.6784C21.0175 12.8384 20.5375 11.3984 19.3375 11.3984ZM11.4175 19.0784L5.29747 13.3184L11.4175 14.9984V19.0784ZM12.0175 13.7984L7.81747 12.7184H16.2175L12.0175 13.7984ZM12.6175 19.0784V14.9984L18.7375 13.3184L12.6175 19.0784Z" fill="#DBDBDB"/>
<path id="Vector_2" d="M15.0156 3H9.01562V6.6H15.0156V3Z" fill="#DBDBDB"/>
<path id="Vector_3" d="M12.6187 10.6792V9.59922H13.8187V7.19922H10.2188V9.59922H11.4187V10.6792H12.6187Z" fill="#DBDBDB"/>
</g>
</g>
</svg>
