<svg width="24" height="24" viewBox="0 0 24 24" fill="none" xmlns="http://www.w3.org/2000/svg">
<g id="&#231;&#148;&#168;&#230;&#136;&#183;&#229;&#143;&#141;&#233;&#166;&#136;">
<path id="Vector" d="M11.4334 19.7918V18.4168H18.132C18.2083 18.4168 18.2745 18.3933 18.3304 18.3462C18.3862 18.2993 18.4141 18.2377 18.4141 18.1613V11.7499C18.4141 9.99755 17.7871 8.52233 16.5331 7.32425C15.2792 6.12616 13.7673 5.52712 11.9974 5.52712C10.2275 5.52712 8.71558 6.12616 7.46173 7.32425C6.20773 8.52233 5.58073 9.99755 5.58073 11.7499V17.1475H4.89323C4.45369 17.1475 4.07648 16.9945 3.7616 16.6885C3.44658 16.3823 3.28906 16.0094 3.28906 15.5699V13.7895C3.28906 13.4922 3.3737 13.2198 3.54298 12.9723C3.71226 12.7249 3.93317 12.5261 4.20573 12.3758L4.24813 11.2052C4.31749 10.2074 4.57217 9.28309 5.01217 8.43227C5.45232 7.58145 6.02058 6.84078 6.71694 6.21027C7.41315 5.57975 8.21492 5.0885 9.12227 4.7365C10.0295 4.3845 10.9878 4.2085 11.9974 4.2085C13.007 4.2085 13.963 4.3845 14.8654 4.7365C15.768 5.0885 16.5684 5.57738 17.2664 6.20316C17.9644 6.82894 18.5312 7.56724 18.9666 8.41806C19.402 9.26903 19.662 10.1933 19.7467 11.191L19.7891 12.3386C20.0558 12.4644 20.2753 12.6442 20.4475 12.8781C20.6196 13.112 20.7057 13.3729 20.7057 13.6607V15.7074C20.7057 15.9952 20.6196 16.2561 20.4475 16.49C20.2753 16.7239 20.0558 16.9037 19.7891 17.0295V18.1613C19.7891 18.6125 19.6272 18.997 19.3035 19.3149C18.9796 19.6329 18.5891 19.7918 18.132 19.7918H11.4334ZM9.42362 13.622C9.19919 13.622 9.00792 13.5459 8.84979 13.3937C8.69182 13.2416 8.61283 13.0532 8.61283 12.8286C8.61283 12.6042 8.69182 12.4144 8.84979 12.2594C9.00792 12.1041 9.19919 12.0265 9.42362 12.0265C9.64821 12.0265 9.83949 12.1041 9.99746 12.2594C10.1556 12.4144 10.2346 12.6042 10.2346 12.8286C10.2346 13.0532 10.1556 13.2416 9.99746 13.3937C9.83949 13.5459 9.64821 13.622 9.42362 13.622ZM14.5712 13.622C14.3466 13.622 14.1553 13.5459 13.9973 13.3937C13.8392 13.2416 13.7601 13.0532 13.7601 12.8286C13.7601 12.6042 13.8392 12.4144 13.9973 12.2594C14.1553 12.1041 14.3466 12.0265 14.5712 12.0265C14.7956 12.0265 14.9869 12.1041 15.145 12.2594C15.303 12.4144 15.382 12.6042 15.382 12.8286C15.382 13.0532 15.303 13.2416 15.145 13.3937C14.9869 13.5459 14.7956 13.622 14.5712 13.622ZM6.83771 12.1835C6.74253 10.6875 7.20789 9.40737 8.23379 8.34312C9.25969 7.27902 10.5295 6.74698 12.0432 6.74698C13.3148 6.74698 14.4368 7.14038 15.4092 7.92718C16.3818 8.71399 16.9721 9.73256 17.18 10.9829C15.8779 10.9676 14.6748 10.6257 13.5706 9.95714C12.4665 9.28843 11.6189 8.37177 11.0278 7.20714C10.7951 8.34702 10.3074 9.35474 9.56479 10.2303C8.82199 11.1059 7.91296 11.7569 6.83771 12.1835Z" fill="#DBDBDB"/>
</g>
</svg>
