<svg width="24" height="24" viewBox="0 0 24 24" fill="none" xmlns="http://www.w3.org/2000/svg">
<g id="&#230;&#140;&#135;&#229;&#141;&#151;&#232;&#174;&#186;&#229;&#157;&#155;">
<path id="Vector" d="M15.3916 10.735L18.6986 8.83524L15.3916 6.9353L12.0848 8.83524L15.3916 10.735ZM15.3916 13.3265L17.737 11.9734V10.2829L15.3916 11.6529L13.0464 10.2829V11.9734L15.3916 13.3265ZM3.64844 18.5604V16.4008C4.24461 16.4008 4.75363 16.6116 5.1755 17.0334C5.59722 17.4552 5.80808 17.9643 5.80808 18.5604H3.64844ZM7.73149 18.5604C7.73149 17.4367 7.33331 16.478 6.53695 15.6844C5.7406 14.8908 4.77776 14.4885 3.64844 14.4774V13.1613C5.15122 13.1613 6.42677 13.6851 7.47508 14.7327C8.52339 15.7804 9.04754 17.0563 9.04754 18.5604H7.73149ZM11.1398 18.5604C11.1398 17.521 10.9427 16.5475 10.5485 15.6397C10.1543 14.732 9.61937 13.9405 8.9438 13.2651C8.26837 12.5895 7.47683 12.0546 6.5692 11.6604C5.66141 11.2661 4.68783 11.069 3.64844 11.069V9.75297C4.86666 9.75297 6.00907 9.98298 7.07566 10.443C8.14239 10.903 9.07577 11.5331 9.87578 12.3331C10.6758 13.1331 11.3058 14.0665 11.7659 15.1332C12.2259 16.1998 12.4559 17.3422 12.4559 18.5604H11.1398ZM14.3793 18.5604C14.3793 17.0746 14.0973 15.6816 13.5333 14.3815C12.9692 13.0814 12.2021 11.9465 11.2322 10.9767C10.2624 10.0067 9.12746 9.23971 7.82734 8.67556C6.52723 8.11156 5.13426 7.82956 3.64844 7.82956V6.98597C3.64844 6.54977 3.80373 6.17637 4.11432 5.86578C4.42491 5.5552 4.7983 5.3999 5.2345 5.3999H18.7324C19.1686 5.3999 19.542 5.5552 19.8526 5.86578C20.1631 6.17637 20.3184 6.54977 20.3184 6.98597V16.9744C20.3184 17.4106 20.1631 17.784 19.8526 18.0945C19.542 18.4051 19.1686 18.5604 18.7324 18.5604H14.3793Z" fill="#DBDBDB"/>
</g>
</svg>
