<svg width="24" height="24" viewBox="0 0 24 24" fill="none" xmlns="http://www.w3.org/2000/svg">
<g id="&#228;&#187;&#187;&#229;&#138;&#161;/&#233;&#161;&#185;&#231;&#155;&#174;-&#229;&#161;&#171;&#229;&#133;&#133;">
<path id="Vector" d="M6.16667 19.5002C5.70833 19.5002 5.31597 19.337 4.98958 19.0106C4.66319 18.6842 4.5 18.2918 4.5 17.8335V6.16683C4.5 5.7085 4.66319 5.31613 4.98958 4.98975C5.31597 4.66336 5.70833 4.50016 6.16667 4.50016H9.66667C9.84722 4.00016 10.1493 3.59738 10.5729 3.29183C10.9965 2.98627 11.4722 2.8335 12 2.8335C12.5278 2.8335 13.0035 2.98627 13.4271 3.29183C13.8507 3.59738 14.1528 4.00016 14.3333 4.50016H17.8333C18.2917 4.50016 18.684 4.66336 19.0104 4.98975C19.3368 5.31613 19.5 5.7085 19.5 6.16683V17.8335C19.5 18.2918 19.3368 18.6842 19.0104 19.0106C18.684 19.337 18.2917 19.5002 17.8333 19.5002H6.16667ZM7.83333 16.1668H13.6667V14.5002H7.83333V16.1668ZM7.83333 12.8335H16.1667V11.1668H7.83333V12.8335ZM7.83333 9.50016H16.1667V7.8335H7.83333V9.50016ZM12 5.54183C12.1806 5.54183 12.3299 5.4828 12.4479 5.36475C12.566 5.24669 12.625 5.09738 12.625 4.91683C12.625 4.73627 12.566 4.58697 12.4479 4.46891C12.3299 4.35086 12.1806 4.29183 12 4.29183C11.8194 4.29183 11.6701 4.35086 11.5521 4.46891C11.434 4.58697 11.375 4.73627 11.375 4.91683C11.375 5.09738 11.434 5.24669 11.5521 5.36475C11.6701 5.4828 11.8194 5.54183 12 5.54183Z" fill="#DBDBDB"/>
</g>
</svg>
