<svg width="24" height="24" viewBox="0 0 24 24" fill="none" xmlns="http://www.w3.org/2000/svg">
<g id="&#233;&#171;&#152;&#231;&#186;&#167;&#229;&#143;&#130;&#230;&#149;&#176;">
<path id="Vector" d="M3.90156 11.0999L9.30156 11.0999L9.30156 12.8999L7.50156 12.8999L7.50156 20.0999L5.70156 20.0999L5.70156 12.8999L3.90156 12.8999L3.90156 11.0999ZM5.70156 3.8999L7.50156 3.8999L7.50156 9.2999L5.70156 9.2999L5.70156 3.8999ZM9.30156 7.4999L11.1016 7.4999L11.1016 3.8999L12.9016 3.8999L12.9016 7.4999L14.7016 7.4999L14.7016 9.2999L9.30156 9.2999L9.30156 7.4999ZM11.1016 11.0999L12.9016 11.0999L12.9016 20.0999L11.1016 20.0999L11.1016 11.0999ZM14.7016 14.6999L20.1016 14.6999L20.1016 16.4999L18.3016 16.4999L18.3016 20.0999L16.5016 20.0999L16.5016 16.4999L14.7016 16.4999L14.7016 14.6999ZM16.5016 3.8999L18.3016 3.8999L18.3016 12.8999L16.5016 12.8999L16.5016 3.8999Z" fill="#DBDBDB"/>
</g>
</svg>
