<svg width="24" height="24" viewBox="0 0 24 24" fill="none" xmlns="http://www.w3.org/2000/svg">
<g id="&#228;&#184;&#170;&#228;&#186;&#186;&#228;&#184;&#173;&#229;&#191;&#131;">
<path id="Vector" fill-rule="evenodd" clip-rule="evenodd" d="M11.9834 3.6499C9.56065 3.6499 7.5966 5.61396 7.5966 8.03674C7.5966 10.4595 9.56065 12.4236 11.9834 12.4236C14.4062 12.4236 16.3703 10.4595 16.3703 8.03674C16.3703 5.61396 14.4062 3.6499 11.9834 3.6499ZM8.47396 13.301C7.21124 13.301 6.01312 13.6857 5.11533 14.4457C4.20362 15.2175 3.64844 16.3399 3.64844 17.6878V19.0038C3.64844 19.7307 4.23766 20.3199 4.96449 20.3199H19.0024C19.7292 20.3199 20.3184 19.7307 20.3184 19.0038V17.6878C20.3184 16.3399 19.7633 15.2175 18.8515 14.4457C17.9538 13.6857 16.7556 13.301 15.4929 13.301H8.47396Z" fill="#DBDBDB"/>
</g>
</svg>
