<svg width="24" height="24" viewBox="0 0 24 24" fill="none" xmlns="http://www.w3.org/2000/svg">
<g id="&#229;&#149;&#134;&#229;&#159;&#142;/&#232;&#180;&#173;&#231;&#137;&#169;">
<path id="Vector" d="M6.16667 20.3335C5.70833 20.3335 5.31597 20.1703 4.98958 19.8439C4.66319 19.5175 4.5 19.1252 4.5 18.6668V8.66683C4.5 8.2085 4.66319 7.81614 4.98958 7.48975C5.31597 7.16336 5.70833 7.00016 6.16667 7.00016H7.83333C7.83333 5.84739 8.23958 4.86475 9.05208 4.05225C9.86458 3.23975 10.8472 2.8335 12 2.8335C13.1528 2.8335 14.1354 3.23975 14.9479 4.05225C15.7604 4.86475 16.1667 5.84739 16.1667 7.00016H17.8333C18.2917 7.00016 18.684 7.16336 19.0104 7.48975C19.3368 7.81614 19.5 8.2085 19.5 8.66683V18.6668C19.5 19.1252 19.3368 19.5175 19.0104 19.8439C18.684 20.1703 18.2917 20.3335 17.8333 20.3335H6.16667ZM12 13.6668C13.1528 13.6668 14.1354 13.2606 14.9479 12.4481C15.7604 11.6356 16.1667 10.6529 16.1667 9.50016H14.5C14.5 10.1946 14.2569 10.7849 13.7708 11.271C13.2847 11.7571 12.6944 12.0002 12 12.0002C11.3056 12.0002 10.7153 11.7571 10.2292 11.271C9.74306 10.7849 9.5 10.1946 9.5 9.50016H7.83333C7.83333 10.6529 8.23958 11.6356 9.05208 12.4481C9.86458 13.2606 10.8472 13.6668 12 13.6668ZM9.5 7.00016H14.5C14.5 6.30572 14.2569 5.71544 13.7708 5.22933C13.2847 4.74322 12.6944 4.50016 12 4.50016C11.3056 4.50016 10.7153 4.74322 10.2292 5.22933C9.74306 5.71544 9.5 6.30572 9.5 7.00016Z" fill="#DBDBDB"/>
</g>
</svg>
