<svg 
 xmlns="http://www.w3.org/2000/svg"
 xmlns:xlink="http://www.w3.org/1999/xlink"
 width="30px" height="30px">
<path fill-rule="evenodd"  opacity="0.102" fill="none"
 d="M15.000,-0.000 C23.284,-0.000 30.000,6.716 30.000,15.000 C30.000,23.284 23.284,30.000 15.000,30.000 C6.716,30.000 -0.000,23.284 -0.000,15.000 C-0.000,6.716 6.716,-0.000 15.000,-0.000 Z"/>
<path fill-rule="evenodd"  fill="rgb(51, 51, 51)"
 d="M16.451,14.999 L19.673,11.769 C20.076,11.364 20.076,10.708 19.673,10.302 C19.268,9.897 18.613,9.897 18.208,10.302 L14.986,13.531 L11.765,10.302 C11.360,9.897 10.706,9.897 10.301,10.302 C9.896,10.708 9.896,11.364 10.301,11.769 L13.522,14.999 L10.301,18.227 C9.896,18.633 9.896,19.289 10.301,19.695 C10.495,19.890 10.759,19.999 11.033,19.999 C11.308,19.999 11.571,19.890 11.765,19.695 L14.986,16.466 L18.208,19.695 C18.402,19.890 18.666,19.999 18.940,19.999 C19.215,19.999 19.478,19.890 19.672,19.695 C20.076,19.289 20.076,18.633 19.672,18.227 L16.451,14.999 Z"/>
</svg>
