<svg width="20" height="20" viewBox="0 0 20 20" fill="none" xmlns="http://www.w3.org/2000/svg">
<g id="&#232;&#167;&#134;&#232;&#167;&#146;&#229;&#164;&#141;&#228;&#189;&#141;">
<g id="Ellipse 239">
<circle cx="10" cy="10" r="10" fill="#4E5969"/>
<circle cx="10" cy="10" r="10" fill="white" fill-opacity="0.2"/>
</g>
<g id="&#232;&#129;&#154;&#231;&#132;&#166; 1" clip-path="url(#clip0_3762_243632)">
<path id="Vector" d="M18.3335 9.5674L17.2707 9.56893C17.0587 5.92514 14.1363 2.99704 10.4996 2.78462V1.66708C10.4996 1.43178 10.3104 1.66707 10.0756 1.66707C9.84077 1.66707 9.65159 1.43178 9.65159 1.66708V2.78462C6.01164 2.99704 3.08925 5.92514 2.87724 9.56893H1.66687C1.43204 9.56893 1.66687 9.76511 1.66687 10.0004C1.66687 10.2357 1.43204 10.4186 1.66687 10.4186H2.8805C3.09251 14.0624 6.01491 16.9905 9.65159 17.2029V18.3337C9.65159 18.569 9.84076 18.3337 10.0756 18.3337C10.3104 18.3337 10.4996 18.569 10.4996 18.3337V17.2029C14.1363 16.9905 17.0587 14.0624 17.2707 10.4186L18.3335 10.4171C18.5684 10.4171 18.334 10.2291 18.334 9.99377C18.334 9.75847 18.5684 9.5674 18.3335 9.5674ZM14.9969 10.4186C14.9937 10.4186 16.4194 10.4186 16.4194 10.4186C16.2107 13.5951 13.6699 16.1441 10.4996 16.3532V15.0004C10.4169 15.0004 10.3104 15.0004 10.0756 15.0004C9.84077 15.0004 9.65159 15.0004 9.65159 15.0004V16.3532C6.48131 16.1441 3.93726 13.5951 3.72852 10.4186H5.0002C5.0002 10.4186 5.0002 10.2291 5.0002 9.99377C5.0002 9.75847 5.0002 9.58374 5.0002 9.56893H3.72852C3.93726 6.39246 6.48131 3.84671 9.65159 3.63429V5.00041C9.65159 5.00041 9.84077 5.00041 10.0756 5.00041C10.3104 5.00041 10.4996 5.00041 10.4996 5.00041V3.63756C13.6699 3.84671 16.2107 6.39573 16.4227 9.5722H15.0002C15.0002 9.5722 15.0002 9.76511 15.0002 10.0004C15.0002 10.2357 15.0002 10.4186 14.9969 10.4186Z" fill="white"/>
<path id="Vector_2" d="M12.876 8.89613L10.6222 10.1216C10.4135 10.2327 10.2863 10.4582 10.2863 10.7066V13.0726C10.2863 13.3275 10.5341 13.4942 10.7429 13.3765L12.9967 12.151C13.1989 12.0399 13.3326 11.8144 13.3326 11.5661V9.20332C13.3326 8.94515 13.0847 8.78175 12.876 8.89613ZM9.44477 10.1151L7.191 8.89613C6.98226 8.78502 6.73438 8.94842 6.73438 9.20005V11.5791C6.73438 11.8275 6.86158 12.053 7.07032 12.1641L9.32409 13.3831C9.53283 13.4942 9.78071 13.3275 9.78071 13.0726V10.7001C9.78071 10.4517 9.65351 10.2262 9.44477 10.1151ZM12.6672 8.34058C12.7749 8.28502 12.8238 8.18698 12.814 8.09548C12.8238 7.99744 12.7749 7.90594 12.6672 7.85038L10.3743 6.65104C10.2732 6.59548 10.1525 6.56934 10.0286 6.56934C9.90791 6.56934 9.78397 6.59548 9.68286 6.65104L7.38996 7.84711C7.28232 7.90267 7.23666 8.00071 7.24318 8.09221C7.23666 8.19025 7.28232 8.28502 7.38996 8.34058L9.68286 9.53666C9.78397 9.59221 9.90465 9.61836 10.0286 9.61836C10.1493 9.61836 10.2732 9.59221 10.3743 9.53666L12.6672 8.34058Z" fill="white"/>
</g>
</g>
<defs>
<clipPath id="clip0_3762_243632">
<rect width="16.6667" height="16.6667" fill="white" transform="translate(1.66406 1.66699)"/>
</clipPath>
</defs>
</svg>
